ISO-10303-21;
HEADER;
FILE_DESCRIPTION(('FreeCAD Model'),'2;1');
FILE_NAME('Open CASCADE Shape Model','2026-10-01T10:29:55',('FreeCAD'),(
    'FreeCAD'),'Open CASCADE STEP processor 7.8','FreeCAD','Unknown');
FILE_SCHEMA(('AUTOMOTIVE_DESIGN { 1 0 10303 214 1 1 1 1 }'));
ENDSEC;
DATA;
#1 = APPLICATION_PROTOCOL_DEFINITION('international standard',
  'automotive_design',2000,#2);
#2 = APPLICATION_CONTEXT(
  'core data for automotive mechanical design processes');
#3 = SHAPE_DEFINITION_REPRESENTATION(#4,#10);
#4 = PRODUCT_DEFINITION_SHAPE('','',#5);
#5 = PRODUCT_DEFINITION('design','',#6,#9);
#6 = PRODUCT_DEFINITION_FORMATION('','',#7);
#7 = PRODUCT('Open CASCADE STEP translator 7.8 13',
  'Open CASCADE STEP translator 7.8 13','',(#8));
#8 = PRODUCT_CONTEXT('',#2,'mechanical');
#9 = PRODUCT_DEFINITION_CONTEXT('part definition',#2,'design');
#10 = ADVANCED_BREP_SHAPE_REPRESENTATION('',(#11,#15),#856);
#11 = AXIS2_PLACEMENT_3D('',#12,#13,#14);
#12 = CARTESIAN_POINT('',(0.,0.,0.));
#13 = DIRECTION('',(0.,0.,1.));
#14 = DIRECTION('',(1.,0.,-0.));
#15 = MANIFOLD_SOLID_BREP('',#16);
#16 = CLOSED_SHELL('',(#17,#57,#88,#119,#159,#183,#256,#280,#304,#337,
    #449,#466,#483,#505,#517,#542,#567,#592,#609,#621,#652,#676,#700,
    #724,#748,#765,#790,#815,#832,#844));
#17 = ADVANCED_FACE('',(#18),#52,.T.);
#18 = FACE_BOUND('',#19,.T.);
#19 = EDGE_LOOP('',(#20,#30,#38,#46));
#20 = ORIENTED_EDGE('',*,*,#21,.F.);
#21 = EDGE_CURVE('',#22,#24,#26,.T.);
#22 = VERTEX_POINT('',#23);
#23 = CARTESIAN_POINT('',(17.,180.,3.1));
#24 = VERTEX_POINT('',#25);
#25 = CARTESIAN_POINT('',(17.,0.4,3.1));
#26 = LINE('',#27,#28);
#27 = CARTESIAN_POINT('',(17.,180.,3.1));
#28 = VECTOR('',#29,1.);
#29 = DIRECTION('',(0.,-1.,2.22044604925E-16));
#30 = ORIENTED_EDGE('',*,*,#31,.F.);
#31 = EDGE_CURVE('',#32,#22,#34,.T.);
#32 = VERTEX_POINT('',#33);
#33 = CARTESIAN_POINT('',(12.7,180.,3.1));
#34 = LINE('',#35,#36);
#35 = CARTESIAN_POINT('',(1.24344978758E-14,180.,3.1));
#36 = VECTOR('',#37,1.);
#37 = DIRECTION('',(1.,0.,0.));
#38 = ORIENTED_EDGE('',*,*,#39,.T.);
#39 = EDGE_CURVE('',#32,#40,#42,.T.);
#40 = VERTEX_POINT('',#41);
#41 = CARTESIAN_POINT('',(12.7,0.4,3.1));
#42 = LINE('',#43,#44);
#43 = CARTESIAN_POINT('',(12.7,180.,3.1));
#44 = VECTOR('',#45,1.);
#45 = DIRECTION('',(0.,-1.,2.22044604925E-16));
#46 = ORIENTED_EDGE('',*,*,#47,.T.);
#47 = EDGE_CURVE('',#40,#24,#48,.T.);
#48 = LINE('',#49,#50);
#49 = CARTESIAN_POINT('',(12.7,0.4,3.1));
#50 = VECTOR('',#51,1.);
#51 = DIRECTION('',(1.,0.,0.));
#52 = PLANE('',#53);
#53 = AXIS2_PLACEMENT_3D('',#54,#55,#56);
#54 = CARTESIAN_POINT('',(1.24344978758E-14,180.,3.1));
#55 = DIRECTION('',(0.,2.22044604925E-16,1.));
#56 = DIRECTION('',(0.,-1.,2.22044604925E-16));
#57 = ADVANCED_FACE('',(#58),#83,.T.);
#58 = FACE_BOUND('',#59,.T.);
#59 = EDGE_LOOP('',(#60,#70,#76,#77));
#60 = ORIENTED_EDGE('',*,*,#61,.F.);
#61 = EDGE_CURVE('',#62,#64,#66,.T.);
#62 = VERTEX_POINT('',#63);
#63 = CARTESIAN_POINT('',(17.,180.,0.));
#64 = VERTEX_POINT('',#65);
#65 = CARTESIAN_POINT('',(17.,0.4,3.907985046681E-14));
#66 = LINE('',#67,#68);
#67 = CARTESIAN_POINT('',(17.,180.,0.));
#68 = VECTOR('',#69,1.);
#69 = DIRECTION('',(0.,-1.,2.22044604925E-16));
#70 = ORIENTED_EDGE('',*,*,#71,.T.);
#71 = EDGE_CURVE('',#62,#22,#72,.T.);
#72 = LINE('',#73,#74);
#73 = CARTESIAN_POINT('',(17.,180.,0.));
#74 = VECTOR('',#75,1.);
#75 = DIRECTION('',(0.,2.22044604925E-16,1.));
#76 = ORIENTED_EDGE('',*,*,#21,.T.);
#77 = ORIENTED_EDGE('',*,*,#78,.F.);
#78 = EDGE_CURVE('',#64,#24,#79,.T.);
#79 = LINE('',#80,#81);
#80 = CARTESIAN_POINT('',(17.,0.4,3.907985046681E-14));
#81 = VECTOR('',#82,1.);
#82 = DIRECTION('',(0.,2.22044604925E-16,1.));
#83 = PLANE('',#84);
#84 = AXIS2_PLACEMENT_3D('',#85,#86,#87);
#85 = CARTESIAN_POINT('',(17.,180.,0.));
#86 = DIRECTION('',(1.,0.,0.));
#87 = DIRECTION('',(0.,-1.,2.22044604925E-16));
#88 = ADVANCED_FACE('',(#89),#114,.T.);
#89 = FACE_BOUND('',#90,.F.);
#90 = EDGE_LOOP('',(#91,#99,#100,#108));
#91 = ORIENTED_EDGE('',*,*,#92,.F.);
#92 = EDGE_CURVE('',#40,#93,#95,.T.);
#93 = VERTEX_POINT('',#94);
#94 = CARTESIAN_POINT('',(12.3,2.84217094304E-14,2.7));
#95 = LINE('',#96,#97);
#96 = CARTESIAN_POINT('',(12.566666666667,0.266666666667,2.966666666667)
  );
#97 = VECTOR('',#98,1.);
#98 = DIRECTION('',(-0.57735026919,-0.57735026919,-0.57735026919));
#99 = ORIENTED_EDGE('',*,*,#47,.T.);
#100 = ORIENTED_EDGE('',*,*,#101,.T.);
#101 = EDGE_CURVE('',#24,#102,#104,.T.);
#102 = VERTEX_POINT('',#103);
#103 = CARTESIAN_POINT('',(16.6,2.84217094304E-14,2.7));
#104 = LINE('',#105,#106);
#105 = CARTESIAN_POINT('',(15.633333333333,-0.966666666667,
    1.733333333333));
#106 = VECTOR('',#107,1.);
#107 = DIRECTION('',(-0.57735026919,-0.57735026919,-0.57735026919));
#108 = ORIENTED_EDGE('',*,*,#109,.F.);
#109 = EDGE_CURVE('',#93,#102,#110,.T.);
#110 = LINE('',#111,#112);
#111 = CARTESIAN_POINT('',(12.7,2.84217094304E-14,2.7));
#112 = VECTOR('',#113,1.);
#113 = DIRECTION('',(1.,0.,0.));
#114 = PLANE('',#115);
#115 = AXIS2_PLACEMENT_3D('',#116,#117,#118);
#116 = CARTESIAN_POINT('',(12.7,0.2,2.9));
#117 = DIRECTION('',(-3.474993633276E-18,-0.707106781187,0.707106781187)
  );
#118 = DIRECTION('',(-1.,2.457191562669E-18,-2.457191562669E-18));
#119 = ADVANCED_FACE('',(#120),#154,.T.);
#120 = FACE_BOUND('',#121,.T.);
#121 = EDGE_LOOP('',(#122,#123,#131,#139,#147,#153));
#122 = ORIENTED_EDGE('',*,*,#71,.F.);
#123 = ORIENTED_EDGE('',*,*,#124,.T.);
#124 = EDGE_CURVE('',#62,#125,#127,.T.);
#125 = VERTEX_POINT('',#126);
#126 = CARTESIAN_POINT('',(29.,180.,0.));
#127 = LINE('',#128,#129);
#128 = CARTESIAN_POINT('',(1.24344978758E-14,180.,0.));
#129 = VECTOR('',#130,1.);
#130 = DIRECTION('',(1.,0.,0.));
#131 = ORIENTED_EDGE('',*,*,#132,.T.);
#132 = EDGE_CURVE('',#125,#133,#135,.T.);
#133 = VERTEX_POINT('',#134);
#134 = CARTESIAN_POINT('',(29.,180.,14.8));
#135 = LINE('',#136,#137);
#136 = CARTESIAN_POINT('',(29.,180.,0.));
#137 = VECTOR('',#138,1.);
#138 = DIRECTION('',(0.,2.22044604925E-16,1.));
#139 = ORIENTED_EDGE('',*,*,#140,.F.);
#140 = EDGE_CURVE('',#141,#133,#143,.T.);
#141 = VERTEX_POINT('',#142);
#142 = CARTESIAN_POINT('',(12.7,180.,14.8));
#143 = LINE('',#144,#145);
#144 = CARTESIAN_POINT('',(1.24344978758E-14,180.,14.8));
#145 = VECTOR('',#146,1.);
#146 = DIRECTION('',(1.,0.,0.));
#147 = ORIENTED_EDGE('',*,*,#148,.F.);
#148 = EDGE_CURVE('',#32,#141,#149,.T.);
#149 = LINE('',#150,#151);
#150 = CARTESIAN_POINT('',(12.7,180.,3.));
#151 = VECTOR('',#152,1.);
#152 = DIRECTION('',(0.,2.22044604925E-16,1.));
#153 = ORIENTED_EDGE('',*,*,#31,.T.);
#154 = PLANE('',#155);
#155 = AXIS2_PLACEMENT_3D('',#156,#157,#158);
#156 = CARTESIAN_POINT('',(1.24344978758E-14,180.,0.));
#157 = DIRECTION('',(0.,-1.,2.22044604925E-16));
#158 = DIRECTION('',(1.,0.,0.));
#159 = ADVANCED_FACE('',(#160),#178,.T.);
#160 = FACE_BOUND('',#161,.T.);
#161 = EDGE_LOOP('',(#162,#163,#164,#172));
#162 = ORIENTED_EDGE('',*,*,#39,.F.);
#163 = ORIENTED_EDGE('',*,*,#148,.T.);
#164 = ORIENTED_EDGE('',*,*,#165,.T.);
#165 = EDGE_CURVE('',#141,#166,#168,.T.);
#166 = VERTEX_POINT('',#167);
#167 = CARTESIAN_POINT('',(12.7,0.4,14.8));
#168 = LINE('',#169,#170);
#169 = CARTESIAN_POINT('',(12.7,180.,14.8));
#170 = VECTOR('',#171,1.);
#171 = DIRECTION('',(0.,-1.,2.22044604925E-16));
#172 = ORIENTED_EDGE('',*,*,#173,.F.);
#173 = EDGE_CURVE('',#40,#166,#174,.T.);
#174 = LINE('',#175,#176);
#175 = CARTESIAN_POINT('',(12.7,0.4,3.1));
#176 = VECTOR('',#177,1.);
#177 = DIRECTION('',(0.,2.22044604925E-16,1.));
#178 = PLANE('',#179);
#179 = AXIS2_PLACEMENT_3D('',#180,#181,#182);
#180 = CARTESIAN_POINT('',(12.7,180.,3.));
#181 = DIRECTION('',(1.,0.,0.));
#182 = DIRECTION('',(0.,-1.,2.22044604925E-16));
#183 = ADVANCED_FACE('',(#184,#218,#229,#240),#251,.T.);
#184 = FACE_BOUND('',#185,.T.);
#185 = EDGE_LOOP('',(#186,#187,#195,#203,#211,#217));
#186 = ORIENTED_EDGE('',*,*,#61,.T.);
#187 = ORIENTED_EDGE('',*,*,#188,.F.);
#188 = EDGE_CURVE('',#189,#64,#191,.T.);
#189 = VERTEX_POINT('',#190);
#190 = CARTESIAN_POINT('',(4.440892098501E-15,0.4,3.907985046681E-14));
#191 = LINE('',#192,#193);
#192 = CARTESIAN_POINT('',(1.24344978758E-14,0.4,3.37507799486E-14));
#193 = VECTOR('',#194,1.);
#194 = DIRECTION('',(1.,0.,0.));
#195 = ORIENTED_EDGE('',*,*,#196,.F.);
#196 = EDGE_CURVE('',#197,#189,#199,.T.);
#197 = VERTEX_POINT('',#198);
#198 = CARTESIAN_POINT('',(1.24344978758E-14,184.,0.));
#199 = LINE('',#200,#201);
#200 = CARTESIAN_POINT('',(1.24344978758E-14,184.,0.));
#201 = VECTOR('',#202,1.);
#202 = DIRECTION('',(0.,-1.,2.22044604925E-16));
#203 = ORIENTED_EDGE('',*,*,#204,.T.);
#204 = EDGE_CURVE('',#197,#205,#207,.T.);
#205 = VERTEX_POINT('',#206);
#206 = CARTESIAN_POINT('',(29.,184.,0.));
#207 = LINE('',#208,#209);
#208 = CARTESIAN_POINT('',(1.24344978758E-14,184.,0.));
#209 = VECTOR('',#210,1.);
#210 = DIRECTION('',(1.,0.,0.));
#211 = ORIENTED_EDGE('',*,*,#212,.T.);
#212 = EDGE_CURVE('',#205,#125,#213,.T.);
#213 = LINE('',#214,#215);
#214 = CARTESIAN_POINT('',(29.,184.,0.));
#215 = VECTOR('',#216,1.);
#216 = DIRECTION('',(0.,-1.,2.22044604925E-16));
#217 = ORIENTED_EDGE('',*,*,#124,.F.);
#218 = FACE_BOUND('',#219,.T.);
#219 = EDGE_LOOP('',(#220));
#220 = ORIENTED_EDGE('',*,*,#221,.T.);
#221 = EDGE_CURVE('',#222,#222,#224,.T.);
#222 = VERTEX_POINT('',#223);
#223 = CARTESIAN_POINT('',(6.5,9.2,3.19744231092E-14));
#224 = CIRCLE('',#225,1.8);
#225 = AXIS2_PLACEMENT_3D('',#226,#227,#228);
#226 = CARTESIAN_POINT('',(6.5,11.,3.19744231092E-14));
#227 = DIRECTION('',(-0.,2.22044604925E-16,1.));
#228 = DIRECTION('',(0.,-1.,2.22044604925E-16));
#229 = FACE_BOUND('',#230,.T.);
#230 = EDGE_LOOP('',(#231));
#231 = ORIENTED_EDGE('',*,*,#232,.T.);
#232 = EDGE_CURVE('',#233,#233,#235,.T.);
#233 = VERTEX_POINT('',#234);
#234 = CARTESIAN_POINT('',(6.5,40.8,2.48689957516E-14));
#235 = CIRCLE('',#236,3.2);
#236 = AXIS2_PLACEMENT_3D('',#237,#238,#239);
#237 = CARTESIAN_POINT('',(6.5,44.,2.48689957516E-14));
#238 = DIRECTION('',(-0.,2.22044604925E-16,1.));
#239 = DIRECTION('',(0.,-1.,2.22044604925E-16));
#240 = FACE_BOUND('',#241,.T.);
#241 = EDGE_LOOP('',(#242));
#242 = ORIENTED_EDGE('',*,*,#243,.T.);
#243 = EDGE_CURVE('',#244,#244,#246,.T.);
#244 = VERTEX_POINT('',#245);
#245 = CARTESIAN_POINT('',(6.5,144.8,1.7763568394E-15));
#246 = CIRCLE('',#247,3.2);
#247 = AXIS2_PLACEMENT_3D('',#248,#249,#250);
#248 = CARTESIAN_POINT('',(6.5,148.,1.7763568394E-15));
#249 = DIRECTION('',(-0.,2.22044604925E-16,1.));
#250 = DIRECTION('',(0.,-1.,2.22044604925E-16));
#251 = PLANE('',#252);
#252 = AXIS2_PLACEMENT_3D('',#253,#254,#255);
#253 = CARTESIAN_POINT('',(9.429577464789,97.070422535211,
    1.24344978758E-14));
#254 = DIRECTION('',(-0.,-2.22044604925E-16,-1.));
#255 = DIRECTION('',(0.,1.,-2.22044604925E-16));
#256 = ADVANCED_FACE('',(#257),#275,.T.);
#257 = FACE_BOUND('',#258,.T.);
#258 = EDGE_LOOP('',(#259,#267,#268,#269));
#259 = ORIENTED_EDGE('',*,*,#260,.F.);
#260 = EDGE_CURVE('',#64,#261,#263,.T.);
#261 = VERTEX_POINT('',#262);
#262 = CARTESIAN_POINT('',(16.6,2.84217094304E-14,0.4));
#263 = LINE('',#264,#265);
#264 = CARTESIAN_POINT('',(14.033333333333,-2.566666666667,
    2.966666666667));
#265 = VECTOR('',#266,1.);
#266 = DIRECTION('',(-0.57735026919,-0.57735026919,0.57735026919));
#267 = ORIENTED_EDGE('',*,*,#78,.T.);
#268 = ORIENTED_EDGE('',*,*,#101,.T.);
#269 = ORIENTED_EDGE('',*,*,#270,.F.);
#270 = EDGE_CURVE('',#261,#102,#271,.T.);
#271 = LINE('',#272,#273);
#272 = CARTESIAN_POINT('',(16.6,2.84217094304E-14,3.907985046681E-14));
#273 = VECTOR('',#274,1.);
#274 = DIRECTION('',(0.,2.22044604925E-16,1.));
#275 = PLANE('',#276);
#276 = AXIS2_PLACEMENT_3D('',#277,#278,#279);
#277 = CARTESIAN_POINT('',(16.8,0.2,3.907985046681E-14));
#278 = DIRECTION('',(0.707106781187,-0.707106781187,1.535342522351E-16)
  );
#279 = DIRECTION('',(2.457191562669E-18,2.195874133624E-16,1.));
#280 = ADVANCED_FACE('',(#281),#299,.T.);
#281 = FACE_BOUND('',#282,.T.);
#282 = EDGE_LOOP('',(#283,#284,#285,#293));
#283 = ORIENTED_EDGE('',*,*,#92,.F.);
#284 = ORIENTED_EDGE('',*,*,#173,.T.);
#285 = ORIENTED_EDGE('',*,*,#286,.T.);
#286 = EDGE_CURVE('',#166,#287,#289,.T.);
#287 = VERTEX_POINT('',#288);
#288 = CARTESIAN_POINT('',(12.3,2.84217094304E-14,14.4));
#289 = LINE('',#290,#291);
#290 = CARTESIAN_POINT('',(8.5,-3.8,10.6));
#291 = VECTOR('',#292,1.);
#292 = DIRECTION('',(-0.57735026919,-0.57735026919,-0.57735026919));
#293 = ORIENTED_EDGE('',*,*,#294,.F.);
#294 = EDGE_CURVE('',#93,#287,#295,.T.);
#295 = LINE('',#296,#297);
#296 = CARTESIAN_POINT('',(12.3,2.84217094304E-14,3.1));
#297 = VECTOR('',#298,1.);
#298 = DIRECTION('',(0.,2.22044604925E-16,1.));
#299 = PLANE('',#300);
#300 = AXIS2_PLACEMENT_3D('',#301,#302,#303);
#301 = CARTESIAN_POINT('',(12.5,0.2,3.1));
#302 = DIRECTION('',(0.707106781187,-0.707106781187,1.570092458684E-16)
  );
#303 = DIRECTION('',(0.,2.22044604925E-16,1.));
#304 = ADVANCED_FACE('',(#305),#332,.T.);
#305 = FACE_BOUND('',#306,.T.);
#306 = EDGE_LOOP('',(#307,#308,#309,#317,#325,#331));
#307 = ORIENTED_EDGE('',*,*,#109,.F.);
#308 = ORIENTED_EDGE('',*,*,#294,.T.);
#309 = ORIENTED_EDGE('',*,*,#310,.F.);
#310 = EDGE_CURVE('',#311,#287,#313,.T.);
#311 = VERTEX_POINT('',#312);
#312 = CARTESIAN_POINT('',(0.4,2.84217094304E-14,14.4));
#313 = LINE('',#314,#315);
#314 = CARTESIAN_POINT('',(1.24344978758E-14,2.84217094304E-14,14.4));
#315 = VECTOR('',#316,1.);
#316 = DIRECTION('',(1.,0.,0.));
#317 = ORIENTED_EDGE('',*,*,#318,.F.);
#318 = EDGE_CURVE('',#319,#311,#321,.T.);
#319 = VERTEX_POINT('',#320);
#320 = CARTESIAN_POINT('',(0.4,2.84217094304E-14,0.4));
#321 = LINE('',#322,#323);
#322 = CARTESIAN_POINT('',(0.4,2.84217094304E-14,3.907985046681E-14));
#323 = VECTOR('',#324,1.);
#324 = DIRECTION('',(0.,2.22044604925E-16,1.));
#325 = ORIENTED_EDGE('',*,*,#326,.T.);
#326 = EDGE_CURVE('',#319,#261,#327,.T.);
#327 = LINE('',#328,#329);
#328 = CARTESIAN_POINT('',(1.24344978758E-14,2.84217094304E-14,0.4));
#329 = VECTOR('',#330,1.);
#330 = DIRECTION('',(1.,0.,0.));
#331 = ORIENTED_EDGE('',*,*,#270,.T.);
#332 = PLANE('',#333);
#333 = AXIS2_PLACEMENT_3D('',#334,#335,#336);
#334 = CARTESIAN_POINT('',(7.708962264151,2.84217094304E-14,
    6.608962264151));
#335 = DIRECTION('',(0.,-1.,2.22044604925E-16));
#336 = DIRECTION('',(1.,0.,0.));
#337 = ADVANCED_FACE('',(#338,#372,#422,#433),#444,.T.);
#338 = FACE_BOUND('',#339,.T.);
#339 = EDGE_LOOP('',(#340,#341,#342,#350,#358,#366));
#340 = ORIENTED_EDGE('',*,*,#165,.F.);
#341 = ORIENTED_EDGE('',*,*,#140,.T.);
#342 = ORIENTED_EDGE('',*,*,#343,.F.);
#343 = EDGE_CURVE('',#344,#133,#346,.T.);
#344 = VERTEX_POINT('',#345);
#345 = CARTESIAN_POINT('',(29.,184.,14.8));
#346 = LINE('',#347,#348);
#347 = CARTESIAN_POINT('',(29.,184.,14.8));
#348 = VECTOR('',#349,1.);
#349 = DIRECTION('',(0.,-1.,2.22044604925E-16));
#350 = ORIENTED_EDGE('',*,*,#351,.F.);
#351 = EDGE_CURVE('',#352,#344,#354,.T.);
#352 = VERTEX_POINT('',#353);
#353 = CARTESIAN_POINT('',(1.24344978758E-14,184.,14.8));
#354 = LINE('',#355,#356);
#355 = CARTESIAN_POINT('',(1.24344978758E-14,184.,14.8));
#356 = VECTOR('',#357,1.);
#357 = DIRECTION('',(1.,0.,0.));
#358 = ORIENTED_EDGE('',*,*,#359,.T.);
#359 = EDGE_CURVE('',#352,#360,#362,.T.);
#360 = VERTEX_POINT('',#361);
#361 = CARTESIAN_POINT('',(4.440892098501E-15,0.4,14.8));
#362 = LINE('',#363,#364);
#363 = CARTESIAN_POINT('',(1.24344978758E-14,180.,14.8));
#364 = VECTOR('',#365,1.);
#365 = DIRECTION('',(0.,-1.,2.22044604925E-16));
#366 = ORIENTED_EDGE('',*,*,#367,.T.);
#367 = EDGE_CURVE('',#360,#166,#368,.T.);
#368 = LINE('',#369,#370);
#369 = CARTESIAN_POINT('',(1.24344978758E-14,0.4,14.8));
#370 = VECTOR('',#371,1.);
#371 = DIRECTION('',(1.,0.,0.));
#372 = FACE_BOUND('',#373,.T.);
#373 = EDGE_LOOP('',(#374,#384,#392,#400,#408,#416));
#374 = ORIENTED_EDGE('',*,*,#375,.T.);
#375 = EDGE_CURVE('',#376,#378,#380,.T.);
#376 = VERTEX_POINT('',#377);
#377 = CARTESIAN_POINT('',(3.55,12.703183294109,14.8));
#378 = VERTEX_POINT('',#379);
#379 = CARTESIAN_POINT('',(6.5,14.406366588219,14.8));
#380 = LINE('',#381,#382);
#381 = CARTESIAN_POINT('',(25.207917322588,25.207387690392,14.8));
#382 = VECTOR('',#383,1.);
#383 = DIRECTION('',(0.866025403784,0.5,-1.110223024625E-16));
#384 = ORIENTED_EDGE('',*,*,#385,.T.);
#385 = EDGE_CURVE('',#378,#386,#388,.T.);
#386 = VERTEX_POINT('',#387);
#387 = CARTESIAN_POINT('',(9.45,12.703183294109,14.8));
#388 = LINE('',#389,#390);
#389 = CARTESIAN_POINT('',(-9.898410280334,23.873993177852,14.8));
#390 = VECTOR('',#391,1.);
#391 = DIRECTION('',(0.866025403784,-0.5,1.110223024625E-16));
#392 = ORIENTED_EDGE('',*,*,#393,.T.);
#393 = EDGE_CURVE('',#386,#394,#396,.T.);
#394 = VERTEX_POINT('',#395);
#395 = CARTESIAN_POINT('',(9.45,9.296816705891,14.8));
#396 = LINE('',#397,#398);
#397 = CARTESIAN_POINT('',(9.45,54.092070324776,14.8));
#398 = VECTOR('',#399,1.);
#399 = DIRECTION('',(-2.607407032384E-16,-1.,2.22044604925E-16));
#400 = ORIENTED_EDGE('',*,*,#401,.T.);
#401 = EDGE_CURVE('',#394,#402,#404,.T.);
#402 = VERTEX_POINT('',#403);
#403 = CARTESIAN_POINT('',(6.5,7.593633411781,14.8));
#404 = LINE('',#405,#406);
#405 = CARTESIAN_POINT('',(26.682917322588,19.246246161009,14.8));
#406 = VECTOR('',#407,1.);
#407 = DIRECTION('',(-0.866025403784,-0.5,1.110223024625E-16));
#408 = ORIENTED_EDGE('',*,*,#409,.T.);
#409 = EDGE_CURVE('',#402,#410,#412,.T.);
#410 = VERTEX_POINT('',#411);
#411 = CARTESIAN_POINT('',(3.55,9.296816705891,14.8));
#412 = LINE('',#413,#414);
#413 = CARTESIAN_POINT('',(-14.32341028033,19.616034942578,14.8));
#414 = VECTOR('',#415,1.);
#415 = DIRECTION('',(-0.866025403784,0.5,-1.110223024625E-16));
#416 = ORIENTED_EDGE('',*,*,#417,.T.);
#417 = EDGE_CURVE('',#410,#376,#418,.T.);
#418 = LINE('',#419,#420);
#419 = CARTESIAN_POINT('',(3.55,55.795253618886,14.8));
#420 = VECTOR('',#421,1.);
#421 = DIRECTION('',(-1.303703516192E-16,1.,-2.22044604925E-16));
#422 = FACE_BOUND('',#423,.T.);
#423 = EDGE_LOOP('',(#424));
#424 = ORIENTED_EDGE('',*,*,#425,.F.);
#425 = EDGE_CURVE('',#426,#426,#428,.T.);
#426 = VERTEX_POINT('',#427);
#427 = CARTESIAN_POINT('',(6.5,146.2,14.8));
#428 = CIRCLE('',#429,1.8);
#429 = AXIS2_PLACEMENT_3D('',#430,#431,#432);
#430 = CARTESIAN_POINT('',(6.5,148.,14.8));
#431 = DIRECTION('',(-0.,2.22044604925E-16,1.));
#432 = DIRECTION('',(0.,-1.,2.22044604925E-16));
#433 = FACE_BOUND('',#434,.T.);
#434 = EDGE_LOOP('',(#435));
#435 = ORIENTED_EDGE('',*,*,#436,.F.);
#436 = EDGE_CURVE('',#437,#437,#439,.T.);
#437 = VERTEX_POINT('',#438);
#438 = CARTESIAN_POINT('',(6.5,42.2,14.8));
#439 = CIRCLE('',#440,1.8);
#440 = AXIS2_PLACEMENT_3D('',#441,#442,#443);
#441 = CARTESIAN_POINT('',(6.5,44.,14.8));
#442 = DIRECTION('',(-0.,2.22044604925E-16,1.));
#443 = DIRECTION('',(0.,-1.,2.22044604925E-16));
#444 = PLANE('',#445);
#445 = AXIS2_PLACEMENT_3D('',#446,#447,#448);
#446 = CARTESIAN_POINT('',(7.612676056338,98.887323943662,14.8));
#447 = DIRECTION('',(0.,2.22044604925E-16,1.));
#448 = DIRECTION('',(0.,-1.,2.22044604925E-16));
#449 = ADVANCED_FACE('',(#450),#461,.T.);
#450 = FACE_BOUND('',#451,.T.);
#451 = EDGE_LOOP('',(#452,#453,#459,#460));
#452 = ORIENTED_EDGE('',*,*,#212,.F.);
#453 = ORIENTED_EDGE('',*,*,#454,.T.);
#454 = EDGE_CURVE('',#205,#344,#455,.T.);
#455 = LINE('',#456,#457);
#456 = CARTESIAN_POINT('',(29.,184.,0.));
#457 = VECTOR('',#458,1.);
#458 = DIRECTION('',(0.,2.22044604925E-16,1.));
#459 = ORIENTED_EDGE('',*,*,#343,.T.);
#460 = ORIENTED_EDGE('',*,*,#132,.F.);
#461 = PLANE('',#462);
#462 = AXIS2_PLACEMENT_3D('',#463,#464,#465);
#463 = CARTESIAN_POINT('',(29.,184.,0.));
#464 = DIRECTION('',(1.,0.,0.));
#465 = DIRECTION('',(0.,-1.,2.22044604925E-16));
#466 = ADVANCED_FACE('',(#467),#478,.T.);
#467 = FACE_BOUND('',#468,.F.);
#468 = EDGE_LOOP('',(#469,#475,#476,#477));
#469 = ORIENTED_EDGE('',*,*,#470,.T.);
#470 = EDGE_CURVE('',#189,#319,#471,.T.);
#471 = LINE('',#472,#473);
#472 = CARTESIAN_POINT('',(0.133333333333,0.266666666667,0.133333333333)
  );
#473 = VECTOR('',#474,1.);
#474 = DIRECTION('',(0.57735026919,-0.57735026919,0.57735026919));
#475 = ORIENTED_EDGE('',*,*,#326,.T.);
#476 = ORIENTED_EDGE('',*,*,#260,.F.);
#477 = ORIENTED_EDGE('',*,*,#188,.F.);
#478 = PLANE('',#479);
#479 = AXIS2_PLACEMENT_3D('',#480,#481,#482);
#480 = CARTESIAN_POINT('',(1.24344978758E-14,0.2,0.2));
#481 = DIRECTION('',(3.474993633276E-18,-0.707106781187,-0.707106781187)
  );
#482 = DIRECTION('',(-1.,-2.457191562669E-18,-2.457191562669E-18));
#483 = ADVANCED_FACE('',(#484),#500,.T.);
#484 = FACE_BOUND('',#485,.T.);
#485 = EDGE_LOOP('',(#486,#487,#493,#494));
#486 = ORIENTED_EDGE('',*,*,#359,.F.);
#487 = ORIENTED_EDGE('',*,*,#488,.F.);
#488 = EDGE_CURVE('',#197,#352,#489,.T.);
#489 = LINE('',#490,#491);
#490 = CARTESIAN_POINT('',(1.24344978758E-14,184.,0.));
#491 = VECTOR('',#492,1.);
#492 = DIRECTION('',(0.,2.22044604925E-16,1.));
#493 = ORIENTED_EDGE('',*,*,#196,.T.);
#494 = ORIENTED_EDGE('',*,*,#495,.T.);
#495 = EDGE_CURVE('',#189,#360,#496,.T.);
#496 = LINE('',#497,#498);
#497 = CARTESIAN_POINT('',(1.24344978758E-14,0.4,3.907985046681E-14));
#498 = VECTOR('',#499,1.);
#499 = DIRECTION('',(0.,2.22044604925E-16,1.));
#500 = PLANE('',#501);
#501 = AXIS2_PLACEMENT_3D('',#502,#503,#504);
#502 = CARTESIAN_POINT('',(1.24344978758E-14,92.,7.4));
#503 = DIRECTION('',(-1.,0.,-0.));
#504 = DIRECTION('',(0.,1.,-2.22044604925E-16));
#505 = ADVANCED_FACE('',(#506),#512,.F.);
#506 = FACE_BOUND('',#507,.F.);
#507 = EDGE_LOOP('',(#508,#509,#510,#511));
#508 = ORIENTED_EDGE('',*,*,#488,.F.);
#509 = ORIENTED_EDGE('',*,*,#204,.T.);
#510 = ORIENTED_EDGE('',*,*,#454,.T.);
#511 = ORIENTED_EDGE('',*,*,#351,.F.);
#512 = PLANE('',#513);
#513 = AXIS2_PLACEMENT_3D('',#514,#515,#516);
#514 = CARTESIAN_POINT('',(1.24344978758E-14,184.,0.));
#515 = DIRECTION('',(0.,-1.,2.22044604925E-16));
#516 = DIRECTION('',(1.,0.,0.));
#517 = ADVANCED_FACE('',(#518),#537,.F.);
#518 = FACE_BOUND('',#519,.F.);
#519 = EDGE_LOOP('',(#520,#521,#529,#536));
#520 = ORIENTED_EDGE('',*,*,#221,.T.);
#521 = ORIENTED_EDGE('',*,*,#522,.T.);
#522 = EDGE_CURVE('',#222,#523,#525,.T.);
#523 = VERTEX_POINT('',#524);
#524 = CARTESIAN_POINT('',(6.5,9.2,2.));
#525 = LINE('',#526,#527);
#526 = CARTESIAN_POINT('',(6.5,9.2,-9.999999999996E-02));
#527 = VECTOR('',#528,1.);
#528 = DIRECTION('',(0.,2.22044604925E-16,1.));
#529 = ORIENTED_EDGE('',*,*,#530,.F.);
#530 = EDGE_CURVE('',#523,#523,#531,.T.);
#531 = CIRCLE('',#532,1.8);
#532 = AXIS2_PLACEMENT_3D('',#533,#534,#535);
#533 = CARTESIAN_POINT('',(6.5,11.,2.));
#534 = DIRECTION('',(-0.,2.22044604925E-16,1.));
#535 = DIRECTION('',(0.,-1.,2.22044604925E-16));
#536 = ORIENTED_EDGE('',*,*,#522,.F.);
#537 = CYLINDRICAL_SURFACE('',#538,1.8);
#538 = AXIS2_PLACEMENT_3D('',#539,#540,#541);
#539 = CARTESIAN_POINT('',(6.5,11.,-9.999999999996E-02));
#540 = DIRECTION('',(0.,2.22044604925E-16,1.));
#541 = DIRECTION('',(0.,-1.,2.22044604925E-16));
#542 = ADVANCED_FACE('',(#543),#562,.F.);
#543 = FACE_BOUND('',#544,.F.);
#544 = EDGE_LOOP('',(#545,#553,#560,#561));
#545 = ORIENTED_EDGE('',*,*,#546,.T.);
#546 = EDGE_CURVE('',#233,#547,#549,.T.);
#547 = VERTEX_POINT('',#548);
#548 = CARTESIAN_POINT('',(6.5,40.8,11.8));
#549 = LINE('',#550,#551);
#550 = CARTESIAN_POINT('',(6.5,40.8,-15.2));
#551 = VECTOR('',#552,1.);
#552 = DIRECTION('',(0.,2.22044604925E-16,1.));
#553 = ORIENTED_EDGE('',*,*,#554,.F.);
#554 = EDGE_CURVE('',#547,#547,#555,.T.);
#555 = CIRCLE('',#556,3.2);
#556 = AXIS2_PLACEMENT_3D('',#557,#558,#559);
#557 = CARTESIAN_POINT('',(6.5,44.,11.8));
#558 = DIRECTION('',(-0.,2.22044604925E-16,1.));
#559 = DIRECTION('',(0.,-1.,2.22044604925E-16));
#560 = ORIENTED_EDGE('',*,*,#546,.F.);
#561 = ORIENTED_EDGE('',*,*,#232,.T.);
#562 = CYLINDRICAL_SURFACE('',#563,3.2);
#563 = AXIS2_PLACEMENT_3D('',#564,#565,#566);
#564 = CARTESIAN_POINT('',(6.5,44.,-15.2));
#565 = DIRECTION('',(0.,2.22044604925E-16,1.));
#566 = DIRECTION('',(0.,-1.,2.22044604925E-16));
#567 = ADVANCED_FACE('',(#568),#587,.F.);
#568 = FACE_BOUND('',#569,.F.);
#569 = EDGE_LOOP('',(#570,#578,#585,#586));
#570 = ORIENTED_EDGE('',*,*,#571,.T.);
#571 = EDGE_CURVE('',#244,#572,#574,.T.);
#572 = VERTEX_POINT('',#573);
#573 = CARTESIAN_POINT('',(6.5,144.8,11.8));
#574 = LINE('',#575,#576);
#575 = CARTESIAN_POINT('',(6.5,144.8,-15.2));
#576 = VECTOR('',#577,1.);
#577 = DIRECTION('',(0.,2.22044604925E-16,1.));
#578 = ORIENTED_EDGE('',*,*,#579,.F.);
#579 = EDGE_CURVE('',#572,#572,#580,.T.);
#580 = CIRCLE('',#581,3.2);
#581 = AXIS2_PLACEMENT_3D('',#582,#583,#584);
#582 = CARTESIAN_POINT('',(6.5,148.,11.8));
#583 = DIRECTION('',(-0.,2.22044604925E-16,1.));
#584 = DIRECTION('',(0.,-1.,2.22044604925E-16));
#585 = ORIENTED_EDGE('',*,*,#571,.F.);
#586 = ORIENTED_EDGE('',*,*,#243,.T.);
#587 = CYLINDRICAL_SURFACE('',#588,3.2);
#588 = AXIS2_PLACEMENT_3D('',#589,#590,#591);
#589 = CARTESIAN_POINT('',(6.5,148.,-15.2));
#590 = DIRECTION('',(0.,2.22044604925E-16,1.));
#591 = DIRECTION('',(0.,-1.,2.22044604925E-16));
#592 = ADVANCED_FACE('',(#593),#604,.T.);
#593 = FACE_BOUND('',#594,.T.);
#594 = EDGE_LOOP('',(#595,#601,#602,#603));
#595 = ORIENTED_EDGE('',*,*,#596,.T.);
#596 = EDGE_CURVE('',#360,#311,#597,.T.);
#597 = LINE('',#598,#599);
#598 = CARTESIAN_POINT('',(2.6,-2.2,12.2));
#599 = VECTOR('',#600,1.);
#600 = DIRECTION('',(0.57735026919,-0.57735026919,-0.57735026919));
#601 = ORIENTED_EDGE('',*,*,#310,.T.);
#602 = ORIENTED_EDGE('',*,*,#286,.F.);
#603 = ORIENTED_EDGE('',*,*,#367,.F.);
#604 = PLANE('',#605);
#605 = AXIS2_PLACEMENT_3D('',#606,#607,#608);
#606 = CARTESIAN_POINT('',(1.24344978758E-14,0.2,14.6));
#607 = DIRECTION('',(-3.474993633276E-18,-0.707106781187,0.707106781187)
  );
#608 = DIRECTION('',(1.,-2.457191562669E-18,2.457191562669E-18));
#609 = ADVANCED_FACE('',(#610),#616,.T.);
#610 = FACE_BOUND('',#611,.F.);
#611 = EDGE_LOOP('',(#612,#613,#614,#615));
#612 = ORIENTED_EDGE('',*,*,#470,.F.);
#613 = ORIENTED_EDGE('',*,*,#495,.T.);
#614 = ORIENTED_EDGE('',*,*,#596,.T.);
#615 = ORIENTED_EDGE('',*,*,#318,.F.);
#616 = PLANE('',#617);
#617 = AXIS2_PLACEMENT_3D('',#618,#619,#620);
#618 = CARTESIAN_POINT('',(0.2,0.2,3.907985046681E-14));
#619 = DIRECTION('',(-0.707106781187,-0.707106781187,1.535342522351E-16)
  );
#620 = DIRECTION('',(2.457191562669E-18,-2.195874133624E-16,-1.));
#621 = ADVANCED_FACE('',(#622),#647,.T.);
#622 = FACE_BOUND('',#623,.T.);
#623 = EDGE_LOOP('',(#624,#634,#640,#641));
#624 = ORIENTED_EDGE('',*,*,#625,.F.);
#625 = EDGE_CURVE('',#626,#628,#630,.T.);
#626 = VERTEX_POINT('',#627);
#627 = CARTESIAN_POINT('',(6.5,14.406366588219,2.));
#628 = VERTEX_POINT('',#629);
#629 = CARTESIAN_POINT('',(3.55,12.703183294109,2.));
#630 = LINE('',#631,#632);
#631 = CARTESIAN_POINT('',(6.5,14.406366588219,2.));
#632 = VECTOR('',#633,1.);
#633 = DIRECTION('',(-0.866025403784,-0.5,0.));
#634 = ORIENTED_EDGE('',*,*,#635,.T.);
#635 = EDGE_CURVE('',#626,#378,#636,.T.);
#636 = LINE('',#637,#638);
#637 = CARTESIAN_POINT('',(6.5,14.406366588219,2.));
#638 = VECTOR('',#639,1.);
#639 = DIRECTION('',(0.,0.,1.));
#640 = ORIENTED_EDGE('',*,*,#375,.F.);
#641 = ORIENTED_EDGE('',*,*,#642,.F.);
#642 = EDGE_CURVE('',#628,#376,#643,.T.);
#643 = LINE('',#644,#645);
#644 = CARTESIAN_POINT('',(3.55,12.703183294109,2.));
#645 = VECTOR('',#646,1.);
#646 = DIRECTION('',(0.,0.,1.));
#647 = PLANE('',#648);
#648 = AXIS2_PLACEMENT_3D('',#649,#650,#651);
#649 = CARTESIAN_POINT('',(6.5,14.406366588219,2.));
#650 = DIRECTION('',(0.5,-0.866025403784,0.));
#651 = DIRECTION('',(-0.866025403784,-0.5,0.));
#652 = ADVANCED_FACE('',(#653),#671,.T.);
#653 = FACE_BOUND('',#654,.T.);
#654 = EDGE_LOOP('',(#655,#663,#664,#665));
#655 = ORIENTED_EDGE('',*,*,#656,.F.);
#656 = EDGE_CURVE('',#628,#657,#659,.T.);
#657 = VERTEX_POINT('',#658);
#658 = CARTESIAN_POINT('',(3.55,9.296816705891,2.));
#659 = LINE('',#660,#661);
#660 = CARTESIAN_POINT('',(3.55,12.703183294109,2.));
#661 = VECTOR('',#662,1.);
#662 = DIRECTION('',(1.303703516192E-16,-1.,0.));
#663 = ORIENTED_EDGE('',*,*,#642,.T.);
#664 = ORIENTED_EDGE('',*,*,#417,.F.);
#665 = ORIENTED_EDGE('',*,*,#666,.F.);
#666 = EDGE_CURVE('',#657,#410,#667,.T.);
#667 = LINE('',#668,#669);
#668 = CARTESIAN_POINT('',(3.55,9.296816705891,2.));
#669 = VECTOR('',#670,1.);
#670 = DIRECTION('',(0.,0.,1.));
#671 = PLANE('',#672);
#672 = AXIS2_PLACEMENT_3D('',#673,#674,#675);
#673 = CARTESIAN_POINT('',(3.55,12.703183294109,2.));
#674 = DIRECTION('',(1.,1.303703516192E-16,0.));
#675 = DIRECTION('',(1.303703516192E-16,-1.,0.));
#676 = ADVANCED_FACE('',(#677),#695,.T.);
#677 = FACE_BOUND('',#678,.T.);
#678 = EDGE_LOOP('',(#679,#687,#688,#689));
#679 = ORIENTED_EDGE('',*,*,#680,.F.);
#680 = EDGE_CURVE('',#657,#681,#683,.T.);
#681 = VERTEX_POINT('',#682);
#682 = CARTESIAN_POINT('',(6.5,7.593633411781,2.));
#683 = LINE('',#684,#685);
#684 = CARTESIAN_POINT('',(3.55,9.296816705891,2.));
#685 = VECTOR('',#686,1.);
#686 = DIRECTION('',(0.866025403784,-0.5,0.));
#687 = ORIENTED_EDGE('',*,*,#666,.T.);
#688 = ORIENTED_EDGE('',*,*,#409,.F.);
#689 = ORIENTED_EDGE('',*,*,#690,.F.);
#690 = EDGE_CURVE('',#681,#402,#691,.T.);
#691 = LINE('',#692,#693);
#692 = CARTESIAN_POINT('',(6.5,7.593633411781,2.));
#693 = VECTOR('',#694,1.);
#694 = DIRECTION('',(0.,0.,1.));
#695 = PLANE('',#696);
#696 = AXIS2_PLACEMENT_3D('',#697,#698,#699);
#697 = CARTESIAN_POINT('',(3.55,9.296816705891,2.));
#698 = DIRECTION('',(0.5,0.866025403784,0.));
#699 = DIRECTION('',(0.866025403784,-0.5,0.));
#700 = ADVANCED_FACE('',(#701),#719,.T.);
#701 = FACE_BOUND('',#702,.T.);
#702 = EDGE_LOOP('',(#703,#711,#712,#713));
#703 = ORIENTED_EDGE('',*,*,#704,.F.);
#704 = EDGE_CURVE('',#681,#705,#707,.T.);
#705 = VERTEX_POINT('',#706);
#706 = CARTESIAN_POINT('',(9.45,9.296816705891,2.));
#707 = LINE('',#708,#709);
#708 = CARTESIAN_POINT('',(6.5,7.593633411781,2.));
#709 = VECTOR('',#710,1.);
#710 = DIRECTION('',(0.866025403784,0.5,0.));
#711 = ORIENTED_EDGE('',*,*,#690,.T.);
#712 = ORIENTED_EDGE('',*,*,#401,.F.);
#713 = ORIENTED_EDGE('',*,*,#714,.F.);
#714 = EDGE_CURVE('',#705,#394,#715,.T.);
#715 = LINE('',#716,#717);
#716 = CARTESIAN_POINT('',(9.45,9.296816705891,2.));
#717 = VECTOR('',#718,1.);
#718 = DIRECTION('',(0.,0.,1.));
#719 = PLANE('',#720);
#720 = AXIS2_PLACEMENT_3D('',#721,#722,#723);
#721 = CARTESIAN_POINT('',(6.5,7.593633411781,2.));
#722 = DIRECTION('',(-0.5,0.866025403784,0.));
#723 = DIRECTION('',(0.866025403784,0.5,0.));
#724 = ADVANCED_FACE('',(#725),#743,.T.);
#725 = FACE_BOUND('',#726,.T.);
#726 = EDGE_LOOP('',(#727,#735,#736,#737));
#727 = ORIENTED_EDGE('',*,*,#728,.F.);
#728 = EDGE_CURVE('',#705,#729,#731,.T.);
#729 = VERTEX_POINT('',#730);
#730 = CARTESIAN_POINT('',(9.45,12.703183294109,2.));
#731 = LINE('',#732,#733);
#732 = CARTESIAN_POINT('',(9.45,9.296816705891,2.));
#733 = VECTOR('',#734,1.);
#734 = DIRECTION('',(2.607407032384E-16,1.,0.));
#735 = ORIENTED_EDGE('',*,*,#714,.T.);
#736 = ORIENTED_EDGE('',*,*,#393,.F.);
#737 = ORIENTED_EDGE('',*,*,#738,.F.);
#738 = EDGE_CURVE('',#729,#386,#739,.T.);
#739 = LINE('',#740,#741);
#740 = CARTESIAN_POINT('',(9.45,12.703183294109,2.));
#741 = VECTOR('',#742,1.);
#742 = DIRECTION('',(0.,0.,1.));
#743 = PLANE('',#744);
#744 = AXIS2_PLACEMENT_3D('',#745,#746,#747);
#745 = CARTESIAN_POINT('',(9.45,9.296816705891,2.));
#746 = DIRECTION('',(-1.,2.607407032384E-16,0.));
#747 = DIRECTION('',(2.607407032384E-16,1.,0.));
#748 = ADVANCED_FACE('',(#749),#760,.T.);
#749 = FACE_BOUND('',#750,.T.);
#750 = EDGE_LOOP('',(#751,#757,#758,#759));
#751 = ORIENTED_EDGE('',*,*,#752,.F.);
#752 = EDGE_CURVE('',#729,#626,#753,.T.);
#753 = LINE('',#754,#755);
#754 = CARTESIAN_POINT('',(9.45,12.703183294109,2.));
#755 = VECTOR('',#756,1.);
#756 = DIRECTION('',(-0.866025403784,0.5,0.));
#757 = ORIENTED_EDGE('',*,*,#738,.T.);
#758 = ORIENTED_EDGE('',*,*,#385,.F.);
#759 = ORIENTED_EDGE('',*,*,#635,.F.);
#760 = PLANE('',#761);
#761 = AXIS2_PLACEMENT_3D('',#762,#763,#764);
#762 = CARTESIAN_POINT('',(9.45,12.703183294109,2.));
#763 = DIRECTION('',(-0.5,-0.866025403784,0.));
#764 = DIRECTION('',(-0.866025403784,0.5,0.));
#765 = ADVANCED_FACE('',(#766),#785,.F.);
#766 = FACE_BOUND('',#767,.F.);
#767 = EDGE_LOOP('',(#768,#769,#777,#784));
#768 = ORIENTED_EDGE('',*,*,#425,.F.);
#769 = ORIENTED_EDGE('',*,*,#770,.F.);
#770 = EDGE_CURVE('',#771,#426,#773,.T.);
#771 = VERTEX_POINT('',#772);
#772 = CARTESIAN_POINT('',(6.5,146.2,11.8));
#773 = LINE('',#774,#775);
#774 = CARTESIAN_POINT('',(6.5,146.2,11.7));
#775 = VECTOR('',#776,1.);
#776 = DIRECTION('',(0.,2.22044604925E-16,1.));
#777 = ORIENTED_EDGE('',*,*,#778,.T.);
#778 = EDGE_CURVE('',#771,#771,#779,.T.);
#779 = CIRCLE('',#780,1.8);
#780 = AXIS2_PLACEMENT_3D('',#781,#782,#783);
#781 = CARTESIAN_POINT('',(6.5,148.,11.8));
#782 = DIRECTION('',(-0.,2.22044604925E-16,1.));
#783 = DIRECTION('',(0.,-1.,2.22044604925E-16));
#784 = ORIENTED_EDGE('',*,*,#770,.T.);
#785 = CYLINDRICAL_SURFACE('',#786,1.8);
#786 = AXIS2_PLACEMENT_3D('',#787,#788,#789);
#787 = CARTESIAN_POINT('',(6.5,148.,11.7));
#788 = DIRECTION('',(0.,2.22044604925E-16,1.));
#789 = DIRECTION('',(0.,-1.,2.22044604925E-16));
#790 = ADVANCED_FACE('',(#791),#810,.F.);
#791 = FACE_BOUND('',#792,.F.);
#792 = EDGE_LOOP('',(#793,#794,#802,#809));
#793 = ORIENTED_EDGE('',*,*,#436,.F.);
#794 = ORIENTED_EDGE('',*,*,#795,.F.);
#795 = EDGE_CURVE('',#796,#437,#798,.T.);
#796 = VERTEX_POINT('',#797);
#797 = CARTESIAN_POINT('',(6.5,42.2,11.8));
#798 = LINE('',#799,#800);
#799 = CARTESIAN_POINT('',(6.5,42.2,11.7));
#800 = VECTOR('',#801,1.);
#801 = DIRECTION('',(0.,2.22044604925E-16,1.));
#802 = ORIENTED_EDGE('',*,*,#803,.T.);
#803 = EDGE_CURVE('',#796,#796,#804,.T.);
#804 = CIRCLE('',#805,1.8);
#805 = AXIS2_PLACEMENT_3D('',#806,#807,#808);
#806 = CARTESIAN_POINT('',(6.5,44.,11.8));
#807 = DIRECTION('',(-0.,2.22044604925E-16,1.));
#808 = DIRECTION('',(0.,-1.,2.22044604925E-16));
#809 = ORIENTED_EDGE('',*,*,#795,.T.);
#810 = CYLINDRICAL_SURFACE('',#811,1.8);
#811 = AXIS2_PLACEMENT_3D('',#812,#813,#814);
#812 = CARTESIAN_POINT('',(6.5,44.,11.7));
#813 = DIRECTION('',(0.,2.22044604925E-16,1.));
#814 = DIRECTION('',(0.,-1.,2.22044604925E-16));
#815 = ADVANCED_FACE('',(#816,#824),#827,.T.);
#816 = FACE_BOUND('',#817,.T.);
#817 = EDGE_LOOP('',(#818,#819,#820,#821,#822,#823));
#818 = ORIENTED_EDGE('',*,*,#752,.T.);
#819 = ORIENTED_EDGE('',*,*,#625,.T.);
#820 = ORIENTED_EDGE('',*,*,#656,.T.);
#821 = ORIENTED_EDGE('',*,*,#680,.T.);
#822 = ORIENTED_EDGE('',*,*,#704,.T.);
#823 = ORIENTED_EDGE('',*,*,#728,.T.);
#824 = FACE_BOUND('',#825,.T.);
#825 = EDGE_LOOP('',(#826));
#826 = ORIENTED_EDGE('',*,*,#530,.F.);
#827 = PLANE('',#828);
#828 = AXIS2_PLACEMENT_3D('',#829,#830,#831);
#829 = CARTESIAN_POINT('',(6.5,11.,2.));
#830 = DIRECTION('',(0.,0.,1.));
#831 = DIRECTION('',(1.,0.,0.));
#832 = ADVANCED_FACE('',(#833,#836),#839,.F.);
#833 = FACE_BOUND('',#834,.F.);
#834 = EDGE_LOOP('',(#835));
#835 = ORIENTED_EDGE('',*,*,#554,.T.);
#836 = FACE_BOUND('',#837,.F.);
#837 = EDGE_LOOP('',(#838));
#838 = ORIENTED_EDGE('',*,*,#803,.F.);
#839 = PLANE('',#840);
#840 = AXIS2_PLACEMENT_3D('',#841,#842,#843);
#841 = CARTESIAN_POINT('',(6.5,44.,11.8));
#842 = DIRECTION('',(0.,2.22044604925E-16,1.));
#843 = DIRECTION('',(0.,-1.,2.22044604925E-16));
#844 = ADVANCED_FACE('',(#845,#848),#851,.F.);
#845 = FACE_BOUND('',#846,.F.);
#846 = EDGE_LOOP('',(#847));
#847 = ORIENTED_EDGE('',*,*,#579,.T.);
#848 = FACE_BOUND('',#849,.F.);
#849 = EDGE_LOOP('',(#850));
#850 = ORIENTED_EDGE('',*,*,#778,.F.);
#851 = PLANE('',#852);
#852 = AXIS2_PLACEMENT_3D('',#853,#854,#855);
#853 = CARTESIAN_POINT('',(6.5,148.,11.8));
#854 = DIRECTION('',(0.,2.22044604925E-16,1.));
#855 = DIRECTION('',(0.,-1.,2.22044604925E-16));
#856 = ( GEOMETRIC_REPRESENTATION_CONTEXT(3) 
GLOBAL_UNCERTAINTY_ASSIGNED_CONTEXT((#860)) GLOBAL_UNIT_ASSIGNED_CONTEXT
((#857,#858,#859)) REPRESENTATION_CONTEXT('Context #1',
  '3D Context with UNIT and UNCERTAINTY') );
#857 = ( LENGTH_UNIT() NAMED_UNIT(*) SI_UNIT(.MILLI.,.METRE.) );
#858 = ( NAMED_UNIT(*) PLANE_ANGLE_UNIT() SI_UNIT($,.RADIAN.) );
#859 = ( NAMED_UNIT(*) SI_UNIT($,.STERADIAN.) SOLID_ANGLE_UNIT() );
#860 = UNCERTAINTY_MEASURE_WITH_UNIT(LENGTH_MEASURE(1.E-07),#857,
  'distance_accuracy_value','confusion accuracy');
#861 = PRODUCT_RELATED_PRODUCT_CATEGORY('part',$,(#7));
ENDSEC;
END-ISO-10303-21;
