ISO-10303-21;
HEADER;
FILE_DESCRIPTION(('FreeCAD Model'),'2;1');
FILE_NAME('Open CASCADE Shape Model','2026-10-01T10:29:55',('FreeCAD'),(
    'FreeCAD'),'Open CASCADE STEP processor 7.8','FreeCAD','Unknown');
FILE_SCHEMA(('AUTOMOTIVE_DESIGN { 1 0 10303 214 1 1 1 1 }'));
ENDSEC;
DATA;
#1 = APPLICATION_PROTOCOL_DEFINITION('international standard',
  'automotive_design',2000,#2);
#2 = APPLICATION_CONTEXT(
  'core data for automotive mechanical design processes');
#3 = SHAPE_DEFINITION_REPRESENTATION(#4,#10);
#4 = PRODUCT_DEFINITION_SHAPE('','',#5);
#5 = PRODUCT_DEFINITION('design','',#6,#9);
#6 = PRODUCT_DEFINITION_FORMATION('','',#7);
#7 = PRODUCT('Open CASCADE STEP translator 7.8 11',
  'Open CASCADE STEP translator 7.8 11','',(#8));
#8 = PRODUCT_CONTEXT('',#2,'mechanical');
#9 = PRODUCT_DEFINITION_CONTEXT('part definition',#2,'design');
#10 = ADVANCED_BREP_SHAPE_REPRESENTATION('',(#11,#15),#2277);
#11 = AXIS2_PLACEMENT_3D('',#12,#13,#14);
#12 = CARTESIAN_POINT('',(0.,0.,0.));
#13 = DIRECTION('',(0.,0.,1.));
#14 = DIRECTION('',(1.,0.,-0.));
#15 = MANIFOLD_SOLID_BREP('',#16);
#16 = CLOSED_SHELL('',(#17,#57,#88,#234,#258,#709,#721,#746,#771,#796,
    #818,#835,#852,#864,#889,#914,#939,#964,#989,#1020,#1044,#1068,#1092
    ,#1116,#1133,#1164,#1188,#1212,#1236,#1260,#1277,#1308,#1332,#1356,
    #1380,#1404,#1421,#1452,#1476,#1500,#1524,#1548,#1565,#1596,#1620,
    #1644,#1668,#1692,#1709,#1740,#1764,#1788,#1812,#1836,#1853,#1884,
    #1908,#1932,#1956,#1980,#1997,#2028,#2052,#2076,#2100,#2124,#2141,
    #2158,#2175,#2192,#2209,#2226,#2243,#2260));
#17 = ADVANCED_FACE('',(#18),#52,.F.);
#18 = FACE_BOUND('',#19,.F.);
#19 = EDGE_LOOP('',(#20,#30,#38,#46));
#20 = ORIENTED_EDGE('',*,*,#21,.F.);
#21 = EDGE_CURVE('',#22,#24,#26,.T.);
#22 = VERTEX_POINT('',#23);
#23 = CARTESIAN_POINT('',(0.,0.,0.));
#24 = VERTEX_POINT('',#25);
#25 = CARTESIAN_POINT('',(0.,-1.7763568394E-15,8.));
#26 = LINE('',#27,#28);
#27 = CARTESIAN_POINT('',(0.,0.,0.));
#28 = VECTOR('',#29,1.);
#29 = DIRECTION('',(0.,0.,1.));
#30 = ORIENTED_EDGE('',*,*,#31,.T.);
#31 = EDGE_CURVE('',#22,#32,#34,.T.);
#32 = VERTEX_POINT('',#33);
#33 = CARTESIAN_POINT('',(0.,170.,0.));
#34 = LINE('',#35,#36);
#35 = CARTESIAN_POINT('',(0.,0.,0.));
#36 = VECTOR('',#37,1.);
#37 = DIRECTION('',(0.,1.,0.));
#38 = ORIENTED_EDGE('',*,*,#39,.T.);
#39 = EDGE_CURVE('',#32,#40,#42,.T.);
#40 = VERTEX_POINT('',#41);
#41 = CARTESIAN_POINT('',(0.,170.,8.));
#42 = LINE('',#43,#44);
#43 = CARTESIAN_POINT('',(0.,170.,0.));
#44 = VECTOR('',#45,1.);
#45 = DIRECTION('',(0.,0.,1.));
#46 = ORIENTED_EDGE('',*,*,#47,.F.);
#47 = EDGE_CURVE('',#24,#40,#48,.T.);
#48 = LINE('',#49,#50);
#49 = CARTESIAN_POINT('',(0.,0.,8.));
#50 = VECTOR('',#51,1.);
#51 = DIRECTION('',(0.,1.,0.));
#52 = PLANE('',#53);
#53 = AXIS2_PLACEMENT_3D('',#54,#55,#56);
#54 = CARTESIAN_POINT('',(0.,0.,0.));
#55 = DIRECTION('',(1.,0.,0.));
#56 = DIRECTION('',(0.,0.,1.));
#57 = ADVANCED_FACE('',(#58),#83,.F.);
#58 = FACE_BOUND('',#59,.F.);
#59 = EDGE_LOOP('',(#60,#68,#69,#77));
#60 = ORIENTED_EDGE('',*,*,#61,.F.);
#61 = EDGE_CURVE('',#22,#62,#64,.T.);
#62 = VERTEX_POINT('',#63);
#63 = CARTESIAN_POINT('',(164.,0.,0.));
#64 = LINE('',#65,#66);
#65 = CARTESIAN_POINT('',(0.,0.,0.));
#66 = VECTOR('',#67,1.);
#67 = DIRECTION('',(1.,0.,0.));
#68 = ORIENTED_EDGE('',*,*,#21,.T.);
#69 = ORIENTED_EDGE('',*,*,#70,.T.);
#70 = EDGE_CURVE('',#24,#71,#73,.T.);
#71 = VERTEX_POINT('',#72);
#72 = CARTESIAN_POINT('',(164.,-1.7763568394E-15,8.));
#73 = LINE('',#74,#75);
#74 = CARTESIAN_POINT('',(0.,0.,8.));
#75 = VECTOR('',#76,1.);
#76 = DIRECTION('',(1.,0.,0.));
#77 = ORIENTED_EDGE('',*,*,#78,.F.);
#78 = EDGE_CURVE('',#62,#71,#79,.T.);
#79 = LINE('',#80,#81);
#80 = CARTESIAN_POINT('',(164.,0.,0.));
#81 = VECTOR('',#82,1.);
#82 = DIRECTION('',(0.,0.,1.));
#83 = PLANE('',#84);
#84 = AXIS2_PLACEMENT_3D('',#85,#86,#87);
#85 = CARTESIAN_POINT('',(0.,0.,0.));
#86 = DIRECTION('',(0.,1.,0.));
#87 = DIRECTION('',(0.,0.,1.));
#88 = ADVANCED_FACE('',(#89,#107,#118,#129,#140,#174,#185,#196,#207,#218
    ),#229,.T.);
#89 = FACE_BOUND('',#90,.T.);
#90 = EDGE_LOOP('',(#91,#92,#93,#101));
#91 = ORIENTED_EDGE('',*,*,#47,.F.);
#92 = ORIENTED_EDGE('',*,*,#70,.T.);
#93 = ORIENTED_EDGE('',*,*,#94,.T.);
#94 = EDGE_CURVE('',#71,#95,#97,.T.);
#95 = VERTEX_POINT('',#96);
#96 = CARTESIAN_POINT('',(164.,170.,8.));
#97 = LINE('',#98,#99);
#98 = CARTESIAN_POINT('',(164.,0.,8.));
#99 = VECTOR('',#100,1.);
#100 = DIRECTION('',(0.,1.,0.));
#101 = ORIENTED_EDGE('',*,*,#102,.F.);
#102 = EDGE_CURVE('',#40,#95,#103,.T.);
#103 = LINE('',#104,#105);
#104 = CARTESIAN_POINT('',(0.,170.,8.));
#105 = VECTOR('',#106,1.);
#106 = DIRECTION('',(1.,0.,0.));
#107 = FACE_BOUND('',#108,.T.);
#108 = EDGE_LOOP('',(#109));
#109 = ORIENTED_EDGE('',*,*,#110,.F.);
#110 = EDGE_CURVE('',#111,#111,#113,.T.);
#111 = VERTEX_POINT('',#112);
#112 = CARTESIAN_POINT('',(11.8,10.,8.));
#113 = CIRCLE('',#114,1.8);
#114 = AXIS2_PLACEMENT_3D('',#115,#116,#117);
#115 = CARTESIAN_POINT('',(10.,10.,8.));
#116 = DIRECTION('',(0.,0.,1.));
#117 = DIRECTION('',(1.,0.,0.));
#118 = FACE_BOUND('',#119,.T.);
#119 = EDGE_LOOP('',(#120));
#120 = ORIENTED_EDGE('',*,*,#121,.F.);
#121 = EDGE_CURVE('',#122,#122,#124,.T.);
#122 = VERTEX_POINT('',#123);
#123 = CARTESIAN_POINT('',(83.8,10.,8.));
#124 = CIRCLE('',#125,1.8);
#125 = AXIS2_PLACEMENT_3D('',#126,#127,#128);
#126 = CARTESIAN_POINT('',(82.,10.,8.));
#127 = DIRECTION('',(0.,0.,1.));
#128 = DIRECTION('',(1.,0.,0.));
#129 = FACE_BOUND('',#130,.T.);
#130 = EDGE_LOOP('',(#131));
#131 = ORIENTED_EDGE('',*,*,#132,.F.);
#132 = EDGE_CURVE('',#133,#133,#135,.T.);
#133 = VERTEX_POINT('',#134);
#134 = CARTESIAN_POINT('',(11.8,85.,8.));
#135 = CIRCLE('',#136,1.8);
#136 = AXIS2_PLACEMENT_3D('',#137,#138,#139);
#137 = CARTESIAN_POINT('',(10.,85.,8.));
#138 = DIRECTION('',(0.,0.,1.));
#139 = DIRECTION('',(1.,0.,0.));
#140 = FACE_BOUND('',#141,.T.);
#141 = EDGE_LOOP('',(#142,#152,#160,#168));
#142 = ORIENTED_EDGE('',*,*,#143,.T.);
#143 = EDGE_CURVE('',#144,#146,#148,.T.);
#144 = VERTEX_POINT('',#145);
#145 = CARTESIAN_POINT('',(144.,20.,8.));
#146 = VERTEX_POINT('',#147);
#147 = CARTESIAN_POINT('',(20.,20.,8.));
#148 = LINE('',#149,#150);
#149 = CARTESIAN_POINT('',(10.,20.,8.));
#150 = VECTOR('',#151,1.);
#151 = DIRECTION('',(-1.,0.,0.));
#152 = ORIENTED_EDGE('',*,*,#153,.T.);
#153 = EDGE_CURVE('',#146,#154,#156,.T.);
#154 = VERTEX_POINT('',#155);
#155 = CARTESIAN_POINT('',(20.,150.,8.));
#156 = LINE('',#157,#158);
#157 = CARTESIAN_POINT('',(20.,10.,8.));
#158 = VECTOR('',#159,1.);
#159 = DIRECTION('',(0.,1.,0.));
#160 = ORIENTED_EDGE('',*,*,#161,.F.);
#161 = EDGE_CURVE('',#162,#154,#164,.T.);
#162 = VERTEX_POINT('',#163);
#163 = CARTESIAN_POINT('',(144.,150.,8.));
#164 = LINE('',#165,#166);
#165 = CARTESIAN_POINT('',(10.,150.,8.));
#166 = VECTOR('',#167,1.);
#167 = DIRECTION('',(-1.,0.,0.));
#168 = ORIENTED_EDGE('',*,*,#169,.F.);
#169 = EDGE_CURVE('',#144,#162,#170,.T.);
#170 = LINE('',#171,#172);
#171 = CARTESIAN_POINT('',(144.,10.,8.));
#172 = VECTOR('',#173,1.);
#173 = DIRECTION('',(0.,1.,0.));
#174 = FACE_BOUND('',#175,.T.);
#175 = EDGE_LOOP('',(#176));
#176 = ORIENTED_EDGE('',*,*,#177,.F.);
#177 = EDGE_CURVE('',#178,#178,#180,.T.);
#178 = VERTEX_POINT('',#179);
#179 = CARTESIAN_POINT('',(155.8,10.,8.));
#180 = CIRCLE('',#181,1.8);
#181 = AXIS2_PLACEMENT_3D('',#182,#183,#184);
#182 = CARTESIAN_POINT('',(154.,10.,8.));
#183 = DIRECTION('',(0.,0.,1.));
#184 = DIRECTION('',(1.,0.,0.));
#185 = FACE_BOUND('',#186,.T.);
#186 = EDGE_LOOP('',(#187));
#187 = ORIENTED_EDGE('',*,*,#188,.F.);
#188 = EDGE_CURVE('',#189,#189,#191,.T.);
#189 = VERTEX_POINT('',#190);
#190 = CARTESIAN_POINT('',(155.8,85.,8.));
#191 = CIRCLE('',#192,1.8);
#192 = AXIS2_PLACEMENT_3D('',#193,#194,#195);
#193 = CARTESIAN_POINT('',(154.,85.,8.));
#194 = DIRECTION('',(0.,0.,1.));
#195 = DIRECTION('',(1.,0.,0.));
#196 = FACE_BOUND('',#197,.T.);
#197 = EDGE_LOOP('',(#198));
#198 = ORIENTED_EDGE('',*,*,#199,.F.);
#199 = EDGE_CURVE('',#200,#200,#202,.T.);
#200 = VERTEX_POINT('',#201);
#201 = CARTESIAN_POINT('',(11.8,160.,8.));
#202 = CIRCLE('',#203,1.8);
#203 = AXIS2_PLACEMENT_3D('',#204,#205,#206);
#204 = CARTESIAN_POINT('',(10.,160.,8.));
#205 = DIRECTION('',(0.,0.,1.));
#206 = DIRECTION('',(1.,0.,0.));
#207 = FACE_BOUND('',#208,.T.);
#208 = EDGE_LOOP('',(#209));
#209 = ORIENTED_EDGE('',*,*,#210,.F.);
#210 = EDGE_CURVE('',#211,#211,#213,.T.);
#211 = VERTEX_POINT('',#212);
#212 = CARTESIAN_POINT('',(83.8,160.,8.));
#213 = CIRCLE('',#214,1.8);
#214 = AXIS2_PLACEMENT_3D('',#215,#216,#217);
#215 = CARTESIAN_POINT('',(82.,160.,8.));
#216 = DIRECTION('',(0.,0.,1.));
#217 = DIRECTION('',(1.,0.,0.));
#218 = FACE_BOUND('',#219,.T.);
#219 = EDGE_LOOP('',(#220));
#220 = ORIENTED_EDGE('',*,*,#221,.F.);
#221 = EDGE_CURVE('',#222,#222,#224,.T.);
#222 = VERTEX_POINT('',#223);
#223 = CARTESIAN_POINT('',(155.8,160.,8.));
#224 = CIRCLE('',#225,1.8);
#225 = AXIS2_PLACEMENT_3D('',#226,#227,#228);
#226 = CARTESIAN_POINT('',(154.,160.,8.));
#227 = DIRECTION('',(0.,0.,1.));
#228 = DIRECTION('',(1.,0.,0.));
#229 = PLANE('',#230);
#230 = AXIS2_PLACEMENT_3D('',#231,#232,#233);
#231 = CARTESIAN_POINT('',(0.,0.,8.));
#232 = DIRECTION('',(0.,0.,1.));
#233 = DIRECTION('',(1.,0.,0.));
#234 = ADVANCED_FACE('',(#235),#253,.T.);
#235 = FACE_BOUND('',#236,.T.);
#236 = EDGE_LOOP('',(#237,#245,#246,#247));
#237 = ORIENTED_EDGE('',*,*,#238,.F.);
#238 = EDGE_CURVE('',#32,#239,#241,.T.);
#239 = VERTEX_POINT('',#240);
#240 = CARTESIAN_POINT('',(164.,170.,0.));
#241 = LINE('',#242,#243);
#242 = CARTESIAN_POINT('',(0.,170.,0.));
#243 = VECTOR('',#244,1.);
#244 = DIRECTION('',(1.,0.,0.));
#245 = ORIENTED_EDGE('',*,*,#39,.T.);
#246 = ORIENTED_EDGE('',*,*,#102,.T.);
#247 = ORIENTED_EDGE('',*,*,#248,.F.);
#248 = EDGE_CURVE('',#239,#95,#249,.T.);
#249 = LINE('',#250,#251);
#250 = CARTESIAN_POINT('',(164.,170.,0.));
#251 = VECTOR('',#252,1.);
#252 = DIRECTION('',(0.,0.,1.));
#253 = PLANE('',#254);
#254 = AXIS2_PLACEMENT_3D('',#255,#256,#257);
#255 = CARTESIAN_POINT('',(0.,170.,0.));
#256 = DIRECTION('',(0.,1.,0.));
#257 = DIRECTION('',(0.,0.,1.));
#258 = ADVANCED_FACE('',(#259,#270,#320,#370,#420,#470,#520,#554,#604,
    #654),#704,.F.);
#259 = FACE_BOUND('',#260,.F.);
#260 = EDGE_LOOP('',(#261,#262,#263,#269));
#261 = ORIENTED_EDGE('',*,*,#31,.F.);
#262 = ORIENTED_EDGE('',*,*,#61,.T.);
#263 = ORIENTED_EDGE('',*,*,#264,.T.);
#264 = EDGE_CURVE('',#62,#239,#265,.T.);
#265 = LINE('',#266,#267);
#266 = CARTESIAN_POINT('',(164.,0.,0.));
#267 = VECTOR('',#268,1.);
#268 = DIRECTION('',(0.,1.,0.));
#269 = ORIENTED_EDGE('',*,*,#238,.F.);
#270 = FACE_BOUND('',#271,.F.);
#271 = EDGE_LOOP('',(#272,#282,#290,#298,#306,#314));
#272 = ORIENTED_EDGE('',*,*,#273,.T.);
#273 = EDGE_CURVE('',#274,#276,#278,.T.);
#274 = VERTEX_POINT('',#275);
#275 = CARTESIAN_POINT('',(7.05,11.703183294109,0.));
#276 = VERTEX_POINT('',#277);
#277 = CARTESIAN_POINT('',(10.,13.406366588219,0.));
#278 = LINE('',#279,#280);
#279 = CARTESIAN_POINT('',(3.347436490539,9.56550725523,0.));
#280 = VECTOR('',#281,1.);
#281 = DIRECTION('',(0.866025403784,0.5,0.));
#282 = ORIENTED_EDGE('',*,*,#283,.T.);
#283 = EDGE_CURVE('',#276,#284,#286,.T.);
#284 = VERTEX_POINT('',#285);
#285 = CARTESIAN_POINT('',(12.95,11.703183294109,0.));
#286 = LINE('',#287,#288);
#287 = CARTESIAN_POINT('',(10.627563509461,13.044042627098,0.));
#288 = VECTOR('',#289,1.);
#289 = DIRECTION('',(0.866025403784,-0.5,0.));
#290 = ORIENTED_EDGE('',*,*,#291,.T.);
#291 = EDGE_CURVE('',#284,#292,#294,.T.);
#292 = VERTEX_POINT('',#293);
#293 = CARTESIAN_POINT('',(12.95,8.296816705891,0.));
#294 = LINE('',#295,#296);
#295 = CARTESIAN_POINT('',(12.95,4.148408352945,0.));
#296 = VECTOR('',#297,1.);
#297 = DIRECTION('',(-5.214814064769E-16,-1.,0.));
#298 = ORIENTED_EDGE('',*,*,#299,.T.);
#299 = EDGE_CURVE('',#292,#300,#302,.T.);
#300 = VERTEX_POINT('',#301);
#301 = CARTESIAN_POINT('',(10.,6.593633411781,0.));
#302 = LINE('',#303,#304);
#303 = CARTESIAN_POINT('',(4.822436490539,3.604365725847,
    1.387778780781E-17));
#304 = VECTOR('',#305,1.);
#305 = DIRECTION('',(-0.866025403784,-0.5,0.));
#306 = ORIENTED_EDGE('',*,*,#307,.T.);
#307 = EDGE_CURVE('',#300,#308,#310,.T.);
#308 = VERTEX_POINT('',#309);
#309 = CARTESIAN_POINT('',(7.05,8.296816705891,0.));
#310 = LINE('',#311,#312);
#311 = CARTESIAN_POINT('',(6.202563509461,8.786084391824,
    1.387778780781E-17));
#312 = VECTOR('',#313,1.);
#313 = DIRECTION('',(-0.866025403784,0.5,0.));
#314 = ORIENTED_EDGE('',*,*,#315,.T.);
#315 = EDGE_CURVE('',#308,#274,#316,.T.);
#316 = LINE('',#317,#318);
#317 = CARTESIAN_POINT('',(7.05,5.851591647055,0.));
#318 = VECTOR('',#319,1.);
#319 = DIRECTION('',(-2.607407032384E-16,1.,0.));
#320 = FACE_BOUND('',#321,.F.);
#321 = EDGE_LOOP('',(#322,#332,#340,#348,#356,#364));
#322 = ORIENTED_EDGE('',*,*,#323,.T.);
#323 = EDGE_CURVE('',#324,#326,#328,.T.);
#324 = VERTEX_POINT('',#325);
#325 = CARTESIAN_POINT('',(79.05,11.703183294109,0.));
#326 = VERTEX_POINT('',#327);
#327 = CARTESIAN_POINT('',(82.,13.406366588219,0.));
#328 = LINE('',#329,#330);
#329 = CARTESIAN_POINT('',(48.347436490539,-6.02295001289,0.));
#330 = VECTOR('',#331,1.);
#331 = DIRECTION('',(0.866025403784,0.5,0.));
#332 = ORIENTED_EDGE('',*,*,#333,.T.);
#333 = EDGE_CURVE('',#326,#334,#336,.T.);
#334 = VERTEX_POINT('',#335);
#335 = CARTESIAN_POINT('',(84.95,11.703183294109,0.));
#336 = LINE('',#337,#338);
#337 = CARTESIAN_POINT('',(55.627563509461,28.632499895218,0.));
#338 = VECTOR('',#339,1.);
#339 = DIRECTION('',(0.866025403784,-0.5,0.));
#340 = ORIENTED_EDGE('',*,*,#341,.T.);
#341 = EDGE_CURVE('',#334,#342,#344,.T.);
#342 = VERTEX_POINT('',#343);
#343 = CARTESIAN_POINT('',(84.95,8.296816705891,0.));
#344 = LINE('',#345,#346);
#345 = CARTESIAN_POINT('',(84.95,4.148408352945,0.));
#346 = VECTOR('',#347,1.);
#347 = DIRECTION('',(0.,-1.,0.));
#348 = ORIENTED_EDGE('',*,*,#349,.T.);
#349 = EDGE_CURVE('',#342,#350,#352,.T.);
#350 = VERTEX_POINT('',#351);
#351 = CARTESIAN_POINT('',(82.,6.593633411781,0.));
#352 = LINE('',#353,#354);
#353 = CARTESIAN_POINT('',(49.822436490539,-11.98409154227,0.));
#354 = VECTOR('',#355,1.);
#355 = DIRECTION('',(-0.866025403784,-0.5,0.));
#356 = ORIENTED_EDGE('',*,*,#357,.T.);
#357 = EDGE_CURVE('',#350,#358,#360,.T.);
#358 = VERTEX_POINT('',#359);
#359 = CARTESIAN_POINT('',(79.05,8.296816705891,0.));
#360 = LINE('',#361,#362);
#361 = CARTESIAN_POINT('',(51.202563509461,24.374541659944,0.));
#362 = VECTOR('',#363,1.);
#363 = DIRECTION('',(-0.866025403784,0.5,0.));
#364 = ORIENTED_EDGE('',*,*,#365,.T.);
#365 = EDGE_CURVE('',#358,#324,#366,.T.);
#366 = LINE('',#367,#368);
#367 = CARTESIAN_POINT('',(79.05,5.851591647055,0.));
#368 = VECTOR('',#369,1.);
#369 = DIRECTION('',(0.,1.,0.));
#370 = FACE_BOUND('',#371,.F.);
#371 = EDGE_LOOP('',(#372,#382,#390,#398,#406,#414));
#372 = ORIENTED_EDGE('',*,*,#373,.T.);
#373 = EDGE_CURVE('',#374,#376,#378,.T.);
#374 = VERTEX_POINT('',#375);
#375 = CARTESIAN_POINT('',(151.05,11.703183294109,0.));
#376 = VERTEX_POINT('',#377);
#377 = CARTESIAN_POINT('',(154.,13.406366588219,0.));
#378 = LINE('',#379,#380);
#379 = CARTESIAN_POINT('',(93.347436490539,-21.61140728101,0.));
#380 = VECTOR('',#381,1.);
#381 = DIRECTION('',(0.866025403784,0.5,0.));
#382 = ORIENTED_EDGE('',*,*,#383,.T.);
#383 = EDGE_CURVE('',#376,#384,#386,.T.);
#384 = VERTEX_POINT('',#385);
#385 = CARTESIAN_POINT('',(156.95,11.703183294109,0.));
#386 = LINE('',#387,#388);
#387 = CARTESIAN_POINT('',(100.62756350946,44.220957163338,0.));
#388 = VECTOR('',#389,1.);
#389 = DIRECTION('',(0.866025403784,-0.5,0.));
#390 = ORIENTED_EDGE('',*,*,#391,.T.);
#391 = EDGE_CURVE('',#384,#392,#394,.T.);
#392 = VERTEX_POINT('',#393);
#393 = CARTESIAN_POINT('',(156.95,8.296816705891,0.));
#394 = LINE('',#395,#396);
#395 = CARTESIAN_POINT('',(156.95,4.148408352945,0.));
#396 = VECTOR('',#397,1.);
#397 = DIRECTION('',(0.,-1.,0.));
#398 = ORIENTED_EDGE('',*,*,#399,.T.);
#399 = EDGE_CURVE('',#392,#400,#402,.T.);
#400 = VERTEX_POINT('',#401);
#401 = CARTESIAN_POINT('',(154.,6.593633411781,0.));
#402 = LINE('',#403,#404);
#403 = CARTESIAN_POINT('',(94.822436490539,-27.57254881039,0.));
#404 = VECTOR('',#405,1.);
#405 = DIRECTION('',(-0.866025403784,-0.5,0.));
#406 = ORIENTED_EDGE('',*,*,#407,.T.);
#407 = EDGE_CURVE('',#400,#408,#410,.T.);
#408 = VERTEX_POINT('',#409);
#409 = CARTESIAN_POINT('',(151.05,8.296816705891,0.));
#410 = LINE('',#411,#412);
#411 = CARTESIAN_POINT('',(96.202563509461,39.962998928064,0.));
#412 = VECTOR('',#413,1.);
#413 = DIRECTION('',(-0.866025403784,0.5,0.));
#414 = ORIENTED_EDGE('',*,*,#415,.T.);
#415 = EDGE_CURVE('',#408,#374,#416,.T.);
#416 = LINE('',#417,#418);
#417 = CARTESIAN_POINT('',(151.05,5.851591647055,0.));
#418 = VECTOR('',#419,1.);
#419 = DIRECTION('',(0.,1.,0.));
#420 = FACE_BOUND('',#421,.F.);
#421 = EDGE_LOOP('',(#422,#432,#440,#448,#456,#464));
#422 = ORIENTED_EDGE('',*,*,#423,.T.);
#423 = EDGE_CURVE('',#424,#426,#428,.T.);
#424 = VERTEX_POINT('',#425);
#425 = CARTESIAN_POINT('',(7.05,86.703183294109,0.));
#426 = VERTEX_POINT('',#427);
#427 = CARTESIAN_POINT('',(10.,88.406366588219,0.));
#428 = LINE('',#429,#430);
#429 = CARTESIAN_POINT('',(-12.89053983041,75.19050725523,0.));
#430 = VECTOR('',#431,1.);
#431 = DIRECTION('',(0.866025403784,0.5,0.));
#432 = ORIENTED_EDGE('',*,*,#433,.T.);
#433 = EDGE_CURVE('',#426,#434,#436,.T.);
#434 = VERTEX_POINT('',#435);
#435 = CARTESIAN_POINT('',(12.95,86.703183294109,0.));
#436 = LINE('',#437,#438);
#437 = CARTESIAN_POINT('',(26.865539830419,78.669042627098,0.));
#438 = VECTOR('',#439,1.);
#439 = DIRECTION('',(0.866025403784,-0.5,0.));
#440 = ORIENTED_EDGE('',*,*,#441,.T.);
#441 = EDGE_CURVE('',#434,#442,#444,.T.);
#442 = VERTEX_POINT('',#443);
#443 = CARTESIAN_POINT('',(12.95,83.296816705891,0.));
#444 = LINE('',#445,#446);
#445 = CARTESIAN_POINT('',(12.95,41.648408352945,0.));
#446 = VECTOR('',#447,1.);
#447 = DIRECTION('',(-5.214814064769E-16,-1.,0.));
#448 = ORIENTED_EDGE('',*,*,#449,.T.);
#449 = EDGE_CURVE('',#442,#450,#452,.T.);
#450 = VERTEX_POINT('',#451);
#451 = CARTESIAN_POINT('',(10.,81.593633411781,0.));
#452 = LINE('',#453,#454);
#453 = CARTESIAN_POINT('',(-11.41553983041,69.229365725847,0.));
#454 = VECTOR('',#455,1.);
#455 = DIRECTION('',(-0.866025403784,-0.5,0.));
#456 = ORIENTED_EDGE('',*,*,#457,.T.);
#457 = EDGE_CURVE('',#450,#458,#460,.T.);
#458 = VERTEX_POINT('',#459);
#459 = CARTESIAN_POINT('',(7.05,83.296816705891,0.));
#460 = LINE('',#461,#462);
#461 = CARTESIAN_POINT('',(22.440539830419,74.411084391824,
    1.387778780781E-17));
#462 = VECTOR('',#463,1.);
#463 = DIRECTION('',(-0.866025403784,0.5,0.));
#464 = ORIENTED_EDGE('',*,*,#465,.T.);
#465 = EDGE_CURVE('',#458,#424,#466,.T.);
#466 = LINE('',#467,#468);
#467 = CARTESIAN_POINT('',(7.05,43.351591647055,0.));
#468 = VECTOR('',#469,1.);
#469 = DIRECTION('',(-2.607407032384E-16,1.,0.));
#470 = FACE_BOUND('',#471,.F.);
#471 = EDGE_LOOP('',(#472,#482,#490,#498,#506,#514));
#472 = ORIENTED_EDGE('',*,*,#473,.T.);
#473 = EDGE_CURVE('',#474,#476,#478,.T.);
#474 = VERTEX_POINT('',#475);
#475 = CARTESIAN_POINT('',(7.05,161.7031832941,0.));
#476 = VERTEX_POINT('',#477);
#477 = CARTESIAN_POINT('',(10.,163.40636658821,0.));
#478 = LINE('',#479,#480);
#479 = CARTESIAN_POINT('',(-29.12851615137,140.81550725523,0.));
#480 = VECTOR('',#481,1.);
#481 = DIRECTION('',(0.866025403784,0.5,0.));
#482 = ORIENTED_EDGE('',*,*,#483,.T.);
#483 = EDGE_CURVE('',#476,#484,#486,.T.);
#484 = VERTEX_POINT('',#485);
#485 = CARTESIAN_POINT('',(12.95,161.7031832941,0.));
#486 = LINE('',#487,#488);
#487 = CARTESIAN_POINT('',(43.103516151377,144.29404262709,0.));
#488 = VECTOR('',#489,1.);
#489 = DIRECTION('',(0.866025403784,-0.5,0.));
#490 = ORIENTED_EDGE('',*,*,#491,.T.);
#491 = EDGE_CURVE('',#484,#492,#494,.T.);
#492 = VERTEX_POINT('',#493);
#493 = CARTESIAN_POINT('',(12.95,158.29681670589,0.));
#494 = LINE('',#495,#496);
#495 = CARTESIAN_POINT('',(12.95,79.148408352945,0.));
#496 = VECTOR('',#497,1.);
#497 = DIRECTION('',(-5.214814064769E-16,-1.,0.));
#498 = ORIENTED_EDGE('',*,*,#499,.T.);
#499 = EDGE_CURVE('',#492,#500,#502,.T.);
#500 = VERTEX_POINT('',#501);
#501 = CARTESIAN_POINT('',(10.,156.59363341178,0.));
#502 = LINE('',#503,#504);
#503 = CARTESIAN_POINT('',(-27.65351615137,134.85436572584,0.));
#504 = VECTOR('',#505,1.);
#505 = DIRECTION('',(-0.866025403784,-0.5,0.));
#506 = ORIENTED_EDGE('',*,*,#507,.T.);
#507 = EDGE_CURVE('',#500,#508,#510,.T.);
#508 = VERTEX_POINT('',#509);
#509 = CARTESIAN_POINT('',(7.05,158.29681670589,0.));
#510 = LINE('',#511,#512);
#511 = CARTESIAN_POINT('',(38.678516151377,140.03608439182,
    1.387778780781E-17));
#512 = VECTOR('',#513,1.);
#513 = DIRECTION('',(-0.866025403784,0.5,0.));
#514 = ORIENTED_EDGE('',*,*,#515,.T.);
#515 = EDGE_CURVE('',#508,#474,#516,.T.);
#516 = LINE('',#517,#518);
#517 = CARTESIAN_POINT('',(7.05,80.851591647055,0.));
#518 = VECTOR('',#519,1.);
#519 = DIRECTION('',(-2.607407032384E-16,1.,0.));
#520 = FACE_BOUND('',#521,.F.);
#521 = EDGE_LOOP('',(#522,#532,#540,#548));
#522 = ORIENTED_EDGE('',*,*,#523,.T.);
#523 = EDGE_CURVE('',#524,#526,#528,.T.);
#524 = VERTEX_POINT('',#525);
#525 = CARTESIAN_POINT('',(144.,20.,0.));
#526 = VERTEX_POINT('',#527);
#527 = CARTESIAN_POINT('',(20.,20.,0.));
#528 = LINE('',#529,#530);
#529 = CARTESIAN_POINT('',(10.,20.,0.));
#530 = VECTOR('',#531,1.);
#531 = DIRECTION('',(-1.,0.,0.));
#532 = ORIENTED_EDGE('',*,*,#533,.T.);
#533 = EDGE_CURVE('',#526,#534,#536,.T.);
#534 = VERTEX_POINT('',#535);
#535 = CARTESIAN_POINT('',(20.,150.,0.));
#536 = LINE('',#537,#538);
#537 = CARTESIAN_POINT('',(20.,10.,0.));
#538 = VECTOR('',#539,1.);
#539 = DIRECTION('',(0.,1.,0.));
#540 = ORIENTED_EDGE('',*,*,#541,.F.);
#541 = EDGE_CURVE('',#542,#534,#544,.T.);
#542 = VERTEX_POINT('',#543);
#543 = CARTESIAN_POINT('',(144.,150.,0.));
#544 = LINE('',#545,#546);
#545 = CARTESIAN_POINT('',(10.,150.,0.));
#546 = VECTOR('',#547,1.);
#547 = DIRECTION('',(-1.,0.,0.));
#548 = ORIENTED_EDGE('',*,*,#549,.F.);
#549 = EDGE_CURVE('',#524,#542,#550,.T.);
#550 = LINE('',#551,#552);
#551 = CARTESIAN_POINT('',(144.,10.,0.));
#552 = VECTOR('',#553,1.);
#553 = DIRECTION('',(0.,1.,0.));
#554 = FACE_BOUND('',#555,.F.);
#555 = EDGE_LOOP('',(#556,#566,#574,#582,#590,#598));
#556 = ORIENTED_EDGE('',*,*,#557,.T.);
#557 = EDGE_CURVE('',#558,#560,#562,.T.);
#558 = VERTEX_POINT('',#559);
#559 = CARTESIAN_POINT('',(151.05,86.703183294109,0.));
#560 = VERTEX_POINT('',#561);
#561 = CARTESIAN_POINT('',(154.,88.406366588219,0.));
#562 = LINE('',#563,#564);
#563 = CARTESIAN_POINT('',(77.109460169581,44.01359271899,0.));
#564 = VECTOR('',#565,1.);
#565 = DIRECTION('',(0.866025403784,0.5,0.));
#566 = ORIENTED_EDGE('',*,*,#567,.T.);
#567 = EDGE_CURVE('',#560,#568,#570,.T.);
#568 = VERTEX_POINT('',#569);
#569 = CARTESIAN_POINT('',(156.95,86.703183294109,0.));
#570 = LINE('',#571,#572);
#571 = CARTESIAN_POINT('',(116.86553983041,109.84595716333,0.));
#572 = VECTOR('',#573,1.);
#573 = DIRECTION('',(0.866025403784,-0.5,0.));
#574 = ORIENTED_EDGE('',*,*,#575,.T.);
#575 = EDGE_CURVE('',#568,#576,#578,.T.);
#576 = VERTEX_POINT('',#577);
#577 = CARTESIAN_POINT('',(156.95,83.296816705891,0.));
#578 = LINE('',#579,#580);
#579 = CARTESIAN_POINT('',(156.95,41.648408352945,0.));
#580 = VECTOR('',#581,1.);
#581 = DIRECTION('',(0.,-1.,0.));
#582 = ORIENTED_EDGE('',*,*,#583,.T.);
#583 = EDGE_CURVE('',#576,#584,#586,.T.);
#584 = VERTEX_POINT('',#585);
#585 = CARTESIAN_POINT('',(154.,81.593633411781,0.));
#586 = LINE('',#587,#588);
#587 = CARTESIAN_POINT('',(78.584460169581,38.052451189608,0.));
#588 = VECTOR('',#589,1.);
#589 = DIRECTION('',(-0.866025403784,-0.5,0.));
#590 = ORIENTED_EDGE('',*,*,#591,.T.);
#591 = EDGE_CURVE('',#584,#592,#594,.T.);
#592 = VERTEX_POINT('',#593);
#593 = CARTESIAN_POINT('',(151.05,83.296816705891,0.));
#594 = LINE('',#595,#596);
#595 = CARTESIAN_POINT('',(112.44053983041,105.58799892806,0.));
#596 = VECTOR('',#597,1.);
#597 = DIRECTION('',(-0.866025403784,0.5,0.));
#598 = ORIENTED_EDGE('',*,*,#599,.T.);
#599 = EDGE_CURVE('',#592,#558,#600,.T.);
#600 = LINE('',#601,#602);
#601 = CARTESIAN_POINT('',(151.05,43.351591647055,0.));
#602 = VECTOR('',#603,1.);
#603 = DIRECTION('',(0.,1.,0.));
#604 = FACE_BOUND('',#605,.F.);
#605 = EDGE_LOOP('',(#606,#616,#624,#632,#640,#648));
#606 = ORIENTED_EDGE('',*,*,#607,.T.);
#607 = EDGE_CURVE('',#608,#610,#612,.T.);
#608 = VERTEX_POINT('',#609);
#609 = CARTESIAN_POINT('',(79.05,161.7031832941,0.));
#610 = VERTEX_POINT('',#611);
#611 = CARTESIAN_POINT('',(82.,163.40636658821,0.));
#612 = LINE('',#613,#614);
#613 = CARTESIAN_POINT('',(15.871483848622,125.22704998711,0.));
#614 = VECTOR('',#615,1.);
#615 = DIRECTION('',(0.866025403784,0.5,0.));
#616 = ORIENTED_EDGE('',*,*,#617,.T.);
#617 = EDGE_CURVE('',#610,#618,#620,.T.);
#618 = VERTEX_POINT('',#619);
#619 = CARTESIAN_POINT('',(84.95,161.7031832941,0.));
#620 = LINE('',#621,#622);
#621 = CARTESIAN_POINT('',(88.103516151377,159.88249989521,0.));
#622 = VECTOR('',#623,1.);
#623 = DIRECTION('',(0.866025403784,-0.5,0.));
#624 = ORIENTED_EDGE('',*,*,#625,.T.);
#625 = EDGE_CURVE('',#618,#626,#628,.T.);
#626 = VERTEX_POINT('',#627);
#627 = CARTESIAN_POINT('',(84.95,158.29681670589,0.));
#628 = LINE('',#629,#630);
#629 = CARTESIAN_POINT('',(84.95,79.148408352945,0.));
#630 = VECTOR('',#631,1.);
#631 = DIRECTION('',(0.,-1.,0.));
#632 = ORIENTED_EDGE('',*,*,#633,.T.);
#633 = EDGE_CURVE('',#626,#634,#636,.T.);
#634 = VERTEX_POINT('',#635);
#635 = CARTESIAN_POINT('',(82.,156.59363341178,0.));
#636 = LINE('',#637,#638);
#637 = CARTESIAN_POINT('',(17.346483848622,119.26590845772,0.));
#638 = VECTOR('',#639,1.);
#639 = DIRECTION('',(-0.866025403784,-0.5,0.));
#640 = ORIENTED_EDGE('',*,*,#641,.T.);
#641 = EDGE_CURVE('',#634,#642,#644,.T.);
#642 = VERTEX_POINT('',#643);
#643 = CARTESIAN_POINT('',(79.05,158.29681670589,0.));
#644 = LINE('',#645,#646);
#645 = CARTESIAN_POINT('',(83.678516151377,155.62454165994,0.));
#646 = VECTOR('',#647,1.);
#647 = DIRECTION('',(-0.866025403784,0.5,0.));
#648 = ORIENTED_EDGE('',*,*,#649,.T.);
#649 = EDGE_CURVE('',#642,#608,#650,.T.);
#650 = LINE('',#651,#652);
#651 = CARTESIAN_POINT('',(79.05,80.851591647055,0.));
#652 = VECTOR('',#653,1.);
#653 = DIRECTION('',(0.,1.,0.));
#654 = FACE_BOUND('',#655,.F.);
#655 = EDGE_LOOP('',(#656,#666,#674,#682,#690,#698));
#656 = ORIENTED_EDGE('',*,*,#657,.T.);
#657 = EDGE_CURVE('',#658,#660,#662,.T.);
#658 = VERTEX_POINT('',#659);
#659 = CARTESIAN_POINT('',(151.05,161.7031832941,0.));
#660 = VERTEX_POINT('',#661);
#661 = CARTESIAN_POINT('',(154.,163.40636658821,0.));
#662 = LINE('',#663,#664);
#663 = CARTESIAN_POINT('',(60.871483848622,109.63859271899,0.));
#664 = VECTOR('',#665,1.);
#665 = DIRECTION('',(0.866025403784,0.5,0.));
#666 = ORIENTED_EDGE('',*,*,#667,.T.);
#667 = EDGE_CURVE('',#660,#668,#670,.T.);
#668 = VERTEX_POINT('',#669);
#669 = CARTESIAN_POINT('',(156.95,161.7031832941,0.));
#670 = LINE('',#671,#672);
#671 = CARTESIAN_POINT('',(133.10351615137,175.47095716333,0.));
#672 = VECTOR('',#673,1.);
#673 = DIRECTION('',(0.866025403784,-0.5,0.));
#674 = ORIENTED_EDGE('',*,*,#675,.T.);
#675 = EDGE_CURVE('',#668,#676,#678,.T.);
#676 = VERTEX_POINT('',#677);
#677 = CARTESIAN_POINT('',(156.95,158.29681670589,0.));
#678 = LINE('',#679,#680);
#679 = CARTESIAN_POINT('',(156.95,79.148408352945,0.));
#680 = VECTOR('',#681,1.);
#681 = DIRECTION('',(0.,-1.,0.));
#682 = ORIENTED_EDGE('',*,*,#683,.T.);
#683 = EDGE_CURVE('',#676,#684,#686,.T.);
#684 = VERTEX_POINT('',#685);
#685 = CARTESIAN_POINT('',(154.,156.59363341178,0.));
#686 = LINE('',#687,#688);
#687 = CARTESIAN_POINT('',(62.346483848622,103.6774511896,0.));
#688 = VECTOR('',#689,1.);
#689 = DIRECTION('',(-0.866025403784,-0.5,0.));
#690 = ORIENTED_EDGE('',*,*,#691,.T.);
#691 = EDGE_CURVE('',#684,#692,#694,.T.);
#692 = VERTEX_POINT('',#693);
#693 = CARTESIAN_POINT('',(151.05,158.29681670589,0.));
#694 = LINE('',#695,#696);
#695 = CARTESIAN_POINT('',(128.67851615137,171.21299892806,0.));
#696 = VECTOR('',#697,1.);
#697 = DIRECTION('',(-0.866025403784,0.5,0.));
#698 = ORIENTED_EDGE('',*,*,#699,.T.);
#699 = EDGE_CURVE('',#692,#658,#700,.T.);
#700 = LINE('',#701,#702);
#701 = CARTESIAN_POINT('',(151.05,80.851591647055,0.));
#702 = VECTOR('',#703,1.);
#703 = DIRECTION('',(0.,1.,0.));
#704 = PLANE('',#705);
#705 = AXIS2_PLACEMENT_3D('',#706,#707,#708);
#706 = CARTESIAN_POINT('',(0.,0.,0.));
#707 = DIRECTION('',(0.,0.,1.));
#708 = DIRECTION('',(1.,0.,0.));
#709 = ADVANCED_FACE('',(#710),#716,.T.);
#710 = FACE_BOUND('',#711,.T.);
#711 = EDGE_LOOP('',(#712,#713,#714,#715));
#712 = ORIENTED_EDGE('',*,*,#78,.F.);
#713 = ORIENTED_EDGE('',*,*,#264,.T.);
#714 = ORIENTED_EDGE('',*,*,#248,.T.);
#715 = ORIENTED_EDGE('',*,*,#94,.F.);
#716 = PLANE('',#717);
#717 = AXIS2_PLACEMENT_3D('',#718,#719,#720);
#718 = CARTESIAN_POINT('',(164.,0.,0.));
#719 = DIRECTION('',(1.,0.,0.));
#720 = DIRECTION('',(0.,0.,1.));
#721 = ADVANCED_FACE('',(#722),#741,.F.);
#722 = FACE_BOUND('',#723,.F.);
#723 = EDGE_LOOP('',(#724,#732,#733,#734));
#724 = ORIENTED_EDGE('',*,*,#725,.T.);
#725 = EDGE_CURVE('',#726,#111,#728,.T.);
#726 = VERTEX_POINT('',#727);
#727 = CARTESIAN_POINT('',(11.8,10.,6.2));
#728 = LINE('',#729,#730);
#729 = CARTESIAN_POINT('',(11.8,10.,-1.));
#730 = VECTOR('',#731,1.);
#731 = DIRECTION('',(0.,0.,1.));
#732 = ORIENTED_EDGE('',*,*,#110,.F.);
#733 = ORIENTED_EDGE('',*,*,#725,.F.);
#734 = ORIENTED_EDGE('',*,*,#735,.T.);
#735 = EDGE_CURVE('',#726,#726,#736,.T.);
#736 = CIRCLE('',#737,1.8);
#737 = AXIS2_PLACEMENT_3D('',#738,#739,#740);
#738 = CARTESIAN_POINT('',(10.,10.,6.2));
#739 = DIRECTION('',(0.,0.,1.));
#740 = DIRECTION('',(1.,0.,0.));
#741 = CYLINDRICAL_SURFACE('',#742,1.8);
#742 = AXIS2_PLACEMENT_3D('',#743,#744,#745);
#743 = CARTESIAN_POINT('',(10.,10.,-1.));
#744 = DIRECTION('',(0.,0.,1.));
#745 = DIRECTION('',(1.,0.,0.));
#746 = ADVANCED_FACE('',(#747),#766,.F.);
#747 = FACE_BOUND('',#748,.F.);
#748 = EDGE_LOOP('',(#749,#757,#758,#759));
#749 = ORIENTED_EDGE('',*,*,#750,.T.);
#750 = EDGE_CURVE('',#751,#122,#753,.T.);
#751 = VERTEX_POINT('',#752);
#752 = CARTESIAN_POINT('',(83.8,10.,6.2));
#753 = LINE('',#754,#755);
#754 = CARTESIAN_POINT('',(83.8,10.,-1.));
#755 = VECTOR('',#756,1.);
#756 = DIRECTION('',(0.,0.,1.));
#757 = ORIENTED_EDGE('',*,*,#121,.F.);
#758 = ORIENTED_EDGE('',*,*,#750,.F.);
#759 = ORIENTED_EDGE('',*,*,#760,.T.);
#760 = EDGE_CURVE('',#751,#751,#761,.T.);
#761 = CIRCLE('',#762,1.8);
#762 = AXIS2_PLACEMENT_3D('',#763,#764,#765);
#763 = CARTESIAN_POINT('',(82.,10.,6.2));
#764 = DIRECTION('',(0.,0.,1.));
#765 = DIRECTION('',(1.,0.,0.));
#766 = CYLINDRICAL_SURFACE('',#767,1.8);
#767 = AXIS2_PLACEMENT_3D('',#768,#769,#770);
#768 = CARTESIAN_POINT('',(82.,10.,-1.));
#769 = DIRECTION('',(0.,0.,1.));
#770 = DIRECTION('',(1.,0.,0.));
#771 = ADVANCED_FACE('',(#772),#791,.F.);
#772 = FACE_BOUND('',#773,.F.);
#773 = EDGE_LOOP('',(#774,#782,#783,#784));
#774 = ORIENTED_EDGE('',*,*,#775,.T.);
#775 = EDGE_CURVE('',#776,#133,#778,.T.);
#776 = VERTEX_POINT('',#777);
#777 = CARTESIAN_POINT('',(11.8,85.,6.2));
#778 = LINE('',#779,#780);
#779 = CARTESIAN_POINT('',(11.8,85.,-1.));
#780 = VECTOR('',#781,1.);
#781 = DIRECTION('',(0.,0.,1.));
#782 = ORIENTED_EDGE('',*,*,#132,.F.);
#783 = ORIENTED_EDGE('',*,*,#775,.F.);
#784 = ORIENTED_EDGE('',*,*,#785,.T.);
#785 = EDGE_CURVE('',#776,#776,#786,.T.);
#786 = CIRCLE('',#787,1.8);
#787 = AXIS2_PLACEMENT_3D('',#788,#789,#790);
#788 = CARTESIAN_POINT('',(10.,85.,6.2));
#789 = DIRECTION('',(0.,0.,1.));
#790 = DIRECTION('',(1.,0.,0.));
#791 = CYLINDRICAL_SURFACE('',#792,1.8);
#792 = AXIS2_PLACEMENT_3D('',#793,#794,#795);
#793 = CARTESIAN_POINT('',(10.,85.,-1.));
#794 = DIRECTION('',(0.,0.,1.));
#795 = DIRECTION('',(1.,0.,0.));
#796 = ADVANCED_FACE('',(#797),#813,.T.);
#797 = FACE_BOUND('',#798,.T.);
#798 = EDGE_LOOP('',(#799,#805,#806,#812));
#799 = ORIENTED_EDGE('',*,*,#800,.F.);
#800 = EDGE_CURVE('',#524,#144,#801,.T.);
#801 = LINE('',#802,#803);
#802 = CARTESIAN_POINT('',(144.,20.,-1.));
#803 = VECTOR('',#804,1.);
#804 = DIRECTION('',(0.,0.,1.));
#805 = ORIENTED_EDGE('',*,*,#523,.T.);
#806 = ORIENTED_EDGE('',*,*,#807,.T.);
#807 = EDGE_CURVE('',#526,#146,#808,.T.);
#808 = LINE('',#809,#810);
#809 = CARTESIAN_POINT('',(20.,20.,-1.));
#810 = VECTOR('',#811,1.);
#811 = DIRECTION('',(0.,0.,1.));
#812 = ORIENTED_EDGE('',*,*,#143,.F.);
#813 = PLANE('',#814);
#814 = AXIS2_PLACEMENT_3D('',#815,#816,#817);
#815 = CARTESIAN_POINT('',(20.,20.,-1.));
#816 = DIRECTION('',(0.,1.,0.));
#817 = DIRECTION('',(0.,0.,1.));
#818 = ADVANCED_FACE('',(#819),#830,.F.);
#819 = FACE_BOUND('',#820,.F.);
#820 = EDGE_LOOP('',(#821,#822,#823,#829));
#821 = ORIENTED_EDGE('',*,*,#800,.F.);
#822 = ORIENTED_EDGE('',*,*,#549,.T.);
#823 = ORIENTED_EDGE('',*,*,#824,.T.);
#824 = EDGE_CURVE('',#542,#162,#825,.T.);
#825 = LINE('',#826,#827);
#826 = CARTESIAN_POINT('',(144.,150.,-1.));
#827 = VECTOR('',#828,1.);
#828 = DIRECTION('',(0.,0.,1.));
#829 = ORIENTED_EDGE('',*,*,#169,.F.);
#830 = PLANE('',#831);
#831 = AXIS2_PLACEMENT_3D('',#832,#833,#834);
#832 = CARTESIAN_POINT('',(144.,20.,-1.));
#833 = DIRECTION('',(1.,0.,0.));
#834 = DIRECTION('',(0.,0.,1.));
#835 = ADVANCED_FACE('',(#836),#847,.T.);
#836 = FACE_BOUND('',#837,.T.);
#837 = EDGE_LOOP('',(#838,#839,#840,#846));
#838 = ORIENTED_EDGE('',*,*,#807,.F.);
#839 = ORIENTED_EDGE('',*,*,#533,.T.);
#840 = ORIENTED_EDGE('',*,*,#841,.T.);
#841 = EDGE_CURVE('',#534,#154,#842,.T.);
#842 = LINE('',#843,#844);
#843 = CARTESIAN_POINT('',(20.,150.,-1.));
#844 = VECTOR('',#845,1.);
#845 = DIRECTION('',(0.,0.,1.));
#846 = ORIENTED_EDGE('',*,*,#153,.F.);
#847 = PLANE('',#848);
#848 = AXIS2_PLACEMENT_3D('',#849,#850,#851);
#849 = CARTESIAN_POINT('',(20.,20.,-1.));
#850 = DIRECTION('',(1.,0.,0.));
#851 = DIRECTION('',(0.,0.,1.));
#852 = ADVANCED_FACE('',(#853),#859,.F.);
#853 = FACE_BOUND('',#854,.F.);
#854 = EDGE_LOOP('',(#855,#856,#857,#858));
#855 = ORIENTED_EDGE('',*,*,#824,.F.);
#856 = ORIENTED_EDGE('',*,*,#541,.T.);
#857 = ORIENTED_EDGE('',*,*,#841,.T.);
#858 = ORIENTED_EDGE('',*,*,#161,.F.);
#859 = PLANE('',#860);
#860 = AXIS2_PLACEMENT_3D('',#861,#862,#863);
#861 = CARTESIAN_POINT('',(20.,150.,-1.));
#862 = DIRECTION('',(0.,1.,0.));
#863 = DIRECTION('',(0.,0.,1.));
#864 = ADVANCED_FACE('',(#865),#884,.F.);
#865 = FACE_BOUND('',#866,.F.);
#866 = EDGE_LOOP('',(#867,#875,#876,#877));
#867 = ORIENTED_EDGE('',*,*,#868,.T.);
#868 = EDGE_CURVE('',#869,#178,#871,.T.);
#869 = VERTEX_POINT('',#870);
#870 = CARTESIAN_POINT('',(155.8,10.,6.2));
#871 = LINE('',#872,#873);
#872 = CARTESIAN_POINT('',(155.8,10.,-1.));
#873 = VECTOR('',#874,1.);
#874 = DIRECTION('',(0.,0.,1.));
#875 = ORIENTED_EDGE('',*,*,#177,.F.);
#876 = ORIENTED_EDGE('',*,*,#868,.F.);
#877 = ORIENTED_EDGE('',*,*,#878,.T.);
#878 = EDGE_CURVE('',#869,#869,#879,.T.);
#879 = CIRCLE('',#880,1.8);
#880 = AXIS2_PLACEMENT_3D('',#881,#882,#883);
#881 = CARTESIAN_POINT('',(154.,10.,6.2));
#882 = DIRECTION('',(0.,0.,1.));
#883 = DIRECTION('',(1.,0.,0.));
#884 = CYLINDRICAL_SURFACE('',#885,1.8);
#885 = AXIS2_PLACEMENT_3D('',#886,#887,#888);
#886 = CARTESIAN_POINT('',(154.,10.,-1.));
#887 = DIRECTION('',(0.,0.,1.));
#888 = DIRECTION('',(1.,0.,0.));
#889 = ADVANCED_FACE('',(#890),#909,.F.);
#890 = FACE_BOUND('',#891,.F.);
#891 = EDGE_LOOP('',(#892,#900,#901,#902));
#892 = ORIENTED_EDGE('',*,*,#893,.T.);
#893 = EDGE_CURVE('',#894,#189,#896,.T.);
#894 = VERTEX_POINT('',#895);
#895 = CARTESIAN_POINT('',(155.8,85.,6.2));
#896 = LINE('',#897,#898);
#897 = CARTESIAN_POINT('',(155.8,85.,-1.));
#898 = VECTOR('',#899,1.);
#899 = DIRECTION('',(0.,0.,1.));
#900 = ORIENTED_EDGE('',*,*,#188,.F.);
#901 = ORIENTED_EDGE('',*,*,#893,.F.);
#902 = ORIENTED_EDGE('',*,*,#903,.T.);
#903 = EDGE_CURVE('',#894,#894,#904,.T.);
#904 = CIRCLE('',#905,1.8);
#905 = AXIS2_PLACEMENT_3D('',#906,#907,#908);
#906 = CARTESIAN_POINT('',(154.,85.,6.2));
#907 = DIRECTION('',(0.,0.,1.));
#908 = DIRECTION('',(1.,0.,0.));
#909 = CYLINDRICAL_SURFACE('',#910,1.8);
#910 = AXIS2_PLACEMENT_3D('',#911,#912,#913);
#911 = CARTESIAN_POINT('',(154.,85.,-1.));
#912 = DIRECTION('',(0.,0.,1.));
#913 = DIRECTION('',(1.,0.,0.));
#914 = ADVANCED_FACE('',(#915),#934,.F.);
#915 = FACE_BOUND('',#916,.F.);
#916 = EDGE_LOOP('',(#917,#925,#926,#927));
#917 = ORIENTED_EDGE('',*,*,#918,.T.);
#918 = EDGE_CURVE('',#919,#200,#921,.T.);
#919 = VERTEX_POINT('',#920);
#920 = CARTESIAN_POINT('',(11.8,160.,6.2));
#921 = LINE('',#922,#923);
#922 = CARTESIAN_POINT('',(11.8,160.,-1.));
#923 = VECTOR('',#924,1.);
#924 = DIRECTION('',(0.,0.,1.));
#925 = ORIENTED_EDGE('',*,*,#199,.F.);
#926 = ORIENTED_EDGE('',*,*,#918,.F.);
#927 = ORIENTED_EDGE('',*,*,#928,.T.);
#928 = EDGE_CURVE('',#919,#919,#929,.T.);
#929 = CIRCLE('',#930,1.8);
#930 = AXIS2_PLACEMENT_3D('',#931,#932,#933);
#931 = CARTESIAN_POINT('',(10.,160.,6.2));
#932 = DIRECTION('',(0.,0.,1.));
#933 = DIRECTION('',(1.,0.,0.));
#934 = CYLINDRICAL_SURFACE('',#935,1.8);
#935 = AXIS2_PLACEMENT_3D('',#936,#937,#938);
#936 = CARTESIAN_POINT('',(10.,160.,-1.));
#937 = DIRECTION('',(0.,0.,1.));
#938 = DIRECTION('',(1.,0.,0.));
#939 = ADVANCED_FACE('',(#940),#959,.F.);
#940 = FACE_BOUND('',#941,.F.);
#941 = EDGE_LOOP('',(#942,#950,#951,#952));
#942 = ORIENTED_EDGE('',*,*,#943,.T.);
#943 = EDGE_CURVE('',#944,#211,#946,.T.);
#944 = VERTEX_POINT('',#945);
#945 = CARTESIAN_POINT('',(83.8,160.,6.2));
#946 = LINE('',#947,#948);
#947 = CARTESIAN_POINT('',(83.8,160.,-1.));
#948 = VECTOR('',#949,1.);
#949 = DIRECTION('',(0.,0.,1.));
#950 = ORIENTED_EDGE('',*,*,#210,.F.);
#951 = ORIENTED_EDGE('',*,*,#943,.F.);
#952 = ORIENTED_EDGE('',*,*,#953,.T.);
#953 = EDGE_CURVE('',#944,#944,#954,.T.);
#954 = CIRCLE('',#955,1.8);
#955 = AXIS2_PLACEMENT_3D('',#956,#957,#958);
#956 = CARTESIAN_POINT('',(82.,160.,6.2));
#957 = DIRECTION('',(0.,0.,1.));
#958 = DIRECTION('',(1.,0.,0.));
#959 = CYLINDRICAL_SURFACE('',#960,1.8);
#960 = AXIS2_PLACEMENT_3D('',#961,#962,#963);
#961 = CARTESIAN_POINT('',(82.,160.,-1.));
#962 = DIRECTION('',(0.,0.,1.));
#963 = DIRECTION('',(1.,0.,0.));
#964 = ADVANCED_FACE('',(#965),#984,.F.);
#965 = FACE_BOUND('',#966,.F.);
#966 = EDGE_LOOP('',(#967,#975,#976,#977));
#967 = ORIENTED_EDGE('',*,*,#968,.T.);
#968 = EDGE_CURVE('',#969,#222,#971,.T.);
#969 = VERTEX_POINT('',#970);
#970 = CARTESIAN_POINT('',(155.8,160.,6.2));
#971 = LINE('',#972,#973);
#972 = CARTESIAN_POINT('',(155.8,160.,-1.));
#973 = VECTOR('',#974,1.);
#974 = DIRECTION('',(0.,0.,1.));
#975 = ORIENTED_EDGE('',*,*,#221,.F.);
#976 = ORIENTED_EDGE('',*,*,#968,.F.);
#977 = ORIENTED_EDGE('',*,*,#978,.T.);
#978 = EDGE_CURVE('',#969,#969,#979,.T.);
#979 = CIRCLE('',#980,1.8);
#980 = AXIS2_PLACEMENT_3D('',#981,#982,#983);
#981 = CARTESIAN_POINT('',(154.,160.,6.2));
#982 = DIRECTION('',(0.,0.,1.));
#983 = DIRECTION('',(1.,0.,0.));
#984 = CYLINDRICAL_SURFACE('',#985,1.8);
#985 = AXIS2_PLACEMENT_3D('',#986,#987,#988);
#986 = CARTESIAN_POINT('',(154.,160.,-1.));
#987 = DIRECTION('',(0.,0.,1.));
#988 = DIRECTION('',(1.,0.,0.));
#989 = ADVANCED_FACE('',(#990),#1015,.T.);
#990 = FACE_BOUND('',#991,.T.);
#991 = EDGE_LOOP('',(#992,#993,#1001,#1009));
#992 = ORIENTED_EDGE('',*,*,#273,.T.);
#993 = ORIENTED_EDGE('',*,*,#994,.T.);
#994 = EDGE_CURVE('',#276,#995,#997,.T.);
#995 = VERTEX_POINT('',#996);
#996 = CARTESIAN_POINT('',(10.,13.406366588219,6.2));
#997 = LINE('',#998,#999);
#998 = CARTESIAN_POINT('',(10.,13.406366588219,-0.1));
#999 = VECTOR('',#1000,1.);
#1000 = DIRECTION('',(0.,0.,1.));
#1001 = ORIENTED_EDGE('',*,*,#1002,.T.);
#1002 = EDGE_CURVE('',#995,#1003,#1005,.T.);
#1003 = VERTEX_POINT('',#1004);
#1004 = CARTESIAN_POINT('',(7.05,11.703183294109,6.2));
#1005 = LINE('',#1006,#1007);
#1006 = CARTESIAN_POINT('',(10.,13.406366588219,6.2));
#1007 = VECTOR('',#1008,1.);
#1008 = DIRECTION('',(-0.866025403784,-0.5,0.));
#1009 = ORIENTED_EDGE('',*,*,#1010,.F.);
#1010 = EDGE_CURVE('',#274,#1003,#1011,.T.);
#1011 = LINE('',#1012,#1013);
#1012 = CARTESIAN_POINT('',(7.05,11.703183294109,-0.1));
#1013 = VECTOR('',#1014,1.);
#1014 = DIRECTION('',(0.,0.,1.));
#1015 = PLANE('',#1016);
#1016 = AXIS2_PLACEMENT_3D('',#1017,#1018,#1019);
#1017 = CARTESIAN_POINT('',(10.,13.406366588219,-0.1));
#1018 = DIRECTION('',(0.5,-0.866025403784,0.));
#1019 = DIRECTION('',(-0.866025403784,-0.5,0.));
#1020 = ADVANCED_FACE('',(#1021),#1039,.T.);
#1021 = FACE_BOUND('',#1022,.T.);
#1022 = EDGE_LOOP('',(#1023,#1024,#1025,#1033));
#1023 = ORIENTED_EDGE('',*,*,#315,.T.);
#1024 = ORIENTED_EDGE('',*,*,#1010,.T.);
#1025 = ORIENTED_EDGE('',*,*,#1026,.T.);
#1026 = EDGE_CURVE('',#1003,#1027,#1029,.T.);
#1027 = VERTEX_POINT('',#1028);
#1028 = CARTESIAN_POINT('',(7.05,8.296816705891,6.2));
#1029 = LINE('',#1030,#1031);
#1030 = CARTESIAN_POINT('',(7.05,11.703183294109,6.2));
#1031 = VECTOR('',#1032,1.);
#1032 = DIRECTION('',(2.607407032384E-16,-1.,0.));
#1033 = ORIENTED_EDGE('',*,*,#1034,.F.);
#1034 = EDGE_CURVE('',#308,#1027,#1035,.T.);
#1035 = LINE('',#1036,#1037);
#1036 = CARTESIAN_POINT('',(7.05,8.296816705891,-0.1));
#1037 = VECTOR('',#1038,1.);
#1038 = DIRECTION('',(0.,0.,1.));
#1039 = PLANE('',#1040);
#1040 = AXIS2_PLACEMENT_3D('',#1041,#1042,#1043);
#1041 = CARTESIAN_POINT('',(7.05,11.703183294109,-0.1));
#1042 = DIRECTION('',(1.,2.607407032384E-16,0.));
#1043 = DIRECTION('',(2.607407032384E-16,-1.,0.));
#1044 = ADVANCED_FACE('',(#1045),#1063,.T.);
#1045 = FACE_BOUND('',#1046,.T.);
#1046 = EDGE_LOOP('',(#1047,#1048,#1056,#1062));
#1047 = ORIENTED_EDGE('',*,*,#283,.T.);
#1048 = ORIENTED_EDGE('',*,*,#1049,.T.);
#1049 = EDGE_CURVE('',#284,#1050,#1052,.T.);
#1050 = VERTEX_POINT('',#1051);
#1051 = CARTESIAN_POINT('',(12.95,11.703183294109,6.2));
#1052 = LINE('',#1053,#1054);
#1053 = CARTESIAN_POINT('',(12.95,11.703183294109,-0.1));
#1054 = VECTOR('',#1055,1.);
#1055 = DIRECTION('',(0.,0.,1.));
#1056 = ORIENTED_EDGE('',*,*,#1057,.T.);
#1057 = EDGE_CURVE('',#1050,#995,#1058,.T.);
#1058 = LINE('',#1059,#1060);
#1059 = CARTESIAN_POINT('',(12.95,11.703183294109,6.2));
#1060 = VECTOR('',#1061,1.);
#1061 = DIRECTION('',(-0.866025403784,0.5,0.));
#1062 = ORIENTED_EDGE('',*,*,#994,.F.);
#1063 = PLANE('',#1064);
#1064 = AXIS2_PLACEMENT_3D('',#1065,#1066,#1067);
#1065 = CARTESIAN_POINT('',(12.95,11.703183294109,-0.1));
#1066 = DIRECTION('',(-0.5,-0.866025403784,0.));
#1067 = DIRECTION('',(-0.866025403784,0.5,0.));
#1068 = ADVANCED_FACE('',(#1069),#1087,.T.);
#1069 = FACE_BOUND('',#1070,.T.);
#1070 = EDGE_LOOP('',(#1071,#1072,#1073,#1081));
#1071 = ORIENTED_EDGE('',*,*,#307,.T.);
#1072 = ORIENTED_EDGE('',*,*,#1034,.T.);
#1073 = ORIENTED_EDGE('',*,*,#1074,.T.);
#1074 = EDGE_CURVE('',#1027,#1075,#1077,.T.);
#1075 = VERTEX_POINT('',#1076);
#1076 = CARTESIAN_POINT('',(10.,6.593633411781,6.2));
#1077 = LINE('',#1078,#1079);
#1078 = CARTESIAN_POINT('',(7.05,8.296816705891,6.2));
#1079 = VECTOR('',#1080,1.);
#1080 = DIRECTION('',(0.866025403784,-0.5,0.));
#1081 = ORIENTED_EDGE('',*,*,#1082,.F.);
#1082 = EDGE_CURVE('',#300,#1075,#1083,.T.);
#1083 = LINE('',#1084,#1085);
#1084 = CARTESIAN_POINT('',(10.,6.593633411781,-0.1));
#1085 = VECTOR('',#1086,1.);
#1086 = DIRECTION('',(0.,0.,1.));
#1087 = PLANE('',#1088);
#1088 = AXIS2_PLACEMENT_3D('',#1089,#1090,#1091);
#1089 = CARTESIAN_POINT('',(7.05,8.296816705891,-0.1));
#1090 = DIRECTION('',(0.5,0.866025403784,0.));
#1091 = DIRECTION('',(0.866025403784,-0.5,0.));
#1092 = ADVANCED_FACE('',(#1093),#1111,.T.);
#1093 = FACE_BOUND('',#1094,.T.);
#1094 = EDGE_LOOP('',(#1095,#1096,#1104,#1110));
#1095 = ORIENTED_EDGE('',*,*,#291,.T.);
#1096 = ORIENTED_EDGE('',*,*,#1097,.T.);
#1097 = EDGE_CURVE('',#292,#1098,#1100,.T.);
#1098 = VERTEX_POINT('',#1099);
#1099 = CARTESIAN_POINT('',(12.95,8.296816705891,6.2));
#1100 = LINE('',#1101,#1102);
#1101 = CARTESIAN_POINT('',(12.95,8.296816705891,-0.1));
#1102 = VECTOR('',#1103,1.);
#1103 = DIRECTION('',(0.,0.,1.));
#1104 = ORIENTED_EDGE('',*,*,#1105,.T.);
#1105 = EDGE_CURVE('',#1098,#1050,#1106,.T.);
#1106 = LINE('',#1107,#1108);
#1107 = CARTESIAN_POINT('',(12.95,8.296816705891,6.2));
#1108 = VECTOR('',#1109,1.);
#1109 = DIRECTION('',(5.214814064769E-16,1.,0.));
#1110 = ORIENTED_EDGE('',*,*,#1049,.F.);
#1111 = PLANE('',#1112);
#1112 = AXIS2_PLACEMENT_3D('',#1113,#1114,#1115);
#1113 = CARTESIAN_POINT('',(12.95,8.296816705891,-0.1));
#1114 = DIRECTION('',(-1.,5.214814064769E-16,0.));
#1115 = DIRECTION('',(5.214814064769E-16,1.,0.));
#1116 = ADVANCED_FACE('',(#1117),#1128,.T.);
#1117 = FACE_BOUND('',#1118,.T.);
#1118 = EDGE_LOOP('',(#1119,#1120,#1121,#1127));
#1119 = ORIENTED_EDGE('',*,*,#299,.T.);
#1120 = ORIENTED_EDGE('',*,*,#1082,.T.);
#1121 = ORIENTED_EDGE('',*,*,#1122,.T.);
#1122 = EDGE_CURVE('',#1075,#1098,#1123,.T.);
#1123 = LINE('',#1124,#1125);
#1124 = CARTESIAN_POINT('',(10.,6.593633411781,6.2));
#1125 = VECTOR('',#1126,1.);
#1126 = DIRECTION('',(0.866025403784,0.5,0.));
#1127 = ORIENTED_EDGE('',*,*,#1097,.F.);
#1128 = PLANE('',#1129);
#1129 = AXIS2_PLACEMENT_3D('',#1130,#1131,#1132);
#1130 = CARTESIAN_POINT('',(10.,6.593633411781,-0.1));
#1131 = DIRECTION('',(-0.5,0.866025403784,0.));
#1132 = DIRECTION('',(0.866025403784,0.5,0.));
#1133 = ADVANCED_FACE('',(#1134),#1159,.T.);
#1134 = FACE_BOUND('',#1135,.T.);
#1135 = EDGE_LOOP('',(#1136,#1137,#1145,#1153));
#1136 = ORIENTED_EDGE('',*,*,#323,.T.);
#1137 = ORIENTED_EDGE('',*,*,#1138,.T.);
#1138 = EDGE_CURVE('',#326,#1139,#1141,.T.);
#1139 = VERTEX_POINT('',#1140);
#1140 = CARTESIAN_POINT('',(82.,13.406366588219,6.2));
#1141 = LINE('',#1142,#1143);
#1142 = CARTESIAN_POINT('',(82.,13.406366588219,-0.1));
#1143 = VECTOR('',#1144,1.);
#1144 = DIRECTION('',(0.,0.,1.));
#1145 = ORIENTED_EDGE('',*,*,#1146,.T.);
#1146 = EDGE_CURVE('',#1139,#1147,#1149,.T.);
#1147 = VERTEX_POINT('',#1148);
#1148 = CARTESIAN_POINT('',(79.05,11.703183294109,6.2));
#1149 = LINE('',#1150,#1151);
#1150 = CARTESIAN_POINT('',(82.,13.406366588219,6.2));
#1151 = VECTOR('',#1152,1.);
#1152 = DIRECTION('',(-0.866025403784,-0.5,0.));
#1153 = ORIENTED_EDGE('',*,*,#1154,.F.);
#1154 = EDGE_CURVE('',#324,#1147,#1155,.T.);
#1155 = LINE('',#1156,#1157);
#1156 = CARTESIAN_POINT('',(79.05,11.703183294109,-0.1));
#1157 = VECTOR('',#1158,1.);
#1158 = DIRECTION('',(0.,0.,1.));
#1159 = PLANE('',#1160);
#1160 = AXIS2_PLACEMENT_3D('',#1161,#1162,#1163);
#1161 = CARTESIAN_POINT('',(82.,13.406366588219,-0.1));
#1162 = DIRECTION('',(0.5,-0.866025403784,0.));
#1163 = DIRECTION('',(-0.866025403784,-0.5,0.));
#1164 = ADVANCED_FACE('',(#1165),#1183,.T.);
#1165 = FACE_BOUND('',#1166,.T.);
#1166 = EDGE_LOOP('',(#1167,#1168,#1169,#1177));
#1167 = ORIENTED_EDGE('',*,*,#365,.T.);
#1168 = ORIENTED_EDGE('',*,*,#1154,.T.);
#1169 = ORIENTED_EDGE('',*,*,#1170,.T.);
#1170 = EDGE_CURVE('',#1147,#1171,#1173,.T.);
#1171 = VERTEX_POINT('',#1172);
#1172 = CARTESIAN_POINT('',(79.05,8.296816705891,6.2));
#1173 = LINE('',#1174,#1175);
#1174 = CARTESIAN_POINT('',(79.05,11.703183294109,6.2));
#1175 = VECTOR('',#1176,1.);
#1176 = DIRECTION('',(0.,-1.,0.));
#1177 = ORIENTED_EDGE('',*,*,#1178,.F.);
#1178 = EDGE_CURVE('',#358,#1171,#1179,.T.);
#1179 = LINE('',#1180,#1181);
#1180 = CARTESIAN_POINT('',(79.05,8.296816705891,-0.1));
#1181 = VECTOR('',#1182,1.);
#1182 = DIRECTION('',(0.,0.,1.));
#1183 = PLANE('',#1184);
#1184 = AXIS2_PLACEMENT_3D('',#1185,#1186,#1187);
#1185 = CARTESIAN_POINT('',(79.05,11.703183294109,-0.1));
#1186 = DIRECTION('',(1.,0.,0.));
#1187 = DIRECTION('',(0.,-1.,0.));
#1188 = ADVANCED_FACE('',(#1189),#1207,.T.);
#1189 = FACE_BOUND('',#1190,.T.);
#1190 = EDGE_LOOP('',(#1191,#1192,#1200,#1206));
#1191 = ORIENTED_EDGE('',*,*,#333,.T.);
#1192 = ORIENTED_EDGE('',*,*,#1193,.T.);
#1193 = EDGE_CURVE('',#334,#1194,#1196,.T.);
#1194 = VERTEX_POINT('',#1195);
#1195 = CARTESIAN_POINT('',(84.95,11.703183294109,6.2));
#1196 = LINE('',#1197,#1198);
#1197 = CARTESIAN_POINT('',(84.95,11.703183294109,-0.1));
#1198 = VECTOR('',#1199,1.);
#1199 = DIRECTION('',(0.,0.,1.));
#1200 = ORIENTED_EDGE('',*,*,#1201,.T.);
#1201 = EDGE_CURVE('',#1194,#1139,#1202,.T.);
#1202 = LINE('',#1203,#1204);
#1203 = CARTESIAN_POINT('',(84.95,11.703183294109,6.2));
#1204 = VECTOR('',#1205,1.);
#1205 = DIRECTION('',(-0.866025403784,0.5,0.));
#1206 = ORIENTED_EDGE('',*,*,#1138,.F.);
#1207 = PLANE('',#1208);
#1208 = AXIS2_PLACEMENT_3D('',#1209,#1210,#1211);
#1209 = CARTESIAN_POINT('',(84.95,11.703183294109,-0.1));
#1210 = DIRECTION('',(-0.5,-0.866025403784,0.));
#1211 = DIRECTION('',(-0.866025403784,0.5,0.));
#1212 = ADVANCED_FACE('',(#1213),#1231,.T.);
#1213 = FACE_BOUND('',#1214,.T.);
#1214 = EDGE_LOOP('',(#1215,#1216,#1217,#1225));
#1215 = ORIENTED_EDGE('',*,*,#357,.T.);
#1216 = ORIENTED_EDGE('',*,*,#1178,.T.);
#1217 = ORIENTED_EDGE('',*,*,#1218,.T.);
#1218 = EDGE_CURVE('',#1171,#1219,#1221,.T.);
#1219 = VERTEX_POINT('',#1220);
#1220 = CARTESIAN_POINT('',(82.,6.593633411781,6.2));
#1221 = LINE('',#1222,#1223);
#1222 = CARTESIAN_POINT('',(79.05,8.296816705891,6.2));
#1223 = VECTOR('',#1224,1.);
#1224 = DIRECTION('',(0.866025403784,-0.5,0.));
#1225 = ORIENTED_EDGE('',*,*,#1226,.F.);
#1226 = EDGE_CURVE('',#350,#1219,#1227,.T.);
#1227 = LINE('',#1228,#1229);
#1228 = CARTESIAN_POINT('',(82.,6.593633411781,-0.1));
#1229 = VECTOR('',#1230,1.);
#1230 = DIRECTION('',(0.,0.,1.));
#1231 = PLANE('',#1232);
#1232 = AXIS2_PLACEMENT_3D('',#1233,#1234,#1235);
#1233 = CARTESIAN_POINT('',(79.05,8.296816705891,-0.1));
#1234 = DIRECTION('',(0.5,0.866025403784,0.));
#1235 = DIRECTION('',(0.866025403784,-0.5,0.));
#1236 = ADVANCED_FACE('',(#1237),#1255,.T.);
#1237 = FACE_BOUND('',#1238,.T.);
#1238 = EDGE_LOOP('',(#1239,#1240,#1248,#1254));
#1239 = ORIENTED_EDGE('',*,*,#341,.T.);
#1240 = ORIENTED_EDGE('',*,*,#1241,.T.);
#1241 = EDGE_CURVE('',#342,#1242,#1244,.T.);
#1242 = VERTEX_POINT('',#1243);
#1243 = CARTESIAN_POINT('',(84.95,8.296816705891,6.2));
#1244 = LINE('',#1245,#1246);
#1245 = CARTESIAN_POINT('',(84.95,8.296816705891,-0.1));
#1246 = VECTOR('',#1247,1.);
#1247 = DIRECTION('',(0.,0.,1.));
#1248 = ORIENTED_EDGE('',*,*,#1249,.T.);
#1249 = EDGE_CURVE('',#1242,#1194,#1250,.T.);
#1250 = LINE('',#1251,#1252);
#1251 = CARTESIAN_POINT('',(84.95,8.296816705891,6.2));
#1252 = VECTOR('',#1253,1.);
#1253 = DIRECTION('',(0.,1.,0.));
#1254 = ORIENTED_EDGE('',*,*,#1193,.F.);
#1255 = PLANE('',#1256);
#1256 = AXIS2_PLACEMENT_3D('',#1257,#1258,#1259);
#1257 = CARTESIAN_POINT('',(84.95,8.296816705891,-0.1));
#1258 = DIRECTION('',(-1.,0.,0.));
#1259 = DIRECTION('',(0.,1.,0.));
#1260 = ADVANCED_FACE('',(#1261),#1272,.T.);
#1261 = FACE_BOUND('',#1262,.T.);
#1262 = EDGE_LOOP('',(#1263,#1264,#1265,#1271));
#1263 = ORIENTED_EDGE('',*,*,#349,.T.);
#1264 = ORIENTED_EDGE('',*,*,#1226,.T.);
#1265 = ORIENTED_EDGE('',*,*,#1266,.T.);
#1266 = EDGE_CURVE('',#1219,#1242,#1267,.T.);
#1267 = LINE('',#1268,#1269);
#1268 = CARTESIAN_POINT('',(82.,6.593633411781,6.2));
#1269 = VECTOR('',#1270,1.);
#1270 = DIRECTION('',(0.866025403784,0.5,0.));
#1271 = ORIENTED_EDGE('',*,*,#1241,.F.);
#1272 = PLANE('',#1273);
#1273 = AXIS2_PLACEMENT_3D('',#1274,#1275,#1276);
#1274 = CARTESIAN_POINT('',(82.,6.593633411781,-0.1));
#1275 = DIRECTION('',(-0.5,0.866025403784,0.));
#1276 = DIRECTION('',(0.866025403784,0.5,0.));
#1277 = ADVANCED_FACE('',(#1278),#1303,.T.);
#1278 = FACE_BOUND('',#1279,.T.);
#1279 = EDGE_LOOP('',(#1280,#1281,#1289,#1297));
#1280 = ORIENTED_EDGE('',*,*,#373,.T.);
#1281 = ORIENTED_EDGE('',*,*,#1282,.T.);
#1282 = EDGE_CURVE('',#376,#1283,#1285,.T.);
#1283 = VERTEX_POINT('',#1284);
#1284 = CARTESIAN_POINT('',(154.,13.406366588219,6.2));
#1285 = LINE('',#1286,#1287);
#1286 = CARTESIAN_POINT('',(154.,13.406366588219,-0.1));
#1287 = VECTOR('',#1288,1.);
#1288 = DIRECTION('',(0.,0.,1.));
#1289 = ORIENTED_EDGE('',*,*,#1290,.T.);
#1290 = EDGE_CURVE('',#1283,#1291,#1293,.T.);
#1291 = VERTEX_POINT('',#1292);
#1292 = CARTESIAN_POINT('',(151.05,11.703183294109,6.2));
#1293 = LINE('',#1294,#1295);
#1294 = CARTESIAN_POINT('',(154.,13.406366588219,6.2));
#1295 = VECTOR('',#1296,1.);
#1296 = DIRECTION('',(-0.866025403784,-0.5,0.));
#1297 = ORIENTED_EDGE('',*,*,#1298,.F.);
#1298 = EDGE_CURVE('',#374,#1291,#1299,.T.);
#1299 = LINE('',#1300,#1301);
#1300 = CARTESIAN_POINT('',(151.05,11.703183294109,-0.1));
#1301 = VECTOR('',#1302,1.);
#1302 = DIRECTION('',(0.,0.,1.));
#1303 = PLANE('',#1304);
#1304 = AXIS2_PLACEMENT_3D('',#1305,#1306,#1307);
#1305 = CARTESIAN_POINT('',(154.,13.406366588219,-0.1));
#1306 = DIRECTION('',(0.5,-0.866025403784,0.));
#1307 = DIRECTION('',(-0.866025403784,-0.5,0.));
#1308 = ADVANCED_FACE('',(#1309),#1327,.T.);
#1309 = FACE_BOUND('',#1310,.T.);
#1310 = EDGE_LOOP('',(#1311,#1312,#1313,#1321));
#1311 = ORIENTED_EDGE('',*,*,#415,.T.);
#1312 = ORIENTED_EDGE('',*,*,#1298,.T.);
#1313 = ORIENTED_EDGE('',*,*,#1314,.T.);
#1314 = EDGE_CURVE('',#1291,#1315,#1317,.T.);
#1315 = VERTEX_POINT('',#1316);
#1316 = CARTESIAN_POINT('',(151.05,8.296816705891,6.2));
#1317 = LINE('',#1318,#1319);
#1318 = CARTESIAN_POINT('',(151.05,11.703183294109,6.2));
#1319 = VECTOR('',#1320,1.);
#1320 = DIRECTION('',(0.,-1.,0.));
#1321 = ORIENTED_EDGE('',*,*,#1322,.F.);
#1322 = EDGE_CURVE('',#408,#1315,#1323,.T.);
#1323 = LINE('',#1324,#1325);
#1324 = CARTESIAN_POINT('',(151.05,8.296816705891,-0.1));
#1325 = VECTOR('',#1326,1.);
#1326 = DIRECTION('',(0.,0.,1.));
#1327 = PLANE('',#1328);
#1328 = AXIS2_PLACEMENT_3D('',#1329,#1330,#1331);
#1329 = CARTESIAN_POINT('',(151.05,11.703183294109,-0.1));
#1330 = DIRECTION('',(1.,0.,0.));
#1331 = DIRECTION('',(0.,-1.,0.));
#1332 = ADVANCED_FACE('',(#1333),#1351,.T.);
#1333 = FACE_BOUND('',#1334,.T.);
#1334 = EDGE_LOOP('',(#1335,#1336,#1344,#1350));
#1335 = ORIENTED_EDGE('',*,*,#383,.T.);
#1336 = ORIENTED_EDGE('',*,*,#1337,.T.);
#1337 = EDGE_CURVE('',#384,#1338,#1340,.T.);
#1338 = VERTEX_POINT('',#1339);
#1339 = CARTESIAN_POINT('',(156.95,11.703183294109,6.2));
#1340 = LINE('',#1341,#1342);
#1341 = CARTESIAN_POINT('',(156.95,11.703183294109,-0.1));
#1342 = VECTOR('',#1343,1.);
#1343 = DIRECTION('',(0.,0.,1.));
#1344 = ORIENTED_EDGE('',*,*,#1345,.T.);
#1345 = EDGE_CURVE('',#1338,#1283,#1346,.T.);
#1346 = LINE('',#1347,#1348);
#1347 = CARTESIAN_POINT('',(156.95,11.703183294109,6.2));
#1348 = VECTOR('',#1349,1.);
#1349 = DIRECTION('',(-0.866025403784,0.5,0.));
#1350 = ORIENTED_EDGE('',*,*,#1282,.F.);
#1351 = PLANE('',#1352);
#1352 = AXIS2_PLACEMENT_3D('',#1353,#1354,#1355);
#1353 = CARTESIAN_POINT('',(156.95,11.703183294109,-0.1));
#1354 = DIRECTION('',(-0.5,-0.866025403784,0.));
#1355 = DIRECTION('',(-0.866025403784,0.5,0.));
#1356 = ADVANCED_FACE('',(#1357),#1375,.T.);
#1357 = FACE_BOUND('',#1358,.T.);
#1358 = EDGE_LOOP('',(#1359,#1360,#1361,#1369));
#1359 = ORIENTED_EDGE('',*,*,#407,.T.);
#1360 = ORIENTED_EDGE('',*,*,#1322,.T.);
#1361 = ORIENTED_EDGE('',*,*,#1362,.T.);
#1362 = EDGE_CURVE('',#1315,#1363,#1365,.T.);
#1363 = VERTEX_POINT('',#1364);
#1364 = CARTESIAN_POINT('',(154.,6.593633411781,6.2));
#1365 = LINE('',#1366,#1367);
#1366 = CARTESIAN_POINT('',(151.05,8.296816705891,6.2));
#1367 = VECTOR('',#1368,1.);
#1368 = DIRECTION('',(0.866025403784,-0.5,0.));
#1369 = ORIENTED_EDGE('',*,*,#1370,.F.);
#1370 = EDGE_CURVE('',#400,#1363,#1371,.T.);
#1371 = LINE('',#1372,#1373);
#1372 = CARTESIAN_POINT('',(154.,6.593633411781,-0.1));
#1373 = VECTOR('',#1374,1.);
#1374 = DIRECTION('',(0.,0.,1.));
#1375 = PLANE('',#1376);
#1376 = AXIS2_PLACEMENT_3D('',#1377,#1378,#1379);
#1377 = CARTESIAN_POINT('',(151.05,8.296816705891,-0.1));
#1378 = DIRECTION('',(0.5,0.866025403784,0.));
#1379 = DIRECTION('',(0.866025403784,-0.5,0.));
#1380 = ADVANCED_FACE('',(#1381),#1399,.T.);
#1381 = FACE_BOUND('',#1382,.T.);
#1382 = EDGE_LOOP('',(#1383,#1384,#1392,#1398));
#1383 = ORIENTED_EDGE('',*,*,#391,.T.);
#1384 = ORIENTED_EDGE('',*,*,#1385,.T.);
#1385 = EDGE_CURVE('',#392,#1386,#1388,.T.);
#1386 = VERTEX_POINT('',#1387);
#1387 = CARTESIAN_POINT('',(156.95,8.296816705891,6.2));
#1388 = LINE('',#1389,#1390);
#1389 = CARTESIAN_POINT('',(156.95,8.296816705891,-0.1));
#1390 = VECTOR('',#1391,1.);
#1391 = DIRECTION('',(0.,0.,1.));
#1392 = ORIENTED_EDGE('',*,*,#1393,.T.);
#1393 = EDGE_CURVE('',#1386,#1338,#1394,.T.);
#1394 = LINE('',#1395,#1396);
#1395 = CARTESIAN_POINT('',(156.95,8.296816705891,6.2));
#1396 = VECTOR('',#1397,1.);
#1397 = DIRECTION('',(0.,1.,0.));
#1398 = ORIENTED_EDGE('',*,*,#1337,.F.);
#1399 = PLANE('',#1400);
#1400 = AXIS2_PLACEMENT_3D('',#1401,#1402,#1403);
#1401 = CARTESIAN_POINT('',(156.95,8.296816705891,-0.1));
#1402 = DIRECTION('',(-1.,0.,0.));
#1403 = DIRECTION('',(0.,1.,0.));
#1404 = ADVANCED_FACE('',(#1405),#1416,.T.);
#1405 = FACE_BOUND('',#1406,.T.);
#1406 = EDGE_LOOP('',(#1407,#1408,#1409,#1415));
#1407 = ORIENTED_EDGE('',*,*,#399,.T.);
#1408 = ORIENTED_EDGE('',*,*,#1370,.T.);
#1409 = ORIENTED_EDGE('',*,*,#1410,.T.);
#1410 = EDGE_CURVE('',#1363,#1386,#1411,.T.);
#1411 = LINE('',#1412,#1413);
#1412 = CARTESIAN_POINT('',(154.,6.593633411781,6.2));
#1413 = VECTOR('',#1414,1.);
#1414 = DIRECTION('',(0.866025403784,0.5,0.));
#1415 = ORIENTED_EDGE('',*,*,#1385,.F.);
#1416 = PLANE('',#1417);
#1417 = AXIS2_PLACEMENT_3D('',#1418,#1419,#1420);
#1418 = CARTESIAN_POINT('',(154.,6.593633411781,-0.1));
#1419 = DIRECTION('',(-0.5,0.866025403784,0.));
#1420 = DIRECTION('',(0.866025403784,0.5,0.));
#1421 = ADVANCED_FACE('',(#1422),#1447,.T.);
#1422 = FACE_BOUND('',#1423,.T.);
#1423 = EDGE_LOOP('',(#1424,#1425,#1433,#1441));
#1424 = ORIENTED_EDGE('',*,*,#423,.T.);
#1425 = ORIENTED_EDGE('',*,*,#1426,.T.);
#1426 = EDGE_CURVE('',#426,#1427,#1429,.T.);
#1427 = VERTEX_POINT('',#1428);
#1428 = CARTESIAN_POINT('',(10.,88.406366588219,6.2));
#1429 = LINE('',#1430,#1431);
#1430 = CARTESIAN_POINT('',(10.,88.406366588219,-0.1));
#1431 = VECTOR('',#1432,1.);
#1432 = DIRECTION('',(0.,0.,1.));
#1433 = ORIENTED_EDGE('',*,*,#1434,.T.);
#1434 = EDGE_CURVE('',#1427,#1435,#1437,.T.);
#1435 = VERTEX_POINT('',#1436);
#1436 = CARTESIAN_POINT('',(7.05,86.703183294109,6.2));
#1437 = LINE('',#1438,#1439);
#1438 = CARTESIAN_POINT('',(10.,88.406366588219,6.2));
#1439 = VECTOR('',#1440,1.);
#1440 = DIRECTION('',(-0.866025403784,-0.5,0.));
#1441 = ORIENTED_EDGE('',*,*,#1442,.F.);
#1442 = EDGE_CURVE('',#424,#1435,#1443,.T.);
#1443 = LINE('',#1444,#1445);
#1444 = CARTESIAN_POINT('',(7.05,86.703183294109,-0.1));
#1445 = VECTOR('',#1446,1.);
#1446 = DIRECTION('',(0.,0.,1.));
#1447 = PLANE('',#1448);
#1448 = AXIS2_PLACEMENT_3D('',#1449,#1450,#1451);
#1449 = CARTESIAN_POINT('',(10.,88.406366588219,-0.1));
#1450 = DIRECTION('',(0.5,-0.866025403784,0.));
#1451 = DIRECTION('',(-0.866025403784,-0.5,0.));
#1452 = ADVANCED_FACE('',(#1453),#1471,.T.);
#1453 = FACE_BOUND('',#1454,.T.);
#1454 = EDGE_LOOP('',(#1455,#1456,#1457,#1465));
#1455 = ORIENTED_EDGE('',*,*,#465,.T.);
#1456 = ORIENTED_EDGE('',*,*,#1442,.T.);
#1457 = ORIENTED_EDGE('',*,*,#1458,.T.);
#1458 = EDGE_CURVE('',#1435,#1459,#1461,.T.);
#1459 = VERTEX_POINT('',#1460);
#1460 = CARTESIAN_POINT('',(7.05,83.296816705891,6.2));
#1461 = LINE('',#1462,#1463);
#1462 = CARTESIAN_POINT('',(7.05,86.703183294109,6.2));
#1463 = VECTOR('',#1464,1.);
#1464 = DIRECTION('',(2.607407032384E-16,-1.,0.));
#1465 = ORIENTED_EDGE('',*,*,#1466,.F.);
#1466 = EDGE_CURVE('',#458,#1459,#1467,.T.);
#1467 = LINE('',#1468,#1469);
#1468 = CARTESIAN_POINT('',(7.05,83.296816705891,-0.1));
#1469 = VECTOR('',#1470,1.);
#1470 = DIRECTION('',(0.,0.,1.));
#1471 = PLANE('',#1472);
#1472 = AXIS2_PLACEMENT_3D('',#1473,#1474,#1475);
#1473 = CARTESIAN_POINT('',(7.05,86.703183294109,-0.1));
#1474 = DIRECTION('',(1.,2.607407032384E-16,0.));
#1475 = DIRECTION('',(2.607407032384E-16,-1.,0.));
#1476 = ADVANCED_FACE('',(#1477),#1495,.T.);
#1477 = FACE_BOUND('',#1478,.T.);
#1478 = EDGE_LOOP('',(#1479,#1480,#1488,#1494));
#1479 = ORIENTED_EDGE('',*,*,#433,.T.);
#1480 = ORIENTED_EDGE('',*,*,#1481,.T.);
#1481 = EDGE_CURVE('',#434,#1482,#1484,.T.);
#1482 = VERTEX_POINT('',#1483);
#1483 = CARTESIAN_POINT('',(12.95,86.703183294109,6.2));
#1484 = LINE('',#1485,#1486);
#1485 = CARTESIAN_POINT('',(12.95,86.703183294109,-0.1));
#1486 = VECTOR('',#1487,1.);
#1487 = DIRECTION('',(0.,0.,1.));
#1488 = ORIENTED_EDGE('',*,*,#1489,.T.);
#1489 = EDGE_CURVE('',#1482,#1427,#1490,.T.);
#1490 = LINE('',#1491,#1492);
#1491 = CARTESIAN_POINT('',(12.95,86.703183294109,6.2));
#1492 = VECTOR('',#1493,1.);
#1493 = DIRECTION('',(-0.866025403784,0.5,0.));
#1494 = ORIENTED_EDGE('',*,*,#1426,.F.);
#1495 = PLANE('',#1496);
#1496 = AXIS2_PLACEMENT_3D('',#1497,#1498,#1499);
#1497 = CARTESIAN_POINT('',(12.95,86.703183294109,-0.1));
#1498 = DIRECTION('',(-0.5,-0.866025403784,0.));
#1499 = DIRECTION('',(-0.866025403784,0.5,0.));
#1500 = ADVANCED_FACE('',(#1501),#1519,.T.);
#1501 = FACE_BOUND('',#1502,.T.);
#1502 = EDGE_LOOP('',(#1503,#1504,#1505,#1513));
#1503 = ORIENTED_EDGE('',*,*,#457,.T.);
#1504 = ORIENTED_EDGE('',*,*,#1466,.T.);
#1505 = ORIENTED_EDGE('',*,*,#1506,.T.);
#1506 = EDGE_CURVE('',#1459,#1507,#1509,.T.);
#1507 = VERTEX_POINT('',#1508);
#1508 = CARTESIAN_POINT('',(10.,81.593633411781,6.2));
#1509 = LINE('',#1510,#1511);
#1510 = CARTESIAN_POINT('',(7.05,83.296816705891,6.2));
#1511 = VECTOR('',#1512,1.);
#1512 = DIRECTION('',(0.866025403784,-0.5,0.));
#1513 = ORIENTED_EDGE('',*,*,#1514,.F.);
#1514 = EDGE_CURVE('',#450,#1507,#1515,.T.);
#1515 = LINE('',#1516,#1517);
#1516 = CARTESIAN_POINT('',(10.,81.593633411781,-0.1));
#1517 = VECTOR('',#1518,1.);
#1518 = DIRECTION('',(0.,0.,1.));
#1519 = PLANE('',#1520);
#1520 = AXIS2_PLACEMENT_3D('',#1521,#1522,#1523);
#1521 = CARTESIAN_POINT('',(7.05,83.296816705891,-0.1));
#1522 = DIRECTION('',(0.5,0.866025403784,0.));
#1523 = DIRECTION('',(0.866025403784,-0.5,0.));
#1524 = ADVANCED_FACE('',(#1525),#1543,.T.);
#1525 = FACE_BOUND('',#1526,.T.);
#1526 = EDGE_LOOP('',(#1527,#1528,#1536,#1542));
#1527 = ORIENTED_EDGE('',*,*,#441,.T.);
#1528 = ORIENTED_EDGE('',*,*,#1529,.T.);
#1529 = EDGE_CURVE('',#442,#1530,#1532,.T.);
#1530 = VERTEX_POINT('',#1531);
#1531 = CARTESIAN_POINT('',(12.95,83.296816705891,6.2));
#1532 = LINE('',#1533,#1534);
#1533 = CARTESIAN_POINT('',(12.95,83.296816705891,-0.1));
#1534 = VECTOR('',#1535,1.);
#1535 = DIRECTION('',(0.,0.,1.));
#1536 = ORIENTED_EDGE('',*,*,#1537,.T.);
#1537 = EDGE_CURVE('',#1530,#1482,#1538,.T.);
#1538 = LINE('',#1539,#1540);
#1539 = CARTESIAN_POINT('',(12.95,83.296816705891,6.2));
#1540 = VECTOR('',#1541,1.);
#1541 = DIRECTION('',(5.214814064769E-16,1.,0.));
#1542 = ORIENTED_EDGE('',*,*,#1481,.F.);
#1543 = PLANE('',#1544);
#1544 = AXIS2_PLACEMENT_3D('',#1545,#1546,#1547);
#1545 = CARTESIAN_POINT('',(12.95,83.296816705891,-0.1));
#1546 = DIRECTION('',(-1.,5.214814064769E-16,0.));
#1547 = DIRECTION('',(5.214814064769E-16,1.,0.));
#1548 = ADVANCED_FACE('',(#1549),#1560,.T.);
#1549 = FACE_BOUND('',#1550,.T.);
#1550 = EDGE_LOOP('',(#1551,#1552,#1553,#1559));
#1551 = ORIENTED_EDGE('',*,*,#449,.T.);
#1552 = ORIENTED_EDGE('',*,*,#1514,.T.);
#1553 = ORIENTED_EDGE('',*,*,#1554,.T.);
#1554 = EDGE_CURVE('',#1507,#1530,#1555,.T.);
#1555 = LINE('',#1556,#1557);
#1556 = CARTESIAN_POINT('',(10.,81.593633411781,6.2));
#1557 = VECTOR('',#1558,1.);
#1558 = DIRECTION('',(0.866025403784,0.5,0.));
#1559 = ORIENTED_EDGE('',*,*,#1529,.F.);
#1560 = PLANE('',#1561);
#1561 = AXIS2_PLACEMENT_3D('',#1562,#1563,#1564);
#1562 = CARTESIAN_POINT('',(10.,81.593633411781,-0.1));
#1563 = DIRECTION('',(-0.5,0.866025403784,0.));
#1564 = DIRECTION('',(0.866025403784,0.5,0.));
#1565 = ADVANCED_FACE('',(#1566),#1591,.T.);
#1566 = FACE_BOUND('',#1567,.T.);
#1567 = EDGE_LOOP('',(#1568,#1569,#1577,#1585));
#1568 = ORIENTED_EDGE('',*,*,#473,.T.);
#1569 = ORIENTED_EDGE('',*,*,#1570,.T.);
#1570 = EDGE_CURVE('',#476,#1571,#1573,.T.);
#1571 = VERTEX_POINT('',#1572);
#1572 = CARTESIAN_POINT('',(10.,163.40636658821,6.2));
#1573 = LINE('',#1574,#1575);
#1574 = CARTESIAN_POINT('',(10.,163.40636658821,-0.1));
#1575 = VECTOR('',#1576,1.);
#1576 = DIRECTION('',(0.,0.,1.));
#1577 = ORIENTED_EDGE('',*,*,#1578,.T.);
#1578 = EDGE_CURVE('',#1571,#1579,#1581,.T.);
#1579 = VERTEX_POINT('',#1580);
#1580 = CARTESIAN_POINT('',(7.05,161.7031832941,6.2));
#1581 = LINE('',#1582,#1583);
#1582 = CARTESIAN_POINT('',(10.,163.40636658821,6.2));
#1583 = VECTOR('',#1584,1.);
#1584 = DIRECTION('',(-0.866025403784,-0.5,0.));
#1585 = ORIENTED_EDGE('',*,*,#1586,.F.);
#1586 = EDGE_CURVE('',#474,#1579,#1587,.T.);
#1587 = LINE('',#1588,#1589);
#1588 = CARTESIAN_POINT('',(7.05,161.7031832941,-0.1));
#1589 = VECTOR('',#1590,1.);
#1590 = DIRECTION('',(0.,0.,1.));
#1591 = PLANE('',#1592);
#1592 = AXIS2_PLACEMENT_3D('',#1593,#1594,#1595);
#1593 = CARTESIAN_POINT('',(10.,163.40636658821,-0.1));
#1594 = DIRECTION('',(0.5,-0.866025403784,0.));
#1595 = DIRECTION('',(-0.866025403784,-0.5,0.));
#1596 = ADVANCED_FACE('',(#1597),#1615,.T.);
#1597 = FACE_BOUND('',#1598,.T.);
#1598 = EDGE_LOOP('',(#1599,#1600,#1601,#1609));
#1599 = ORIENTED_EDGE('',*,*,#515,.T.);
#1600 = ORIENTED_EDGE('',*,*,#1586,.T.);
#1601 = ORIENTED_EDGE('',*,*,#1602,.T.);
#1602 = EDGE_CURVE('',#1579,#1603,#1605,.T.);
#1603 = VERTEX_POINT('',#1604);
#1604 = CARTESIAN_POINT('',(7.05,158.29681670589,6.2));
#1605 = LINE('',#1606,#1607);
#1606 = CARTESIAN_POINT('',(7.05,161.7031832941,6.2));
#1607 = VECTOR('',#1608,1.);
#1608 = DIRECTION('',(2.607407032384E-16,-1.,0.));
#1609 = ORIENTED_EDGE('',*,*,#1610,.F.);
#1610 = EDGE_CURVE('',#508,#1603,#1611,.T.);
#1611 = LINE('',#1612,#1613);
#1612 = CARTESIAN_POINT('',(7.05,158.29681670589,-0.1));
#1613 = VECTOR('',#1614,1.);
#1614 = DIRECTION('',(0.,0.,1.));
#1615 = PLANE('',#1616);
#1616 = AXIS2_PLACEMENT_3D('',#1617,#1618,#1619);
#1617 = CARTESIAN_POINT('',(7.05,161.7031832941,-0.1));
#1618 = DIRECTION('',(1.,2.607407032384E-16,0.));
#1619 = DIRECTION('',(2.607407032384E-16,-1.,0.));
#1620 = ADVANCED_FACE('',(#1621),#1639,.T.);
#1621 = FACE_BOUND('',#1622,.T.);
#1622 = EDGE_LOOP('',(#1623,#1624,#1632,#1638));
#1623 = ORIENTED_EDGE('',*,*,#483,.T.);
#1624 = ORIENTED_EDGE('',*,*,#1625,.T.);
#1625 = EDGE_CURVE('',#484,#1626,#1628,.T.);
#1626 = VERTEX_POINT('',#1627);
#1627 = CARTESIAN_POINT('',(12.95,161.7031832941,6.2));
#1628 = LINE('',#1629,#1630);
#1629 = CARTESIAN_POINT('',(12.95,161.7031832941,-0.1));
#1630 = VECTOR('',#1631,1.);
#1631 = DIRECTION('',(0.,0.,1.));
#1632 = ORIENTED_EDGE('',*,*,#1633,.T.);
#1633 = EDGE_CURVE('',#1626,#1571,#1634,.T.);
#1634 = LINE('',#1635,#1636);
#1635 = CARTESIAN_POINT('',(12.95,161.7031832941,6.2));
#1636 = VECTOR('',#1637,1.);
#1637 = DIRECTION('',(-0.866025403784,0.5,0.));
#1638 = ORIENTED_EDGE('',*,*,#1570,.F.);
#1639 = PLANE('',#1640);
#1640 = AXIS2_PLACEMENT_3D('',#1641,#1642,#1643);
#1641 = CARTESIAN_POINT('',(12.95,161.7031832941,-0.1));
#1642 = DIRECTION('',(-0.5,-0.866025403784,0.));
#1643 = DIRECTION('',(-0.866025403784,0.5,0.));
#1644 = ADVANCED_FACE('',(#1645),#1663,.T.);
#1645 = FACE_BOUND('',#1646,.T.);
#1646 = EDGE_LOOP('',(#1647,#1648,#1649,#1657));
#1647 = ORIENTED_EDGE('',*,*,#507,.T.);
#1648 = ORIENTED_EDGE('',*,*,#1610,.T.);
#1649 = ORIENTED_EDGE('',*,*,#1650,.T.);
#1650 = EDGE_CURVE('',#1603,#1651,#1653,.T.);
#1651 = VERTEX_POINT('',#1652);
#1652 = CARTESIAN_POINT('',(10.,156.59363341178,6.2));
#1653 = LINE('',#1654,#1655);
#1654 = CARTESIAN_POINT('',(7.05,158.29681670589,6.2));
#1655 = VECTOR('',#1656,1.);
#1656 = DIRECTION('',(0.866025403784,-0.5,0.));
#1657 = ORIENTED_EDGE('',*,*,#1658,.F.);
#1658 = EDGE_CURVE('',#500,#1651,#1659,.T.);
#1659 = LINE('',#1660,#1661);
#1660 = CARTESIAN_POINT('',(10.,156.59363341178,-0.1));
#1661 = VECTOR('',#1662,1.);
#1662 = DIRECTION('',(0.,0.,1.));
#1663 = PLANE('',#1664);
#1664 = AXIS2_PLACEMENT_3D('',#1665,#1666,#1667);
#1665 = CARTESIAN_POINT('',(7.05,158.29681670589,-0.1));
#1666 = DIRECTION('',(0.5,0.866025403784,0.));
#1667 = DIRECTION('',(0.866025403784,-0.5,0.));
#1668 = ADVANCED_FACE('',(#1669),#1687,.T.);
#1669 = FACE_BOUND('',#1670,.T.);
#1670 = EDGE_LOOP('',(#1671,#1672,#1680,#1686));
#1671 = ORIENTED_EDGE('',*,*,#491,.T.);
#1672 = ORIENTED_EDGE('',*,*,#1673,.T.);
#1673 = EDGE_CURVE('',#492,#1674,#1676,.T.);
#1674 = VERTEX_POINT('',#1675);
#1675 = CARTESIAN_POINT('',(12.95,158.29681670589,6.2));
#1676 = LINE('',#1677,#1678);
#1677 = CARTESIAN_POINT('',(12.95,158.29681670589,-0.1));
#1678 = VECTOR('',#1679,1.);
#1679 = DIRECTION('',(0.,0.,1.));
#1680 = ORIENTED_EDGE('',*,*,#1681,.T.);
#1681 = EDGE_CURVE('',#1674,#1626,#1682,.T.);
#1682 = LINE('',#1683,#1684);
#1683 = CARTESIAN_POINT('',(12.95,158.29681670589,6.2));
#1684 = VECTOR('',#1685,1.);
#1685 = DIRECTION('',(5.214814064769E-16,1.,0.));
#1686 = ORIENTED_EDGE('',*,*,#1625,.F.);
#1687 = PLANE('',#1688);
#1688 = AXIS2_PLACEMENT_3D('',#1689,#1690,#1691);
#1689 = CARTESIAN_POINT('',(12.95,158.29681670589,-0.1));
#1690 = DIRECTION('',(-1.,5.214814064769E-16,0.));
#1691 = DIRECTION('',(5.214814064769E-16,1.,0.));
#1692 = ADVANCED_FACE('',(#1693),#1704,.T.);
#1693 = FACE_BOUND('',#1694,.T.);
#1694 = EDGE_LOOP('',(#1695,#1696,#1697,#1703));
#1695 = ORIENTED_EDGE('',*,*,#499,.T.);
#1696 = ORIENTED_EDGE('',*,*,#1658,.T.);
#1697 = ORIENTED_EDGE('',*,*,#1698,.T.);
#1698 = EDGE_CURVE('',#1651,#1674,#1699,.T.);
#1699 = LINE('',#1700,#1701);
#1700 = CARTESIAN_POINT('',(10.,156.59363341178,6.2));
#1701 = VECTOR('',#1702,1.);
#1702 = DIRECTION('',(0.866025403784,0.5,0.));
#1703 = ORIENTED_EDGE('',*,*,#1673,.F.);
#1704 = PLANE('',#1705);
#1705 = AXIS2_PLACEMENT_3D('',#1706,#1707,#1708);
#1706 = CARTESIAN_POINT('',(10.,156.59363341178,-0.1));
#1707 = DIRECTION('',(-0.5,0.866025403784,0.));
#1708 = DIRECTION('',(0.866025403784,0.5,0.));
#1709 = ADVANCED_FACE('',(#1710),#1735,.T.);
#1710 = FACE_BOUND('',#1711,.T.);
#1711 = EDGE_LOOP('',(#1712,#1713,#1721,#1729));
#1712 = ORIENTED_EDGE('',*,*,#557,.T.);
#1713 = ORIENTED_EDGE('',*,*,#1714,.T.);
#1714 = EDGE_CURVE('',#560,#1715,#1717,.T.);
#1715 = VERTEX_POINT('',#1716);
#1716 = CARTESIAN_POINT('',(154.,88.406366588219,6.2));
#1717 = LINE('',#1718,#1719);
#1718 = CARTESIAN_POINT('',(154.,88.406366588219,-0.1));
#1719 = VECTOR('',#1720,1.);
#1720 = DIRECTION('',(0.,0.,1.));
#1721 = ORIENTED_EDGE('',*,*,#1722,.T.);
#1722 = EDGE_CURVE('',#1715,#1723,#1725,.T.);
#1723 = VERTEX_POINT('',#1724);
#1724 = CARTESIAN_POINT('',(151.05,86.703183294109,6.2));
#1725 = LINE('',#1726,#1727);
#1726 = CARTESIAN_POINT('',(154.,88.406366588219,6.2));
#1727 = VECTOR('',#1728,1.);
#1728 = DIRECTION('',(-0.866025403784,-0.5,0.));
#1729 = ORIENTED_EDGE('',*,*,#1730,.F.);
#1730 = EDGE_CURVE('',#558,#1723,#1731,.T.);
#1731 = LINE('',#1732,#1733);
#1732 = CARTESIAN_POINT('',(151.05,86.703183294109,-0.1));
#1733 = VECTOR('',#1734,1.);
#1734 = DIRECTION('',(0.,0.,1.));
#1735 = PLANE('',#1736);
#1736 = AXIS2_PLACEMENT_3D('',#1737,#1738,#1739);
#1737 = CARTESIAN_POINT('',(154.,88.406366588219,-0.1));
#1738 = DIRECTION('',(0.5,-0.866025403784,0.));
#1739 = DIRECTION('',(-0.866025403784,-0.5,0.));
#1740 = ADVANCED_FACE('',(#1741),#1759,.T.);
#1741 = FACE_BOUND('',#1742,.T.);
#1742 = EDGE_LOOP('',(#1743,#1744,#1745,#1753));
#1743 = ORIENTED_EDGE('',*,*,#599,.T.);
#1744 = ORIENTED_EDGE('',*,*,#1730,.T.);
#1745 = ORIENTED_EDGE('',*,*,#1746,.T.);
#1746 = EDGE_CURVE('',#1723,#1747,#1749,.T.);
#1747 = VERTEX_POINT('',#1748);
#1748 = CARTESIAN_POINT('',(151.05,83.296816705891,6.2));
#1749 = LINE('',#1750,#1751);
#1750 = CARTESIAN_POINT('',(151.05,86.703183294109,6.2));
#1751 = VECTOR('',#1752,1.);
#1752 = DIRECTION('',(0.,-1.,0.));
#1753 = ORIENTED_EDGE('',*,*,#1754,.F.);
#1754 = EDGE_CURVE('',#592,#1747,#1755,.T.);
#1755 = LINE('',#1756,#1757);
#1756 = CARTESIAN_POINT('',(151.05,83.296816705891,-0.1));
#1757 = VECTOR('',#1758,1.);
#1758 = DIRECTION('',(0.,0.,1.));
#1759 = PLANE('',#1760);
#1760 = AXIS2_PLACEMENT_3D('',#1761,#1762,#1763);
#1761 = CARTESIAN_POINT('',(151.05,86.703183294109,-0.1));
#1762 = DIRECTION('',(1.,0.,0.));
#1763 = DIRECTION('',(0.,-1.,0.));
#1764 = ADVANCED_FACE('',(#1765),#1783,.T.);
#1765 = FACE_BOUND('',#1766,.T.);
#1766 = EDGE_LOOP('',(#1767,#1768,#1776,#1782));
#1767 = ORIENTED_EDGE('',*,*,#567,.T.);
#1768 = ORIENTED_EDGE('',*,*,#1769,.T.);
#1769 = EDGE_CURVE('',#568,#1770,#1772,.T.);
#1770 = VERTEX_POINT('',#1771);
#1771 = CARTESIAN_POINT('',(156.95,86.703183294109,6.2));
#1772 = LINE('',#1773,#1774);
#1773 = CARTESIAN_POINT('',(156.95,86.703183294109,-0.1));
#1774 = VECTOR('',#1775,1.);
#1775 = DIRECTION('',(0.,0.,1.));
#1776 = ORIENTED_EDGE('',*,*,#1777,.T.);
#1777 = EDGE_CURVE('',#1770,#1715,#1778,.T.);
#1778 = LINE('',#1779,#1780);
#1779 = CARTESIAN_POINT('',(156.95,86.703183294109,6.2));
#1780 = VECTOR('',#1781,1.);
#1781 = DIRECTION('',(-0.866025403784,0.5,0.));
#1782 = ORIENTED_EDGE('',*,*,#1714,.F.);
#1783 = PLANE('',#1784);
#1784 = AXIS2_PLACEMENT_3D('',#1785,#1786,#1787);
#1785 = CARTESIAN_POINT('',(156.95,86.703183294109,-0.1));
#1786 = DIRECTION('',(-0.5,-0.866025403784,0.));
#1787 = DIRECTION('',(-0.866025403784,0.5,0.));
#1788 = ADVANCED_FACE('',(#1789),#1807,.T.);
#1789 = FACE_BOUND('',#1790,.T.);
#1790 = EDGE_LOOP('',(#1791,#1792,#1793,#1801));
#1791 = ORIENTED_EDGE('',*,*,#591,.T.);
#1792 = ORIENTED_EDGE('',*,*,#1754,.T.);
#1793 = ORIENTED_EDGE('',*,*,#1794,.T.);
#1794 = EDGE_CURVE('',#1747,#1795,#1797,.T.);
#1795 = VERTEX_POINT('',#1796);
#1796 = CARTESIAN_POINT('',(154.,81.593633411781,6.2));
#1797 = LINE('',#1798,#1799);
#1798 = CARTESIAN_POINT('',(151.05,83.296816705891,6.2));
#1799 = VECTOR('',#1800,1.);
#1800 = DIRECTION('',(0.866025403784,-0.5,0.));
#1801 = ORIENTED_EDGE('',*,*,#1802,.F.);
#1802 = EDGE_CURVE('',#584,#1795,#1803,.T.);
#1803 = LINE('',#1804,#1805);
#1804 = CARTESIAN_POINT('',(154.,81.593633411781,-0.1));
#1805 = VECTOR('',#1806,1.);
#1806 = DIRECTION('',(0.,0.,1.));
#1807 = PLANE('',#1808);
#1808 = AXIS2_PLACEMENT_3D('',#1809,#1810,#1811);
#1809 = CARTESIAN_POINT('',(151.05,83.296816705891,-0.1));
#1810 = DIRECTION('',(0.5,0.866025403784,0.));
#1811 = DIRECTION('',(0.866025403784,-0.5,0.));
#1812 = ADVANCED_FACE('',(#1813),#1831,.T.);
#1813 = FACE_BOUND('',#1814,.T.);
#1814 = EDGE_LOOP('',(#1815,#1816,#1824,#1830));
#1815 = ORIENTED_EDGE('',*,*,#575,.T.);
#1816 = ORIENTED_EDGE('',*,*,#1817,.T.);
#1817 = EDGE_CURVE('',#576,#1818,#1820,.T.);
#1818 = VERTEX_POINT('',#1819);
#1819 = CARTESIAN_POINT('',(156.95,83.296816705891,6.2));
#1820 = LINE('',#1821,#1822);
#1821 = CARTESIAN_POINT('',(156.95,83.296816705891,-0.1));
#1822 = VECTOR('',#1823,1.);
#1823 = DIRECTION('',(0.,0.,1.));
#1824 = ORIENTED_EDGE('',*,*,#1825,.T.);
#1825 = EDGE_CURVE('',#1818,#1770,#1826,.T.);
#1826 = LINE('',#1827,#1828);
#1827 = CARTESIAN_POINT('',(156.95,83.296816705891,6.2));
#1828 = VECTOR('',#1829,1.);
#1829 = DIRECTION('',(0.,1.,0.));
#1830 = ORIENTED_EDGE('',*,*,#1769,.F.);
#1831 = PLANE('',#1832);
#1832 = AXIS2_PLACEMENT_3D('',#1833,#1834,#1835);
#1833 = CARTESIAN_POINT('',(156.95,83.296816705891,-0.1));
#1834 = DIRECTION('',(-1.,0.,0.));
#1835 = DIRECTION('',(0.,1.,0.));
#1836 = ADVANCED_FACE('',(#1837),#1848,.T.);
#1837 = FACE_BOUND('',#1838,.T.);
#1838 = EDGE_LOOP('',(#1839,#1840,#1841,#1847));
#1839 = ORIENTED_EDGE('',*,*,#583,.T.);
#1840 = ORIENTED_EDGE('',*,*,#1802,.T.);
#1841 = ORIENTED_EDGE('',*,*,#1842,.T.);
#1842 = EDGE_CURVE('',#1795,#1818,#1843,.T.);
#1843 = LINE('',#1844,#1845);
#1844 = CARTESIAN_POINT('',(154.,81.593633411781,6.2));
#1845 = VECTOR('',#1846,1.);
#1846 = DIRECTION('',(0.866025403784,0.5,0.));
#1847 = ORIENTED_EDGE('',*,*,#1817,.F.);
#1848 = PLANE('',#1849);
#1849 = AXIS2_PLACEMENT_3D('',#1850,#1851,#1852);
#1850 = CARTESIAN_POINT('',(154.,81.593633411781,-0.1));
#1851 = DIRECTION('',(-0.5,0.866025403784,0.));
#1852 = DIRECTION('',(0.866025403784,0.5,0.));
#1853 = ADVANCED_FACE('',(#1854),#1879,.T.);
#1854 = FACE_BOUND('',#1855,.T.);
#1855 = EDGE_LOOP('',(#1856,#1857,#1865,#1873));
#1856 = ORIENTED_EDGE('',*,*,#607,.T.);
#1857 = ORIENTED_EDGE('',*,*,#1858,.T.);
#1858 = EDGE_CURVE('',#610,#1859,#1861,.T.);
#1859 = VERTEX_POINT('',#1860);
#1860 = CARTESIAN_POINT('',(82.,163.40636658821,6.2));
#1861 = LINE('',#1862,#1863);
#1862 = CARTESIAN_POINT('',(82.,163.40636658821,-0.1));
#1863 = VECTOR('',#1864,1.);
#1864 = DIRECTION('',(0.,0.,1.));
#1865 = ORIENTED_EDGE('',*,*,#1866,.T.);
#1866 = EDGE_CURVE('',#1859,#1867,#1869,.T.);
#1867 = VERTEX_POINT('',#1868);
#1868 = CARTESIAN_POINT('',(79.05,161.7031832941,6.2));
#1869 = LINE('',#1870,#1871);
#1870 = CARTESIAN_POINT('',(82.,163.40636658821,6.2));
#1871 = VECTOR('',#1872,1.);
#1872 = DIRECTION('',(-0.866025403784,-0.5,0.));
#1873 = ORIENTED_EDGE('',*,*,#1874,.F.);
#1874 = EDGE_CURVE('',#608,#1867,#1875,.T.);
#1875 = LINE('',#1876,#1877);
#1876 = CARTESIAN_POINT('',(79.05,161.7031832941,-0.1));
#1877 = VECTOR('',#1878,1.);
#1878 = DIRECTION('',(0.,0.,1.));
#1879 = PLANE('',#1880);
#1880 = AXIS2_PLACEMENT_3D('',#1881,#1882,#1883);
#1881 = CARTESIAN_POINT('',(82.,163.40636658821,-0.1));
#1882 = DIRECTION('',(0.5,-0.866025403784,0.));
#1883 = DIRECTION('',(-0.866025403784,-0.5,0.));
#1884 = ADVANCED_FACE('',(#1885),#1903,.T.);
#1885 = FACE_BOUND('',#1886,.T.);
#1886 = EDGE_LOOP('',(#1887,#1888,#1889,#1897));
#1887 = ORIENTED_EDGE('',*,*,#649,.T.);
#1888 = ORIENTED_EDGE('',*,*,#1874,.T.);
#1889 = ORIENTED_EDGE('',*,*,#1890,.T.);
#1890 = EDGE_CURVE('',#1867,#1891,#1893,.T.);
#1891 = VERTEX_POINT('',#1892);
#1892 = CARTESIAN_POINT('',(79.05,158.29681670589,6.2));
#1893 = LINE('',#1894,#1895);
#1894 = CARTESIAN_POINT('',(79.05,161.7031832941,6.2));
#1895 = VECTOR('',#1896,1.);
#1896 = DIRECTION('',(0.,-1.,0.));
#1897 = ORIENTED_EDGE('',*,*,#1898,.F.);
#1898 = EDGE_CURVE('',#642,#1891,#1899,.T.);
#1899 = LINE('',#1900,#1901);
#1900 = CARTESIAN_POINT('',(79.05,158.29681670589,-0.1));
#1901 = VECTOR('',#1902,1.);
#1902 = DIRECTION('',(0.,0.,1.));
#1903 = PLANE('',#1904);
#1904 = AXIS2_PLACEMENT_3D('',#1905,#1906,#1907);
#1905 = CARTESIAN_POINT('',(79.05,161.7031832941,-0.1));
#1906 = DIRECTION('',(1.,0.,0.));
#1907 = DIRECTION('',(0.,-1.,0.));
#1908 = ADVANCED_FACE('',(#1909),#1927,.T.);
#1909 = FACE_BOUND('',#1910,.T.);
#1910 = EDGE_LOOP('',(#1911,#1912,#1920,#1926));
#1911 = ORIENTED_EDGE('',*,*,#617,.T.);
#1912 = ORIENTED_EDGE('',*,*,#1913,.T.);
#1913 = EDGE_CURVE('',#618,#1914,#1916,.T.);
#1914 = VERTEX_POINT('',#1915);
#1915 = CARTESIAN_POINT('',(84.95,161.7031832941,6.2));
#1916 = LINE('',#1917,#1918);
#1917 = CARTESIAN_POINT('',(84.95,161.7031832941,-0.1));
#1918 = VECTOR('',#1919,1.);
#1919 = DIRECTION('',(0.,0.,1.));
#1920 = ORIENTED_EDGE('',*,*,#1921,.T.);
#1921 = EDGE_CURVE('',#1914,#1859,#1922,.T.);
#1922 = LINE('',#1923,#1924);
#1923 = CARTESIAN_POINT('',(84.95,161.7031832941,6.2));
#1924 = VECTOR('',#1925,1.);
#1925 = DIRECTION('',(-0.866025403784,0.5,0.));
#1926 = ORIENTED_EDGE('',*,*,#1858,.F.);
#1927 = PLANE('',#1928);
#1928 = AXIS2_PLACEMENT_3D('',#1929,#1930,#1931);
#1929 = CARTESIAN_POINT('',(84.95,161.7031832941,-0.1));
#1930 = DIRECTION('',(-0.5,-0.866025403784,0.));
#1931 = DIRECTION('',(-0.866025403784,0.5,0.));
#1932 = ADVANCED_FACE('',(#1933),#1951,.T.);
#1933 = FACE_BOUND('',#1934,.T.);
#1934 = EDGE_LOOP('',(#1935,#1936,#1937,#1945));
#1935 = ORIENTED_EDGE('',*,*,#641,.T.);
#1936 = ORIENTED_EDGE('',*,*,#1898,.T.);
#1937 = ORIENTED_EDGE('',*,*,#1938,.T.);
#1938 = EDGE_CURVE('',#1891,#1939,#1941,.T.);
#1939 = VERTEX_POINT('',#1940);
#1940 = CARTESIAN_POINT('',(82.,156.59363341178,6.2));
#1941 = LINE('',#1942,#1943);
#1942 = CARTESIAN_POINT('',(79.05,158.29681670589,6.2));
#1943 = VECTOR('',#1944,1.);
#1944 = DIRECTION('',(0.866025403784,-0.5,0.));
#1945 = ORIENTED_EDGE('',*,*,#1946,.F.);
#1946 = EDGE_CURVE('',#634,#1939,#1947,.T.);
#1947 = LINE('',#1948,#1949);
#1948 = CARTESIAN_POINT('',(82.,156.59363341178,-0.1));
#1949 = VECTOR('',#1950,1.);
#1950 = DIRECTION('',(0.,0.,1.));
#1951 = PLANE('',#1952);
#1952 = AXIS2_PLACEMENT_3D('',#1953,#1954,#1955);
#1953 = CARTESIAN_POINT('',(79.05,158.29681670589,-0.1));
#1954 = DIRECTION('',(0.5,0.866025403784,0.));
#1955 = DIRECTION('',(0.866025403784,-0.5,0.));
#1956 = ADVANCED_FACE('',(#1957),#1975,.T.);
#1957 = FACE_BOUND('',#1958,.T.);
#1958 = EDGE_LOOP('',(#1959,#1960,#1968,#1974));
#1959 = ORIENTED_EDGE('',*,*,#625,.T.);
#1960 = ORIENTED_EDGE('',*,*,#1961,.T.);
#1961 = EDGE_CURVE('',#626,#1962,#1964,.T.);
#1962 = VERTEX_POINT('',#1963);
#1963 = CARTESIAN_POINT('',(84.95,158.29681670589,6.2));
#1964 = LINE('',#1965,#1966);
#1965 = CARTESIAN_POINT('',(84.95,158.29681670589,-0.1));
#1966 = VECTOR('',#1967,1.);
#1967 = DIRECTION('',(0.,0.,1.));
#1968 = ORIENTED_EDGE('',*,*,#1969,.T.);
#1969 = EDGE_CURVE('',#1962,#1914,#1970,.T.);
#1970 = LINE('',#1971,#1972);
#1971 = CARTESIAN_POINT('',(84.95,158.29681670589,6.2));
#1972 = VECTOR('',#1973,1.);
#1973 = DIRECTION('',(0.,1.,0.));
#1974 = ORIENTED_EDGE('',*,*,#1913,.F.);
#1975 = PLANE('',#1976);
#1976 = AXIS2_PLACEMENT_3D('',#1977,#1978,#1979);
#1977 = CARTESIAN_POINT('',(84.95,158.29681670589,-0.1));
#1978 = DIRECTION('',(-1.,0.,0.));
#1979 = DIRECTION('',(0.,1.,0.));
#1980 = ADVANCED_FACE('',(#1981),#1992,.T.);
#1981 = FACE_BOUND('',#1982,.T.);
#1982 = EDGE_LOOP('',(#1983,#1984,#1985,#1991));
#1983 = ORIENTED_EDGE('',*,*,#633,.T.);
#1984 = ORIENTED_EDGE('',*,*,#1946,.T.);
#1985 = ORIENTED_EDGE('',*,*,#1986,.T.);
#1986 = EDGE_CURVE('',#1939,#1962,#1987,.T.);
#1987 = LINE('',#1988,#1989);
#1988 = CARTESIAN_POINT('',(82.,156.59363341178,6.2));
#1989 = VECTOR('',#1990,1.);
#1990 = DIRECTION('',(0.866025403784,0.5,0.));
#1991 = ORIENTED_EDGE('',*,*,#1961,.F.);
#1992 = PLANE('',#1993);
#1993 = AXIS2_PLACEMENT_3D('',#1994,#1995,#1996);
#1994 = CARTESIAN_POINT('',(82.,156.59363341178,-0.1));
#1995 = DIRECTION('',(-0.5,0.866025403784,0.));
#1996 = DIRECTION('',(0.866025403784,0.5,0.));
#1997 = ADVANCED_FACE('',(#1998),#2023,.T.);
#1998 = FACE_BOUND('',#1999,.T.);
#1999 = EDGE_LOOP('',(#2000,#2001,#2009,#2017));
#2000 = ORIENTED_EDGE('',*,*,#657,.T.);
#2001 = ORIENTED_EDGE('',*,*,#2002,.T.);
#2002 = EDGE_CURVE('',#660,#2003,#2005,.T.);
#2003 = VERTEX_POINT('',#2004);
#2004 = CARTESIAN_POINT('',(154.,163.40636658821,6.2));
#2005 = LINE('',#2006,#2007);
#2006 = CARTESIAN_POINT('',(154.,163.40636658821,-0.1));
#2007 = VECTOR('',#2008,1.);
#2008 = DIRECTION('',(0.,0.,1.));
#2009 = ORIENTED_EDGE('',*,*,#2010,.T.);
#2010 = EDGE_CURVE('',#2003,#2011,#2013,.T.);
#2011 = VERTEX_POINT('',#2012);
#2012 = CARTESIAN_POINT('',(151.05,161.7031832941,6.2));
#2013 = LINE('',#2014,#2015);
#2014 = CARTESIAN_POINT('',(154.,163.40636658821,6.2));
#2015 = VECTOR('',#2016,1.);
#2016 = DIRECTION('',(-0.866025403784,-0.5,0.));
#2017 = ORIENTED_EDGE('',*,*,#2018,.F.);
#2018 = EDGE_CURVE('',#658,#2011,#2019,.T.);
#2019 = LINE('',#2020,#2021);
#2020 = CARTESIAN_POINT('',(151.05,161.7031832941,-0.1));
#2021 = VECTOR('',#2022,1.);
#2022 = DIRECTION('',(0.,0.,1.));
#2023 = PLANE('',#2024);
#2024 = AXIS2_PLACEMENT_3D('',#2025,#2026,#2027);
#2025 = CARTESIAN_POINT('',(154.,163.40636658821,-0.1));
#2026 = DIRECTION('',(0.5,-0.866025403784,0.));
#2027 = DIRECTION('',(-0.866025403784,-0.5,0.));
#2028 = ADVANCED_FACE('',(#2029),#2047,.T.);
#2029 = FACE_BOUND('',#2030,.T.);
#2030 = EDGE_LOOP('',(#2031,#2032,#2033,#2041));
#2031 = ORIENTED_EDGE('',*,*,#699,.T.);
#2032 = ORIENTED_EDGE('',*,*,#2018,.T.);
#2033 = ORIENTED_EDGE('',*,*,#2034,.T.);
#2034 = EDGE_CURVE('',#2011,#2035,#2037,.T.);
#2035 = VERTEX_POINT('',#2036);
#2036 = CARTESIAN_POINT('',(151.05,158.29681670589,6.2));
#2037 = LINE('',#2038,#2039);
#2038 = CARTESIAN_POINT('',(151.05,161.7031832941,6.2));
#2039 = VECTOR('',#2040,1.);
#2040 = DIRECTION('',(0.,-1.,0.));
#2041 = ORIENTED_EDGE('',*,*,#2042,.F.);
#2042 = EDGE_CURVE('',#692,#2035,#2043,.T.);
#2043 = LINE('',#2044,#2045);
#2044 = CARTESIAN_POINT('',(151.05,158.29681670589,-0.1));
#2045 = VECTOR('',#2046,1.);
#2046 = DIRECTION('',(0.,0.,1.));
#2047 = PLANE('',#2048);
#2048 = AXIS2_PLACEMENT_3D('',#2049,#2050,#2051);
#2049 = CARTESIAN_POINT('',(151.05,161.7031832941,-0.1));
#2050 = DIRECTION('',(1.,0.,0.));
#2051 = DIRECTION('',(0.,-1.,0.));
#2052 = ADVANCED_FACE('',(#2053),#2071,.T.);
#2053 = FACE_BOUND('',#2054,.T.);
#2054 = EDGE_LOOP('',(#2055,#2056,#2057,#2065));
#2055 = ORIENTED_EDGE('',*,*,#691,.T.);
#2056 = ORIENTED_EDGE('',*,*,#2042,.T.);
#2057 = ORIENTED_EDGE('',*,*,#2058,.T.);
#2058 = EDGE_CURVE('',#2035,#2059,#2061,.T.);
#2059 = VERTEX_POINT('',#2060);
#2060 = CARTESIAN_POINT('',(154.,156.59363341178,6.2));
#2061 = LINE('',#2062,#2063);
#2062 = CARTESIAN_POINT('',(151.05,158.29681670589,6.2));
#2063 = VECTOR('',#2064,1.);
#2064 = DIRECTION('',(0.866025403784,-0.5,0.));
#2065 = ORIENTED_EDGE('',*,*,#2066,.F.);
#2066 = EDGE_CURVE('',#684,#2059,#2067,.T.);
#2067 = LINE('',#2068,#2069);
#2068 = CARTESIAN_POINT('',(154.,156.59363341178,-0.1));
#2069 = VECTOR('',#2070,1.);
#2070 = DIRECTION('',(0.,0.,1.));
#2071 = PLANE('',#2072);
#2072 = AXIS2_PLACEMENT_3D('',#2073,#2074,#2075);
#2073 = CARTESIAN_POINT('',(151.05,158.29681670589,-0.1));
#2074 = DIRECTION('',(0.5,0.866025403784,0.));
#2075 = DIRECTION('',(0.866025403784,-0.5,0.));
#2076 = ADVANCED_FACE('',(#2077),#2095,.T.);
#2077 = FACE_BOUND('',#2078,.T.);
#2078 = EDGE_LOOP('',(#2079,#2080,#2081,#2089));
#2079 = ORIENTED_EDGE('',*,*,#683,.T.);
#2080 = ORIENTED_EDGE('',*,*,#2066,.T.);
#2081 = ORIENTED_EDGE('',*,*,#2082,.T.);
#2082 = EDGE_CURVE('',#2059,#2083,#2085,.T.);
#2083 = VERTEX_POINT('',#2084);
#2084 = CARTESIAN_POINT('',(156.95,158.29681670589,6.2));
#2085 = LINE('',#2086,#2087);
#2086 = CARTESIAN_POINT('',(154.,156.59363341178,6.2));
#2087 = VECTOR('',#2088,1.);
#2088 = DIRECTION('',(0.866025403784,0.5,0.));
#2089 = ORIENTED_EDGE('',*,*,#2090,.F.);
#2090 = EDGE_CURVE('',#676,#2083,#2091,.T.);
#2091 = LINE('',#2092,#2093);
#2092 = CARTESIAN_POINT('',(156.95,158.29681670589,-0.1));
#2093 = VECTOR('',#2094,1.);
#2094 = DIRECTION('',(0.,0.,1.));
#2095 = PLANE('',#2096);
#2096 = AXIS2_PLACEMENT_3D('',#2097,#2098,#2099);
#2097 = CARTESIAN_POINT('',(154.,156.59363341178,-0.1));
#2098 = DIRECTION('',(-0.5,0.866025403784,0.));
#2099 = DIRECTION('',(0.866025403784,0.5,0.));
#2100 = ADVANCED_FACE('',(#2101),#2119,.T.);
#2101 = FACE_BOUND('',#2102,.T.);
#2102 = EDGE_LOOP('',(#2103,#2104,#2105,#2113));
#2103 = ORIENTED_EDGE('',*,*,#675,.T.);
#2104 = ORIENTED_EDGE('',*,*,#2090,.T.);
#2105 = ORIENTED_EDGE('',*,*,#2106,.T.);
#2106 = EDGE_CURVE('',#2083,#2107,#2109,.T.);
#2107 = VERTEX_POINT('',#2108);
#2108 = CARTESIAN_POINT('',(156.95,161.7031832941,6.2));
#2109 = LINE('',#2110,#2111);
#2110 = CARTESIAN_POINT('',(156.95,158.29681670589,6.2));
#2111 = VECTOR('',#2112,1.);
#2112 = DIRECTION('',(0.,1.,0.));
#2113 = ORIENTED_EDGE('',*,*,#2114,.F.);
#2114 = EDGE_CURVE('',#668,#2107,#2115,.T.);
#2115 = LINE('',#2116,#2117);
#2116 = CARTESIAN_POINT('',(156.95,161.7031832941,-0.1));
#2117 = VECTOR('',#2118,1.);
#2118 = DIRECTION('',(0.,0.,1.));
#2119 = PLANE('',#2120);
#2120 = AXIS2_PLACEMENT_3D('',#2121,#2122,#2123);
#2121 = CARTESIAN_POINT('',(156.95,158.29681670589,-0.1));
#2122 = DIRECTION('',(-1.,0.,0.));
#2123 = DIRECTION('',(0.,1.,0.));
#2124 = ADVANCED_FACE('',(#2125),#2136,.T.);
#2125 = FACE_BOUND('',#2126,.T.);
#2126 = EDGE_LOOP('',(#2127,#2128,#2129,#2135));
#2127 = ORIENTED_EDGE('',*,*,#667,.T.);
#2128 = ORIENTED_EDGE('',*,*,#2114,.T.);
#2129 = ORIENTED_EDGE('',*,*,#2130,.T.);
#2130 = EDGE_CURVE('',#2107,#2003,#2131,.T.);
#2131 = LINE('',#2132,#2133);
#2132 = CARTESIAN_POINT('',(156.95,161.7031832941,6.2));
#2133 = VECTOR('',#2134,1.);
#2134 = DIRECTION('',(-0.866025403784,0.5,0.));
#2135 = ORIENTED_EDGE('',*,*,#2002,.F.);
#2136 = PLANE('',#2137);
#2137 = AXIS2_PLACEMENT_3D('',#2138,#2139,#2140);
#2138 = CARTESIAN_POINT('',(156.95,161.7031832941,-0.1));
#2139 = DIRECTION('',(-0.5,-0.866025403784,0.));
#2140 = DIRECTION('',(-0.866025403784,0.5,0.));
#2141 = ADVANCED_FACE('',(#2142,#2150),#2153,.F.);
#2142 = FACE_BOUND('',#2143,.F.);
#2143 = EDGE_LOOP('',(#2144,#2145,#2146,#2147,#2148,#2149));
#2144 = ORIENTED_EDGE('',*,*,#1057,.T.);
#2145 = ORIENTED_EDGE('',*,*,#1002,.T.);
#2146 = ORIENTED_EDGE('',*,*,#1026,.T.);
#2147 = ORIENTED_EDGE('',*,*,#1074,.T.);
#2148 = ORIENTED_EDGE('',*,*,#1122,.T.);
#2149 = ORIENTED_EDGE('',*,*,#1105,.T.);
#2150 = FACE_BOUND('',#2151,.F.);
#2151 = EDGE_LOOP('',(#2152));
#2152 = ORIENTED_EDGE('',*,*,#735,.F.);
#2153 = PLANE('',#2154);
#2154 = AXIS2_PLACEMENT_3D('',#2155,#2156,#2157);
#2155 = CARTESIAN_POINT('',(10.,10.,6.2));
#2156 = DIRECTION('',(0.,0.,1.));
#2157 = DIRECTION('',(1.,0.,0.));
#2158 = ADVANCED_FACE('',(#2159,#2167),#2170,.F.);
#2159 = FACE_BOUND('',#2160,.F.);
#2160 = EDGE_LOOP('',(#2161,#2162,#2163,#2164,#2165,#2166));
#2161 = ORIENTED_EDGE('',*,*,#1201,.T.);
#2162 = ORIENTED_EDGE('',*,*,#1146,.T.);
#2163 = ORIENTED_EDGE('',*,*,#1170,.T.);
#2164 = ORIENTED_EDGE('',*,*,#1218,.T.);
#2165 = ORIENTED_EDGE('',*,*,#1266,.T.);
#2166 = ORIENTED_EDGE('',*,*,#1249,.T.);
#2167 = FACE_BOUND('',#2168,.F.);
#2168 = EDGE_LOOP('',(#2169));
#2169 = ORIENTED_EDGE('',*,*,#760,.F.);
#2170 = PLANE('',#2171);
#2171 = AXIS2_PLACEMENT_3D('',#2172,#2173,#2174);
#2172 = CARTESIAN_POINT('',(82.,10.,6.2));
#2173 = DIRECTION('',(0.,0.,1.));
#2174 = DIRECTION('',(1.,0.,0.));
#2175 = ADVANCED_FACE('',(#2176,#2184),#2187,.F.);
#2176 = FACE_BOUND('',#2177,.F.);
#2177 = EDGE_LOOP('',(#2178,#2179,#2180,#2181,#2182,#2183));
#2178 = ORIENTED_EDGE('',*,*,#1489,.T.);
#2179 = ORIENTED_EDGE('',*,*,#1434,.T.);
#2180 = ORIENTED_EDGE('',*,*,#1458,.T.);
#2181 = ORIENTED_EDGE('',*,*,#1506,.T.);
#2182 = ORIENTED_EDGE('',*,*,#1554,.T.);
#2183 = ORIENTED_EDGE('',*,*,#1537,.T.);
#2184 = FACE_BOUND('',#2185,.F.);
#2185 = EDGE_LOOP('',(#2186));
#2186 = ORIENTED_EDGE('',*,*,#785,.F.);
#2187 = PLANE('',#2188);
#2188 = AXIS2_PLACEMENT_3D('',#2189,#2190,#2191);
#2189 = CARTESIAN_POINT('',(10.,85.,6.2));
#2190 = DIRECTION('',(0.,0.,1.));
#2191 = DIRECTION('',(1.,0.,0.));
#2192 = ADVANCED_FACE('',(#2193,#2201),#2204,.F.);
#2193 = FACE_BOUND('',#2194,.F.);
#2194 = EDGE_LOOP('',(#2195,#2196,#2197,#2198,#2199,#2200));
#2195 = ORIENTED_EDGE('',*,*,#1345,.T.);
#2196 = ORIENTED_EDGE('',*,*,#1290,.T.);
#2197 = ORIENTED_EDGE('',*,*,#1314,.T.);
#2198 = ORIENTED_EDGE('',*,*,#1362,.T.);
#2199 = ORIENTED_EDGE('',*,*,#1410,.T.);
#2200 = ORIENTED_EDGE('',*,*,#1393,.T.);
#2201 = FACE_BOUND('',#2202,.F.);
#2202 = EDGE_LOOP('',(#2203));
#2203 = ORIENTED_EDGE('',*,*,#878,.F.);
#2204 = PLANE('',#2205);
#2205 = AXIS2_PLACEMENT_3D('',#2206,#2207,#2208);
#2206 = CARTESIAN_POINT('',(154.,10.,6.2));
#2207 = DIRECTION('',(0.,0.,1.));
#2208 = DIRECTION('',(1.,0.,0.));
#2209 = ADVANCED_FACE('',(#2210,#2218),#2221,.F.);
#2210 = FACE_BOUND('',#2211,.F.);
#2211 = EDGE_LOOP('',(#2212,#2213,#2214,#2215,#2216,#2217));
#2212 = ORIENTED_EDGE('',*,*,#1777,.T.);
#2213 = ORIENTED_EDGE('',*,*,#1722,.T.);
#2214 = ORIENTED_EDGE('',*,*,#1746,.T.);
#2215 = ORIENTED_EDGE('',*,*,#1794,.T.);
#2216 = ORIENTED_EDGE('',*,*,#1842,.T.);
#2217 = ORIENTED_EDGE('',*,*,#1825,.T.);
#2218 = FACE_BOUND('',#2219,.F.);
#2219 = EDGE_LOOP('',(#2220));
#2220 = ORIENTED_EDGE('',*,*,#903,.F.);
#2221 = PLANE('',#2222);
#2222 = AXIS2_PLACEMENT_3D('',#2223,#2224,#2225);
#2223 = CARTESIAN_POINT('',(154.,85.,6.2));
#2224 = DIRECTION('',(0.,0.,1.));
#2225 = DIRECTION('',(1.,0.,0.));
#2226 = ADVANCED_FACE('',(#2227,#2235),#2238,.F.);
#2227 = FACE_BOUND('',#2228,.F.);
#2228 = EDGE_LOOP('',(#2229,#2230,#2231,#2232,#2233,#2234));
#2229 = ORIENTED_EDGE('',*,*,#1633,.T.);
#2230 = ORIENTED_EDGE('',*,*,#1578,.T.);
#2231 = ORIENTED_EDGE('',*,*,#1602,.T.);
#2232 = ORIENTED_EDGE('',*,*,#1650,.T.);
#2233 = ORIENTED_EDGE('',*,*,#1698,.T.);
#2234 = ORIENTED_EDGE('',*,*,#1681,.T.);
#2235 = FACE_BOUND('',#2236,.F.);
#2236 = EDGE_LOOP('',(#2237));
#2237 = ORIENTED_EDGE('',*,*,#928,.F.);
#2238 = PLANE('',#2239);
#2239 = AXIS2_PLACEMENT_3D('',#2240,#2241,#2242);
#2240 = CARTESIAN_POINT('',(10.,160.,6.2));
#2241 = DIRECTION('',(0.,0.,1.));
#2242 = DIRECTION('',(1.,0.,0.));
#2243 = ADVANCED_FACE('',(#2244,#2252),#2255,.F.);
#2244 = FACE_BOUND('',#2245,.F.);
#2245 = EDGE_LOOP('',(#2246,#2247,#2248,#2249,#2250,#2251));
#2246 = ORIENTED_EDGE('',*,*,#1921,.T.);
#2247 = ORIENTED_EDGE('',*,*,#1866,.T.);
#2248 = ORIENTED_EDGE('',*,*,#1890,.T.);
#2249 = ORIENTED_EDGE('',*,*,#1938,.T.);
#2250 = ORIENTED_EDGE('',*,*,#1986,.T.);
#2251 = ORIENTED_EDGE('',*,*,#1969,.T.);
#2252 = FACE_BOUND('',#2253,.F.);
#2253 = EDGE_LOOP('',(#2254));
#2254 = ORIENTED_EDGE('',*,*,#953,.F.);
#2255 = PLANE('',#2256);
#2256 = AXIS2_PLACEMENT_3D('',#2257,#2258,#2259);
#2257 = CARTESIAN_POINT('',(82.,160.,6.2));
#2258 = DIRECTION('',(0.,0.,1.));
#2259 = DIRECTION('',(1.,0.,0.));
#2260 = ADVANCED_FACE('',(#2261,#2269),#2272,.F.);
#2261 = FACE_BOUND('',#2262,.F.);
#2262 = EDGE_LOOP('',(#2263,#2264,#2265,#2266,#2267,#2268));
#2263 = ORIENTED_EDGE('',*,*,#2130,.T.);
#2264 = ORIENTED_EDGE('',*,*,#2010,.T.);
#2265 = ORIENTED_EDGE('',*,*,#2034,.T.);
#2266 = ORIENTED_EDGE('',*,*,#2058,.T.);
#2267 = ORIENTED_EDGE('',*,*,#2082,.T.);
#2268 = ORIENTED_EDGE('',*,*,#2106,.T.);
#2269 = FACE_BOUND('',#2270,.F.);
#2270 = EDGE_LOOP('',(#2271));
#2271 = ORIENTED_EDGE('',*,*,#978,.F.);
#2272 = PLANE('',#2273);
#2273 = AXIS2_PLACEMENT_3D('',#2274,#2275,#2276);
#2274 = CARTESIAN_POINT('',(154.,160.,6.2));
#2275 = DIRECTION('',(0.,0.,1.));
#2276 = DIRECTION('',(1.,0.,0.));
#2277 = ( GEOMETRIC_REPRESENTATION_CONTEXT(3) 
GLOBAL_UNCERTAINTY_ASSIGNED_CONTEXT((#2281)) 
GLOBAL_UNIT_ASSIGNED_CONTEXT((#2278,#2279,#2280)) REPRESENTATION_CONTEXT
('Context #1','3D Context with UNIT and UNCERTAINTY') );
#2278 = ( LENGTH_UNIT() NAMED_UNIT(*) SI_UNIT(.MILLI.,.METRE.) );
#2279 = ( NAMED_UNIT(*) PLANE_ANGLE_UNIT() SI_UNIT($,.RADIAN.) );
#2280 = ( NAMED_UNIT(*) SI_UNIT($,.STERADIAN.) SOLID_ANGLE_UNIT() );
#2281 = UNCERTAINTY_MEASURE_WITH_UNIT(LENGTH_MEASURE(1.E-07),#2278,
  'distance_accuracy_value','confusion accuracy');
#2282 = PRODUCT_RELATED_PRODUCT_CATEGORY('part',$,(#7));
ENDSEC;
END-ISO-10303-21;
