ISO-10303-21;
HEADER;
FILE_DESCRIPTION(('FreeCAD Model'),'2;1');
FILE_NAME('Open CASCADE Shape Model','2026-10-01T10:29:55',('FreeCAD'),(
    'FreeCAD'),'Open CASCADE STEP processor 7.8','FreeCAD','Unknown');
FILE_SCHEMA(('AUTOMOTIVE_DESIGN { 1 0 10303 214 1 1 1 1 }'));
ENDSEC;
DATA;
#1 = APPLICATION_PROTOCOL_DEFINITION('international standard',
  'automotive_design',2000,#2);
#2 = APPLICATION_CONTEXT(
  'core data for automotive mechanical design processes');
#3 = SHAPE_DEFINITION_REPRESENTATION(#4,#10);
#4 = PRODUCT_DEFINITION_SHAPE('','',#5);
#5 = PRODUCT_DEFINITION('design','',#6,#9);
#6 = PRODUCT_DEFINITION_FORMATION('','',#7);
#7 = PRODUCT('Open CASCADE STEP translator 7.8 14',
  'Open CASCADE STEP translator 7.8 14','',(#8));
#8 = PRODUCT_CONTEXT('',#2,'mechanical');
#9 = PRODUCT_DEFINITION_CONTEXT('part definition',#2,'design');
#10 = ADVANCED_BREP_SHAPE_REPRESENTATION('',(#11,#15),#609);
#11 = AXIS2_PLACEMENT_3D('',#12,#13,#14);
#12 = CARTESIAN_POINT('',(0.,0.,0.));
#13 = DIRECTION('',(0.,0.,1.));
#14 = DIRECTION('',(1.,0.,-0.));
#15 = MANIFOLD_SOLID_BREP('',#16);
#16 = CLOSED_SHELL('',(#17,#57,#88,#119,#159,#183,#207,#269,#293,#326,
    #388,#405,#422,#444,#456,#481,#506,#523,#535,#560,#585,#597));
#17 = ADVANCED_FACE('',(#18),#52,.T.);
#18 = FACE_BOUND('',#19,.T.);
#19 = EDGE_LOOP('',(#20,#30,#38,#46));
#20 = ORIENTED_EDGE('',*,*,#21,.F.);
#21 = EDGE_CURVE('',#22,#24,#26,.T.);
#22 = VERTEX_POINT('',#23);
#23 = CARTESIAN_POINT('',(16.3,180.,3.1));
#24 = VERTEX_POINT('',#25);
#25 = CARTESIAN_POINT('',(16.3,0.4,3.1));
#26 = LINE('',#27,#28);
#27 = CARTESIAN_POINT('',(16.3,180.,3.1));
#28 = VECTOR('',#29,1.);
#29 = DIRECTION('',(0.,-1.,2.22044604925E-16));
#30 = ORIENTED_EDGE('',*,*,#31,.F.);
#31 = EDGE_CURVE('',#32,#22,#34,.T.);
#32 = VERTEX_POINT('',#33);
#33 = CARTESIAN_POINT('',(12.,180.,3.1));
#34 = LINE('',#35,#36);
#35 = CARTESIAN_POINT('',(12.,180.,3.1));
#36 = VECTOR('',#37,1.);
#37 = DIRECTION('',(1.,0.,0.));
#38 = ORIENTED_EDGE('',*,*,#39,.T.);
#39 = EDGE_CURVE('',#32,#40,#42,.T.);
#40 = VERTEX_POINT('',#41);
#41 = CARTESIAN_POINT('',(12.,0.4,3.1));
#42 = LINE('',#43,#44);
#43 = CARTESIAN_POINT('',(12.,180.,3.1));
#44 = VECTOR('',#45,1.);
#45 = DIRECTION('',(0.,-1.,2.22044604925E-16));
#46 = ORIENTED_EDGE('',*,*,#47,.T.);
#47 = EDGE_CURVE('',#40,#24,#48,.T.);
#48 = LINE('',#49,#50);
#49 = CARTESIAN_POINT('',(12.,0.4,3.1));
#50 = VECTOR('',#51,1.);
#51 = DIRECTION('',(1.,0.,0.));
#52 = PLANE('',#53);
#53 = AXIS2_PLACEMENT_3D('',#54,#55,#56);
#54 = CARTESIAN_POINT('',(12.,180.,3.1));
#55 = DIRECTION('',(0.,2.22044604925E-16,1.));
#56 = DIRECTION('',(0.,-1.,2.22044604925E-16));
#57 = ADVANCED_FACE('',(#58),#83,.F.);
#58 = FACE_BOUND('',#59,.F.);
#59 = EDGE_LOOP('',(#60,#61,#69,#77));
#60 = ORIENTED_EDGE('',*,*,#21,.F.);
#61 = ORIENTED_EDGE('',*,*,#62,.T.);
#62 = EDGE_CURVE('',#22,#63,#65,.T.);
#63 = VERTEX_POINT('',#64);
#64 = CARTESIAN_POINT('',(16.3,180.,14.8));
#65 = LINE('',#66,#67);
#66 = CARTESIAN_POINT('',(16.3,180.,3.));
#67 = VECTOR('',#68,1.);
#68 = DIRECTION('',(0.,2.22044604925E-16,1.));
#69 = ORIENTED_EDGE('',*,*,#70,.T.);
#70 = EDGE_CURVE('',#63,#71,#73,.T.);
#71 = VERTEX_POINT('',#72);
#72 = CARTESIAN_POINT('',(16.3,0.4,14.8));
#73 = LINE('',#74,#75);
#74 = CARTESIAN_POINT('',(16.3,180.,14.8));
#75 = VECTOR('',#76,1.);
#76 = DIRECTION('',(0.,-1.,2.22044604925E-16));
#77 = ORIENTED_EDGE('',*,*,#78,.F.);
#78 = EDGE_CURVE('',#24,#71,#79,.T.);
#79 = LINE('',#80,#81);
#80 = CARTESIAN_POINT('',(16.3,0.4,3.1));
#81 = VECTOR('',#82,1.);
#82 = DIRECTION('',(0.,2.22044604925E-16,1.));
#83 = PLANE('',#84);
#84 = AXIS2_PLACEMENT_3D('',#85,#86,#87);
#85 = CARTESIAN_POINT('',(16.3,180.,3.));
#86 = DIRECTION('',(1.,0.,0.));
#87 = DIRECTION('',(0.,-1.,2.22044604925E-16));
#88 = ADVANCED_FACE('',(#89),#114,.T.);
#89 = FACE_BOUND('',#90,.F.);
#90 = EDGE_LOOP('',(#91,#99,#100,#108));
#91 = ORIENTED_EDGE('',*,*,#92,.F.);
#92 = EDGE_CURVE('',#40,#93,#95,.T.);
#93 = VERTEX_POINT('',#94);
#94 = CARTESIAN_POINT('',(12.4,0.,2.7));
#95 = LINE('',#96,#97);
#96 = CARTESIAN_POINT('',(12.65,-0.25,2.45));
#97 = VECTOR('',#98,1.);
#98 = DIRECTION('',(0.57735026919,-0.57735026919,-0.57735026919));
#99 = ORIENTED_EDGE('',*,*,#47,.T.);
#100 = ORIENTED_EDGE('',*,*,#101,.T.);
#101 = EDGE_CURVE('',#24,#102,#104,.T.);
#102 = VERTEX_POINT('',#103);
#103 = CARTESIAN_POINT('',(16.7,0.,2.7));
#104 = LINE('',#105,#106);
#105 = CARTESIAN_POINT('',(15.716666666667,0.983333333333,3.683333333333
    ));
#106 = VECTOR('',#107,1.);
#107 = DIRECTION('',(0.57735026919,-0.57735026919,-0.57735026919));
#108 = ORIENTED_EDGE('',*,*,#109,.F.);
#109 = EDGE_CURVE('',#93,#102,#110,.T.);
#110 = LINE('',#111,#112);
#111 = CARTESIAN_POINT('',(12.,0.,2.7));
#112 = VECTOR('',#113,1.);
#113 = DIRECTION('',(1.,0.,0.));
#114 = PLANE('',#115);
#115 = AXIS2_PLACEMENT_3D('',#116,#117,#118);
#116 = CARTESIAN_POINT('',(12.,0.2,2.9));
#117 = DIRECTION('',(-3.474993633276E-18,-0.707106781187,0.707106781187)
  );
#118 = DIRECTION('',(-1.,2.457191562669E-18,-2.457191562669E-18));
#119 = ADVANCED_FACE('',(#120),#154,.T.);
#120 = FACE_BOUND('',#121,.T.);
#121 = EDGE_LOOP('',(#122,#130,#138,#146,#152,#153));
#122 = ORIENTED_EDGE('',*,*,#123,.F.);
#123 = EDGE_CURVE('',#124,#63,#126,.T.);
#124 = VERTEX_POINT('',#125);
#125 = CARTESIAN_POINT('',(0.,180.,14.8));
#126 = LINE('',#127,#128);
#127 = CARTESIAN_POINT('',(0.,180.,14.8));
#128 = VECTOR('',#129,1.);
#129 = DIRECTION('',(1.,0.,0.));
#130 = ORIENTED_EDGE('',*,*,#131,.F.);
#131 = EDGE_CURVE('',#132,#124,#134,.T.);
#132 = VERTEX_POINT('',#133);
#133 = CARTESIAN_POINT('',(0.,180.,0.));
#134 = LINE('',#135,#136);
#135 = CARTESIAN_POINT('',(0.,180.,0.));
#136 = VECTOR('',#137,1.);
#137 = DIRECTION('',(0.,2.22044604925E-16,1.));
#138 = ORIENTED_EDGE('',*,*,#139,.T.);
#139 = EDGE_CURVE('',#132,#140,#142,.T.);
#140 = VERTEX_POINT('',#141);
#141 = CARTESIAN_POINT('',(12.,180.,0.));
#142 = LINE('',#143,#144);
#143 = CARTESIAN_POINT('',(0.,180.,0.));
#144 = VECTOR('',#145,1.);
#145 = DIRECTION('',(1.,0.,0.));
#146 = ORIENTED_EDGE('',*,*,#147,.T.);
#147 = EDGE_CURVE('',#140,#32,#148,.T.);
#148 = LINE('',#149,#150);
#149 = CARTESIAN_POINT('',(12.,180.,0.));
#150 = VECTOR('',#151,1.);
#151 = DIRECTION('',(0.,2.22044604925E-16,1.));
#152 = ORIENTED_EDGE('',*,*,#31,.T.);
#153 = ORIENTED_EDGE('',*,*,#62,.T.);
#154 = PLANE('',#155);
#155 = AXIS2_PLACEMENT_3D('',#156,#157,#158);
#156 = CARTESIAN_POINT('',(0.,180.,0.));
#157 = DIRECTION('',(0.,-1.,2.22044604925E-16));
#158 = DIRECTION('',(1.,0.,0.));
#159 = ADVANCED_FACE('',(#160),#178,.F.);
#160 = FACE_BOUND('',#161,.F.);
#161 = EDGE_LOOP('',(#162,#170,#171,#172));
#162 = ORIENTED_EDGE('',*,*,#163,.F.);
#163 = EDGE_CURVE('',#140,#164,#166,.T.);
#164 = VERTEX_POINT('',#165);
#165 = CARTESIAN_POINT('',(12.,0.4,3.907985046681E-14));
#166 = LINE('',#167,#168);
#167 = CARTESIAN_POINT('',(12.,180.,0.));
#168 = VECTOR('',#169,1.);
#169 = DIRECTION('',(0.,-1.,2.22044604925E-16));
#170 = ORIENTED_EDGE('',*,*,#147,.T.);
#171 = ORIENTED_EDGE('',*,*,#39,.T.);
#172 = ORIENTED_EDGE('',*,*,#173,.F.);
#173 = EDGE_CURVE('',#164,#40,#174,.T.);
#174 = LINE('',#175,#176);
#175 = CARTESIAN_POINT('',(12.,0.4,3.907985046681E-14));
#176 = VECTOR('',#177,1.);
#177 = DIRECTION('',(0.,2.22044604925E-16,1.));
#178 = PLANE('',#179);
#179 = AXIS2_PLACEMENT_3D('',#180,#181,#182);
#180 = CARTESIAN_POINT('',(12.,180.,0.));
#181 = DIRECTION('',(1.,0.,0.));
#182 = DIRECTION('',(0.,-1.,2.22044604925E-16));
#183 = ADVANCED_FACE('',(#184),#202,.F.);
#184 = FACE_BOUND('',#185,.F.);
#185 = EDGE_LOOP('',(#186,#187,#188,#196));
#186 = ORIENTED_EDGE('',*,*,#101,.F.);
#187 = ORIENTED_EDGE('',*,*,#78,.T.);
#188 = ORIENTED_EDGE('',*,*,#189,.T.);
#189 = EDGE_CURVE('',#71,#190,#192,.T.);
#190 = VERTEX_POINT('',#191);
#191 = CARTESIAN_POINT('',(16.7,0.,14.4));
#192 = LINE('',#193,#194);
#193 = CARTESIAN_POINT('',(18.383333333333,-1.683333333333,
    12.716666666667));
#194 = VECTOR('',#195,1.);
#195 = DIRECTION('',(0.57735026919,-0.57735026919,-0.57735026919));
#196 = ORIENTED_EDGE('',*,*,#197,.F.);
#197 = EDGE_CURVE('',#102,#190,#198,.T.);
#198 = LINE('',#199,#200);
#199 = CARTESIAN_POINT('',(16.7,0.,3.1));
#200 = VECTOR('',#201,1.);
#201 = DIRECTION('',(0.,2.22044604925E-16,1.));
#202 = PLANE('',#203);
#203 = AXIS2_PLACEMENT_3D('',#204,#205,#206);
#204 = CARTESIAN_POINT('',(16.5,0.2,3.1));
#205 = DIRECTION('',(0.707106781187,0.707106781187,-1.570092458684E-16)
  );
#206 = DIRECTION('',(0.,2.22044604925E-16,1.));
#207 = ADVANCED_FACE('',(#208,#242,#253),#264,.T.);
#208 = FACE_BOUND('',#209,.T.);
#209 = EDGE_LOOP('',(#210,#220,#228,#234,#235,#236));
#210 = ORIENTED_EDGE('',*,*,#211,.F.);
#211 = EDGE_CURVE('',#212,#214,#216,.T.);
#212 = VERTEX_POINT('',#213);
#213 = CARTESIAN_POINT('',(29.,184.,14.8));
#214 = VERTEX_POINT('',#215);
#215 = CARTESIAN_POINT('',(29.,0.4,14.8));
#216 = LINE('',#217,#218);
#217 = CARTESIAN_POINT('',(29.,184.,14.8));
#218 = VECTOR('',#219,1.);
#219 = DIRECTION('',(0.,-1.,2.22044604925E-16));
#220 = ORIENTED_EDGE('',*,*,#221,.F.);
#221 = EDGE_CURVE('',#222,#212,#224,.T.);
#222 = VERTEX_POINT('',#223);
#223 = CARTESIAN_POINT('',(0.,184.,14.8));
#224 = LINE('',#225,#226);
#225 = CARTESIAN_POINT('',(0.,184.,14.8));
#226 = VECTOR('',#227,1.);
#227 = DIRECTION('',(1.,0.,0.));
#228 = ORIENTED_EDGE('',*,*,#229,.T.);
#229 = EDGE_CURVE('',#222,#124,#230,.T.);
#230 = LINE('',#231,#232);
#231 = CARTESIAN_POINT('',(0.,184.,14.8));
#232 = VECTOR('',#233,1.);
#233 = DIRECTION('',(0.,-1.,2.22044604925E-16));
#234 = ORIENTED_EDGE('',*,*,#123,.T.);
#235 = ORIENTED_EDGE('',*,*,#70,.T.);
#236 = ORIENTED_EDGE('',*,*,#237,.T.);
#237 = EDGE_CURVE('',#71,#214,#238,.T.);
#238 = LINE('',#239,#240);
#239 = CARTESIAN_POINT('',(16.3,0.4,14.8));
#240 = VECTOR('',#241,1.);
#241 = DIRECTION('',(1.,0.,0.));
#242 = FACE_BOUND('',#243,.T.);
#243 = EDGE_LOOP('',(#244));
#244 = ORIENTED_EDGE('',*,*,#245,.F.);
#245 = EDGE_CURVE('',#246,#246,#248,.T.);
#246 = VERTEX_POINT('',#247);
#247 = CARTESIAN_POINT('',(22.5,146.2,14.8));
#248 = CIRCLE('',#249,1.8);
#249 = AXIS2_PLACEMENT_3D('',#250,#251,#252);
#250 = CARTESIAN_POINT('',(22.5,148.,14.8));
#251 = DIRECTION('',(-0.,2.22044604925E-16,1.));
#252 = DIRECTION('',(0.,-1.,2.22044604925E-16));
#253 = FACE_BOUND('',#254,.T.);
#254 = EDGE_LOOP('',(#255));
#255 = ORIENTED_EDGE('',*,*,#256,.F.);
#256 = EDGE_CURVE('',#257,#257,#259,.T.);
#257 = VERTEX_POINT('',#258);
#258 = CARTESIAN_POINT('',(22.5,42.2,14.8));
#259 = CIRCLE('',#260,1.8);
#260 = AXIS2_PLACEMENT_3D('',#261,#262,#263);
#261 = CARTESIAN_POINT('',(22.5,44.,14.8));
#262 = DIRECTION('',(-0.,2.22044604925E-16,1.));
#263 = DIRECTION('',(0.,-1.,2.22044604925E-16));
#264 = PLANE('',#265);
#265 = AXIS2_PLACEMENT_3D('',#266,#267,#268);
#266 = CARTESIAN_POINT('',(21.387323943662,98.887323943662,14.8));
#267 = DIRECTION('',(0.,2.22044604925E-16,1.));
#268 = DIRECTION('',(0.,-1.,2.22044604925E-16));
#269 = ADVANCED_FACE('',(#270),#288,.F.);
#270 = FACE_BOUND('',#271,.F.);
#271 = EDGE_LOOP('',(#272,#280,#281,#282));
#272 = ORIENTED_EDGE('',*,*,#273,.F.);
#273 = EDGE_CURVE('',#164,#274,#276,.T.);
#274 = VERTEX_POINT('',#275);
#275 = CARTESIAN_POINT('',(12.4,-2.84217094304E-14,0.4));
#276 = LINE('',#277,#278);
#277 = CARTESIAN_POINT('',(12.133333333333,0.266666666667,0.133333333333
    ));
#278 = VECTOR('',#279,1.);
#279 = DIRECTION('',(0.57735026919,-0.57735026919,0.57735026919));
#280 = ORIENTED_EDGE('',*,*,#173,.T.);
#281 = ORIENTED_EDGE('',*,*,#92,.T.);
#282 = ORIENTED_EDGE('',*,*,#283,.F.);
#283 = EDGE_CURVE('',#274,#93,#284,.T.);
#284 = LINE('',#285,#286);
#285 = CARTESIAN_POINT('',(12.4,0.,4.085620730621E-14));
#286 = VECTOR('',#287,1.);
#287 = DIRECTION('',(0.,2.22044604925E-16,1.));
#288 = PLANE('',#289);
#289 = AXIS2_PLACEMENT_3D('',#290,#291,#292);
#290 = CARTESIAN_POINT('',(12.2,0.2,3.907985046681E-14));
#291 = DIRECTION('',(0.707106781187,0.707106781187,-1.570092458684E-16)
  );
#292 = DIRECTION('',(0.,2.22044604925E-16,1.));
#293 = ADVANCED_FACE('',(#294),#321,.T.);
#294 = FACE_BOUND('',#295,.T.);
#295 = EDGE_LOOP('',(#296,#297,#298,#306,#314,#320));
#296 = ORIENTED_EDGE('',*,*,#109,.F.);
#297 = ORIENTED_EDGE('',*,*,#283,.F.);
#298 = ORIENTED_EDGE('',*,*,#299,.T.);
#299 = EDGE_CURVE('',#274,#300,#302,.T.);
#300 = VERTEX_POINT('',#301);
#301 = CARTESIAN_POINT('',(28.6,2.84217094304E-14,0.4));
#302 = LINE('',#303,#304);
#303 = CARTESIAN_POINT('',(12.,0.,0.4));
#304 = VECTOR('',#305,1.);
#305 = DIRECTION('',(1.,0.,0.));
#306 = ORIENTED_EDGE('',*,*,#307,.T.);
#307 = EDGE_CURVE('',#300,#308,#310,.T.);
#308 = VERTEX_POINT('',#309);
#309 = CARTESIAN_POINT('',(28.6,2.84217094304E-14,14.4));
#310 = LINE('',#311,#312);
#311 = CARTESIAN_POINT('',(28.6,0.,4.085620730621E-14));
#312 = VECTOR('',#313,1.);
#313 = DIRECTION('',(0.,2.22044604925E-16,1.));
#314 = ORIENTED_EDGE('',*,*,#315,.F.);
#315 = EDGE_CURVE('',#190,#308,#316,.T.);
#316 = LINE('',#317,#318);
#317 = CARTESIAN_POINT('',(16.3,0.,14.4));
#318 = VECTOR('',#319,1.);
#319 = DIRECTION('',(1.,0.,0.));
#320 = ORIENTED_EDGE('',*,*,#197,.F.);
#321 = PLANE('',#322);
#322 = AXIS2_PLACEMENT_3D('',#323,#324,#325);
#323 = CARTESIAN_POINT('',(21.291037735849,0.,6.608962264151));
#324 = DIRECTION('',(0.,-1.,2.22044604925E-16));
#325 = DIRECTION('',(1.,0.,0.));
#326 = ADVANCED_FACE('',(#327,#361,#372),#383,.T.);
#327 = FACE_BOUND('',#328,.T.);
#328 = EDGE_LOOP('',(#329,#339,#345,#346,#347,#355));
#329 = ORIENTED_EDGE('',*,*,#330,.T.);
#330 = EDGE_CURVE('',#331,#333,#335,.T.);
#331 = VERTEX_POINT('',#332);
#332 = CARTESIAN_POINT('',(29.,184.,0.));
#333 = VERTEX_POINT('',#334);
#334 = CARTESIAN_POINT('',(29.,0.4,2.6645352591E-14));
#335 = LINE('',#336,#337);
#336 = CARTESIAN_POINT('',(29.,180.,0.));
#337 = VECTOR('',#338,1.);
#338 = DIRECTION('',(0.,-1.,2.22044604925E-16));
#339 = ORIENTED_EDGE('',*,*,#340,.F.);
#340 = EDGE_CURVE('',#164,#333,#341,.T.);
#341 = LINE('',#342,#343);
#342 = CARTESIAN_POINT('',(12.,0.4,3.37507799486E-14));
#343 = VECTOR('',#344,1.);
#344 = DIRECTION('',(1.,0.,0.));
#345 = ORIENTED_EDGE('',*,*,#163,.F.);
#346 = ORIENTED_EDGE('',*,*,#139,.F.);
#347 = ORIENTED_EDGE('',*,*,#348,.F.);
#348 = EDGE_CURVE('',#349,#132,#351,.T.);
#349 = VERTEX_POINT('',#350);
#350 = CARTESIAN_POINT('',(0.,184.,0.));
#351 = LINE('',#352,#353);
#352 = CARTESIAN_POINT('',(0.,184.,0.));
#353 = VECTOR('',#354,1.);
#354 = DIRECTION('',(0.,-1.,2.22044604925E-16));
#355 = ORIENTED_EDGE('',*,*,#356,.T.);
#356 = EDGE_CURVE('',#349,#331,#357,.T.);
#357 = LINE('',#358,#359);
#358 = CARTESIAN_POINT('',(0.,184.,0.));
#359 = VECTOR('',#360,1.);
#360 = DIRECTION('',(1.,0.,0.));
#361 = FACE_BOUND('',#362,.T.);
#362 = EDGE_LOOP('',(#363));
#363 = ORIENTED_EDGE('',*,*,#364,.T.);
#364 = EDGE_CURVE('',#365,#365,#367,.T.);
#365 = VERTEX_POINT('',#366);
#366 = CARTESIAN_POINT('',(22.5,40.8,2.48689957516E-14));
#367 = CIRCLE('',#368,3.2);
#368 = AXIS2_PLACEMENT_3D('',#369,#370,#371);
#369 = CARTESIAN_POINT('',(22.5,44.,2.48689957516E-14));
#370 = DIRECTION('',(-0.,2.22044604925E-16,1.));
#371 = DIRECTION('',(0.,-1.,2.22044604925E-16));
#372 = FACE_BOUND('',#373,.T.);
#373 = EDGE_LOOP('',(#374));
#374 = ORIENTED_EDGE('',*,*,#375,.T.);
#375 = EDGE_CURVE('',#376,#376,#378,.T.);
#376 = VERTEX_POINT('',#377);
#377 = CARTESIAN_POINT('',(22.5,144.8,1.7763568394E-15));
#378 = CIRCLE('',#379,3.2);
#379 = AXIS2_PLACEMENT_3D('',#380,#381,#382);
#380 = CARTESIAN_POINT('',(22.5,148.,1.7763568394E-15));
#381 = DIRECTION('',(-0.,2.22044604925E-16,1.));
#382 = DIRECTION('',(0.,-1.,2.22044604925E-16));
#383 = PLANE('',#384);
#384 = AXIS2_PLACEMENT_3D('',#385,#386,#387);
#385 = CARTESIAN_POINT('',(19.570422535211,97.070422535211,
    1.24344978758E-14));
#386 = DIRECTION('',(-0.,-2.22044604925E-16,-1.));
#387 = DIRECTION('',(0.,1.,-2.22044604925E-16));
#388 = ADVANCED_FACE('',(#389),#400,.F.);
#389 = FACE_BOUND('',#390,.F.);
#390 = EDGE_LOOP('',(#391,#392,#398,#399));
#391 = ORIENTED_EDGE('',*,*,#348,.F.);
#392 = ORIENTED_EDGE('',*,*,#393,.T.);
#393 = EDGE_CURVE('',#349,#222,#394,.T.);
#394 = LINE('',#395,#396);
#395 = CARTESIAN_POINT('',(0.,184.,0.));
#396 = VECTOR('',#397,1.);
#397 = DIRECTION('',(0.,2.22044604925E-16,1.));
#398 = ORIENTED_EDGE('',*,*,#229,.T.);
#399 = ORIENTED_EDGE('',*,*,#131,.F.);
#400 = PLANE('',#401);
#401 = AXIS2_PLACEMENT_3D('',#402,#403,#404);
#402 = CARTESIAN_POINT('',(0.,184.,0.));
#403 = DIRECTION('',(1.,0.,0.));
#404 = DIRECTION('',(0.,-1.,2.22044604925E-16));
#405 = ADVANCED_FACE('',(#406),#417,.T.);
#406 = FACE_BOUND('',#407,.T.);
#407 = EDGE_LOOP('',(#408,#409,#410,#416));
#408 = ORIENTED_EDGE('',*,*,#189,.T.);
#409 = ORIENTED_EDGE('',*,*,#315,.T.);
#410 = ORIENTED_EDGE('',*,*,#411,.T.);
#411 = EDGE_CURVE('',#308,#214,#412,.T.);
#412 = LINE('',#413,#414);
#413 = CARTESIAN_POINT('',(24.283333333333,-4.316666666667,
    10.083333333333));
#414 = VECTOR('',#415,1.);
#415 = DIRECTION('',(0.57735026919,0.57735026919,0.57735026919));
#416 = ORIENTED_EDGE('',*,*,#237,.F.);
#417 = PLANE('',#418);
#418 = AXIS2_PLACEMENT_3D('',#419,#420,#421);
#419 = CARTESIAN_POINT('',(16.3,0.2,14.6));
#420 = DIRECTION('',(-3.474993633276E-18,-0.707106781187,0.707106781187)
  );
#421 = DIRECTION('',(1.,-2.457191562669E-18,2.457191562669E-18));
#422 = ADVANCED_FACE('',(#423),#439,.T.);
#423 = FACE_BOUND('',#424,.T.);
#424 = EDGE_LOOP('',(#425,#426,#432,#433));
#425 = ORIENTED_EDGE('',*,*,#330,.F.);
#426 = ORIENTED_EDGE('',*,*,#427,.T.);
#427 = EDGE_CURVE('',#331,#212,#428,.T.);
#428 = LINE('',#429,#430);
#429 = CARTESIAN_POINT('',(29.,184.,0.));
#430 = VECTOR('',#431,1.);
#431 = DIRECTION('',(0.,2.22044604925E-16,1.));
#432 = ORIENTED_EDGE('',*,*,#211,.T.);
#433 = ORIENTED_EDGE('',*,*,#434,.F.);
#434 = EDGE_CURVE('',#333,#214,#435,.T.);
#435 = LINE('',#436,#437);
#436 = CARTESIAN_POINT('',(29.,0.4,3.907985046681E-14));
#437 = VECTOR('',#438,1.);
#438 = DIRECTION('',(0.,2.22044604925E-16,1.));
#439 = PLANE('',#440);
#440 = AXIS2_PLACEMENT_3D('',#441,#442,#443);
#441 = CARTESIAN_POINT('',(29.,92.,7.4));
#442 = DIRECTION('',(1.,0.,0.));
#443 = DIRECTION('',(0.,-1.,2.22044604925E-16));
#444 = ADVANCED_FACE('',(#445),#451,.F.);
#445 = FACE_BOUND('',#446,.F.);
#446 = EDGE_LOOP('',(#447,#448,#449,#450));
#447 = ORIENTED_EDGE('',*,*,#393,.F.);
#448 = ORIENTED_EDGE('',*,*,#356,.T.);
#449 = ORIENTED_EDGE('',*,*,#427,.T.);
#450 = ORIENTED_EDGE('',*,*,#221,.F.);
#451 = PLANE('',#452);
#452 = AXIS2_PLACEMENT_3D('',#453,#454,#455);
#453 = CARTESIAN_POINT('',(0.,184.,0.));
#454 = DIRECTION('',(0.,-1.,2.22044604925E-16));
#455 = DIRECTION('',(1.,0.,0.));
#456 = ADVANCED_FACE('',(#457),#476,.F.);
#457 = FACE_BOUND('',#458,.F.);
#458 = EDGE_LOOP('',(#459,#460,#468,#475));
#459 = ORIENTED_EDGE('',*,*,#245,.F.);
#460 = ORIENTED_EDGE('',*,*,#461,.F.);
#461 = EDGE_CURVE('',#462,#246,#464,.T.);
#462 = VERTEX_POINT('',#463);
#463 = CARTESIAN_POINT('',(22.5,146.2,11.8));
#464 = LINE('',#465,#466);
#465 = CARTESIAN_POINT('',(22.5,146.2,11.7));
#466 = VECTOR('',#467,1.);
#467 = DIRECTION('',(0.,2.22044604925E-16,1.));
#468 = ORIENTED_EDGE('',*,*,#469,.T.);
#469 = EDGE_CURVE('',#462,#462,#470,.T.);
#470 = CIRCLE('',#471,1.8);
#471 = AXIS2_PLACEMENT_3D('',#472,#473,#474);
#472 = CARTESIAN_POINT('',(22.5,148.,11.8));
#473 = DIRECTION('',(-0.,2.22044604925E-16,1.));
#474 = DIRECTION('',(0.,-1.,2.22044604925E-16));
#475 = ORIENTED_EDGE('',*,*,#461,.T.);
#476 = CYLINDRICAL_SURFACE('',#477,1.8);
#477 = AXIS2_PLACEMENT_3D('',#478,#479,#480);
#478 = CARTESIAN_POINT('',(22.5,148.,11.7));
#479 = DIRECTION('',(0.,2.22044604925E-16,1.));
#480 = DIRECTION('',(0.,-1.,2.22044604925E-16));
#481 = ADVANCED_FACE('',(#482),#501,.F.);
#482 = FACE_BOUND('',#483,.F.);
#483 = EDGE_LOOP('',(#484,#485,#493,#500));
#484 = ORIENTED_EDGE('',*,*,#256,.F.);
#485 = ORIENTED_EDGE('',*,*,#486,.F.);
#486 = EDGE_CURVE('',#487,#257,#489,.T.);
#487 = VERTEX_POINT('',#488);
#488 = CARTESIAN_POINT('',(22.5,42.2,11.8));
#489 = LINE('',#490,#491);
#490 = CARTESIAN_POINT('',(22.5,42.2,11.7));
#491 = VECTOR('',#492,1.);
#492 = DIRECTION('',(0.,2.22044604925E-16,1.));
#493 = ORIENTED_EDGE('',*,*,#494,.T.);
#494 = EDGE_CURVE('',#487,#487,#495,.T.);
#495 = CIRCLE('',#496,1.8);
#496 = AXIS2_PLACEMENT_3D('',#497,#498,#499);
#497 = CARTESIAN_POINT('',(22.5,44.,11.8));
#498 = DIRECTION('',(-0.,2.22044604925E-16,1.));
#499 = DIRECTION('',(0.,-1.,2.22044604925E-16));
#500 = ORIENTED_EDGE('',*,*,#486,.T.);
#501 = CYLINDRICAL_SURFACE('',#502,1.8);
#502 = AXIS2_PLACEMENT_3D('',#503,#504,#505);
#503 = CARTESIAN_POINT('',(22.5,44.,11.7));
#504 = DIRECTION('',(0.,2.22044604925E-16,1.));
#505 = DIRECTION('',(0.,-1.,2.22044604925E-16));
#506 = ADVANCED_FACE('',(#507),#518,.T.);
#507 = FACE_BOUND('',#508,.F.);
#508 = EDGE_LOOP('',(#509,#510,#511,#517));
#509 = ORIENTED_EDGE('',*,*,#273,.T.);
#510 = ORIENTED_EDGE('',*,*,#299,.T.);
#511 = ORIENTED_EDGE('',*,*,#512,.T.);
#512 = EDGE_CURVE('',#300,#333,#513,.T.);
#513 = LINE('',#514,#515);
#514 = CARTESIAN_POINT('',(26.033333333333,-2.566666666667,
    2.966666666667));
#515 = VECTOR('',#516,1.);
#516 = DIRECTION('',(0.57735026919,0.57735026919,-0.57735026919));
#517 = ORIENTED_EDGE('',*,*,#340,.F.);
#518 = PLANE('',#519);
#519 = AXIS2_PLACEMENT_3D('',#520,#521,#522);
#520 = CARTESIAN_POINT('',(12.,0.2,0.2));
#521 = DIRECTION('',(3.474993633276E-18,-0.707106781187,-0.707106781187)
  );
#522 = DIRECTION('',(-1.,-2.457191562669E-18,-2.457191562669E-18));
#523 = ADVANCED_FACE('',(#524),#530,.T.);
#524 = FACE_BOUND('',#525,.F.);
#525 = EDGE_LOOP('',(#526,#527,#528,#529));
#526 = ORIENTED_EDGE('',*,*,#512,.F.);
#527 = ORIENTED_EDGE('',*,*,#307,.T.);
#528 = ORIENTED_EDGE('',*,*,#411,.T.);
#529 = ORIENTED_EDGE('',*,*,#434,.F.);
#530 = PLANE('',#531);
#531 = AXIS2_PLACEMENT_3D('',#532,#533,#534);
#532 = CARTESIAN_POINT('',(28.8,0.2,3.907985046681E-14));
#533 = DIRECTION('',(0.707106781187,-0.707106781187,1.570092458684E-16)
  );
#534 = DIRECTION('',(0.,-2.22044604925E-16,-1.));
#535 = ADVANCED_FACE('',(#536),#555,.F.);
#536 = FACE_BOUND('',#537,.F.);
#537 = EDGE_LOOP('',(#538,#546,#553,#554));
#538 = ORIENTED_EDGE('',*,*,#539,.T.);
#539 = EDGE_CURVE('',#365,#540,#542,.T.);
#540 = VERTEX_POINT('',#541);
#541 = CARTESIAN_POINT('',(22.5,40.8,11.8));
#542 = LINE('',#543,#544);
#543 = CARTESIAN_POINT('',(22.5,40.8,-15.2));
#544 = VECTOR('',#545,1.);
#545 = DIRECTION('',(0.,2.22044604925E-16,1.));
#546 = ORIENTED_EDGE('',*,*,#547,.F.);
#547 = EDGE_CURVE('',#540,#540,#548,.T.);
#548 = CIRCLE('',#549,3.2);
#549 = AXIS2_PLACEMENT_3D('',#550,#551,#552);
#550 = CARTESIAN_POINT('',(22.5,44.,11.8));
#551 = DIRECTION('',(-0.,2.22044604925E-16,1.));
#552 = DIRECTION('',(0.,-1.,2.22044604925E-16));
#553 = ORIENTED_EDGE('',*,*,#539,.F.);
#554 = ORIENTED_EDGE('',*,*,#364,.T.);
#555 = CYLINDRICAL_SURFACE('',#556,3.2);
#556 = AXIS2_PLACEMENT_3D('',#557,#558,#559);
#557 = CARTESIAN_POINT('',(22.5,44.,-15.2));
#558 = DIRECTION('',(0.,2.22044604925E-16,1.));
#559 = DIRECTION('',(0.,-1.,2.22044604925E-16));
#560 = ADVANCED_FACE('',(#561),#580,.F.);
#561 = FACE_BOUND('',#562,.F.);
#562 = EDGE_LOOP('',(#563,#571,#578,#579));
#563 = ORIENTED_EDGE('',*,*,#564,.T.);
#564 = EDGE_CURVE('',#376,#565,#567,.T.);
#565 = VERTEX_POINT('',#566);
#566 = CARTESIAN_POINT('',(22.5,144.8,11.8));
#567 = LINE('',#568,#569);
#568 = CARTESIAN_POINT('',(22.5,144.8,-15.2));
#569 = VECTOR('',#570,1.);
#570 = DIRECTION('',(0.,2.22044604925E-16,1.));
#571 = ORIENTED_EDGE('',*,*,#572,.F.);
#572 = EDGE_CURVE('',#565,#565,#573,.T.);
#573 = CIRCLE('',#574,3.2);
#574 = AXIS2_PLACEMENT_3D('',#575,#576,#577);
#575 = CARTESIAN_POINT('',(22.5,148.,11.8));
#576 = DIRECTION('',(-0.,2.22044604925E-16,1.));
#577 = DIRECTION('',(0.,-1.,2.22044604925E-16));
#578 = ORIENTED_EDGE('',*,*,#564,.F.);
#579 = ORIENTED_EDGE('',*,*,#375,.T.);
#580 = CYLINDRICAL_SURFACE('',#581,3.2);
#581 = AXIS2_PLACEMENT_3D('',#582,#583,#584);
#582 = CARTESIAN_POINT('',(22.5,148.,-15.2));
#583 = DIRECTION('',(0.,2.22044604925E-16,1.));
#584 = DIRECTION('',(0.,-1.,2.22044604925E-16));
#585 = ADVANCED_FACE('',(#586,#589),#592,.F.);
#586 = FACE_BOUND('',#587,.F.);
#587 = EDGE_LOOP('',(#588));
#588 = ORIENTED_EDGE('',*,*,#572,.T.);
#589 = FACE_BOUND('',#590,.F.);
#590 = EDGE_LOOP('',(#591));
#591 = ORIENTED_EDGE('',*,*,#469,.F.);
#592 = PLANE('',#593);
#593 = AXIS2_PLACEMENT_3D('',#594,#595,#596);
#594 = CARTESIAN_POINT('',(22.5,148.,11.8));
#595 = DIRECTION('',(0.,2.22044604925E-16,1.));
#596 = DIRECTION('',(0.,-1.,2.22044604925E-16));
#597 = ADVANCED_FACE('',(#598,#601),#604,.F.);
#598 = FACE_BOUND('',#599,.F.);
#599 = EDGE_LOOP('',(#600));
#600 = ORIENTED_EDGE('',*,*,#547,.T.);
#601 = FACE_BOUND('',#602,.F.);
#602 = EDGE_LOOP('',(#603));
#603 = ORIENTED_EDGE('',*,*,#494,.F.);
#604 = PLANE('',#605);
#605 = AXIS2_PLACEMENT_3D('',#606,#607,#608);
#606 = CARTESIAN_POINT('',(22.5,44.,11.8));
#607 = DIRECTION('',(0.,2.22044604925E-16,1.));
#608 = DIRECTION('',(0.,-1.,2.22044604925E-16));
#609 = ( GEOMETRIC_REPRESENTATION_CONTEXT(3) 
GLOBAL_UNCERTAINTY_ASSIGNED_CONTEXT((#613)) GLOBAL_UNIT_ASSIGNED_CONTEXT
((#610,#611,#612)) REPRESENTATION_CONTEXT('Context #1',
  '3D Context with UNIT and UNCERTAINTY') );
#610 = ( LENGTH_UNIT() NAMED_UNIT(*) SI_UNIT(.MILLI.,.METRE.) );
#611 = ( NAMED_UNIT(*) PLANE_ANGLE_UNIT() SI_UNIT($,.RADIAN.) );
#612 = ( NAMED_UNIT(*) SI_UNIT($,.STERADIAN.) SOLID_ANGLE_UNIT() );
#613 = UNCERTAINTY_MEASURE_WITH_UNIT(LENGTH_MEASURE(1.E-07),#610,
  'distance_accuracy_value','confusion accuracy');
#614 = PRODUCT_RELATED_PRODUCT_CATEGORY('part',$,(#7));
ENDSEC;
END-ISO-10303-21;
