ISO-10303-21;
HEADER;
FILE_DESCRIPTION(('FreeCAD Model'),'2;1');
FILE_NAME('Open CASCADE Shape Model','2026-10-01T10:29:55',('FreeCAD'),(
    'FreeCAD'),'Open CASCADE STEP processor 7.8','FreeCAD','Unknown');
FILE_SCHEMA(('AUTOMOTIVE_DESIGN { 1 0 10303 214 1 1 1 1 }'));
ENDSEC;
DATA;
#1 = APPLICATION_PROTOCOL_DEFINITION('international standard',
  'automotive_design',2000,#2);
#2 = APPLICATION_CONTEXT(
  'core data for automotive mechanical design processes');
#3 = SHAPE_DEFINITION_REPRESENTATION(#4,#10);
#4 = PRODUCT_DEFINITION_SHAPE('','',#5);
#5 = PRODUCT_DEFINITION('design','',#6,#9);
#6 = PRODUCT_DEFINITION_FORMATION('','',#7);
#7 = PRODUCT('Open CASCADE STEP translator 7.8 15',
  'Open CASCADE STEP translator 7.8 15','',(#8));
#8 = PRODUCT_CONTEXT('',#2,'mechanical');
#9 = PRODUCT_DEFINITION_CONTEXT('part definition',#2,'design');
#10 = ADVANCED_BREP_SHAPE_REPRESENTATION('',(#11,#15),#336);
#11 = AXIS2_PLACEMENT_3D('',#12,#13,#14);
#12 = CARTESIAN_POINT('',(0.,0.,0.));
#13 = DIRECTION('',(0.,0.,1.));
#14 = DIRECTION('',(1.,0.,-0.));
#15 = MANIFOLD_SOLID_BREP('',#16);
#16 = CLOSED_SHELL('',(#17,#57,#99,#123,#190,#207,#242,#259,#283,#307,
    #324));
#17 = ADVANCED_FACE('',(#18),#52,.F.);
#18 = FACE_BOUND('',#19,.F.);
#19 = EDGE_LOOP('',(#20,#30,#38,#46));
#20 = ORIENTED_EDGE('',*,*,#21,.F.);
#21 = EDGE_CURVE('',#22,#24,#26,.T.);
#22 = VERTEX_POINT('',#23);
#23 = CARTESIAN_POINT('',(0.,9.,0.));
#24 = VERTEX_POINT('',#25);
#25 = CARTESIAN_POINT('',(0.,0.,3.552713678801E-15));
#26 = LINE('',#27,#28);
#27 = CARTESIAN_POINT('',(0.,9.,0.));
#28 = VECTOR('',#29,1.);
#29 = DIRECTION('',(0.,-1.,2.22044604925E-16));
#30 = ORIENTED_EDGE('',*,*,#31,.T.);
#31 = EDGE_CURVE('',#22,#32,#34,.T.);
#32 = VERTEX_POINT('',#33);
#33 = CARTESIAN_POINT('',(0.,9.,3.));
#34 = LINE('',#35,#36);
#35 = CARTESIAN_POINT('',(0.,9.,0.));
#36 = VECTOR('',#37,1.);
#37 = DIRECTION('',(0.,2.22044604925E-16,1.));
#38 = ORIENTED_EDGE('',*,*,#39,.T.);
#39 = EDGE_CURVE('',#32,#40,#42,.T.);
#40 = VERTEX_POINT('',#41);
#41 = CARTESIAN_POINT('',(0.,0.,3.));
#42 = LINE('',#43,#44);
#43 = CARTESIAN_POINT('',(0.,9.,3.));
#44 = VECTOR('',#45,1.);
#45 = DIRECTION('',(0.,-1.,2.22044604925E-16));
#46 = ORIENTED_EDGE('',*,*,#47,.F.);
#47 = EDGE_CURVE('',#24,#40,#48,.T.);
#48 = LINE('',#49,#50);
#49 = CARTESIAN_POINT('',(0.,0.,3.552713678801E-15));
#50 = VECTOR('',#51,1.);
#51 = DIRECTION('',(0.,2.22044604925E-16,1.));
#52 = PLANE('',#53);
#53 = AXIS2_PLACEMENT_3D('',#54,#55,#56);
#54 = CARTESIAN_POINT('',(0.,9.,0.));
#55 = DIRECTION('',(1.,0.,0.));
#56 = DIRECTION('',(0.,-1.,2.22044604925E-16));
#57 = ADVANCED_FACE('',(#58,#83),#94,.F.);
#58 = FACE_BOUND('',#59,.F.);
#59 = EDGE_LOOP('',(#60,#68,#69,#77));
#60 = ORIENTED_EDGE('',*,*,#61,.F.);
#61 = EDGE_CURVE('',#22,#62,#64,.T.);
#62 = VERTEX_POINT('',#63);
#63 = CARTESIAN_POINT('',(28.5,9.,0.));
#64 = LINE('',#65,#66);
#65 = CARTESIAN_POINT('',(0.,9.,0.));
#66 = VECTOR('',#67,1.);
#67 = DIRECTION('',(1.,0.,0.));
#68 = ORIENTED_EDGE('',*,*,#21,.T.);
#69 = ORIENTED_EDGE('',*,*,#70,.T.);
#70 = EDGE_CURVE('',#24,#71,#73,.T.);
#71 = VERTEX_POINT('',#72);
#72 = CARTESIAN_POINT('',(28.5,0.,3.552713678801E-15));
#73 = LINE('',#74,#75);
#74 = CARTESIAN_POINT('',(0.,0.,3.552713678801E-15));
#75 = VECTOR('',#76,1.);
#76 = DIRECTION('',(1.,0.,0.));
#77 = ORIENTED_EDGE('',*,*,#78,.F.);
#78 = EDGE_CURVE('',#62,#71,#79,.T.);
#79 = LINE('',#80,#81);
#80 = CARTESIAN_POINT('',(28.5,9.,0.));
#81 = VECTOR('',#82,1.);
#82 = DIRECTION('',(0.,-1.,2.22044604925E-16));
#83 = FACE_BOUND('',#84,.F.);
#84 = EDGE_LOOP('',(#85));
#85 = ORIENTED_EDGE('',*,*,#86,.F.);
#86 = EDGE_CURVE('',#87,#87,#89,.T.);
#87 = VERTEX_POINT('',#88);
#88 = CARTESIAN_POINT('',(5.,3.2,3.552713678801E-15));
#89 = CIRCLE('',#90,1.8);
#90 = AXIS2_PLACEMENT_3D('',#91,#92,#93);
#91 = CARTESIAN_POINT('',(5.,5.,3.552713678801E-15));
#92 = DIRECTION('',(-0.,2.22044604925E-16,1.));
#93 = DIRECTION('',(0.,-1.,2.22044604925E-16));
#94 = PLANE('',#95);
#95 = AXIS2_PLACEMENT_3D('',#96,#97,#98);
#96 = CARTESIAN_POINT('',(0.,9.,0.));
#97 = DIRECTION('',(0.,2.22044604925E-16,1.));
#98 = DIRECTION('',(0.,-1.,2.22044604925E-16));
#99 = ADVANCED_FACE('',(#100),#118,.T.);
#100 = FACE_BOUND('',#101,.T.);
#101 = EDGE_LOOP('',(#102,#103,#104,#112));
#102 = ORIENTED_EDGE('',*,*,#47,.F.);
#103 = ORIENTED_EDGE('',*,*,#70,.T.);
#104 = ORIENTED_EDGE('',*,*,#105,.T.);
#105 = EDGE_CURVE('',#71,#106,#108,.T.);
#106 = VERTEX_POINT('',#107);
#107 = CARTESIAN_POINT('',(28.5,0.,3.));
#108 = LINE('',#109,#110);
#109 = CARTESIAN_POINT('',(28.5,0.,3.552713678801E-15));
#110 = VECTOR('',#111,1.);
#111 = DIRECTION('',(0.,2.22044604925E-16,1.));
#112 = ORIENTED_EDGE('',*,*,#113,.F.);
#113 = EDGE_CURVE('',#40,#106,#114,.T.);
#114 = LINE('',#115,#116);
#115 = CARTESIAN_POINT('',(0.,0.,3.));
#116 = VECTOR('',#117,1.);
#117 = DIRECTION('',(1.,0.,0.));
#118 = PLANE('',#119);
#119 = AXIS2_PLACEMENT_3D('',#120,#121,#122);
#120 = CARTESIAN_POINT('',(0.,0.,3.552713678801E-15));
#121 = DIRECTION('',(0.,-1.,2.22044604925E-16));
#122 = DIRECTION('',(1.,0.,0.));
#123 = ADVANCED_FACE('',(#124,#174),#185,.T.);
#124 = FACE_BOUND('',#125,.T.);
#125 = EDGE_LOOP('',(#126,#136,#142,#143,#144,#152,#160,#168));
#126 = ORIENTED_EDGE('',*,*,#127,.F.);
#127 = EDGE_CURVE('',#128,#130,#132,.T.);
#128 = VERTEX_POINT('',#129);
#129 = CARTESIAN_POINT('',(28.5,9.,3.));
#130 = VERTEX_POINT('',#131);
#131 = CARTESIAN_POINT('',(28.5,3.7,3.));
#132 = LINE('',#133,#134);
#133 = CARTESIAN_POINT('',(28.5,9.,3.));
#134 = VECTOR('',#135,1.);
#135 = DIRECTION('',(0.,-1.,2.22044604925E-16));
#136 = ORIENTED_EDGE('',*,*,#137,.F.);
#137 = EDGE_CURVE('',#32,#128,#138,.T.);
#138 = LINE('',#139,#140);
#139 = CARTESIAN_POINT('',(0.,9.,3.));
#140 = VECTOR('',#141,1.);
#141 = DIRECTION('',(1.,0.,0.));
#142 = ORIENTED_EDGE('',*,*,#39,.T.);
#143 = ORIENTED_EDGE('',*,*,#113,.T.);
#144 = ORIENTED_EDGE('',*,*,#145,.F.);
#145 = EDGE_CURVE('',#146,#106,#148,.T.);
#146 = VERTEX_POINT('',#147);
#147 = CARTESIAN_POINT('',(28.5,0.7,3.));
#148 = LINE('',#149,#150);
#149 = CARTESIAN_POINT('',(28.5,9.,3.));
#150 = VECTOR('',#151,1.);
#151 = DIRECTION('',(0.,-1.,2.22044604925E-16));
#152 = ORIENTED_EDGE('',*,*,#153,.F.);
#153 = EDGE_CURVE('',#154,#146,#156,.T.);
#154 = VERTEX_POINT('',#155);
#155 = CARTESIAN_POINT('',(23.5,0.7,3.));
#156 = LINE('',#157,#158);
#157 = CARTESIAN_POINT('',(23.5,0.7,3.));
#158 = VECTOR('',#159,1.);
#159 = DIRECTION('',(1.,0.,0.));
#160 = ORIENTED_EDGE('',*,*,#161,.F.);
#161 = EDGE_CURVE('',#162,#154,#164,.T.);
#162 = VERTEX_POINT('',#163);
#163 = CARTESIAN_POINT('',(23.5,3.7,3.));
#164 = LINE('',#165,#166);
#165 = CARTESIAN_POINT('',(23.5,3.7,3.));
#166 = VECTOR('',#167,1.);
#167 = DIRECTION('',(0.,-1.,2.22044604925E-16));
#168 = ORIENTED_EDGE('',*,*,#169,.T.);
#169 = EDGE_CURVE('',#162,#130,#170,.T.);
#170 = LINE('',#171,#172);
#171 = CARTESIAN_POINT('',(23.5,3.7,3.));
#172 = VECTOR('',#173,1.);
#173 = DIRECTION('',(1.,0.,0.));
#174 = FACE_BOUND('',#175,.T.);
#175 = EDGE_LOOP('',(#176));
#176 = ORIENTED_EDGE('',*,*,#177,.F.);
#177 = EDGE_CURVE('',#178,#178,#180,.T.);
#178 = VERTEX_POINT('',#179);
#179 = CARTESIAN_POINT('',(5.,3.2,3.));
#180 = CIRCLE('',#181,1.8);
#181 = AXIS2_PLACEMENT_3D('',#182,#183,#184);
#182 = CARTESIAN_POINT('',(5.,5.,3.));
#183 = DIRECTION('',(-0.,2.22044604925E-16,1.));
#184 = DIRECTION('',(0.,-1.,2.22044604925E-16));
#185 = PLANE('',#186);
#186 = AXIS2_PLACEMENT_3D('',#187,#188,#189);
#187 = CARTESIAN_POINT('',(0.,9.,3.));
#188 = DIRECTION('',(0.,2.22044604925E-16,1.));
#189 = DIRECTION('',(0.,-1.,2.22044604925E-16));
#190 = ADVANCED_FACE('',(#191),#202,.F.);
#191 = FACE_BOUND('',#192,.F.);
#192 = EDGE_LOOP('',(#193,#194,#195,#201));
#193 = ORIENTED_EDGE('',*,*,#31,.F.);
#194 = ORIENTED_EDGE('',*,*,#61,.T.);
#195 = ORIENTED_EDGE('',*,*,#196,.T.);
#196 = EDGE_CURVE('',#62,#128,#197,.T.);
#197 = LINE('',#198,#199);
#198 = CARTESIAN_POINT('',(28.5,9.,0.));
#199 = VECTOR('',#200,1.);
#200 = DIRECTION('',(0.,2.22044604925E-16,1.));
#201 = ORIENTED_EDGE('',*,*,#137,.F.);
#202 = PLANE('',#203);
#203 = AXIS2_PLACEMENT_3D('',#204,#205,#206);
#204 = CARTESIAN_POINT('',(0.,9.,0.));
#205 = DIRECTION('',(0.,-1.,2.22044604925E-16));
#206 = DIRECTION('',(1.,0.,0.));
#207 = ADVANCED_FACE('',(#208),#237,.T.);
#208 = FACE_BOUND('',#209,.T.);
#209 = EDGE_LOOP('',(#210,#211,#212,#213,#221,#229,#235,#236));
#210 = ORIENTED_EDGE('',*,*,#78,.F.);
#211 = ORIENTED_EDGE('',*,*,#196,.T.);
#212 = ORIENTED_EDGE('',*,*,#127,.T.);
#213 = ORIENTED_EDGE('',*,*,#214,.T.);
#214 = EDGE_CURVE('',#130,#215,#217,.T.);
#215 = VERTEX_POINT('',#216);
#216 = CARTESIAN_POINT('',(28.5,3.7,9.));
#217 = LINE('',#218,#219);
#218 = CARTESIAN_POINT('',(28.5,3.7,3.));
#219 = VECTOR('',#220,1.);
#220 = DIRECTION('',(0.,2.22044604925E-16,1.));
#221 = ORIENTED_EDGE('',*,*,#222,.T.);
#222 = EDGE_CURVE('',#215,#223,#225,.T.);
#223 = VERTEX_POINT('',#224);
#224 = CARTESIAN_POINT('',(28.5,0.7,9.));
#225 = LINE('',#226,#227);
#226 = CARTESIAN_POINT('',(28.5,3.7,9.));
#227 = VECTOR('',#228,1.);
#228 = DIRECTION('',(0.,-1.,2.22044604925E-16));
#229 = ORIENTED_EDGE('',*,*,#230,.F.);
#230 = EDGE_CURVE('',#146,#223,#231,.T.);
#231 = LINE('',#232,#233);
#232 = CARTESIAN_POINT('',(28.5,0.7,3.));
#233 = VECTOR('',#234,1.);
#234 = DIRECTION('',(0.,2.22044604925E-16,1.));
#235 = ORIENTED_EDGE('',*,*,#145,.T.);
#236 = ORIENTED_EDGE('',*,*,#105,.F.);
#237 = PLANE('',#238);
#238 = AXIS2_PLACEMENT_3D('',#239,#240,#241);
#239 = CARTESIAN_POINT('',(28.5,3.733333333333,3.5));
#240 = DIRECTION('',(1.,0.,0.));
#241 = DIRECTION('',(0.,-1.,2.22044604925E-16));
#242 = ADVANCED_FACE('',(#243),#254,.F.);
#243 = FACE_BOUND('',#244,.F.);
#244 = EDGE_LOOP('',(#245,#246,#252,#253));
#245 = ORIENTED_EDGE('',*,*,#177,.F.);
#246 = ORIENTED_EDGE('',*,*,#247,.F.);
#247 = EDGE_CURVE('',#87,#178,#248,.T.);
#248 = LINE('',#249,#250);
#249 = CARTESIAN_POINT('',(5.,3.2,-1.E-01));
#250 = VECTOR('',#251,1.);
#251 = DIRECTION('',(0.,2.22044604925E-16,1.));
#252 = ORIENTED_EDGE('',*,*,#86,.T.);
#253 = ORIENTED_EDGE('',*,*,#247,.T.);
#254 = CYLINDRICAL_SURFACE('',#255,1.8);
#255 = AXIS2_PLACEMENT_3D('',#256,#257,#258);
#256 = CARTESIAN_POINT('',(5.,5.,-1.E-01));
#257 = DIRECTION('',(0.,2.22044604925E-16,1.));
#258 = DIRECTION('',(0.,-1.,2.22044604925E-16));
#259 = ADVANCED_FACE('',(#260),#278,.F.);
#260 = FACE_BOUND('',#261,.F.);
#261 = EDGE_LOOP('',(#262,#270,#271,#272));
#262 = ORIENTED_EDGE('',*,*,#263,.F.);
#263 = EDGE_CURVE('',#162,#264,#266,.T.);
#264 = VERTEX_POINT('',#265);
#265 = CARTESIAN_POINT('',(23.5,3.7,9.));
#266 = LINE('',#267,#268);
#267 = CARTESIAN_POINT('',(23.5,3.7,3.));
#268 = VECTOR('',#269,1.);
#269 = DIRECTION('',(0.,2.22044604925E-16,1.));
#270 = ORIENTED_EDGE('',*,*,#169,.T.);
#271 = ORIENTED_EDGE('',*,*,#214,.T.);
#272 = ORIENTED_EDGE('',*,*,#273,.F.);
#273 = EDGE_CURVE('',#264,#215,#274,.T.);
#274 = LINE('',#275,#276);
#275 = CARTESIAN_POINT('',(23.5,3.7,9.));
#276 = VECTOR('',#277,1.);
#277 = DIRECTION('',(1.,0.,0.));
#278 = PLANE('',#279);
#279 = AXIS2_PLACEMENT_3D('',#280,#281,#282);
#280 = CARTESIAN_POINT('',(23.5,3.7,3.));
#281 = DIRECTION('',(0.,-1.,2.22044604925E-16));
#282 = DIRECTION('',(1.,0.,0.));
#283 = ADVANCED_FACE('',(#284),#302,.F.);
#284 = FACE_BOUND('',#285,.F.);
#285 = EDGE_LOOP('',(#286,#287,#288,#296));
#286 = ORIENTED_EDGE('',*,*,#161,.F.);
#287 = ORIENTED_EDGE('',*,*,#263,.T.);
#288 = ORIENTED_EDGE('',*,*,#289,.T.);
#289 = EDGE_CURVE('',#264,#290,#292,.T.);
#290 = VERTEX_POINT('',#291);
#291 = CARTESIAN_POINT('',(23.5,0.7,9.));
#292 = LINE('',#293,#294);
#293 = CARTESIAN_POINT('',(23.5,3.7,9.));
#294 = VECTOR('',#295,1.);
#295 = DIRECTION('',(0.,-1.,2.22044604925E-16));
#296 = ORIENTED_EDGE('',*,*,#297,.F.);
#297 = EDGE_CURVE('',#154,#290,#298,.T.);
#298 = LINE('',#299,#300);
#299 = CARTESIAN_POINT('',(23.5,0.7,3.));
#300 = VECTOR('',#301,1.);
#301 = DIRECTION('',(0.,2.22044604925E-16,1.));
#302 = PLANE('',#303);
#303 = AXIS2_PLACEMENT_3D('',#304,#305,#306);
#304 = CARTESIAN_POINT('',(23.5,3.7,3.));
#305 = DIRECTION('',(1.,0.,0.));
#306 = DIRECTION('',(0.,-1.,2.22044604925E-16));
#307 = ADVANCED_FACE('',(#308),#319,.T.);
#308 = FACE_BOUND('',#309,.T.);
#309 = EDGE_LOOP('',(#310,#311,#312,#313));
#310 = ORIENTED_EDGE('',*,*,#297,.F.);
#311 = ORIENTED_EDGE('',*,*,#153,.T.);
#312 = ORIENTED_EDGE('',*,*,#230,.T.);
#313 = ORIENTED_EDGE('',*,*,#314,.F.);
#314 = EDGE_CURVE('',#290,#223,#315,.T.);
#315 = LINE('',#316,#317);
#316 = CARTESIAN_POINT('',(23.5,0.7,9.));
#317 = VECTOR('',#318,1.);
#318 = DIRECTION('',(1.,0.,0.));
#319 = PLANE('',#320);
#320 = AXIS2_PLACEMENT_3D('',#321,#322,#323);
#321 = CARTESIAN_POINT('',(23.5,0.7,3.));
#322 = DIRECTION('',(0.,-1.,2.22044604925E-16));
#323 = DIRECTION('',(1.,0.,0.));
#324 = ADVANCED_FACE('',(#325),#331,.T.);
#325 = FACE_BOUND('',#326,.T.);
#326 = EDGE_LOOP('',(#327,#328,#329,#330));
#327 = ORIENTED_EDGE('',*,*,#273,.F.);
#328 = ORIENTED_EDGE('',*,*,#289,.T.);
#329 = ORIENTED_EDGE('',*,*,#314,.T.);
#330 = ORIENTED_EDGE('',*,*,#222,.F.);
#331 = PLANE('',#332);
#332 = AXIS2_PLACEMENT_3D('',#333,#334,#335);
#333 = CARTESIAN_POINT('',(23.5,3.7,9.));
#334 = DIRECTION('',(0.,2.22044604925E-16,1.));
#335 = DIRECTION('',(0.,-1.,2.22044604925E-16));
#336 = ( GEOMETRIC_REPRESENTATION_CONTEXT(3) 
GLOBAL_UNCERTAINTY_ASSIGNED_CONTEXT((#340)) GLOBAL_UNIT_ASSIGNED_CONTEXT
((#337,#338,#339)) REPRESENTATION_CONTEXT('Context #1',
  '3D Context with UNIT and UNCERTAINTY') );
#337 = ( LENGTH_UNIT() NAMED_UNIT(*) SI_UNIT(.MILLI.,.METRE.) );
#338 = ( NAMED_UNIT(*) PLANE_ANGLE_UNIT() SI_UNIT($,.RADIAN.) );
#339 = ( NAMED_UNIT(*) SI_UNIT($,.STERADIAN.) SOLID_ANGLE_UNIT() );
#340 = UNCERTAINTY_MEASURE_WITH_UNIT(LENGTH_MEASURE(1.E-07),#337,
  'distance_accuracy_value','confusion accuracy');
#341 = PRODUCT_RELATED_PRODUCT_CATEGORY('part',$,(#7));
ENDSEC;
END-ISO-10303-21;
