ISO-10303-21;
HEADER;
FILE_DESCRIPTION(('FreeCAD Model'),'2;1');
FILE_NAME('Open CASCADE Shape Model','2026-10-01T10:29:56',('FreeCAD'),(
    'FreeCAD'),'Open CASCADE STEP processor 7.8','FreeCAD','Unknown');
FILE_SCHEMA(('AUTOMOTIVE_DESIGN { 1 0 10303 214 1 1 1 1 }'));
ENDSEC;
DATA;
#1 = APPLICATION_PROTOCOL_DEFINITION('international standard',
  'automotive_design',2000,#2);
#2 = APPLICATION_CONTEXT(
  'core data for automotive mechanical design processes');
#3 = SHAPE_DEFINITION_REPRESENTATION(#4,#10);
#4 = PRODUCT_DEFINITION_SHAPE('','',#5);
#5 = PRODUCT_DEFINITION('design','',#6,#9);
#6 = PRODUCT_DEFINITION_FORMATION('','',#7);
#7 = PRODUCT('Open CASCADE STEP translator 7.8 19',
  'Open CASCADE STEP translator 7.8 19','',(#8));
#8 = PRODUCT_CONTEXT('',#2,'mechanical');
#9 = PRODUCT_DEFINITION_CONTEXT('part definition',#2,'design');
#10 = ADVANCED_BREP_SHAPE_REPRESENTATION('',(#11,#15),#937);
#11 = AXIS2_PLACEMENT_3D('',#12,#13,#14);
#12 = CARTESIAN_POINT('',(0.,0.,0.));
#13 = DIRECTION('',(0.,0.,1.));
#14 = DIRECTION('',(1.,0.,-0.));
#15 = MANIFOLD_SOLID_BREP('',#16);
#16 = CLOSED_SHELL('',(#17,#84,#163,#187,#211,#267,#330,#370,#395,#419,
    #443,#467,#491,#508,#572,#596,#620,#637,#669,#693,#718,#735,#794,
    #806,#828,#845,#862,#879,#896,#908,#925));
#17 = ADVANCED_FACE('',(#18,#68),#79,.T.);
#18 = FACE_BOUND('',#19,.T.);
#19 = EDGE_LOOP('',(#20,#30,#38,#46,#54,#62));
#20 = ORIENTED_EDGE('',*,*,#21,.T.);
#21 = EDGE_CURVE('',#22,#24,#26,.T.);
#22 = VERTEX_POINT('',#23);
#23 = CARTESIAN_POINT('',(1.42108547152E-14,37.,5.995204332976E-15));
#24 = VERTEX_POINT('',#25);
#25 = CARTESIAN_POINT('',(1.42108547152E-14,57.,1.554312234475E-15));
#26 = LINE('',#27,#28);
#27 = CARTESIAN_POINT('',(1.42108547152E-14,61.,6.661338147751E-16));
#28 = VECTOR('',#29,1.);
#29 = DIRECTION('',(-2.22044604925E-16,1.,-2.22044604925E-16));
#30 = ORIENTED_EDGE('',*,*,#31,.T.);
#31 = EDGE_CURVE('',#24,#32,#34,.T.);
#32 = VERTEX_POINT('',#33);
#33 = CARTESIAN_POINT('',(56.75,57.,1.415534356397E-14));
#34 = LINE('',#35,#36);
#35 = CARTESIAN_POINT('',(-126.75,57.,-2.6645352591E-14));
#36 = VECTOR('',#37,1.);
#37 = DIRECTION('',(1.,2.22044604925E-16,2.22044604925E-16));
#38 = ORIENTED_EDGE('',*,*,#39,.T.);
#39 = EDGE_CURVE('',#32,#40,#42,.T.);
#40 = VERTEX_POINT('',#41);
#41 = CARTESIAN_POINT('',(56.75,1.42108547152E-14,2.68118860447E-14));
#42 = LINE('',#43,#44);
#43 = CARTESIAN_POINT('',(56.75,57.,1.42108547152E-14));
#44 = VECTOR('',#45,1.);
#45 = DIRECTION('',(2.22044604925E-16,-1.,2.22044604925E-16));
#46 = ORIENTED_EDGE('',*,*,#47,.T.);
#47 = EDGE_CURVE('',#40,#48,#50,.T.);
#48 = VERTEX_POINT('',#49);
#49 = CARTESIAN_POINT('',(36.75,1.42108547152E-14,2.23709939462E-14));
#50 = LINE('',#51,#52);
#51 = CARTESIAN_POINT('',(-18.375,0.,1.01307850997E-14));
#52 = VECTOR('',#53,1.);
#53 = DIRECTION('',(-1.,-2.22044604925E-16,-2.22044604925E-16));
#54 = ORIENTED_EDGE('',*,*,#55,.F.);
#55 = EDGE_CURVE('',#56,#48,#58,.T.);
#56 = VERTEX_POINT('',#57);
#57 = CARTESIAN_POINT('',(36.75,37.,1.415534356397E-14));
#58 = LINE('',#59,#60);
#59 = CARTESIAN_POINT('',(36.75,47.,1.15463194561E-14));
#60 = VECTOR('',#61,1.);
#61 = DIRECTION('',(2.22044604925E-16,-1.,2.22044604925E-16));
#62 = ORIENTED_EDGE('',*,*,#63,.T.);
#63 = EDGE_CURVE('',#56,#22,#64,.T.);
#64 = LINE('',#65,#66);
#65 = CARTESIAN_POINT('',(-116.75,37.,-2.04281036531E-14));
#66 = VECTOR('',#67,1.);
#67 = DIRECTION('',(-1.,-2.22044604925E-16,-2.22044604925E-16));
#68 = FACE_BOUND('',#69,.T.);
#69 = EDGE_LOOP('',(#70));
#70 = ORIENTED_EDGE('',*,*,#71,.F.);
#71 = EDGE_CURVE('',#72,#72,#74,.T.);
#72 = VERTEX_POINT('',#73);
#73 = CARTESIAN_POINT('',(48.55,47.,1.455502385284E-14));
#74 = CIRCLE('',#75,1.8);
#75 = AXIS2_PLACEMENT_3D('',#76,#77,#78);
#76 = CARTESIAN_POINT('',(46.75,47.,1.42108547152E-14));
#77 = DIRECTION('',(2.22044604925E-16,-2.22044604925E-16,-1.));
#78 = DIRECTION('',(1.,2.22044604925E-16,2.22044604925E-16));
#79 = PLANE('',#80);
#80 = AXIS2_PLACEMENT_3D('',#81,#82,#83);
#81 = CARTESIAN_POINT('',(-126.75,57.,-2.6645352591E-14));
#82 = DIRECTION('',(2.22044604925E-16,-2.22044604925E-16,-1.));
#83 = DIRECTION('',(1.,2.22044604925E-16,2.22044604925E-16));
#84 = ADVANCED_FACE('',(#85),#158,.T.);
#85 = FACE_BOUND('',#86,.T.);
#86 = EDGE_LOOP('',(#87,#88,#96,#104,#112,#120,#128,#136,#144,#152));
#87 = ORIENTED_EDGE('',*,*,#21,.F.);
#88 = ORIENTED_EDGE('',*,*,#89,.F.);
#89 = EDGE_CURVE('',#90,#22,#92,.T.);
#90 = VERTEX_POINT('',#91);
#91 = CARTESIAN_POINT('',(1.42108547152E-14,37.,8.));
#92 = LINE('',#93,#94);
#93 = CARTESIAN_POINT('',(1.42108547152E-14,37.,-8.));
#94 = VECTOR('',#95,1.);
#95 = DIRECTION('',(2.22044604925E-16,-2.22044604925E-16,-1.));
#96 = ORIENTED_EDGE('',*,*,#97,.T.);
#97 = EDGE_CURVE('',#90,#98,#100,.T.);
#98 = VERTEX_POINT('',#99);
#99 = CARTESIAN_POINT('',(1.42108547152E-14,57.,8.));
#100 = LINE('',#101,#102);
#101 = CARTESIAN_POINT('',(1.42108547152E-14,61.,8.));
#102 = VECTOR('',#103,1.);
#103 = DIRECTION('',(-2.22044604925E-16,1.,-2.22044604925E-16));
#104 = ORIENTED_EDGE('',*,*,#105,.T.);
#105 = EDGE_CURVE('',#98,#106,#108,.T.);
#106 = VERTEX_POINT('',#107);
#107 = CARTESIAN_POINT('',(1.42108547152E-14,57.,6.));
#108 = LINE('',#109,#110);
#109 = CARTESIAN_POINT('',(1.42108547152E-14,57.,-8.5));
#110 = VECTOR('',#111,1.);
#111 = DIRECTION('',(2.22044604925E-16,-2.22044604925E-16,-1.));
#112 = ORIENTED_EDGE('',*,*,#113,.T.);
#113 = EDGE_CURVE('',#106,#114,#116,.T.);
#114 = VERTEX_POINT('',#115);
#115 = CARTESIAN_POINT('',(1.42108547152E-14,59.6,6.));
#116 = LINE('',#117,#118);
#117 = CARTESIAN_POINT('',(1.42108547152E-14,62.5,6.));
#118 = VECTOR('',#119,1.);
#119 = DIRECTION('',(-2.22044604925E-16,1.,-2.22044604925E-16));
#120 = ORIENTED_EDGE('',*,*,#121,.T.);
#121 = EDGE_CURVE('',#114,#122,#124,.T.);
#122 = VERTEX_POINT('',#123);
#123 = CARTESIAN_POINT('',(1.42108547152E-14,60.,5.6));
#124 = LINE('',#125,#126);
#125 = CARTESIAN_POINT('',(2.84217094304E-14,68.8,-3.2));
#126 = VECTOR('',#127,1.);
#127 = DIRECTION('',(0.,0.707106781187,-0.707106781187));
#128 = ORIENTED_EDGE('',*,*,#129,.T.);
#129 = EDGE_CURVE('',#122,#130,#132,.T.);
#130 = VERTEX_POINT('',#131);
#131 = CARTESIAN_POINT('',(1.42108547152E-14,60.,2.4));
#132 = LINE('',#133,#134);
#133 = CARTESIAN_POINT('',(1.42108547152E-14,60.,-9.5));
#134 = VECTOR('',#135,1.);
#135 = DIRECTION('',(2.22044604925E-16,-2.22044604925E-16,-1.));
#136 = ORIENTED_EDGE('',*,*,#137,.F.);
#137 = EDGE_CURVE('',#138,#130,#140,.T.);
#138 = VERTEX_POINT('',#139);
#139 = CARTESIAN_POINT('',(1.42108547152E-14,59.6,2.));
#140 = LINE('',#141,#142);
#141 = CARTESIAN_POINT('',(1.42108547152E-14,54.3,-3.3));
#142 = VECTOR('',#143,1.);
#143 = DIRECTION('',(-3.140184917368E-16,0.707106781187,0.707106781187)
  );
#144 = ORIENTED_EDGE('',*,*,#145,.F.);
#145 = EDGE_CURVE('',#146,#138,#148,.T.);
#146 = VERTEX_POINT('',#147);
#147 = CARTESIAN_POINT('',(1.42108547152E-14,57.,2.));
#148 = LINE('',#149,#150);
#149 = CARTESIAN_POINT('',(1.42108547152E-14,62.5,2.));
#150 = VECTOR('',#151,1.);
#151 = DIRECTION('',(-2.22044604925E-16,1.,-2.22044604925E-16));
#152 = ORIENTED_EDGE('',*,*,#153,.T.);
#153 = EDGE_CURVE('',#146,#24,#154,.T.);
#154 = LINE('',#155,#156);
#155 = CARTESIAN_POINT('',(1.42108547152E-14,57.,-8.5));
#156 = VECTOR('',#157,1.);
#157 = DIRECTION('',(2.22044604925E-16,-2.22044604925E-16,-1.));
#158 = PLANE('',#159);
#159 = AXIS2_PLACEMENT_3D('',#160,#161,#162);
#160 = CARTESIAN_POINT('',(1.42108547152E-14,65.,-25.));
#161 = DIRECTION('',(-1.,-2.22044604925E-16,-2.22044604925E-16));
#162 = DIRECTION('',(2.22044604925E-16,-1.,2.22044604925E-16));
#163 = ADVANCED_FACE('',(#164),#182,.T.);
#164 = FACE_BOUND('',#165,.T.);
#165 = EDGE_LOOP('',(#166,#174,#180,#181));
#166 = ORIENTED_EDGE('',*,*,#167,.F.);
#167 = EDGE_CURVE('',#168,#56,#170,.T.);
#168 = VERTEX_POINT('',#169);
#169 = CARTESIAN_POINT('',(36.75,37.,8.));
#170 = LINE('',#171,#172);
#171 = CARTESIAN_POINT('',(36.75,37.,9.));
#172 = VECTOR('',#173,1.);
#173 = DIRECTION('',(2.22044604925E-16,-2.22044604925E-16,-1.));
#174 = ORIENTED_EDGE('',*,*,#175,.T.);
#175 = EDGE_CURVE('',#168,#90,#176,.T.);
#176 = LINE('',#177,#178);
#177 = CARTESIAN_POINT('',(-116.75,37.,8.));
#178 = VECTOR('',#179,1.);
#179 = DIRECTION('',(-1.,-2.22044604925E-16,-2.22044604925E-16));
#180 = ORIENTED_EDGE('',*,*,#89,.T.);
#181 = ORIENTED_EDGE('',*,*,#63,.F.);
#182 = PLANE('',#183);
#183 = AXIS2_PLACEMENT_3D('',#184,#185,#186);
#184 = CARTESIAN_POINT('',(-106.75,37.,9.));
#185 = DIRECTION('',(2.22044604925E-16,-1.,2.22044604925E-16));
#186 = DIRECTION('',(2.22044604925E-16,-2.22044604925E-16,-1.));
#187 = ADVANCED_FACE('',(#188),#206,.F.);
#188 = FACE_BOUND('',#189,.F.);
#189 = EDGE_LOOP('',(#190,#191,#199,#205));
#190 = ORIENTED_EDGE('',*,*,#167,.F.);
#191 = ORIENTED_EDGE('',*,*,#192,.T.);
#192 = EDGE_CURVE('',#168,#193,#195,.T.);
#193 = VERTEX_POINT('',#194);
#194 = CARTESIAN_POINT('',(36.75,1.42108547152E-14,8.));
#195 = LINE('',#196,#197);
#196 = CARTESIAN_POINT('',(36.75,47.,8.));
#197 = VECTOR('',#198,1.);
#198 = DIRECTION('',(2.22044604925E-16,-1.,2.22044604925E-16));
#199 = ORIENTED_EDGE('',*,*,#200,.T.);
#200 = EDGE_CURVE('',#193,#48,#201,.T.);
#201 = LINE('',#202,#203);
#202 = CARTESIAN_POINT('',(36.75,0.,-8.));
#203 = VECTOR('',#204,1.);
#204 = DIRECTION('',(2.22044604925E-16,-2.22044604925E-16,-1.));
#205 = ORIENTED_EDGE('',*,*,#55,.F.);
#206 = PLANE('',#207);
#207 = AXIS2_PLACEMENT_3D('',#208,#209,#210);
#208 = CARTESIAN_POINT('',(36.75,37.,9.));
#209 = DIRECTION('',(1.,2.22044604925E-16,2.22044604925E-16));
#210 = DIRECTION('',(2.22044604925E-16,-2.22044604925E-16,-1.));
#211 = ADVANCED_FACE('',(#212),#262,.T.);
#212 = FACE_BOUND('',#213,.T.);
#213 = EDGE_LOOP('',(#214,#215,#223,#231,#239,#247,#255,#261));
#214 = ORIENTED_EDGE('',*,*,#47,.F.);
#215 = ORIENTED_EDGE('',*,*,#216,.F.);
#216 = EDGE_CURVE('',#217,#40,#219,.T.);
#217 = VERTEX_POINT('',#218);
#218 = CARTESIAN_POINT('',(56.75,1.42108547152E-14,2.));
#219 = LINE('',#220,#221);
#220 = CARTESIAN_POINT('',(56.75,1.42108547152E-14,-8.5));
#221 = VECTOR('',#222,1.);
#222 = DIRECTION('',(2.22044604925E-16,-2.22044604925E-16,-1.));
#223 = ORIENTED_EDGE('',*,*,#224,.T.);
#224 = EDGE_CURVE('',#217,#225,#227,.T.);
#225 = VERTEX_POINT('',#226);
#226 = CARTESIAN_POINT('',(60.75,1.42108547152E-14,2.));
#227 = LINE('',#228,#229);
#228 = CARTESIAN_POINT('',(75.375,1.42108547152E-14,2.));
#229 = VECTOR('',#230,1.);
#230 = DIRECTION('',(1.,2.22044604925E-16,2.22044604925E-16));
#231 = ORIENTED_EDGE('',*,*,#232,.T.);
#232 = EDGE_CURVE('',#225,#233,#235,.T.);
#233 = VERTEX_POINT('',#234);
#234 = CARTESIAN_POINT('',(60.75,1.42108547152E-14,6.));
#235 = LINE('',#236,#237);
#236 = CARTESIAN_POINT('',(60.75,1.42108547152E-14,-11.5));
#237 = VECTOR('',#238,1.);
#238 = DIRECTION('',(-2.22044604925E-16,2.22044604925E-16,1.));
#239 = ORIENTED_EDGE('',*,*,#240,.F.);
#240 = EDGE_CURVE('',#241,#233,#243,.T.);
#241 = VERTEX_POINT('',#242);
#242 = CARTESIAN_POINT('',(56.75,1.42108547152E-14,6.));
#243 = LINE('',#244,#245);
#244 = CARTESIAN_POINT('',(75.375,1.42108547152E-14,6.));
#245 = VECTOR('',#246,1.);
#246 = DIRECTION('',(1.,2.22044604925E-16,2.22044604925E-16));
#247 = ORIENTED_EDGE('',*,*,#248,.F.);
#248 = EDGE_CURVE('',#249,#241,#251,.T.);
#249 = VERTEX_POINT('',#250);
#250 = CARTESIAN_POINT('',(56.75,1.42108547152E-14,8.));
#251 = LINE('',#252,#253);
#252 = CARTESIAN_POINT('',(56.75,1.42108547152E-14,-8.5));
#253 = VECTOR('',#254,1.);
#254 = DIRECTION('',(2.22044604925E-16,-2.22044604925E-16,-1.));
#255 = ORIENTED_EDGE('',*,*,#256,.T.);
#256 = EDGE_CURVE('',#249,#193,#257,.T.);
#257 = LINE('',#258,#259);
#258 = CARTESIAN_POINT('',(-18.375,0.,8.));
#259 = VECTOR('',#260,1.);
#260 = DIRECTION('',(-1.,-2.22044604925E-16,-2.22044604925E-16));
#261 = ORIENTED_EDGE('',*,*,#200,.T.);
#262 = PLANE('',#263);
#263 = AXIS2_PLACEMENT_3D('',#264,#265,#266);
#264 = CARTESIAN_POINT('',(90.,1.42108547152E-14,-25.));
#265 = DIRECTION('',(2.22044604925E-16,-1.,2.22044604925E-16));
#266 = DIRECTION('',(-2.22044604925E-16,2.22044604925E-16,1.));
#267 = ADVANCED_FACE('',(#268),#325,.T.);
#268 = FACE_BOUND('',#269,.T.);
#269 = EDGE_LOOP('',(#270,#271,#279,#285,#286,#294,#302,#310,#318,#324)
  );
#270 = ORIENTED_EDGE('',*,*,#39,.F.);
#271 = ORIENTED_EDGE('',*,*,#272,.F.);
#272 = EDGE_CURVE('',#273,#32,#275,.T.);
#273 = VERTEX_POINT('',#274);
#274 = CARTESIAN_POINT('',(56.75,57.,8.));
#275 = LINE('',#276,#277);
#276 = CARTESIAN_POINT('',(56.75,57.,8.));
#277 = VECTOR('',#278,1.);
#278 = DIRECTION('',(2.22044604925E-16,-2.22044604925E-16,-1.));
#279 = ORIENTED_EDGE('',*,*,#280,.T.);
#280 = EDGE_CURVE('',#273,#249,#281,.T.);
#281 = LINE('',#282,#283);
#282 = CARTESIAN_POINT('',(56.75,57.,8.));
#283 = VECTOR('',#284,1.);
#284 = DIRECTION('',(2.22044604925E-16,-1.,2.22044604925E-16));
#285 = ORIENTED_EDGE('',*,*,#248,.T.);
#286 = ORIENTED_EDGE('',*,*,#287,.F.);
#287 = EDGE_CURVE('',#288,#241,#290,.T.);
#288 = VERTEX_POINT('',#289);
#289 = CARTESIAN_POINT('',(56.75,40.35,6.));
#290 = LINE('',#291,#292);
#291 = CARTESIAN_POINT('',(56.75,48.875,6.));
#292 = VECTOR('',#293,1.);
#293 = DIRECTION('',(2.22044604925E-16,-1.,2.22044604925E-16));
#294 = ORIENTED_EDGE('',*,*,#295,.T.);
#295 = EDGE_CURVE('',#288,#296,#298,.T.);
#296 = VERTEX_POINT('',#297);
#297 = CARTESIAN_POINT('',(56.75,40.6,5.75));
#298 = LINE('',#299,#300);
#299 = CARTESIAN_POINT('',(56.75,44.1125,2.2375));
#300 = VECTOR('',#301,1.);
#301 = DIRECTION('',(6.902532920684E-31,0.707106781187,-0.707106781187)
  );
#302 = ORIENTED_EDGE('',*,*,#303,.F.);
#303 = EDGE_CURVE('',#304,#296,#306,.T.);
#304 = VERTEX_POINT('',#305);
#305 = CARTESIAN_POINT('',(56.75,40.6,2.25));
#306 = LINE('',#307,#308);
#307 = CARTESIAN_POINT('',(56.75,40.6,5.));
#308 = VECTOR('',#309,1.);
#309 = DIRECTION('',(-2.22044604925E-16,2.22044604925E-16,1.));
#310 = ORIENTED_EDGE('',*,*,#311,.F.);
#311 = EDGE_CURVE('',#312,#304,#314,.T.);
#312 = VERTEX_POINT('',#313);
#313 = CARTESIAN_POINT('',(56.75,40.35,2.));
#314 = LINE('',#315,#316);
#315 = CARTESIAN_POINT('',(56.75,46.1125,7.7625));
#316 = VECTOR('',#317,1.);
#317 = DIRECTION('',(-3.140184917368E-16,0.707106781187,0.707106781187)
  );
#318 = ORIENTED_EDGE('',*,*,#319,.T.);
#319 = EDGE_CURVE('',#312,#217,#320,.T.);
#320 = LINE('',#321,#322);
#321 = CARTESIAN_POINT('',(56.75,48.875,2.));
#322 = VECTOR('',#323,1.);
#323 = DIRECTION('',(2.22044604925E-16,-1.,2.22044604925E-16));
#324 = ORIENTED_EDGE('',*,*,#216,.T.);
#325 = PLANE('',#326);
#326 = AXIS2_PLACEMENT_3D('',#327,#328,#329);
#327 = CARTESIAN_POINT('',(56.75,57.,8.));
#328 = DIRECTION('',(1.,2.22044604925E-16,2.22044604925E-16));
#329 = DIRECTION('',(2.22044604925E-16,-2.22044604925E-16,-1.));
#330 = ADVANCED_FACE('',(#331),#365,.F.);
#331 = FACE_BOUND('',#332,.F.);
#332 = EDGE_LOOP('',(#333,#339,#340,#348,#356,#362,#363,#364));
#333 = ORIENTED_EDGE('',*,*,#334,.F.);
#334 = EDGE_CURVE('',#98,#273,#335,.T.);
#335 = LINE('',#336,#337);
#336 = CARTESIAN_POINT('',(-126.75,57.,8.));
#337 = VECTOR('',#338,1.);
#338 = DIRECTION('',(1.,2.22044604925E-16,2.22044604925E-16));
#339 = ORIENTED_EDGE('',*,*,#105,.T.);
#340 = ORIENTED_EDGE('',*,*,#341,.T.);
#341 = EDGE_CURVE('',#106,#342,#344,.T.);
#342 = VERTEX_POINT('',#343);
#343 = CARTESIAN_POINT('',(28.75,57.,6.));
#344 = LINE('',#345,#346);
#345 = CARTESIAN_POINT('',(-112.75,57.,6.));
#346 = VECTOR('',#347,1.);
#347 = DIRECTION('',(1.,2.22044604925E-16,2.22044604925E-16));
#348 = ORIENTED_EDGE('',*,*,#349,.F.);
#349 = EDGE_CURVE('',#350,#342,#352,.T.);
#350 = VERTEX_POINT('',#351);
#351 = CARTESIAN_POINT('',(28.75,57.,2.));
#352 = LINE('',#353,#354);
#353 = CARTESIAN_POINT('',(28.75,57.,7.));
#354 = VECTOR('',#355,1.);
#355 = DIRECTION('',(-2.22044604925E-16,2.22044604925E-16,1.));
#356 = ORIENTED_EDGE('',*,*,#357,.F.);
#357 = EDGE_CURVE('',#146,#350,#358,.T.);
#358 = LINE('',#359,#360);
#359 = CARTESIAN_POINT('',(-112.75,57.,2.));
#360 = VECTOR('',#361,1.);
#361 = DIRECTION('',(1.,2.22044604925E-16,2.22044604925E-16));
#362 = ORIENTED_EDGE('',*,*,#153,.T.);
#363 = ORIENTED_EDGE('',*,*,#31,.T.);
#364 = ORIENTED_EDGE('',*,*,#272,.F.);
#365 = PLANE('',#366);
#366 = AXIS2_PLACEMENT_3D('',#367,#368,#369);
#367 = CARTESIAN_POINT('',(-126.75,57.,8.));
#368 = DIRECTION('',(2.22044604925E-16,-1.,2.22044604925E-16));
#369 = DIRECTION('',(2.22044604925E-16,-2.22044604925E-16,-1.));
#370 = ADVANCED_FACE('',(#371),#390,.F.);
#371 = FACE_BOUND('',#372,.F.);
#372 = EDGE_LOOP('',(#373,#381,#382,#383));
#373 = ORIENTED_EDGE('',*,*,#374,.T.);
#374 = EDGE_CURVE('',#375,#72,#377,.T.);
#375 = VERTEX_POINT('',#376);
#376 = CARTESIAN_POINT('',(48.55,47.,1.8));
#377 = LINE('',#378,#379);
#378 = CARTESIAN_POINT('',(48.55,47.,9.));
#379 = VECTOR('',#380,1.);
#380 = DIRECTION('',(2.22044604925E-16,-2.22044604925E-16,-1.));
#381 = ORIENTED_EDGE('',*,*,#71,.F.);
#382 = ORIENTED_EDGE('',*,*,#374,.F.);
#383 = ORIENTED_EDGE('',*,*,#384,.T.);
#384 = EDGE_CURVE('',#375,#375,#385,.T.);
#385 = CIRCLE('',#386,1.8);
#386 = AXIS2_PLACEMENT_3D('',#387,#388,#389);
#387 = CARTESIAN_POINT('',(46.75,47.,1.8));
#388 = DIRECTION('',(2.22044604925E-16,-2.22044604925E-16,-1.));
#389 = DIRECTION('',(1.,2.22044604925E-16,2.22044604925E-16));
#390 = CYLINDRICAL_SURFACE('',#391,1.8);
#391 = AXIS2_PLACEMENT_3D('',#392,#393,#394);
#392 = CARTESIAN_POINT('',(46.75,47.,9.));
#393 = DIRECTION('',(2.22044604925E-16,-2.22044604925E-16,-1.));
#394 = DIRECTION('',(1.,2.22044604925E-16,2.22044604925E-16));
#395 = ADVANCED_FACE('',(#396),#414,.T.);
#396 = FACE_BOUND('',#397,.T.);
#397 = EDGE_LOOP('',(#398,#399,#407,#413));
#398 = ORIENTED_EDGE('',*,*,#145,.T.);
#399 = ORIENTED_EDGE('',*,*,#400,.T.);
#400 = EDGE_CURVE('',#138,#401,#403,.T.);
#401 = VERTEX_POINT('',#402);
#402 = CARTESIAN_POINT('',(28.75,59.6,2.));
#403 = LINE('',#404,#405);
#404 = CARTESIAN_POINT('',(-98.75,59.6,2.));
#405 = VECTOR('',#406,1.);
#406 = DIRECTION('',(1.,2.22044604925E-16,2.22044604925E-16));
#407 = ORIENTED_EDGE('',*,*,#408,.T.);
#408 = EDGE_CURVE('',#401,#350,#409,.T.);
#409 = LINE('',#410,#411);
#410 = CARTESIAN_POINT('',(28.75,60.,2.));
#411 = VECTOR('',#412,1.);
#412 = DIRECTION('',(2.22044604925E-16,-1.,2.22044604925E-16));
#413 = ORIENTED_EDGE('',*,*,#357,.F.);
#414 = PLANE('',#415);
#415 = AXIS2_PLACEMENT_3D('',#416,#417,#418);
#416 = CARTESIAN_POINT('',(-98.75,60.,2.));
#417 = DIRECTION('',(2.22044604925E-16,-2.22044604925E-16,-1.));
#418 = DIRECTION('',(1.,2.22044604925E-16,2.22044604925E-16));
#419 = ADVANCED_FACE('',(#420),#438,.F.);
#420 = FACE_BOUND('',#421,.T.);
#421 = EDGE_LOOP('',(#422,#423,#424,#432));
#422 = ORIENTED_EDGE('',*,*,#400,.F.);
#423 = ORIENTED_EDGE('',*,*,#137,.T.);
#424 = ORIENTED_EDGE('',*,*,#425,.T.);
#425 = EDGE_CURVE('',#130,#426,#428,.T.);
#426 = VERTEX_POINT('',#427);
#427 = CARTESIAN_POINT('',(28.35,60.,2.4));
#428 = LINE('',#429,#430);
#429 = CARTESIAN_POINT('',(-98.75,60.,2.4));
#430 = VECTOR('',#431,1.);
#431 = DIRECTION('',(1.,2.22044604925E-16,2.22044604925E-16));
#432 = ORIENTED_EDGE('',*,*,#433,.F.);
#433 = EDGE_CURVE('',#401,#426,#434,.T.);
#434 = LINE('',#435,#436);
#435 = CARTESIAN_POINT('',(6.7,81.65,24.05));
#436 = VECTOR('',#437,1.);
#437 = DIRECTION('',(-0.57735026919,0.57735026919,0.57735026919));
#438 = PLANE('',#439);
#439 = AXIS2_PLACEMENT_3D('',#440,#441,#442);
#440 = CARTESIAN_POINT('',(-98.75,59.8,2.2));
#441 = DIRECTION('',(1.725633230171E-31,-0.707106781187,0.707106781187)
  );
#442 = DIRECTION('',(-1.,-2.22044604925E-16,-2.22044604925E-16));
#443 = ADVANCED_FACE('',(#444),#462,.F.);
#444 = FACE_BOUND('',#445,.F.);
#445 = EDGE_LOOP('',(#446,#454,#455,#456));
#446 = ORIENTED_EDGE('',*,*,#447,.F.);
#447 = EDGE_CURVE('',#122,#448,#450,.T.);
#448 = VERTEX_POINT('',#449);
#449 = CARTESIAN_POINT('',(28.35,60.,5.6));
#450 = LINE('',#451,#452);
#451 = CARTESIAN_POINT('',(-98.75,60.,5.6));
#452 = VECTOR('',#453,1.);
#453 = DIRECTION('',(1.,2.22044604925E-16,2.22044604925E-16));
#454 = ORIENTED_EDGE('',*,*,#129,.T.);
#455 = ORIENTED_EDGE('',*,*,#425,.T.);
#456 = ORIENTED_EDGE('',*,*,#457,.F.);
#457 = EDGE_CURVE('',#448,#426,#458,.T.);
#458 = LINE('',#459,#460);
#459 = CARTESIAN_POINT('',(28.35,60.,6.));
#460 = VECTOR('',#461,1.);
#461 = DIRECTION('',(2.22044604925E-16,-2.22044604925E-16,-1.));
#462 = PLANE('',#463);
#463 = AXIS2_PLACEMENT_3D('',#464,#465,#466);
#464 = CARTESIAN_POINT('',(-98.75,60.,6.));
#465 = DIRECTION('',(2.22044604925E-16,-1.,2.22044604925E-16));
#466 = DIRECTION('',(2.22044604925E-16,-2.22044604925E-16,-1.));
#467 = ADVANCED_FACE('',(#468),#486,.T.);
#468 = FACE_BOUND('',#469,.F.);
#469 = EDGE_LOOP('',(#470,#478,#479,#480));
#470 = ORIENTED_EDGE('',*,*,#471,.F.);
#471 = EDGE_CURVE('',#114,#472,#474,.T.);
#472 = VERTEX_POINT('',#473);
#473 = CARTESIAN_POINT('',(28.75,59.6,6.));
#474 = LINE('',#475,#476);
#475 = CARTESIAN_POINT('',(-98.75,59.6,6.));
#476 = VECTOR('',#477,1.);
#477 = DIRECTION('',(1.,2.22044604925E-16,2.22044604925E-16));
#478 = ORIENTED_EDGE('',*,*,#121,.T.);
#479 = ORIENTED_EDGE('',*,*,#447,.T.);
#480 = ORIENTED_EDGE('',*,*,#481,.F.);
#481 = EDGE_CURVE('',#472,#448,#482,.T.);
#482 = LINE('',#483,#484);
#483 = CARTESIAN_POINT('',(7.366666666666,80.983333333333,
    -15.38333333333));
#484 = VECTOR('',#485,1.);
#485 = DIRECTION('',(-0.57735026919,0.57735026919,-0.57735026919));
#486 = PLANE('',#487);
#487 = AXIS2_PLACEMENT_3D('',#488,#489,#490);
#488 = CARTESIAN_POINT('',(-98.75,59.8,5.8));
#489 = DIRECTION('',(-3.140184917368E-16,0.707106781187,0.707106781187)
  );
#490 = DIRECTION('',(-1.,-2.22044604925E-16,-2.22044604925E-16));
#491 = ADVANCED_FACE('',(#492),#503,.F.);
#492 = FACE_BOUND('',#493,.F.);
#493 = EDGE_LOOP('',(#494,#495,#496,#502));
#494 = ORIENTED_EDGE('',*,*,#113,.T.);
#495 = ORIENTED_EDGE('',*,*,#471,.T.);
#496 = ORIENTED_EDGE('',*,*,#497,.T.);
#497 = EDGE_CURVE('',#472,#342,#498,.T.);
#498 = LINE('',#499,#500);
#499 = CARTESIAN_POINT('',(28.75,60.,6.));
#500 = VECTOR('',#501,1.);
#501 = DIRECTION('',(2.22044604925E-16,-1.,2.22044604925E-16));
#502 = ORIENTED_EDGE('',*,*,#341,.F.);
#503 = PLANE('',#504);
#504 = AXIS2_PLACEMENT_3D('',#505,#506,#507);
#505 = CARTESIAN_POINT('',(-98.75,60.,6.));
#506 = DIRECTION('',(2.22044604925E-16,-2.22044604925E-16,-1.));
#507 = DIRECTION('',(1.,2.22044604925E-16,2.22044604925E-16));
#508 = ADVANCED_FACE('',(#509,#517),#567,.F.);
#509 = FACE_BOUND('',#510,.F.);
#510 = EDGE_LOOP('',(#511,#512,#513,#514,#515,#516));
#511 = ORIENTED_EDGE('',*,*,#97,.T.);
#512 = ORIENTED_EDGE('',*,*,#334,.T.);
#513 = ORIENTED_EDGE('',*,*,#280,.T.);
#514 = ORIENTED_EDGE('',*,*,#256,.T.);
#515 = ORIENTED_EDGE('',*,*,#192,.F.);
#516 = ORIENTED_EDGE('',*,*,#175,.T.);
#517 = FACE_BOUND('',#518,.F.);
#518 = EDGE_LOOP('',(#519,#529,#537,#545,#553,#561));
#519 = ORIENTED_EDGE('',*,*,#520,.T.);
#520 = EDGE_CURVE('',#521,#523,#525,.T.);
#521 = VERTEX_POINT('',#522);
#522 = CARTESIAN_POINT('',(43.8,45.296816705891,8.));
#523 = VERTEX_POINT('',#524);
#524 = CARTESIAN_POINT('',(46.75,43.593633411781,8.));
#525 = LINE('',#526,#527);
#526 = CARTESIAN_POINT('',(-21.21506350946,82.833281124459,8.));
#527 = VECTOR('',#528,1.);
#528 = DIRECTION('',(0.866025403784,-0.5,3.033185711009E-16));
#529 = ORIENTED_EDGE('',*,*,#530,.T.);
#530 = EDGE_CURVE('',#523,#531,#533,.T.);
#531 = VERTEX_POINT('',#532);
#532 = CARTESIAN_POINT('',(49.7,45.296816705891,8.));
#533 = LINE('',#534,#535);
#534 = CARTESIAN_POINT('',(-13.93493649053,8.557168993213,8.));
#535 = VECTOR('',#536,1.);
#536 = DIRECTION('',(0.866025403784,0.5,8.127396617584E-17));
#537 = ORIENTED_EDGE('',*,*,#538,.T.);
#538 = EDGE_CURVE('',#531,#539,#541,.T.);
#539 = VERTEX_POINT('',#540);
#540 = CARTESIAN_POINT('',(49.7,48.703183294109,8.));
#541 = LINE('',#542,#543);
#542 = CARTESIAN_POINT('',(49.7,52.851591647055,8.));
#543 = VECTOR('',#544,1.);
#544 = DIRECTION('',(-2.22044604925E-16,1.,-2.22044604925E-16));
#545 = ORIENTED_EDGE('',*,*,#546,.T.);
#546 = EDGE_CURVE('',#539,#547,#549,.T.);
#547 = VERTEX_POINT('',#548);
#548 = CARTESIAN_POINT('',(46.75,50.406366588219,8.));
#549 = LINE('',#550,#551);
#550 = CARTESIAN_POINT('',(-19.74006350946,88.794422653842,8.));
#551 = VECTOR('',#552,1.);
#552 = DIRECTION('',(-0.866025403784,0.5,-3.033185711009E-16));
#553 = ORIENTED_EDGE('',*,*,#554,.T.);
#554 = EDGE_CURVE('',#547,#555,#557,.T.);
#555 = VERTEX_POINT('',#556);
#556 = CARTESIAN_POINT('',(43.8,48.703183294109,8.));
#557 = LINE('',#558,#559);
#558 = CARTESIAN_POINT('',(-18.35993649053,12.815127228487,8.));
#559 = VECTOR('',#560,1.);
#560 = DIRECTION('',(-0.866025403784,-0.5,-8.127396617584E-17));
#561 = ORIENTED_EDGE('',*,*,#562,.T.);
#562 = EDGE_CURVE('',#555,#521,#563,.T.);
#563 = LINE('',#564,#565);
#564 = CARTESIAN_POINT('',(43.8,51.148408352945,8.));
#565 = VECTOR('',#566,1.);
#566 = DIRECTION('',(2.22044604925E-16,-1.,2.22044604925E-16));
#567 = PLANE('',#568);
#568 = AXIS2_PLACEMENT_3D('',#569,#570,#571);
#569 = CARTESIAN_POINT('',(-126.75,57.,8.));
#570 = DIRECTION('',(2.22044604925E-16,-2.22044604925E-16,-1.));
#571 = DIRECTION('',(1.,2.22044604925E-16,2.22044604925E-16));
#572 = ADVANCED_FACE('',(#573),#591,.T.);
#573 = FACE_BOUND('',#574,.T.);
#574 = EDGE_LOOP('',(#575,#583,#589,#590));
#575 = ORIENTED_EDGE('',*,*,#576,.F.);
#576 = EDGE_CURVE('',#577,#233,#579,.T.);
#577 = VERTEX_POINT('',#578);
#578 = CARTESIAN_POINT('',(60.75,40.35,6.));
#579 = LINE('',#580,#581);
#580 = CARTESIAN_POINT('',(60.75,40.75,6.));
#581 = VECTOR('',#582,1.);
#582 = DIRECTION('',(2.22044604925E-16,-1.,2.22044604925E-16));
#583 = ORIENTED_EDGE('',*,*,#584,.T.);
#584 = EDGE_CURVE('',#577,#288,#585,.T.);
#585 = LINE('',#586,#587);
#586 = CARTESIAN_POINT('',(60.75,40.35,6.));
#587 = VECTOR('',#588,1.);
#588 = DIRECTION('',(-1.,-2.22044604925E-16,-2.22044604925E-16));
#589 = ORIENTED_EDGE('',*,*,#287,.T.);
#590 = ORIENTED_EDGE('',*,*,#240,.T.);
#591 = PLANE('',#592);
#592 = AXIS2_PLACEMENT_3D('',#593,#594,#595);
#593 = CARTESIAN_POINT('',(60.75,40.75,6.));
#594 = DIRECTION('',(-2.22044604925E-16,2.22044604925E-16,1.));
#595 = DIRECTION('',(2.22044604925E-16,-1.,2.22044604925E-16));
#596 = ADVANCED_FACE('',(#597),#615,.F.);
#597 = FACE_BOUND('',#598,.F.);
#598 = EDGE_LOOP('',(#599,#600,#608,#614));
#599 = ORIENTED_EDGE('',*,*,#576,.F.);
#600 = ORIENTED_EDGE('',*,*,#601,.F.);
#601 = EDGE_CURVE('',#602,#577,#604,.T.);
#602 = VERTEX_POINT('',#603);
#603 = CARTESIAN_POINT('',(60.75,40.35,2.));
#604 = LINE('',#605,#606);
#605 = CARTESIAN_POINT('',(60.75,40.35,2.));
#606 = VECTOR('',#607,1.);
#607 = DIRECTION('',(-2.22044604925E-16,2.22044604925E-16,1.));
#608 = ORIENTED_EDGE('',*,*,#609,.T.);
#609 = EDGE_CURVE('',#602,#225,#610,.T.);
#610 = LINE('',#611,#612);
#611 = CARTESIAN_POINT('',(60.75,40.75,2.));
#612 = VECTOR('',#613,1.);
#613 = DIRECTION('',(2.22044604925E-16,-1.,2.22044604925E-16));
#614 = ORIENTED_EDGE('',*,*,#232,.T.);
#615 = PLANE('',#616);
#616 = AXIS2_PLACEMENT_3D('',#617,#618,#619);
#617 = CARTESIAN_POINT('',(60.75,40.75,2.));
#618 = DIRECTION('',(-1.,-2.22044604925E-16,-2.22044604925E-16));
#619 = DIRECTION('',(2.22044604925E-16,-1.,2.22044604925E-16));
#620 = ADVANCED_FACE('',(#621),#632,.F.);
#621 = FACE_BOUND('',#622,.F.);
#622 = EDGE_LOOP('',(#623,#624,#630,#631));
#623 = ORIENTED_EDGE('',*,*,#609,.F.);
#624 = ORIENTED_EDGE('',*,*,#625,.T.);
#625 = EDGE_CURVE('',#602,#312,#626,.T.);
#626 = LINE('',#627,#628);
#627 = CARTESIAN_POINT('',(60.75,40.35,2.));
#628 = VECTOR('',#629,1.);
#629 = DIRECTION('',(-1.,-2.22044604925E-16,-2.22044604925E-16));
#630 = ORIENTED_EDGE('',*,*,#319,.T.);
#631 = ORIENTED_EDGE('',*,*,#224,.T.);
#632 = PLANE('',#633);
#633 = AXIS2_PLACEMENT_3D('',#634,#635,#636);
#634 = CARTESIAN_POINT('',(60.75,40.75,2.));
#635 = DIRECTION('',(-2.22044604925E-16,2.22044604925E-16,1.));
#636 = DIRECTION('',(2.22044604925E-16,-1.,2.22044604925E-16));
#637 = ADVANCED_FACE('',(#638),#664,.T.);
#638 = FACE_BOUND('',#639,.T.);
#639 = EDGE_LOOP('',(#640,#648,#649,#650,#658));
#640 = ORIENTED_EDGE('',*,*,#641,.F.);
#641 = EDGE_CURVE('',#602,#642,#644,.T.);
#642 = VERTEX_POINT('',#643);
#643 = CARTESIAN_POINT('',(60.35,40.75,2.4));
#644 = LINE('',#645,#646);
#645 = CARTESIAN_POINT('',(60.616666666667,40.483333333333,
    2.133333333333));
#646 = VECTOR('',#647,1.);
#647 = DIRECTION('',(-0.57735026919,0.57735026919,0.57735026919));
#648 = ORIENTED_EDGE('',*,*,#625,.T.);
#649 = ORIENTED_EDGE('',*,*,#311,.T.);
#650 = ORIENTED_EDGE('',*,*,#651,.T.);
#651 = EDGE_CURVE('',#304,#652,#654,.T.);
#652 = VERTEX_POINT('',#653);
#653 = CARTESIAN_POINT('',(56.9,40.75,2.4));
#654 = LINE('',#655,#656);
#655 = CARTESIAN_POINT('',(57.341666666667,41.191666666667,
    2.841666666667));
#656 = VECTOR('',#657,1.);
#657 = DIRECTION('',(0.57735026919,0.57735026919,0.57735026919));
#658 = ORIENTED_EDGE('',*,*,#659,.F.);
#659 = EDGE_CURVE('',#642,#652,#660,.T.);
#660 = LINE('',#661,#662);
#661 = CARTESIAN_POINT('',(60.75,40.75,2.4));
#662 = VECTOR('',#663,1.);
#663 = DIRECTION('',(-1.,-2.22044604925E-16,-2.22044604925E-16));
#664 = PLANE('',#665);
#665 = AXIS2_PLACEMENT_3D('',#666,#667,#668);
#666 = CARTESIAN_POINT('',(60.75,40.55,2.2));
#667 = DIRECTION('',(-5.176899690513E-31,0.707106781187,-0.707106781187)
  );
#668 = DIRECTION('',(-1.,-2.22044604925E-16,-2.22044604925E-16));
#669 = ADVANCED_FACE('',(#670),#688,.F.);
#670 = FACE_BOUND('',#671,.T.);
#671 = EDGE_LOOP('',(#672,#673,#674,#682));
#672 = ORIENTED_EDGE('',*,*,#651,.F.);
#673 = ORIENTED_EDGE('',*,*,#303,.T.);
#674 = ORIENTED_EDGE('',*,*,#675,.T.);
#675 = EDGE_CURVE('',#296,#676,#678,.T.);
#676 = VERTEX_POINT('',#677);
#677 = CARTESIAN_POINT('',(56.9,40.75,5.6));
#678 = LINE('',#679,#680);
#679 = CARTESIAN_POINT('',(58.008333333333,41.858333333333,
    4.491666666667));
#680 = VECTOR('',#681,1.);
#681 = DIRECTION('',(0.57735026919,0.57735026919,-0.57735026919));
#682 = ORIENTED_EDGE('',*,*,#683,.F.);
#683 = EDGE_CURVE('',#652,#676,#684,.T.);
#684 = LINE('',#685,#686);
#685 = CARTESIAN_POINT('',(56.9,40.75,2.));
#686 = VECTOR('',#687,1.);
#687 = DIRECTION('',(-2.22044604925E-16,2.22044604925E-16,1.));
#688 = PLANE('',#689);
#689 = AXIS2_PLACEMENT_3D('',#690,#691,#692);
#690 = CARTESIAN_POINT('',(56.7,40.55,2.));
#691 = DIRECTION('',(0.707106781187,-0.707106781187,3.140184917368E-16)
  );
#692 = DIRECTION('',(2.22044604925E-16,-2.22044604925E-16,-1.));
#693 = ADVANCED_FACE('',(#694),#713,.F.);
#694 = FACE_BOUND('',#695,.F.);
#695 = EDGE_LOOP('',(#696,#704,#705,#706,#707));
#696 = ORIENTED_EDGE('',*,*,#697,.F.);
#697 = EDGE_CURVE('',#577,#698,#700,.T.);
#698 = VERTEX_POINT('',#699);
#699 = CARTESIAN_POINT('',(60.35,40.75,5.6));
#700 = LINE('',#701,#702);
#701 = CARTESIAN_POINT('',(59.95,41.15,5.2));
#702 = VECTOR('',#703,1.);
#703 = DIRECTION('',(-0.57735026919,0.57735026919,-0.57735026919));
#704 = ORIENTED_EDGE('',*,*,#584,.T.);
#705 = ORIENTED_EDGE('',*,*,#295,.T.);
#706 = ORIENTED_EDGE('',*,*,#675,.T.);
#707 = ORIENTED_EDGE('',*,*,#708,.F.);
#708 = EDGE_CURVE('',#698,#676,#709,.T.);
#709 = LINE('',#710,#711);
#710 = CARTESIAN_POINT('',(60.75,40.75,5.6));
#711 = VECTOR('',#712,1.);
#712 = DIRECTION('',(-1.,-2.22044604925E-16,-2.22044604925E-16));
#713 = PLANE('',#714);
#714 = AXIS2_PLACEMENT_3D('',#715,#716,#717);
#715 = CARTESIAN_POINT('',(60.75,40.55,5.8));
#716 = DIRECTION('',(3.140184917368E-16,-0.707106781187,-0.707106781187)
  );
#717 = DIRECTION('',(-1.,-2.22044604925E-16,-2.22044604925E-16));
#718 = ADVANCED_FACE('',(#719),#730,.T.);
#719 = FACE_BOUND('',#720,.T.);
#720 = EDGE_LOOP('',(#721,#722,#728,#729));
#721 = ORIENTED_EDGE('',*,*,#408,.F.);
#722 = ORIENTED_EDGE('',*,*,#723,.F.);
#723 = EDGE_CURVE('',#472,#401,#724,.T.);
#724 = LINE('',#725,#726);
#725 = CARTESIAN_POINT('',(28.75,59.6,6.));
#726 = VECTOR('',#727,1.);
#727 = DIRECTION('',(2.22044604925E-16,-2.22044604925E-16,-1.));
#728 = ORIENTED_EDGE('',*,*,#497,.T.);
#729 = ORIENTED_EDGE('',*,*,#349,.F.);
#730 = PLANE('',#731);
#731 = AXIS2_PLACEMENT_3D('',#732,#733,#734);
#732 = CARTESIAN_POINT('',(28.75,60.,6.));
#733 = DIRECTION('',(1.,2.22044604925E-16,2.22044604925E-16));
#734 = DIRECTION('',(2.22044604925E-16,-2.22044604925E-16,-1.));
#735 = ADVANCED_FACE('',(#736,#786),#789,.F.);
#736 = FACE_BOUND('',#737,.F.);
#737 = EDGE_LOOP('',(#738,#748,#756,#764,#772,#780));
#738 = ORIENTED_EDGE('',*,*,#739,.T.);
#739 = EDGE_CURVE('',#740,#742,#744,.T.);
#740 = VERTEX_POINT('',#741);
#741 = CARTESIAN_POINT('',(49.7,45.296816705891,1.8));
#742 = VERTEX_POINT('',#743);
#743 = CARTESIAN_POINT('',(46.75,43.593633411781,1.8));
#744 = LINE('',#745,#746);
#745 = CARTESIAN_POINT('',(49.7,45.296816705891,1.8));
#746 = VECTOR('',#747,1.);
#747 = DIRECTION('',(-0.866025403784,-0.5,-8.127396617584E-17));
#748 = ORIENTED_EDGE('',*,*,#749,.T.);
#749 = EDGE_CURVE('',#742,#750,#752,.T.);
#750 = VERTEX_POINT('',#751);
#751 = CARTESIAN_POINT('',(43.8,45.296816705891,1.8));
#752 = LINE('',#753,#754);
#753 = CARTESIAN_POINT('',(46.75,43.593633411781,1.8));
#754 = VECTOR('',#755,1.);
#755 = DIRECTION('',(-0.866025403784,0.5,-3.033185711009E-16));
#756 = ORIENTED_EDGE('',*,*,#757,.T.);
#757 = EDGE_CURVE('',#750,#758,#760,.T.);
#758 = VERTEX_POINT('',#759);
#759 = CARTESIAN_POINT('',(43.8,48.703183294109,1.8));
#760 = LINE('',#761,#762);
#761 = CARTESIAN_POINT('',(43.8,45.296816705891,1.8));
#762 = VECTOR('',#763,1.);
#763 = DIRECTION('',(-2.22044604925E-16,1.,-2.22044604925E-16));
#764 = ORIENTED_EDGE('',*,*,#765,.T.);
#765 = EDGE_CURVE('',#758,#766,#768,.T.);
#766 = VERTEX_POINT('',#767);
#767 = CARTESIAN_POINT('',(46.75,50.406366588219,1.8));
#768 = LINE('',#769,#770);
#769 = CARTESIAN_POINT('',(43.8,48.703183294109,1.8));
#770 = VECTOR('',#771,1.);
#771 = DIRECTION('',(0.866025403784,0.5,8.127396617584E-17));
#772 = ORIENTED_EDGE('',*,*,#773,.T.);
#773 = EDGE_CURVE('',#766,#774,#776,.T.);
#774 = VERTEX_POINT('',#775);
#775 = CARTESIAN_POINT('',(49.7,48.703183294109,1.8));
#776 = LINE('',#777,#778);
#777 = CARTESIAN_POINT('',(46.75,50.406366588219,1.8));
#778 = VECTOR('',#779,1.);
#779 = DIRECTION('',(0.866025403784,-0.5,3.033185711009E-16));
#780 = ORIENTED_EDGE('',*,*,#781,.T.);
#781 = EDGE_CURVE('',#774,#740,#782,.T.);
#782 = LINE('',#783,#784);
#783 = CARTESIAN_POINT('',(49.7,48.703183294109,1.8));
#784 = VECTOR('',#785,1.);
#785 = DIRECTION('',(2.22044604925E-16,-1.,2.22044604925E-16));
#786 = FACE_BOUND('',#787,.F.);
#787 = EDGE_LOOP('',(#788));
#788 = ORIENTED_EDGE('',*,*,#384,.F.);
#789 = PLANE('',#790);
#790 = AXIS2_PLACEMENT_3D('',#791,#792,#793);
#791 = CARTESIAN_POINT('',(46.75,47.,1.8));
#792 = DIRECTION('',(2.22044604925E-16,-2.22044604925E-16,-1.));
#793 = DIRECTION('',(1.,2.22044604925E-16,2.22044604925E-16));
#794 = ADVANCED_FACE('',(#795),#801,.F.);
#795 = FACE_BOUND('',#796,.T.);
#796 = EDGE_LOOP('',(#797,#798,#799,#800));
#797 = ORIENTED_EDGE('',*,*,#481,.F.);
#798 = ORIENTED_EDGE('',*,*,#723,.T.);
#799 = ORIENTED_EDGE('',*,*,#433,.T.);
#800 = ORIENTED_EDGE('',*,*,#457,.F.);
#801 = PLANE('',#802);
#802 = AXIS2_PLACEMENT_3D('',#803,#804,#805);
#803 = CARTESIAN_POINT('',(28.55,59.8,6.));
#804 = DIRECTION('',(-0.707106781187,-0.707106781187,2.341930812375E-30)
  );
#805 = DIRECTION('',(-2.22044604925E-16,2.22044604925E-16,1.));
#806 = ADVANCED_FACE('',(#807),#823,.T.);
#807 = FACE_BOUND('',#808,.T.);
#808 = EDGE_LOOP('',(#809,#810,#816,#817));
#809 = ORIENTED_EDGE('',*,*,#520,.T.);
#810 = ORIENTED_EDGE('',*,*,#811,.T.);
#811 = EDGE_CURVE('',#523,#742,#812,.T.);
#812 = LINE('',#813,#814);
#813 = CARTESIAN_POINT('',(46.75,43.593633411781,8.1));
#814 = VECTOR('',#815,1.);
#815 = DIRECTION('',(2.22044604925E-16,-2.22044604925E-16,-1.));
#816 = ORIENTED_EDGE('',*,*,#749,.T.);
#817 = ORIENTED_EDGE('',*,*,#818,.F.);
#818 = EDGE_CURVE('',#521,#750,#819,.T.);
#819 = LINE('',#820,#821);
#820 = CARTESIAN_POINT('',(43.8,45.296816705891,8.1));
#821 = VECTOR('',#822,1.);
#822 = DIRECTION('',(2.22044604925E-16,-2.22044604925E-16,-1.));
#823 = PLANE('',#824);
#824 = AXIS2_PLACEMENT_3D('',#825,#826,#827);
#825 = CARTESIAN_POINT('',(46.75,43.593633411781,8.1));
#826 = DIRECTION('',(0.5,0.866025403784,-8.127396617584E-17));
#827 = DIRECTION('',(-0.866025403784,0.5,-3.033185711009E-16));
#828 = ADVANCED_FACE('',(#829),#840,.T.);
#829 = FACE_BOUND('',#830,.T.);
#830 = EDGE_LOOP('',(#831,#832,#833,#834));
#831 = ORIENTED_EDGE('',*,*,#562,.T.);
#832 = ORIENTED_EDGE('',*,*,#818,.T.);
#833 = ORIENTED_EDGE('',*,*,#757,.T.);
#834 = ORIENTED_EDGE('',*,*,#835,.F.);
#835 = EDGE_CURVE('',#555,#758,#836,.T.);
#836 = LINE('',#837,#838);
#837 = CARTESIAN_POINT('',(43.8,48.703183294109,8.1));
#838 = VECTOR('',#839,1.);
#839 = DIRECTION('',(2.22044604925E-16,-2.22044604925E-16,-1.));
#840 = PLANE('',#841);
#841 = AXIS2_PLACEMENT_3D('',#842,#843,#844);
#842 = CARTESIAN_POINT('',(43.8,45.296816705891,8.1));
#843 = DIRECTION('',(1.,2.22044604925E-16,2.22044604925E-16));
#844 = DIRECTION('',(-2.22044604925E-16,1.,-2.22044604925E-16));
#845 = ADVANCED_FACE('',(#846),#857,.T.);
#846 = FACE_BOUND('',#847,.T.);
#847 = EDGE_LOOP('',(#848,#849,#855,#856));
#848 = ORIENTED_EDGE('',*,*,#530,.T.);
#849 = ORIENTED_EDGE('',*,*,#850,.T.);
#850 = EDGE_CURVE('',#531,#740,#851,.T.);
#851 = LINE('',#852,#853);
#852 = CARTESIAN_POINT('',(49.7,45.296816705891,8.1));
#853 = VECTOR('',#854,1.);
#854 = DIRECTION('',(2.22044604925E-16,-2.22044604925E-16,-1.));
#855 = ORIENTED_EDGE('',*,*,#739,.T.);
#856 = ORIENTED_EDGE('',*,*,#811,.F.);
#857 = PLANE('',#858);
#858 = AXIS2_PLACEMENT_3D('',#859,#860,#861);
#859 = CARTESIAN_POINT('',(49.7,45.296816705891,8.1));
#860 = DIRECTION('',(-0.5,0.866025403784,-3.033185711009E-16));
#861 = DIRECTION('',(-0.866025403784,-0.5,-8.127396617584E-17));
#862 = ADVANCED_FACE('',(#863),#874,.T.);
#863 = FACE_BOUND('',#864,.T.);
#864 = EDGE_LOOP('',(#865,#866,#867,#868));
#865 = ORIENTED_EDGE('',*,*,#554,.T.);
#866 = ORIENTED_EDGE('',*,*,#835,.T.);
#867 = ORIENTED_EDGE('',*,*,#765,.T.);
#868 = ORIENTED_EDGE('',*,*,#869,.F.);
#869 = EDGE_CURVE('',#547,#766,#870,.T.);
#870 = LINE('',#871,#872);
#871 = CARTESIAN_POINT('',(46.75,50.406366588219,8.1));
#872 = VECTOR('',#873,1.);
#873 = DIRECTION('',(2.22044604925E-16,-2.22044604925E-16,-1.));
#874 = PLANE('',#875);
#875 = AXIS2_PLACEMENT_3D('',#876,#877,#878);
#876 = CARTESIAN_POINT('',(43.8,48.703183294109,8.1));
#877 = DIRECTION('',(0.5,-0.866025403784,3.033185711009E-16));
#878 = DIRECTION('',(0.866025403784,0.5,8.127396617584E-17));
#879 = ADVANCED_FACE('',(#880),#891,.T.);
#880 = FACE_BOUND('',#881,.T.);
#881 = EDGE_LOOP('',(#882,#883,#889,#890));
#882 = ORIENTED_EDGE('',*,*,#538,.T.);
#883 = ORIENTED_EDGE('',*,*,#884,.T.);
#884 = EDGE_CURVE('',#539,#774,#885,.T.);
#885 = LINE('',#886,#887);
#886 = CARTESIAN_POINT('',(49.7,48.703183294109,8.1));
#887 = VECTOR('',#888,1.);
#888 = DIRECTION('',(2.22044604925E-16,-2.22044604925E-16,-1.));
#889 = ORIENTED_EDGE('',*,*,#781,.T.);
#890 = ORIENTED_EDGE('',*,*,#850,.F.);
#891 = PLANE('',#892);
#892 = AXIS2_PLACEMENT_3D('',#893,#894,#895);
#893 = CARTESIAN_POINT('',(49.7,48.703183294109,8.1));
#894 = DIRECTION('',(-1.,-2.22044604925E-16,-2.22044604925E-16));
#895 = DIRECTION('',(2.22044604925E-16,-1.,2.22044604925E-16));
#896 = ADVANCED_FACE('',(#897),#903,.T.);
#897 = FACE_BOUND('',#898,.T.);
#898 = EDGE_LOOP('',(#899,#900,#901,#902));
#899 = ORIENTED_EDGE('',*,*,#546,.T.);
#900 = ORIENTED_EDGE('',*,*,#869,.T.);
#901 = ORIENTED_EDGE('',*,*,#773,.T.);
#902 = ORIENTED_EDGE('',*,*,#884,.F.);
#903 = PLANE('',#904);
#904 = AXIS2_PLACEMENT_3D('',#905,#906,#907);
#905 = CARTESIAN_POINT('',(46.75,50.406366588219,8.1));
#906 = DIRECTION('',(-0.5,-0.866025403784,8.127396617584E-17));
#907 = DIRECTION('',(0.866025403784,-0.5,3.033185711009E-16));
#908 = ADVANCED_FACE('',(#909),#920,.T.);
#909 = FACE_BOUND('',#910,.F.);
#910 = EDGE_LOOP('',(#911,#912,#913,#914));
#911 = ORIENTED_EDGE('',*,*,#641,.F.);
#912 = ORIENTED_EDGE('',*,*,#601,.T.);
#913 = ORIENTED_EDGE('',*,*,#697,.T.);
#914 = ORIENTED_EDGE('',*,*,#915,.F.);
#915 = EDGE_CURVE('',#642,#698,#916,.T.);
#916 = LINE('',#917,#918);
#917 = CARTESIAN_POINT('',(60.35,40.75,2.));
#918 = VECTOR('',#919,1.);
#919 = DIRECTION('',(-2.22044604925E-16,2.22044604925E-16,1.));
#920 = PLANE('',#921);
#921 = AXIS2_PLACEMENT_3D('',#922,#923,#924);
#922 = CARTESIAN_POINT('',(60.55,40.55,2.));
#923 = DIRECTION('',(0.707106781187,0.707106781187,-7.642090019329E-31)
  );
#924 = DIRECTION('',(2.22044604925E-16,-2.22044604925E-16,-1.));
#925 = ADVANCED_FACE('',(#926),#932,.F.);
#926 = FACE_BOUND('',#927,.F.);
#927 = EDGE_LOOP('',(#928,#929,#930,#931));
#928 = ORIENTED_EDGE('',*,*,#659,.F.);
#929 = ORIENTED_EDGE('',*,*,#915,.T.);
#930 = ORIENTED_EDGE('',*,*,#708,.T.);
#931 = ORIENTED_EDGE('',*,*,#683,.F.);
#932 = PLANE('',#933);
#933 = AXIS2_PLACEMENT_3D('',#934,#935,#936);
#934 = CARTESIAN_POINT('',(60.75,40.75,2.));
#935 = DIRECTION('',(2.22044604925E-16,-1.,2.22044604925E-16));
#936 = DIRECTION('',(-2.22044604925E-16,2.22044604925E-16,1.));
#937 = ( GEOMETRIC_REPRESENTATION_CONTEXT(3) 
GLOBAL_UNCERTAINTY_ASSIGNED_CONTEXT((#941)) GLOBAL_UNIT_ASSIGNED_CONTEXT
((#938,#939,#940)) REPRESENTATION_CONTEXT('Context #1',
  '3D Context with UNIT and UNCERTAINTY') );
#938 = ( LENGTH_UNIT() NAMED_UNIT(*) SI_UNIT(.MILLI.,.METRE.) );
#939 = ( NAMED_UNIT(*) PLANE_ANGLE_UNIT() SI_UNIT($,.RADIAN.) );
#940 = ( NAMED_UNIT(*) SI_UNIT($,.STERADIAN.) SOLID_ANGLE_UNIT() );
#941 = UNCERTAINTY_MEASURE_WITH_UNIT(LENGTH_MEASURE(1.E-07),#938,
  'distance_accuracy_value','confusion accuracy');
#942 = PRODUCT_RELATED_PRODUCT_CATEGORY('part',$,(#7));
ENDSEC;
END-ISO-10303-21;
