ISO-10303-21;
HEADER;
FILE_DESCRIPTION(('FreeCAD Model'),'2;1');
FILE_NAME('Open CASCADE Shape Model','2026-10-01T10:29:56',('FreeCAD'),(
    'FreeCAD'),'Open CASCADE STEP processor 7.8','FreeCAD','Unknown');
FILE_SCHEMA(('AUTOMOTIVE_DESIGN { 1 0 10303 214 1 1 1 1 }'));
ENDSEC;
DATA;
#1 = APPLICATION_PROTOCOL_DEFINITION('international standard',
  'automotive_design',2000,#2);
#2 = APPLICATION_CONTEXT(
  'core data for automotive mechanical design processes');
#3 = SHAPE_DEFINITION_REPRESENTATION(#4,#10);
#4 = PRODUCT_DEFINITION_SHAPE('','',#5);
#5 = PRODUCT_DEFINITION('design','',#6,#9);
#6 = PRODUCT_DEFINITION_FORMATION('','',#7);
#7 = PRODUCT('Open CASCADE STEP translator 7.8 25',
  'Open CASCADE STEP translator 7.8 25','',(#8));
#8 = PRODUCT_CONTEXT('',#2,'mechanical');
#9 = PRODUCT_DEFINITION_CONTEXT('part definition',#2,'design');
#10 = ADVANCED_BREP_SHAPE_REPRESENTATION('',(#11,#15),#544);
#11 = AXIS2_PLACEMENT_3D('',#12,#13,#14);
#12 = CARTESIAN_POINT('',(0.,0.,0.));
#13 = DIRECTION('',(0.,0.,1.));
#14 = DIRECTION('',(1.,0.,-0.));
#15 = MANIFOLD_SOLID_BREP('',#16);
#16 = CLOSED_SHELL('',(#17,#57,#88,#123,#179,#269,#294,#318,#342,#359,
    #371,#402,#426,#450,#474,#498,#515,#532));
#17 = ADVANCED_FACE('',(#18),#52,.F.);
#18 = FACE_BOUND('',#19,.F.);
#19 = EDGE_LOOP('',(#20,#30,#38,#46));
#20 = ORIENTED_EDGE('',*,*,#21,.F.);
#21 = EDGE_CURVE('',#22,#24,#26,.T.);
#22 = VERTEX_POINT('',#23);
#23 = CARTESIAN_POINT('',(0.,25.,8.));
#24 = VERTEX_POINT('',#25);
#25 = CARTESIAN_POINT('',(0.,25.,0.));
#26 = LINE('',#27,#28);
#27 = CARTESIAN_POINT('',(0.,25.,8.));
#28 = VECTOR('',#29,1.);
#29 = DIRECTION('',(0.,0.,-1.));
#30 = ORIENTED_EDGE('',*,*,#31,.T.);
#31 = EDGE_CURVE('',#22,#32,#34,.T.);
#32 = VERTEX_POINT('',#33);
#33 = CARTESIAN_POINT('',(0.,0.,8.));
#34 = LINE('',#35,#36);
#35 = CARTESIAN_POINT('',(0.,25.,8.));
#36 = VECTOR('',#37,1.);
#37 = DIRECTION('',(0.,-1.,0.));
#38 = ORIENTED_EDGE('',*,*,#39,.T.);
#39 = EDGE_CURVE('',#32,#40,#42,.T.);
#40 = VERTEX_POINT('',#41);
#41 = CARTESIAN_POINT('',(0.,0.,0.));
#42 = LINE('',#43,#44);
#43 = CARTESIAN_POINT('',(0.,0.,12.));
#44 = VECTOR('',#45,1.);
#45 = DIRECTION('',(0.,-2.22044604925E-16,-1.));
#46 = ORIENTED_EDGE('',*,*,#47,.F.);
#47 = EDGE_CURVE('',#24,#40,#48,.T.);
#48 = LINE('',#49,#50);
#49 = CARTESIAN_POINT('',(0.,25.,0.));
#50 = VECTOR('',#51,1.);
#51 = DIRECTION('',(0.,-1.,0.));
#52 = PLANE('',#53);
#53 = AXIS2_PLACEMENT_3D('',#54,#55,#56);
#54 = CARTESIAN_POINT('',(0.,25.,8.));
#55 = DIRECTION('',(1.,-0.,0.));
#56 = DIRECTION('',(0.,0.,-1.));
#57 = ADVANCED_FACE('',(#58),#83,.T.);
#58 = FACE_BOUND('',#59,.T.);
#59 = EDGE_LOOP('',(#60,#61,#69,#77));
#60 = ORIENTED_EDGE('',*,*,#21,.F.);
#61 = ORIENTED_EDGE('',*,*,#62,.T.);
#62 = EDGE_CURVE('',#22,#63,#65,.T.);
#63 = VERTEX_POINT('',#64);
#64 = CARTESIAN_POINT('',(24.,25.,8.));
#65 = LINE('',#66,#67);
#66 = CARTESIAN_POINT('',(0.,25.,8.));
#67 = VECTOR('',#68,1.);
#68 = DIRECTION('',(1.,-0.,0.));
#69 = ORIENTED_EDGE('',*,*,#70,.T.);
#70 = EDGE_CURVE('',#63,#71,#73,.T.);
#71 = VERTEX_POINT('',#72);
#72 = CARTESIAN_POINT('',(24.,25.,0.));
#73 = LINE('',#74,#75);
#74 = CARTESIAN_POINT('',(24.,25.,12.));
#75 = VECTOR('',#76,1.);
#76 = DIRECTION('',(0.,-2.22044604925E-16,-1.));
#77 = ORIENTED_EDGE('',*,*,#78,.F.);
#78 = EDGE_CURVE('',#24,#71,#79,.T.);
#79 = LINE('',#80,#81);
#80 = CARTESIAN_POINT('',(0.,25.,0.));
#81 = VECTOR('',#82,1.);
#82 = DIRECTION('',(1.,-0.,0.));
#83 = PLANE('',#84);
#84 = AXIS2_PLACEMENT_3D('',#85,#86,#87);
#85 = CARTESIAN_POINT('',(100.,25.,6.016949152542));
#86 = DIRECTION('',(0.,1.,-2.22044604925E-16));
#87 = DIRECTION('',(1.,-0.,0.));
#88 = ADVANCED_FACE('',(#89,#107),#118,.T.);
#89 = FACE_BOUND('',#90,.T.);
#90 = EDGE_LOOP('',(#91,#92,#93,#101));
#91 = ORIENTED_EDGE('',*,*,#47,.F.);
#92 = ORIENTED_EDGE('',*,*,#78,.T.);
#93 = ORIENTED_EDGE('',*,*,#94,.F.);
#94 = EDGE_CURVE('',#95,#71,#97,.T.);
#95 = VERTEX_POINT('',#96);
#96 = CARTESIAN_POINT('',(24.,0.,0.));
#97 = LINE('',#98,#99);
#98 = CARTESIAN_POINT('',(24.,25.,0.));
#99 = VECTOR('',#100,1.);
#100 = DIRECTION('',(-0.,1.,0.));
#101 = ORIENTED_EDGE('',*,*,#102,.T.);
#102 = EDGE_CURVE('',#95,#40,#103,.T.);
#103 = LINE('',#104,#105);
#104 = CARTESIAN_POINT('',(12.,0.,0.));
#105 = VECTOR('',#106,1.);
#106 = DIRECTION('',(-1.,0.,0.));
#107 = FACE_BOUND('',#108,.T.);
#108 = EDGE_LOOP('',(#109));
#109 = ORIENTED_EDGE('',*,*,#110,.F.);
#110 = EDGE_CURVE('',#111,#111,#113,.T.);
#111 = VERTEX_POINT('',#112);
#112 = CARTESIAN_POINT('',(13.8,13.,0.));
#113 = CIRCLE('',#114,1.8);
#114 = AXIS2_PLACEMENT_3D('',#115,#116,#117);
#115 = CARTESIAN_POINT('',(12.,13.,0.));
#116 = DIRECTION('',(0.,0.,-1.));
#117 = DIRECTION('',(1.,-0.,0.));
#118 = PLANE('',#119);
#119 = AXIS2_PLACEMENT_3D('',#120,#121,#122);
#120 = CARTESIAN_POINT('',(0.,25.,0.));
#121 = DIRECTION('',(0.,0.,-1.));
#122 = DIRECTION('',(1.,-0.,0.));
#123 = ADVANCED_FACE('',(#124),#174,.T.);
#124 = FACE_BOUND('',#125,.T.);
#125 = EDGE_LOOP('',(#126,#134,#142,#150,#158,#166,#172,#173));
#126 = ORIENTED_EDGE('',*,*,#127,.F.);
#127 = EDGE_CURVE('',#128,#95,#130,.T.);
#128 = VERTEX_POINT('',#129);
#129 = CARTESIAN_POINT('',(24.,0.,8.));
#130 = LINE('',#131,#132);
#131 = CARTESIAN_POINT('',(24.,0.,12.));
#132 = VECTOR('',#133,1.);
#133 = DIRECTION('',(0.,-2.22044604925E-16,-1.));
#134 = ORIENTED_EDGE('',*,*,#135,.T.);
#135 = EDGE_CURVE('',#128,#136,#138,.T.);
#136 = VERTEX_POINT('',#137);
#137 = CARTESIAN_POINT('',(6.25,0.,8.));
#138 = LINE('',#139,#140);
#139 = CARTESIAN_POINT('',(12.,0.,8.));
#140 = VECTOR('',#141,1.);
#141 = DIRECTION('',(-1.,0.,0.));
#142 = ORIENTED_EDGE('',*,*,#143,.F.);
#143 = EDGE_CURVE('',#144,#136,#146,.T.);
#144 = VERTEX_POINT('',#145);
#145 = CARTESIAN_POINT('',(6.25,0.,4.));
#146 = LINE('',#147,#148);
#147 = CARTESIAN_POINT('',(6.25,0.,10.));
#148 = VECTOR('',#149,1.);
#149 = DIRECTION('',(0.,2.22044604925E-16,1.));
#150 = ORIENTED_EDGE('',*,*,#151,.T.);
#151 = EDGE_CURVE('',#144,#152,#154,.T.);
#152 = VERTEX_POINT('',#153);
#153 = CARTESIAN_POINT('',(1.75,0.,4.));
#154 = LINE('',#155,#156);
#155 = CARTESIAN_POINT('',(15.125,0.,4.));
#156 = VECTOR('',#157,1.);
#157 = DIRECTION('',(-1.,0.,-0.));
#158 = ORIENTED_EDGE('',*,*,#159,.T.);
#159 = EDGE_CURVE('',#152,#160,#162,.T.);
#160 = VERTEX_POINT('',#161);
#161 = CARTESIAN_POINT('',(1.75,0.,8.));
#162 = LINE('',#163,#164);
#163 = CARTESIAN_POINT('',(1.75,0.,10.));
#164 = VECTOR('',#165,1.);
#165 = DIRECTION('',(0.,2.22044604925E-16,1.));
#166 = ORIENTED_EDGE('',*,*,#167,.T.);
#167 = EDGE_CURVE('',#160,#32,#168,.T.);
#168 = LINE('',#169,#170);
#169 = CARTESIAN_POINT('',(12.,0.,8.));
#170 = VECTOR('',#171,1.);
#171 = DIRECTION('',(-1.,0.,0.));
#172 = ORIENTED_EDGE('',*,*,#39,.T.);
#173 = ORIENTED_EDGE('',*,*,#102,.F.);
#174 = PLANE('',#175);
#175 = AXIS2_PLACEMENT_3D('',#176,#177,#178);
#176 = CARTESIAN_POINT('',(24.,0.,12.));
#177 = DIRECTION('',(0.,-1.,2.22044604925E-16));
#178 = DIRECTION('',(-1.,0.,-0.));
#179 = ADVANCED_FACE('',(#180,#214),#264,.F.);
#180 = FACE_BOUND('',#181,.F.);
#181 = EDGE_LOOP('',(#182,#183,#184,#185,#191,#192,#200,#208));
#182 = ORIENTED_EDGE('',*,*,#167,.T.);
#183 = ORIENTED_EDGE('',*,*,#31,.F.);
#184 = ORIENTED_EDGE('',*,*,#62,.T.);
#185 = ORIENTED_EDGE('',*,*,#186,.T.);
#186 = EDGE_CURVE('',#63,#128,#187,.T.);
#187 = LINE('',#188,#189);
#188 = CARTESIAN_POINT('',(24.,13.,8.));
#189 = VECTOR('',#190,1.);
#190 = DIRECTION('',(0.,-1.,0.));
#191 = ORIENTED_EDGE('',*,*,#135,.T.);
#192 = ORIENTED_EDGE('',*,*,#193,.F.);
#193 = EDGE_CURVE('',#194,#136,#196,.T.);
#194 = VERTEX_POINT('',#195);
#195 = CARTESIAN_POINT('',(6.25,9.,8.));
#196 = LINE('',#197,#198);
#197 = CARTESIAN_POINT('',(6.25,9.,8.));
#198 = VECTOR('',#199,1.);
#199 = DIRECTION('',(0.,-1.,2.22044604925E-16));
#200 = ORIENTED_EDGE('',*,*,#201,.T.);
#201 = EDGE_CURVE('',#194,#202,#204,.T.);
#202 = VERTEX_POINT('',#203);
#203 = CARTESIAN_POINT('',(1.75,9.,8.));
#204 = LINE('',#205,#206);
#205 = CARTESIAN_POINT('',(6.25,9.,8.));
#206 = VECTOR('',#207,1.);
#207 = DIRECTION('',(-1.,0.,-0.));
#208 = ORIENTED_EDGE('',*,*,#209,.T.);
#209 = EDGE_CURVE('',#202,#160,#210,.T.);
#210 = LINE('',#211,#212);
#211 = CARTESIAN_POINT('',(1.75,9.,8.));
#212 = VECTOR('',#213,1.);
#213 = DIRECTION('',(0.,-1.,2.22044604925E-16));
#214 = FACE_BOUND('',#215,.F.);
#215 = EDGE_LOOP('',(#216,#226,#234,#242,#250,#258));
#216 = ORIENTED_EDGE('',*,*,#217,.T.);
#217 = EDGE_CURVE('',#218,#220,#222,.T.);
#218 = VERTEX_POINT('',#219);
#219 = CARTESIAN_POINT('',(9.05,11.296816705891,8.));
#220 = VERTEX_POINT('',#221);
#221 = CARTESIAN_POINT('',(12.,9.593633411781,8.));
#222 = LINE('',#223,#224);
#223 = CARTESIAN_POINT('',(4.164423788647,14.117505446662,8.));
#224 = VECTOR('',#225,1.);
#225 = DIRECTION('',(0.866025403784,-0.5,0.));
#226 = ORIENTED_EDGE('',*,*,#227,.T.);
#227 = EDGE_CURVE('',#220,#228,#230,.T.);
#228 = VERTEX_POINT('',#229);
#229 = CARTESIAN_POINT('',(14.95,11.296816705891,8.));
#230 = LINE('',#231,#232);
#231 = CARTESIAN_POINT('',(12.310576211353,9.77294467101,8.));
#232 = VECTOR('',#233,1.);
#233 = DIRECTION('',(0.866025403784,0.5,0.));
#234 = ORIENTED_EDGE('',*,*,#235,.T.);
#235 = EDGE_CURVE('',#228,#236,#238,.T.);
#236 = VERTEX_POINT('',#237);
#237 = CARTESIAN_POINT('',(14.95,14.703183294109,8.));
#238 = LINE('',#239,#240);
#239 = CARTESIAN_POINT('',(14.95,19.851591647055,8.));
#240 = VECTOR('',#241,1.);
#241 = DIRECTION('',(-5.214814064769E-16,1.,-0.));
#242 = ORIENTED_EDGE('',*,*,#243,.T.);
#243 = EDGE_CURVE('',#236,#244,#246,.T.);
#244 = VERTEX_POINT('',#245);
#245 = CARTESIAN_POINT('',(12.,16.406366588219,8.));
#246 = LINE('',#247,#248);
#247 = CARTESIAN_POINT('',(5.639423788647,20.078646976045,8.));
#248 = VECTOR('',#249,1.);
#249 = DIRECTION('',(-0.866025403784,0.5,-0.));
#250 = ORIENTED_EDGE('',*,*,#251,.T.);
#251 = EDGE_CURVE('',#244,#252,#254,.T.);
#252 = VERTEX_POINT('',#253);
#253 = CARTESIAN_POINT('',(9.05,14.703183294109,8.));
#254 = LINE('',#255,#256);
#255 = CARTESIAN_POINT('',(7.885576211353,14.030902906283,8.));
#256 = VECTOR('',#257,1.);
#257 = DIRECTION('',(-0.866025403784,-0.5,0.));
#258 = ORIENTED_EDGE('',*,*,#259,.T.);
#259 = EDGE_CURVE('',#252,#218,#260,.T.);
#260 = LINE('',#261,#262);
#261 = CARTESIAN_POINT('',(9.05,18.148408352945,8.));
#262 = VECTOR('',#263,1.);
#263 = DIRECTION('',(-5.214814064769E-16,-1.,0.));
#264 = PLANE('',#265);
#265 = AXIS2_PLACEMENT_3D('',#266,#267,#268);
#266 = CARTESIAN_POINT('',(0.,25.,8.));
#267 = DIRECTION('',(0.,0.,-1.));
#268 = DIRECTION('',(1.,-0.,0.));
#269 = ADVANCED_FACE('',(#270),#289,.F.);
#270 = FACE_BOUND('',#271,.F.);
#271 = EDGE_LOOP('',(#272,#280,#281,#282));
#272 = ORIENTED_EDGE('',*,*,#273,.T.);
#273 = EDGE_CURVE('',#274,#111,#276,.T.);
#274 = VERTEX_POINT('',#275);
#275 = CARTESIAN_POINT('',(13.8,13.,1.8));
#276 = LINE('',#277,#278);
#277 = CARTESIAN_POINT('',(13.8,13.,9.));
#278 = VECTOR('',#279,1.);
#279 = DIRECTION('',(0.,0.,-1.));
#280 = ORIENTED_EDGE('',*,*,#110,.F.);
#281 = ORIENTED_EDGE('',*,*,#273,.F.);
#282 = ORIENTED_EDGE('',*,*,#283,.T.);
#283 = EDGE_CURVE('',#274,#274,#284,.T.);
#284 = CIRCLE('',#285,1.8);
#285 = AXIS2_PLACEMENT_3D('',#286,#287,#288);
#286 = CARTESIAN_POINT('',(12.,13.,1.8));
#287 = DIRECTION('',(0.,0.,-1.));
#288 = DIRECTION('',(1.,-0.,0.));
#289 = CYLINDRICAL_SURFACE('',#290,1.8);
#290 = AXIS2_PLACEMENT_3D('',#291,#292,#293);
#291 = CARTESIAN_POINT('',(12.,13.,9.));
#292 = DIRECTION('',(0.,0.,-1.));
#293 = DIRECTION('',(1.,-0.,0.));
#294 = ADVANCED_FACE('',(#295),#313,.F.);
#295 = FACE_BOUND('',#296,.F.);
#296 = EDGE_LOOP('',(#297,#298,#306,#312));
#297 = ORIENTED_EDGE('',*,*,#209,.F.);
#298 = ORIENTED_EDGE('',*,*,#299,.T.);
#299 = EDGE_CURVE('',#202,#300,#302,.T.);
#300 = VERTEX_POINT('',#301);
#301 = CARTESIAN_POINT('',(1.75,9.,4.));
#302 = LINE('',#303,#304);
#303 = CARTESIAN_POINT('',(1.75,9.,8.));
#304 = VECTOR('',#305,1.);
#305 = DIRECTION('',(0.,-2.22044604925E-16,-1.));
#306 = ORIENTED_EDGE('',*,*,#307,.T.);
#307 = EDGE_CURVE('',#300,#152,#308,.T.);
#308 = LINE('',#309,#310);
#309 = CARTESIAN_POINT('',(1.75,9.,4.));
#310 = VECTOR('',#311,1.);
#311 = DIRECTION('',(0.,-1.,2.22044604925E-16));
#312 = ORIENTED_EDGE('',*,*,#159,.T.);
#313 = PLANE('',#314);
#314 = AXIS2_PLACEMENT_3D('',#315,#316,#317);
#315 = CARTESIAN_POINT('',(1.75,9.,8.));
#316 = DIRECTION('',(-1.,0.,-0.));
#317 = DIRECTION('',(0.,-1.,2.22044604925E-16));
#318 = ADVANCED_FACE('',(#319),#337,.F.);
#319 = FACE_BOUND('',#320,.F.);
#320 = EDGE_LOOP('',(#321,#322,#330,#336));
#321 = ORIENTED_EDGE('',*,*,#307,.F.);
#322 = ORIENTED_EDGE('',*,*,#323,.F.);
#323 = EDGE_CURVE('',#324,#300,#326,.T.);
#324 = VERTEX_POINT('',#325);
#325 = CARTESIAN_POINT('',(6.25,9.,4.));
#326 = LINE('',#327,#328);
#327 = CARTESIAN_POINT('',(6.25,9.,4.));
#328 = VECTOR('',#329,1.);
#329 = DIRECTION('',(-1.,0.,-0.));
#330 = ORIENTED_EDGE('',*,*,#331,.T.);
#331 = EDGE_CURVE('',#324,#144,#332,.T.);
#332 = LINE('',#333,#334);
#333 = CARTESIAN_POINT('',(6.25,9.,4.));
#334 = VECTOR('',#335,1.);
#335 = DIRECTION('',(0.,-1.,2.22044604925E-16));
#336 = ORIENTED_EDGE('',*,*,#151,.T.);
#337 = PLANE('',#338);
#338 = AXIS2_PLACEMENT_3D('',#339,#340,#341);
#339 = CARTESIAN_POINT('',(6.25,9.,4.));
#340 = DIRECTION('',(0.,-2.22044604925E-16,-1.));
#341 = DIRECTION('',(0.,-1.,2.22044604925E-16));
#342 = ADVANCED_FACE('',(#343),#354,.T.);
#343 = FACE_BOUND('',#344,.T.);
#344 = EDGE_LOOP('',(#345,#346,#352,#353));
#345 = ORIENTED_EDGE('',*,*,#193,.F.);
#346 = ORIENTED_EDGE('',*,*,#347,.T.);
#347 = EDGE_CURVE('',#194,#324,#348,.T.);
#348 = LINE('',#349,#350);
#349 = CARTESIAN_POINT('',(6.25,9.,8.));
#350 = VECTOR('',#351,1.);
#351 = DIRECTION('',(0.,-2.22044604925E-16,-1.));
#352 = ORIENTED_EDGE('',*,*,#331,.T.);
#353 = ORIENTED_EDGE('',*,*,#143,.T.);
#354 = PLANE('',#355);
#355 = AXIS2_PLACEMENT_3D('',#356,#357,#358);
#356 = CARTESIAN_POINT('',(6.25,9.,8.));
#357 = DIRECTION('',(-1.,0.,-0.));
#358 = DIRECTION('',(0.,-1.,2.22044604925E-16));
#359 = ADVANCED_FACE('',(#360),#366,.T.);
#360 = FACE_BOUND('',#361,.T.);
#361 = EDGE_LOOP('',(#362,#363,#364,#365));
#362 = ORIENTED_EDGE('',*,*,#347,.F.);
#363 = ORIENTED_EDGE('',*,*,#201,.T.);
#364 = ORIENTED_EDGE('',*,*,#299,.T.);
#365 = ORIENTED_EDGE('',*,*,#323,.F.);
#366 = PLANE('',#367);
#367 = AXIS2_PLACEMENT_3D('',#368,#369,#370);
#368 = CARTESIAN_POINT('',(6.25,9.,8.));
#369 = DIRECTION('',(0.,-1.,2.22044604925E-16));
#370 = DIRECTION('',(-1.,0.,-0.));
#371 = ADVANCED_FACE('',(#372),#397,.T.);
#372 = FACE_BOUND('',#373,.T.);
#373 = EDGE_LOOP('',(#374,#375,#383,#391));
#374 = ORIENTED_EDGE('',*,*,#217,.T.);
#375 = ORIENTED_EDGE('',*,*,#376,.T.);
#376 = EDGE_CURVE('',#220,#377,#379,.T.);
#377 = VERTEX_POINT('',#378);
#378 = CARTESIAN_POINT('',(12.,9.593633411781,1.8));
#379 = LINE('',#380,#381);
#380 = CARTESIAN_POINT('',(12.,9.593633411781,8.1));
#381 = VECTOR('',#382,1.);
#382 = DIRECTION('',(0.,0.,-1.));
#383 = ORIENTED_EDGE('',*,*,#384,.T.);
#384 = EDGE_CURVE('',#377,#385,#387,.T.);
#385 = VERTEX_POINT('',#386);
#386 = CARTESIAN_POINT('',(9.05,11.296816705891,1.8));
#387 = LINE('',#388,#389);
#388 = CARTESIAN_POINT('',(12.,9.593633411781,1.8));
#389 = VECTOR('',#390,1.);
#390 = DIRECTION('',(-0.866025403784,0.5,-0.));
#391 = ORIENTED_EDGE('',*,*,#392,.F.);
#392 = EDGE_CURVE('',#218,#385,#393,.T.);
#393 = LINE('',#394,#395);
#394 = CARTESIAN_POINT('',(9.05,11.296816705891,8.1));
#395 = VECTOR('',#396,1.);
#396 = DIRECTION('',(0.,0.,-1.));
#397 = PLANE('',#398);
#398 = AXIS2_PLACEMENT_3D('',#399,#400,#401);
#399 = CARTESIAN_POINT('',(12.,9.593633411781,8.1));
#400 = DIRECTION('',(0.5,0.866025403784,0.));
#401 = DIRECTION('',(-0.866025403784,0.5,-0.));
#402 = ADVANCED_FACE('',(#403),#421,.T.);
#403 = FACE_BOUND('',#404,.T.);
#404 = EDGE_LOOP('',(#405,#406,#407,#415));
#405 = ORIENTED_EDGE('',*,*,#259,.T.);
#406 = ORIENTED_EDGE('',*,*,#392,.T.);
#407 = ORIENTED_EDGE('',*,*,#408,.T.);
#408 = EDGE_CURVE('',#385,#409,#411,.T.);
#409 = VERTEX_POINT('',#410);
#410 = CARTESIAN_POINT('',(9.05,14.703183294109,1.8));
#411 = LINE('',#412,#413);
#412 = CARTESIAN_POINT('',(9.05,11.296816705891,1.8));
#413 = VECTOR('',#414,1.);
#414 = DIRECTION('',(5.214814064769E-16,1.,0.));
#415 = ORIENTED_EDGE('',*,*,#416,.F.);
#416 = EDGE_CURVE('',#252,#409,#417,.T.);
#417 = LINE('',#418,#419);
#418 = CARTESIAN_POINT('',(9.05,14.703183294109,8.1));
#419 = VECTOR('',#420,1.);
#420 = DIRECTION('',(0.,0.,-1.));
#421 = PLANE('',#422);
#422 = AXIS2_PLACEMENT_3D('',#423,#424,#425);
#423 = CARTESIAN_POINT('',(9.05,11.296816705891,8.1));
#424 = DIRECTION('',(1.,-5.214814064769E-16,0.));
#425 = DIRECTION('',(5.214814064769E-16,1.,0.));
#426 = ADVANCED_FACE('',(#427),#445,.T.);
#427 = FACE_BOUND('',#428,.T.);
#428 = EDGE_LOOP('',(#429,#430,#438,#444));
#429 = ORIENTED_EDGE('',*,*,#227,.T.);
#430 = ORIENTED_EDGE('',*,*,#431,.T.);
#431 = EDGE_CURVE('',#228,#432,#434,.T.);
#432 = VERTEX_POINT('',#433);
#433 = CARTESIAN_POINT('',(14.95,11.296816705891,1.8));
#434 = LINE('',#435,#436);
#435 = CARTESIAN_POINT('',(14.95,11.296816705891,8.1));
#436 = VECTOR('',#437,1.);
#437 = DIRECTION('',(0.,0.,-1.));
#438 = ORIENTED_EDGE('',*,*,#439,.T.);
#439 = EDGE_CURVE('',#432,#377,#440,.T.);
#440 = LINE('',#441,#442);
#441 = CARTESIAN_POINT('',(14.95,11.296816705891,1.8));
#442 = VECTOR('',#443,1.);
#443 = DIRECTION('',(-0.866025403784,-0.5,0.));
#444 = ORIENTED_EDGE('',*,*,#376,.F.);
#445 = PLANE('',#446);
#446 = AXIS2_PLACEMENT_3D('',#447,#448,#449);
#447 = CARTESIAN_POINT('',(14.95,11.296816705891,8.1));
#448 = DIRECTION('',(-0.5,0.866025403784,-0.));
#449 = DIRECTION('',(-0.866025403784,-0.5,0.));
#450 = ADVANCED_FACE('',(#451),#469,.T.);
#451 = FACE_BOUND('',#452,.T.);
#452 = EDGE_LOOP('',(#453,#454,#455,#463));
#453 = ORIENTED_EDGE('',*,*,#251,.T.);
#454 = ORIENTED_EDGE('',*,*,#416,.T.);
#455 = ORIENTED_EDGE('',*,*,#456,.T.);
#456 = EDGE_CURVE('',#409,#457,#459,.T.);
#457 = VERTEX_POINT('',#458);
#458 = CARTESIAN_POINT('',(12.,16.406366588219,1.8));
#459 = LINE('',#460,#461);
#460 = CARTESIAN_POINT('',(9.05,14.703183294109,1.8));
#461 = VECTOR('',#462,1.);
#462 = DIRECTION('',(0.866025403784,0.5,0.));
#463 = ORIENTED_EDGE('',*,*,#464,.F.);
#464 = EDGE_CURVE('',#244,#457,#465,.T.);
#465 = LINE('',#466,#467);
#466 = CARTESIAN_POINT('',(12.,16.406366588219,8.1));
#467 = VECTOR('',#468,1.);
#468 = DIRECTION('',(0.,0.,-1.));
#469 = PLANE('',#470);
#470 = AXIS2_PLACEMENT_3D('',#471,#472,#473);
#471 = CARTESIAN_POINT('',(9.05,14.703183294109,8.1));
#472 = DIRECTION('',(0.5,-0.866025403784,0.));
#473 = DIRECTION('',(0.866025403784,0.5,0.));
#474 = ADVANCED_FACE('',(#475),#493,.T.);
#475 = FACE_BOUND('',#476,.T.);
#476 = EDGE_LOOP('',(#477,#478,#486,#492));
#477 = ORIENTED_EDGE('',*,*,#235,.T.);
#478 = ORIENTED_EDGE('',*,*,#479,.T.);
#479 = EDGE_CURVE('',#236,#480,#482,.T.);
#480 = VERTEX_POINT('',#481);
#481 = CARTESIAN_POINT('',(14.95,14.703183294109,1.8));
#482 = LINE('',#483,#484);
#483 = CARTESIAN_POINT('',(14.95,14.703183294109,8.1));
#484 = VECTOR('',#485,1.);
#485 = DIRECTION('',(0.,0.,-1.));
#486 = ORIENTED_EDGE('',*,*,#487,.T.);
#487 = EDGE_CURVE('',#480,#432,#488,.T.);
#488 = LINE('',#489,#490);
#489 = CARTESIAN_POINT('',(14.95,14.703183294109,1.8));
#490 = VECTOR('',#491,1.);
#491 = DIRECTION('',(5.214814064769E-16,-1.,0.));
#492 = ORIENTED_EDGE('',*,*,#431,.F.);
#493 = PLANE('',#494);
#494 = AXIS2_PLACEMENT_3D('',#495,#496,#497);
#495 = CARTESIAN_POINT('',(14.95,14.703183294109,8.1));
#496 = DIRECTION('',(-1.,-5.214814064769E-16,0.));
#497 = DIRECTION('',(5.214814064769E-16,-1.,0.));
#498 = ADVANCED_FACE('',(#499),#510,.T.);
#499 = FACE_BOUND('',#500,.T.);
#500 = EDGE_LOOP('',(#501,#502,#503,#509));
#501 = ORIENTED_EDGE('',*,*,#243,.T.);
#502 = ORIENTED_EDGE('',*,*,#464,.T.);
#503 = ORIENTED_EDGE('',*,*,#504,.T.);
#504 = EDGE_CURVE('',#457,#480,#505,.T.);
#505 = LINE('',#506,#507);
#506 = CARTESIAN_POINT('',(12.,16.406366588219,1.8));
#507 = VECTOR('',#508,1.);
#508 = DIRECTION('',(0.866025403784,-0.5,0.));
#509 = ORIENTED_EDGE('',*,*,#479,.F.);
#510 = PLANE('',#511);
#511 = AXIS2_PLACEMENT_3D('',#512,#513,#514);
#512 = CARTESIAN_POINT('',(12.,16.406366588219,8.1));
#513 = DIRECTION('',(-0.5,-0.866025403784,0.));
#514 = DIRECTION('',(0.866025403784,-0.5,0.));
#515 = ADVANCED_FACE('',(#516,#524),#527,.F.);
#516 = FACE_BOUND('',#517,.F.);
#517 = EDGE_LOOP('',(#518,#519,#520,#521,#522,#523));
#518 = ORIENTED_EDGE('',*,*,#439,.T.);
#519 = ORIENTED_EDGE('',*,*,#384,.T.);
#520 = ORIENTED_EDGE('',*,*,#408,.T.);
#521 = ORIENTED_EDGE('',*,*,#456,.T.);
#522 = ORIENTED_EDGE('',*,*,#504,.T.);
#523 = ORIENTED_EDGE('',*,*,#487,.T.);
#524 = FACE_BOUND('',#525,.F.);
#525 = EDGE_LOOP('',(#526));
#526 = ORIENTED_EDGE('',*,*,#283,.F.);
#527 = PLANE('',#528);
#528 = AXIS2_PLACEMENT_3D('',#529,#530,#531);
#529 = CARTESIAN_POINT('',(12.,13.,1.8));
#530 = DIRECTION('',(0.,0.,-1.));
#531 = DIRECTION('',(1.,-0.,0.));
#532 = ADVANCED_FACE('',(#533),#539,.T.);
#533 = FACE_BOUND('',#534,.T.);
#534 = EDGE_LOOP('',(#535,#536,#537,#538));
#535 = ORIENTED_EDGE('',*,*,#186,.T.);
#536 = ORIENTED_EDGE('',*,*,#127,.T.);
#537 = ORIENTED_EDGE('',*,*,#94,.T.);
#538 = ORIENTED_EDGE('',*,*,#70,.F.);
#539 = PLANE('',#540);
#540 = AXIS2_PLACEMENT_3D('',#541,#542,#543);
#541 = CARTESIAN_POINT('',(24.,12.5,4.));
#542 = DIRECTION('',(1.,0.,0.));
#543 = DIRECTION('',(0.,1.,-2.22044604925E-16));
#544 = ( GEOMETRIC_REPRESENTATION_CONTEXT(3) 
GLOBAL_UNCERTAINTY_ASSIGNED_CONTEXT((#548)) GLOBAL_UNIT_ASSIGNED_CONTEXT
((#545,#546,#547)) REPRESENTATION_CONTEXT('Context #1',
  '3D Context with UNIT and UNCERTAINTY') );
#545 = ( LENGTH_UNIT() NAMED_UNIT(*) SI_UNIT(.MILLI.,.METRE.) );
#546 = ( NAMED_UNIT(*) PLANE_ANGLE_UNIT() SI_UNIT($,.RADIAN.) );
#547 = ( NAMED_UNIT(*) SI_UNIT($,.STERADIAN.) SOLID_ANGLE_UNIT() );
#548 = UNCERTAINTY_MEASURE_WITH_UNIT(LENGTH_MEASURE(1.E-07),#545,
  'distance_accuracy_value','confusion accuracy');
#549 = PRODUCT_RELATED_PRODUCT_CATEGORY('part',$,(#7));
ENDSEC;
END-ISO-10303-21;
