ISO-10303-21;
HEADER;
FILE_DESCRIPTION(('FreeCAD Model'),'2;1');
FILE_NAME('Open CASCADE Shape Model','2026-10-01T10:29:56',('FreeCAD'),(
    'FreeCAD'),'Open CASCADE STEP processor 7.8','FreeCAD','Unknown');
FILE_SCHEMA(('AUTOMOTIVE_DESIGN { 1 0 10303 214 1 1 1 1 }'));
ENDSEC;
DATA;
#1 = APPLICATION_PROTOCOL_DEFINITION('international standard',
  'automotive_design',2000,#2);
#2 = APPLICATION_CONTEXT(
  'core data for automotive mechanical design processes');
#3 = SHAPE_DEFINITION_REPRESENTATION(#4,#10);
#4 = PRODUCT_DEFINITION_SHAPE('','',#5);
#5 = PRODUCT_DEFINITION('design','',#6,#9);
#6 = PRODUCT_DEFINITION_FORMATION('','',#7);
#7 = PRODUCT('Open CASCADE STEP translator 7.8 22',
  'Open CASCADE STEP translator 7.8 22','',(#8));
#8 = PRODUCT_CONTEXT('',#2,'mechanical');
#9 = PRODUCT_DEFINITION_CONTEXT('part definition',#2,'design');
#10 = ADVANCED_BREP_SHAPE_REPRESENTATION('',(#11,#15),#315);
#11 = AXIS2_PLACEMENT_3D('',#12,#13,#14);
#12 = CARTESIAN_POINT('',(0.,0.,0.));
#13 = DIRECTION('',(0.,0.,1.));
#14 = DIRECTION('',(1.,0.,-0.));
#15 = MANIFOLD_SOLID_BREP('',#16);
#16 = CLOSED_SHELL('',(#17,#57,#88,#128,#152,#185,#213,#230,#253,#278,
    #303));
#17 = ADVANCED_FACE('',(#18),#52,.T.);
#18 = FACE_BOUND('',#19,.T.);
#19 = EDGE_LOOP('',(#20,#30,#38,#46));
#20 = ORIENTED_EDGE('',*,*,#21,.F.);
#21 = EDGE_CURVE('',#22,#24,#26,.T.);
#22 = VERTEX_POINT('',#23);
#23 = CARTESIAN_POINT('',(17.,25.,3.1));
#24 = VERTEX_POINT('',#25);
#25 = CARTESIAN_POINT('',(17.,7.105427357601E-15,3.1));
#26 = LINE('',#27,#28);
#27 = CARTESIAN_POINT('',(17.,47.,3.1));
#28 = VECTOR('',#29,1.);
#29 = DIRECTION('',(0.,-1.,2.22044604925E-16));
#30 = ORIENTED_EDGE('',*,*,#31,.F.);
#31 = EDGE_CURVE('',#32,#22,#34,.T.);
#32 = VERTEX_POINT('',#33);
#33 = CARTESIAN_POINT('',(12.7,25.,3.1));
#34 = LINE('',#35,#36);
#35 = CARTESIAN_POINT('',(-2.5,25.,3.1));
#36 = VECTOR('',#37,1.);
#37 = DIRECTION('',(1.,0.,0.));
#38 = ORIENTED_EDGE('',*,*,#39,.T.);
#39 = EDGE_CURVE('',#32,#40,#42,.T.);
#40 = VERTEX_POINT('',#41);
#41 = CARTESIAN_POINT('',(12.7,7.105427357601E-15,3.1));
#42 = LINE('',#43,#44);
#43 = CARTESIAN_POINT('',(12.7,47.,3.1));
#44 = VECTOR('',#45,1.);
#45 = DIRECTION('',(0.,-1.,2.22044604925E-16));
#46 = ORIENTED_EDGE('',*,*,#47,.T.);
#47 = EDGE_CURVE('',#40,#24,#48,.T.);
#48 = LINE('',#49,#50);
#49 = CARTESIAN_POINT('',(-2.5,7.105427357601E-15,3.1));
#50 = VECTOR('',#51,1.);
#51 = DIRECTION('',(1.,0.,0.));
#52 = PLANE('',#53);
#53 = AXIS2_PLACEMENT_3D('',#54,#55,#56);
#54 = CARTESIAN_POINT('',(0.,47.,3.1));
#55 = DIRECTION('',(0.,2.22044604925E-16,1.));
#56 = DIRECTION('',(0.,-1.,2.22044604925E-16));
#57 = ADVANCED_FACE('',(#58),#83,.T.);
#58 = FACE_BOUND('',#59,.T.);
#59 = EDGE_LOOP('',(#60,#70,#76,#77));
#60 = ORIENTED_EDGE('',*,*,#61,.F.);
#61 = EDGE_CURVE('',#62,#64,#66,.T.);
#62 = VERTEX_POINT('',#63);
#63 = CARTESIAN_POINT('',(17.,25.,5.329070518201E-15));
#64 = VERTEX_POINT('',#65);
#65 = CARTESIAN_POINT('',(17.,7.105427357601E-15,1.06581410364E-14));
#66 = LINE('',#67,#68);
#67 = CARTESIAN_POINT('',(17.,47.,0.));
#68 = VECTOR('',#69,1.);
#69 = DIRECTION('',(0.,-1.,2.22044604925E-16));
#70 = ORIENTED_EDGE('',*,*,#71,.F.);
#71 = EDGE_CURVE('',#22,#62,#72,.T.);
#72 = LINE('',#73,#74);
#73 = CARTESIAN_POINT('',(17.,25.,-5.1));
#74 = VECTOR('',#75,1.);
#75 = DIRECTION('',(0.,-2.22044604925E-16,-1.));
#76 = ORIENTED_EDGE('',*,*,#21,.T.);
#77 = ORIENTED_EDGE('',*,*,#78,.T.);
#78 = EDGE_CURVE('',#24,#64,#79,.T.);
#79 = LINE('',#80,#81);
#80 = CARTESIAN_POINT('',(17.,0.,-5.1));
#81 = VECTOR('',#82,1.);
#82 = DIRECTION('',(0.,-2.22044604925E-16,-1.));
#83 = PLANE('',#84);
#84 = AXIS2_PLACEMENT_3D('',#85,#86,#87);
#85 = CARTESIAN_POINT('',(17.,47.,0.));
#86 = DIRECTION('',(1.,0.,0.));
#87 = DIRECTION('',(0.,-1.,2.22044604925E-16));
#88 = ADVANCED_FACE('',(#89),#123,.T.);
#89 = FACE_BOUND('',#90,.T.);
#90 = EDGE_LOOP('',(#91,#92,#100,#108,#116,#122));
#91 = ORIENTED_EDGE('',*,*,#47,.F.);
#92 = ORIENTED_EDGE('',*,*,#93,.F.);
#93 = EDGE_CURVE('',#94,#40,#96,.T.);
#94 = VERTEX_POINT('',#95);
#95 = CARTESIAN_POINT('',(12.7,7.105427357601E-15,14.8));
#96 = LINE('',#97,#98);
#97 = CARTESIAN_POINT('',(12.7,0.,-3.6));
#98 = VECTOR('',#99,1.);
#99 = DIRECTION('',(0.,-2.22044604925E-16,-1.));
#100 = ORIENTED_EDGE('',*,*,#101,.F.);
#101 = EDGE_CURVE('',#102,#94,#104,.T.);
#102 = VERTEX_POINT('',#103);
#103 = CARTESIAN_POINT('',(0.,7.105427357601E-15,14.8));
#104 = LINE('',#105,#106);
#105 = CARTESIAN_POINT('',(1.306338028169,7.105427357601E-15,14.8));
#106 = VECTOR('',#107,1.);
#107 = DIRECTION('',(1.,0.,0.));
#108 = ORIENTED_EDGE('',*,*,#109,.F.);
#109 = EDGE_CURVE('',#110,#102,#112,.T.);
#110 = VERTEX_POINT('',#111);
#111 = CARTESIAN_POINT('',(0.,7.105427357601E-15,1.06581410364E-14));
#112 = LINE('',#113,#114);
#113 = CARTESIAN_POINT('',(0.,0.,-1.4));
#114 = VECTOR('',#115,1.);
#115 = DIRECTION('',(0.,2.22044604925E-16,1.));
#116 = ORIENTED_EDGE('',*,*,#117,.F.);
#117 = EDGE_CURVE('',#64,#110,#118,.T.);
#118 = LINE('',#119,#120);
#119 = CARTESIAN_POINT('',(2.214788732394,7.105427357601E-15,
    5.329070518201E-15));
#120 = VECTOR('',#121,1.);
#121 = DIRECTION('',(-1.,0.,0.));
#122 = ORIENTED_EDGE('',*,*,#78,.F.);
#123 = PLANE('',#124);
#124 = AXIS2_PLACEMENT_3D('',#125,#126,#127);
#125 = CARTESIAN_POINT('',(-5.,0.,-10.2));
#126 = DIRECTION('',(0.,-1.,2.22044604925E-16));
#127 = DIRECTION('',(1.,0.,0.));
#128 = ADVANCED_FACE('',(#129),#147,.T.);
#129 = FACE_BOUND('',#130,.T.);
#130 = EDGE_LOOP('',(#131,#132,#140,#146));
#131 = ORIENTED_EDGE('',*,*,#39,.F.);
#132 = ORIENTED_EDGE('',*,*,#133,.F.);
#133 = EDGE_CURVE('',#134,#32,#136,.T.);
#134 = VERTEX_POINT('',#135);
#135 = CARTESIAN_POINT('',(12.7,25.,14.8));
#136 = LINE('',#137,#138);
#137 = CARTESIAN_POINT('',(12.7,25.,-3.6));
#138 = VECTOR('',#139,1.);
#139 = DIRECTION('',(0.,-2.22044604925E-16,-1.));
#140 = ORIENTED_EDGE('',*,*,#141,.T.);
#141 = EDGE_CURVE('',#134,#94,#142,.T.);
#142 = LINE('',#143,#144);
#143 = CARTESIAN_POINT('',(12.7,47.,14.8));
#144 = VECTOR('',#145,1.);
#145 = DIRECTION('',(0.,-1.,2.22044604925E-16));
#146 = ORIENTED_EDGE('',*,*,#93,.T.);
#147 = PLANE('',#148);
#148 = AXIS2_PLACEMENT_3D('',#149,#150,#151);
#149 = CARTESIAN_POINT('',(12.7,47.,3.));
#150 = DIRECTION('',(1.,0.,0.));
#151 = DIRECTION('',(0.,-1.,2.22044604925E-16));
#152 = ADVANCED_FACE('',(#153),#180,.F.);
#153 = FACE_BOUND('',#154,.F.);
#154 = EDGE_LOOP('',(#155,#156,#157,#165,#173,#179));
#155 = ORIENTED_EDGE('',*,*,#31,.F.);
#156 = ORIENTED_EDGE('',*,*,#133,.F.);
#157 = ORIENTED_EDGE('',*,*,#158,.F.);
#158 = EDGE_CURVE('',#159,#134,#161,.T.);
#159 = VERTEX_POINT('',#160);
#160 = CARTESIAN_POINT('',(0.,25.,14.8));
#161 = LINE('',#162,#163);
#162 = CARTESIAN_POINT('',(1.306338028169,25.,14.8));
#163 = VECTOR('',#164,1.);
#164 = DIRECTION('',(1.,0.,0.));
#165 = ORIENTED_EDGE('',*,*,#166,.F.);
#166 = EDGE_CURVE('',#167,#159,#169,.T.);
#167 = VERTEX_POINT('',#168);
#168 = CARTESIAN_POINT('',(0.,25.,5.329070518201E-15));
#169 = LINE('',#170,#171);
#170 = CARTESIAN_POINT('',(0.,25.,-1.4));
#171 = VECTOR('',#172,1.);
#172 = DIRECTION('',(0.,2.22044604925E-16,1.));
#173 = ORIENTED_EDGE('',*,*,#174,.F.);
#174 = EDGE_CURVE('',#62,#167,#175,.T.);
#175 = LINE('',#176,#177);
#176 = CARTESIAN_POINT('',(2.214788732394,25.,0.));
#177 = VECTOR('',#178,1.);
#178 = DIRECTION('',(-1.,0.,0.));
#179 = ORIENTED_EDGE('',*,*,#71,.F.);
#180 = PLANE('',#181);
#181 = AXIS2_PLACEMENT_3D('',#182,#183,#184);
#182 = CARTESIAN_POINT('',(-5.,25.,-10.2));
#183 = DIRECTION('',(0.,-1.,2.22044604925E-16));
#184 = DIRECTION('',(1.,0.,0.));
#185 = ADVANCED_FACE('',(#186,#197),#208,.T.);
#186 = FACE_BOUND('',#187,.T.);
#187 = EDGE_LOOP('',(#188,#189,#190,#191));
#188 = ORIENTED_EDGE('',*,*,#174,.F.);
#189 = ORIENTED_EDGE('',*,*,#61,.T.);
#190 = ORIENTED_EDGE('',*,*,#117,.T.);
#191 = ORIENTED_EDGE('',*,*,#192,.F.);
#192 = EDGE_CURVE('',#167,#110,#193,.T.);
#193 = LINE('',#194,#195);
#194 = CARTESIAN_POINT('',(0.,51.,0.));
#195 = VECTOR('',#196,1.);
#196 = DIRECTION('',(0.,-1.,2.22044604925E-16));
#197 = FACE_BOUND('',#198,.T.);
#198 = EDGE_LOOP('',(#199));
#199 = ORIENTED_EDGE('',*,*,#200,.T.);
#200 = EDGE_CURVE('',#201,#201,#203,.T.);
#201 = VERTEX_POINT('',#202);
#202 = CARTESIAN_POINT('',(6.5,11.8,1.7763568394E-15));
#203 = CIRCLE('',#204,3.2);
#204 = AXIS2_PLACEMENT_3D('',#205,#206,#207);
#205 = CARTESIAN_POINT('',(6.5,15.,1.7763568394E-15));
#206 = DIRECTION('',(-0.,2.22044604925E-16,1.));
#207 = DIRECTION('',(0.,-1.,2.22044604925E-16));
#208 = PLANE('',#209);
#209 = AXIS2_PLACEMENT_3D('',#210,#211,#212);
#210 = CARTESIAN_POINT('',(9.429577464789,-35.92957746478,
    1.24344978758E-14));
#211 = DIRECTION('',(-0.,-2.22044604925E-16,-1.));
#212 = DIRECTION('',(0.,1.,-2.22044604925E-16));
#213 = ADVANCED_FACE('',(#214),#225,.T.);
#214 = FACE_BOUND('',#215,.T.);
#215 = EDGE_LOOP('',(#216,#222,#223,#224));
#216 = ORIENTED_EDGE('',*,*,#217,.F.);
#217 = EDGE_CURVE('',#159,#102,#218,.T.);
#218 = LINE('',#219,#220);
#219 = CARTESIAN_POINT('',(0.,47.,14.8));
#220 = VECTOR('',#221,1.);
#221 = DIRECTION('',(0.,-1.,2.22044604925E-16));
#222 = ORIENTED_EDGE('',*,*,#166,.F.);
#223 = ORIENTED_EDGE('',*,*,#192,.T.);
#224 = ORIENTED_EDGE('',*,*,#109,.T.);
#225 = PLANE('',#226);
#226 = AXIS2_PLACEMENT_3D('',#227,#228,#229);
#227 = CARTESIAN_POINT('',(0.,-41.,7.4));
#228 = DIRECTION('',(-1.,0.,-0.));
#229 = DIRECTION('',(0.,1.,-2.22044604925E-16));
#230 = ADVANCED_FACE('',(#231,#237),#248,.T.);
#231 = FACE_BOUND('',#232,.T.);
#232 = EDGE_LOOP('',(#233,#234,#235,#236));
#233 = ORIENTED_EDGE('',*,*,#141,.F.);
#234 = ORIENTED_EDGE('',*,*,#158,.F.);
#235 = ORIENTED_EDGE('',*,*,#217,.T.);
#236 = ORIENTED_EDGE('',*,*,#101,.T.);
#237 = FACE_BOUND('',#238,.T.);
#238 = EDGE_LOOP('',(#239));
#239 = ORIENTED_EDGE('',*,*,#240,.F.);
#240 = EDGE_CURVE('',#241,#241,#243,.T.);
#241 = VERTEX_POINT('',#242);
#242 = CARTESIAN_POINT('',(6.5,13.2,14.8));
#243 = CIRCLE('',#244,1.8);
#244 = AXIS2_PLACEMENT_3D('',#245,#246,#247);
#245 = CARTESIAN_POINT('',(6.5,15.,14.8));
#246 = DIRECTION('',(-0.,2.22044604925E-16,1.));
#247 = DIRECTION('',(0.,-1.,2.22044604925E-16));
#248 = PLANE('',#249);
#249 = AXIS2_PLACEMENT_3D('',#250,#251,#252);
#250 = CARTESIAN_POINT('',(7.612676056338,-34.11267605633,14.8));
#251 = DIRECTION('',(0.,2.22044604925E-16,1.));
#252 = DIRECTION('',(0.,-1.,2.22044604925E-16));
#253 = ADVANCED_FACE('',(#254),#273,.F.);
#254 = FACE_BOUND('',#255,.F.);
#255 = EDGE_LOOP('',(#256,#264,#271,#272));
#256 = ORIENTED_EDGE('',*,*,#257,.T.);
#257 = EDGE_CURVE('',#201,#258,#260,.T.);
#258 = VERTEX_POINT('',#259);
#259 = CARTESIAN_POINT('',(6.5,11.8,11.8));
#260 = LINE('',#261,#262);
#261 = CARTESIAN_POINT('',(6.5,11.8,-15.2));
#262 = VECTOR('',#263,1.);
#263 = DIRECTION('',(0.,2.22044604925E-16,1.));
#264 = ORIENTED_EDGE('',*,*,#265,.F.);
#265 = EDGE_CURVE('',#258,#258,#266,.T.);
#266 = CIRCLE('',#267,3.2);
#267 = AXIS2_PLACEMENT_3D('',#268,#269,#270);
#268 = CARTESIAN_POINT('',(6.5,15.,11.8));
#269 = DIRECTION('',(-0.,2.22044604925E-16,1.));
#270 = DIRECTION('',(0.,-1.,2.22044604925E-16));
#271 = ORIENTED_EDGE('',*,*,#257,.F.);
#272 = ORIENTED_EDGE('',*,*,#200,.T.);
#273 = CYLINDRICAL_SURFACE('',#274,3.2);
#274 = AXIS2_PLACEMENT_3D('',#275,#276,#277);
#275 = CARTESIAN_POINT('',(6.5,15.,-15.2));
#276 = DIRECTION('',(0.,2.22044604925E-16,1.));
#277 = DIRECTION('',(0.,-1.,2.22044604925E-16));
#278 = ADVANCED_FACE('',(#279),#298,.F.);
#279 = FACE_BOUND('',#280,.F.);
#280 = EDGE_LOOP('',(#281,#282,#290,#297));
#281 = ORIENTED_EDGE('',*,*,#240,.F.);
#282 = ORIENTED_EDGE('',*,*,#283,.F.);
#283 = EDGE_CURVE('',#284,#241,#286,.T.);
#284 = VERTEX_POINT('',#285);
#285 = CARTESIAN_POINT('',(6.5,13.2,11.8));
#286 = LINE('',#287,#288);
#287 = CARTESIAN_POINT('',(6.5,13.2,11.7));
#288 = VECTOR('',#289,1.);
#289 = DIRECTION('',(0.,2.22044604925E-16,1.));
#290 = ORIENTED_EDGE('',*,*,#291,.T.);
#291 = EDGE_CURVE('',#284,#284,#292,.T.);
#292 = CIRCLE('',#293,1.8);
#293 = AXIS2_PLACEMENT_3D('',#294,#295,#296);
#294 = CARTESIAN_POINT('',(6.5,15.,11.8));
#295 = DIRECTION('',(-0.,2.22044604925E-16,1.));
#296 = DIRECTION('',(0.,-1.,2.22044604925E-16));
#297 = ORIENTED_EDGE('',*,*,#283,.T.);
#298 = CYLINDRICAL_SURFACE('',#299,1.8);
#299 = AXIS2_PLACEMENT_3D('',#300,#301,#302);
#300 = CARTESIAN_POINT('',(6.5,15.,11.7));
#301 = DIRECTION('',(0.,2.22044604925E-16,1.));
#302 = DIRECTION('',(0.,-1.,2.22044604925E-16));
#303 = ADVANCED_FACE('',(#304,#307),#310,.F.);
#304 = FACE_BOUND('',#305,.F.);
#305 = EDGE_LOOP('',(#306));
#306 = ORIENTED_EDGE('',*,*,#265,.T.);
#307 = FACE_BOUND('',#308,.F.);
#308 = EDGE_LOOP('',(#309));
#309 = ORIENTED_EDGE('',*,*,#291,.F.);
#310 = PLANE('',#311);
#311 = AXIS2_PLACEMENT_3D('',#312,#313,#314);
#312 = CARTESIAN_POINT('',(6.5,15.,11.8));
#313 = DIRECTION('',(0.,2.22044604925E-16,1.));
#314 = DIRECTION('',(0.,-1.,2.22044604925E-16));
#315 = ( GEOMETRIC_REPRESENTATION_CONTEXT(3) 
GLOBAL_UNCERTAINTY_ASSIGNED_CONTEXT((#319)) GLOBAL_UNIT_ASSIGNED_CONTEXT
((#316,#317,#318)) REPRESENTATION_CONTEXT('Context #1',
  '3D Context with UNIT and UNCERTAINTY') );
#316 = ( LENGTH_UNIT() NAMED_UNIT(*) SI_UNIT(.MILLI.,.METRE.) );
#317 = ( NAMED_UNIT(*) PLANE_ANGLE_UNIT() SI_UNIT($,.RADIAN.) );
#318 = ( NAMED_UNIT(*) SI_UNIT($,.STERADIAN.) SOLID_ANGLE_UNIT() );
#319 = UNCERTAINTY_MEASURE_WITH_UNIT(LENGTH_MEASURE(1.E-07),#316,
  'distance_accuracy_value','confusion accuracy');
#320 = PRODUCT_RELATED_PRODUCT_CATEGORY('part',$,(#7));
ENDSEC;
END-ISO-10303-21;
