ISO-10303-21;
HEADER;
FILE_DESCRIPTION(('FreeCAD Model'),'2;1');
FILE_NAME('Open CASCADE Shape Model','2026-10-09T08:39:35',('FreeCAD'),(
    'FreeCAD'),'Open CASCADE STEP processor 7.8','FreeCAD','Unknown');
FILE_SCHEMA(('AUTOMOTIVE_DESIGN { 1 0 10303 214 1 1 1 1 }'));
ENDSEC;
DATA;
#1 = APPLICATION_PROTOCOL_DEFINITION('international standard',
  'automotive_design',2000,#2);
#2 = APPLICATION_CONTEXT(
  'core data for automotive mechanical design processes');
#3 = SHAPE_DEFINITION_REPRESENTATION(#4,#10);
#4 = PRODUCT_DEFINITION_SHAPE('','',#5);
#5 = PRODUCT_DEFINITION('design','',#6,#9);
#6 = PRODUCT_DEFINITION_FORMATION('','',#7);
#7 = PRODUCT('Open CASCADE STEP translator 7.8 14',
  'Open CASCADE STEP translator 7.8 14','',(#8));
#8 = PRODUCT_CONTEXT('',#2,'mechanical');
#9 = PRODUCT_DEFINITION_CONTEXT('part definition',#2,'design');
#10 = ADVANCED_BREP_SHAPE_REPRESENTATION('',(#11,#15),#2094);
#11 = AXIS2_PLACEMENT_3D('',#12,#13,#14);
#12 = CARTESIAN_POINT('',(0.,0.,0.));
#13 = DIRECTION('',(0.,0.,1.));
#14 = DIRECTION('',(1.,0.,-0.));
#15 = MANIFOLD_SOLID_BREP('',#16);
#16 = CLOSED_SHELL('',(#17,#57,#88,#119,#159,#183,#207,#269,#293,#326,
    #388,#405,#422,#709,#721,#746,#771,#788,#800,#825,#850,#882,#906,
    #931,#955,#980,#1004,#1028,#1052,#1077,#1101,#1125,#1149,#1174,#1191
    ,#1223,#1247,#1272,#1296,#1321,#1345,#1370,#1394,#1419,#1443,#1467,
    #1492,#1516,#1541,#1565,#1590,#1607,#1619,#1631,#1653,#1778,#1809,
    #1833,#1857,#1881,#1905,#1922,#1953,#1977,#2001,#2025,#2049,#2066,
    #2080));
#17 = ADVANCED_FACE('',(#18),#52,.T.);
#18 = FACE_BOUND('',#19,.T.);
#19 = EDGE_LOOP('',(#20,#30,#38,#46));
#20 = ORIENTED_EDGE('',*,*,#21,.F.);
#21 = EDGE_CURVE('',#22,#24,#26,.T.);
#22 = VERTEX_POINT('',#23);
#23 = CARTESIAN_POINT('',(16.3,180.,3.1));
#24 = VERTEX_POINT('',#25);
#25 = CARTESIAN_POINT('',(16.3,0.4,3.1));
#26 = LINE('',#27,#28);
#27 = CARTESIAN_POINT('',(16.3,180.,3.1));
#28 = VECTOR('',#29,1.);
#29 = DIRECTION('',(0.,-1.,2.22044604925E-16));
#30 = ORIENTED_EDGE('',*,*,#31,.F.);
#31 = EDGE_CURVE('',#32,#22,#34,.T.);
#32 = VERTEX_POINT('',#33);
#33 = CARTESIAN_POINT('',(12.,180.,3.1));
#34 = LINE('',#35,#36);
#35 = CARTESIAN_POINT('',(12.,180.,3.1));
#36 = VECTOR('',#37,1.);
#37 = DIRECTION('',(1.,0.,0.));
#38 = ORIENTED_EDGE('',*,*,#39,.T.);
#39 = EDGE_CURVE('',#32,#40,#42,.T.);
#40 = VERTEX_POINT('',#41);
#41 = CARTESIAN_POINT('',(12.,0.4,3.1));
#42 = LINE('',#43,#44);
#43 = CARTESIAN_POINT('',(12.,180.,3.1));
#44 = VECTOR('',#45,1.);
#45 = DIRECTION('',(0.,-1.,2.22044604925E-16));
#46 = ORIENTED_EDGE('',*,*,#47,.T.);
#47 = EDGE_CURVE('',#40,#24,#48,.T.);
#48 = LINE('',#49,#50);
#49 = CARTESIAN_POINT('',(12.,0.4,3.1));
#50 = VECTOR('',#51,1.);
#51 = DIRECTION('',(1.,0.,0.));
#52 = PLANE('',#53);
#53 = AXIS2_PLACEMENT_3D('',#54,#55,#56);
#54 = CARTESIAN_POINT('',(12.,180.,3.1));
#55 = DIRECTION('',(0.,2.22044604925E-16,1.));
#56 = DIRECTION('',(0.,-1.,2.22044604925E-16));
#57 = ADVANCED_FACE('',(#58),#83,.F.);
#58 = FACE_BOUND('',#59,.F.);
#59 = EDGE_LOOP('',(#60,#61,#69,#77));
#60 = ORIENTED_EDGE('',*,*,#21,.F.);
#61 = ORIENTED_EDGE('',*,*,#62,.T.);
#62 = EDGE_CURVE('',#22,#63,#65,.T.);
#63 = VERTEX_POINT('',#64);
#64 = CARTESIAN_POINT('',(16.3,180.,14.8));
#65 = LINE('',#66,#67);
#66 = CARTESIAN_POINT('',(16.3,180.,3.));
#67 = VECTOR('',#68,1.);
#68 = DIRECTION('',(0.,2.22044604925E-16,1.));
#69 = ORIENTED_EDGE('',*,*,#70,.T.);
#70 = EDGE_CURVE('',#63,#71,#73,.T.);
#71 = VERTEX_POINT('',#72);
#72 = CARTESIAN_POINT('',(16.3,0.4,14.8));
#73 = LINE('',#74,#75);
#74 = CARTESIAN_POINT('',(16.3,180.,14.8));
#75 = VECTOR('',#76,1.);
#76 = DIRECTION('',(0.,-1.,2.22044604925E-16));
#77 = ORIENTED_EDGE('',*,*,#78,.F.);
#78 = EDGE_CURVE('',#24,#71,#79,.T.);
#79 = LINE('',#80,#81);
#80 = CARTESIAN_POINT('',(16.3,0.4,3.1));
#81 = VECTOR('',#82,1.);
#82 = DIRECTION('',(0.,2.22044604925E-16,1.));
#83 = PLANE('',#84);
#84 = AXIS2_PLACEMENT_3D('',#85,#86,#87);
#85 = CARTESIAN_POINT('',(16.3,180.,3.));
#86 = DIRECTION('',(1.,0.,0.));
#87 = DIRECTION('',(0.,-1.,2.22044604925E-16));
#88 = ADVANCED_FACE('',(#89),#114,.T.);
#89 = FACE_BOUND('',#90,.F.);
#90 = EDGE_LOOP('',(#91,#99,#100,#108));
#91 = ORIENTED_EDGE('',*,*,#92,.F.);
#92 = EDGE_CURVE('',#40,#93,#95,.T.);
#93 = VERTEX_POINT('',#94);
#94 = CARTESIAN_POINT('',(12.4,0.,2.7));
#95 = LINE('',#96,#97);
#96 = CARTESIAN_POINT('',(12.65,-0.25,2.45));
#97 = VECTOR('',#98,1.);
#98 = DIRECTION('',(0.57735026919,-0.57735026919,-0.57735026919));
#99 = ORIENTED_EDGE('',*,*,#47,.T.);
#100 = ORIENTED_EDGE('',*,*,#101,.T.);
#101 = EDGE_CURVE('',#24,#102,#104,.T.);
#102 = VERTEX_POINT('',#103);
#103 = CARTESIAN_POINT('',(16.7,0.,2.7));
#104 = LINE('',#105,#106);
#105 = CARTESIAN_POINT('',(15.716666666667,0.983333333333,3.683333333333
    ));
#106 = VECTOR('',#107,1.);
#107 = DIRECTION('',(0.57735026919,-0.57735026919,-0.57735026919));
#108 = ORIENTED_EDGE('',*,*,#109,.F.);
#109 = EDGE_CURVE('',#93,#102,#110,.T.);
#110 = LINE('',#111,#112);
#111 = CARTESIAN_POINT('',(12.,0.,2.7));
#112 = VECTOR('',#113,1.);
#113 = DIRECTION('',(1.,0.,0.));
#114 = PLANE('',#115);
#115 = AXIS2_PLACEMENT_3D('',#116,#117,#118);
#116 = CARTESIAN_POINT('',(12.,0.2,2.9));
#117 = DIRECTION('',(-3.474993633276E-18,-0.707106781187,0.707106781187)
  );
#118 = DIRECTION('',(-1.,2.457191562669E-18,-2.457191562669E-18));
#119 = ADVANCED_FACE('',(#120),#154,.T.);
#120 = FACE_BOUND('',#121,.T.);
#121 = EDGE_LOOP('',(#122,#130,#138,#146,#152,#153));
#122 = ORIENTED_EDGE('',*,*,#123,.F.);
#123 = EDGE_CURVE('',#124,#63,#126,.T.);
#124 = VERTEX_POINT('',#125);
#125 = CARTESIAN_POINT('',(0.,180.,14.8));
#126 = LINE('',#127,#128);
#127 = CARTESIAN_POINT('',(0.,180.,14.8));
#128 = VECTOR('',#129,1.);
#129 = DIRECTION('',(1.,0.,0.));
#130 = ORIENTED_EDGE('',*,*,#131,.F.);
#131 = EDGE_CURVE('',#132,#124,#134,.T.);
#132 = VERTEX_POINT('',#133);
#133 = CARTESIAN_POINT('',(0.,180.,0.));
#134 = LINE('',#135,#136);
#135 = CARTESIAN_POINT('',(0.,180.,0.));
#136 = VECTOR('',#137,1.);
#137 = DIRECTION('',(0.,2.22044604925E-16,1.));
#138 = ORIENTED_EDGE('',*,*,#139,.T.);
#139 = EDGE_CURVE('',#132,#140,#142,.T.);
#140 = VERTEX_POINT('',#141);
#141 = CARTESIAN_POINT('',(12.,180.,0.));
#142 = LINE('',#143,#144);
#143 = CARTESIAN_POINT('',(0.,180.,0.));
#144 = VECTOR('',#145,1.);
#145 = DIRECTION('',(1.,0.,0.));
#146 = ORIENTED_EDGE('',*,*,#147,.T.);
#147 = EDGE_CURVE('',#140,#32,#148,.T.);
#148 = LINE('',#149,#150);
#149 = CARTESIAN_POINT('',(12.,180.,0.));
#150 = VECTOR('',#151,1.);
#151 = DIRECTION('',(0.,2.22044604925E-16,1.));
#152 = ORIENTED_EDGE('',*,*,#31,.T.);
#153 = ORIENTED_EDGE('',*,*,#62,.T.);
#154 = PLANE('',#155);
#155 = AXIS2_PLACEMENT_3D('',#156,#157,#158);
#156 = CARTESIAN_POINT('',(0.,180.,0.));
#157 = DIRECTION('',(0.,-1.,2.22044604925E-16));
#158 = DIRECTION('',(1.,0.,0.));
#159 = ADVANCED_FACE('',(#160),#178,.F.);
#160 = FACE_BOUND('',#161,.F.);
#161 = EDGE_LOOP('',(#162,#170,#171,#172));
#162 = ORIENTED_EDGE('',*,*,#163,.F.);
#163 = EDGE_CURVE('',#140,#164,#166,.T.);
#164 = VERTEX_POINT('',#165);
#165 = CARTESIAN_POINT('',(12.,0.4,3.730349362741E-14));
#166 = LINE('',#167,#168);
#167 = CARTESIAN_POINT('',(12.,180.,0.));
#168 = VECTOR('',#169,1.);
#169 = DIRECTION('',(0.,-1.,2.22044604925E-16));
#170 = ORIENTED_EDGE('',*,*,#147,.T.);
#171 = ORIENTED_EDGE('',*,*,#39,.T.);
#172 = ORIENTED_EDGE('',*,*,#173,.F.);
#173 = EDGE_CURVE('',#164,#40,#174,.T.);
#174 = LINE('',#175,#176);
#175 = CARTESIAN_POINT('',(12.,0.4,3.907985046681E-14));
#176 = VECTOR('',#177,1.);
#177 = DIRECTION('',(0.,2.22044604925E-16,1.));
#178 = PLANE('',#179);
#179 = AXIS2_PLACEMENT_3D('',#180,#181,#182);
#180 = CARTESIAN_POINT('',(12.,180.,0.));
#181 = DIRECTION('',(1.,0.,0.));
#182 = DIRECTION('',(0.,-1.,2.22044604925E-16));
#183 = ADVANCED_FACE('',(#184),#202,.F.);
#184 = FACE_BOUND('',#185,.F.);
#185 = EDGE_LOOP('',(#186,#187,#188,#196));
#186 = ORIENTED_EDGE('',*,*,#101,.F.);
#187 = ORIENTED_EDGE('',*,*,#78,.T.);
#188 = ORIENTED_EDGE('',*,*,#189,.T.);
#189 = EDGE_CURVE('',#71,#190,#192,.T.);
#190 = VERTEX_POINT('',#191);
#191 = CARTESIAN_POINT('',(16.7,0.,14.4));
#192 = LINE('',#193,#194);
#193 = CARTESIAN_POINT('',(18.383333333333,-1.683333333333,
    12.716666666667));
#194 = VECTOR('',#195,1.);
#195 = DIRECTION('',(0.57735026919,-0.57735026919,-0.57735026919));
#196 = ORIENTED_EDGE('',*,*,#197,.F.);
#197 = EDGE_CURVE('',#102,#190,#198,.T.);
#198 = LINE('',#199,#200);
#199 = CARTESIAN_POINT('',(16.7,0.,3.1));
#200 = VECTOR('',#201,1.);
#201 = DIRECTION('',(0.,2.22044604925E-16,1.));
#202 = PLANE('',#203);
#203 = AXIS2_PLACEMENT_3D('',#204,#205,#206);
#204 = CARTESIAN_POINT('',(16.5,0.2,3.1));
#205 = DIRECTION('',(0.707106781187,0.707106781187,-1.570092458684E-16)
  );
#206 = DIRECTION('',(0.,2.22044604925E-16,1.));
#207 = ADVANCED_FACE('',(#208,#242,#253),#264,.T.);
#208 = FACE_BOUND('',#209,.T.);
#209 = EDGE_LOOP('',(#210,#220,#228,#234,#235,#236));
#210 = ORIENTED_EDGE('',*,*,#211,.F.);
#211 = EDGE_CURVE('',#212,#214,#216,.T.);
#212 = VERTEX_POINT('',#213);
#213 = CARTESIAN_POINT('',(29.,184.,14.8));
#214 = VERTEX_POINT('',#215);
#215 = CARTESIAN_POINT('',(29.,0.4,14.8));
#216 = LINE('',#217,#218);
#217 = CARTESIAN_POINT('',(29.,184.,14.8));
#218 = VECTOR('',#219,1.);
#219 = DIRECTION('',(0.,-1.,2.22044604925E-16));
#220 = ORIENTED_EDGE('',*,*,#221,.F.);
#221 = EDGE_CURVE('',#222,#212,#224,.T.);
#222 = VERTEX_POINT('',#223);
#223 = CARTESIAN_POINT('',(0.,184.,14.8));
#224 = LINE('',#225,#226);
#225 = CARTESIAN_POINT('',(0.,184.,14.8));
#226 = VECTOR('',#227,1.);
#227 = DIRECTION('',(1.,0.,0.));
#228 = ORIENTED_EDGE('',*,*,#229,.T.);
#229 = EDGE_CURVE('',#222,#124,#230,.T.);
#230 = LINE('',#231,#232);
#231 = CARTESIAN_POINT('',(0.,184.,14.8));
#232 = VECTOR('',#233,1.);
#233 = DIRECTION('',(0.,-1.,2.22044604925E-16));
#234 = ORIENTED_EDGE('',*,*,#123,.T.);
#235 = ORIENTED_EDGE('',*,*,#70,.T.);
#236 = ORIENTED_EDGE('',*,*,#237,.T.);
#237 = EDGE_CURVE('',#71,#214,#238,.T.);
#238 = LINE('',#239,#240);
#239 = CARTESIAN_POINT('',(16.3,0.4,14.8));
#240 = VECTOR('',#241,1.);
#241 = DIRECTION('',(1.,0.,0.));
#242 = FACE_BOUND('',#243,.T.);
#243 = EDGE_LOOP('',(#244));
#244 = ORIENTED_EDGE('',*,*,#245,.F.);
#245 = EDGE_CURVE('',#246,#246,#248,.T.);
#246 = VERTEX_POINT('',#247);
#247 = CARTESIAN_POINT('',(22.5,146.2,14.8));
#248 = CIRCLE('',#249,1.8);
#249 = AXIS2_PLACEMENT_3D('',#250,#251,#252);
#250 = CARTESIAN_POINT('',(22.5,148.,14.8));
#251 = DIRECTION('',(-0.,2.22044604925E-16,1.));
#252 = DIRECTION('',(0.,-1.,2.22044604925E-16));
#253 = FACE_BOUND('',#254,.T.);
#254 = EDGE_LOOP('',(#255));
#255 = ORIENTED_EDGE('',*,*,#256,.F.);
#256 = EDGE_CURVE('',#257,#257,#259,.T.);
#257 = VERTEX_POINT('',#258);
#258 = CARTESIAN_POINT('',(22.5,42.2,14.8));
#259 = CIRCLE('',#260,1.8);
#260 = AXIS2_PLACEMENT_3D('',#261,#262,#263);
#261 = CARTESIAN_POINT('',(22.5,44.,14.8));
#262 = DIRECTION('',(-0.,2.22044604925E-16,1.));
#263 = DIRECTION('',(0.,-1.,2.22044604925E-16));
#264 = PLANE('',#265);
#265 = AXIS2_PLACEMENT_3D('',#266,#267,#268);
#266 = CARTESIAN_POINT('',(21.387323943662,98.887323943662,14.8));
#267 = DIRECTION('',(0.,2.22044604925E-16,1.));
#268 = DIRECTION('',(0.,-1.,2.22044604925E-16));
#269 = ADVANCED_FACE('',(#270),#288,.F.);
#270 = FACE_BOUND('',#271,.F.);
#271 = EDGE_LOOP('',(#272,#280,#281,#282));
#272 = ORIENTED_EDGE('',*,*,#273,.F.);
#273 = EDGE_CURVE('',#164,#274,#276,.T.);
#274 = VERTEX_POINT('',#275);
#275 = CARTESIAN_POINT('',(12.4,-2.84217094304E-14,0.4));
#276 = LINE('',#277,#278);
#277 = CARTESIAN_POINT('',(12.133333333333,0.266666666667,0.133333333333
    ));
#278 = VECTOR('',#279,1.);
#279 = DIRECTION('',(0.57735026919,-0.57735026919,0.57735026919));
#280 = ORIENTED_EDGE('',*,*,#173,.T.);
#281 = ORIENTED_EDGE('',*,*,#92,.T.);
#282 = ORIENTED_EDGE('',*,*,#283,.F.);
#283 = EDGE_CURVE('',#274,#93,#284,.T.);
#284 = LINE('',#285,#286);
#285 = CARTESIAN_POINT('',(12.4,0.,4.085620730621E-14));
#286 = VECTOR('',#287,1.);
#287 = DIRECTION('',(0.,2.22044604925E-16,1.));
#288 = PLANE('',#289);
#289 = AXIS2_PLACEMENT_3D('',#290,#291,#292);
#290 = CARTESIAN_POINT('',(12.2,0.2,3.907985046681E-14));
#291 = DIRECTION('',(0.707106781187,0.707106781187,-1.570092458684E-16)
  );
#292 = DIRECTION('',(0.,2.22044604925E-16,1.));
#293 = ADVANCED_FACE('',(#294),#321,.T.);
#294 = FACE_BOUND('',#295,.T.);
#295 = EDGE_LOOP('',(#296,#297,#298,#306,#314,#320));
#296 = ORIENTED_EDGE('',*,*,#109,.F.);
#297 = ORIENTED_EDGE('',*,*,#283,.F.);
#298 = ORIENTED_EDGE('',*,*,#299,.T.);
#299 = EDGE_CURVE('',#274,#300,#302,.T.);
#300 = VERTEX_POINT('',#301);
#301 = CARTESIAN_POINT('',(28.6,2.84217094304E-14,0.4));
#302 = LINE('',#303,#304);
#303 = CARTESIAN_POINT('',(12.,0.,0.4));
#304 = VECTOR('',#305,1.);
#305 = DIRECTION('',(1.,0.,0.));
#306 = ORIENTED_EDGE('',*,*,#307,.T.);
#307 = EDGE_CURVE('',#300,#308,#310,.T.);
#308 = VERTEX_POINT('',#309);
#309 = CARTESIAN_POINT('',(28.6,2.84217094304E-14,14.4));
#310 = LINE('',#311,#312);
#311 = CARTESIAN_POINT('',(28.6,0.,4.085620730621E-14));
#312 = VECTOR('',#313,1.);
#313 = DIRECTION('',(0.,2.22044604925E-16,1.));
#314 = ORIENTED_EDGE('',*,*,#315,.F.);
#315 = EDGE_CURVE('',#190,#308,#316,.T.);
#316 = LINE('',#317,#318);
#317 = CARTESIAN_POINT('',(16.3,0.,14.4));
#318 = VECTOR('',#319,1.);
#319 = DIRECTION('',(1.,0.,0.));
#320 = ORIENTED_EDGE('',*,*,#197,.F.);
#321 = PLANE('',#322);
#322 = AXIS2_PLACEMENT_3D('',#323,#324,#325);
#323 = CARTESIAN_POINT('',(21.291037735849,0.,6.608962264151));
#324 = DIRECTION('',(0.,-1.,2.22044604925E-16));
#325 = DIRECTION('',(1.,0.,0.));
#326 = ADVANCED_FACE('',(#327,#361,#372),#383,.T.);
#327 = FACE_BOUND('',#328,.T.);
#328 = EDGE_LOOP('',(#329,#339,#345,#346,#347,#355));
#329 = ORIENTED_EDGE('',*,*,#330,.T.);
#330 = EDGE_CURVE('',#331,#333,#335,.T.);
#331 = VERTEX_POINT('',#332);
#332 = CARTESIAN_POINT('',(29.,184.,0.));
#333 = VERTEX_POINT('',#334);
#334 = CARTESIAN_POINT('',(29.,0.4,2.48689957516E-14));
#335 = LINE('',#336,#337);
#336 = CARTESIAN_POINT('',(29.,180.,0.));
#337 = VECTOR('',#338,1.);
#338 = DIRECTION('',(0.,-1.,2.22044604925E-16));
#339 = ORIENTED_EDGE('',*,*,#340,.F.);
#340 = EDGE_CURVE('',#164,#333,#341,.T.);
#341 = LINE('',#342,#343);
#342 = CARTESIAN_POINT('',(12.,0.4,3.37507799486E-14));
#343 = VECTOR('',#344,1.);
#344 = DIRECTION('',(1.,0.,0.));
#345 = ORIENTED_EDGE('',*,*,#163,.F.);
#346 = ORIENTED_EDGE('',*,*,#139,.F.);
#347 = ORIENTED_EDGE('',*,*,#348,.F.);
#348 = EDGE_CURVE('',#349,#132,#351,.T.);
#349 = VERTEX_POINT('',#350);
#350 = CARTESIAN_POINT('',(0.,184.,0.));
#351 = LINE('',#352,#353);
#352 = CARTESIAN_POINT('',(0.,184.,0.));
#353 = VECTOR('',#354,1.);
#354 = DIRECTION('',(0.,-1.,2.22044604925E-16));
#355 = ORIENTED_EDGE('',*,*,#356,.T.);
#356 = EDGE_CURVE('',#349,#331,#357,.T.);
#357 = LINE('',#358,#359);
#358 = CARTESIAN_POINT('',(0.,184.,0.));
#359 = VECTOR('',#360,1.);
#360 = DIRECTION('',(1.,0.,0.));
#361 = FACE_BOUND('',#362,.T.);
#362 = EDGE_LOOP('',(#363));
#363 = ORIENTED_EDGE('',*,*,#364,.T.);
#364 = EDGE_CURVE('',#365,#365,#367,.T.);
#365 = VERTEX_POINT('',#366);
#366 = CARTESIAN_POINT('',(22.5,40.8,2.30926389122E-14));
#367 = CIRCLE('',#368,3.2);
#368 = AXIS2_PLACEMENT_3D('',#369,#370,#371);
#369 = CARTESIAN_POINT('',(22.5,44.,2.48689957516E-14));
#370 = DIRECTION('',(-0.,2.22044604925E-16,1.));
#371 = DIRECTION('',(0.,-1.,2.22044604925E-16));
#372 = FACE_BOUND('',#373,.T.);
#373 = EDGE_LOOP('',(#374));
#374 = ORIENTED_EDGE('',*,*,#375,.T.);
#375 = EDGE_CURVE('',#376,#376,#378,.T.);
#376 = VERTEX_POINT('',#377);
#377 = CARTESIAN_POINT('',(22.5,144.8,0.));
#378 = CIRCLE('',#379,3.2);
#379 = AXIS2_PLACEMENT_3D('',#380,#381,#382);
#380 = CARTESIAN_POINT('',(22.5,148.,1.7763568394E-15));
#381 = DIRECTION('',(-0.,2.22044604925E-16,1.));
#382 = DIRECTION('',(0.,-1.,2.22044604925E-16));
#383 = PLANE('',#384);
#384 = AXIS2_PLACEMENT_3D('',#385,#386,#387);
#385 = CARTESIAN_POINT('',(19.570422535211,97.070422535211,
    1.24344978758E-14));
#386 = DIRECTION('',(-0.,-2.22044604925E-16,-1.));
#387 = DIRECTION('',(0.,1.,-2.22044604925E-16));
#388 = ADVANCED_FACE('',(#389),#400,.F.);
#389 = FACE_BOUND('',#390,.F.);
#390 = EDGE_LOOP('',(#391,#392,#398,#399));
#391 = ORIENTED_EDGE('',*,*,#348,.F.);
#392 = ORIENTED_EDGE('',*,*,#393,.T.);
#393 = EDGE_CURVE('',#349,#222,#394,.T.);
#394 = LINE('',#395,#396);
#395 = CARTESIAN_POINT('',(0.,184.,0.));
#396 = VECTOR('',#397,1.);
#397 = DIRECTION('',(0.,2.22044604925E-16,1.));
#398 = ORIENTED_EDGE('',*,*,#229,.T.);
#399 = ORIENTED_EDGE('',*,*,#131,.F.);
#400 = PLANE('',#401);
#401 = AXIS2_PLACEMENT_3D('',#402,#403,#404);
#402 = CARTESIAN_POINT('',(0.,184.,0.));
#403 = DIRECTION('',(1.,0.,0.));
#404 = DIRECTION('',(0.,-1.,2.22044604925E-16));
#405 = ADVANCED_FACE('',(#406),#417,.T.);
#406 = FACE_BOUND('',#407,.T.);
#407 = EDGE_LOOP('',(#408,#409,#410,#416));
#408 = ORIENTED_EDGE('',*,*,#189,.T.);
#409 = ORIENTED_EDGE('',*,*,#315,.T.);
#410 = ORIENTED_EDGE('',*,*,#411,.T.);
#411 = EDGE_CURVE('',#308,#214,#412,.T.);
#412 = LINE('',#413,#414);
#413 = CARTESIAN_POINT('',(24.283333333333,-4.316666666667,
    10.083333333333));
#414 = VECTOR('',#415,1.);
#415 = DIRECTION('',(0.57735026919,0.57735026919,0.57735026919));
#416 = ORIENTED_EDGE('',*,*,#237,.F.);
#417 = PLANE('',#418);
#418 = AXIS2_PLACEMENT_3D('',#419,#420,#421);
#419 = CARTESIAN_POINT('',(16.3,0.2,14.6));
#420 = DIRECTION('',(-3.474993633276E-18,-0.707106781187,0.707106781187)
  );
#421 = DIRECTION('',(1.,-2.457191562669E-18,2.457191562669E-18));
#422 = ADVANCED_FACE('',(#423,#439,#558),#704,.T.);
#423 = FACE_BOUND('',#424,.T.);
#424 = EDGE_LOOP('',(#425,#426,#432,#433));
#425 = ORIENTED_EDGE('',*,*,#330,.F.);
#426 = ORIENTED_EDGE('',*,*,#427,.T.);
#427 = EDGE_CURVE('',#331,#212,#428,.T.);
#428 = LINE('',#429,#430);
#429 = CARTESIAN_POINT('',(29.,184.,0.));
#430 = VECTOR('',#431,1.);
#431 = DIRECTION('',(0.,2.22044604925E-16,1.));
#432 = ORIENTED_EDGE('',*,*,#211,.T.);
#433 = ORIENTED_EDGE('',*,*,#434,.F.);
#434 = EDGE_CURVE('',#333,#214,#435,.T.);
#435 = LINE('',#436,#437);
#436 = CARTESIAN_POINT('',(29.,0.4,3.907985046681E-14));
#437 = VECTOR('',#438,1.);
#438 = DIRECTION('',(0.,2.22044604925E-16,1.));
#439 = FACE_BOUND('',#440,.T.);
#440 = EDGE_LOOP('',(#441,#452,#460,#469,#477,#485,#493,#502,#510,#518,
    #526,#535,#543,#552));
#441 = ORIENTED_EDGE('',*,*,#442,.F.);
#442 = EDGE_CURVE('',#443,#445,#447,.T.);
#443 = VERTEX_POINT('',#444);
#444 = CARTESIAN_POINT('',(29.,90.2,5.6));
#445 = VERTEX_POINT('',#446);
#446 = CARTESIAN_POINT('',(29.,90.6,6.));
#447 = CIRCLE('',#448,0.4);
#448 = AXIS2_PLACEMENT_3D('',#449,#450,#451);
#449 = CARTESIAN_POINT('',(29.,90.2,6.));
#450 = DIRECTION('',(1.,0.,0.));
#451 = DIRECTION('',(0.,1.,0.));
#452 = ORIENTED_EDGE('',*,*,#453,.F.);
#453 = EDGE_CURVE('',#454,#443,#456,.T.);
#454 = VERTEX_POINT('',#455);
#455 = CARTESIAN_POINT('',(29.,87.8,5.6));
#456 = LINE('',#457,#458);
#457 = CARTESIAN_POINT('',(29.,91.1,5.6));
#458 = VECTOR('',#459,1.);
#459 = DIRECTION('',(0.,1.,-1.224646799147E-16));
#460 = ORIENTED_EDGE('',*,*,#461,.F.);
#461 = EDGE_CURVE('',#462,#454,#464,.T.);
#462 = VERTEX_POINT('',#463);
#463 = CARTESIAN_POINT('',(29.,87.8,6.4));
#464 = CIRCLE('',#465,0.4);
#465 = AXIS2_PLACEMENT_3D('',#466,#467,#468);
#466 = CARTESIAN_POINT('',(29.,87.8,6.));
#467 = DIRECTION('',(1.,0.,0.));
#468 = DIRECTION('',(0.,1.,0.));
#469 = ORIENTED_EDGE('',*,*,#470,.T.);
#470 = EDGE_CURVE('',#462,#471,#473,.T.);
#471 = VERTEX_POINT('',#472);
#472 = CARTESIAN_POINT('',(29.,89.8,6.4));
#473 = LINE('',#474,#475);
#474 = CARTESIAN_POINT('',(29.,91.1,6.4));
#475 = VECTOR('',#476,1.);
#476 = DIRECTION('',(0.,1.,-1.224646799147E-16));
#477 = ORIENTED_EDGE('',*,*,#478,.T.);
#478 = EDGE_CURVE('',#471,#479,#481,.T.);
#479 = VERTEX_POINT('',#480);
#480 = CARTESIAN_POINT('',(29.,89.8,7.6));
#481 = LINE('',#482,#483);
#482 = CARTESIAN_POINT('',(29.,89.8,8.7));
#483 = VECTOR('',#484,1.);
#484 = DIRECTION('',(0.,-1.110223024625E-16,1.));
#485 = ORIENTED_EDGE('',*,*,#486,.T.);
#486 = EDGE_CURVE('',#479,#487,#489,.T.);
#487 = VERTEX_POINT('',#488);
#488 = CARTESIAN_POINT('',(29.,88.6,7.6));
#489 = LINE('',#490,#491);
#490 = CARTESIAN_POINT('',(29.,90.3,7.6));
#491 = VECTOR('',#492,1.);
#492 = DIRECTION('',(0.,-1.,0.));
#493 = ORIENTED_EDGE('',*,*,#494,.F.);
#494 = EDGE_CURVE('',#495,#487,#497,.T.);
#495 = VERTEX_POINT('',#496);
#496 = CARTESIAN_POINT('',(29.,88.6,8.4));
#497 = CIRCLE('',#498,0.4);
#498 = AXIS2_PLACEMENT_3D('',#499,#500,#501);
#499 = CARTESIAN_POINT('',(29.,88.6,8.));
#500 = DIRECTION('',(1.,0.,0.));
#501 = DIRECTION('',(0.,1.,0.));
#502 = ORIENTED_EDGE('',*,*,#503,.F.);
#503 = EDGE_CURVE('',#504,#495,#506,.T.);
#504 = VERTEX_POINT('',#505);
#505 = CARTESIAN_POINT('',(29.,89.8,8.4));
#506 = LINE('',#507,#508);
#507 = CARTESIAN_POINT('',(29.,90.3,8.4));
#508 = VECTOR('',#509,1.);
#509 = DIRECTION('',(0.,-1.,0.));
#510 = ORIENTED_EDGE('',*,*,#511,.T.);
#511 = EDGE_CURVE('',#504,#512,#514,.T.);
#512 = VERTEX_POINT('',#513);
#513 = CARTESIAN_POINT('',(29.,89.8,9.6));
#514 = LINE('',#515,#516);
#515 = CARTESIAN_POINT('',(29.,89.8,8.7));
#516 = VECTOR('',#517,1.);
#517 = DIRECTION('',(0.,-1.110223024625E-16,1.));
#518 = ORIENTED_EDGE('',*,*,#519,.T.);
#519 = EDGE_CURVE('',#512,#520,#522,.T.);
#520 = VERTEX_POINT('',#521);
#521 = CARTESIAN_POINT('',(29.,87.8,9.6));
#522 = LINE('',#523,#524);
#523 = CARTESIAN_POINT('',(29.,89.9,9.6));
#524 = VECTOR('',#525,1.);
#525 = DIRECTION('',(0.,-1.,0.));
#526 = ORIENTED_EDGE('',*,*,#527,.F.);
#527 = EDGE_CURVE('',#528,#520,#530,.T.);
#528 = VERTEX_POINT('',#529);
#529 = CARTESIAN_POINT('',(29.,87.8,10.4));
#530 = CIRCLE('',#531,0.4);
#531 = AXIS2_PLACEMENT_3D('',#532,#533,#534);
#532 = CARTESIAN_POINT('',(29.,87.8,10.));
#533 = DIRECTION('',(1.,0.,0.));
#534 = DIRECTION('',(0.,1.,0.));
#535 = ORIENTED_EDGE('',*,*,#536,.F.);
#536 = EDGE_CURVE('',#537,#528,#539,.T.);
#537 = VERTEX_POINT('',#538);
#538 = CARTESIAN_POINT('',(29.,90.2,10.4));
#539 = LINE('',#540,#541);
#540 = CARTESIAN_POINT('',(29.,89.9,10.4));
#541 = VECTOR('',#542,1.);
#542 = DIRECTION('',(0.,-1.,0.));
#543 = ORIENTED_EDGE('',*,*,#544,.F.);
#544 = EDGE_CURVE('',#545,#537,#547,.T.);
#545 = VERTEX_POINT('',#546);
#546 = CARTESIAN_POINT('',(29.,90.6,10.));
#547 = CIRCLE('',#548,0.4);
#548 = AXIS2_PLACEMENT_3D('',#549,#550,#551);
#549 = CARTESIAN_POINT('',(29.,90.2,10.));
#550 = DIRECTION('',(1.,0.,0.));
#551 = DIRECTION('',(0.,1.,0.));
#552 = ORIENTED_EDGE('',*,*,#553,.F.);
#553 = EDGE_CURVE('',#445,#545,#554,.T.);
#554 = LINE('',#555,#556);
#555 = CARTESIAN_POINT('',(29.,90.6,7.7));
#556 = VECTOR('',#557,1.);
#557 = DIRECTION('',(0.,0.,1.));
#558 = FACE_BOUND('',#559,.T.);
#559 = EDGE_LOOP('',(#560,#571,#579,#588,#596,#605,#613,#622,#630,#638,
    #647,#655,#664,#672,#681,#689,#698));
#560 = ORIENTED_EDGE('',*,*,#561,.F.);
#561 = EDGE_CURVE('',#562,#564,#566,.T.);
#562 = VERTEX_POINT('',#563);
#563 = CARTESIAN_POINT('',(29.,84.,10.4));
#564 = VERTEX_POINT('',#565);
#565 = CARTESIAN_POINT('',(29.,83.6,10.));
#566 = CIRCLE('',#567,0.4);
#567 = AXIS2_PLACEMENT_3D('',#568,#569,#570);
#568 = CARTESIAN_POINT('',(29.,84.,10.));
#569 = DIRECTION('',(1.,0.,0.));
#570 = DIRECTION('',(0.,1.,0.));
#571 = ORIENTED_EDGE('',*,*,#572,.F.);
#572 = EDGE_CURVE('',#573,#562,#575,.T.);
#573 = VERTEX_POINT('',#574);
#574 = CARTESIAN_POINT('',(29.,85.8,10.4));
#575 = LINE('',#576,#577);
#576 = CARTESIAN_POINT('',(29.,88.,10.4));
#577 = VECTOR('',#578,1.);
#578 = DIRECTION('',(0.,-1.,0.));
#579 = ORIENTED_EDGE('',*,*,#580,.F.);
#580 = EDGE_CURVE('',#581,#573,#583,.T.);
#581 = VERTEX_POINT('',#582);
#582 = CARTESIAN_POINT('',(29.,86.056073759866,10.307288511839));
#583 = CIRCLE('',#584,0.4);
#584 = AXIS2_PLACEMENT_3D('',#585,#586,#587);
#585 = CARTESIAN_POINT('',(29.,85.8,10.));
#586 = DIRECTION('',(1.,0.,0.));
#587 = DIRECTION('',(0.,1.,0.));
#588 = ORIENTED_EDGE('',*,*,#589,.F.);
#589 = EDGE_CURVE('',#590,#581,#592,.T.);
#590 = VERTEX_POINT('',#591);
#591 = CARTESIAN_POINT('',(29.,86.656073759866,9.807288511839));
#592 = LINE('',#593,#594);
#593 = CARTESIAN_POINT('',(29.,88.524926218882,8.249911462659));
#594 = VECTOR('',#595,1.);
#595 = DIRECTION('',(0.,-0.768221279597,0.640184399664));
#596 = ORIENTED_EDGE('',*,*,#597,.F.);
#597 = EDGE_CURVE('',#598,#590,#600,.T.);
#598 = VERTEX_POINT('',#599);
#599 = CARTESIAN_POINT('',(29.,86.8,9.5));
#600 = CIRCLE('',#601,0.4);
#601 = AXIS2_PLACEMENT_3D('',#602,#603,#604);
#602 = CARTESIAN_POINT('',(29.,86.4,9.5));
#603 = DIRECTION('',(1.,0.,0.));
#604 = DIRECTION('',(0.,1.,0.));
#605 = ORIENTED_EDGE('',*,*,#606,.F.);
#606 = EDGE_CURVE('',#607,#598,#609,.T.);
#607 = VERTEX_POINT('',#608);
#608 = CARTESIAN_POINT('',(29.,86.8,8.5));
#609 = LINE('',#610,#611);
#610 = CARTESIAN_POINT('',(29.,86.8,8.45));
#611 = VECTOR('',#612,1.);
#612 = DIRECTION('',(0.,-1.110223024625E-16,1.));
#613 = ORIENTED_EDGE('',*,*,#614,.F.);
#614 = EDGE_CURVE('',#615,#607,#617,.T.);
#615 = VERTEX_POINT('',#616);
#616 = CARTESIAN_POINT('',(29.,86.656073759866,8.192711488161));
#617 = CIRCLE('',#618,0.4);
#618 = AXIS2_PLACEMENT_3D('',#619,#620,#621);
#619 = CARTESIAN_POINT('',(29.,86.4,8.5));
#620 = DIRECTION('',(1.,0.,0.));
#621 = DIRECTION('',(0.,1.,0.));
#622 = ORIENTED_EDGE('',*,*,#623,.F.);
#623 = EDGE_CURVE('',#624,#615,#626,.T.);
#624 = VERTEX_POINT('',#625);
#625 = CARTESIAN_POINT('',(29.,86.424819974073,8.));
#626 = LINE('',#627,#628);
#627 = CARTESIAN_POINT('',(29.,88.038040972981,9.344350832423));
#628 = VECTOR('',#629,1.);
#629 = DIRECTION('',(0.,0.768221279597,0.640184399664));
#630 = ORIENTED_EDGE('',*,*,#631,.F.);
#631 = EDGE_CURVE('',#632,#624,#634,.T.);
#632 = VERTEX_POINT('',#633);
#633 = CARTESIAN_POINT('',(29.,86.656073759866,7.807288511839));
#634 = LINE('',#635,#636);
#635 = CARTESIAN_POINT('',(29.,88.033122940194,6.659747528232));
#636 = VECTOR('',#637,1.);
#637 = DIRECTION('',(0.,-0.768221279597,0.640184399664));
#638 = ORIENTED_EDGE('',*,*,#639,.F.);
#639 = EDGE_CURVE('',#640,#632,#642,.T.);
#640 = VERTEX_POINT('',#641);
#641 = CARTESIAN_POINT('',(29.,86.8,7.5));
#642 = CIRCLE('',#643,0.4);
#643 = AXIS2_PLACEMENT_3D('',#644,#645,#646);
#644 = CARTESIAN_POINT('',(29.,86.4,7.5));
#645 = DIRECTION('',(1.,0.,0.));
#646 = DIRECTION('',(0.,1.,0.));
#647 = ORIENTED_EDGE('',*,*,#648,.F.);
#648 = EDGE_CURVE('',#649,#640,#651,.T.);
#649 = VERTEX_POINT('',#650);
#650 = CARTESIAN_POINT('',(29.,86.8,6.5));
#651 = LINE('',#652,#653);
#652 = CARTESIAN_POINT('',(29.,86.8,7.45));
#653 = VECTOR('',#654,1.);
#654 = DIRECTION('',(0.,-1.110223024625E-16,1.));
#655 = ORIENTED_EDGE('',*,*,#656,.F.);
#656 = EDGE_CURVE('',#657,#649,#659,.T.);
#657 = VERTEX_POINT('',#658);
#658 = CARTESIAN_POINT('',(29.,86.656073759866,6.192711488161));
#659 = CIRCLE('',#660,0.4);
#660 = AXIS2_PLACEMENT_3D('',#661,#662,#663);
#661 = CARTESIAN_POINT('',(29.,86.4,6.5));
#662 = DIRECTION('',(1.,0.,0.));
#663 = DIRECTION('',(0.,1.,0.));
#664 = ORIENTED_EDGE('',*,*,#665,.F.);
#665 = EDGE_CURVE('',#666,#657,#668,.T.);
#666 = VERTEX_POINT('',#667);
#667 = CARTESIAN_POINT('',(29.,86.056073759866,5.692711488161));
#668 = LINE('',#669,#670);
#669 = CARTESIAN_POINT('',(29.,88.529844251669,7.754186897997));
#670 = VECTOR('',#671,1.);
#671 = DIRECTION('',(0.,0.768221279597,0.640184399664));
#672 = ORIENTED_EDGE('',*,*,#673,.F.);
#673 = EDGE_CURVE('',#674,#666,#676,.T.);
#674 = VERTEX_POINT('',#675);
#675 = CARTESIAN_POINT('',(29.,85.8,5.6));
#676 = CIRCLE('',#677,0.4);
#677 = AXIS2_PLACEMENT_3D('',#678,#679,#680);
#678 = CARTESIAN_POINT('',(29.,85.8,6.));
#679 = DIRECTION('',(1.,0.,0.));
#680 = DIRECTION('',(0.,1.,0.));
#681 = ORIENTED_EDGE('',*,*,#682,.F.);
#682 = EDGE_CURVE('',#683,#674,#685,.T.);
#683 = VERTEX_POINT('',#684);
#684 = CARTESIAN_POINT('',(29.,84.,5.6));
#685 = LINE('',#686,#687);
#686 = CARTESIAN_POINT('',(29.,88.9,5.6));
#687 = VECTOR('',#688,1.);
#688 = DIRECTION('',(0.,1.,-1.224646799147E-16));
#689 = ORIENTED_EDGE('',*,*,#690,.F.);
#690 = EDGE_CURVE('',#691,#683,#693,.T.);
#691 = VERTEX_POINT('',#692);
#692 = CARTESIAN_POINT('',(29.,83.6,6.));
#693 = CIRCLE('',#694,0.4);
#694 = AXIS2_PLACEMENT_3D('',#695,#696,#697);
#695 = CARTESIAN_POINT('',(29.,84.,6.));
#696 = DIRECTION('',(1.,0.,0.));
#697 = DIRECTION('',(0.,1.,0.));
#698 = ORIENTED_EDGE('',*,*,#699,.F.);
#699 = EDGE_CURVE('',#564,#691,#700,.T.);
#700 = LINE('',#701,#702);
#701 = CARTESIAN_POINT('',(29.,83.6,6.7));
#702 = VECTOR('',#703,1.);
#703 = DIRECTION('',(0.,-1.110223024625E-16,-1.));
#704 = PLANE('',#705);
#705 = AXIS2_PLACEMENT_3D('',#706,#707,#708);
#706 = CARTESIAN_POINT('',(29.,92.,7.4));
#707 = DIRECTION('',(1.,0.,0.));
#708 = DIRECTION('',(0.,-1.,2.22044604925E-16));
#709 = ADVANCED_FACE('',(#710),#716,.F.);
#710 = FACE_BOUND('',#711,.F.);
#711 = EDGE_LOOP('',(#712,#713,#714,#715));
#712 = ORIENTED_EDGE('',*,*,#393,.F.);
#713 = ORIENTED_EDGE('',*,*,#356,.T.);
#714 = ORIENTED_EDGE('',*,*,#427,.T.);
#715 = ORIENTED_EDGE('',*,*,#221,.F.);
#716 = PLANE('',#717);
#717 = AXIS2_PLACEMENT_3D('',#718,#719,#720);
#718 = CARTESIAN_POINT('',(0.,184.,0.));
#719 = DIRECTION('',(0.,-1.,2.22044604925E-16));
#720 = DIRECTION('',(1.,0.,0.));
#721 = ADVANCED_FACE('',(#722),#741,.F.);
#722 = FACE_BOUND('',#723,.F.);
#723 = EDGE_LOOP('',(#724,#725,#733,#740));
#724 = ORIENTED_EDGE('',*,*,#245,.F.);
#725 = ORIENTED_EDGE('',*,*,#726,.F.);
#726 = EDGE_CURVE('',#727,#246,#729,.T.);
#727 = VERTEX_POINT('',#728);
#728 = CARTESIAN_POINT('',(22.5,146.2,11.8));
#729 = LINE('',#730,#731);
#730 = CARTESIAN_POINT('',(22.5,146.2,11.7));
#731 = VECTOR('',#732,1.);
#732 = DIRECTION('',(0.,2.22044604925E-16,1.));
#733 = ORIENTED_EDGE('',*,*,#734,.T.);
#734 = EDGE_CURVE('',#727,#727,#735,.T.);
#735 = CIRCLE('',#736,1.8);
#736 = AXIS2_PLACEMENT_3D('',#737,#738,#739);
#737 = CARTESIAN_POINT('',(22.5,148.,11.8));
#738 = DIRECTION('',(-0.,2.22044604925E-16,1.));
#739 = DIRECTION('',(0.,-1.,2.22044604925E-16));
#740 = ORIENTED_EDGE('',*,*,#726,.T.);
#741 = CYLINDRICAL_SURFACE('',#742,1.8);
#742 = AXIS2_PLACEMENT_3D('',#743,#744,#745);
#743 = CARTESIAN_POINT('',(22.5,148.,11.7));
#744 = DIRECTION('',(0.,2.22044604925E-16,1.));
#745 = DIRECTION('',(0.,-1.,2.22044604925E-16));
#746 = ADVANCED_FACE('',(#747),#766,.F.);
#747 = FACE_BOUND('',#748,.F.);
#748 = EDGE_LOOP('',(#749,#750,#758,#765));
#749 = ORIENTED_EDGE('',*,*,#256,.F.);
#750 = ORIENTED_EDGE('',*,*,#751,.F.);
#751 = EDGE_CURVE('',#752,#257,#754,.T.);
#752 = VERTEX_POINT('',#753);
#753 = CARTESIAN_POINT('',(22.5,42.2,11.8));
#754 = LINE('',#755,#756);
#755 = CARTESIAN_POINT('',(22.5,42.2,11.7));
#756 = VECTOR('',#757,1.);
#757 = DIRECTION('',(0.,2.22044604925E-16,1.));
#758 = ORIENTED_EDGE('',*,*,#759,.T.);
#759 = EDGE_CURVE('',#752,#752,#760,.T.);
#760 = CIRCLE('',#761,1.8);
#761 = AXIS2_PLACEMENT_3D('',#762,#763,#764);
#762 = CARTESIAN_POINT('',(22.5,44.,11.8));
#763 = DIRECTION('',(-0.,2.22044604925E-16,1.));
#764 = DIRECTION('',(0.,-1.,2.22044604925E-16));
#765 = ORIENTED_EDGE('',*,*,#751,.T.);
#766 = CYLINDRICAL_SURFACE('',#767,1.8);
#767 = AXIS2_PLACEMENT_3D('',#768,#769,#770);
#768 = CARTESIAN_POINT('',(22.5,44.,11.7));
#769 = DIRECTION('',(0.,2.22044604925E-16,1.));
#770 = DIRECTION('',(0.,-1.,2.22044604925E-16));
#771 = ADVANCED_FACE('',(#772),#783,.T.);
#772 = FACE_BOUND('',#773,.F.);
#773 = EDGE_LOOP('',(#774,#775,#776,#782));
#774 = ORIENTED_EDGE('',*,*,#273,.T.);
#775 = ORIENTED_EDGE('',*,*,#299,.T.);
#776 = ORIENTED_EDGE('',*,*,#777,.T.);
#777 = EDGE_CURVE('',#300,#333,#778,.T.);
#778 = LINE('',#779,#780);
#779 = CARTESIAN_POINT('',(26.033333333333,-2.566666666667,
    2.966666666667));
#780 = VECTOR('',#781,1.);
#781 = DIRECTION('',(0.57735026919,0.57735026919,-0.57735026919));
#782 = ORIENTED_EDGE('',*,*,#340,.F.);
#783 = PLANE('',#784);
#784 = AXIS2_PLACEMENT_3D('',#785,#786,#787);
#785 = CARTESIAN_POINT('',(12.,0.2,0.2));
#786 = DIRECTION('',(3.474993633276E-18,-0.707106781187,-0.707106781187)
  );
#787 = DIRECTION('',(-1.,-2.457191562669E-18,-2.457191562669E-18));
#788 = ADVANCED_FACE('',(#789),#795,.T.);
#789 = FACE_BOUND('',#790,.F.);
#790 = EDGE_LOOP('',(#791,#792,#793,#794));
#791 = ORIENTED_EDGE('',*,*,#777,.F.);
#792 = ORIENTED_EDGE('',*,*,#307,.T.);
#793 = ORIENTED_EDGE('',*,*,#411,.T.);
#794 = ORIENTED_EDGE('',*,*,#434,.F.);
#795 = PLANE('',#796);
#796 = AXIS2_PLACEMENT_3D('',#797,#798,#799);
#797 = CARTESIAN_POINT('',(28.8,0.2,3.907985046681E-14));
#798 = DIRECTION('',(0.707106781187,-0.707106781187,1.570092458684E-16)
  );
#799 = DIRECTION('',(0.,-2.22044604925E-16,-1.));
#800 = ADVANCED_FACE('',(#801),#820,.F.);
#801 = FACE_BOUND('',#802,.F.);
#802 = EDGE_LOOP('',(#803,#811,#818,#819));
#803 = ORIENTED_EDGE('',*,*,#804,.T.);
#804 = EDGE_CURVE('',#365,#805,#807,.T.);
#805 = VERTEX_POINT('',#806);
#806 = CARTESIAN_POINT('',(22.5,40.8,11.8));
#807 = LINE('',#808,#809);
#808 = CARTESIAN_POINT('',(22.5,40.8,-15.2));
#809 = VECTOR('',#810,1.);
#810 = DIRECTION('',(0.,2.22044604925E-16,1.));
#811 = ORIENTED_EDGE('',*,*,#812,.F.);
#812 = EDGE_CURVE('',#805,#805,#813,.T.);
#813 = CIRCLE('',#814,3.2);
#814 = AXIS2_PLACEMENT_3D('',#815,#816,#817);
#815 = CARTESIAN_POINT('',(22.5,44.,11.8));
#816 = DIRECTION('',(-0.,2.22044604925E-16,1.));
#817 = DIRECTION('',(0.,-1.,2.22044604925E-16));
#818 = ORIENTED_EDGE('',*,*,#804,.F.);
#819 = ORIENTED_EDGE('',*,*,#364,.T.);
#820 = CYLINDRICAL_SURFACE('',#821,3.2);
#821 = AXIS2_PLACEMENT_3D('',#822,#823,#824);
#822 = CARTESIAN_POINT('',(22.5,44.,-15.2));
#823 = DIRECTION('',(0.,2.22044604925E-16,1.));
#824 = DIRECTION('',(0.,-1.,2.22044604925E-16));
#825 = ADVANCED_FACE('',(#826),#845,.F.);
#826 = FACE_BOUND('',#827,.F.);
#827 = EDGE_LOOP('',(#828,#836,#843,#844));
#828 = ORIENTED_EDGE('',*,*,#829,.T.);
#829 = EDGE_CURVE('',#376,#830,#832,.T.);
#830 = VERTEX_POINT('',#831);
#831 = CARTESIAN_POINT('',(22.5,144.8,11.8));
#832 = LINE('',#833,#834);
#833 = CARTESIAN_POINT('',(22.5,144.8,-15.2));
#834 = VECTOR('',#835,1.);
#835 = DIRECTION('',(0.,2.22044604925E-16,1.));
#836 = ORIENTED_EDGE('',*,*,#837,.F.);
#837 = EDGE_CURVE('',#830,#830,#838,.T.);
#838 = CIRCLE('',#839,3.2);
#839 = AXIS2_PLACEMENT_3D('',#840,#841,#842);
#840 = CARTESIAN_POINT('',(22.5,148.,11.8));
#841 = DIRECTION('',(-0.,2.22044604925E-16,1.));
#842 = DIRECTION('',(0.,-1.,2.22044604925E-16));
#843 = ORIENTED_EDGE('',*,*,#829,.F.);
#844 = ORIENTED_EDGE('',*,*,#375,.T.);
#845 = CYLINDRICAL_SURFACE('',#846,3.2);
#846 = AXIS2_PLACEMENT_3D('',#847,#848,#849);
#847 = CARTESIAN_POINT('',(22.5,148.,-15.2));
#848 = DIRECTION('',(0.,2.22044604925E-16,1.));
#849 = DIRECTION('',(0.,-1.,2.22044604925E-16));
#850 = ADVANCED_FACE('',(#851),#877,.F.);
#851 = FACE_BOUND('',#852,.F.);
#852 = EDGE_LOOP('',(#853,#864,#870,#871));
#853 = ORIENTED_EDGE('',*,*,#854,.T.);
#854 = EDGE_CURVE('',#855,#857,#859,.T.);
#855 = VERTEX_POINT('',#856);
#856 = CARTESIAN_POINT('',(28.6,90.2,5.6));
#857 = VERTEX_POINT('',#858);
#858 = CARTESIAN_POINT('',(28.6,90.6,6.));
#859 = CIRCLE('',#860,0.4);
#860 = AXIS2_PLACEMENT_3D('',#861,#862,#863);
#861 = CARTESIAN_POINT('',(28.6,90.2,6.));
#862 = DIRECTION('',(1.,0.,0.));
#863 = DIRECTION('',(0.,1.,0.));
#864 = ORIENTED_EDGE('',*,*,#865,.T.);
#865 = EDGE_CURVE('',#857,#445,#866,.T.);
#866 = LINE('',#867,#868);
#867 = CARTESIAN_POINT('',(28.6,90.6,6.));
#868 = VECTOR('',#869,1.);
#869 = DIRECTION('',(1.,0.,0.));
#870 = ORIENTED_EDGE('',*,*,#442,.F.);
#871 = ORIENTED_EDGE('',*,*,#872,.F.);
#872 = EDGE_CURVE('',#855,#443,#873,.T.);
#873 = LINE('',#874,#875);
#874 = CARTESIAN_POINT('',(28.6,90.2,5.6));
#875 = VECTOR('',#876,1.);
#876 = DIRECTION('',(1.,0.,0.));
#877 = CYLINDRICAL_SURFACE('',#878,0.4);
#878 = AXIS2_PLACEMENT_3D('',#879,#880,#881);
#879 = CARTESIAN_POINT('',(28.6,90.2,6.));
#880 = DIRECTION('',(1.,0.,0.));
#881 = DIRECTION('',(0.,1.,0.));
#882 = ADVANCED_FACE('',(#883),#901,.F.);
#883 = FACE_BOUND('',#884,.F.);
#884 = EDGE_LOOP('',(#885,#893,#899,#900));
#885 = ORIENTED_EDGE('',*,*,#886,.F.);
#886 = EDGE_CURVE('',#887,#857,#889,.T.);
#887 = VERTEX_POINT('',#888);
#888 = CARTESIAN_POINT('',(28.6,90.6,10.));
#889 = LINE('',#890,#891);
#890 = CARTESIAN_POINT('',(28.6,90.6,10.));
#891 = VECTOR('',#892,1.);
#892 = DIRECTION('',(0.,1.110223024625E-16,-1.));
#893 = ORIENTED_EDGE('',*,*,#894,.T.);
#894 = EDGE_CURVE('',#887,#545,#895,.T.);
#895 = LINE('',#896,#897);
#896 = CARTESIAN_POINT('',(28.6,90.6,10.));
#897 = VECTOR('',#898,1.);
#898 = DIRECTION('',(1.,0.,0.));
#899 = ORIENTED_EDGE('',*,*,#553,.F.);
#900 = ORIENTED_EDGE('',*,*,#865,.F.);
#901 = PLANE('',#902);
#902 = AXIS2_PLACEMENT_3D('',#903,#904,#905);
#903 = CARTESIAN_POINT('',(28.805,90.6,8.));
#904 = DIRECTION('',(0.,1.,0.));
#905 = DIRECTION('',(1.,0.,0.));
#906 = ADVANCED_FACE('',(#907),#926,.F.);
#907 = FACE_BOUND('',#908,.F.);
#908 = EDGE_LOOP('',(#909,#910,#911,#920));
#909 = ORIENTED_EDGE('',*,*,#544,.F.);
#910 = ORIENTED_EDGE('',*,*,#894,.F.);
#911 = ORIENTED_EDGE('',*,*,#912,.T.);
#912 = EDGE_CURVE('',#887,#913,#915,.T.);
#913 = VERTEX_POINT('',#914);
#914 = CARTESIAN_POINT('',(28.6,90.2,10.4));
#915 = CIRCLE('',#916,0.4);
#916 = AXIS2_PLACEMENT_3D('',#917,#918,#919);
#917 = CARTESIAN_POINT('',(28.6,90.2,10.));
#918 = DIRECTION('',(1.,0.,0.));
#919 = DIRECTION('',(0.,1.,0.));
#920 = ORIENTED_EDGE('',*,*,#921,.T.);
#921 = EDGE_CURVE('',#913,#537,#922,.T.);
#922 = LINE('',#923,#924);
#923 = CARTESIAN_POINT('',(28.6,90.2,10.4));
#924 = VECTOR('',#925,1.);
#925 = DIRECTION('',(1.,0.,0.));
#926 = CYLINDRICAL_SURFACE('',#927,0.4);
#927 = AXIS2_PLACEMENT_3D('',#928,#929,#930);
#928 = CARTESIAN_POINT('',(28.6,90.2,10.));
#929 = DIRECTION('',(1.,0.,0.));
#930 = DIRECTION('',(0.,1.,0.));
#931 = ADVANCED_FACE('',(#932),#950,.F.);
#932 = FACE_BOUND('',#933,.F.);
#933 = EDGE_LOOP('',(#934,#942,#948,#949));
#934 = ORIENTED_EDGE('',*,*,#935,.F.);
#935 = EDGE_CURVE('',#936,#913,#938,.T.);
#936 = VERTEX_POINT('',#937);
#937 = CARTESIAN_POINT('',(28.6,87.8,10.4));
#938 = LINE('',#939,#940);
#939 = CARTESIAN_POINT('',(28.6,87.8,10.4));
#940 = VECTOR('',#941,1.);
#941 = DIRECTION('',(0.,1.,0.));
#942 = ORIENTED_EDGE('',*,*,#943,.T.);
#943 = EDGE_CURVE('',#936,#528,#944,.T.);
#944 = LINE('',#945,#946);
#945 = CARTESIAN_POINT('',(28.6,87.8,10.4));
#946 = VECTOR('',#947,1.);
#947 = DIRECTION('',(1.,0.,0.));
#948 = ORIENTED_EDGE('',*,*,#536,.F.);
#949 = ORIENTED_EDGE('',*,*,#921,.F.);
#950 = PLANE('',#951);
#951 = AXIS2_PLACEMENT_3D('',#952,#953,#954);
#952 = CARTESIAN_POINT('',(28.6,87.8,10.4));
#953 = DIRECTION('',(0.,0.,1.));
#954 = DIRECTION('',(1.,0.,0.));
#955 = ADVANCED_FACE('',(#956),#975,.F.);
#956 = FACE_BOUND('',#957,.F.);
#957 = EDGE_LOOP('',(#958,#959,#960,#969));
#958 = ORIENTED_EDGE('',*,*,#527,.F.);
#959 = ORIENTED_EDGE('',*,*,#943,.F.);
#960 = ORIENTED_EDGE('',*,*,#961,.T.);
#961 = EDGE_CURVE('',#936,#962,#964,.T.);
#962 = VERTEX_POINT('',#963);
#963 = CARTESIAN_POINT('',(28.6,87.8,9.6));
#964 = CIRCLE('',#965,0.4);
#965 = AXIS2_PLACEMENT_3D('',#966,#967,#968);
#966 = CARTESIAN_POINT('',(28.6,87.8,10.));
#967 = DIRECTION('',(1.,0.,0.));
#968 = DIRECTION('',(0.,1.,0.));
#969 = ORIENTED_EDGE('',*,*,#970,.T.);
#970 = EDGE_CURVE('',#962,#520,#971,.T.);
#971 = LINE('',#972,#973);
#972 = CARTESIAN_POINT('',(28.6,87.8,9.6));
#973 = VECTOR('',#974,1.);
#974 = DIRECTION('',(1.,0.,0.));
#975 = CYLINDRICAL_SURFACE('',#976,0.4);
#976 = AXIS2_PLACEMENT_3D('',#977,#978,#979);
#977 = CARTESIAN_POINT('',(28.6,87.8,10.));
#978 = DIRECTION('',(1.,0.,0.));
#979 = DIRECTION('',(0.,1.,0.));
#980 = ADVANCED_FACE('',(#981),#999,.T.);
#981 = FACE_BOUND('',#982,.T.);
#982 = EDGE_LOOP('',(#983,#991,#992,#993));
#983 = ORIENTED_EDGE('',*,*,#984,.F.);
#984 = EDGE_CURVE('',#962,#985,#987,.T.);
#985 = VERTEX_POINT('',#986);
#986 = CARTESIAN_POINT('',(28.6,89.8,9.6));
#987 = LINE('',#988,#989);
#988 = CARTESIAN_POINT('',(28.6,87.8,9.6));
#989 = VECTOR('',#990,1.);
#990 = DIRECTION('',(0.,1.,0.));
#991 = ORIENTED_EDGE('',*,*,#970,.T.);
#992 = ORIENTED_EDGE('',*,*,#519,.F.);
#993 = ORIENTED_EDGE('',*,*,#994,.T.);
#994 = EDGE_CURVE('',#512,#985,#995,.T.);
#995 = LINE('',#996,#997);
#996 = CARTESIAN_POINT('',(28.6,89.8,9.6));
#997 = VECTOR('',#998,1.);
#998 = DIRECTION('',(-1.,0.,0.));
#999 = PLANE('',#1000);
#1000 = AXIS2_PLACEMENT_3D('',#1001,#1002,#1003);
#1001 = CARTESIAN_POINT('',(28.6,87.8,9.6));
#1002 = DIRECTION('',(0.,0.,1.));
#1003 = DIRECTION('',(1.,0.,0.));
#1004 = ADVANCED_FACE('',(#1005),#1023,.T.);
#1005 = FACE_BOUND('',#1006,.T.);
#1006 = EDGE_LOOP('',(#1007,#1015,#1016,#1017));
#1007 = ORIENTED_EDGE('',*,*,#1008,.F.);
#1008 = EDGE_CURVE('',#985,#1009,#1011,.T.);
#1009 = VERTEX_POINT('',#1010);
#1010 = CARTESIAN_POINT('',(28.6,89.8,8.4));
#1011 = LINE('',#1012,#1013);
#1012 = CARTESIAN_POINT('',(28.6,89.8,10.));
#1013 = VECTOR('',#1014,1.);
#1014 = DIRECTION('',(0.,1.110223024625E-16,-1.));
#1015 = ORIENTED_EDGE('',*,*,#994,.F.);
#1016 = ORIENTED_EDGE('',*,*,#511,.F.);
#1017 = ORIENTED_EDGE('',*,*,#1018,.F.);
#1018 = EDGE_CURVE('',#1009,#504,#1019,.T.);
#1019 = LINE('',#1020,#1021);
#1020 = CARTESIAN_POINT('',(28.6,89.8,8.4));
#1021 = VECTOR('',#1022,1.);
#1022 = DIRECTION('',(1.,0.,0.));
#1023 = PLANE('',#1024);
#1024 = AXIS2_PLACEMENT_3D('',#1025,#1026,#1027);
#1025 = CARTESIAN_POINT('',(28.6,89.8,10.));
#1026 = DIRECTION('',(0.,1.,1.110223024625E-16));
#1027 = DIRECTION('',(1.,0.,0.));
#1028 = ADVANCED_FACE('',(#1029),#1047,.F.);
#1029 = FACE_BOUND('',#1030,.F.);
#1030 = EDGE_LOOP('',(#1031,#1039,#1045,#1046));
#1031 = ORIENTED_EDGE('',*,*,#1032,.F.);
#1032 = EDGE_CURVE('',#1033,#1009,#1035,.T.);
#1033 = VERTEX_POINT('',#1034);
#1034 = CARTESIAN_POINT('',(28.6,88.6,8.4));
#1035 = LINE('',#1036,#1037);
#1036 = CARTESIAN_POINT('',(28.6,88.6,8.4));
#1037 = VECTOR('',#1038,1.);
#1038 = DIRECTION('',(0.,1.,0.));
#1039 = ORIENTED_EDGE('',*,*,#1040,.T.);
#1040 = EDGE_CURVE('',#1033,#495,#1041,.T.);
#1041 = LINE('',#1042,#1043);
#1042 = CARTESIAN_POINT('',(28.6,88.6,8.4));
#1043 = VECTOR('',#1044,1.);
#1044 = DIRECTION('',(1.,0.,0.));
#1045 = ORIENTED_EDGE('',*,*,#503,.F.);
#1046 = ORIENTED_EDGE('',*,*,#1018,.F.);
#1047 = PLANE('',#1048);
#1048 = AXIS2_PLACEMENT_3D('',#1049,#1050,#1051);
#1049 = CARTESIAN_POINT('',(28.6,88.6,8.4));
#1050 = DIRECTION('',(0.,0.,1.));
#1051 = DIRECTION('',(1.,0.,0.));
#1052 = ADVANCED_FACE('',(#1053),#1072,.F.);
#1053 = FACE_BOUND('',#1054,.F.);
#1054 = EDGE_LOOP('',(#1055,#1056,#1057,#1066));
#1055 = ORIENTED_EDGE('',*,*,#494,.F.);
#1056 = ORIENTED_EDGE('',*,*,#1040,.F.);
#1057 = ORIENTED_EDGE('',*,*,#1058,.T.);
#1058 = EDGE_CURVE('',#1033,#1059,#1061,.T.);
#1059 = VERTEX_POINT('',#1060);
#1060 = CARTESIAN_POINT('',(28.6,88.6,7.6));
#1061 = CIRCLE('',#1062,0.4);
#1062 = AXIS2_PLACEMENT_3D('',#1063,#1064,#1065);
#1063 = CARTESIAN_POINT('',(28.6,88.6,8.));
#1064 = DIRECTION('',(1.,0.,0.));
#1065 = DIRECTION('',(0.,1.,0.));
#1066 = ORIENTED_EDGE('',*,*,#1067,.T.);
#1067 = EDGE_CURVE('',#1059,#487,#1068,.T.);
#1068 = LINE('',#1069,#1070);
#1069 = CARTESIAN_POINT('',(28.6,88.6,7.6));
#1070 = VECTOR('',#1071,1.);
#1071 = DIRECTION('',(1.,0.,0.));
#1072 = CYLINDRICAL_SURFACE('',#1073,0.4);
#1073 = AXIS2_PLACEMENT_3D('',#1074,#1075,#1076);
#1074 = CARTESIAN_POINT('',(28.6,88.6,8.));
#1075 = DIRECTION('',(1.,0.,0.));
#1076 = DIRECTION('',(0.,1.,0.));
#1077 = ADVANCED_FACE('',(#1078),#1096,.T.);
#1078 = FACE_BOUND('',#1079,.T.);
#1079 = EDGE_LOOP('',(#1080,#1088,#1089,#1090));
#1080 = ORIENTED_EDGE('',*,*,#1081,.F.);
#1081 = EDGE_CURVE('',#1059,#1082,#1084,.T.);
#1082 = VERTEX_POINT('',#1083);
#1083 = CARTESIAN_POINT('',(28.6,89.8,7.6));
#1084 = LINE('',#1085,#1086);
#1085 = CARTESIAN_POINT('',(28.6,88.6,7.6));
#1086 = VECTOR('',#1087,1.);
#1087 = DIRECTION('',(0.,1.,0.));
#1088 = ORIENTED_EDGE('',*,*,#1067,.T.);
#1089 = ORIENTED_EDGE('',*,*,#486,.F.);
#1090 = ORIENTED_EDGE('',*,*,#1091,.F.);
#1091 = EDGE_CURVE('',#1082,#479,#1092,.T.);
#1092 = LINE('',#1093,#1094);
#1093 = CARTESIAN_POINT('',(28.6,89.8,7.6));
#1094 = VECTOR('',#1095,1.);
#1095 = DIRECTION('',(1.,0.,0.));
#1096 = PLANE('',#1097);
#1097 = AXIS2_PLACEMENT_3D('',#1098,#1099,#1100);
#1098 = CARTESIAN_POINT('',(28.6,88.6,7.6));
#1099 = DIRECTION('',(0.,0.,1.));
#1100 = DIRECTION('',(1.,0.,0.));
#1101 = ADVANCED_FACE('',(#1102),#1120,.T.);
#1102 = FACE_BOUND('',#1103,.T.);
#1103 = EDGE_LOOP('',(#1104,#1112,#1113,#1114));
#1104 = ORIENTED_EDGE('',*,*,#1105,.F.);
#1105 = EDGE_CURVE('',#1082,#1106,#1108,.T.);
#1106 = VERTEX_POINT('',#1107);
#1107 = CARTESIAN_POINT('',(28.6,89.8,6.4));
#1108 = LINE('',#1109,#1110);
#1109 = CARTESIAN_POINT('',(28.6,89.8,10.));
#1110 = VECTOR('',#1111,1.);
#1111 = DIRECTION('',(0.,1.110223024625E-16,-1.));
#1112 = ORIENTED_EDGE('',*,*,#1091,.T.);
#1113 = ORIENTED_EDGE('',*,*,#478,.F.);
#1114 = ORIENTED_EDGE('',*,*,#1115,.T.);
#1115 = EDGE_CURVE('',#471,#1106,#1116,.T.);
#1116 = LINE('',#1117,#1118);
#1117 = CARTESIAN_POINT('',(28.6,89.8,6.4));
#1118 = VECTOR('',#1119,1.);
#1119 = DIRECTION('',(-1.,0.,0.));
#1120 = PLANE('',#1121);
#1121 = AXIS2_PLACEMENT_3D('',#1122,#1123,#1124);
#1122 = CARTESIAN_POINT('',(28.6,89.8,10.));
#1123 = DIRECTION('',(0.,1.,1.110223024625E-16));
#1124 = DIRECTION('',(1.,0.,0.));
#1125 = ADVANCED_FACE('',(#1126),#1144,.T.);
#1126 = FACE_BOUND('',#1127,.T.);
#1127 = EDGE_LOOP('',(#1128,#1136,#1137,#1138));
#1128 = ORIENTED_EDGE('',*,*,#1129,.F.);
#1129 = EDGE_CURVE('',#1106,#1130,#1132,.T.);
#1130 = VERTEX_POINT('',#1131);
#1131 = CARTESIAN_POINT('',(28.6,87.8,6.4));
#1132 = LINE('',#1133,#1134);
#1133 = CARTESIAN_POINT('',(28.6,90.2,6.4));
#1134 = VECTOR('',#1135,1.);
#1135 = DIRECTION('',(0.,-1.,1.224646799147E-16));
#1136 = ORIENTED_EDGE('',*,*,#1115,.F.);
#1137 = ORIENTED_EDGE('',*,*,#470,.F.);
#1138 = ORIENTED_EDGE('',*,*,#1139,.F.);
#1139 = EDGE_CURVE('',#1130,#462,#1140,.T.);
#1140 = LINE('',#1141,#1142);
#1141 = CARTESIAN_POINT('',(28.6,87.8,6.4));
#1142 = VECTOR('',#1143,1.);
#1143 = DIRECTION('',(1.,0.,0.));
#1144 = PLANE('',#1145);
#1145 = AXIS2_PLACEMENT_3D('',#1146,#1147,#1148);
#1146 = CARTESIAN_POINT('',(28.6,90.2,6.4));
#1147 = DIRECTION('',(0.,-1.224646799147E-16,-1.));
#1148 = DIRECTION('',(1.,0.,0.));
#1149 = ADVANCED_FACE('',(#1150),#1169,.F.);
#1150 = FACE_BOUND('',#1151,.F.);
#1151 = EDGE_LOOP('',(#1152,#1153,#1154,#1163));
#1152 = ORIENTED_EDGE('',*,*,#461,.F.);
#1153 = ORIENTED_EDGE('',*,*,#1139,.F.);
#1154 = ORIENTED_EDGE('',*,*,#1155,.T.);
#1155 = EDGE_CURVE('',#1130,#1156,#1158,.T.);
#1156 = VERTEX_POINT('',#1157);
#1157 = CARTESIAN_POINT('',(28.6,87.8,5.6));
#1158 = CIRCLE('',#1159,0.4);
#1159 = AXIS2_PLACEMENT_3D('',#1160,#1161,#1162);
#1160 = CARTESIAN_POINT('',(28.6,87.8,6.));
#1161 = DIRECTION('',(1.,0.,0.));
#1162 = DIRECTION('',(0.,1.,0.));
#1163 = ORIENTED_EDGE('',*,*,#1164,.T.);
#1164 = EDGE_CURVE('',#1156,#454,#1165,.T.);
#1165 = LINE('',#1166,#1167);
#1166 = CARTESIAN_POINT('',(28.6,87.8,5.6));
#1167 = VECTOR('',#1168,1.);
#1168 = DIRECTION('',(1.,0.,0.));
#1169 = CYLINDRICAL_SURFACE('',#1170,0.4);
#1170 = AXIS2_PLACEMENT_3D('',#1171,#1172,#1173);
#1171 = CARTESIAN_POINT('',(28.6,87.8,6.));
#1172 = DIRECTION('',(1.,0.,0.));
#1173 = DIRECTION('',(0.,1.,0.));
#1174 = ADVANCED_FACE('',(#1175),#1186,.F.);
#1175 = FACE_BOUND('',#1176,.F.);
#1176 = EDGE_LOOP('',(#1177,#1183,#1184,#1185));
#1177 = ORIENTED_EDGE('',*,*,#1178,.F.);
#1178 = EDGE_CURVE('',#855,#1156,#1179,.T.);
#1179 = LINE('',#1180,#1181);
#1180 = CARTESIAN_POINT('',(28.6,90.2,5.6));
#1181 = VECTOR('',#1182,1.);
#1182 = DIRECTION('',(0.,-1.,1.224646799147E-16));
#1183 = ORIENTED_EDGE('',*,*,#872,.T.);
#1184 = ORIENTED_EDGE('',*,*,#453,.F.);
#1185 = ORIENTED_EDGE('',*,*,#1164,.F.);
#1186 = PLANE('',#1187);
#1187 = AXIS2_PLACEMENT_3D('',#1188,#1189,#1190);
#1188 = CARTESIAN_POINT('',(28.6,90.2,5.6));
#1189 = DIRECTION('',(0.,-1.224646799147E-16,-1.));
#1190 = DIRECTION('',(1.,0.,0.));
#1191 = ADVANCED_FACE('',(#1192),#1218,.F.);
#1192 = FACE_BOUND('',#1193,.F.);
#1193 = EDGE_LOOP('',(#1194,#1195,#1203,#1212));
#1194 = ORIENTED_EDGE('',*,*,#561,.F.);
#1195 = ORIENTED_EDGE('',*,*,#1196,.F.);
#1196 = EDGE_CURVE('',#1197,#562,#1199,.T.);
#1197 = VERTEX_POINT('',#1198);
#1198 = CARTESIAN_POINT('',(28.6,84.,10.4));
#1199 = LINE('',#1200,#1201);
#1200 = CARTESIAN_POINT('',(28.6,84.,10.4));
#1201 = VECTOR('',#1202,1.);
#1202 = DIRECTION('',(1.,0.,0.));
#1203 = ORIENTED_EDGE('',*,*,#1204,.T.);
#1204 = EDGE_CURVE('',#1197,#1205,#1207,.T.);
#1205 = VERTEX_POINT('',#1206);
#1206 = CARTESIAN_POINT('',(28.6,83.6,10.));
#1207 = CIRCLE('',#1208,0.4);
#1208 = AXIS2_PLACEMENT_3D('',#1209,#1210,#1211);
#1209 = CARTESIAN_POINT('',(28.6,84.,10.));
#1210 = DIRECTION('',(1.,0.,0.));
#1211 = DIRECTION('',(0.,1.,0.));
#1212 = ORIENTED_EDGE('',*,*,#1213,.T.);
#1213 = EDGE_CURVE('',#1205,#564,#1214,.T.);
#1214 = LINE('',#1215,#1216);
#1215 = CARTESIAN_POINT('',(28.6,83.6,10.));
#1216 = VECTOR('',#1217,1.);
#1217 = DIRECTION('',(1.,0.,0.));
#1218 = CYLINDRICAL_SURFACE('',#1219,0.4);
#1219 = AXIS2_PLACEMENT_3D('',#1220,#1221,#1222);
#1220 = CARTESIAN_POINT('',(28.6,84.,10.));
#1221 = DIRECTION('',(1.,0.,0.));
#1222 = DIRECTION('',(0.,1.,0.));
#1223 = ADVANCED_FACE('',(#1224),#1242,.F.);
#1224 = FACE_BOUND('',#1225,.F.);
#1225 = EDGE_LOOP('',(#1226,#1234,#1240,#1241));
#1226 = ORIENTED_EDGE('',*,*,#1227,.F.);
#1227 = EDGE_CURVE('',#1228,#1205,#1230,.T.);
#1228 = VERTEX_POINT('',#1229);
#1229 = CARTESIAN_POINT('',(28.6,83.6,6.));
#1230 = LINE('',#1231,#1232);
#1231 = CARTESIAN_POINT('',(28.6,83.6,6.));
#1232 = VECTOR('',#1233,1.);
#1233 = DIRECTION('',(0.,1.110223024625E-16,1.));
#1234 = ORIENTED_EDGE('',*,*,#1235,.T.);
#1235 = EDGE_CURVE('',#1228,#691,#1236,.T.);
#1236 = LINE('',#1237,#1238);
#1237 = CARTESIAN_POINT('',(28.6,83.6,6.));
#1238 = VECTOR('',#1239,1.);
#1239 = DIRECTION('',(1.,0.,0.));
#1240 = ORIENTED_EDGE('',*,*,#699,.F.);
#1241 = ORIENTED_EDGE('',*,*,#1213,.F.);
#1242 = PLANE('',#1243);
#1243 = AXIS2_PLACEMENT_3D('',#1244,#1245,#1246);
#1244 = CARTESIAN_POINT('',(28.6,83.6,6.));
#1245 = DIRECTION('',(0.,-1.,1.110223024625E-16));
#1246 = DIRECTION('',(1.,0.,0.));
#1247 = ADVANCED_FACE('',(#1248),#1267,.F.);
#1248 = FACE_BOUND('',#1249,.F.);
#1249 = EDGE_LOOP('',(#1250,#1259,#1265,#1266));
#1250 = ORIENTED_EDGE('',*,*,#1251,.T.);
#1251 = EDGE_CURVE('',#1228,#1252,#1254,.T.);
#1252 = VERTEX_POINT('',#1253);
#1253 = CARTESIAN_POINT('',(28.6,84.,5.6));
#1254 = CIRCLE('',#1255,0.4);
#1255 = AXIS2_PLACEMENT_3D('',#1256,#1257,#1258);
#1256 = CARTESIAN_POINT('',(28.6,84.,6.));
#1257 = DIRECTION('',(1.,0.,0.));
#1258 = DIRECTION('',(0.,1.,0.));
#1259 = ORIENTED_EDGE('',*,*,#1260,.T.);
#1260 = EDGE_CURVE('',#1252,#683,#1261,.T.);
#1261 = LINE('',#1262,#1263);
#1262 = CARTESIAN_POINT('',(28.6,84.,5.6));
#1263 = VECTOR('',#1264,1.);
#1264 = DIRECTION('',(1.,0.,0.));
#1265 = ORIENTED_EDGE('',*,*,#690,.F.);
#1266 = ORIENTED_EDGE('',*,*,#1235,.F.);
#1267 = CYLINDRICAL_SURFACE('',#1268,0.4);
#1268 = AXIS2_PLACEMENT_3D('',#1269,#1270,#1271);
#1269 = CARTESIAN_POINT('',(28.6,84.,6.));
#1270 = DIRECTION('',(1.,0.,0.));
#1271 = DIRECTION('',(0.,1.,0.));
#1272 = ADVANCED_FACE('',(#1273),#1291,.F.);
#1273 = FACE_BOUND('',#1274,.F.);
#1274 = EDGE_LOOP('',(#1275,#1283,#1289,#1290));
#1275 = ORIENTED_EDGE('',*,*,#1276,.F.);
#1276 = EDGE_CURVE('',#1277,#1252,#1279,.T.);
#1277 = VERTEX_POINT('',#1278);
#1278 = CARTESIAN_POINT('',(28.6,85.8,5.6));
#1279 = LINE('',#1280,#1281);
#1280 = CARTESIAN_POINT('',(28.6,85.8,5.6));
#1281 = VECTOR('',#1282,1.);
#1282 = DIRECTION('',(0.,-1.,1.224646799147E-16));
#1283 = ORIENTED_EDGE('',*,*,#1284,.T.);
#1284 = EDGE_CURVE('',#1277,#674,#1285,.T.);
#1285 = LINE('',#1286,#1287);
#1286 = CARTESIAN_POINT('',(28.6,85.8,5.6));
#1287 = VECTOR('',#1288,1.);
#1288 = DIRECTION('',(1.,0.,0.));
#1289 = ORIENTED_EDGE('',*,*,#682,.F.);
#1290 = ORIENTED_EDGE('',*,*,#1260,.F.);
#1291 = PLANE('',#1292);
#1292 = AXIS2_PLACEMENT_3D('',#1293,#1294,#1295);
#1293 = CARTESIAN_POINT('',(28.6,85.8,5.6));
#1294 = DIRECTION('',(0.,-1.224646799147E-16,-1.));
#1295 = DIRECTION('',(1.,0.,0.));
#1296 = ADVANCED_FACE('',(#1297),#1316,.F.);
#1297 = FACE_BOUND('',#1298,.F.);
#1298 = EDGE_LOOP('',(#1299,#1300,#1301,#1310));
#1299 = ORIENTED_EDGE('',*,*,#673,.F.);
#1300 = ORIENTED_EDGE('',*,*,#1284,.F.);
#1301 = ORIENTED_EDGE('',*,*,#1302,.T.);
#1302 = EDGE_CURVE('',#1277,#1303,#1305,.T.);
#1303 = VERTEX_POINT('',#1304);
#1304 = CARTESIAN_POINT('',(28.6,86.056073759866,5.692711488161));
#1305 = CIRCLE('',#1306,0.4);
#1306 = AXIS2_PLACEMENT_3D('',#1307,#1308,#1309);
#1307 = CARTESIAN_POINT('',(28.6,85.8,6.));
#1308 = DIRECTION('',(1.,0.,0.));
#1309 = DIRECTION('',(0.,1.,0.));
#1310 = ORIENTED_EDGE('',*,*,#1311,.T.);
#1311 = EDGE_CURVE('',#1303,#666,#1312,.T.);
#1312 = LINE('',#1313,#1314);
#1313 = CARTESIAN_POINT('',(28.6,86.056073759866,5.692711488161));
#1314 = VECTOR('',#1315,1.);
#1315 = DIRECTION('',(1.,0.,0.));
#1316 = CYLINDRICAL_SURFACE('',#1317,0.4);
#1317 = AXIS2_PLACEMENT_3D('',#1318,#1319,#1320);
#1318 = CARTESIAN_POINT('',(28.6,85.8,6.));
#1319 = DIRECTION('',(1.,0.,0.));
#1320 = DIRECTION('',(0.,1.,0.));
#1321 = ADVANCED_FACE('',(#1322),#1340,.F.);
#1322 = FACE_BOUND('',#1323,.F.);
#1323 = EDGE_LOOP('',(#1324,#1332,#1338,#1339));
#1324 = ORIENTED_EDGE('',*,*,#1325,.F.);
#1325 = EDGE_CURVE('',#1326,#1303,#1328,.T.);
#1326 = VERTEX_POINT('',#1327);
#1327 = CARTESIAN_POINT('',(28.6,86.656073759866,6.192711488161));
#1328 = LINE('',#1329,#1330);
#1329 = CARTESIAN_POINT('',(28.6,86.656073759866,6.192711488161));
#1330 = VECTOR('',#1331,1.);
#1331 = DIRECTION('',(0.,-0.768221279597,-0.640184399664));
#1332 = ORIENTED_EDGE('',*,*,#1333,.T.);
#1333 = EDGE_CURVE('',#1326,#657,#1334,.T.);
#1334 = LINE('',#1335,#1336);
#1335 = CARTESIAN_POINT('',(28.6,86.656073759866,6.192711488161));
#1336 = VECTOR('',#1337,1.);
#1337 = DIRECTION('',(1.,0.,0.));
#1338 = ORIENTED_EDGE('',*,*,#665,.F.);
#1339 = ORIENTED_EDGE('',*,*,#1311,.F.);
#1340 = PLANE('',#1341);
#1341 = AXIS2_PLACEMENT_3D('',#1342,#1343,#1344);
#1342 = CARTESIAN_POINT('',(28.6,86.656073759866,6.192711488161));
#1343 = DIRECTION('',(0.,0.640184399664,-0.768221279597));
#1344 = DIRECTION('',(1.,0.,0.));
#1345 = ADVANCED_FACE('',(#1346),#1365,.F.);
#1346 = FACE_BOUND('',#1347,.F.);
#1347 = EDGE_LOOP('',(#1348,#1357,#1363,#1364));
#1348 = ORIENTED_EDGE('',*,*,#1349,.T.);
#1349 = EDGE_CURVE('',#1326,#1350,#1352,.T.);
#1350 = VERTEX_POINT('',#1351);
#1351 = CARTESIAN_POINT('',(28.6,86.8,6.5));
#1352 = CIRCLE('',#1353,0.4);
#1353 = AXIS2_PLACEMENT_3D('',#1354,#1355,#1356);
#1354 = CARTESIAN_POINT('',(28.6,86.4,6.5));
#1355 = DIRECTION('',(1.,0.,0.));
#1356 = DIRECTION('',(0.,1.,0.));
#1357 = ORIENTED_EDGE('',*,*,#1358,.T.);
#1358 = EDGE_CURVE('',#1350,#649,#1359,.T.);
#1359 = LINE('',#1360,#1361);
#1360 = CARTESIAN_POINT('',(28.6,86.8,6.5));
#1361 = VECTOR('',#1362,1.);
#1362 = DIRECTION('',(1.,0.,0.));
#1363 = ORIENTED_EDGE('',*,*,#656,.F.);
#1364 = ORIENTED_EDGE('',*,*,#1333,.F.);
#1365 = CYLINDRICAL_SURFACE('',#1366,0.4);
#1366 = AXIS2_PLACEMENT_3D('',#1367,#1368,#1369);
#1367 = CARTESIAN_POINT('',(28.6,86.4,6.5));
#1368 = DIRECTION('',(1.,0.,0.));
#1369 = DIRECTION('',(0.,1.,0.));
#1370 = ADVANCED_FACE('',(#1371),#1389,.F.);
#1371 = FACE_BOUND('',#1372,.F.);
#1372 = EDGE_LOOP('',(#1373,#1381,#1387,#1388));
#1373 = ORIENTED_EDGE('',*,*,#1374,.F.);
#1374 = EDGE_CURVE('',#1375,#1350,#1377,.T.);
#1375 = VERTEX_POINT('',#1376);
#1376 = CARTESIAN_POINT('',(28.6,86.8,7.5));
#1377 = LINE('',#1378,#1379);
#1378 = CARTESIAN_POINT('',(28.6,86.8,7.5));
#1379 = VECTOR('',#1380,1.);
#1380 = DIRECTION('',(0.,1.110223024625E-16,-1.));
#1381 = ORIENTED_EDGE('',*,*,#1382,.T.);
#1382 = EDGE_CURVE('',#1375,#640,#1383,.T.);
#1383 = LINE('',#1384,#1385);
#1384 = CARTESIAN_POINT('',(28.6,86.8,7.5));
#1385 = VECTOR('',#1386,1.);
#1386 = DIRECTION('',(1.,0.,0.));
#1387 = ORIENTED_EDGE('',*,*,#648,.F.);
#1388 = ORIENTED_EDGE('',*,*,#1358,.F.);
#1389 = PLANE('',#1390);
#1390 = AXIS2_PLACEMENT_3D('',#1391,#1392,#1393);
#1391 = CARTESIAN_POINT('',(28.6,86.8,7.5));
#1392 = DIRECTION('',(0.,1.,1.110223024625E-16));
#1393 = DIRECTION('',(1.,0.,0.));
#1394 = ADVANCED_FACE('',(#1395),#1414,.F.);
#1395 = FACE_BOUND('',#1396,.F.);
#1396 = EDGE_LOOP('',(#1397,#1398,#1399,#1408));
#1397 = ORIENTED_EDGE('',*,*,#639,.F.);
#1398 = ORIENTED_EDGE('',*,*,#1382,.F.);
#1399 = ORIENTED_EDGE('',*,*,#1400,.T.);
#1400 = EDGE_CURVE('',#1375,#1401,#1403,.T.);
#1401 = VERTEX_POINT('',#1402);
#1402 = CARTESIAN_POINT('',(28.6,86.656073759866,7.807288511839));
#1403 = CIRCLE('',#1404,0.4);
#1404 = AXIS2_PLACEMENT_3D('',#1405,#1406,#1407);
#1405 = CARTESIAN_POINT('',(28.6,86.4,7.5));
#1406 = DIRECTION('',(1.,0.,0.));
#1407 = DIRECTION('',(0.,1.,0.));
#1408 = ORIENTED_EDGE('',*,*,#1409,.T.);
#1409 = EDGE_CURVE('',#1401,#632,#1410,.T.);
#1410 = LINE('',#1411,#1412);
#1411 = CARTESIAN_POINT('',(28.6,86.656073759866,7.807288511839));
#1412 = VECTOR('',#1413,1.);
#1413 = DIRECTION('',(1.,0.,0.));
#1414 = CYLINDRICAL_SURFACE('',#1415,0.4);
#1415 = AXIS2_PLACEMENT_3D('',#1416,#1417,#1418);
#1416 = CARTESIAN_POINT('',(28.6,86.4,7.5));
#1417 = DIRECTION('',(1.,0.,0.));
#1418 = DIRECTION('',(0.,1.,0.));
#1419 = ADVANCED_FACE('',(#1420),#1438,.F.);
#1420 = FACE_BOUND('',#1421,.F.);
#1421 = EDGE_LOOP('',(#1422,#1430,#1436,#1437));
#1422 = ORIENTED_EDGE('',*,*,#1423,.F.);
#1423 = EDGE_CURVE('',#1424,#1401,#1426,.T.);
#1424 = VERTEX_POINT('',#1425);
#1425 = CARTESIAN_POINT('',(28.6,86.424819974073,8.));
#1426 = LINE('',#1427,#1428);
#1427 = CARTESIAN_POINT('',(28.6,86.056073759866,8.307288511839));
#1428 = VECTOR('',#1429,1.);
#1429 = DIRECTION('',(0.,0.768221279597,-0.640184399664));
#1430 = ORIENTED_EDGE('',*,*,#1431,.T.);
#1431 = EDGE_CURVE('',#1424,#624,#1432,.T.);
#1432 = LINE('',#1433,#1434);
#1433 = CARTESIAN_POINT('',(28.6,86.424819974073,8.));
#1434 = VECTOR('',#1435,1.);
#1435 = DIRECTION('',(1.,0.,0.));
#1436 = ORIENTED_EDGE('',*,*,#631,.F.);
#1437 = ORIENTED_EDGE('',*,*,#1409,.F.);
#1438 = PLANE('',#1439);
#1439 = AXIS2_PLACEMENT_3D('',#1440,#1441,#1442);
#1440 = CARTESIAN_POINT('',(28.6,86.056073759866,8.307288511839));
#1441 = DIRECTION('',(0.,0.640184399664,0.768221279597));
#1442 = DIRECTION('',(1.,0.,0.));
#1443 = ADVANCED_FACE('',(#1444),#1462,.F.);
#1444 = FACE_BOUND('',#1445,.F.);
#1445 = EDGE_LOOP('',(#1446,#1454,#1460,#1461));
#1446 = ORIENTED_EDGE('',*,*,#1447,.F.);
#1447 = EDGE_CURVE('',#1448,#1424,#1450,.T.);
#1448 = VERTEX_POINT('',#1449);
#1449 = CARTESIAN_POINT('',(28.6,86.656073759866,8.192711488161));
#1450 = LINE('',#1451,#1452);
#1451 = CARTESIAN_POINT('',(28.6,86.656073759866,8.192711488161));
#1452 = VECTOR('',#1453,1.);
#1453 = DIRECTION('',(0.,-0.768221279597,-0.640184399664));
#1454 = ORIENTED_EDGE('',*,*,#1455,.T.);
#1455 = EDGE_CURVE('',#1448,#615,#1456,.T.);
#1456 = LINE('',#1457,#1458);
#1457 = CARTESIAN_POINT('',(28.6,86.656073759866,8.192711488161));
#1458 = VECTOR('',#1459,1.);
#1459 = DIRECTION('',(1.,0.,0.));
#1460 = ORIENTED_EDGE('',*,*,#623,.F.);
#1461 = ORIENTED_EDGE('',*,*,#1431,.F.);
#1462 = PLANE('',#1463);
#1463 = AXIS2_PLACEMENT_3D('',#1464,#1465,#1466);
#1464 = CARTESIAN_POINT('',(28.6,86.656073759866,8.192711488161));
#1465 = DIRECTION('',(0.,0.640184399664,-0.768221279597));
#1466 = DIRECTION('',(1.,0.,0.));
#1467 = ADVANCED_FACE('',(#1468),#1487,.F.);
#1468 = FACE_BOUND('',#1469,.F.);
#1469 = EDGE_LOOP('',(#1470,#1479,#1485,#1486));
#1470 = ORIENTED_EDGE('',*,*,#1471,.T.);
#1471 = EDGE_CURVE('',#1448,#1472,#1474,.T.);
#1472 = VERTEX_POINT('',#1473);
#1473 = CARTESIAN_POINT('',(28.6,86.8,8.5));
#1474 = CIRCLE('',#1475,0.4);
#1475 = AXIS2_PLACEMENT_3D('',#1476,#1477,#1478);
#1476 = CARTESIAN_POINT('',(28.6,86.4,8.5));
#1477 = DIRECTION('',(1.,0.,0.));
#1478 = DIRECTION('',(0.,1.,0.));
#1479 = ORIENTED_EDGE('',*,*,#1480,.T.);
#1480 = EDGE_CURVE('',#1472,#607,#1481,.T.);
#1481 = LINE('',#1482,#1483);
#1482 = CARTESIAN_POINT('',(28.6,86.8,8.5));
#1483 = VECTOR('',#1484,1.);
#1484 = DIRECTION('',(1.,0.,0.));
#1485 = ORIENTED_EDGE('',*,*,#614,.F.);
#1486 = ORIENTED_EDGE('',*,*,#1455,.F.);
#1487 = CYLINDRICAL_SURFACE('',#1488,0.4);
#1488 = AXIS2_PLACEMENT_3D('',#1489,#1490,#1491);
#1489 = CARTESIAN_POINT('',(28.6,86.4,8.5));
#1490 = DIRECTION('',(1.,0.,0.));
#1491 = DIRECTION('',(0.,1.,0.));
#1492 = ADVANCED_FACE('',(#1493),#1511,.F.);
#1493 = FACE_BOUND('',#1494,.F.);
#1494 = EDGE_LOOP('',(#1495,#1503,#1509,#1510));
#1495 = ORIENTED_EDGE('',*,*,#1496,.F.);
#1496 = EDGE_CURVE('',#1497,#1472,#1499,.T.);
#1497 = VERTEX_POINT('',#1498);
#1498 = CARTESIAN_POINT('',(28.6,86.8,9.5));
#1499 = LINE('',#1500,#1501);
#1500 = CARTESIAN_POINT('',(28.6,86.8,9.5));
#1501 = VECTOR('',#1502,1.);
#1502 = DIRECTION('',(0.,1.110223024625E-16,-1.));
#1503 = ORIENTED_EDGE('',*,*,#1504,.T.);
#1504 = EDGE_CURVE('',#1497,#598,#1505,.T.);
#1505 = LINE('',#1506,#1507);
#1506 = CARTESIAN_POINT('',(28.6,86.8,9.5));
#1507 = VECTOR('',#1508,1.);
#1508 = DIRECTION('',(1.,0.,0.));
#1509 = ORIENTED_EDGE('',*,*,#606,.F.);
#1510 = ORIENTED_EDGE('',*,*,#1480,.F.);
#1511 = PLANE('',#1512);
#1512 = AXIS2_PLACEMENT_3D('',#1513,#1514,#1515);
#1513 = CARTESIAN_POINT('',(28.6,86.8,9.5));
#1514 = DIRECTION('',(0.,1.,1.110223024625E-16));
#1515 = DIRECTION('',(1.,0.,0.));
#1516 = ADVANCED_FACE('',(#1517),#1536,.F.);
#1517 = FACE_BOUND('',#1518,.F.);
#1518 = EDGE_LOOP('',(#1519,#1520,#1521,#1530));
#1519 = ORIENTED_EDGE('',*,*,#597,.F.);
#1520 = ORIENTED_EDGE('',*,*,#1504,.F.);
#1521 = ORIENTED_EDGE('',*,*,#1522,.T.);
#1522 = EDGE_CURVE('',#1497,#1523,#1525,.T.);
#1523 = VERTEX_POINT('',#1524);
#1524 = CARTESIAN_POINT('',(28.6,86.656073759866,9.807288511839));
#1525 = CIRCLE('',#1526,0.4);
#1526 = AXIS2_PLACEMENT_3D('',#1527,#1528,#1529);
#1527 = CARTESIAN_POINT('',(28.6,86.4,9.5));
#1528 = DIRECTION('',(1.,0.,0.));
#1529 = DIRECTION('',(0.,1.,0.));
#1530 = ORIENTED_EDGE('',*,*,#1531,.T.);
#1531 = EDGE_CURVE('',#1523,#590,#1532,.T.);
#1532 = LINE('',#1533,#1534);
#1533 = CARTESIAN_POINT('',(28.6,86.656073759866,9.807288511839));
#1534 = VECTOR('',#1535,1.);
#1535 = DIRECTION('',(1.,0.,0.));
#1536 = CYLINDRICAL_SURFACE('',#1537,0.4);
#1537 = AXIS2_PLACEMENT_3D('',#1538,#1539,#1540);
#1538 = CARTESIAN_POINT('',(28.6,86.4,9.5));
#1539 = DIRECTION('',(1.,0.,0.));
#1540 = DIRECTION('',(0.,1.,0.));
#1541 = ADVANCED_FACE('',(#1542),#1560,.F.);
#1542 = FACE_BOUND('',#1543,.F.);
#1543 = EDGE_LOOP('',(#1544,#1552,#1558,#1559));
#1544 = ORIENTED_EDGE('',*,*,#1545,.F.);
#1545 = EDGE_CURVE('',#1546,#1523,#1548,.T.);
#1546 = VERTEX_POINT('',#1547);
#1547 = CARTESIAN_POINT('',(28.6,86.056073759866,10.307288511839));
#1548 = LINE('',#1549,#1550);
#1549 = CARTESIAN_POINT('',(28.6,86.056073759866,10.307288511839));
#1550 = VECTOR('',#1551,1.);
#1551 = DIRECTION('',(0.,0.768221279597,-0.640184399664));
#1552 = ORIENTED_EDGE('',*,*,#1553,.T.);
#1553 = EDGE_CURVE('',#1546,#581,#1554,.T.);
#1554 = LINE('',#1555,#1556);
#1555 = CARTESIAN_POINT('',(28.6,86.056073759866,10.307288511839));
#1556 = VECTOR('',#1557,1.);
#1557 = DIRECTION('',(1.,0.,0.));
#1558 = ORIENTED_EDGE('',*,*,#589,.F.);
#1559 = ORIENTED_EDGE('',*,*,#1531,.F.);
#1560 = PLANE('',#1561);
#1561 = AXIS2_PLACEMENT_3D('',#1562,#1563,#1564);
#1562 = CARTESIAN_POINT('',(28.6,86.056073759866,10.307288511839));
#1563 = DIRECTION('',(0.,0.640184399664,0.768221279597));
#1564 = DIRECTION('',(1.,0.,0.));
#1565 = ADVANCED_FACE('',(#1566),#1585,.F.);
#1566 = FACE_BOUND('',#1567,.F.);
#1567 = EDGE_LOOP('',(#1568,#1569,#1570,#1579));
#1568 = ORIENTED_EDGE('',*,*,#580,.F.);
#1569 = ORIENTED_EDGE('',*,*,#1553,.F.);
#1570 = ORIENTED_EDGE('',*,*,#1571,.T.);
#1571 = EDGE_CURVE('',#1546,#1572,#1574,.T.);
#1572 = VERTEX_POINT('',#1573);
#1573 = CARTESIAN_POINT('',(28.6,85.8,10.4));
#1574 = CIRCLE('',#1575,0.4);
#1575 = AXIS2_PLACEMENT_3D('',#1576,#1577,#1578);
#1576 = CARTESIAN_POINT('',(28.6,85.8,10.));
#1577 = DIRECTION('',(1.,0.,0.));
#1578 = DIRECTION('',(0.,1.,0.));
#1579 = ORIENTED_EDGE('',*,*,#1580,.T.);
#1580 = EDGE_CURVE('',#1572,#573,#1581,.T.);
#1581 = LINE('',#1582,#1583);
#1582 = CARTESIAN_POINT('',(28.6,85.8,10.4));
#1583 = VECTOR('',#1584,1.);
#1584 = DIRECTION('',(1.,0.,0.));
#1585 = CYLINDRICAL_SURFACE('',#1586,0.4);
#1586 = AXIS2_PLACEMENT_3D('',#1587,#1588,#1589);
#1587 = CARTESIAN_POINT('',(28.6,85.8,10.));
#1588 = DIRECTION('',(1.,0.,0.));
#1589 = DIRECTION('',(0.,1.,0.));
#1590 = ADVANCED_FACE('',(#1591),#1602,.F.);
#1591 = FACE_BOUND('',#1592,.F.);
#1592 = EDGE_LOOP('',(#1593,#1599,#1600,#1601));
#1593 = ORIENTED_EDGE('',*,*,#1594,.F.);
#1594 = EDGE_CURVE('',#1197,#1572,#1595,.T.);
#1595 = LINE('',#1596,#1597);
#1596 = CARTESIAN_POINT('',(28.6,84.,10.4));
#1597 = VECTOR('',#1598,1.);
#1598 = DIRECTION('',(0.,1.,0.));
#1599 = ORIENTED_EDGE('',*,*,#1196,.T.);
#1600 = ORIENTED_EDGE('',*,*,#572,.F.);
#1601 = ORIENTED_EDGE('',*,*,#1580,.F.);
#1602 = PLANE('',#1603);
#1603 = AXIS2_PLACEMENT_3D('',#1604,#1605,#1606);
#1604 = CARTESIAN_POINT('',(28.6,84.,10.4));
#1605 = DIRECTION('',(0.,0.,1.));
#1606 = DIRECTION('',(1.,0.,0.));
#1607 = ADVANCED_FACE('',(#1608,#1611),#1614,.F.);
#1608 = FACE_BOUND('',#1609,.F.);
#1609 = EDGE_LOOP('',(#1610));
#1610 = ORIENTED_EDGE('',*,*,#837,.T.);
#1611 = FACE_BOUND('',#1612,.F.);
#1612 = EDGE_LOOP('',(#1613));
#1613 = ORIENTED_EDGE('',*,*,#734,.F.);
#1614 = PLANE('',#1615);
#1615 = AXIS2_PLACEMENT_3D('',#1616,#1617,#1618);
#1616 = CARTESIAN_POINT('',(22.5,148.,11.8));
#1617 = DIRECTION('',(0.,2.22044604925E-16,1.));
#1618 = DIRECTION('',(0.,-1.,2.22044604925E-16));
#1619 = ADVANCED_FACE('',(#1620,#1623),#1626,.F.);
#1620 = FACE_BOUND('',#1621,.F.);
#1621 = EDGE_LOOP('',(#1622));
#1622 = ORIENTED_EDGE('',*,*,#812,.T.);
#1623 = FACE_BOUND('',#1624,.F.);
#1624 = EDGE_LOOP('',(#1625));
#1625 = ORIENTED_EDGE('',*,*,#759,.F.);
#1626 = PLANE('',#1627);
#1627 = AXIS2_PLACEMENT_3D('',#1628,#1629,#1630);
#1628 = CARTESIAN_POINT('',(22.5,44.,11.8));
#1629 = DIRECTION('',(0.,2.22044604925E-16,1.));
#1630 = DIRECTION('',(0.,-1.,2.22044604925E-16));
#1631 = ADVANCED_FACE('',(#1632),#1648,.F.);
#1632 = FACE_BOUND('',#1633,.F.);
#1633 = EDGE_LOOP('',(#1634,#1635,#1636,#1637,#1638,#1639,#1640,#1641,
    #1642,#1643,#1644,#1645,#1646,#1647));
#1634 = ORIENTED_EDGE('',*,*,#961,.F.);
#1635 = ORIENTED_EDGE('',*,*,#935,.T.);
#1636 = ORIENTED_EDGE('',*,*,#912,.F.);
#1637 = ORIENTED_EDGE('',*,*,#886,.T.);
#1638 = ORIENTED_EDGE('',*,*,#854,.F.);
#1639 = ORIENTED_EDGE('',*,*,#1178,.T.);
#1640 = ORIENTED_EDGE('',*,*,#1155,.F.);
#1641 = ORIENTED_EDGE('',*,*,#1129,.F.);
#1642 = ORIENTED_EDGE('',*,*,#1105,.F.);
#1643 = ORIENTED_EDGE('',*,*,#1081,.F.);
#1644 = ORIENTED_EDGE('',*,*,#1058,.F.);
#1645 = ORIENTED_EDGE('',*,*,#1032,.T.);
#1646 = ORIENTED_EDGE('',*,*,#1008,.F.);
#1647 = ORIENTED_EDGE('',*,*,#984,.F.);
#1648 = PLANE('',#1649);
#1649 = AXIS2_PLACEMENT_3D('',#1650,#1651,#1652);
#1650 = CARTESIAN_POINT('',(28.6,89.24990761755,8.));
#1651 = DIRECTION('',(-1.,-0.,-0.));
#1652 = DIRECTION('',(0.,-1.,0.));
#1653 = ADVANCED_FACE('',(#1654,#1673,#1723),#1773,.F.);
#1654 = FACE_BOUND('',#1655,.F.);
#1655 = EDGE_LOOP('',(#1656,#1657,#1658,#1659,#1660,#1661,#1662,#1663,
    #1664,#1665,#1666,#1667,#1668,#1669,#1670,#1671,#1672));
#1656 = ORIENTED_EDGE('',*,*,#1276,.T.);
#1657 = ORIENTED_EDGE('',*,*,#1251,.F.);
#1658 = ORIENTED_EDGE('',*,*,#1227,.T.);
#1659 = ORIENTED_EDGE('',*,*,#1204,.F.);
#1660 = ORIENTED_EDGE('',*,*,#1594,.T.);
#1661 = ORIENTED_EDGE('',*,*,#1571,.F.);
#1662 = ORIENTED_EDGE('',*,*,#1545,.T.);
#1663 = ORIENTED_EDGE('',*,*,#1522,.F.);
#1664 = ORIENTED_EDGE('',*,*,#1496,.T.);
#1665 = ORIENTED_EDGE('',*,*,#1471,.F.);
#1666 = ORIENTED_EDGE('',*,*,#1447,.T.);
#1667 = ORIENTED_EDGE('',*,*,#1423,.T.);
#1668 = ORIENTED_EDGE('',*,*,#1400,.F.);
#1669 = ORIENTED_EDGE('',*,*,#1374,.T.);
#1670 = ORIENTED_EDGE('',*,*,#1349,.F.);
#1671 = ORIENTED_EDGE('',*,*,#1325,.T.);
#1672 = ORIENTED_EDGE('',*,*,#1302,.F.);
#1673 = FACE_BOUND('',#1674,.F.);
#1674 = EDGE_LOOP('',(#1675,#1685,#1693,#1701,#1709,#1717));
#1675 = ORIENTED_EDGE('',*,*,#1676,.F.);
#1676 = EDGE_CURVE('',#1677,#1679,#1681,.T.);
#1677 = VERTEX_POINT('',#1678);
#1678 = CARTESIAN_POINT('',(28.6,85.655180025927,6.4));
#1679 = VERTEX_POINT('',#1680);
#1680 = CARTESIAN_POINT('',(28.6,84.4,6.4));
#1681 = LINE('',#1682,#1683);
#1682 = CARTESIAN_POINT('',(28.6,85.8,6.4));
#1683 = VECTOR('',#1684,1.);
#1684 = DIRECTION('',(0.,-1.,1.224646799147E-16));
#1685 = ORIENTED_EDGE('',*,*,#1686,.F.);
#1686 = EDGE_CURVE('',#1687,#1677,#1689,.T.);
#1687 = VERTEX_POINT('',#1688);
#1688 = CARTESIAN_POINT('',(28.6,86.,6.687349978394));
#1689 = LINE('',#1690,#1691);
#1690 = CARTESIAN_POINT('',(28.6,86.143926240134,6.807288511839));
#1691 = VECTOR('',#1692,1.);
#1692 = DIRECTION('',(0.,-0.768221279597,-0.640184399664));
#1693 = ORIENTED_EDGE('',*,*,#1694,.F.);
#1694 = EDGE_CURVE('',#1695,#1687,#1697,.T.);
#1695 = VERTEX_POINT('',#1696);
#1696 = CARTESIAN_POINT('',(28.6,86.,7.312650021606));
#1697 = LINE('',#1698,#1699);
#1698 = CARTESIAN_POINT('',(28.6,86.,7.5));
#1699 = VECTOR('',#1700,1.);
#1700 = DIRECTION('',(0.,1.110223024625E-16,-1.));
#1701 = ORIENTED_EDGE('',*,*,#1702,.F.);
#1702 = EDGE_CURVE('',#1703,#1695,#1705,.T.);
#1703 = VERTEX_POINT('',#1704);
#1704 = CARTESIAN_POINT('',(28.6,85.655180025927,7.6));
#1705 = LINE('',#1706,#1707);
#1706 = CARTESIAN_POINT('',(28.6,85.543926240134,7.692711488161));
#1707 = VECTOR('',#1708,1.);
#1708 = DIRECTION('',(0.,0.768221279597,-0.640184399664));
#1709 = ORIENTED_EDGE('',*,*,#1710,.T.);
#1710 = EDGE_CURVE('',#1703,#1711,#1713,.T.);
#1711 = VERTEX_POINT('',#1712);
#1712 = CARTESIAN_POINT('',(28.6,84.4,7.6));
#1713 = LINE('',#1714,#1715);
#1714 = CARTESIAN_POINT('',(28.6,85.8,7.6));
#1715 = VECTOR('',#1716,1.);
#1716 = DIRECTION('',(0.,-1.,1.224646799147E-16));
#1717 = ORIENTED_EDGE('',*,*,#1718,.F.);
#1718 = EDGE_CURVE('',#1679,#1711,#1719,.T.);
#1719 = LINE('',#1720,#1721);
#1720 = CARTESIAN_POINT('',(28.6,84.4,6.));
#1721 = VECTOR('',#1722,1.);
#1722 = DIRECTION('',(0.,1.110223024625E-16,1.));
#1723 = FACE_BOUND('',#1724,.F.);
#1724 = EDGE_LOOP('',(#1725,#1735,#1743,#1751,#1759,#1767));
#1725 = ORIENTED_EDGE('',*,*,#1726,.F.);
#1726 = EDGE_CURVE('',#1727,#1729,#1731,.T.);
#1727 = VERTEX_POINT('',#1728);
#1728 = CARTESIAN_POINT('',(28.6,85.655180025927,8.4));
#1729 = VERTEX_POINT('',#1730);
#1730 = CARTESIAN_POINT('',(28.6,84.4,8.4));
#1731 = LINE('',#1732,#1733);
#1732 = CARTESIAN_POINT('',(28.6,85.8,8.4));
#1733 = VECTOR('',#1734,1.);
#1734 = DIRECTION('',(0.,-1.,1.224646799147E-16));
#1735 = ORIENTED_EDGE('',*,*,#1736,.F.);
#1736 = EDGE_CURVE('',#1737,#1727,#1739,.T.);
#1737 = VERTEX_POINT('',#1738);
#1738 = CARTESIAN_POINT('',(28.6,86.,8.687349978394));
#1739 = LINE('',#1740,#1741);
#1740 = CARTESIAN_POINT('',(28.6,86.143926240134,8.807288511839));
#1741 = VECTOR('',#1742,1.);
#1742 = DIRECTION('',(0.,-0.768221279597,-0.640184399664));
#1743 = ORIENTED_EDGE('',*,*,#1744,.F.);
#1744 = EDGE_CURVE('',#1745,#1737,#1747,.T.);
#1745 = VERTEX_POINT('',#1746);
#1746 = CARTESIAN_POINT('',(28.6,86.,9.312650021606));
#1747 = LINE('',#1748,#1749);
#1748 = CARTESIAN_POINT('',(28.6,86.,9.5));
#1749 = VECTOR('',#1750,1.);
#1750 = DIRECTION('',(0.,1.110223024625E-16,-1.));
#1751 = ORIENTED_EDGE('',*,*,#1752,.F.);
#1752 = EDGE_CURVE('',#1753,#1745,#1755,.T.);
#1753 = VERTEX_POINT('',#1754);
#1754 = CARTESIAN_POINT('',(28.6,85.655180025927,9.6));
#1755 = LINE('',#1756,#1757);
#1756 = CARTESIAN_POINT('',(28.6,85.543926240134,9.692711488161));
#1757 = VECTOR('',#1758,1.);
#1758 = DIRECTION('',(0.,0.768221279597,-0.640184399664));
#1759 = ORIENTED_EDGE('',*,*,#1760,.F.);
#1760 = EDGE_CURVE('',#1761,#1753,#1763,.T.);
#1761 = VERTEX_POINT('',#1762);
#1762 = CARTESIAN_POINT('',(28.6,84.4,9.6));
#1763 = LINE('',#1764,#1765);
#1764 = CARTESIAN_POINT('',(28.6,84.,9.6));
#1765 = VECTOR('',#1766,1.);
#1766 = DIRECTION('',(0.,1.,0.));
#1767 = ORIENTED_EDGE('',*,*,#1768,.F.);
#1768 = EDGE_CURVE('',#1729,#1761,#1769,.T.);
#1769 = LINE('',#1770,#1771);
#1770 = CARTESIAN_POINT('',(28.6,84.4,6.));
#1771 = VECTOR('',#1772,1.);
#1772 = DIRECTION('',(0.,1.110223024625E-16,1.));
#1773 = PLANE('',#1774);
#1774 = AXIS2_PLACEMENT_3D('',#1775,#1776,#1777);
#1775 = CARTESIAN_POINT('',(28.6,85.13995470749,8.));
#1776 = DIRECTION('',(-1.,-0.,-0.));
#1777 = DIRECTION('',(0.,-1.,0.));
#1778 = ADVANCED_FACE('',(#1779),#1804,.T.);
#1779 = FACE_BOUND('',#1780,.T.);
#1780 = EDGE_LOOP('',(#1781,#1782,#1790,#1798));
#1781 = ORIENTED_EDGE('',*,*,#1676,.F.);
#1782 = ORIENTED_EDGE('',*,*,#1783,.F.);
#1783 = EDGE_CURVE('',#1784,#1677,#1786,.T.);
#1784 = VERTEX_POINT('',#1785);
#1785 = CARTESIAN_POINT('',(29.,85.655180025927,6.4));
#1786 = LINE('',#1787,#1788);
#1787 = CARTESIAN_POINT('',(28.6,85.655180025927,6.4));
#1788 = VECTOR('',#1789,1.);
#1789 = DIRECTION('',(-1.,0.,0.));
#1790 = ORIENTED_EDGE('',*,*,#1791,.F.);
#1791 = EDGE_CURVE('',#1792,#1784,#1794,.T.);
#1792 = VERTEX_POINT('',#1793);
#1793 = CARTESIAN_POINT('',(29.,84.4,6.4));
#1794 = LINE('',#1795,#1796);
#1795 = CARTESIAN_POINT('',(29.,88.9,6.4));
#1796 = VECTOR('',#1797,1.);
#1797 = DIRECTION('',(0.,1.,-1.224646799147E-16));
#1798 = ORIENTED_EDGE('',*,*,#1799,.F.);
#1799 = EDGE_CURVE('',#1679,#1792,#1800,.T.);
#1800 = LINE('',#1801,#1802);
#1801 = CARTESIAN_POINT('',(28.6,84.4,6.4));
#1802 = VECTOR('',#1803,1.);
#1803 = DIRECTION('',(1.,0.,0.));
#1804 = PLANE('',#1805);
#1805 = AXIS2_PLACEMENT_3D('',#1806,#1807,#1808);
#1806 = CARTESIAN_POINT('',(28.6,85.8,6.4));
#1807 = DIRECTION('',(0.,-1.224646799147E-16,-1.));
#1808 = DIRECTION('',(1.,0.,0.));
#1809 = ADVANCED_FACE('',(#1810),#1828,.T.);
#1810 = FACE_BOUND('',#1811,.T.);
#1811 = EDGE_LOOP('',(#1812,#1813,#1821,#1827));
#1812 = ORIENTED_EDGE('',*,*,#1686,.F.);
#1813 = ORIENTED_EDGE('',*,*,#1814,.F.);
#1814 = EDGE_CURVE('',#1815,#1687,#1817,.T.);
#1815 = VERTEX_POINT('',#1816);
#1816 = CARTESIAN_POINT('',(29.,86.,6.687349978394));
#1817 = LINE('',#1818,#1819);
#1818 = CARTESIAN_POINT('',(28.6,86.,6.687349978394));
#1819 = VECTOR('',#1820,1.);
#1820 = DIRECTION('',(-1.,0.,0.));
#1821 = ORIENTED_EDGE('',*,*,#1822,.F.);
#1822 = EDGE_CURVE('',#1784,#1815,#1823,.T.);
#1823 = LINE('',#1824,#1825);
#1824 = CARTESIAN_POINT('',(29.,88.017696731938,8.368763921675));
#1825 = VECTOR('',#1826,1.);
#1826 = DIRECTION('',(0.,0.768221279597,0.640184399664));
#1827 = ORIENTED_EDGE('',*,*,#1783,.T.);
#1828 = PLANE('',#1829);
#1829 = AXIS2_PLACEMENT_3D('',#1830,#1831,#1832);
#1830 = CARTESIAN_POINT('',(28.6,86.143926240134,6.807288511839));
#1831 = DIRECTION('',(0.,0.640184399664,-0.768221279597));
#1832 = DIRECTION('',(1.,0.,0.));
#1833 = ADVANCED_FACE('',(#1834),#1852,.T.);
#1834 = FACE_BOUND('',#1835,.T.);
#1835 = EDGE_LOOP('',(#1836,#1837,#1845,#1851));
#1836 = ORIENTED_EDGE('',*,*,#1694,.F.);
#1837 = ORIENTED_EDGE('',*,*,#1838,.F.);
#1838 = EDGE_CURVE('',#1839,#1695,#1841,.T.);
#1839 = VERTEX_POINT('',#1840);
#1840 = CARTESIAN_POINT('',(29.,86.,7.312650021606));
#1841 = LINE('',#1842,#1843);
#1842 = CARTESIAN_POINT('',(28.6,86.,7.312650021606));
#1843 = VECTOR('',#1844,1.);
#1844 = DIRECTION('',(-1.,0.,0.));
#1845 = ORIENTED_EDGE('',*,*,#1846,.F.);
#1846 = EDGE_CURVE('',#1815,#1839,#1847,.T.);
#1847 = LINE('',#1848,#1849);
#1848 = CARTESIAN_POINT('',(29.,86.,7.45));
#1849 = VECTOR('',#1850,1.);
#1850 = DIRECTION('',(0.,-1.110223024625E-16,1.));
#1851 = ORIENTED_EDGE('',*,*,#1814,.T.);
#1852 = PLANE('',#1853);
#1853 = AXIS2_PLACEMENT_3D('',#1854,#1855,#1856);
#1854 = CARTESIAN_POINT('',(28.6,86.,7.5));
#1855 = DIRECTION('',(0.,1.,1.110223024625E-16));
#1856 = DIRECTION('',(1.,0.,0.));
#1857 = ADVANCED_FACE('',(#1858),#1876,.T.);
#1858 = FACE_BOUND('',#1859,.T.);
#1859 = EDGE_LOOP('',(#1860,#1861,#1869,#1875));
#1860 = ORIENTED_EDGE('',*,*,#1702,.F.);
#1861 = ORIENTED_EDGE('',*,*,#1862,.T.);
#1862 = EDGE_CURVE('',#1703,#1863,#1865,.T.);
#1863 = VERTEX_POINT('',#1864);
#1864 = CARTESIAN_POINT('',(29.,85.655180025927,7.6));
#1865 = LINE('',#1866,#1867);
#1866 = CARTESIAN_POINT('',(28.6,85.655180025927,7.6));
#1867 = VECTOR('',#1868,1.);
#1868 = DIRECTION('',(1.,0.,0.));
#1869 = ORIENTED_EDGE('',*,*,#1870,.F.);
#1870 = EDGE_CURVE('',#1839,#1863,#1871,.T.);
#1871 = LINE('',#1872,#1873);
#1872 = CARTESIAN_POINT('',(29.,87.520975420462,6.045170504554));
#1873 = VECTOR('',#1874,1.);
#1874 = DIRECTION('',(0.,-0.768221279597,0.640184399664));
#1875 = ORIENTED_EDGE('',*,*,#1838,.T.);
#1876 = PLANE('',#1877);
#1877 = AXIS2_PLACEMENT_3D('',#1878,#1879,#1880);
#1878 = CARTESIAN_POINT('',(28.6,85.543926240134,7.692711488161));
#1879 = DIRECTION('',(0.,0.640184399664,0.768221279597));
#1880 = DIRECTION('',(1.,0.,0.));
#1881 = ADVANCED_FACE('',(#1882),#1900,.F.);
#1882 = FACE_BOUND('',#1883,.F.);
#1883 = EDGE_LOOP('',(#1884,#1885,#1886,#1894));
#1884 = ORIENTED_EDGE('',*,*,#1710,.F.);
#1885 = ORIENTED_EDGE('',*,*,#1862,.T.);
#1886 = ORIENTED_EDGE('',*,*,#1887,.F.);
#1887 = EDGE_CURVE('',#1888,#1863,#1890,.T.);
#1888 = VERTEX_POINT('',#1889);
#1889 = CARTESIAN_POINT('',(29.,84.4,7.6));
#1890 = LINE('',#1891,#1892);
#1891 = CARTESIAN_POINT('',(29.,88.9,7.6));
#1892 = VECTOR('',#1893,1.);
#1893 = DIRECTION('',(0.,1.,-1.224646799147E-16));
#1894 = ORIENTED_EDGE('',*,*,#1895,.F.);
#1895 = EDGE_CURVE('',#1711,#1888,#1896,.T.);
#1896 = LINE('',#1897,#1898);
#1897 = CARTESIAN_POINT('',(28.6,84.4,7.6));
#1898 = VECTOR('',#1899,1.);
#1899 = DIRECTION('',(1.,0.,0.));
#1900 = PLANE('',#1901);
#1901 = AXIS2_PLACEMENT_3D('',#1902,#1903,#1904);
#1902 = CARTESIAN_POINT('',(28.6,85.8,7.6));
#1903 = DIRECTION('',(0.,-1.224646799147E-16,-1.));
#1904 = DIRECTION('',(1.,0.,0.));
#1905 = ADVANCED_FACE('',(#1906),#1917,.T.);
#1906 = FACE_BOUND('',#1907,.T.);
#1907 = EDGE_LOOP('',(#1908,#1909,#1910,#1916));
#1908 = ORIENTED_EDGE('',*,*,#1718,.F.);
#1909 = ORIENTED_EDGE('',*,*,#1799,.T.);
#1910 = ORIENTED_EDGE('',*,*,#1911,.F.);
#1911 = EDGE_CURVE('',#1888,#1792,#1912,.T.);
#1912 = LINE('',#1913,#1914);
#1913 = CARTESIAN_POINT('',(29.,84.4,6.7));
#1914 = VECTOR('',#1915,1.);
#1915 = DIRECTION('',(0.,-1.110223024625E-16,-1.));
#1916 = ORIENTED_EDGE('',*,*,#1895,.F.);
#1917 = PLANE('',#1918);
#1918 = AXIS2_PLACEMENT_3D('',#1919,#1920,#1921);
#1919 = CARTESIAN_POINT('',(28.6,84.4,6.));
#1920 = DIRECTION('',(0.,-1.,1.110223024625E-16));
#1921 = DIRECTION('',(1.,0.,0.));
#1922 = ADVANCED_FACE('',(#1923),#1948,.T.);
#1923 = FACE_BOUND('',#1924,.T.);
#1924 = EDGE_LOOP('',(#1925,#1926,#1934,#1942));
#1925 = ORIENTED_EDGE('',*,*,#1726,.F.);
#1926 = ORIENTED_EDGE('',*,*,#1927,.F.);
#1927 = EDGE_CURVE('',#1928,#1727,#1930,.T.);
#1928 = VERTEX_POINT('',#1929);
#1929 = CARTESIAN_POINT('',(29.,85.655180025927,8.4));
#1930 = LINE('',#1931,#1932);
#1931 = CARTESIAN_POINT('',(28.6,85.655180025927,8.4));
#1932 = VECTOR('',#1933,1.);
#1933 = DIRECTION('',(-1.,0.,0.));
#1934 = ORIENTED_EDGE('',*,*,#1935,.F.);
#1935 = EDGE_CURVE('',#1936,#1928,#1938,.T.);
#1936 = VERTEX_POINT('',#1937);
#1937 = CARTESIAN_POINT('',(29.,84.4,8.4));
#1938 = LINE('',#1939,#1940);
#1939 = CARTESIAN_POINT('',(29.,88.9,8.4));
#1940 = VECTOR('',#1941,1.);
#1941 = DIRECTION('',(0.,1.,-1.224646799147E-16));
#1942 = ORIENTED_EDGE('',*,*,#1943,.F.);
#1943 = EDGE_CURVE('',#1729,#1936,#1944,.T.);
#1944 = LINE('',#1945,#1946);
#1945 = CARTESIAN_POINT('',(28.6,84.4,8.4));
#1946 = VECTOR('',#1947,1.);
#1947 = DIRECTION('',(1.,0.,0.));
#1948 = PLANE('',#1949);
#1949 = AXIS2_PLACEMENT_3D('',#1950,#1951,#1952);
#1950 = CARTESIAN_POINT('',(28.6,85.8,8.4));
#1951 = DIRECTION('',(0.,-1.224646799147E-16,-1.));
#1952 = DIRECTION('',(1.,0.,0.));
#1953 = ADVANCED_FACE('',(#1954),#1972,.T.);
#1954 = FACE_BOUND('',#1955,.T.);
#1955 = EDGE_LOOP('',(#1956,#1957,#1965,#1971));
#1956 = ORIENTED_EDGE('',*,*,#1736,.F.);
#1957 = ORIENTED_EDGE('',*,*,#1958,.F.);
#1958 = EDGE_CURVE('',#1959,#1737,#1961,.T.);
#1959 = VERTEX_POINT('',#1960);
#1960 = CARTESIAN_POINT('',(29.,86.,8.687349978394));
#1961 = LINE('',#1962,#1963);
#1962 = CARTESIAN_POINT('',(28.6,86.,8.687349978394));
#1963 = VECTOR('',#1964,1.);
#1964 = DIRECTION('',(-1.,0.,0.));
#1965 = ORIENTED_EDGE('',*,*,#1966,.F.);
#1966 = EDGE_CURVE('',#1928,#1959,#1967,.T.);
#1967 = LINE('',#1968,#1969);
#1968 = CARTESIAN_POINT('',(29.,87.525893453249,9.958927856101));
#1969 = VECTOR('',#1970,1.);
#1970 = DIRECTION('',(0.,0.768221279597,0.640184399664));
#1971 = ORIENTED_EDGE('',*,*,#1927,.T.);
#1972 = PLANE('',#1973);
#1973 = AXIS2_PLACEMENT_3D('',#1974,#1975,#1976);
#1974 = CARTESIAN_POINT('',(28.6,86.143926240134,8.807288511839));
#1975 = DIRECTION('',(0.,0.640184399664,-0.768221279597));
#1976 = DIRECTION('',(1.,0.,0.));
#1977 = ADVANCED_FACE('',(#1978),#1996,.T.);
#1978 = FACE_BOUND('',#1979,.T.);
#1979 = EDGE_LOOP('',(#1980,#1981,#1989,#1995));
#1980 = ORIENTED_EDGE('',*,*,#1744,.F.);
#1981 = ORIENTED_EDGE('',*,*,#1982,.F.);
#1982 = EDGE_CURVE('',#1983,#1745,#1985,.T.);
#1983 = VERTEX_POINT('',#1984);
#1984 = CARTESIAN_POINT('',(29.,86.,9.312650021606));
#1985 = LINE('',#1986,#1987);
#1986 = CARTESIAN_POINT('',(28.6,86.,9.312650021606));
#1987 = VECTOR('',#1988,1.);
#1988 = DIRECTION('',(-1.,0.,0.));
#1989 = ORIENTED_EDGE('',*,*,#1990,.F.);
#1990 = EDGE_CURVE('',#1959,#1983,#1991,.T.);
#1991 = LINE('',#1992,#1993);
#1992 = CARTESIAN_POINT('',(29.,86.,8.45));
#1993 = VECTOR('',#1994,1.);
#1994 = DIRECTION('',(0.,-1.110223024625E-16,1.));
#1995 = ORIENTED_EDGE('',*,*,#1958,.T.);
#1996 = PLANE('',#1997);
#1997 = AXIS2_PLACEMENT_3D('',#1998,#1999,#2000);
#1998 = CARTESIAN_POINT('',(28.6,86.,9.5));
#1999 = DIRECTION('',(0.,1.,1.110223024625E-16));
#2000 = DIRECTION('',(1.,0.,0.));
#2001 = ADVANCED_FACE('',(#2002),#2020,.T.);
#2002 = FACE_BOUND('',#2003,.T.);
#2003 = EDGE_LOOP('',(#2004,#2005,#2013,#2019));
#2004 = ORIENTED_EDGE('',*,*,#1752,.F.);
#2005 = ORIENTED_EDGE('',*,*,#2006,.F.);
#2006 = EDGE_CURVE('',#2007,#1753,#2009,.T.);
#2007 = VERTEX_POINT('',#2008);
#2008 = CARTESIAN_POINT('',(29.,85.655180025927,9.6));
#2009 = LINE('',#2010,#2011);
#2010 = CARTESIAN_POINT('',(28.6,85.655180025927,9.6));
#2011 = VECTOR('',#2012,1.);
#2012 = DIRECTION('',(-1.,0.,0.));
#2013 = ORIENTED_EDGE('',*,*,#2014,.F.);
#2014 = EDGE_CURVE('',#1983,#2007,#2015,.T.);
#2015 = LINE('',#2016,#2017);
#2016 = CARTESIAN_POINT('',(29.,88.012778699151,7.635334438981));
#2017 = VECTOR('',#2018,1.);
#2018 = DIRECTION('',(0.,-0.768221279597,0.640184399664));
#2019 = ORIENTED_EDGE('',*,*,#1982,.T.);
#2020 = PLANE('',#2021);
#2021 = AXIS2_PLACEMENT_3D('',#2022,#2023,#2024);
#2022 = CARTESIAN_POINT('',(28.6,85.543926240134,9.692711488161));
#2023 = DIRECTION('',(0.,0.640184399664,0.768221279597));
#2024 = DIRECTION('',(1.,0.,0.));
#2025 = ADVANCED_FACE('',(#2026),#2044,.T.);
#2026 = FACE_BOUND('',#2027,.T.);
#2027 = EDGE_LOOP('',(#2028,#2029,#2037,#2043));
#2028 = ORIENTED_EDGE('',*,*,#1760,.F.);
#2029 = ORIENTED_EDGE('',*,*,#2030,.F.);
#2030 = EDGE_CURVE('',#2031,#1761,#2033,.T.);
#2031 = VERTEX_POINT('',#2032);
#2032 = CARTESIAN_POINT('',(29.,84.4,9.6));
#2033 = LINE('',#2034,#2035);
#2034 = CARTESIAN_POINT('',(28.6,84.4,9.6));
#2035 = VECTOR('',#2036,1.);
#2036 = DIRECTION('',(-1.,0.,0.));
#2037 = ORIENTED_EDGE('',*,*,#2038,.F.);
#2038 = EDGE_CURVE('',#2007,#2031,#2039,.T.);
#2039 = LINE('',#2040,#2041);
#2040 = CARTESIAN_POINT('',(29.,88.,9.6));
#2041 = VECTOR('',#2042,1.);
#2042 = DIRECTION('',(0.,-1.,0.));
#2043 = ORIENTED_EDGE('',*,*,#2006,.T.);
#2044 = PLANE('',#2045);
#2045 = AXIS2_PLACEMENT_3D('',#2046,#2047,#2048);
#2046 = CARTESIAN_POINT('',(28.6,84.,9.6));
#2047 = DIRECTION('',(0.,0.,1.));
#2048 = DIRECTION('',(1.,0.,0.));
#2049 = ADVANCED_FACE('',(#2050),#2061,.T.);
#2050 = FACE_BOUND('',#2051,.T.);
#2051 = EDGE_LOOP('',(#2052,#2053,#2054,#2060));
#2052 = ORIENTED_EDGE('',*,*,#1768,.F.);
#2053 = ORIENTED_EDGE('',*,*,#1943,.T.);
#2054 = ORIENTED_EDGE('',*,*,#2055,.F.);
#2055 = EDGE_CURVE('',#2031,#1936,#2056,.T.);
#2056 = LINE('',#2057,#2058);
#2057 = CARTESIAN_POINT('',(29.,84.4,6.7));
#2058 = VECTOR('',#2059,1.);
#2059 = DIRECTION('',(0.,-1.110223024625E-16,-1.));
#2060 = ORIENTED_EDGE('',*,*,#2030,.T.);
#2061 = PLANE('',#2062);
#2062 = AXIS2_PLACEMENT_3D('',#2063,#2064,#2065);
#2063 = CARTESIAN_POINT('',(28.6,84.4,6.));
#2064 = DIRECTION('',(0.,-1.,1.110223024625E-16));
#2065 = DIRECTION('',(1.,0.,0.));
#2066 = ADVANCED_FACE('',(#2067),#2075,.T.);
#2067 = FACE_BOUND('',#2068,.T.);
#2068 = EDGE_LOOP('',(#2069,#2070,#2071,#2072,#2073,#2074));
#2069 = ORIENTED_EDGE('',*,*,#1911,.T.);
#2070 = ORIENTED_EDGE('',*,*,#1791,.T.);
#2071 = ORIENTED_EDGE('',*,*,#1822,.T.);
#2072 = ORIENTED_EDGE('',*,*,#1846,.T.);
#2073 = ORIENTED_EDGE('',*,*,#1870,.T.);
#2074 = ORIENTED_EDGE('',*,*,#1887,.F.);
#2075 = PLANE('',#2076);
#2076 = AXIS2_PLACEMENT_3D('',#2077,#2078,#2079);
#2077 = CARTESIAN_POINT('',(29.,92.,7.4));
#2078 = DIRECTION('',(1.,0.,0.));
#2079 = DIRECTION('',(0.,-1.,2.22044604925E-16));
#2080 = ADVANCED_FACE('',(#2081),#2089,.T.);
#2081 = FACE_BOUND('',#2082,.T.);
#2082 = EDGE_LOOP('',(#2083,#2084,#2085,#2086,#2087,#2088));
#2083 = ORIENTED_EDGE('',*,*,#2038,.T.);
#2084 = ORIENTED_EDGE('',*,*,#2055,.T.);
#2085 = ORIENTED_EDGE('',*,*,#1935,.T.);
#2086 = ORIENTED_EDGE('',*,*,#1966,.T.);
#2087 = ORIENTED_EDGE('',*,*,#1990,.T.);
#2088 = ORIENTED_EDGE('',*,*,#2014,.T.);
#2089 = PLANE('',#2090);
#2090 = AXIS2_PLACEMENT_3D('',#2091,#2092,#2093);
#2091 = CARTESIAN_POINT('',(29.,92.,7.4));
#2092 = DIRECTION('',(1.,0.,0.));
#2093 = DIRECTION('',(0.,-1.,2.22044604925E-16));
#2094 = ( GEOMETRIC_REPRESENTATION_CONTEXT(3)
GLOBAL_UNCERTAINTY_ASSIGNED_CONTEXT((#2098))
GLOBAL_UNIT_ASSIGNED_CONTEXT((#2095,#2096,#2097)) REPRESENTATION_CONTEXT
('Context #1','3D Context with UNIT and UNCERTAINTY') );
#2095 = ( LENGTH_UNIT() NAMED_UNIT(*) SI_UNIT(.MILLI.,.METRE.) );
#2096 = ( NAMED_UNIT(*) PLANE_ANGLE_UNIT() SI_UNIT($,.RADIAN.) );
#2097 = ( NAMED_UNIT(*) SI_UNIT($,.STERADIAN.) SOLID_ANGLE_UNIT() );
#2098 = UNCERTAINTY_MEASURE_WITH_UNIT(LENGTH_MEASURE(1.E-07),#2095,
  'distance_accuracy_value','confusion accuracy');
#2099 = PRODUCT_RELATED_PRODUCT_CATEGORY('part',$,(#7));
ENDSEC;
END-ISO-10303-21;
