ISO-10303-21;
HEADER;
FILE_DESCRIPTION(('FreeCAD Model'),'2;1');
FILE_NAME('Open CASCADE Shape Model','2026-10-09T08:39:35',('FreeCAD'),(
    'FreeCAD'),'Open CASCADE STEP processor 7.8','FreeCAD','Unknown');
FILE_SCHEMA(('AUTOMOTIVE_DESIGN { 1 0 10303 214 1 1 1 1 }'));
ENDSEC;
DATA;
#1 = APPLICATION_PROTOCOL_DEFINITION('international standard',
  'automotive_design',2000,#2);
#2 = APPLICATION_CONTEXT(
  'core data for automotive mechanical design processes');
#3 = SHAPE_DEFINITION_REPRESENTATION(#4,#10);
#4 = PRODUCT_DEFINITION_SHAPE('','',#5);
#5 = PRODUCT_DEFINITION('design','',#6,#9);
#6 = PRODUCT_DEFINITION_FORMATION('','',#7);
#7 = PRODUCT('Open CASCADE STEP translator 7.8 15',
  'Open CASCADE STEP translator 7.8 15','',(#8));
#8 = PRODUCT_CONTEXT('',#2,'mechanical');
#9 = PRODUCT_DEFINITION_CONTEXT('part definition',#2,'design');
#10 = ADVANCED_BREP_SHAPE_REPRESENTATION('',(#11,#15),#1720);
#11 = AXIS2_PLACEMENT_3D('',#12,#13,#14);
#12 = CARTESIAN_POINT('',(0.,0.,0.));
#13 = DIRECTION('',(0.,0.,1.));
#14 = DIRECTION('',(1.,0.,-0.));
#15 = MANIFOLD_SOLID_BREP('',#16);
#16 = CLOSED_SHELL('',(#17,#57,#339,#363,#430,#447,#482,#499,#530,#555,
    #579,#604,#628,#653,#677,#701,#726,#750,#775,#799,#824,#848,#873,
    #897,#915,#946,#970,#994,#1019,#1043,#1068,#1092,#1116,#1141,#1165,
    #1183,#1207,#1231,#1248,#1260,#1385,#1404,#1435,#1459,#1483,#1507,
    #1531,#1548,#1579,#1603,#1627,#1651,#1675,#1692,#1706));
#17 = ADVANCED_FACE('',(#18),#52,.F.);
#18 = FACE_BOUND('',#19,.F.);
#19 = EDGE_LOOP('',(#20,#30,#38,#46));
#20 = ORIENTED_EDGE('',*,*,#21,.F.);
#21 = EDGE_CURVE('',#22,#24,#26,.T.);
#22 = VERTEX_POINT('',#23);
#23 = CARTESIAN_POINT('',(0.,9.,0.));
#24 = VERTEX_POINT('',#25);
#25 = CARTESIAN_POINT('',(0.,0.,3.552713678801E-15));
#26 = LINE('',#27,#28);
#27 = CARTESIAN_POINT('',(0.,9.,0.));
#28 = VECTOR('',#29,1.);
#29 = DIRECTION('',(0.,-1.,2.22044604925E-16));
#30 = ORIENTED_EDGE('',*,*,#31,.T.);
#31 = EDGE_CURVE('',#22,#32,#34,.T.);
#32 = VERTEX_POINT('',#33);
#33 = CARTESIAN_POINT('',(0.,9.,3.));
#34 = LINE('',#35,#36);
#35 = CARTESIAN_POINT('',(0.,9.,0.));
#36 = VECTOR('',#37,1.);
#37 = DIRECTION('',(0.,2.22044604925E-16,1.));
#38 = ORIENTED_EDGE('',*,*,#39,.T.);
#39 = EDGE_CURVE('',#32,#40,#42,.T.);
#40 = VERTEX_POINT('',#41);
#41 = CARTESIAN_POINT('',(0.,0.,3.));
#42 = LINE('',#43,#44);
#43 = CARTESIAN_POINT('',(0.,9.,3.));
#44 = VECTOR('',#45,1.);
#45 = DIRECTION('',(0.,-1.,2.22044604925E-16));
#46 = ORIENTED_EDGE('',*,*,#47,.F.);
#47 = EDGE_CURVE('',#24,#40,#48,.T.);
#48 = LINE('',#49,#50);
#49 = CARTESIAN_POINT('',(0.,0.,3.552713678801E-15));
#50 = VECTOR('',#51,1.);
#51 = DIRECTION('',(0.,2.22044604925E-16,1.));
#52 = PLANE('',#53);
#53 = AXIS2_PLACEMENT_3D('',#54,#55,#56);
#54 = CARTESIAN_POINT('',(0.,9.,0.));
#55 = DIRECTION('',(1.,0.,0.));
#56 = DIRECTION('',(0.,-1.,2.22044604925E-16));
#57 = ADVANCED_FACE('',(#58,#83,#94,#240),#334,.F.);
#58 = FACE_BOUND('',#59,.F.);
#59 = EDGE_LOOP('',(#60,#68,#69,#77));
#60 = ORIENTED_EDGE('',*,*,#61,.F.);
#61 = EDGE_CURVE('',#22,#62,#64,.T.);
#62 = VERTEX_POINT('',#63);
#63 = CARTESIAN_POINT('',(28.5,9.,0.));
#64 = LINE('',#65,#66);
#65 = CARTESIAN_POINT('',(0.,9.,0.));
#66 = VECTOR('',#67,1.);
#67 = DIRECTION('',(1.,0.,0.));
#68 = ORIENTED_EDGE('',*,*,#21,.T.);
#69 = ORIENTED_EDGE('',*,*,#70,.T.);
#70 = EDGE_CURVE('',#24,#71,#73,.T.);
#71 = VERTEX_POINT('',#72);
#72 = CARTESIAN_POINT('',(28.5,0.,3.552713678801E-15));
#73 = LINE('',#74,#75);
#74 = CARTESIAN_POINT('',(0.,0.,3.552713678801E-15));
#75 = VECTOR('',#76,1.);
#76 = DIRECTION('',(1.,0.,0.));
#77 = ORIENTED_EDGE('',*,*,#78,.F.);
#78 = EDGE_CURVE('',#62,#71,#79,.T.);
#79 = LINE('',#80,#81);
#80 = CARTESIAN_POINT('',(28.5,9.,0.));
#81 = VECTOR('',#82,1.);
#82 = DIRECTION('',(0.,-1.,2.22044604925E-16));
#83 = FACE_BOUND('',#84,.F.);
#84 = EDGE_LOOP('',(#85));
#85 = ORIENTED_EDGE('',*,*,#86,.F.);
#86 = EDGE_CURVE('',#87,#87,#89,.T.);
#87 = VERTEX_POINT('',#88);
#88 = CARTESIAN_POINT('',(5.,3.2,3.552713678801E-15));
#89 = CIRCLE('',#90,1.8);
#90 = AXIS2_PLACEMENT_3D('',#91,#92,#93);
#91 = CARTESIAN_POINT('',(5.,5.,3.552713678801E-15));
#92 = DIRECTION('',(-0.,2.22044604925E-16,1.));
#93 = DIRECTION('',(0.,-1.,2.22044604925E-16));
#94 = FACE_BOUND('',#95,.F.);
#95 = EDGE_LOOP('',(#96,#106,#115,#123,#132,#140,#149,#157,#166,#174,
    #183,#191,#199,#208,#216,#225,#233));
#96 = ORIENTED_EDGE('',*,*,#97,.F.);
#97 = EDGE_CURVE('',#98,#100,#102,.T.);
#98 = VERTEX_POINT('',#99);
#99 = CARTESIAN_POINT('',(14.,2.1,3.552713678801E-15));
#100 = VERTEX_POINT('',#101);
#101 = CARTESIAN_POINT('',(15.8,2.1,3.552713678801E-15));
#102 = LINE('',#103,#104);
#103 = CARTESIAN_POINT('',(7.,2.1,1.543210004229E-15));
#104 = VECTOR('',#105,1.);
#105 = DIRECTION('',(1.,0.,0.));
#106 = ORIENTED_EDGE('',*,*,#107,.T.);
#107 = EDGE_CURVE('',#98,#108,#110,.T.);
#108 = VERTEX_POINT('',#109);
#109 = CARTESIAN_POINT('',(13.6,2.5,3.552713678801E-15));
#110 = CIRCLE('',#111,0.4);
#111 = AXIS2_PLACEMENT_3D('',#112,#113,#114);
#112 = CARTESIAN_POINT('',(14.,2.5,1.443289932013E-15));
#113 = DIRECTION('',(0.,0.,-1.));
#114 = DIRECTION('',(1.,0.,0.));
#115 = ORIENTED_EDGE('',*,*,#116,.F.);
#116 = EDGE_CURVE('',#117,#108,#119,.T.);
#117 = VERTEX_POINT('',#118);
#118 = CARTESIAN_POINT('',(13.6,6.5,0.));
#119 = LINE('',#120,#121);
#120 = CARTESIAN_POINT('',(13.6,7.75,2.775557561563E-16));
#121 = VECTOR('',#122,1.);
#122 = DIRECTION('',(1.110223024625E-16,-1.,2.22044604925E-16));
#123 = ORIENTED_EDGE('',*,*,#124,.T.);
#124 = EDGE_CURVE('',#117,#125,#127,.T.);
#125 = VERTEX_POINT('',#126);
#126 = CARTESIAN_POINT('',(14.,6.9,0.));
#127 = CIRCLE('',#128,0.4);
#128 = AXIS2_PLACEMENT_3D('',#129,#130,#131);
#129 = CARTESIAN_POINT('',(14.,6.5,5.551115123126E-16));
#130 = DIRECTION('',(0.,0.,-1.));
#131 = DIRECTION('',(1.,0.,0.));
#132 = ORIENTED_EDGE('',*,*,#133,.F.);
#133 = EDGE_CURVE('',#134,#125,#136,.T.);
#134 = VERTEX_POINT('',#135);
#135 = CARTESIAN_POINT('',(15.8,6.9,0.));
#136 = LINE('',#137,#138);
#137 = CARTESIAN_POINT('',(7.9,6.9,4.551914400963E-16));
#138 = VECTOR('',#139,1.);
#139 = DIRECTION('',(-1.,-1.224646799147E-16,2.719262146894E-32));
#140 = ORIENTED_EDGE('',*,*,#141,.T.);
#141 = EDGE_CURVE('',#134,#142,#144,.T.);
#142 = VERTEX_POINT('',#143);
#143 = CARTESIAN_POINT('',(16.056073759866,6.807288511839,0.));
#144 = CIRCLE('',#145,0.4);
#145 = AXIS2_PLACEMENT_3D('',#146,#147,#148);
#146 = CARTESIAN_POINT('',(15.8,6.5,5.551115123126E-16));
#147 = DIRECTION('',(0.,0.,-1.));
#148 = DIRECTION('',(1.,0.,0.));
#149 = ORIENTED_EDGE('',*,*,#150,.F.);
#150 = EDGE_CURVE('',#151,#142,#153,.T.);
#151 = VERTEX_POINT('',#152);
#152 = CARTESIAN_POINT('',(16.656073759866,6.307288511839,0.));
#153 = LINE('',#154,#155);
#154 = CARTESIAN_POINT('',(11.079024579538,10.954829495446,
    -4.27699040523E-16));
#155 = VECTOR('',#156,1.);
#156 = DIRECTION('',(-0.768221279597,0.640184399664,-1.421494921027E-16)
  );
#157 = ORIENTED_EDGE('',*,*,#158,.T.);
#158 = EDGE_CURVE('',#151,#159,#161,.T.);
#159 = VERTEX_POINT('',#160);
#160 = CARTESIAN_POINT('',(16.8,6.,0.));
#161 = CIRCLE('',#162,0.4);
#162 = AXIS2_PLACEMENT_3D('',#163,#164,#165);
#163 = CARTESIAN_POINT('',(16.4,6.,6.661338147751E-16));
#164 = DIRECTION('',(0.,0.,-1.));
#165 = DIRECTION('',(1.,0.,0.));
#166 = ORIENTED_EDGE('',*,*,#167,.F.);
#167 = EDGE_CURVE('',#168,#159,#170,.T.);
#168 = VERTEX_POINT('',#169);
#169 = CARTESIAN_POINT('',(16.8,5.,3.552713678801E-15));
#170 = LINE('',#171,#172);
#171 = CARTESIAN_POINT('',(16.8,7.,4.440892098501E-16));
#172 = VECTOR('',#173,1.);
#173 = DIRECTION('',(1.110223024625E-16,1.,-2.22044604925E-16));
#174 = ORIENTED_EDGE('',*,*,#175,.T.);
#175 = EDGE_CURVE('',#168,#176,#178,.T.);
#176 = VERTEX_POINT('',#177);
#177 = CARTESIAN_POINT('',(16.656073759866,4.692711488161,
    3.552713678801E-15));
#178 = CIRCLE('',#179,0.4);
#179 = AXIS2_PLACEMENT_3D('',#180,#181,#182);
#180 = CARTESIAN_POINT('',(16.4,5.,8.881784197001E-16));
#181 = DIRECTION('',(0.,0.,-1.));
#182 = DIRECTION('',(1.,0.,0.));
#183 = ORIENTED_EDGE('',*,*,#184,.F.);
#184 = EDGE_CURVE('',#185,#176,#187,.T.);
#185 = VERTEX_POINT('',#186);
#186 = CARTESIAN_POINT('',(16.424819974073,4.5,3.552713678801E-15));
#187 = LINE('',#188,#189);
#188 = CARTESIAN_POINT('',(12.500336054948,1.229596734063,
    1.719015820804E-15));
#189 = VECTOR('',#190,1.);
#190 = DIRECTION('',(0.768221279597,0.640184399664,-1.421494921027E-16)
  );
#191 = ORIENTED_EDGE('',*,*,#192,.F.);
#192 = EDGE_CURVE('',#193,#185,#195,.T.);
#193 = VERTEX_POINT('',#194);
#194 = CARTESIAN_POINT('',(16.656073759866,4.307288511839,
    3.552713678801E-15));
#195 = LINE('',#196,#197);
#196 = CARTESIAN_POINT('',(10.587221300849,9.364665561019,
    -7.461171793728E-17));
#197 = VECTOR('',#198,1.);
#198 = DIRECTION('',(-0.768221279597,0.640184399664,-1.421494921027E-16)
  );
#199 = ORIENTED_EDGE('',*,*,#200,.T.);
#200 = EDGE_CURVE('',#193,#201,#203,.T.);
#201 = VERTEX_POINT('',#202);
#202 = CARTESIAN_POINT('',(16.8,4.,3.552713678801E-15));
#203 = CIRCLE('',#204,0.4);
#204 = AXIS2_PLACEMENT_3D('',#205,#206,#207);
#205 = CARTESIAN_POINT('',(16.4,4.,1.110223024625E-15));
#206 = DIRECTION('',(0.,0.,-1.));
#207 = DIRECTION('',(1.,0.,0.));
#208 = ORIENTED_EDGE('',*,*,#209,.F.);
#209 = EDGE_CURVE('',#210,#201,#212,.T.);
#210 = VERTEX_POINT('',#211);
#211 = CARTESIAN_POINT('',(16.8,3.,3.552713678801E-15));
#212 = LINE('',#213,#214);
#213 = CARTESIAN_POINT('',(16.8,6.,6.661338147751E-16));
#214 = VECTOR('',#215,1.);
#215 = DIRECTION('',(1.110223024625E-16,1.,-2.22044604925E-16));
#216 = ORIENTED_EDGE('',*,*,#217,.T.);
#217 = EDGE_CURVE('',#210,#218,#220,.T.);
#218 = VERTEX_POINT('',#219);
#219 = CARTESIAN_POINT('',(16.656073759866,2.692711488161,
    3.552713678801E-15));
#220 = CIRCLE('',#221,0.4);
#221 = AXIS2_PLACEMENT_3D('',#222,#223,#224);
#222 = CARTESIAN_POINT('',(16.4,3.,1.33226762955E-15));
#223 = DIRECTION('',(0.,0.,-1.));
#224 = DIRECTION('',(1.,0.,0.));
#225 = ORIENTED_EDGE('',*,*,#226,.F.);
#226 = EDGE_CURVE('',#227,#218,#229,.T.);
#227 = VERTEX_POINT('',#228);
#228 = CARTESIAN_POINT('',(16.056073759866,2.192711488161,
    3.552713678801E-15));
#229 = LINE('',#230,#231);
#230 = CARTESIAN_POINT('',(12.992139333636,-0.360567200364,
    2.07210314339E-15));
#231 = VECTOR('',#232,1.);
#232 = DIRECTION('',(0.768221279597,0.640184399664,-1.421494921027E-16)
  );
#233 = ORIENTED_EDGE('',*,*,#234,.T.);
#234 = EDGE_CURVE('',#227,#100,#235,.T.);
#235 = CIRCLE('',#236,0.4);
#236 = AXIS2_PLACEMENT_3D('',#237,#238,#239);
#237 = CARTESIAN_POINT('',(15.8,2.5,1.443289932013E-15));
#238 = DIRECTION('',(0.,0.,-1.));
#239 = DIRECTION('',(1.,0.,0.));
#240 = FACE_BOUND('',#241,.F.);
#241 = EDGE_LOOP('',(#242,#252,#261,#269,#278,#286,#294,#303,#311,#320,
    #328));
#242 = ORIENTED_EDGE('',*,*,#243,.F.);
#243 = EDGE_CURVE('',#244,#246,#248,.T.);
#244 = VERTEX_POINT('',#245);
#245 = CARTESIAN_POINT('',(18.2,2.5,3.552713678801E-15));
#246 = VERTEX_POINT('',#247);
#247 = CARTESIAN_POINT('',(18.2,4.1,3.552713678801E-15));
#248 = LINE('',#249,#250);
#249 = CARTESIAN_POINT('',(18.2,5.75,7.216449660064E-16));
#250 = VECTOR('',#251,1.);
#251 = DIRECTION('',(1.110223024625E-16,1.,-2.22044604925E-16));
#252 = ORIENTED_EDGE('',*,*,#253,.T.);
#253 = EDGE_CURVE('',#244,#254,#256,.T.);
#254 = VERTEX_POINT('',#255);
#255 = CARTESIAN_POINT('',(17.4,2.5,3.552713678801E-15));
#256 = CIRCLE('',#257,0.4);
#257 = AXIS2_PLACEMENT_3D('',#258,#259,#260);
#258 = CARTESIAN_POINT('',(17.8,2.5,1.443289932013E-15));
#259 = DIRECTION('',(0.,0.,-1.));
#260 = DIRECTION('',(1.,0.,0.));
#261 = ORIENTED_EDGE('',*,*,#262,.T.);
#262 = EDGE_CURVE('',#254,#263,#265,.T.);
#263 = VERTEX_POINT('',#264);
#264 = CARTESIAN_POINT('',(17.4,4.5,3.552713678801E-15));
#265 = LINE('',#266,#267);
#266 = CARTESIAN_POINT('',(17.4,5.75,7.216449660064E-16));
#267 = VECTOR('',#268,1.);
#268 = DIRECTION('',(1.110223024625E-16,1.,-2.22044604925E-16));
#269 = ORIENTED_EDGE('',*,*,#270,.T.);
#270 = EDGE_CURVE('',#263,#271,#273,.T.);
#271 = VERTEX_POINT('',#272);
#272 = CARTESIAN_POINT('',(17.8,4.9,3.552713678801E-15));
#273 = CIRCLE('',#274,0.4);
#274 = AXIS2_PLACEMENT_3D('',#275,#276,#277);
#275 = CARTESIAN_POINT('',(17.8,4.5,9.992007221626E-16));
#276 = DIRECTION('',(0.,0.,-1.));
#277 = DIRECTION('',(1.,0.,0.));
#278 = ORIENTED_EDGE('',*,*,#279,.T.);
#279 = EDGE_CURVE('',#271,#280,#282,.T.);
#280 = VERTEX_POINT('',#281);
#281 = CARTESIAN_POINT('',(19.8,4.9,3.552713678801E-15));
#282 = LINE('',#283,#284);
#283 = CARTESIAN_POINT('',(8.9,4.9,8.992806499464E-16));
#284 = VECTOR('',#285,1.);
#285 = DIRECTION('',(1.,0.,0.));
#286 = ORIENTED_EDGE('',*,*,#287,.T.);
#287 = EDGE_CURVE('',#280,#288,#290,.T.);
#288 = VERTEX_POINT('',#289);
#289 = CARTESIAN_POINT('',(19.8,6.5,0.));
#290 = LINE('',#291,#292);
#291 = CARTESIAN_POINT('',(19.8,5.75,7.216449660064E-16));
#292 = VECTOR('',#293,1.);
#293 = DIRECTION('',(1.110223024625E-16,1.,-2.22044604925E-16));
#294 = ORIENTED_EDGE('',*,*,#295,.T.);
#295 = EDGE_CURVE('',#288,#296,#298,.T.);
#296 = VERTEX_POINT('',#297);
#297 = CARTESIAN_POINT('',(20.6,6.5,0.));
#298 = CIRCLE('',#299,0.4);
#299 = AXIS2_PLACEMENT_3D('',#300,#301,#302);
#300 = CARTESIAN_POINT('',(20.2,6.5,5.551115123126E-16));
#301 = DIRECTION('',(0.,0.,-1.));
#302 = DIRECTION('',(1.,0.,0.));
#303 = ORIENTED_EDGE('',*,*,#304,.F.);
#304 = EDGE_CURVE('',#305,#296,#307,.T.);
#305 = VERTEX_POINT('',#306);
#306 = CARTESIAN_POINT('',(20.6,2.5,3.552713678801E-15));
#307 = LINE('',#308,#309);
#308 = CARTESIAN_POINT('',(20.6,5.75,7.216449660064E-16));
#309 = VECTOR('',#310,1.);
#310 = DIRECTION('',(1.110223024625E-16,1.,-2.22044604925E-16));
#311 = ORIENTED_EDGE('',*,*,#312,.T.);
#312 = EDGE_CURVE('',#305,#313,#315,.T.);
#313 = VERTEX_POINT('',#314);
#314 = CARTESIAN_POINT('',(19.8,2.5,3.552713678801E-15));
#315 = CIRCLE('',#316,0.4);
#316 = AXIS2_PLACEMENT_3D('',#317,#318,#319);
#317 = CARTESIAN_POINT('',(20.2,2.5,1.443289932013E-15));
#318 = DIRECTION('',(0.,0.,-1.));
#319 = DIRECTION('',(1.,0.,0.));
#320 = ORIENTED_EDGE('',*,*,#321,.T.);
#321 = EDGE_CURVE('',#313,#322,#324,.T.);
#322 = VERTEX_POINT('',#323);
#323 = CARTESIAN_POINT('',(19.8,4.1,3.552713678801E-15));
#324 = LINE('',#325,#326);
#325 = CARTESIAN_POINT('',(19.8,5.75,7.216449660064E-16));
#326 = VECTOR('',#327,1.);
#327 = DIRECTION('',(1.110223024625E-16,1.,-2.22044604925E-16));
#328 = ORIENTED_EDGE('',*,*,#329,.F.);
#329 = EDGE_CURVE('',#246,#322,#330,.T.);
#330 = LINE('',#331,#332);
#331 = CARTESIAN_POINT('',(8.9,4.1,1.099120794379E-15));
#332 = VECTOR('',#333,1.);
#333 = DIRECTION('',(1.,0.,0.));
#334 = PLANE('',#335);
#335 = AXIS2_PLACEMENT_3D('',#336,#337,#338);
#336 = CARTESIAN_POINT('',(0.,9.,0.));
#337 = DIRECTION('',(0.,2.22044604925E-16,1.));
#338 = DIRECTION('',(0.,-1.,2.22044604925E-16));
#339 = ADVANCED_FACE('',(#340),#358,.T.);
#340 = FACE_BOUND('',#341,.T.);
#341 = EDGE_LOOP('',(#342,#343,#344,#352));
#342 = ORIENTED_EDGE('',*,*,#47,.F.);
#343 = ORIENTED_EDGE('',*,*,#70,.T.);
#344 = ORIENTED_EDGE('',*,*,#345,.T.);
#345 = EDGE_CURVE('',#71,#346,#348,.T.);
#346 = VERTEX_POINT('',#347);
#347 = CARTESIAN_POINT('',(28.5,0.,3.));
#348 = LINE('',#349,#350);
#349 = CARTESIAN_POINT('',(28.5,0.,3.552713678801E-15));
#350 = VECTOR('',#351,1.);
#351 = DIRECTION('',(0.,2.22044604925E-16,1.));
#352 = ORIENTED_EDGE('',*,*,#353,.F.);
#353 = EDGE_CURVE('',#40,#346,#354,.T.);
#354 = LINE('',#355,#356);
#355 = CARTESIAN_POINT('',(0.,0.,3.));
#356 = VECTOR('',#357,1.);
#357 = DIRECTION('',(1.,0.,0.));
#358 = PLANE('',#359);
#359 = AXIS2_PLACEMENT_3D('',#360,#361,#362);
#360 = CARTESIAN_POINT('',(0.,0.,3.552713678801E-15));
#361 = DIRECTION('',(0.,-1.,2.22044604925E-16));
#362 = DIRECTION('',(1.,0.,0.));
#363 = ADVANCED_FACE('',(#364,#414),#425,.T.);
#364 = FACE_BOUND('',#365,.T.);
#365 = EDGE_LOOP('',(#366,#376,#382,#383,#384,#392,#400,#408));
#366 = ORIENTED_EDGE('',*,*,#367,.F.);
#367 = EDGE_CURVE('',#368,#370,#372,.T.);
#368 = VERTEX_POINT('',#369);
#369 = CARTESIAN_POINT('',(28.5,9.,3.));
#370 = VERTEX_POINT('',#371);
#371 = CARTESIAN_POINT('',(28.5,3.7,3.));
#372 = LINE('',#373,#374);
#373 = CARTESIAN_POINT('',(28.5,9.,3.));
#374 = VECTOR('',#375,1.);
#375 = DIRECTION('',(0.,-1.,2.22044604925E-16));
#376 = ORIENTED_EDGE('',*,*,#377,.F.);
#377 = EDGE_CURVE('',#32,#368,#378,.T.);
#378 = LINE('',#379,#380);
#379 = CARTESIAN_POINT('',(0.,9.,3.));
#380 = VECTOR('',#381,1.);
#381 = DIRECTION('',(1.,0.,0.));
#382 = ORIENTED_EDGE('',*,*,#39,.T.);
#383 = ORIENTED_EDGE('',*,*,#353,.T.);
#384 = ORIENTED_EDGE('',*,*,#385,.F.);
#385 = EDGE_CURVE('',#386,#346,#388,.T.);
#386 = VERTEX_POINT('',#387);
#387 = CARTESIAN_POINT('',(28.5,0.7,3.));
#388 = LINE('',#389,#390);
#389 = CARTESIAN_POINT('',(28.5,9.,3.));
#390 = VECTOR('',#391,1.);
#391 = DIRECTION('',(0.,-1.,2.22044604925E-16));
#392 = ORIENTED_EDGE('',*,*,#393,.F.);
#393 = EDGE_CURVE('',#394,#386,#396,.T.);
#394 = VERTEX_POINT('',#395);
#395 = CARTESIAN_POINT('',(23.5,0.7,3.));
#396 = LINE('',#397,#398);
#397 = CARTESIAN_POINT('',(23.5,0.7,3.));
#398 = VECTOR('',#399,1.);
#399 = DIRECTION('',(1.,0.,0.));
#400 = ORIENTED_EDGE('',*,*,#401,.F.);
#401 = EDGE_CURVE('',#402,#394,#404,.T.);
#402 = VERTEX_POINT('',#403);
#403 = CARTESIAN_POINT('',(23.5,3.7,3.));
#404 = LINE('',#405,#406);
#405 = CARTESIAN_POINT('',(23.5,3.7,3.));
#406 = VECTOR('',#407,1.);
#407 = DIRECTION('',(0.,-1.,2.22044604925E-16));
#408 = ORIENTED_EDGE('',*,*,#409,.T.);
#409 = EDGE_CURVE('',#402,#370,#410,.T.);
#410 = LINE('',#411,#412);
#411 = CARTESIAN_POINT('',(23.5,3.7,3.));
#412 = VECTOR('',#413,1.);
#413 = DIRECTION('',(1.,0.,0.));
#414 = FACE_BOUND('',#415,.T.);
#415 = EDGE_LOOP('',(#416));
#416 = ORIENTED_EDGE('',*,*,#417,.F.);
#417 = EDGE_CURVE('',#418,#418,#420,.T.);
#418 = VERTEX_POINT('',#419);
#419 = CARTESIAN_POINT('',(5.,3.2,3.));
#420 = CIRCLE('',#421,1.8);
#421 = AXIS2_PLACEMENT_3D('',#422,#423,#424);
#422 = CARTESIAN_POINT('',(5.,5.,3.));
#423 = DIRECTION('',(-0.,2.22044604925E-16,1.));
#424 = DIRECTION('',(0.,-1.,2.22044604925E-16));
#425 = PLANE('',#426);
#426 = AXIS2_PLACEMENT_3D('',#427,#428,#429);
#427 = CARTESIAN_POINT('',(0.,9.,3.));
#428 = DIRECTION('',(0.,2.22044604925E-16,1.));
#429 = DIRECTION('',(0.,-1.,2.22044604925E-16));
#430 = ADVANCED_FACE('',(#431),#442,.F.);
#431 = FACE_BOUND('',#432,.F.);
#432 = EDGE_LOOP('',(#433,#434,#435,#441));
#433 = ORIENTED_EDGE('',*,*,#31,.F.);
#434 = ORIENTED_EDGE('',*,*,#61,.T.);
#435 = ORIENTED_EDGE('',*,*,#436,.T.);
#436 = EDGE_CURVE('',#62,#368,#437,.T.);
#437 = LINE('',#438,#439);
#438 = CARTESIAN_POINT('',(28.5,9.,0.));
#439 = VECTOR('',#440,1.);
#440 = DIRECTION('',(0.,2.22044604925E-16,1.));
#441 = ORIENTED_EDGE('',*,*,#377,.F.);
#442 = PLANE('',#443);
#443 = AXIS2_PLACEMENT_3D('',#444,#445,#446);
#444 = CARTESIAN_POINT('',(0.,9.,0.));
#445 = DIRECTION('',(0.,-1.,2.22044604925E-16));
#446 = DIRECTION('',(1.,0.,0.));
#447 = ADVANCED_FACE('',(#448),#477,.T.);
#448 = FACE_BOUND('',#449,.T.);
#449 = EDGE_LOOP('',(#450,#451,#452,#453,#461,#469,#475,#476));
#450 = ORIENTED_EDGE('',*,*,#78,.F.);
#451 = ORIENTED_EDGE('',*,*,#436,.T.);
#452 = ORIENTED_EDGE('',*,*,#367,.T.);
#453 = ORIENTED_EDGE('',*,*,#454,.T.);
#454 = EDGE_CURVE('',#370,#455,#457,.T.);
#455 = VERTEX_POINT('',#456);
#456 = CARTESIAN_POINT('',(28.5,3.7,9.));
#457 = LINE('',#458,#459);
#458 = CARTESIAN_POINT('',(28.5,3.7,3.));
#459 = VECTOR('',#460,1.);
#460 = DIRECTION('',(0.,2.22044604925E-16,1.));
#461 = ORIENTED_EDGE('',*,*,#462,.T.);
#462 = EDGE_CURVE('',#455,#463,#465,.T.);
#463 = VERTEX_POINT('',#464);
#464 = CARTESIAN_POINT('',(28.5,0.7,9.));
#465 = LINE('',#466,#467);
#466 = CARTESIAN_POINT('',(28.5,3.7,9.));
#467 = VECTOR('',#468,1.);
#468 = DIRECTION('',(0.,-1.,2.22044604925E-16));
#469 = ORIENTED_EDGE('',*,*,#470,.F.);
#470 = EDGE_CURVE('',#386,#463,#471,.T.);
#471 = LINE('',#472,#473);
#472 = CARTESIAN_POINT('',(28.5,0.7,3.));
#473 = VECTOR('',#474,1.);
#474 = DIRECTION('',(0.,2.22044604925E-16,1.));
#475 = ORIENTED_EDGE('',*,*,#385,.T.);
#476 = ORIENTED_EDGE('',*,*,#345,.F.);
#477 = PLANE('',#478);
#478 = AXIS2_PLACEMENT_3D('',#479,#480,#481);
#479 = CARTESIAN_POINT('',(28.5,3.733333333333,3.5));
#480 = DIRECTION('',(1.,0.,0.));
#481 = DIRECTION('',(0.,-1.,2.22044604925E-16));
#482 = ADVANCED_FACE('',(#483),#494,.F.);
#483 = FACE_BOUND('',#484,.F.);
#484 = EDGE_LOOP('',(#485,#486,#492,#493));
#485 = ORIENTED_EDGE('',*,*,#417,.F.);
#486 = ORIENTED_EDGE('',*,*,#487,.F.);
#487 = EDGE_CURVE('',#87,#418,#488,.T.);
#488 = LINE('',#489,#490);
#489 = CARTESIAN_POINT('',(5.,3.2,-1.E-01));
#490 = VECTOR('',#491,1.);
#491 = DIRECTION('',(0.,2.22044604925E-16,1.));
#492 = ORIENTED_EDGE('',*,*,#86,.T.);
#493 = ORIENTED_EDGE('',*,*,#487,.T.);
#494 = CYLINDRICAL_SURFACE('',#495,1.8);
#495 = AXIS2_PLACEMENT_3D('',#496,#497,#498);
#496 = CARTESIAN_POINT('',(5.,5.,-1.E-01));
#497 = DIRECTION('',(0.,2.22044604925E-16,1.));
#498 = DIRECTION('',(0.,-1.,2.22044604925E-16));
#499 = ADVANCED_FACE('',(#500),#525,.F.);
#500 = FACE_BOUND('',#501,.F.);
#501 = EDGE_LOOP('',(#502,#512,#518,#519));
#502 = ORIENTED_EDGE('',*,*,#503,.F.);
#503 = EDGE_CURVE('',#504,#506,#508,.T.);
#504 = VERTEX_POINT('',#505);
#505 = CARTESIAN_POINT('',(14.,2.1,0.4));
#506 = VERTEX_POINT('',#507);
#507 = CARTESIAN_POINT('',(15.8,2.1,0.4));
#508 = LINE('',#509,#510);
#509 = CARTESIAN_POINT('',(14.,2.1,0.4));
#510 = VECTOR('',#511,1.);
#511 = DIRECTION('',(1.,0.,0.));
#512 = ORIENTED_EDGE('',*,*,#513,.T.);
#513 = EDGE_CURVE('',#504,#98,#514,.T.);
#514 = LINE('',#515,#516);
#515 = CARTESIAN_POINT('',(14.,2.1,0.4));
#516 = VECTOR('',#517,1.);
#517 = DIRECTION('',(0.,0.,-1.));
#518 = ORIENTED_EDGE('',*,*,#97,.T.);
#519 = ORIENTED_EDGE('',*,*,#520,.F.);
#520 = EDGE_CURVE('',#506,#100,#521,.T.);
#521 = LINE('',#522,#523);
#522 = CARTESIAN_POINT('',(15.8,2.1,0.4));
#523 = VECTOR('',#524,1.);
#524 = DIRECTION('',(0.,0.,-1.));
#525 = PLANE('',#526);
#526 = AXIS2_PLACEMENT_3D('',#527,#528,#529);
#527 = CARTESIAN_POINT('',(14.,2.1,0.4));
#528 = DIRECTION('',(0.,-1.,0.));
#529 = DIRECTION('',(0.,0.,-1.));
#530 = ADVANCED_FACE('',(#531),#550,.F.);
#531 = FACE_BOUND('',#532,.F.);
#532 = EDGE_LOOP('',(#533,#534,#542,#549));
#533 = ORIENTED_EDGE('',*,*,#234,.F.);
#534 = ORIENTED_EDGE('',*,*,#535,.F.);
#535 = EDGE_CURVE('',#536,#227,#538,.T.);
#536 = VERTEX_POINT('',#537);
#537 = CARTESIAN_POINT('',(16.056073759866,2.192711488161,0.4));
#538 = LINE('',#539,#540);
#539 = CARTESIAN_POINT('',(16.056073759866,2.192711488161,0.4));
#540 = VECTOR('',#541,1.);
#541 = DIRECTION('',(0.,0.,-1.));
#542 = ORIENTED_EDGE('',*,*,#543,.T.);
#543 = EDGE_CURVE('',#536,#506,#544,.T.);
#544 = CIRCLE('',#545,0.4);
#545 = AXIS2_PLACEMENT_3D('',#546,#547,#548);
#546 = CARTESIAN_POINT('',(15.8,2.5,0.4));
#547 = DIRECTION('',(0.,0.,-1.));
#548 = DIRECTION('',(1.,0.,0.));
#549 = ORIENTED_EDGE('',*,*,#520,.T.);
#550 = CYLINDRICAL_SURFACE('',#551,0.4);
#551 = AXIS2_PLACEMENT_3D('',#552,#553,#554);
#552 = CARTESIAN_POINT('',(15.8,2.5,0.4));
#553 = DIRECTION('',(0.,0.,-1.));
#554 = DIRECTION('',(1.,0.,0.));
#555 = ADVANCED_FACE('',(#556),#574,.F.);
#556 = FACE_BOUND('',#557,.F.);
#557 = EDGE_LOOP('',(#558,#566,#567,#568));
#558 = ORIENTED_EDGE('',*,*,#559,.F.);
#559 = EDGE_CURVE('',#536,#560,#562,.T.);
#560 = VERTEX_POINT('',#561);
#561 = CARTESIAN_POINT('',(16.656073759866,2.692711488161,0.4));
#562 = LINE('',#563,#564);
#563 = CARTESIAN_POINT('',(16.056073759866,2.192711488161,0.4));
#564 = VECTOR('',#565,1.);
#565 = DIRECTION('',(0.768221279597,0.640184399664,0.));
#566 = ORIENTED_EDGE('',*,*,#535,.T.);
#567 = ORIENTED_EDGE('',*,*,#226,.T.);
#568 = ORIENTED_EDGE('',*,*,#569,.F.);
#569 = EDGE_CURVE('',#560,#218,#570,.T.);
#570 = LINE('',#571,#572);
#571 = CARTESIAN_POINT('',(16.656073759866,2.692711488161,0.4));
#572 = VECTOR('',#573,1.);
#573 = DIRECTION('',(0.,0.,-1.));
#574 = PLANE('',#575);
#575 = AXIS2_PLACEMENT_3D('',#576,#577,#578);
#576 = CARTESIAN_POINT('',(16.056073759866,2.192711488161,0.4));
#577 = DIRECTION('',(0.640184399664,-0.768221279597,0.));
#578 = DIRECTION('',(0.,0.,-1.));
#579 = ADVANCED_FACE('',(#580),#599,.F.);
#580 = FACE_BOUND('',#581,.F.);
#581 = EDGE_LOOP('',(#582,#583,#591,#598));
#582 = ORIENTED_EDGE('',*,*,#217,.F.);
#583 = ORIENTED_EDGE('',*,*,#584,.F.);
#584 = EDGE_CURVE('',#585,#210,#587,.T.);
#585 = VERTEX_POINT('',#586);
#586 = CARTESIAN_POINT('',(16.8,3.,0.4));
#587 = LINE('',#588,#589);
#588 = CARTESIAN_POINT('',(16.8,3.,0.4));
#589 = VECTOR('',#590,1.);
#590 = DIRECTION('',(0.,0.,-1.));
#591 = ORIENTED_EDGE('',*,*,#592,.T.);
#592 = EDGE_CURVE('',#585,#560,#593,.T.);
#593 = CIRCLE('',#594,0.4);
#594 = AXIS2_PLACEMENT_3D('',#595,#596,#597);
#595 = CARTESIAN_POINT('',(16.4,3.,0.4));
#596 = DIRECTION('',(0.,0.,-1.));
#597 = DIRECTION('',(1.,0.,0.));
#598 = ORIENTED_EDGE('',*,*,#569,.T.);
#599 = CYLINDRICAL_SURFACE('',#600,0.4);
#600 = AXIS2_PLACEMENT_3D('',#601,#602,#603);
#601 = CARTESIAN_POINT('',(16.4,3.,0.4));
#602 = DIRECTION('',(0.,0.,-1.));
#603 = DIRECTION('',(1.,0.,0.));
#604 = ADVANCED_FACE('',(#605),#623,.F.);
#605 = FACE_BOUND('',#606,.F.);
#606 = EDGE_LOOP('',(#607,#615,#616,#617));
#607 = ORIENTED_EDGE('',*,*,#608,.F.);
#608 = EDGE_CURVE('',#585,#609,#611,.T.);
#609 = VERTEX_POINT('',#610);
#610 = CARTESIAN_POINT('',(16.8,4.,0.4));
#611 = LINE('',#612,#613);
#612 = CARTESIAN_POINT('',(16.8,3.,0.4));
#613 = VECTOR('',#614,1.);
#614 = DIRECTION('',(1.110223024625E-16,1.,0.));
#615 = ORIENTED_EDGE('',*,*,#584,.T.);
#616 = ORIENTED_EDGE('',*,*,#209,.T.);
#617 = ORIENTED_EDGE('',*,*,#618,.F.);
#618 = EDGE_CURVE('',#609,#201,#619,.T.);
#619 = LINE('',#620,#621);
#620 = CARTESIAN_POINT('',(16.8,4.,0.4));
#621 = VECTOR('',#622,1.);
#622 = DIRECTION('',(0.,0.,-1.));
#623 = PLANE('',#624);
#624 = AXIS2_PLACEMENT_3D('',#625,#626,#627);
#625 = CARTESIAN_POINT('',(16.8,3.,0.4));
#626 = DIRECTION('',(1.,-1.110223024625E-16,0.));
#627 = DIRECTION('',(0.,0.,-1.));
#628 = ADVANCED_FACE('',(#629),#648,.F.);
#629 = FACE_BOUND('',#630,.F.);
#630 = EDGE_LOOP('',(#631,#640,#641,#642));
#631 = ORIENTED_EDGE('',*,*,#632,.T.);
#632 = EDGE_CURVE('',#633,#609,#635,.T.);
#633 = VERTEX_POINT('',#634);
#634 = CARTESIAN_POINT('',(16.656073759866,4.307288511839,0.4));
#635 = CIRCLE('',#636,0.4);
#636 = AXIS2_PLACEMENT_3D('',#637,#638,#639);
#637 = CARTESIAN_POINT('',(16.4,4.,0.4));
#638 = DIRECTION('',(0.,0.,-1.));
#639 = DIRECTION('',(1.,0.,0.));
#640 = ORIENTED_EDGE('',*,*,#618,.T.);
#641 = ORIENTED_EDGE('',*,*,#200,.F.);
#642 = ORIENTED_EDGE('',*,*,#643,.F.);
#643 = EDGE_CURVE('',#633,#193,#644,.T.);
#644 = LINE('',#645,#646);
#645 = CARTESIAN_POINT('',(16.656073759866,4.307288511839,0.4));
#646 = VECTOR('',#647,1.);
#647 = DIRECTION('',(0.,0.,-1.));
#648 = CYLINDRICAL_SURFACE('',#649,0.4);
#649 = AXIS2_PLACEMENT_3D('',#650,#651,#652);
#650 = CARTESIAN_POINT('',(16.4,4.,0.4));
#651 = DIRECTION('',(0.,0.,-1.));
#652 = DIRECTION('',(1.,0.,0.));
#653 = ADVANCED_FACE('',(#654),#672,.F.);
#654 = FACE_BOUND('',#655,.F.);
#655 = EDGE_LOOP('',(#656,#664,#665,#666));
#656 = ORIENTED_EDGE('',*,*,#657,.F.);
#657 = EDGE_CURVE('',#633,#658,#660,.T.);
#658 = VERTEX_POINT('',#659);
#659 = CARTESIAN_POINT('',(16.424819974073,4.5,0.4));
#660 = LINE('',#661,#662);
#661 = CARTESIAN_POINT('',(16.656073759866,4.307288511839,0.4));
#662 = VECTOR('',#663,1.);
#663 = DIRECTION('',(-0.768221279597,0.640184399664,0.));
#664 = ORIENTED_EDGE('',*,*,#643,.T.);
#665 = ORIENTED_EDGE('',*,*,#192,.T.);
#666 = ORIENTED_EDGE('',*,*,#667,.F.);
#667 = EDGE_CURVE('',#658,#185,#668,.T.);
#668 = LINE('',#669,#670);
#669 = CARTESIAN_POINT('',(16.424819974073,4.5,0.4));
#670 = VECTOR('',#671,1.);
#671 = DIRECTION('',(0.,0.,-1.));
#672 = PLANE('',#673);
#673 = AXIS2_PLACEMENT_3D('',#674,#675,#676);
#674 = CARTESIAN_POINT('',(16.656073759866,4.307288511839,0.4));
#675 = DIRECTION('',(0.640184399664,0.768221279597,0.));
#676 = DIRECTION('',(0.,0.,-1.));
#677 = ADVANCED_FACE('',(#678),#696,.F.);
#678 = FACE_BOUND('',#679,.F.);
#679 = EDGE_LOOP('',(#680,#688,#689,#690));
#680 = ORIENTED_EDGE('',*,*,#681,.F.);
#681 = EDGE_CURVE('',#658,#682,#684,.T.);
#682 = VERTEX_POINT('',#683);
#683 = CARTESIAN_POINT('',(16.656073759866,4.692711488161,0.4));
#684 = LINE('',#685,#686);
#685 = CARTESIAN_POINT('',(16.056073759866,4.192711488161,0.4));
#686 = VECTOR('',#687,1.);
#687 = DIRECTION('',(0.768221279597,0.640184399664,0.));
#688 = ORIENTED_EDGE('',*,*,#667,.T.);
#689 = ORIENTED_EDGE('',*,*,#184,.T.);
#690 = ORIENTED_EDGE('',*,*,#691,.F.);
#691 = EDGE_CURVE('',#682,#176,#692,.T.);
#692 = LINE('',#693,#694);
#693 = CARTESIAN_POINT('',(16.656073759866,4.692711488161,0.4));
#694 = VECTOR('',#695,1.);
#695 = DIRECTION('',(0.,0.,-1.));
#696 = PLANE('',#697);
#697 = AXIS2_PLACEMENT_3D('',#698,#699,#700);
#698 = CARTESIAN_POINT('',(16.056073759866,4.192711488161,0.4));
#699 = DIRECTION('',(0.640184399664,-0.768221279597,0.));
#700 = DIRECTION('',(0.,0.,-1.));
#701 = ADVANCED_FACE('',(#702),#721,.F.);
#702 = FACE_BOUND('',#703,.F.);
#703 = EDGE_LOOP('',(#704,#705,#713,#720));
#704 = ORIENTED_EDGE('',*,*,#175,.F.);
#705 = ORIENTED_EDGE('',*,*,#706,.F.);
#706 = EDGE_CURVE('',#707,#168,#709,.T.);
#707 = VERTEX_POINT('',#708);
#708 = CARTESIAN_POINT('',(16.8,5.,0.4));
#709 = LINE('',#710,#711);
#710 = CARTESIAN_POINT('',(16.8,5.,0.4));
#711 = VECTOR('',#712,1.);
#712 = DIRECTION('',(0.,0.,-1.));
#713 = ORIENTED_EDGE('',*,*,#714,.T.);
#714 = EDGE_CURVE('',#707,#682,#715,.T.);
#715 = CIRCLE('',#716,0.4);
#716 = AXIS2_PLACEMENT_3D('',#717,#718,#719);
#717 = CARTESIAN_POINT('',(16.4,5.,0.4));
#718 = DIRECTION('',(0.,0.,-1.));
#719 = DIRECTION('',(1.,0.,0.));
#720 = ORIENTED_EDGE('',*,*,#691,.T.);
#721 = CYLINDRICAL_SURFACE('',#722,0.4);
#722 = AXIS2_PLACEMENT_3D('',#723,#724,#725);
#723 = CARTESIAN_POINT('',(16.4,5.,0.4));
#724 = DIRECTION('',(0.,0.,-1.));
#725 = DIRECTION('',(1.,0.,0.));
#726 = ADVANCED_FACE('',(#727),#745,.F.);
#727 = FACE_BOUND('',#728,.F.);
#728 = EDGE_LOOP('',(#729,#737,#738,#739));
#729 = ORIENTED_EDGE('',*,*,#730,.F.);
#730 = EDGE_CURVE('',#707,#731,#733,.T.);
#731 = VERTEX_POINT('',#732);
#732 = CARTESIAN_POINT('',(16.8,6.,0.4));
#733 = LINE('',#734,#735);
#734 = CARTESIAN_POINT('',(16.8,5.,0.4));
#735 = VECTOR('',#736,1.);
#736 = DIRECTION('',(1.110223024625E-16,1.,0.));
#737 = ORIENTED_EDGE('',*,*,#706,.T.);
#738 = ORIENTED_EDGE('',*,*,#167,.T.);
#739 = ORIENTED_EDGE('',*,*,#740,.F.);
#740 = EDGE_CURVE('',#731,#159,#741,.T.);
#741 = LINE('',#742,#743);
#742 = CARTESIAN_POINT('',(16.8,6.,0.4));
#743 = VECTOR('',#744,1.);
#744 = DIRECTION('',(0.,0.,-1.));
#745 = PLANE('',#746);
#746 = AXIS2_PLACEMENT_3D('',#747,#748,#749);
#747 = CARTESIAN_POINT('',(16.8,5.,0.4));
#748 = DIRECTION('',(1.,-1.110223024625E-16,0.));
#749 = DIRECTION('',(0.,0.,-1.));
#750 = ADVANCED_FACE('',(#751),#770,.F.);
#751 = FACE_BOUND('',#752,.F.);
#752 = EDGE_LOOP('',(#753,#762,#763,#764));
#753 = ORIENTED_EDGE('',*,*,#754,.T.);
#754 = EDGE_CURVE('',#755,#731,#757,.T.);
#755 = VERTEX_POINT('',#756);
#756 = CARTESIAN_POINT('',(16.656073759866,6.307288511839,0.4));
#757 = CIRCLE('',#758,0.4);
#758 = AXIS2_PLACEMENT_3D('',#759,#760,#761);
#759 = CARTESIAN_POINT('',(16.4,6.,0.4));
#760 = DIRECTION('',(0.,0.,-1.));
#761 = DIRECTION('',(1.,0.,0.));
#762 = ORIENTED_EDGE('',*,*,#740,.T.);
#763 = ORIENTED_EDGE('',*,*,#158,.F.);
#764 = ORIENTED_EDGE('',*,*,#765,.F.);
#765 = EDGE_CURVE('',#755,#151,#766,.T.);
#766 = LINE('',#767,#768);
#767 = CARTESIAN_POINT('',(16.656073759866,6.307288511839,0.4));
#768 = VECTOR('',#769,1.);
#769 = DIRECTION('',(0.,0.,-1.));
#770 = CYLINDRICAL_SURFACE('',#771,0.4);
#771 = AXIS2_PLACEMENT_3D('',#772,#773,#774);
#772 = CARTESIAN_POINT('',(16.4,6.,0.4));
#773 = DIRECTION('',(0.,0.,-1.));
#774 = DIRECTION('',(1.,0.,0.));
#775 = ADVANCED_FACE('',(#776),#794,.F.);
#776 = FACE_BOUND('',#777,.F.);
#777 = EDGE_LOOP('',(#778,#786,#787,#788));
#778 = ORIENTED_EDGE('',*,*,#779,.F.);
#779 = EDGE_CURVE('',#755,#780,#782,.T.);
#780 = VERTEX_POINT('',#781);
#781 = CARTESIAN_POINT('',(16.056073759866,6.807288511839,0.4));
#782 = LINE('',#783,#784);
#783 = CARTESIAN_POINT('',(16.656073759866,6.307288511839,0.4));
#784 = VECTOR('',#785,1.);
#785 = DIRECTION('',(-0.768221279597,0.640184399664,0.));
#786 = ORIENTED_EDGE('',*,*,#765,.T.);
#787 = ORIENTED_EDGE('',*,*,#150,.T.);
#788 = ORIENTED_EDGE('',*,*,#789,.F.);
#789 = EDGE_CURVE('',#780,#142,#790,.T.);
#790 = LINE('',#791,#792);
#791 = CARTESIAN_POINT('',(16.056073759866,6.807288511839,0.4));
#792 = VECTOR('',#793,1.);
#793 = DIRECTION('',(0.,0.,-1.));
#794 = PLANE('',#795);
#795 = AXIS2_PLACEMENT_3D('',#796,#797,#798);
#796 = CARTESIAN_POINT('',(16.656073759866,6.307288511839,0.4));
#797 = DIRECTION('',(0.640184399664,0.768221279597,0.));
#798 = DIRECTION('',(0.,0.,-1.));
#799 = ADVANCED_FACE('',(#800),#819,.F.);
#800 = FACE_BOUND('',#801,.F.);
#801 = EDGE_LOOP('',(#802,#803,#811,#818));
#802 = ORIENTED_EDGE('',*,*,#141,.F.);
#803 = ORIENTED_EDGE('',*,*,#804,.F.);
#804 = EDGE_CURVE('',#805,#134,#807,.T.);
#805 = VERTEX_POINT('',#806);
#806 = CARTESIAN_POINT('',(15.8,6.9,0.4));
#807 = LINE('',#808,#809);
#808 = CARTESIAN_POINT('',(15.8,6.9,0.4));
#809 = VECTOR('',#810,1.);
#810 = DIRECTION('',(0.,0.,-1.));
#811 = ORIENTED_EDGE('',*,*,#812,.T.);
#812 = EDGE_CURVE('',#805,#780,#813,.T.);
#813 = CIRCLE('',#814,0.4);
#814 = AXIS2_PLACEMENT_3D('',#815,#816,#817);
#815 = CARTESIAN_POINT('',(15.8,6.5,0.4));
#816 = DIRECTION('',(0.,0.,-1.));
#817 = DIRECTION('',(1.,0.,0.));
#818 = ORIENTED_EDGE('',*,*,#789,.T.);
#819 = CYLINDRICAL_SURFACE('',#820,0.4);
#820 = AXIS2_PLACEMENT_3D('',#821,#822,#823);
#821 = CARTESIAN_POINT('',(15.8,6.5,0.4));
#822 = DIRECTION('',(0.,0.,-1.));
#823 = DIRECTION('',(1.,0.,0.));
#824 = ADVANCED_FACE('',(#825),#843,.F.);
#825 = FACE_BOUND('',#826,.F.);
#826 = EDGE_LOOP('',(#827,#835,#836,#837));
#827 = ORIENTED_EDGE('',*,*,#828,.F.);
#828 = EDGE_CURVE('',#805,#829,#831,.T.);
#829 = VERTEX_POINT('',#830);
#830 = CARTESIAN_POINT('',(14.,6.9,0.4));
#831 = LINE('',#832,#833);
#832 = CARTESIAN_POINT('',(15.8,6.9,0.4));
#833 = VECTOR('',#834,1.);
#834 = DIRECTION('',(-1.,-1.224646799147E-16,0.));
#835 = ORIENTED_EDGE('',*,*,#804,.T.);
#836 = ORIENTED_EDGE('',*,*,#133,.T.);
#837 = ORIENTED_EDGE('',*,*,#838,.F.);
#838 = EDGE_CURVE('',#829,#125,#839,.T.);
#839 = LINE('',#840,#841);
#840 = CARTESIAN_POINT('',(14.,6.9,0.4));
#841 = VECTOR('',#842,1.);
#842 = DIRECTION('',(0.,0.,-1.));
#843 = PLANE('',#844);
#844 = AXIS2_PLACEMENT_3D('',#845,#846,#847);
#845 = CARTESIAN_POINT('',(15.8,6.9,0.4));
#846 = DIRECTION('',(-1.224646799147E-16,1.,-0.));
#847 = DIRECTION('',(0.,0.,-1.));
#848 = ADVANCED_FACE('',(#849),#868,.F.);
#849 = FACE_BOUND('',#850,.F.);
#850 = EDGE_LOOP('',(#851,#860,#861,#862));
#851 = ORIENTED_EDGE('',*,*,#852,.T.);
#852 = EDGE_CURVE('',#853,#829,#855,.T.);
#853 = VERTEX_POINT('',#854);
#854 = CARTESIAN_POINT('',(13.6,6.5,0.4));
#855 = CIRCLE('',#856,0.4);
#856 = AXIS2_PLACEMENT_3D('',#857,#858,#859);
#857 = CARTESIAN_POINT('',(14.,6.5,0.4));
#858 = DIRECTION('',(0.,0.,-1.));
#859 = DIRECTION('',(1.,0.,0.));
#860 = ORIENTED_EDGE('',*,*,#838,.T.);
#861 = ORIENTED_EDGE('',*,*,#124,.F.);
#862 = ORIENTED_EDGE('',*,*,#863,.F.);
#863 = EDGE_CURVE('',#853,#117,#864,.T.);
#864 = LINE('',#865,#866);
#865 = CARTESIAN_POINT('',(13.6,6.5,0.4));
#866 = VECTOR('',#867,1.);
#867 = DIRECTION('',(0.,0.,-1.));
#868 = CYLINDRICAL_SURFACE('',#869,0.4);
#869 = AXIS2_PLACEMENT_3D('',#870,#871,#872);
#870 = CARTESIAN_POINT('',(14.,6.5,0.4));
#871 = DIRECTION('',(0.,0.,-1.));
#872 = DIRECTION('',(1.,0.,0.));
#873 = ADVANCED_FACE('',(#874),#892,.F.);
#874 = FACE_BOUND('',#875,.F.);
#875 = EDGE_LOOP('',(#876,#884,#885,#886));
#876 = ORIENTED_EDGE('',*,*,#877,.F.);
#877 = EDGE_CURVE('',#853,#878,#880,.T.);
#878 = VERTEX_POINT('',#879);
#879 = CARTESIAN_POINT('',(13.6,2.5,0.4));
#880 = LINE('',#881,#882);
#881 = CARTESIAN_POINT('',(13.6,6.5,0.4));
#882 = VECTOR('',#883,1.);
#883 = DIRECTION('',(1.110223024625E-16,-1.,0.));
#884 = ORIENTED_EDGE('',*,*,#863,.T.);
#885 = ORIENTED_EDGE('',*,*,#116,.T.);
#886 = ORIENTED_EDGE('',*,*,#887,.F.);
#887 = EDGE_CURVE('',#878,#108,#888,.T.);
#888 = LINE('',#889,#890);
#889 = CARTESIAN_POINT('',(13.6,2.5,0.4));
#890 = VECTOR('',#891,1.);
#891 = DIRECTION('',(0.,0.,-1.));
#892 = PLANE('',#893);
#893 = AXIS2_PLACEMENT_3D('',#894,#895,#896);
#894 = CARTESIAN_POINT('',(13.6,6.5,0.4));
#895 = DIRECTION('',(-1.,-1.110223024625E-16,0.));
#896 = DIRECTION('',(0.,0.,-1.));
#897 = ADVANCED_FACE('',(#898),#910,.F.);
#898 = FACE_BOUND('',#899,.F.);
#899 = EDGE_LOOP('',(#900,#901,#902,#909));
#900 = ORIENTED_EDGE('',*,*,#107,.F.);
#901 = ORIENTED_EDGE('',*,*,#513,.F.);
#902 = ORIENTED_EDGE('',*,*,#903,.T.);
#903 = EDGE_CURVE('',#504,#878,#904,.T.);
#904 = CIRCLE('',#905,0.4);
#905 = AXIS2_PLACEMENT_3D('',#906,#907,#908);
#906 = CARTESIAN_POINT('',(14.,2.5,0.4));
#907 = DIRECTION('',(0.,0.,-1.));
#908 = DIRECTION('',(1.,0.,0.));
#909 = ORIENTED_EDGE('',*,*,#887,.T.);
#910 = CYLINDRICAL_SURFACE('',#911,0.4);
#911 = AXIS2_PLACEMENT_3D('',#912,#913,#914);
#912 = CARTESIAN_POINT('',(14.,2.5,0.4));
#913 = DIRECTION('',(0.,0.,-1.));
#914 = DIRECTION('',(1.,0.,0.));
#915 = ADVANCED_FACE('',(#916),#941,.F.);
#916 = FACE_BOUND('',#917,.F.);
#917 = EDGE_LOOP('',(#918,#928,#934,#935));
#918 = ORIENTED_EDGE('',*,*,#919,.F.);
#919 = EDGE_CURVE('',#920,#922,#924,.T.);
#920 = VERTEX_POINT('',#921);
#921 = CARTESIAN_POINT('',(18.2,2.5,0.4));
#922 = VERTEX_POINT('',#923);
#923 = CARTESIAN_POINT('',(18.2,4.1,0.4));
#924 = LINE('',#925,#926);
#925 = CARTESIAN_POINT('',(18.2,2.5,0.4));
#926 = VECTOR('',#927,1.);
#927 = DIRECTION('',(1.110223024625E-16,1.,0.));
#928 = ORIENTED_EDGE('',*,*,#929,.T.);
#929 = EDGE_CURVE('',#920,#244,#930,.T.);
#930 = LINE('',#931,#932);
#931 = CARTESIAN_POINT('',(18.2,2.5,0.4));
#932 = VECTOR('',#933,1.);
#933 = DIRECTION('',(0.,0.,-1.));
#934 = ORIENTED_EDGE('',*,*,#243,.T.);
#935 = ORIENTED_EDGE('',*,*,#936,.F.);
#936 = EDGE_CURVE('',#922,#246,#937,.T.);
#937 = LINE('',#938,#939);
#938 = CARTESIAN_POINT('',(18.2,4.1,0.4));
#939 = VECTOR('',#940,1.);
#940 = DIRECTION('',(0.,0.,-1.));
#941 = PLANE('',#942);
#942 = AXIS2_PLACEMENT_3D('',#943,#944,#945);
#943 = CARTESIAN_POINT('',(18.2,2.5,0.4));
#944 = DIRECTION('',(1.,-1.110223024625E-16,0.));
#945 = DIRECTION('',(0.,0.,-1.));
#946 = ADVANCED_FACE('',(#947),#965,.F.);
#947 = FACE_BOUND('',#948,.F.);
#948 = EDGE_LOOP('',(#949,#957,#958,#959));
#949 = ORIENTED_EDGE('',*,*,#950,.F.);
#950 = EDGE_CURVE('',#922,#951,#953,.T.);
#951 = VERTEX_POINT('',#952);
#952 = CARTESIAN_POINT('',(19.8,4.1,0.4));
#953 = LINE('',#954,#955);
#954 = CARTESIAN_POINT('',(17.8,4.1,0.4));
#955 = VECTOR('',#956,1.);
#956 = DIRECTION('',(1.,0.,0.));
#957 = ORIENTED_EDGE('',*,*,#936,.T.);
#958 = ORIENTED_EDGE('',*,*,#329,.T.);
#959 = ORIENTED_EDGE('',*,*,#960,.T.);
#960 = EDGE_CURVE('',#322,#951,#961,.T.);
#961 = LINE('',#962,#963);
#962 = CARTESIAN_POINT('',(19.8,4.1,0.4));
#963 = VECTOR('',#964,1.);
#964 = DIRECTION('',(0.,0.,1.));
#965 = PLANE('',#966);
#966 = AXIS2_PLACEMENT_3D('',#967,#968,#969);
#967 = CARTESIAN_POINT('',(17.8,4.1,0.4));
#968 = DIRECTION('',(0.,-1.,0.));
#969 = DIRECTION('',(0.,0.,-1.));
#970 = ADVANCED_FACE('',(#971),#989,.T.);
#971 = FACE_BOUND('',#972,.T.);
#972 = EDGE_LOOP('',(#973,#981,#987,#988));
#973 = ORIENTED_EDGE('',*,*,#974,.F.);
#974 = EDGE_CURVE('',#975,#951,#977,.T.);
#975 = VERTEX_POINT('',#976);
#976 = CARTESIAN_POINT('',(19.8,2.5,0.4));
#977 = LINE('',#978,#979);
#978 = CARTESIAN_POINT('',(19.8,2.5,0.4));
#979 = VECTOR('',#980,1.);
#980 = DIRECTION('',(1.110223024625E-16,1.,0.));
#981 = ORIENTED_EDGE('',*,*,#982,.T.);
#982 = EDGE_CURVE('',#975,#313,#983,.T.);
#983 = LINE('',#984,#985);
#984 = CARTESIAN_POINT('',(19.8,2.5,0.4));
#985 = VECTOR('',#986,1.);
#986 = DIRECTION('',(0.,0.,-1.));
#987 = ORIENTED_EDGE('',*,*,#321,.T.);
#988 = ORIENTED_EDGE('',*,*,#960,.T.);
#989 = PLANE('',#990);
#990 = AXIS2_PLACEMENT_3D('',#991,#992,#993);
#991 = CARTESIAN_POINT('',(19.8,2.5,0.4));
#992 = DIRECTION('',(1.,-1.110223024625E-16,0.));
#993 = DIRECTION('',(0.,0.,-1.));
#994 = ADVANCED_FACE('',(#995),#1014,.F.);
#995 = FACE_BOUND('',#996,.F.);
#996 = EDGE_LOOP('',(#997,#998,#1006,#1013));
#997 = ORIENTED_EDGE('',*,*,#312,.F.);
#998 = ORIENTED_EDGE('',*,*,#999,.F.);
#999 = EDGE_CURVE('',#1000,#305,#1002,.T.);
#1000 = VERTEX_POINT('',#1001);
#1001 = CARTESIAN_POINT('',(20.6,2.5,0.4));
#1002 = LINE('',#1003,#1004);
#1003 = CARTESIAN_POINT('',(20.6,2.5,0.4));
#1004 = VECTOR('',#1005,1.);
#1005 = DIRECTION('',(0.,0.,-1.));
#1006 = ORIENTED_EDGE('',*,*,#1007,.T.);
#1007 = EDGE_CURVE('',#1000,#975,#1008,.T.);
#1008 = CIRCLE('',#1009,0.4);
#1009 = AXIS2_PLACEMENT_3D('',#1010,#1011,#1012);
#1010 = CARTESIAN_POINT('',(20.2,2.5,0.4));
#1011 = DIRECTION('',(0.,0.,-1.));
#1012 = DIRECTION('',(1.,0.,0.));
#1013 = ORIENTED_EDGE('',*,*,#982,.T.);
#1014 = CYLINDRICAL_SURFACE('',#1015,0.4);
#1015 = AXIS2_PLACEMENT_3D('',#1016,#1017,#1018);
#1016 = CARTESIAN_POINT('',(20.2,2.5,0.4));
#1017 = DIRECTION('',(0.,0.,-1.));
#1018 = DIRECTION('',(1.,0.,0.));
#1019 = ADVANCED_FACE('',(#1020),#1038,.F.);
#1020 = FACE_BOUND('',#1021,.F.);
#1021 = EDGE_LOOP('',(#1022,#1030,#1031,#1032));
#1022 = ORIENTED_EDGE('',*,*,#1023,.F.);
#1023 = EDGE_CURVE('',#1000,#1024,#1026,.T.);
#1024 = VERTEX_POINT('',#1025);
#1025 = CARTESIAN_POINT('',(20.6,6.5,0.4));
#1026 = LINE('',#1027,#1028);
#1027 = CARTESIAN_POINT('',(20.6,2.5,0.4));
#1028 = VECTOR('',#1029,1.);
#1029 = DIRECTION('',(1.110223024625E-16,1.,0.));
#1030 = ORIENTED_EDGE('',*,*,#999,.T.);
#1031 = ORIENTED_EDGE('',*,*,#304,.T.);
#1032 = ORIENTED_EDGE('',*,*,#1033,.F.);
#1033 = EDGE_CURVE('',#1024,#296,#1034,.T.);
#1034 = LINE('',#1035,#1036);
#1035 = CARTESIAN_POINT('',(20.6,6.5,0.4));
#1036 = VECTOR('',#1037,1.);
#1037 = DIRECTION('',(0.,0.,-1.));
#1038 = PLANE('',#1039);
#1039 = AXIS2_PLACEMENT_3D('',#1040,#1041,#1042);
#1040 = CARTESIAN_POINT('',(20.6,2.5,0.4));
#1041 = DIRECTION('',(1.,-1.110223024625E-16,0.));
#1042 = DIRECTION('',(0.,0.,-1.));
#1043 = ADVANCED_FACE('',(#1044),#1063,.F.);
#1044 = FACE_BOUND('',#1045,.F.);
#1045 = EDGE_LOOP('',(#1046,#1055,#1056,#1057));
#1046 = ORIENTED_EDGE('',*,*,#1047,.T.);
#1047 = EDGE_CURVE('',#1048,#1024,#1050,.T.);
#1048 = VERTEX_POINT('',#1049);
#1049 = CARTESIAN_POINT('',(19.8,6.5,0.4));
#1050 = CIRCLE('',#1051,0.4);
#1051 = AXIS2_PLACEMENT_3D('',#1052,#1053,#1054);
#1052 = CARTESIAN_POINT('',(20.2,6.5,0.4));
#1053 = DIRECTION('',(0.,0.,-1.));
#1054 = DIRECTION('',(1.,0.,0.));
#1055 = ORIENTED_EDGE('',*,*,#1033,.T.);
#1056 = ORIENTED_EDGE('',*,*,#295,.F.);
#1057 = ORIENTED_EDGE('',*,*,#1058,.F.);
#1058 = EDGE_CURVE('',#1048,#288,#1059,.T.);
#1059 = LINE('',#1060,#1061);
#1060 = CARTESIAN_POINT('',(19.8,6.5,0.4));
#1061 = VECTOR('',#1062,1.);
#1062 = DIRECTION('',(0.,0.,-1.));
#1063 = CYLINDRICAL_SURFACE('',#1064,0.4);
#1064 = AXIS2_PLACEMENT_3D('',#1065,#1066,#1067);
#1065 = CARTESIAN_POINT('',(20.2,6.5,0.4));
#1066 = DIRECTION('',(0.,0.,-1.));
#1067 = DIRECTION('',(1.,0.,0.));
#1068 = ADVANCED_FACE('',(#1069),#1087,.T.);
#1069 = FACE_BOUND('',#1070,.T.);
#1070 = EDGE_LOOP('',(#1071,#1079,#1085,#1086));
#1071 = ORIENTED_EDGE('',*,*,#1072,.F.);
#1072 = EDGE_CURVE('',#1073,#1048,#1075,.T.);
#1073 = VERTEX_POINT('',#1074);
#1074 = CARTESIAN_POINT('',(19.8,4.9,0.4));
#1075 = LINE('',#1076,#1077);
#1076 = CARTESIAN_POINT('',(19.8,2.5,0.4));
#1077 = VECTOR('',#1078,1.);
#1078 = DIRECTION('',(1.110223024625E-16,1.,0.));
#1079 = ORIENTED_EDGE('',*,*,#1080,.F.);
#1080 = EDGE_CURVE('',#280,#1073,#1081,.T.);
#1081 = LINE('',#1082,#1083);
#1082 = CARTESIAN_POINT('',(19.8,4.9,0.4));
#1083 = VECTOR('',#1084,1.);
#1084 = DIRECTION('',(0.,0.,1.));
#1085 = ORIENTED_EDGE('',*,*,#287,.T.);
#1086 = ORIENTED_EDGE('',*,*,#1058,.F.);
#1087 = PLANE('',#1088);
#1088 = AXIS2_PLACEMENT_3D('',#1089,#1090,#1091);
#1089 = CARTESIAN_POINT('',(19.8,2.5,0.4));
#1090 = DIRECTION('',(1.,-1.110223024625E-16,0.));
#1091 = DIRECTION('',(0.,0.,-1.));
#1092 = ADVANCED_FACE('',(#1093),#1111,.T.);
#1093 = FACE_BOUND('',#1094,.T.);
#1094 = EDGE_LOOP('',(#1095,#1103,#1109,#1110));
#1095 = ORIENTED_EDGE('',*,*,#1096,.F.);
#1096 = EDGE_CURVE('',#1097,#1073,#1099,.T.);
#1097 = VERTEX_POINT('',#1098);
#1098 = CARTESIAN_POINT('',(17.8,4.9,0.4));
#1099 = LINE('',#1100,#1101);
#1100 = CARTESIAN_POINT('',(17.8,4.9,0.4));
#1101 = VECTOR('',#1102,1.);
#1102 = DIRECTION('',(1.,0.,0.));
#1103 = ORIENTED_EDGE('',*,*,#1104,.T.);
#1104 = EDGE_CURVE('',#1097,#271,#1105,.T.);
#1105 = LINE('',#1106,#1107);
#1106 = CARTESIAN_POINT('',(17.8,4.9,0.4));
#1107 = VECTOR('',#1108,1.);
#1108 = DIRECTION('',(0.,0.,-1.));
#1109 = ORIENTED_EDGE('',*,*,#279,.T.);
#1110 = ORIENTED_EDGE('',*,*,#1080,.T.);
#1111 = PLANE('',#1112);
#1112 = AXIS2_PLACEMENT_3D('',#1113,#1114,#1115);
#1113 = CARTESIAN_POINT('',(17.8,4.9,0.4));
#1114 = DIRECTION('',(0.,-1.,0.));
#1115 = DIRECTION('',(0.,0.,-1.));
#1116 = ADVANCED_FACE('',(#1117),#1136,.F.);
#1117 = FACE_BOUND('',#1118,.F.);
#1118 = EDGE_LOOP('',(#1119,#1128,#1129,#1130));
#1119 = ORIENTED_EDGE('',*,*,#1120,.T.);
#1120 = EDGE_CURVE('',#1121,#1097,#1123,.T.);
#1121 = VERTEX_POINT('',#1122);
#1122 = CARTESIAN_POINT('',(17.4,4.5,0.4));
#1123 = CIRCLE('',#1124,0.4);
#1124 = AXIS2_PLACEMENT_3D('',#1125,#1126,#1127);
#1125 = CARTESIAN_POINT('',(17.8,4.5,0.4));
#1126 = DIRECTION('',(0.,0.,-1.));
#1127 = DIRECTION('',(1.,0.,0.));
#1128 = ORIENTED_EDGE('',*,*,#1104,.T.);
#1129 = ORIENTED_EDGE('',*,*,#270,.F.);
#1130 = ORIENTED_EDGE('',*,*,#1131,.F.);
#1131 = EDGE_CURVE('',#1121,#263,#1132,.T.);
#1132 = LINE('',#1133,#1134);
#1133 = CARTESIAN_POINT('',(17.4,4.5,0.4));
#1134 = VECTOR('',#1135,1.);
#1135 = DIRECTION('',(0.,0.,-1.));
#1136 = CYLINDRICAL_SURFACE('',#1137,0.4);
#1137 = AXIS2_PLACEMENT_3D('',#1138,#1139,#1140);
#1138 = CARTESIAN_POINT('',(17.8,4.5,0.4));
#1139 = DIRECTION('',(0.,0.,-1.));
#1140 = DIRECTION('',(1.,0.,0.));
#1141 = ADVANCED_FACE('',(#1142),#1160,.T.);
#1142 = FACE_BOUND('',#1143,.T.);
#1143 = EDGE_LOOP('',(#1144,#1152,#1158,#1159));
#1144 = ORIENTED_EDGE('',*,*,#1145,.F.);
#1145 = EDGE_CURVE('',#1146,#1121,#1148,.T.);
#1146 = VERTEX_POINT('',#1147);
#1147 = CARTESIAN_POINT('',(17.4,2.5,0.4));
#1148 = LINE('',#1149,#1150);
#1149 = CARTESIAN_POINT('',(17.4,2.5,0.4));
#1150 = VECTOR('',#1151,1.);
#1151 = DIRECTION('',(1.110223024625E-16,1.,0.));
#1152 = ORIENTED_EDGE('',*,*,#1153,.T.);
#1153 = EDGE_CURVE('',#1146,#254,#1154,.T.);
#1154 = LINE('',#1155,#1156);
#1155 = CARTESIAN_POINT('',(17.4,2.5,0.4));
#1156 = VECTOR('',#1157,1.);
#1157 = DIRECTION('',(0.,0.,-1.));
#1158 = ORIENTED_EDGE('',*,*,#262,.T.);
#1159 = ORIENTED_EDGE('',*,*,#1131,.F.);
#1160 = PLANE('',#1161);
#1161 = AXIS2_PLACEMENT_3D('',#1162,#1163,#1164);
#1162 = CARTESIAN_POINT('',(17.4,2.5,0.4));
#1163 = DIRECTION('',(1.,-1.110223024625E-16,0.));
#1164 = DIRECTION('',(0.,0.,-1.));
#1165 = ADVANCED_FACE('',(#1166),#1178,.F.);
#1166 = FACE_BOUND('',#1167,.F.);
#1167 = EDGE_LOOP('',(#1168,#1169,#1170,#1177));
#1168 = ORIENTED_EDGE('',*,*,#253,.F.);
#1169 = ORIENTED_EDGE('',*,*,#929,.F.);
#1170 = ORIENTED_EDGE('',*,*,#1171,.T.);
#1171 = EDGE_CURVE('',#920,#1146,#1172,.T.);
#1172 = CIRCLE('',#1173,0.4);
#1173 = AXIS2_PLACEMENT_3D('',#1174,#1175,#1176);
#1174 = CARTESIAN_POINT('',(17.8,2.5,0.4));
#1175 = DIRECTION('',(0.,0.,-1.));
#1176 = DIRECTION('',(1.,0.,0.));
#1177 = ORIENTED_EDGE('',*,*,#1153,.T.);
#1178 = CYLINDRICAL_SURFACE('',#1179,0.4);
#1179 = AXIS2_PLACEMENT_3D('',#1180,#1181,#1182);
#1180 = CARTESIAN_POINT('',(17.8,2.5,0.4));
#1181 = DIRECTION('',(0.,0.,-1.));
#1182 = DIRECTION('',(1.,0.,0.));
#1183 = ADVANCED_FACE('',(#1184),#1202,.F.);
#1184 = FACE_BOUND('',#1185,.F.);
#1185 = EDGE_LOOP('',(#1186,#1194,#1195,#1196));
#1186 = ORIENTED_EDGE('',*,*,#1187,.F.);
#1187 = EDGE_CURVE('',#402,#1188,#1190,.T.);
#1188 = VERTEX_POINT('',#1189);
#1189 = CARTESIAN_POINT('',(23.5,3.7,9.));
#1190 = LINE('',#1191,#1192);
#1191 = CARTESIAN_POINT('',(23.5,3.7,3.));
#1192 = VECTOR('',#1193,1.);
#1193 = DIRECTION('',(0.,2.22044604925E-16,1.));
#1194 = ORIENTED_EDGE('',*,*,#409,.T.);
#1195 = ORIENTED_EDGE('',*,*,#454,.T.);
#1196 = ORIENTED_EDGE('',*,*,#1197,.F.);
#1197 = EDGE_CURVE('',#1188,#455,#1198,.T.);
#1198 = LINE('',#1199,#1200);
#1199 = CARTESIAN_POINT('',(23.5,3.7,9.));
#1200 = VECTOR('',#1201,1.);
#1201 = DIRECTION('',(1.,0.,0.));
#1202 = PLANE('',#1203);
#1203 = AXIS2_PLACEMENT_3D('',#1204,#1205,#1206);
#1204 = CARTESIAN_POINT('',(23.5,3.7,3.));
#1205 = DIRECTION('',(0.,-1.,2.22044604925E-16));
#1206 = DIRECTION('',(1.,0.,0.));
#1207 = ADVANCED_FACE('',(#1208),#1226,.F.);
#1208 = FACE_BOUND('',#1209,.F.);
#1209 = EDGE_LOOP('',(#1210,#1211,#1212,#1220));
#1210 = ORIENTED_EDGE('',*,*,#401,.F.);
#1211 = ORIENTED_EDGE('',*,*,#1187,.T.);
#1212 = ORIENTED_EDGE('',*,*,#1213,.T.);
#1213 = EDGE_CURVE('',#1188,#1214,#1216,.T.);
#1214 = VERTEX_POINT('',#1215);
#1215 = CARTESIAN_POINT('',(23.5,0.7,9.));
#1216 = LINE('',#1217,#1218);
#1217 = CARTESIAN_POINT('',(23.5,3.7,9.));
#1218 = VECTOR('',#1219,1.);
#1219 = DIRECTION('',(0.,-1.,2.22044604925E-16));
#1220 = ORIENTED_EDGE('',*,*,#1221,.F.);
#1221 = EDGE_CURVE('',#394,#1214,#1222,.T.);
#1222 = LINE('',#1223,#1224);
#1223 = CARTESIAN_POINT('',(23.5,0.7,3.));
#1224 = VECTOR('',#1225,1.);
#1225 = DIRECTION('',(0.,2.22044604925E-16,1.));
#1226 = PLANE('',#1227);
#1227 = AXIS2_PLACEMENT_3D('',#1228,#1229,#1230);
#1228 = CARTESIAN_POINT('',(23.5,3.7,3.));
#1229 = DIRECTION('',(1.,0.,0.));
#1230 = DIRECTION('',(0.,-1.,2.22044604925E-16));
#1231 = ADVANCED_FACE('',(#1232),#1243,.T.);
#1232 = FACE_BOUND('',#1233,.T.);
#1233 = EDGE_LOOP('',(#1234,#1235,#1236,#1237));
#1234 = ORIENTED_EDGE('',*,*,#1221,.F.);
#1235 = ORIENTED_EDGE('',*,*,#393,.T.);
#1236 = ORIENTED_EDGE('',*,*,#470,.T.);
#1237 = ORIENTED_EDGE('',*,*,#1238,.F.);
#1238 = EDGE_CURVE('',#1214,#463,#1239,.T.);
#1239 = LINE('',#1240,#1241);
#1240 = CARTESIAN_POINT('',(23.5,0.7,9.));
#1241 = VECTOR('',#1242,1.);
#1242 = DIRECTION('',(1.,0.,0.));
#1243 = PLANE('',#1244);
#1244 = AXIS2_PLACEMENT_3D('',#1245,#1246,#1247);
#1245 = CARTESIAN_POINT('',(23.5,0.7,3.));
#1246 = DIRECTION('',(0.,-1.,2.22044604925E-16));
#1247 = DIRECTION('',(1.,0.,0.));
#1248 = ADVANCED_FACE('',(#1249),#1255,.T.);
#1249 = FACE_BOUND('',#1250,.T.);
#1250 = EDGE_LOOP('',(#1251,#1252,#1253,#1254));
#1251 = ORIENTED_EDGE('',*,*,#1197,.F.);
#1252 = ORIENTED_EDGE('',*,*,#1213,.T.);
#1253 = ORIENTED_EDGE('',*,*,#1238,.T.);
#1254 = ORIENTED_EDGE('',*,*,#462,.F.);
#1255 = PLANE('',#1256);
#1256 = AXIS2_PLACEMENT_3D('',#1257,#1258,#1259);
#1257 = CARTESIAN_POINT('',(23.5,3.7,9.));
#1258 = DIRECTION('',(0.,2.22044604925E-16,1.));
#1259 = DIRECTION('',(0.,-1.,2.22044604925E-16));
#1260 = ADVANCED_FACE('',(#1261,#1280,#1330),#1380,.F.);
#1261 = FACE_BOUND('',#1262,.F.);
#1262 = EDGE_LOOP('',(#1263,#1264,#1265,#1266,#1267,#1268,#1269,#1270,
    #1271,#1272,#1273,#1274,#1275,#1276,#1277,#1278,#1279));
#1263 = ORIENTED_EDGE('',*,*,#828,.T.);
#1264 = ORIENTED_EDGE('',*,*,#852,.F.);
#1265 = ORIENTED_EDGE('',*,*,#877,.T.);
#1266 = ORIENTED_EDGE('',*,*,#903,.F.);
#1267 = ORIENTED_EDGE('',*,*,#503,.T.);
#1268 = ORIENTED_EDGE('',*,*,#543,.F.);
#1269 = ORIENTED_EDGE('',*,*,#559,.T.);
#1270 = ORIENTED_EDGE('',*,*,#592,.F.);
#1271 = ORIENTED_EDGE('',*,*,#608,.T.);
#1272 = ORIENTED_EDGE('',*,*,#632,.F.);
#1273 = ORIENTED_EDGE('',*,*,#657,.T.);
#1274 = ORIENTED_EDGE('',*,*,#681,.T.);
#1275 = ORIENTED_EDGE('',*,*,#714,.F.);
#1276 = ORIENTED_EDGE('',*,*,#730,.T.);
#1277 = ORIENTED_EDGE('',*,*,#754,.F.);
#1278 = ORIENTED_EDGE('',*,*,#779,.T.);
#1279 = ORIENTED_EDGE('',*,*,#812,.F.);
#1280 = FACE_BOUND('',#1281,.F.);
#1281 = EDGE_LOOP('',(#1282,#1292,#1300,#1308,#1316,#1324));
#1282 = ORIENTED_EDGE('',*,*,#1283,.F.);
#1283 = EDGE_CURVE('',#1284,#1286,#1288,.T.);
#1284 = VERTEX_POINT('',#1285);
#1285 = CARTESIAN_POINT('',(15.655180025927,6.1,0.4));
#1286 = VERTEX_POINT('',#1287);
#1287 = CARTESIAN_POINT('',(14.4,6.1,0.4));
#1288 = LINE('',#1289,#1290);
#1289 = CARTESIAN_POINT('',(15.8,6.1,0.4));
#1290 = VECTOR('',#1291,1.);
#1291 = DIRECTION('',(-1.,-1.224646799147E-16,0.));
#1292 = ORIENTED_EDGE('',*,*,#1293,.F.);
#1293 = EDGE_CURVE('',#1294,#1284,#1296,.T.);
#1294 = VERTEX_POINT('',#1295);
#1295 = CARTESIAN_POINT('',(16.,5.812650021606,0.4));
#1296 = LINE('',#1297,#1298);
#1297 = CARTESIAN_POINT('',(16.143926240134,5.692711488161,0.4));
#1298 = VECTOR('',#1299,1.);
#1299 = DIRECTION('',(-0.768221279597,0.640184399664,0.));
#1300 = ORIENTED_EDGE('',*,*,#1301,.F.);
#1301 = EDGE_CURVE('',#1302,#1294,#1304,.T.);
#1302 = VERTEX_POINT('',#1303);
#1303 = CARTESIAN_POINT('',(16.,5.187349978394,0.4));
#1304 = LINE('',#1305,#1306);
#1305 = CARTESIAN_POINT('',(16.,5.,0.4));
#1306 = VECTOR('',#1307,1.);
#1307 = DIRECTION('',(1.110223024625E-16,1.,0.));
#1308 = ORIENTED_EDGE('',*,*,#1309,.F.);
#1309 = EDGE_CURVE('',#1310,#1302,#1312,.T.);
#1310 = VERTEX_POINT('',#1311);
#1311 = CARTESIAN_POINT('',(15.655180025927,4.9,0.4));
#1312 = LINE('',#1313,#1314);
#1313 = CARTESIAN_POINT('',(15.543926240134,4.807288511839,0.4));
#1314 = VECTOR('',#1315,1.);
#1315 = DIRECTION('',(0.768221279597,0.640184399664,0.));
#1316 = ORIENTED_EDGE('',*,*,#1317,.T.);
#1317 = EDGE_CURVE('',#1310,#1318,#1320,.T.);
#1318 = VERTEX_POINT('',#1319);
#1319 = CARTESIAN_POINT('',(14.4,4.9,0.4));
#1320 = LINE('',#1321,#1322);
#1321 = CARTESIAN_POINT('',(15.8,4.9,0.4));
#1322 = VECTOR('',#1323,1.);
#1323 = DIRECTION('',(-1.,-1.224646799147E-16,0.));
#1324 = ORIENTED_EDGE('',*,*,#1325,.F.);
#1325 = EDGE_CURVE('',#1286,#1318,#1326,.T.);
#1326 = LINE('',#1327,#1328);
#1327 = CARTESIAN_POINT('',(14.4,6.5,0.4));
#1328 = VECTOR('',#1329,1.);
#1329 = DIRECTION('',(1.110223024625E-16,-1.,0.));
#1330 = FACE_BOUND('',#1331,.F.);
#1331 = EDGE_LOOP('',(#1332,#1342,#1350,#1358,#1366,#1374));
#1332 = ORIENTED_EDGE('',*,*,#1333,.F.);
#1333 = EDGE_CURVE('',#1334,#1336,#1338,.T.);
#1334 = VERTEX_POINT('',#1335);
#1335 = CARTESIAN_POINT('',(15.655180025927,4.1,0.4));
#1336 = VERTEX_POINT('',#1337);
#1337 = CARTESIAN_POINT('',(14.4,4.1,0.4));
#1338 = LINE('',#1339,#1340);
#1339 = CARTESIAN_POINT('',(15.8,4.1,0.4));
#1340 = VECTOR('',#1341,1.);
#1341 = DIRECTION('',(-1.,-1.224646799147E-16,0.));
#1342 = ORIENTED_EDGE('',*,*,#1343,.F.);
#1343 = EDGE_CURVE('',#1344,#1334,#1346,.T.);
#1344 = VERTEX_POINT('',#1345);
#1345 = CARTESIAN_POINT('',(16.,3.812650021606,0.4));
#1346 = LINE('',#1347,#1348);
#1347 = CARTESIAN_POINT('',(16.143926240134,3.692711488161,0.4));
#1348 = VECTOR('',#1349,1.);
#1349 = DIRECTION('',(-0.768221279597,0.640184399664,0.));
#1350 = ORIENTED_EDGE('',*,*,#1351,.F.);
#1351 = EDGE_CURVE('',#1352,#1344,#1354,.T.);
#1352 = VERTEX_POINT('',#1353);
#1353 = CARTESIAN_POINT('',(16.,3.187349978394,0.4));
#1354 = LINE('',#1355,#1356);
#1355 = CARTESIAN_POINT('',(16.,3.,0.4));
#1356 = VECTOR('',#1357,1.);
#1357 = DIRECTION('',(1.110223024625E-16,1.,0.));
#1358 = ORIENTED_EDGE('',*,*,#1359,.F.);
#1359 = EDGE_CURVE('',#1360,#1352,#1362,.T.);
#1360 = VERTEX_POINT('',#1361);
#1361 = CARTESIAN_POINT('',(15.655180025927,2.9,0.4));
#1362 = LINE('',#1363,#1364);
#1363 = CARTESIAN_POINT('',(15.543926240134,2.807288511839,0.4));
#1364 = VECTOR('',#1365,1.);
#1365 = DIRECTION('',(0.768221279597,0.640184399664,0.));
#1366 = ORIENTED_EDGE('',*,*,#1367,.F.);
#1367 = EDGE_CURVE('',#1368,#1360,#1370,.T.);
#1368 = VERTEX_POINT('',#1369);
#1369 = CARTESIAN_POINT('',(14.4,2.9,0.4));
#1370 = LINE('',#1371,#1372);
#1371 = CARTESIAN_POINT('',(14.,2.9,0.4));
#1372 = VECTOR('',#1373,1.);
#1373 = DIRECTION('',(1.,0.,0.));
#1374 = ORIENTED_EDGE('',*,*,#1375,.F.);
#1375 = EDGE_CURVE('',#1336,#1368,#1376,.T.);
#1376 = LINE('',#1377,#1378);
#1377 = CARTESIAN_POINT('',(14.4,6.5,0.4));
#1378 = VECTOR('',#1379,1.);
#1379 = DIRECTION('',(1.110223024625E-16,-1.,0.));
#1380 = PLANE('',#1381);
#1381 = AXIS2_PLACEMENT_3D('',#1382,#1383,#1384);
#1382 = CARTESIAN_POINT('',(15.13995470749,4.5,0.4));
#1383 = DIRECTION('',(-0.,0.,1.));
#1384 = DIRECTION('',(-1.,0.,0.));
#1385 = ADVANCED_FACE('',(#1386),#1399,.F.);
#1386 = FACE_BOUND('',#1387,.F.);
#1387 = EDGE_LOOP('',(#1388,#1389,#1390,#1391,#1392,#1393,#1394,#1395,
    #1396,#1397,#1398));
#1388 = ORIENTED_EDGE('',*,*,#1171,.F.);
#1389 = ORIENTED_EDGE('',*,*,#919,.T.);
#1390 = ORIENTED_EDGE('',*,*,#950,.T.);
#1391 = ORIENTED_EDGE('',*,*,#974,.F.);
#1392 = ORIENTED_EDGE('',*,*,#1007,.F.);
#1393 = ORIENTED_EDGE('',*,*,#1023,.T.);
#1394 = ORIENTED_EDGE('',*,*,#1047,.F.);
#1395 = ORIENTED_EDGE('',*,*,#1072,.F.);
#1396 = ORIENTED_EDGE('',*,*,#1096,.F.);
#1397 = ORIENTED_EDGE('',*,*,#1120,.F.);
#1398 = ORIENTED_EDGE('',*,*,#1145,.F.);
#1399 = PLANE('',#1400);
#1400 = AXIS2_PLACEMENT_3D('',#1401,#1402,#1403);
#1401 = CARTESIAN_POINT('',(19.248107615296,4.162610810975,0.4));
#1402 = DIRECTION('',(-0.,0.,1.));
#1403 = DIRECTION('',(-1.,0.,0.));
#1404 = ADVANCED_FACE('',(#1405),#1430,.T.);
#1405 = FACE_BOUND('',#1406,.T.);
#1406 = EDGE_LOOP('',(#1407,#1408,#1416,#1424));
#1407 = ORIENTED_EDGE('',*,*,#1283,.F.);
#1408 = ORIENTED_EDGE('',*,*,#1409,.F.);
#1409 = EDGE_CURVE('',#1410,#1284,#1412,.T.);
#1410 = VERTEX_POINT('',#1411);
#1411 = CARTESIAN_POINT('',(15.655180025927,6.1,0.));
#1412 = LINE('',#1413,#1414);
#1413 = CARTESIAN_POINT('',(15.655180025927,6.1,0.4));
#1414 = VECTOR('',#1415,1.);
#1415 = DIRECTION('',(0.,0.,1.));
#1416 = ORIENTED_EDGE('',*,*,#1417,.T.);
#1417 = EDGE_CURVE('',#1410,#1418,#1420,.T.);
#1418 = VERTEX_POINT('',#1419);
#1419 = CARTESIAN_POINT('',(14.4,6.1,0.));
#1420 = LINE('',#1421,#1422);
#1421 = CARTESIAN_POINT('',(7.9,6.1,6.550315845288E-16));
#1422 = VECTOR('',#1423,1.);
#1423 = DIRECTION('',(-1.,-1.224646799147E-16,2.719262146894E-32));
#1424 = ORIENTED_EDGE('',*,*,#1425,.F.);
#1425 = EDGE_CURVE('',#1286,#1418,#1426,.T.);
#1426 = LINE('',#1427,#1428);
#1427 = CARTESIAN_POINT('',(14.4,6.1,0.4));
#1428 = VECTOR('',#1429,1.);
#1429 = DIRECTION('',(0.,0.,-1.));
#1430 = PLANE('',#1431);
#1431 = AXIS2_PLACEMENT_3D('',#1432,#1433,#1434);
#1432 = CARTESIAN_POINT('',(15.8,6.1,0.4));
#1433 = DIRECTION('',(-1.224646799147E-16,1.,-0.));
#1434 = DIRECTION('',(0.,0.,-1.));
#1435 = ADVANCED_FACE('',(#1436),#1454,.T.);
#1436 = FACE_BOUND('',#1437,.T.);
#1437 = EDGE_LOOP('',(#1438,#1439,#1447,#1453));
#1438 = ORIENTED_EDGE('',*,*,#1293,.F.);
#1439 = ORIENTED_EDGE('',*,*,#1440,.F.);
#1440 = EDGE_CURVE('',#1441,#1294,#1443,.T.);
#1441 = VERTEX_POINT('',#1442);
#1442 = CARTESIAN_POINT('',(16.,5.812650021606,3.552713678801E-15));
#1443 = LINE('',#1444,#1445);
#1444 = CARTESIAN_POINT('',(16.,5.812650021606,0.4));
#1445 = VECTOR('',#1446,1.);
#1446 = DIRECTION('',(0.,0.,1.));
#1447 = ORIENTED_EDGE('',*,*,#1448,.T.);
#1448 = EDGE_CURVE('',#1441,#1410,#1449,.T.);
#1449 = LINE('',#1450,#1451);
#1450 = CARTESIAN_POINT('',(10.566877059806,10.340252471768,
    -3.039561330824E-16));
#1451 = VECTOR('',#1452,1.);
#1452 = DIRECTION('',(-0.768221279597,0.640184399664,-1.421494921027E-16
    ));
#1453 = ORIENTED_EDGE('',*,*,#1409,.T.);
#1454 = PLANE('',#1455);
#1455 = AXIS2_PLACEMENT_3D('',#1456,#1457,#1458);
#1456 = CARTESIAN_POINT('',(16.143926240134,5.692711488161,0.4));
#1457 = DIRECTION('',(0.640184399664,0.768221279597,0.));
#1458 = DIRECTION('',(0.,0.,-1.));
#1459 = ADVANCED_FACE('',(#1460),#1478,.T.);
#1460 = FACE_BOUND('',#1461,.T.);
#1461 = EDGE_LOOP('',(#1462,#1463,#1471,#1477));
#1462 = ORIENTED_EDGE('',*,*,#1301,.F.);
#1463 = ORIENTED_EDGE('',*,*,#1464,.F.);
#1464 = EDGE_CURVE('',#1465,#1302,#1467,.T.);
#1465 = VERTEX_POINT('',#1466);
#1466 = CARTESIAN_POINT('',(16.,5.187349978394,3.552713678801E-15));
#1467 = LINE('',#1468,#1469);
#1468 = CARTESIAN_POINT('',(16.,5.187349978394,0.4));
#1469 = VECTOR('',#1470,1.);
#1470 = DIRECTION('',(0.,0.,1.));
#1471 = ORIENTED_EDGE('',*,*,#1472,.T.);
#1472 = EDGE_CURVE('',#1465,#1441,#1473,.T.);
#1473 = LINE('',#1474,#1475);
#1474 = CARTESIAN_POINT('',(16.,7.,4.440892098501E-16));
#1475 = VECTOR('',#1476,1.);
#1476 = DIRECTION('',(1.110223024625E-16,1.,-2.22044604925E-16));
#1477 = ORIENTED_EDGE('',*,*,#1440,.T.);
#1478 = PLANE('',#1479);
#1479 = AXIS2_PLACEMENT_3D('',#1480,#1481,#1482);
#1480 = CARTESIAN_POINT('',(16.,5.,0.4));
#1481 = DIRECTION('',(1.,-1.110223024625E-16,0.));
#1482 = DIRECTION('',(0.,0.,-1.));
#1483 = ADVANCED_FACE('',(#1484),#1502,.T.);
#1484 = FACE_BOUND('',#1485,.T.);
#1485 = EDGE_LOOP('',(#1486,#1487,#1495,#1501));
#1486 = ORIENTED_EDGE('',*,*,#1309,.F.);
#1487 = ORIENTED_EDGE('',*,*,#1488,.T.);
#1488 = EDGE_CURVE('',#1310,#1489,#1491,.T.);
#1489 = VERTEX_POINT('',#1490);
#1490 = CARTESIAN_POINT('',(15.655180025927,4.9,3.552713678801E-15));
#1491 = LINE('',#1492,#1493);
#1492 = CARTESIAN_POINT('',(15.655180025927,4.9,0.4));
#1493 = VECTOR('',#1494,1.);
#1494 = DIRECTION('',(0.,0.,-1.));
#1495 = ORIENTED_EDGE('',*,*,#1496,.T.);
#1496 = EDGE_CURVE('',#1489,#1465,#1497,.T.);
#1497 = LINE('',#1498,#1499);
#1498 = CARTESIAN_POINT('',(11.988188535216,1.844173757741,
    1.595272913364E-15));
#1499 = VECTOR('',#1500,1.);
#1500 = DIRECTION('',(0.768221279597,0.640184399664,-1.421494921027E-16)
  );
#1501 = ORIENTED_EDGE('',*,*,#1464,.T.);
#1502 = PLANE('',#1503);
#1503 = AXIS2_PLACEMENT_3D('',#1504,#1505,#1506);
#1504 = CARTESIAN_POINT('',(15.543926240134,4.807288511839,0.4));
#1505 = DIRECTION('',(0.640184399664,-0.768221279597,0.));
#1506 = DIRECTION('',(0.,0.,-1.));
#1507 = ADVANCED_FACE('',(#1508),#1526,.F.);
#1508 = FACE_BOUND('',#1509,.F.);
#1509 = EDGE_LOOP('',(#1510,#1511,#1512,#1520));
#1510 = ORIENTED_EDGE('',*,*,#1317,.F.);
#1511 = ORIENTED_EDGE('',*,*,#1488,.T.);
#1512 = ORIENTED_EDGE('',*,*,#1513,.T.);
#1513 = EDGE_CURVE('',#1489,#1514,#1516,.T.);
#1514 = VERTEX_POINT('',#1515);
#1515 = CARTESIAN_POINT('',(14.4,4.9,3.552713678801E-15));
#1516 = LINE('',#1517,#1518);
#1517 = CARTESIAN_POINT('',(7.9,4.9,8.992806499464E-16));
#1518 = VECTOR('',#1519,1.);
#1519 = DIRECTION('',(-1.,-1.224646799147E-16,2.719262146894E-32));
#1520 = ORIENTED_EDGE('',*,*,#1521,.F.);
#1521 = EDGE_CURVE('',#1318,#1514,#1522,.T.);
#1522 = LINE('',#1523,#1524);
#1523 = CARTESIAN_POINT('',(14.4,4.9,0.4));
#1524 = VECTOR('',#1525,1.);
#1525 = DIRECTION('',(0.,0.,-1.));
#1526 = PLANE('',#1527);
#1527 = AXIS2_PLACEMENT_3D('',#1528,#1529,#1530);
#1528 = CARTESIAN_POINT('',(15.8,4.9,0.4));
#1529 = DIRECTION('',(-1.224646799147E-16,1.,-0.));
#1530 = DIRECTION('',(0.,0.,-1.));
#1531 = ADVANCED_FACE('',(#1532),#1543,.T.);
#1532 = FACE_BOUND('',#1533,.T.);
#1533 = EDGE_LOOP('',(#1534,#1535,#1536,#1542));
#1534 = ORIENTED_EDGE('',*,*,#1325,.F.);
#1535 = ORIENTED_EDGE('',*,*,#1425,.T.);
#1536 = ORIENTED_EDGE('',*,*,#1537,.T.);
#1537 = EDGE_CURVE('',#1418,#1514,#1538,.T.);
#1538 = LINE('',#1539,#1540);
#1539 = CARTESIAN_POINT('',(14.4,7.75,2.775557561563E-16));
#1540 = VECTOR('',#1541,1.);
#1541 = DIRECTION('',(1.110223024625E-16,-1.,2.22044604925E-16));
#1542 = ORIENTED_EDGE('',*,*,#1521,.F.);
#1543 = PLANE('',#1544);
#1544 = AXIS2_PLACEMENT_3D('',#1545,#1546,#1547);
#1545 = CARTESIAN_POINT('',(14.4,6.5,0.4));
#1546 = DIRECTION('',(-1.,-1.110223024625E-16,0.));
#1547 = DIRECTION('',(0.,0.,-1.));
#1548 = ADVANCED_FACE('',(#1549),#1574,.T.);
#1549 = FACE_BOUND('',#1550,.T.);
#1550 = EDGE_LOOP('',(#1551,#1552,#1560,#1568));
#1551 = ORIENTED_EDGE('',*,*,#1333,.F.);
#1552 = ORIENTED_EDGE('',*,*,#1553,.F.);
#1553 = EDGE_CURVE('',#1554,#1334,#1556,.T.);
#1554 = VERTEX_POINT('',#1555);
#1555 = CARTESIAN_POINT('',(15.655180025927,4.1,3.552713678801E-15));
#1556 = LINE('',#1557,#1558);
#1557 = CARTESIAN_POINT('',(15.655180025927,4.1,0.4));
#1558 = VECTOR('',#1559,1.);
#1559 = DIRECTION('',(0.,0.,1.));
#1560 = ORIENTED_EDGE('',*,*,#1561,.T.);
#1561 = EDGE_CURVE('',#1554,#1562,#1564,.T.);
#1562 = VERTEX_POINT('',#1563);
#1563 = CARTESIAN_POINT('',(14.4,4.1,3.552713678801E-15));
#1564 = LINE('',#1565,#1566);
#1565 = CARTESIAN_POINT('',(7.9,4.1,1.099120794379E-15));
#1566 = VECTOR('',#1567,1.);
#1567 = DIRECTION('',(-1.,-1.224646799147E-16,2.719262146894E-32));
#1568 = ORIENTED_EDGE('',*,*,#1569,.F.);
#1569 = EDGE_CURVE('',#1336,#1562,#1570,.T.);
#1570 = LINE('',#1571,#1572);
#1571 = CARTESIAN_POINT('',(14.4,4.1,0.4));
#1572 = VECTOR('',#1573,1.);
#1573 = DIRECTION('',(0.,0.,-1.));
#1574 = PLANE('',#1575);
#1575 = AXIS2_PLACEMENT_3D('',#1576,#1577,#1578);
#1576 = CARTESIAN_POINT('',(15.8,4.1,0.4));
#1577 = DIRECTION('',(-1.224646799147E-16,1.,-0.));
#1578 = DIRECTION('',(0.,0.,-1.));
#1579 = ADVANCED_FACE('',(#1580),#1598,.T.);
#1580 = FACE_BOUND('',#1581,.T.);
#1581 = EDGE_LOOP('',(#1582,#1583,#1591,#1597));
#1582 = ORIENTED_EDGE('',*,*,#1343,.F.);
#1583 = ORIENTED_EDGE('',*,*,#1584,.F.);
#1584 = EDGE_CURVE('',#1585,#1344,#1587,.T.);
#1585 = VERTEX_POINT('',#1586);
#1586 = CARTESIAN_POINT('',(16.,3.812650021606,3.552713678801E-15));
#1587 = LINE('',#1588,#1589);
#1588 = CARTESIAN_POINT('',(16.,3.812650021606,0.4));
#1589 = VECTOR('',#1590,1.);
#1590 = DIRECTION('',(0.,0.,1.));
#1591 = ORIENTED_EDGE('',*,*,#1592,.T.);
#1592 = EDGE_CURVE('',#1585,#1554,#1593,.T.);
#1593 = LINE('',#1594,#1595);
#1594 = CARTESIAN_POINT('',(10.075073781118,8.750088537341,
    4.913118950326E-17));
#1595 = VECTOR('',#1596,1.);
#1596 = DIRECTION('',(-0.768221279597,0.640184399664,-1.421494921027E-16
    ));
#1597 = ORIENTED_EDGE('',*,*,#1553,.T.);
#1598 = PLANE('',#1599);
#1599 = AXIS2_PLACEMENT_3D('',#1600,#1601,#1602);
#1600 = CARTESIAN_POINT('',(16.143926240134,3.692711488161,0.4));
#1601 = DIRECTION('',(0.640184399664,0.768221279597,0.));
#1602 = DIRECTION('',(0.,0.,-1.));
#1603 = ADVANCED_FACE('',(#1604),#1622,.T.);
#1604 = FACE_BOUND('',#1605,.T.);
#1605 = EDGE_LOOP('',(#1606,#1607,#1615,#1621));
#1606 = ORIENTED_EDGE('',*,*,#1351,.F.);
#1607 = ORIENTED_EDGE('',*,*,#1608,.F.);
#1608 = EDGE_CURVE('',#1609,#1352,#1611,.T.);
#1609 = VERTEX_POINT('',#1610);
#1610 = CARTESIAN_POINT('',(16.,3.187349978394,3.552713678801E-15));
#1611 = LINE('',#1612,#1613);
#1612 = CARTESIAN_POINT('',(16.,3.187349978394,0.4));
#1613 = VECTOR('',#1614,1.);
#1614 = DIRECTION('',(0.,0.,1.));
#1615 = ORIENTED_EDGE('',*,*,#1616,.T.);
#1616 = EDGE_CURVE('',#1609,#1585,#1617,.T.);
#1617 = LINE('',#1618,#1619);
#1618 = CARTESIAN_POINT('',(16.,6.,6.661338147751E-16));
#1619 = VECTOR('',#1620,1.);
#1620 = DIRECTION('',(1.110223024625E-16,1.,-2.22044604925E-16));
#1621 = ORIENTED_EDGE('',*,*,#1584,.T.);
#1622 = PLANE('',#1623);
#1623 = AXIS2_PLACEMENT_3D('',#1624,#1625,#1626);
#1624 = CARTESIAN_POINT('',(16.,3.,0.4));
#1625 = DIRECTION('',(1.,-1.110223024625E-16,0.));
#1626 = DIRECTION('',(0.,0.,-1.));
#1627 = ADVANCED_FACE('',(#1628),#1646,.T.);
#1628 = FACE_BOUND('',#1629,.T.);
#1629 = EDGE_LOOP('',(#1630,#1631,#1639,#1645));
#1630 = ORIENTED_EDGE('',*,*,#1359,.F.);
#1631 = ORIENTED_EDGE('',*,*,#1632,.F.);
#1632 = EDGE_CURVE('',#1633,#1360,#1635,.T.);
#1633 = VERTEX_POINT('',#1634);
#1634 = CARTESIAN_POINT('',(15.655180025927,2.9,3.552713678801E-15));
#1635 = LINE('',#1636,#1637);
#1636 = CARTESIAN_POINT('',(15.655180025927,2.9,0.4));
#1637 = VECTOR('',#1638,1.);
#1638 = DIRECTION('',(0.,0.,1.));
#1639 = ORIENTED_EDGE('',*,*,#1640,.T.);
#1640 = EDGE_CURVE('',#1633,#1609,#1641,.T.);
#1641 = LINE('',#1642,#1643);
#1642 = CARTESIAN_POINT('',(12.479991813905,0.254009823314,
    1.948360235949E-15));
#1643 = VECTOR('',#1644,1.);
#1644 = DIRECTION('',(0.768221279597,0.640184399664,-1.421494921027E-16)
  );
#1645 = ORIENTED_EDGE('',*,*,#1608,.T.);
#1646 = PLANE('',#1647);
#1647 = AXIS2_PLACEMENT_3D('',#1648,#1649,#1650);
#1648 = CARTESIAN_POINT('',(15.543926240134,2.807288511839,0.4));
#1649 = DIRECTION('',(0.640184399664,-0.768221279597,0.));
#1650 = DIRECTION('',(0.,0.,-1.));
#1651 = ADVANCED_FACE('',(#1652),#1670,.T.);
#1652 = FACE_BOUND('',#1653,.T.);
#1653 = EDGE_LOOP('',(#1654,#1655,#1663,#1669));
#1654 = ORIENTED_EDGE('',*,*,#1367,.F.);
#1655 = ORIENTED_EDGE('',*,*,#1656,.F.);
#1656 = EDGE_CURVE('',#1657,#1368,#1659,.T.);
#1657 = VERTEX_POINT('',#1658);
#1658 = CARTESIAN_POINT('',(14.4,2.9,3.552713678801E-15));
#1659 = LINE('',#1660,#1661);
#1660 = CARTESIAN_POINT('',(14.4,2.9,0.4));
#1661 = VECTOR('',#1662,1.);
#1662 = DIRECTION('',(0.,0.,1.));
#1663 = ORIENTED_EDGE('',*,*,#1664,.T.);
#1664 = EDGE_CURVE('',#1657,#1633,#1665,.T.);
#1665 = LINE('',#1666,#1667);
#1666 = CARTESIAN_POINT('',(7.,2.9,1.343369859796E-15));
#1667 = VECTOR('',#1668,1.);
#1668 = DIRECTION('',(1.,0.,0.));
#1669 = ORIENTED_EDGE('',*,*,#1632,.T.);
#1670 = PLANE('',#1671);
#1671 = AXIS2_PLACEMENT_3D('',#1672,#1673,#1674);
#1672 = CARTESIAN_POINT('',(14.,2.9,0.4));
#1673 = DIRECTION('',(0.,-1.,0.));
#1674 = DIRECTION('',(0.,0.,-1.));
#1675 = ADVANCED_FACE('',(#1676),#1687,.T.);
#1676 = FACE_BOUND('',#1677,.T.);
#1677 = EDGE_LOOP('',(#1678,#1679,#1680,#1686));
#1678 = ORIENTED_EDGE('',*,*,#1375,.F.);
#1679 = ORIENTED_EDGE('',*,*,#1569,.T.);
#1680 = ORIENTED_EDGE('',*,*,#1681,.T.);
#1681 = EDGE_CURVE('',#1562,#1657,#1682,.T.);
#1682 = LINE('',#1683,#1684);
#1683 = CARTESIAN_POINT('',(14.4,7.75,2.775557561563E-16));
#1684 = VECTOR('',#1685,1.);
#1685 = DIRECTION('',(1.110223024625E-16,-1.,2.22044604925E-16));
#1686 = ORIENTED_EDGE('',*,*,#1656,.T.);
#1687 = PLANE('',#1688);
#1688 = AXIS2_PLACEMENT_3D('',#1689,#1690,#1691);
#1689 = CARTESIAN_POINT('',(14.4,6.5,0.4));
#1690 = DIRECTION('',(-1.,-1.110223024625E-16,0.));
#1691 = DIRECTION('',(0.,0.,-1.));
#1692 = ADVANCED_FACE('',(#1693),#1701,.F.);
#1693 = FACE_BOUND('',#1694,.F.);
#1694 = EDGE_LOOP('',(#1695,#1696,#1697,#1698,#1699,#1700));
#1695 = ORIENTED_EDGE('',*,*,#1448,.T.);
#1696 = ORIENTED_EDGE('',*,*,#1417,.T.);
#1697 = ORIENTED_EDGE('',*,*,#1537,.T.);
#1698 = ORIENTED_EDGE('',*,*,#1513,.F.);
#1699 = ORIENTED_EDGE('',*,*,#1496,.T.);
#1700 = ORIENTED_EDGE('',*,*,#1472,.T.);
#1701 = PLANE('',#1702);
#1702 = AXIS2_PLACEMENT_3D('',#1703,#1704,#1705);
#1703 = CARTESIAN_POINT('',(0.,9.,0.));
#1704 = DIRECTION('',(0.,2.22044604925E-16,1.));
#1705 = DIRECTION('',(0.,-1.,2.22044604925E-16));
#1706 = ADVANCED_FACE('',(#1707),#1715,.F.);
#1707 = FACE_BOUND('',#1708,.F.);
#1708 = EDGE_LOOP('',(#1709,#1710,#1711,#1712,#1713,#1714));
#1709 = ORIENTED_EDGE('',*,*,#1561,.T.);
#1710 = ORIENTED_EDGE('',*,*,#1681,.T.);
#1711 = ORIENTED_EDGE('',*,*,#1664,.T.);
#1712 = ORIENTED_EDGE('',*,*,#1640,.T.);
#1713 = ORIENTED_EDGE('',*,*,#1616,.T.);
#1714 = ORIENTED_EDGE('',*,*,#1592,.T.);
#1715 = PLANE('',#1716);
#1716 = AXIS2_PLACEMENT_3D('',#1717,#1718,#1719);
#1717 = CARTESIAN_POINT('',(0.,9.,0.));
#1718 = DIRECTION('',(0.,2.22044604925E-16,1.));
#1719 = DIRECTION('',(0.,-1.,2.22044604925E-16));
#1720 = ( GEOMETRIC_REPRESENTATION_CONTEXT(3)
GLOBAL_UNCERTAINTY_ASSIGNED_CONTEXT((#1724))
GLOBAL_UNIT_ASSIGNED_CONTEXT((#1721,#1722,#1723)) REPRESENTATION_CONTEXT
('Context #1','3D Context with UNIT and UNCERTAINTY') );
#1721 = ( LENGTH_UNIT() NAMED_UNIT(*) SI_UNIT(.MILLI.,.METRE.) );
#1722 = ( NAMED_UNIT(*) PLANE_ANGLE_UNIT() SI_UNIT($,.RADIAN.) );
#1723 = ( NAMED_UNIT(*) SI_UNIT($,.STERADIAN.) SOLID_ANGLE_UNIT() );
#1724 = UNCERTAINTY_MEASURE_WITH_UNIT(LENGTH_MEASURE(1.E-07),#1721,
  'distance_accuracy_value','confusion accuracy');
#1725 = PRODUCT_RELATED_PRODUCT_CATEGORY('part',$,(#7));
ENDSEC;
END-ISO-10303-21;
