ISO-10303-21;
HEADER;
FILE_DESCRIPTION(('FreeCAD Model'),'2;1');
FILE_NAME('Open CASCADE Shape Model','2026-10-09T08:39:35',('FreeCAD'),(
    'FreeCAD'),'Open CASCADE STEP processor 7.8','FreeCAD','Unknown');
FILE_SCHEMA(('AUTOMOTIVE_DESIGN { 1 0 10303 214 1 1 1 1 }'));
ENDSEC;
DATA;
#1 = APPLICATION_PROTOCOL_DEFINITION('international standard',
  'automotive_design',2000,#2);
#2 = APPLICATION_CONTEXT(
  'core data for automotive mechanical design processes');
#3 = SHAPE_DEFINITION_REPRESENTATION(#4,#10);
#4 = PRODUCT_DEFINITION_SHAPE('','',#5);
#5 = PRODUCT_DEFINITION('design','',#6,#9);
#6 = PRODUCT_DEFINITION_FORMATION('','',#7);
#7 = PRODUCT('Open CASCADE STEP translator 7.8 13',
  'Open CASCADE STEP translator 7.8 13','',(#8));
#8 = PRODUCT_CONTEXT('',#2,'mechanical');
#9 = PRODUCT_DEFINITION_CONTEXT('part definition',#2,'design');
#10 = ADVANCED_BREP_SHAPE_REPRESENTATION('',(#11,#15),#2318);
#11 = AXIS2_PLACEMENT_3D('',#12,#13,#14);
#12 = CARTESIAN_POINT('',(0.,0.,0.));
#13 = DIRECTION('',(0.,0.,1.));
#14 = DIRECTION('',(1.,0.,-0.));
#15 = MANIFOLD_SOLID_BREP('',#16);
#16 = CLOSED_SHELL('',(#17,#57,#88,#119,#159,#183,#256,#280,#304,#337,
    #449,#466,#483,#762,#774,#799,#824,#849,#866,#878,#909,#933,#957,
    #981,#1005,#1022,#1047,#1072,#1104,#1128,#1153,#1177,#1202,#1226,
    #1251,#1275,#1300,#1324,#1348,#1373,#1397,#1422,#1446,#1471,#1488,
    #1520,#1544,#1568,#1592,#1617,#1641,#1675,#1699,#1723,#1748,#1772,
    #1797,#1814,#1831,#1843,#1855,#1980,#2002,#2033,#2057,#2081,#2105,
    #2129,#2146,#2177,#2201,#2225,#2249,#2273,#2290,#2304));
#17 = ADVANCED_FACE('',(#18),#52,.T.);
#18 = FACE_BOUND('',#19,.T.);
#19 = EDGE_LOOP('',(#20,#30,#38,#46));
#20 = ORIENTED_EDGE('',*,*,#21,.F.);
#21 = EDGE_CURVE('',#22,#24,#26,.T.);
#22 = VERTEX_POINT('',#23);
#23 = CARTESIAN_POINT('',(17.,180.,3.1));
#24 = VERTEX_POINT('',#25);
#25 = CARTESIAN_POINT('',(17.,0.4,3.1));
#26 = LINE('',#27,#28);
#27 = CARTESIAN_POINT('',(17.,180.,3.1));
#28 = VECTOR('',#29,1.);
#29 = DIRECTION('',(0.,-1.,2.22044604925E-16));
#30 = ORIENTED_EDGE('',*,*,#31,.F.);
#31 = EDGE_CURVE('',#32,#22,#34,.T.);
#32 = VERTEX_POINT('',#33);
#33 = CARTESIAN_POINT('',(12.7,180.,3.1));
#34 = LINE('',#35,#36);
#35 = CARTESIAN_POINT('',(1.24344978758E-14,180.,3.1));
#36 = VECTOR('',#37,1.);
#37 = DIRECTION('',(1.,0.,0.));
#38 = ORIENTED_EDGE('',*,*,#39,.T.);
#39 = EDGE_CURVE('',#32,#40,#42,.T.);
#40 = VERTEX_POINT('',#41);
#41 = CARTESIAN_POINT('',(12.7,0.4,3.1));
#42 = LINE('',#43,#44);
#43 = CARTESIAN_POINT('',(12.7,180.,3.1));
#44 = VECTOR('',#45,1.);
#45 = DIRECTION('',(0.,-1.,2.22044604925E-16));
#46 = ORIENTED_EDGE('',*,*,#47,.T.);
#47 = EDGE_CURVE('',#40,#24,#48,.T.);
#48 = LINE('',#49,#50);
#49 = CARTESIAN_POINT('',(12.7,0.4,3.1));
#50 = VECTOR('',#51,1.);
#51 = DIRECTION('',(1.,0.,0.));
#52 = PLANE('',#53);
#53 = AXIS2_PLACEMENT_3D('',#54,#55,#56);
#54 = CARTESIAN_POINT('',(1.24344978758E-14,180.,3.1));
#55 = DIRECTION('',(0.,2.22044604925E-16,1.));
#56 = DIRECTION('',(0.,-1.,2.22044604925E-16));
#57 = ADVANCED_FACE('',(#58),#83,.T.);
#58 = FACE_BOUND('',#59,.T.);
#59 = EDGE_LOOP('',(#60,#70,#76,#77));
#60 = ORIENTED_EDGE('',*,*,#61,.F.);
#61 = EDGE_CURVE('',#62,#64,#66,.T.);
#62 = VERTEX_POINT('',#63);
#63 = CARTESIAN_POINT('',(17.,180.,0.));
#64 = VERTEX_POINT('',#65);
#65 = CARTESIAN_POINT('',(17.,0.4,3.730349362741E-14));
#66 = LINE('',#67,#68);
#67 = CARTESIAN_POINT('',(17.,180.,0.));
#68 = VECTOR('',#69,1.);
#69 = DIRECTION('',(0.,-1.,2.22044604925E-16));
#70 = ORIENTED_EDGE('',*,*,#71,.T.);
#71 = EDGE_CURVE('',#62,#22,#72,.T.);
#72 = LINE('',#73,#74);
#73 = CARTESIAN_POINT('',(17.,180.,0.));
#74 = VECTOR('',#75,1.);
#75 = DIRECTION('',(0.,2.22044604925E-16,1.));
#76 = ORIENTED_EDGE('',*,*,#21,.T.);
#77 = ORIENTED_EDGE('',*,*,#78,.F.);
#78 = EDGE_CURVE('',#64,#24,#79,.T.);
#79 = LINE('',#80,#81);
#80 = CARTESIAN_POINT('',(17.,0.4,3.907985046681E-14));
#81 = VECTOR('',#82,1.);
#82 = DIRECTION('',(0.,2.22044604925E-16,1.));
#83 = PLANE('',#84);
#84 = AXIS2_PLACEMENT_3D('',#85,#86,#87);
#85 = CARTESIAN_POINT('',(17.,180.,0.));
#86 = DIRECTION('',(1.,0.,0.));
#87 = DIRECTION('',(0.,-1.,2.22044604925E-16));
#88 = ADVANCED_FACE('',(#89),#114,.T.);
#89 = FACE_BOUND('',#90,.F.);
#90 = EDGE_LOOP('',(#91,#99,#100,#108));
#91 = ORIENTED_EDGE('',*,*,#92,.F.);
#92 = EDGE_CURVE('',#40,#93,#95,.T.);
#93 = VERTEX_POINT('',#94);
#94 = CARTESIAN_POINT('',(12.3,2.84217094304E-14,2.7));
#95 = LINE('',#96,#97);
#96 = CARTESIAN_POINT('',(12.566666666667,0.266666666667,2.966666666667)
  );
#97 = VECTOR('',#98,1.);
#98 = DIRECTION('',(-0.57735026919,-0.57735026919,-0.57735026919));
#99 = ORIENTED_EDGE('',*,*,#47,.T.);
#100 = ORIENTED_EDGE('',*,*,#101,.T.);
#101 = EDGE_CURVE('',#24,#102,#104,.T.);
#102 = VERTEX_POINT('',#103);
#103 = CARTESIAN_POINT('',(16.6,2.84217094304E-14,2.7));
#104 = LINE('',#105,#106);
#105 = CARTESIAN_POINT('',(15.633333333333,-0.966666666667,
    1.733333333333));
#106 = VECTOR('',#107,1.);
#107 = DIRECTION('',(-0.57735026919,-0.57735026919,-0.57735026919));
#108 = ORIENTED_EDGE('',*,*,#109,.F.);
#109 = EDGE_CURVE('',#93,#102,#110,.T.);
#110 = LINE('',#111,#112);
#111 = CARTESIAN_POINT('',(12.7,2.84217094304E-14,2.7));
#112 = VECTOR('',#113,1.);
#113 = DIRECTION('',(1.,0.,0.));
#114 = PLANE('',#115);
#115 = AXIS2_PLACEMENT_3D('',#116,#117,#118);
#116 = CARTESIAN_POINT('',(12.7,0.2,2.9));
#117 = DIRECTION('',(-3.474993633276E-18,-0.707106781187,0.707106781187)
  );
#118 = DIRECTION('',(-1.,2.457191562669E-18,-2.457191562669E-18));
#119 = ADVANCED_FACE('',(#120),#154,.T.);
#120 = FACE_BOUND('',#121,.T.);
#121 = EDGE_LOOP('',(#122,#123,#131,#139,#147,#153));
#122 = ORIENTED_EDGE('',*,*,#71,.F.);
#123 = ORIENTED_EDGE('',*,*,#124,.T.);
#124 = EDGE_CURVE('',#62,#125,#127,.T.);
#125 = VERTEX_POINT('',#126);
#126 = CARTESIAN_POINT('',(29.,180.,0.));
#127 = LINE('',#128,#129);
#128 = CARTESIAN_POINT('',(1.24344978758E-14,180.,0.));
#129 = VECTOR('',#130,1.);
#130 = DIRECTION('',(1.,0.,0.));
#131 = ORIENTED_EDGE('',*,*,#132,.T.);
#132 = EDGE_CURVE('',#125,#133,#135,.T.);
#133 = VERTEX_POINT('',#134);
#134 = CARTESIAN_POINT('',(29.,180.,14.8));
#135 = LINE('',#136,#137);
#136 = CARTESIAN_POINT('',(29.,180.,0.));
#137 = VECTOR('',#138,1.);
#138 = DIRECTION('',(0.,2.22044604925E-16,1.));
#139 = ORIENTED_EDGE('',*,*,#140,.F.);
#140 = EDGE_CURVE('',#141,#133,#143,.T.);
#141 = VERTEX_POINT('',#142);
#142 = CARTESIAN_POINT('',(12.7,180.,14.8));
#143 = LINE('',#144,#145);
#144 = CARTESIAN_POINT('',(1.24344978758E-14,180.,14.8));
#145 = VECTOR('',#146,1.);
#146 = DIRECTION('',(1.,0.,0.));
#147 = ORIENTED_EDGE('',*,*,#148,.F.);
#148 = EDGE_CURVE('',#32,#141,#149,.T.);
#149 = LINE('',#150,#151);
#150 = CARTESIAN_POINT('',(12.7,180.,3.));
#151 = VECTOR('',#152,1.);
#152 = DIRECTION('',(0.,2.22044604925E-16,1.));
#153 = ORIENTED_EDGE('',*,*,#31,.T.);
#154 = PLANE('',#155);
#155 = AXIS2_PLACEMENT_3D('',#156,#157,#158);
#156 = CARTESIAN_POINT('',(1.24344978758E-14,180.,0.));
#157 = DIRECTION('',(0.,-1.,2.22044604925E-16));
#158 = DIRECTION('',(1.,0.,0.));
#159 = ADVANCED_FACE('',(#160),#178,.T.);
#160 = FACE_BOUND('',#161,.T.);
#161 = EDGE_LOOP('',(#162,#163,#164,#172));
#162 = ORIENTED_EDGE('',*,*,#39,.F.);
#163 = ORIENTED_EDGE('',*,*,#148,.T.);
#164 = ORIENTED_EDGE('',*,*,#165,.T.);
#165 = EDGE_CURVE('',#141,#166,#168,.T.);
#166 = VERTEX_POINT('',#167);
#167 = CARTESIAN_POINT('',(12.7,0.4,14.8));
#168 = LINE('',#169,#170);
#169 = CARTESIAN_POINT('',(12.7,180.,14.8));
#170 = VECTOR('',#171,1.);
#171 = DIRECTION('',(0.,-1.,2.22044604925E-16));
#172 = ORIENTED_EDGE('',*,*,#173,.F.);
#173 = EDGE_CURVE('',#40,#166,#174,.T.);
#174 = LINE('',#175,#176);
#175 = CARTESIAN_POINT('',(12.7,0.4,3.1));
#176 = VECTOR('',#177,1.);
#177 = DIRECTION('',(0.,2.22044604925E-16,1.));
#178 = PLANE('',#179);
#179 = AXIS2_PLACEMENT_3D('',#180,#181,#182);
#180 = CARTESIAN_POINT('',(12.7,180.,3.));
#181 = DIRECTION('',(1.,0.,0.));
#182 = DIRECTION('',(0.,-1.,2.22044604925E-16));
#183 = ADVANCED_FACE('',(#184,#218,#229,#240),#251,.T.);
#184 = FACE_BOUND('',#185,.T.);
#185 = EDGE_LOOP('',(#186,#187,#195,#203,#211,#217));
#186 = ORIENTED_EDGE('',*,*,#61,.T.);
#187 = ORIENTED_EDGE('',*,*,#188,.F.);
#188 = EDGE_CURVE('',#189,#64,#191,.T.);
#189 = VERTEX_POINT('',#190);
#190 = CARTESIAN_POINT('',(4.440892098501E-15,0.4,3.730349362741E-14));
#191 = LINE('',#192,#193);
#192 = CARTESIAN_POINT('',(1.24344978758E-14,0.4,3.37507799486E-14));
#193 = VECTOR('',#194,1.);
#194 = DIRECTION('',(1.,0.,0.));
#195 = ORIENTED_EDGE('',*,*,#196,.F.);
#196 = EDGE_CURVE('',#197,#189,#199,.T.);
#197 = VERTEX_POINT('',#198);
#198 = CARTESIAN_POINT('',(1.24344978758E-14,184.,0.));
#199 = LINE('',#200,#201);
#200 = CARTESIAN_POINT('',(1.24344978758E-14,184.,0.));
#201 = VECTOR('',#202,1.);
#202 = DIRECTION('',(0.,-1.,2.22044604925E-16));
#203 = ORIENTED_EDGE('',*,*,#204,.T.);
#204 = EDGE_CURVE('',#197,#205,#207,.T.);
#205 = VERTEX_POINT('',#206);
#206 = CARTESIAN_POINT('',(29.,184.,0.));
#207 = LINE('',#208,#209);
#208 = CARTESIAN_POINT('',(1.24344978758E-14,184.,0.));
#209 = VECTOR('',#210,1.);
#210 = DIRECTION('',(1.,0.,0.));
#211 = ORIENTED_EDGE('',*,*,#212,.T.);
#212 = EDGE_CURVE('',#205,#125,#213,.T.);
#213 = LINE('',#214,#215);
#214 = CARTESIAN_POINT('',(29.,184.,0.));
#215 = VECTOR('',#216,1.);
#216 = DIRECTION('',(0.,-1.,2.22044604925E-16));
#217 = ORIENTED_EDGE('',*,*,#124,.F.);
#218 = FACE_BOUND('',#219,.T.);
#219 = EDGE_LOOP('',(#220));
#220 = ORIENTED_EDGE('',*,*,#221,.T.);
#221 = EDGE_CURVE('',#222,#222,#224,.T.);
#222 = VERTEX_POINT('',#223);
#223 = CARTESIAN_POINT('',(6.5,9.2,3.01980662698E-14));
#224 = CIRCLE('',#225,1.8);
#225 = AXIS2_PLACEMENT_3D('',#226,#227,#228);
#226 = CARTESIAN_POINT('',(6.5,11.,3.19744231092E-14));
#227 = DIRECTION('',(-0.,2.22044604925E-16,1.));
#228 = DIRECTION('',(0.,-1.,2.22044604925E-16));
#229 = FACE_BOUND('',#230,.T.);
#230 = EDGE_LOOP('',(#231));
#231 = ORIENTED_EDGE('',*,*,#232,.T.);
#232 = EDGE_CURVE('',#233,#233,#235,.T.);
#233 = VERTEX_POINT('',#234);
#234 = CARTESIAN_POINT('',(6.5,40.8,2.30926389122E-14));
#235 = CIRCLE('',#236,3.2);
#236 = AXIS2_PLACEMENT_3D('',#237,#238,#239);
#237 = CARTESIAN_POINT('',(6.5,44.,2.48689957516E-14));
#238 = DIRECTION('',(-0.,2.22044604925E-16,1.));
#239 = DIRECTION('',(0.,-1.,2.22044604925E-16));
#240 = FACE_BOUND('',#241,.T.);
#241 = EDGE_LOOP('',(#242));
#242 = ORIENTED_EDGE('',*,*,#243,.T.);
#243 = EDGE_CURVE('',#244,#244,#246,.T.);
#244 = VERTEX_POINT('',#245);
#245 = CARTESIAN_POINT('',(6.5,144.8,0.));
#246 = CIRCLE('',#247,3.2);
#247 = AXIS2_PLACEMENT_3D('',#248,#249,#250);
#248 = CARTESIAN_POINT('',(6.5,148.,1.7763568394E-15));
#249 = DIRECTION('',(-0.,2.22044604925E-16,1.));
#250 = DIRECTION('',(0.,-1.,2.22044604925E-16));
#251 = PLANE('',#252);
#252 = AXIS2_PLACEMENT_3D('',#253,#254,#255);
#253 = CARTESIAN_POINT('',(9.429577464789,97.070422535211,
    1.24344978758E-14));
#254 = DIRECTION('',(-0.,-2.22044604925E-16,-1.));
#255 = DIRECTION('',(0.,1.,-2.22044604925E-16));
#256 = ADVANCED_FACE('',(#257),#275,.T.);
#257 = FACE_BOUND('',#258,.T.);
#258 = EDGE_LOOP('',(#259,#267,#268,#269));
#259 = ORIENTED_EDGE('',*,*,#260,.F.);
#260 = EDGE_CURVE('',#64,#261,#263,.T.);
#261 = VERTEX_POINT('',#262);
#262 = CARTESIAN_POINT('',(16.6,2.84217094304E-14,0.4));
#263 = LINE('',#264,#265);
#264 = CARTESIAN_POINT('',(14.033333333333,-2.566666666667,
    2.966666666667));
#265 = VECTOR('',#266,1.);
#266 = DIRECTION('',(-0.57735026919,-0.57735026919,0.57735026919));
#267 = ORIENTED_EDGE('',*,*,#78,.T.);
#268 = ORIENTED_EDGE('',*,*,#101,.T.);
#269 = ORIENTED_EDGE('',*,*,#270,.F.);
#270 = EDGE_CURVE('',#261,#102,#271,.T.);
#271 = LINE('',#272,#273);
#272 = CARTESIAN_POINT('',(16.6,2.84217094304E-14,3.907985046681E-14));
#273 = VECTOR('',#274,1.);
#274 = DIRECTION('',(0.,2.22044604925E-16,1.));
#275 = PLANE('',#276);
#276 = AXIS2_PLACEMENT_3D('',#277,#278,#279);
#277 = CARTESIAN_POINT('',(16.8,0.2,3.907985046681E-14));
#278 = DIRECTION('',(0.707106781187,-0.707106781187,1.535342522351E-16)
  );
#279 = DIRECTION('',(2.457191562669E-18,2.195874133624E-16,1.));
#280 = ADVANCED_FACE('',(#281),#299,.T.);
#281 = FACE_BOUND('',#282,.T.);
#282 = EDGE_LOOP('',(#283,#284,#285,#293));
#283 = ORIENTED_EDGE('',*,*,#92,.F.);
#284 = ORIENTED_EDGE('',*,*,#173,.T.);
#285 = ORIENTED_EDGE('',*,*,#286,.T.);
#286 = EDGE_CURVE('',#166,#287,#289,.T.);
#287 = VERTEX_POINT('',#288);
#288 = CARTESIAN_POINT('',(12.3,2.84217094304E-14,14.4));
#289 = LINE('',#290,#291);
#290 = CARTESIAN_POINT('',(8.5,-3.8,10.6));
#291 = VECTOR('',#292,1.);
#292 = DIRECTION('',(-0.57735026919,-0.57735026919,-0.57735026919));
#293 = ORIENTED_EDGE('',*,*,#294,.F.);
#294 = EDGE_CURVE('',#93,#287,#295,.T.);
#295 = LINE('',#296,#297);
#296 = CARTESIAN_POINT('',(12.3,2.84217094304E-14,3.1));
#297 = VECTOR('',#298,1.);
#298 = DIRECTION('',(0.,2.22044604925E-16,1.));
#299 = PLANE('',#300);
#300 = AXIS2_PLACEMENT_3D('',#301,#302,#303);
#301 = CARTESIAN_POINT('',(12.5,0.2,3.1));
#302 = DIRECTION('',(0.707106781187,-0.707106781187,1.570092458684E-16)
  );
#303 = DIRECTION('',(0.,2.22044604925E-16,1.));
#304 = ADVANCED_FACE('',(#305),#332,.T.);
#305 = FACE_BOUND('',#306,.T.);
#306 = EDGE_LOOP('',(#307,#308,#309,#317,#325,#331));
#307 = ORIENTED_EDGE('',*,*,#109,.F.);
#308 = ORIENTED_EDGE('',*,*,#294,.T.);
#309 = ORIENTED_EDGE('',*,*,#310,.F.);
#310 = EDGE_CURVE('',#311,#287,#313,.T.);
#311 = VERTEX_POINT('',#312);
#312 = CARTESIAN_POINT('',(0.4,2.84217094304E-14,14.4));
#313 = LINE('',#314,#315);
#314 = CARTESIAN_POINT('',(1.24344978758E-14,2.84217094304E-14,14.4));
#315 = VECTOR('',#316,1.);
#316 = DIRECTION('',(1.,0.,0.));
#317 = ORIENTED_EDGE('',*,*,#318,.F.);
#318 = EDGE_CURVE('',#319,#311,#321,.T.);
#319 = VERTEX_POINT('',#320);
#320 = CARTESIAN_POINT('',(0.4,2.84217094304E-14,0.4));
#321 = LINE('',#322,#323);
#322 = CARTESIAN_POINT('',(0.4,2.84217094304E-14,3.907985046681E-14));
#323 = VECTOR('',#324,1.);
#324 = DIRECTION('',(0.,2.22044604925E-16,1.));
#325 = ORIENTED_EDGE('',*,*,#326,.T.);
#326 = EDGE_CURVE('',#319,#261,#327,.T.);
#327 = LINE('',#328,#329);
#328 = CARTESIAN_POINT('',(1.24344978758E-14,2.84217094304E-14,0.4));
#329 = VECTOR('',#330,1.);
#330 = DIRECTION('',(1.,0.,0.));
#331 = ORIENTED_EDGE('',*,*,#270,.T.);
#332 = PLANE('',#333);
#333 = AXIS2_PLACEMENT_3D('',#334,#335,#336);
#334 = CARTESIAN_POINT('',(7.708962264151,2.84217094304E-14,
    6.608962264151));
#335 = DIRECTION('',(0.,-1.,2.22044604925E-16));
#336 = DIRECTION('',(1.,0.,0.));
#337 = ADVANCED_FACE('',(#338,#372,#422,#433),#444,.T.);
#338 = FACE_BOUND('',#339,.T.);
#339 = EDGE_LOOP('',(#340,#341,#342,#350,#358,#366));
#340 = ORIENTED_EDGE('',*,*,#165,.F.);
#341 = ORIENTED_EDGE('',*,*,#140,.T.);
#342 = ORIENTED_EDGE('',*,*,#343,.F.);
#343 = EDGE_CURVE('',#344,#133,#346,.T.);
#344 = VERTEX_POINT('',#345);
#345 = CARTESIAN_POINT('',(29.,184.,14.8));
#346 = LINE('',#347,#348);
#347 = CARTESIAN_POINT('',(29.,184.,14.8));
#348 = VECTOR('',#349,1.);
#349 = DIRECTION('',(0.,-1.,2.22044604925E-16));
#350 = ORIENTED_EDGE('',*,*,#351,.F.);
#351 = EDGE_CURVE('',#352,#344,#354,.T.);
#352 = VERTEX_POINT('',#353);
#353 = CARTESIAN_POINT('',(1.24344978758E-14,184.,14.8));
#354 = LINE('',#355,#356);
#355 = CARTESIAN_POINT('',(1.24344978758E-14,184.,14.8));
#356 = VECTOR('',#357,1.);
#357 = DIRECTION('',(1.,0.,0.));
#358 = ORIENTED_EDGE('',*,*,#359,.T.);
#359 = EDGE_CURVE('',#352,#360,#362,.T.);
#360 = VERTEX_POINT('',#361);
#361 = CARTESIAN_POINT('',(4.440892098501E-15,0.4,14.8));
#362 = LINE('',#363,#364);
#363 = CARTESIAN_POINT('',(1.24344978758E-14,180.,14.8));
#364 = VECTOR('',#365,1.);
#365 = DIRECTION('',(0.,-1.,2.22044604925E-16));
#366 = ORIENTED_EDGE('',*,*,#367,.T.);
#367 = EDGE_CURVE('',#360,#166,#368,.T.);
#368 = LINE('',#369,#370);
#369 = CARTESIAN_POINT('',(1.24344978758E-14,0.4,14.8));
#370 = VECTOR('',#371,1.);
#371 = DIRECTION('',(1.,0.,0.));
#372 = FACE_BOUND('',#373,.T.);
#373 = EDGE_LOOP('',(#374,#384,#392,#400,#408,#416));
#374 = ORIENTED_EDGE('',*,*,#375,.T.);
#375 = EDGE_CURVE('',#376,#378,#380,.T.);
#376 = VERTEX_POINT('',#377);
#377 = CARTESIAN_POINT('',(3.55,12.703183294109,14.8));
#378 = VERTEX_POINT('',#379);
#379 = CARTESIAN_POINT('',(6.5,14.406366588219,14.8));
#380 = LINE('',#381,#382);
#381 = CARTESIAN_POINT('',(25.207917322588,25.207387690392,14.8));
#382 = VECTOR('',#383,1.);
#383 = DIRECTION('',(0.866025403784,0.5,-1.110223024625E-16));
#384 = ORIENTED_EDGE('',*,*,#385,.T.);
#385 = EDGE_CURVE('',#378,#386,#388,.T.);
#386 = VERTEX_POINT('',#387);
#387 = CARTESIAN_POINT('',(9.45,12.703183294109,14.8));
#388 = LINE('',#389,#390);
#389 = CARTESIAN_POINT('',(-9.898410280334,23.873993177852,14.8));
#390 = VECTOR('',#391,1.);
#391 = DIRECTION('',(0.866025403784,-0.5,1.110223024625E-16));
#392 = ORIENTED_EDGE('',*,*,#393,.T.);
#393 = EDGE_CURVE('',#386,#394,#396,.T.);
#394 = VERTEX_POINT('',#395);
#395 = CARTESIAN_POINT('',(9.45,9.296816705891,14.8));
#396 = LINE('',#397,#398);
#397 = CARTESIAN_POINT('',(9.45,54.092070324776,14.8));
#398 = VECTOR('',#399,1.);
#399 = DIRECTION('',(-2.607407032384E-16,-1.,2.22044604925E-16));
#400 = ORIENTED_EDGE('',*,*,#401,.T.);
#401 = EDGE_CURVE('',#394,#402,#404,.T.);
#402 = VERTEX_POINT('',#403);
#403 = CARTESIAN_POINT('',(6.5,7.593633411781,14.8));
#404 = LINE('',#405,#406);
#405 = CARTESIAN_POINT('',(26.682917322588,19.246246161009,14.8));
#406 = VECTOR('',#407,1.);
#407 = DIRECTION('',(-0.866025403784,-0.5,1.110223024625E-16));
#408 = ORIENTED_EDGE('',*,*,#409,.T.);
#409 = EDGE_CURVE('',#402,#410,#412,.T.);
#410 = VERTEX_POINT('',#411);
#411 = CARTESIAN_POINT('',(3.55,9.296816705891,14.8));
#412 = LINE('',#413,#414);
#413 = CARTESIAN_POINT('',(-14.32341028033,19.616034942578,14.8));
#414 = VECTOR('',#415,1.);
#415 = DIRECTION('',(-0.866025403784,0.5,-1.110223024625E-16));
#416 = ORIENTED_EDGE('',*,*,#417,.T.);
#417 = EDGE_CURVE('',#410,#376,#418,.T.);
#418 = LINE('',#419,#420);
#419 = CARTESIAN_POINT('',(3.55,55.795253618886,14.8));
#420 = VECTOR('',#421,1.);
#421 = DIRECTION('',(-1.303703516192E-16,1.,-2.22044604925E-16));
#422 = FACE_BOUND('',#423,.T.);
#423 = EDGE_LOOP('',(#424));
#424 = ORIENTED_EDGE('',*,*,#425,.F.);
#425 = EDGE_CURVE('',#426,#426,#428,.T.);
#426 = VERTEX_POINT('',#427);
#427 = CARTESIAN_POINT('',(6.5,146.2,14.8));
#428 = CIRCLE('',#429,1.8);
#429 = AXIS2_PLACEMENT_3D('',#430,#431,#432);
#430 = CARTESIAN_POINT('',(6.5,148.,14.8));
#431 = DIRECTION('',(-0.,2.22044604925E-16,1.));
#432 = DIRECTION('',(0.,-1.,2.22044604925E-16));
#433 = FACE_BOUND('',#434,.T.);
#434 = EDGE_LOOP('',(#435));
#435 = ORIENTED_EDGE('',*,*,#436,.F.);
#436 = EDGE_CURVE('',#437,#437,#439,.T.);
#437 = VERTEX_POINT('',#438);
#438 = CARTESIAN_POINT('',(6.5,42.2,14.8));
#439 = CIRCLE('',#440,1.8);
#440 = AXIS2_PLACEMENT_3D('',#441,#442,#443);
#441 = CARTESIAN_POINT('',(6.5,44.,14.8));
#442 = DIRECTION('',(-0.,2.22044604925E-16,1.));
#443 = DIRECTION('',(0.,-1.,2.22044604925E-16));
#444 = PLANE('',#445);
#445 = AXIS2_PLACEMENT_3D('',#446,#447,#448);
#446 = CARTESIAN_POINT('',(7.612676056338,98.887323943662,14.8));
#447 = DIRECTION('',(0.,2.22044604925E-16,1.));
#448 = DIRECTION('',(0.,-1.,2.22044604925E-16));
#449 = ADVANCED_FACE('',(#450),#461,.T.);
#450 = FACE_BOUND('',#451,.T.);
#451 = EDGE_LOOP('',(#452,#453,#459,#460));
#452 = ORIENTED_EDGE('',*,*,#212,.F.);
#453 = ORIENTED_EDGE('',*,*,#454,.T.);
#454 = EDGE_CURVE('',#205,#344,#455,.T.);
#455 = LINE('',#456,#457);
#456 = CARTESIAN_POINT('',(29.,184.,0.));
#457 = VECTOR('',#458,1.);
#458 = DIRECTION('',(0.,2.22044604925E-16,1.));
#459 = ORIENTED_EDGE('',*,*,#343,.T.);
#460 = ORIENTED_EDGE('',*,*,#132,.F.);
#461 = PLANE('',#462);
#462 = AXIS2_PLACEMENT_3D('',#463,#464,#465);
#463 = CARTESIAN_POINT('',(29.,184.,0.));
#464 = DIRECTION('',(1.,0.,0.));
#465 = DIRECTION('',(0.,-1.,2.22044604925E-16));
#466 = ADVANCED_FACE('',(#467),#478,.T.);
#467 = FACE_BOUND('',#468,.F.);
#468 = EDGE_LOOP('',(#469,#475,#476,#477));
#469 = ORIENTED_EDGE('',*,*,#470,.T.);
#470 = EDGE_CURVE('',#189,#319,#471,.T.);
#471 = LINE('',#472,#473);
#472 = CARTESIAN_POINT('',(0.133333333333,0.266666666667,0.133333333333)
  );
#473 = VECTOR('',#474,1.);
#474 = DIRECTION('',(0.57735026919,-0.57735026919,0.57735026919));
#475 = ORIENTED_EDGE('',*,*,#326,.T.);
#476 = ORIENTED_EDGE('',*,*,#260,.F.);
#477 = ORIENTED_EDGE('',*,*,#188,.F.);
#478 = PLANE('',#479);
#479 = AXIS2_PLACEMENT_3D('',#480,#481,#482);
#480 = CARTESIAN_POINT('',(1.24344978758E-14,0.2,0.2));
#481 = DIRECTION('',(3.474993633276E-18,-0.707106781187,-0.707106781187)
  );
#482 = DIRECTION('',(-1.,-2.457191562669E-18,-2.457191562669E-18));
#483 = ADVANCED_FACE('',(#484,#500,#646),#757,.T.);
#484 = FACE_BOUND('',#485,.T.);
#485 = EDGE_LOOP('',(#486,#487,#493,#494));
#486 = ORIENTED_EDGE('',*,*,#359,.F.);
#487 = ORIENTED_EDGE('',*,*,#488,.F.);
#488 = EDGE_CURVE('',#197,#352,#489,.T.);
#489 = LINE('',#490,#491);
#490 = CARTESIAN_POINT('',(1.24344978758E-14,184.,0.));
#491 = VECTOR('',#492,1.);
#492 = DIRECTION('',(0.,2.22044604925E-16,1.));
#493 = ORIENTED_EDGE('',*,*,#196,.T.);
#494 = ORIENTED_EDGE('',*,*,#495,.T.);
#495 = EDGE_CURVE('',#189,#360,#496,.T.);
#496 = LINE('',#497,#498);
#497 = CARTESIAN_POINT('',(1.24344978758E-14,0.4,3.907985046681E-14));
#498 = VECTOR('',#499,1.);
#499 = DIRECTION('',(0.,2.22044604925E-16,1.));
#500 = FACE_BOUND('',#501,.T.);
#501 = EDGE_LOOP('',(#502,#513,#521,#530,#538,#547,#555,#564,#572,#580,
    #589,#597,#606,#614,#623,#631,#640));
#502 = ORIENTED_EDGE('',*,*,#503,.F.);
#503 = EDGE_CURVE('',#504,#506,#508,.T.);
#504 = VERTEX_POINT('',#505);
#505 = CARTESIAN_POINT('',(1.24344978758E-14,92.,10.4));
#506 = VERTEX_POINT('',#507);
#507 = CARTESIAN_POINT('',(1.24344978758E-14,92.4,10.));
#508 = CIRCLE('',#509,0.4);
#509 = AXIS2_PLACEMENT_3D('',#510,#511,#512);
#510 = CARTESIAN_POINT('',(1.24344978758E-14,92.,10.));
#511 = DIRECTION('',(-1.,0.,0.));
#512 = DIRECTION('',(0.,-1.,0.));
#513 = ORIENTED_EDGE('',*,*,#514,.F.);
#514 = EDGE_CURVE('',#515,#504,#517,.T.);
#515 = VERTEX_POINT('',#516);
#516 = CARTESIAN_POINT('',(1.24344978758E-14,90.2,10.4));
#517 = LINE('',#518,#519);
#518 = CARTESIAN_POINT('',(1.24344978758E-14,92.,10.4));
#519 = VECTOR('',#520,1.);
#520 = DIRECTION('',(0.,1.,0.));
#521 = ORIENTED_EDGE('',*,*,#522,.F.);
#522 = EDGE_CURVE('',#523,#515,#525,.T.);
#523 = VERTEX_POINT('',#524);
#524 = CARTESIAN_POINT('',(1.24344978758E-14,89.943926240134,
    10.307288511839));
#525 = CIRCLE('',#526,0.4);
#526 = AXIS2_PLACEMENT_3D('',#527,#528,#529);
#527 = CARTESIAN_POINT('',(1.24344978758E-14,90.2,10.));
#528 = DIRECTION('',(-1.,0.,0.));
#529 = DIRECTION('',(0.,-1.,0.));
#530 = ORIENTED_EDGE('',*,*,#531,.F.);
#531 = EDGE_CURVE('',#532,#523,#534,.T.);
#532 = VERTEX_POINT('',#533);
#533 = CARTESIAN_POINT('',(1.24344978758E-14,89.343926240134,
    9.807288511839));
#534 = LINE('',#535,#536);
#535 = CARTESIAN_POINT('',(1.24344978758E-14,89.835729518823,
    10.217124577413));
#536 = VECTOR('',#537,1.);
#537 = DIRECTION('',(0.,0.768221279597,0.640184399664));
#538 = ORIENTED_EDGE('',*,*,#539,.F.);
#539 = EDGE_CURVE('',#540,#532,#542,.T.);
#540 = VERTEX_POINT('',#541);
#541 = CARTESIAN_POINT('',(1.24344978758E-14,89.2,9.5));
#542 = CIRCLE('',#543,0.4);
#543 = AXIS2_PLACEMENT_3D('',#544,#545,#546);
#544 = CARTESIAN_POINT('',(1.24344978758E-14,89.6,9.5));
#545 = DIRECTION('',(-1.,0.,0.));
#546 = DIRECTION('',(0.,-1.,0.));
#547 = ORIENTED_EDGE('',*,*,#548,.F.);
#548 = EDGE_CURVE('',#549,#540,#551,.T.);
#549 = VERTEX_POINT('',#550);
#550 = CARTESIAN_POINT('',(1.24344978758E-14,89.2,8.5));
#551 = LINE('',#552,#553);
#552 = CARTESIAN_POINT('',(1.24344978758E-14,89.2,8.45));
#553 = VECTOR('',#554,1.);
#554 = DIRECTION('',(0.,1.110223024625E-16,1.));
#555 = ORIENTED_EDGE('',*,*,#556,.F.);
#556 = EDGE_CURVE('',#557,#549,#559,.T.);
#557 = VERTEX_POINT('',#558);
#558 = CARTESIAN_POINT('',(1.24344978758E-14,89.343926240134,
    8.192711488161));
#559 = CIRCLE('',#560,0.4);
#560 = AXIS2_PLACEMENT_3D('',#561,#562,#563);
#561 = CARTESIAN_POINT('',(1.24344978758E-14,89.6,8.5));
#562 = DIRECTION('',(-1.,0.,0.));
#563 = DIRECTION('',(0.,-1.,0.));
#564 = ORIENTED_EDGE('',*,*,#565,.F.);
#565 = EDGE_CURVE('',#566,#557,#568,.T.);
#566 = VERTEX_POINT('',#567);
#567 = CARTESIAN_POINT('',(1.24344978758E-14,89.575180025927,8.));
#568 = LINE('',#569,#570);
#569 = CARTESIAN_POINT('',(1.24344978758E-14,90.322614764724,
    7.377137717669));
#570 = VECTOR('',#571,1.);
#571 = DIRECTION('',(0.,-0.768221279597,0.640184399664));
#572 = ORIENTED_EDGE('',*,*,#573,.F.);
#573 = EDGE_CURVE('',#574,#566,#576,.T.);
#574 = VERTEX_POINT('',#575);
#575 = CARTESIAN_POINT('',(1.24344978758E-14,89.343926240134,
    7.807288511839));
#576 = LINE('',#577,#578);
#577 = CARTESIAN_POINT('',(1.24344978758E-14,90.327532797511,
    8.626960642987));
#578 = VECTOR('',#579,1.);
#579 = DIRECTION('',(0.,0.768221279597,0.640184399664));
#580 = ORIENTED_EDGE('',*,*,#581,.F.);
#581 = EDGE_CURVE('',#582,#574,#584,.T.);
#582 = VERTEX_POINT('',#583);
#583 = CARTESIAN_POINT('',(1.24344978758E-14,89.2,7.5));
#584 = CIRCLE('',#585,0.4);
#585 = AXIS2_PLACEMENT_3D('',#586,#587,#588);
#586 = CARTESIAN_POINT('',(1.24344978758E-14,89.6,7.5));
#587 = DIRECTION('',(-1.,0.,0.));
#588 = DIRECTION('',(0.,-1.,0.));
#589 = ORIENTED_EDGE('',*,*,#590,.F.);
#590 = EDGE_CURVE('',#591,#582,#593,.T.);
#591 = VERTEX_POINT('',#592);
#592 = CARTESIAN_POINT('',(1.24344978758E-14,89.2,6.5));
#593 = LINE('',#594,#595);
#594 = CARTESIAN_POINT('',(1.24344978758E-14,89.2,7.45));
#595 = VECTOR('',#596,1.);
#596 = DIRECTION('',(0.,1.110223024625E-16,1.));
#597 = ORIENTED_EDGE('',*,*,#598,.F.);
#598 = EDGE_CURVE('',#599,#591,#601,.T.);
#599 = VERTEX_POINT('',#600);
#600 = CARTESIAN_POINT('',(1.24344978758E-14,89.343926240134,
    6.192711488161));
#601 = CIRCLE('',#602,0.4);
#602 = AXIS2_PLACEMENT_3D('',#603,#604,#605);
#603 = CARTESIAN_POINT('',(1.24344978758E-14,89.6,6.5));
#604 = DIRECTION('',(-1.,0.,0.));
#605 = DIRECTION('',(0.,-1.,0.));
#606 = ORIENTED_EDGE('',*,*,#607,.F.);
#607 = EDGE_CURVE('',#608,#599,#610,.T.);
#608 = VERTEX_POINT('',#609);
#609 = CARTESIAN_POINT('',(1.24344978758E-14,89.943926240134,
    5.692711488161));
#610 = LINE('',#611,#612);
#611 = CARTESIAN_POINT('',(1.24344978758E-14,89.830811486036,
    5.786973783243));
#612 = VECTOR('',#613,1.);
#613 = DIRECTION('',(0.,-0.768221279597,0.640184399664));
#614 = ORIENTED_EDGE('',*,*,#615,.F.);
#615 = EDGE_CURVE('',#616,#608,#618,.T.);
#616 = VERTEX_POINT('',#617);
#617 = CARTESIAN_POINT('',(1.24344978758E-14,90.2,5.6));
#618 = CIRCLE('',#619,0.4);
#619 = AXIS2_PLACEMENT_3D('',#620,#621,#622);
#620 = CARTESIAN_POINT('',(1.24344978758E-14,90.2,6.));
#621 = DIRECTION('',(-1.,0.,0.));
#622 = DIRECTION('',(0.,-1.,0.));
#623 = ORIENTED_EDGE('',*,*,#624,.F.);
#624 = EDGE_CURVE('',#625,#616,#627,.T.);
#625 = VERTEX_POINT('',#626);
#626 = CARTESIAN_POINT('',(1.24344978758E-14,92.,5.6));
#627 = LINE('',#628,#629);
#628 = CARTESIAN_POINT('',(1.24344978758E-14,91.1,5.6));
#629 = VECTOR('',#630,1.);
#630 = DIRECTION('',(0.,-1.,-1.224646799147E-16));
#631 = ORIENTED_EDGE('',*,*,#632,.F.);
#632 = EDGE_CURVE('',#633,#625,#635,.T.);
#633 = VERTEX_POINT('',#634);
#634 = CARTESIAN_POINT('',(1.24344978758E-14,92.4,6.));
#635 = CIRCLE('',#636,0.4);
#636 = AXIS2_PLACEMENT_3D('',#637,#638,#639);
#637 = CARTESIAN_POINT('',(1.24344978758E-14,92.,6.));
#638 = DIRECTION('',(-1.,0.,0.));
#639 = DIRECTION('',(0.,-1.,0.));
#640 = ORIENTED_EDGE('',*,*,#641,.F.);
#641 = EDGE_CURVE('',#506,#633,#642,.T.);
#642 = LINE('',#643,#644);
#643 = CARTESIAN_POINT('',(1.24344978758E-14,92.4,6.7));
#644 = VECTOR('',#645,1.);
#645 = DIRECTION('',(0.,1.110223024625E-16,-1.));
#646 = FACE_BOUND('',#647,.T.);
#647 = EDGE_LOOP('',(#648,#659,#667,#676,#684,#693,#701,#709,#718,#726,
    #735,#743,#751));
#648 = ORIENTED_EDGE('',*,*,#649,.F.);
#649 = EDGE_CURVE('',#650,#652,#654,.T.);
#650 = VERTEX_POINT('',#651);
#651 = CARTESIAN_POINT('',(1.24344978758E-14,88.2,10.4));
#652 = VERTEX_POINT('',#653);
#653 = CARTESIAN_POINT('',(1.24344978758E-14,88.2,9.6));
#654 = CIRCLE('',#655,0.4);
#655 = AXIS2_PLACEMENT_3D('',#656,#657,#658);
#656 = CARTESIAN_POINT('',(1.24344978758E-14,88.2,10.));
#657 = DIRECTION('',(-1.,0.,0.));
#658 = DIRECTION('',(0.,-1.,0.));
#659 = ORIENTED_EDGE('',*,*,#660,.F.);
#660 = EDGE_CURVE('',#661,#650,#663,.T.);
#661 = VERTEX_POINT('',#662);
#662 = CARTESIAN_POINT('',(1.24344978758E-14,85.8,10.4));
#663 = LINE('',#664,#665);
#664 = CARTESIAN_POINT('',(1.24344978758E-14,90.1,10.4));
#665 = VECTOR('',#666,1.);
#666 = DIRECTION('',(0.,1.,0.));
#667 = ORIENTED_EDGE('',*,*,#668,.F.);
#668 = EDGE_CURVE('',#669,#661,#671,.T.);
#669 = VERTEX_POINT('',#670);
#670 = CARTESIAN_POINT('',(1.24344978758E-14,85.4,10.));
#671 = CIRCLE('',#672,0.4);
#672 = AXIS2_PLACEMENT_3D('',#673,#674,#675);
#673 = CARTESIAN_POINT('',(1.24344978758E-14,85.8,10.));
#674 = DIRECTION('',(-1.,0.,0.));
#675 = DIRECTION('',(0.,-1.,0.));
#676 = ORIENTED_EDGE('',*,*,#677,.F.);
#677 = EDGE_CURVE('',#678,#669,#680,.T.);
#678 = VERTEX_POINT('',#679);
#679 = CARTESIAN_POINT('',(1.24344978758E-14,85.4,8.5));
#680 = LINE('',#681,#682);
#681 = CARTESIAN_POINT('',(1.24344978758E-14,85.4,8.7));
#682 = VECTOR('',#683,1.);
#683 = DIRECTION('',(0.,1.110223024625E-16,1.));
#684 = ORIENTED_EDGE('',*,*,#685,.F.);
#685 = EDGE_CURVE('',#686,#678,#688,.T.);
#686 = VERTEX_POINT('',#687);
#687 = CARTESIAN_POINT('',(1.24344978758E-14,85.511445071588,
    8.222987268724));
#688 = CIRCLE('',#689,0.4);
#689 = AXIS2_PLACEMENT_3D('',#690,#691,#692);
#690 = CARTESIAN_POINT('',(1.24344978758E-14,85.8,8.5));
#691 = DIRECTION('',(-1.,0.,0.));
#692 = DIRECTION('',(0.,-1.,0.));
#693 = ORIENTED_EDGE('',*,*,#694,.F.);
#694 = EDGE_CURVE('',#695,#686,#697,.T.);
#695 = VERTEX_POINT('',#696);
#696 = CARTESIAN_POINT('',(1.24344978758E-14,87.261512849563,6.4));
#697 = LINE('',#698,#699);
#698 = CARTESIAN_POINT('',(1.237898672457E-14,87.272977128207,
    6.388058043079));
#699 = VECTOR('',#700,1.);
#700 = DIRECTION('',(0.,-0.69253182819,0.721387321031));
#701 = ORIENTED_EDGE('',*,*,#702,.F.);
#702 = EDGE_CURVE('',#703,#695,#705,.T.);
#703 = VERTEX_POINT('',#704);
#704 = CARTESIAN_POINT('',(1.24344978758E-14,85.8,6.4));
#705 = LINE('',#706,#707);
#706 = CARTESIAN_POINT('',(1.24344978758E-14,90.1,6.4));
#707 = VECTOR('',#708,1.);
#708 = DIRECTION('',(0.,1.,0.));
#709 = ORIENTED_EDGE('',*,*,#710,.F.);
#710 = EDGE_CURVE('',#711,#703,#713,.T.);
#711 = VERTEX_POINT('',#712);
#712 = CARTESIAN_POINT('',(1.24344978758E-14,85.8,5.6));
#713 = CIRCLE('',#714,0.4);
#714 = AXIS2_PLACEMENT_3D('',#715,#716,#717);
#715 = CARTESIAN_POINT('',(1.24344978758E-14,85.8,6.));
#716 = DIRECTION('',(-1.,0.,0.));
#717 = DIRECTION('',(0.,-1.,0.));
#718 = ORIENTED_EDGE('',*,*,#719,.T.);
#719 = EDGE_CURVE('',#711,#720,#722,.T.);
#720 = VERTEX_POINT('',#721);
#721 = CARTESIAN_POINT('',(1.24344978758E-14,88.2,5.6));
#722 = LINE('',#723,#724);
#723 = CARTESIAN_POINT('',(1.24344978758E-14,90.1,5.6));
#724 = VECTOR('',#725,1.);
#725 = DIRECTION('',(0.,1.,0.));
#726 = ORIENTED_EDGE('',*,*,#727,.F.);
#727 = EDGE_CURVE('',#728,#720,#730,.T.);
#728 = VERTEX_POINT('',#729);
#729 = CARTESIAN_POINT('',(1.24344978758E-14,88.488554928412,
    6.277012731276));
#730 = CIRCLE('',#731,0.4);
#731 = AXIS2_PLACEMENT_3D('',#732,#733,#734);
#732 = CARTESIAN_POINT('',(1.24344978758E-14,88.2,6.));
#733 = DIRECTION('',(-1.,0.,0.));
#734 = DIRECTION('',(0.,-1.,0.));
#735 = ORIENTED_EDGE('',*,*,#736,.T.);
#736 = EDGE_CURVE('',#728,#737,#739,.T.);
#737 = VERTEX_POINT('',#738);
#738 = CARTESIAN_POINT('',(1.24344978758E-14,86.2,8.660924115039));
#739 = LINE('',#740,#741);
#740 = CARTESIAN_POINT('',(1.237898672457E-14,87.850086985032,
    6.942083505631));
#741 = VECTOR('',#742,1.);
#742 = DIRECTION('',(0.,-0.69253182819,0.721387321031));
#743 = ORIENTED_EDGE('',*,*,#744,.T.);
#744 = EDGE_CURVE('',#737,#745,#747,.T.);
#745 = VERTEX_POINT('',#746);
#746 = CARTESIAN_POINT('',(1.24344978758E-14,86.2,9.6));
#747 = LINE('',#748,#749);
#748 = CARTESIAN_POINT('',(1.24344978758E-14,86.2,8.7));
#749 = VECTOR('',#750,1.);
#750 = DIRECTION('',(0.,1.110223024625E-16,1.));
#751 = ORIENTED_EDGE('',*,*,#752,.T.);
#752 = EDGE_CURVE('',#745,#652,#753,.T.);
#753 = LINE('',#754,#755);
#754 = CARTESIAN_POINT('',(1.24344978758E-14,90.1,9.6));
#755 = VECTOR('',#756,1.);
#756 = DIRECTION('',(0.,1.,0.));
#757 = PLANE('',#758);
#758 = AXIS2_PLACEMENT_3D('',#759,#760,#761);
#759 = CARTESIAN_POINT('',(1.24344978758E-14,92.,7.4));
#760 = DIRECTION('',(-1.,0.,-0.));
#761 = DIRECTION('',(0.,1.,-2.22044604925E-16));
#762 = ADVANCED_FACE('',(#763),#769,.F.);
#763 = FACE_BOUND('',#764,.F.);
#764 = EDGE_LOOP('',(#765,#766,#767,#768));
#765 = ORIENTED_EDGE('',*,*,#488,.F.);
#766 = ORIENTED_EDGE('',*,*,#204,.T.);
#767 = ORIENTED_EDGE('',*,*,#454,.T.);
#768 = ORIENTED_EDGE('',*,*,#351,.F.);
#769 = PLANE('',#770);
#770 = AXIS2_PLACEMENT_3D('',#771,#772,#773);
#771 = CARTESIAN_POINT('',(1.24344978758E-14,184.,0.));
#772 = DIRECTION('',(0.,-1.,2.22044604925E-16));
#773 = DIRECTION('',(1.,0.,0.));
#774 = ADVANCED_FACE('',(#775),#794,.F.);
#775 = FACE_BOUND('',#776,.F.);
#776 = EDGE_LOOP('',(#777,#778,#786,#793));
#777 = ORIENTED_EDGE('',*,*,#221,.T.);
#778 = ORIENTED_EDGE('',*,*,#779,.T.);
#779 = EDGE_CURVE('',#222,#780,#782,.T.);
#780 = VERTEX_POINT('',#781);
#781 = CARTESIAN_POINT('',(6.5,9.2,2.));
#782 = LINE('',#783,#784);
#783 = CARTESIAN_POINT('',(6.5,9.2,-9.999999999996E-02));
#784 = VECTOR('',#785,1.);
#785 = DIRECTION('',(0.,2.22044604925E-16,1.));
#786 = ORIENTED_EDGE('',*,*,#787,.F.);
#787 = EDGE_CURVE('',#780,#780,#788,.T.);
#788 = CIRCLE('',#789,1.8);
#789 = AXIS2_PLACEMENT_3D('',#790,#791,#792);
#790 = CARTESIAN_POINT('',(6.5,11.,2.));
#791 = DIRECTION('',(-0.,2.22044604925E-16,1.));
#792 = DIRECTION('',(0.,-1.,2.22044604925E-16));
#793 = ORIENTED_EDGE('',*,*,#779,.F.);
#794 = CYLINDRICAL_SURFACE('',#795,1.8);
#795 = AXIS2_PLACEMENT_3D('',#796,#797,#798);
#796 = CARTESIAN_POINT('',(6.5,11.,-9.999999999996E-02));
#797 = DIRECTION('',(0.,2.22044604925E-16,1.));
#798 = DIRECTION('',(0.,-1.,2.22044604925E-16));
#799 = ADVANCED_FACE('',(#800),#819,.F.);
#800 = FACE_BOUND('',#801,.F.);
#801 = EDGE_LOOP('',(#802,#810,#817,#818));
#802 = ORIENTED_EDGE('',*,*,#803,.T.);
#803 = EDGE_CURVE('',#233,#804,#806,.T.);
#804 = VERTEX_POINT('',#805);
#805 = CARTESIAN_POINT('',(6.5,40.8,11.8));
#806 = LINE('',#807,#808);
#807 = CARTESIAN_POINT('',(6.5,40.8,-15.2));
#808 = VECTOR('',#809,1.);
#809 = DIRECTION('',(0.,2.22044604925E-16,1.));
#810 = ORIENTED_EDGE('',*,*,#811,.F.);
#811 = EDGE_CURVE('',#804,#804,#812,.T.);
#812 = CIRCLE('',#813,3.2);
#813 = AXIS2_PLACEMENT_3D('',#814,#815,#816);
#814 = CARTESIAN_POINT('',(6.5,44.,11.8));
#815 = DIRECTION('',(-0.,2.22044604925E-16,1.));
#816 = DIRECTION('',(0.,-1.,2.22044604925E-16));
#817 = ORIENTED_EDGE('',*,*,#803,.F.);
#818 = ORIENTED_EDGE('',*,*,#232,.T.);
#819 = CYLINDRICAL_SURFACE('',#820,3.2);
#820 = AXIS2_PLACEMENT_3D('',#821,#822,#823);
#821 = CARTESIAN_POINT('',(6.5,44.,-15.2));
#822 = DIRECTION('',(0.,2.22044604925E-16,1.));
#823 = DIRECTION('',(0.,-1.,2.22044604925E-16));
#824 = ADVANCED_FACE('',(#825),#844,.F.);
#825 = FACE_BOUND('',#826,.F.);
#826 = EDGE_LOOP('',(#827,#835,#842,#843));
#827 = ORIENTED_EDGE('',*,*,#828,.T.);
#828 = EDGE_CURVE('',#244,#829,#831,.T.);
#829 = VERTEX_POINT('',#830);
#830 = CARTESIAN_POINT('',(6.5,144.8,11.8));
#831 = LINE('',#832,#833);
#832 = CARTESIAN_POINT('',(6.5,144.8,-15.2));
#833 = VECTOR('',#834,1.);
#834 = DIRECTION('',(0.,2.22044604925E-16,1.));
#835 = ORIENTED_EDGE('',*,*,#836,.F.);
#836 = EDGE_CURVE('',#829,#829,#837,.T.);
#837 = CIRCLE('',#838,3.2);
#838 = AXIS2_PLACEMENT_3D('',#839,#840,#841);
#839 = CARTESIAN_POINT('',(6.5,148.,11.8));
#840 = DIRECTION('',(-0.,2.22044604925E-16,1.));
#841 = DIRECTION('',(0.,-1.,2.22044604925E-16));
#842 = ORIENTED_EDGE('',*,*,#828,.F.);
#843 = ORIENTED_EDGE('',*,*,#243,.T.);
#844 = CYLINDRICAL_SURFACE('',#845,3.2);
#845 = AXIS2_PLACEMENT_3D('',#846,#847,#848);
#846 = CARTESIAN_POINT('',(6.5,148.,-15.2));
#847 = DIRECTION('',(0.,2.22044604925E-16,1.));
#848 = DIRECTION('',(0.,-1.,2.22044604925E-16));
#849 = ADVANCED_FACE('',(#850),#861,.T.);
#850 = FACE_BOUND('',#851,.T.);
#851 = EDGE_LOOP('',(#852,#858,#859,#860));
#852 = ORIENTED_EDGE('',*,*,#853,.T.);
#853 = EDGE_CURVE('',#360,#311,#854,.T.);
#854 = LINE('',#855,#856);
#855 = CARTESIAN_POINT('',(2.6,-2.2,12.2));
#856 = VECTOR('',#857,1.);
#857 = DIRECTION('',(0.57735026919,-0.57735026919,-0.57735026919));
#858 = ORIENTED_EDGE('',*,*,#310,.T.);
#859 = ORIENTED_EDGE('',*,*,#286,.F.);
#860 = ORIENTED_EDGE('',*,*,#367,.F.);
#861 = PLANE('',#862);
#862 = AXIS2_PLACEMENT_3D('',#863,#864,#865);
#863 = CARTESIAN_POINT('',(1.24344978758E-14,0.2,14.6));
#864 = DIRECTION('',(-3.474993633276E-18,-0.707106781187,0.707106781187)
  );
#865 = DIRECTION('',(1.,-2.457191562669E-18,2.457191562669E-18));
#866 = ADVANCED_FACE('',(#867),#873,.T.);
#867 = FACE_BOUND('',#868,.F.);
#868 = EDGE_LOOP('',(#869,#870,#871,#872));
#869 = ORIENTED_EDGE('',*,*,#470,.F.);
#870 = ORIENTED_EDGE('',*,*,#495,.T.);
#871 = ORIENTED_EDGE('',*,*,#853,.T.);
#872 = ORIENTED_EDGE('',*,*,#318,.F.);
#873 = PLANE('',#874);
#874 = AXIS2_PLACEMENT_3D('',#875,#876,#877);
#875 = CARTESIAN_POINT('',(0.2,0.2,3.907985046681E-14));
#876 = DIRECTION('',(-0.707106781187,-0.707106781187,1.535342522351E-16)
  );
#877 = DIRECTION('',(2.457191562669E-18,-2.195874133624E-16,-1.));
#878 = ADVANCED_FACE('',(#879),#904,.T.);
#879 = FACE_BOUND('',#880,.T.);
#880 = EDGE_LOOP('',(#881,#891,#897,#898));
#881 = ORIENTED_EDGE('',*,*,#882,.F.);
#882 = EDGE_CURVE('',#883,#885,#887,.T.);
#883 = VERTEX_POINT('',#884);
#884 = CARTESIAN_POINT('',(6.5,14.406366588219,2.));
#885 = VERTEX_POINT('',#886);
#886 = CARTESIAN_POINT('',(3.55,12.703183294109,2.));
#887 = LINE('',#888,#889);
#888 = CARTESIAN_POINT('',(6.5,14.406366588219,2.));
#889 = VECTOR('',#890,1.);
#890 = DIRECTION('',(-0.866025403784,-0.5,0.));
#891 = ORIENTED_EDGE('',*,*,#892,.T.);
#892 = EDGE_CURVE('',#883,#378,#893,.T.);
#893 = LINE('',#894,#895);
#894 = CARTESIAN_POINT('',(6.5,14.406366588219,2.));
#895 = VECTOR('',#896,1.);
#896 = DIRECTION('',(0.,0.,1.));
#897 = ORIENTED_EDGE('',*,*,#375,.F.);
#898 = ORIENTED_EDGE('',*,*,#899,.F.);
#899 = EDGE_CURVE('',#885,#376,#900,.T.);
#900 = LINE('',#901,#902);
#901 = CARTESIAN_POINT('',(3.55,12.703183294109,2.));
#902 = VECTOR('',#903,1.);
#903 = DIRECTION('',(0.,0.,1.));
#904 = PLANE('',#905);
#905 = AXIS2_PLACEMENT_3D('',#906,#907,#908);
#906 = CARTESIAN_POINT('',(6.5,14.406366588219,2.));
#907 = DIRECTION('',(0.5,-0.866025403784,0.));
#908 = DIRECTION('',(-0.866025403784,-0.5,0.));
#909 = ADVANCED_FACE('',(#910),#928,.T.);
#910 = FACE_BOUND('',#911,.T.);
#911 = EDGE_LOOP('',(#912,#920,#921,#922));
#912 = ORIENTED_EDGE('',*,*,#913,.F.);
#913 = EDGE_CURVE('',#885,#914,#916,.T.);
#914 = VERTEX_POINT('',#915);
#915 = CARTESIAN_POINT('',(3.55,9.296816705891,2.));
#916 = LINE('',#917,#918);
#917 = CARTESIAN_POINT('',(3.55,12.703183294109,2.));
#918 = VECTOR('',#919,1.);
#919 = DIRECTION('',(1.303703516192E-16,-1.,0.));
#920 = ORIENTED_EDGE('',*,*,#899,.T.);
#921 = ORIENTED_EDGE('',*,*,#417,.F.);
#922 = ORIENTED_EDGE('',*,*,#923,.F.);
#923 = EDGE_CURVE('',#914,#410,#924,.T.);
#924 = LINE('',#925,#926);
#925 = CARTESIAN_POINT('',(3.55,9.296816705891,2.));
#926 = VECTOR('',#927,1.);
#927 = DIRECTION('',(0.,0.,1.));
#928 = PLANE('',#929);
#929 = AXIS2_PLACEMENT_3D('',#930,#931,#932);
#930 = CARTESIAN_POINT('',(3.55,12.703183294109,2.));
#931 = DIRECTION('',(1.,1.303703516192E-16,0.));
#932 = DIRECTION('',(1.303703516192E-16,-1.,0.));
#933 = ADVANCED_FACE('',(#934),#952,.T.);
#934 = FACE_BOUND('',#935,.T.);
#935 = EDGE_LOOP('',(#936,#944,#945,#946));
#936 = ORIENTED_EDGE('',*,*,#937,.F.);
#937 = EDGE_CURVE('',#914,#938,#940,.T.);
#938 = VERTEX_POINT('',#939);
#939 = CARTESIAN_POINT('',(6.5,7.593633411781,2.));
#940 = LINE('',#941,#942);
#941 = CARTESIAN_POINT('',(3.55,9.296816705891,2.));
#942 = VECTOR('',#943,1.);
#943 = DIRECTION('',(0.866025403784,-0.5,0.));
#944 = ORIENTED_EDGE('',*,*,#923,.T.);
#945 = ORIENTED_EDGE('',*,*,#409,.F.);
#946 = ORIENTED_EDGE('',*,*,#947,.F.);
#947 = EDGE_CURVE('',#938,#402,#948,.T.);
#948 = LINE('',#949,#950);
#949 = CARTESIAN_POINT('',(6.5,7.593633411781,2.));
#950 = VECTOR('',#951,1.);
#951 = DIRECTION('',(0.,0.,1.));
#952 = PLANE('',#953);
#953 = AXIS2_PLACEMENT_3D('',#954,#955,#956);
#954 = CARTESIAN_POINT('',(3.55,9.296816705891,2.));
#955 = DIRECTION('',(0.5,0.866025403784,0.));
#956 = DIRECTION('',(0.866025403784,-0.5,0.));
#957 = ADVANCED_FACE('',(#958),#976,.T.);
#958 = FACE_BOUND('',#959,.T.);
#959 = EDGE_LOOP('',(#960,#968,#969,#970));
#960 = ORIENTED_EDGE('',*,*,#961,.F.);
#961 = EDGE_CURVE('',#938,#962,#964,.T.);
#962 = VERTEX_POINT('',#963);
#963 = CARTESIAN_POINT('',(9.45,9.296816705891,2.));
#964 = LINE('',#965,#966);
#965 = CARTESIAN_POINT('',(6.5,7.593633411781,2.));
#966 = VECTOR('',#967,1.);
#967 = DIRECTION('',(0.866025403784,0.5,0.));
#968 = ORIENTED_EDGE('',*,*,#947,.T.);
#969 = ORIENTED_EDGE('',*,*,#401,.F.);
#970 = ORIENTED_EDGE('',*,*,#971,.F.);
#971 = EDGE_CURVE('',#962,#394,#972,.T.);
#972 = LINE('',#973,#974);
#973 = CARTESIAN_POINT('',(9.45,9.296816705891,2.));
#974 = VECTOR('',#975,1.);
#975 = DIRECTION('',(0.,0.,1.));
#976 = PLANE('',#977);
#977 = AXIS2_PLACEMENT_3D('',#978,#979,#980);
#978 = CARTESIAN_POINT('',(6.5,7.593633411781,2.));
#979 = DIRECTION('',(-0.5,0.866025403784,0.));
#980 = DIRECTION('',(0.866025403784,0.5,0.));
#981 = ADVANCED_FACE('',(#982),#1000,.T.);
#982 = FACE_BOUND('',#983,.T.);
#983 = EDGE_LOOP('',(#984,#992,#993,#994));
#984 = ORIENTED_EDGE('',*,*,#985,.F.);
#985 = EDGE_CURVE('',#962,#986,#988,.T.);
#986 = VERTEX_POINT('',#987);
#987 = CARTESIAN_POINT('',(9.45,12.703183294109,2.));
#988 = LINE('',#989,#990);
#989 = CARTESIAN_POINT('',(9.45,9.296816705891,2.));
#990 = VECTOR('',#991,1.);
#991 = DIRECTION('',(2.607407032384E-16,1.,0.));
#992 = ORIENTED_EDGE('',*,*,#971,.T.);
#993 = ORIENTED_EDGE('',*,*,#393,.F.);
#994 = ORIENTED_EDGE('',*,*,#995,.F.);
#995 = EDGE_CURVE('',#986,#386,#996,.T.);
#996 = LINE('',#997,#998);
#997 = CARTESIAN_POINT('',(9.45,12.703183294109,2.));
#998 = VECTOR('',#999,1.);
#999 = DIRECTION('',(0.,0.,1.));
#1000 = PLANE('',#1001);
#1001 = AXIS2_PLACEMENT_3D('',#1002,#1003,#1004);
#1002 = CARTESIAN_POINT('',(9.45,9.296816705891,2.));
#1003 = DIRECTION('',(-1.,2.607407032384E-16,0.));
#1004 = DIRECTION('',(2.607407032384E-16,1.,0.));
#1005 = ADVANCED_FACE('',(#1006),#1017,.T.);
#1006 = FACE_BOUND('',#1007,.T.);
#1007 = EDGE_LOOP('',(#1008,#1014,#1015,#1016));
#1008 = ORIENTED_EDGE('',*,*,#1009,.F.);
#1009 = EDGE_CURVE('',#986,#883,#1010,.T.);
#1010 = LINE('',#1011,#1012);
#1011 = CARTESIAN_POINT('',(9.45,12.703183294109,2.));
#1012 = VECTOR('',#1013,1.);
#1013 = DIRECTION('',(-0.866025403784,0.5,0.));
#1014 = ORIENTED_EDGE('',*,*,#995,.T.);
#1015 = ORIENTED_EDGE('',*,*,#385,.F.);
#1016 = ORIENTED_EDGE('',*,*,#892,.F.);
#1017 = PLANE('',#1018);
#1018 = AXIS2_PLACEMENT_3D('',#1019,#1020,#1021);
#1019 = CARTESIAN_POINT('',(9.45,12.703183294109,2.));
#1020 = DIRECTION('',(-0.5,-0.866025403784,0.));
#1021 = DIRECTION('',(-0.866025403784,0.5,0.));
#1022 = ADVANCED_FACE('',(#1023),#1042,.F.);
#1023 = FACE_BOUND('',#1024,.F.);
#1024 = EDGE_LOOP('',(#1025,#1026,#1034,#1041));
#1025 = ORIENTED_EDGE('',*,*,#425,.F.);
#1026 = ORIENTED_EDGE('',*,*,#1027,.F.);
#1027 = EDGE_CURVE('',#1028,#426,#1030,.T.);
#1028 = VERTEX_POINT('',#1029);
#1029 = CARTESIAN_POINT('',(6.5,146.2,11.8));
#1030 = LINE('',#1031,#1032);
#1031 = CARTESIAN_POINT('',(6.5,146.2,11.7));
#1032 = VECTOR('',#1033,1.);
#1033 = DIRECTION('',(0.,2.22044604925E-16,1.));
#1034 = ORIENTED_EDGE('',*,*,#1035,.T.);
#1035 = EDGE_CURVE('',#1028,#1028,#1036,.T.);
#1036 = CIRCLE('',#1037,1.8);
#1037 = AXIS2_PLACEMENT_3D('',#1038,#1039,#1040);
#1038 = CARTESIAN_POINT('',(6.5,148.,11.8));
#1039 = DIRECTION('',(-0.,2.22044604925E-16,1.));
#1040 = DIRECTION('',(0.,-1.,2.22044604925E-16));
#1041 = ORIENTED_EDGE('',*,*,#1027,.T.);
#1042 = CYLINDRICAL_SURFACE('',#1043,1.8);
#1043 = AXIS2_PLACEMENT_3D('',#1044,#1045,#1046);
#1044 = CARTESIAN_POINT('',(6.5,148.,11.7));
#1045 = DIRECTION('',(0.,2.22044604925E-16,1.));
#1046 = DIRECTION('',(0.,-1.,2.22044604925E-16));
#1047 = ADVANCED_FACE('',(#1048),#1067,.F.);
#1048 = FACE_BOUND('',#1049,.F.);
#1049 = EDGE_LOOP('',(#1050,#1051,#1059,#1066));
#1050 = ORIENTED_EDGE('',*,*,#436,.F.);
#1051 = ORIENTED_EDGE('',*,*,#1052,.F.);
#1052 = EDGE_CURVE('',#1053,#437,#1055,.T.);
#1053 = VERTEX_POINT('',#1054);
#1054 = CARTESIAN_POINT('',(6.5,42.2,11.8));
#1055 = LINE('',#1056,#1057);
#1056 = CARTESIAN_POINT('',(6.5,42.2,11.7));
#1057 = VECTOR('',#1058,1.);
#1058 = DIRECTION('',(0.,2.22044604925E-16,1.));
#1059 = ORIENTED_EDGE('',*,*,#1060,.T.);
#1060 = EDGE_CURVE('',#1053,#1053,#1061,.T.);
#1061 = CIRCLE('',#1062,1.8);
#1062 = AXIS2_PLACEMENT_3D('',#1063,#1064,#1065);
#1063 = CARTESIAN_POINT('',(6.5,44.,11.8));
#1064 = DIRECTION('',(-0.,2.22044604925E-16,1.));
#1065 = DIRECTION('',(0.,-1.,2.22044604925E-16));
#1066 = ORIENTED_EDGE('',*,*,#1052,.T.);
#1067 = CYLINDRICAL_SURFACE('',#1068,1.8);
#1068 = AXIS2_PLACEMENT_3D('',#1069,#1070,#1071);
#1069 = CARTESIAN_POINT('',(6.5,44.,11.7));
#1070 = DIRECTION('',(0.,2.22044604925E-16,1.));
#1071 = DIRECTION('',(0.,-1.,2.22044604925E-16));
#1072 = ADVANCED_FACE('',(#1073),#1099,.F.);
#1073 = FACE_BOUND('',#1074,.F.);
#1074 = EDGE_LOOP('',(#1075,#1076,#1084,#1093));
#1075 = ORIENTED_EDGE('',*,*,#503,.F.);
#1076 = ORIENTED_EDGE('',*,*,#1077,.F.);
#1077 = EDGE_CURVE('',#1078,#504,#1080,.T.);
#1078 = VERTEX_POINT('',#1079);
#1079 = CARTESIAN_POINT('',(0.4,92.,10.4));
#1080 = LINE('',#1081,#1082);
#1081 = CARTESIAN_POINT('',(0.4,92.,10.4));
#1082 = VECTOR('',#1083,1.);
#1083 = DIRECTION('',(-1.,0.,0.));
#1084 = ORIENTED_EDGE('',*,*,#1085,.T.);
#1085 = EDGE_CURVE('',#1078,#1086,#1088,.T.);
#1086 = VERTEX_POINT('',#1087);
#1087 = CARTESIAN_POINT('',(0.4,92.4,10.));
#1088 = CIRCLE('',#1089,0.4);
#1089 = AXIS2_PLACEMENT_3D('',#1090,#1091,#1092);
#1090 = CARTESIAN_POINT('',(0.4,92.,10.));
#1091 = DIRECTION('',(-1.,0.,0.));
#1092 = DIRECTION('',(0.,-1.,0.));
#1093 = ORIENTED_EDGE('',*,*,#1094,.T.);
#1094 = EDGE_CURVE('',#1086,#506,#1095,.T.);
#1095 = LINE('',#1096,#1097);
#1096 = CARTESIAN_POINT('',(0.4,92.4,10.));
#1097 = VECTOR('',#1098,1.);
#1098 = DIRECTION('',(-1.,0.,0.));
#1099 = CYLINDRICAL_SURFACE('',#1100,0.4);
#1100 = AXIS2_PLACEMENT_3D('',#1101,#1102,#1103);
#1101 = CARTESIAN_POINT('',(0.4,92.,10.));
#1102 = DIRECTION('',(-1.,0.,0.));
#1103 = DIRECTION('',(0.,-1.,0.));
#1104 = ADVANCED_FACE('',(#1105),#1123,.F.);
#1105 = FACE_BOUND('',#1106,.F.);
#1106 = EDGE_LOOP('',(#1107,#1115,#1121,#1122));
#1107 = ORIENTED_EDGE('',*,*,#1108,.F.);
#1108 = EDGE_CURVE('',#1109,#1086,#1111,.T.);
#1109 = VERTEX_POINT('',#1110);
#1110 = CARTESIAN_POINT('',(0.4,92.4,6.));
#1111 = LINE('',#1112,#1113);
#1112 = CARTESIAN_POINT('',(0.4,92.4,6.));
#1113 = VECTOR('',#1114,1.);
#1114 = DIRECTION('',(0.,-1.110223024625E-16,1.));
#1115 = ORIENTED_EDGE('',*,*,#1116,.T.);
#1116 = EDGE_CURVE('',#1109,#633,#1117,.T.);
#1117 = LINE('',#1118,#1119);
#1118 = CARTESIAN_POINT('',(0.4,92.4,6.));
#1119 = VECTOR('',#1120,1.);
#1120 = DIRECTION('',(-1.,0.,0.));
#1121 = ORIENTED_EDGE('',*,*,#641,.F.);
#1122 = ORIENTED_EDGE('',*,*,#1094,.F.);
#1123 = PLANE('',#1124);
#1124 = AXIS2_PLACEMENT_3D('',#1125,#1126,#1127);
#1125 = CARTESIAN_POINT('',(0.4,92.4,6.));
#1126 = DIRECTION('',(0.,1.,1.110223024625E-16));
#1127 = DIRECTION('',(-1.,0.,0.));
#1128 = ADVANCED_FACE('',(#1129),#1148,.F.);
#1129 = FACE_BOUND('',#1130,.F.);
#1130 = EDGE_LOOP('',(#1131,#1140,#1146,#1147));
#1131 = ORIENTED_EDGE('',*,*,#1132,.T.);
#1132 = EDGE_CURVE('',#1109,#1133,#1135,.T.);
#1133 = VERTEX_POINT('',#1134);
#1134 = CARTESIAN_POINT('',(0.4,92.,5.6));
#1135 = CIRCLE('',#1136,0.4);
#1136 = AXIS2_PLACEMENT_3D('',#1137,#1138,#1139);
#1137 = CARTESIAN_POINT('',(0.4,92.,6.));
#1138 = DIRECTION('',(-1.,0.,0.));
#1139 = DIRECTION('',(0.,-1.,0.));
#1140 = ORIENTED_EDGE('',*,*,#1141,.T.);
#1141 = EDGE_CURVE('',#1133,#625,#1142,.T.);
#1142 = LINE('',#1143,#1144);
#1143 = CARTESIAN_POINT('',(0.4,92.,5.6));
#1144 = VECTOR('',#1145,1.);
#1145 = DIRECTION('',(-1.,0.,0.));
#1146 = ORIENTED_EDGE('',*,*,#632,.F.);
#1147 = ORIENTED_EDGE('',*,*,#1116,.F.);
#1148 = CYLINDRICAL_SURFACE('',#1149,0.4);
#1149 = AXIS2_PLACEMENT_3D('',#1150,#1151,#1152);
#1150 = CARTESIAN_POINT('',(0.4,92.,6.));
#1151 = DIRECTION('',(-1.,0.,0.));
#1152 = DIRECTION('',(0.,-1.,0.));
#1153 = ADVANCED_FACE('',(#1154),#1172,.F.);
#1154 = FACE_BOUND('',#1155,.F.);
#1155 = EDGE_LOOP('',(#1156,#1164,#1170,#1171));
#1156 = ORIENTED_EDGE('',*,*,#1157,.F.);
#1157 = EDGE_CURVE('',#1158,#1133,#1160,.T.);
#1158 = VERTEX_POINT('',#1159);
#1159 = CARTESIAN_POINT('',(0.4,90.2,5.6));
#1160 = LINE('',#1161,#1162);
#1161 = CARTESIAN_POINT('',(0.4,90.2,5.6));
#1162 = VECTOR('',#1163,1.);
#1163 = DIRECTION('',(0.,1.,1.224646799147E-16));
#1164 = ORIENTED_EDGE('',*,*,#1165,.T.);
#1165 = EDGE_CURVE('',#1158,#616,#1166,.T.);
#1166 = LINE('',#1167,#1168);
#1167 = CARTESIAN_POINT('',(0.4,90.2,5.6));
#1168 = VECTOR('',#1169,1.);
#1169 = DIRECTION('',(-1.,0.,0.));
#1170 = ORIENTED_EDGE('',*,*,#624,.F.);
#1171 = ORIENTED_EDGE('',*,*,#1141,.F.);
#1172 = PLANE('',#1173);
#1173 = AXIS2_PLACEMENT_3D('',#1174,#1175,#1176);
#1174 = CARTESIAN_POINT('',(0.4,90.2,5.6));
#1175 = DIRECTION('',(-0.,1.224646799147E-16,-1.));
#1176 = DIRECTION('',(-1.,0.,0.));
#1177 = ADVANCED_FACE('',(#1178),#1197,.F.);
#1178 = FACE_BOUND('',#1179,.F.);
#1179 = EDGE_LOOP('',(#1180,#1181,#1182,#1191));
#1180 = ORIENTED_EDGE('',*,*,#615,.F.);
#1181 = ORIENTED_EDGE('',*,*,#1165,.F.);
#1182 = ORIENTED_EDGE('',*,*,#1183,.T.);
#1183 = EDGE_CURVE('',#1158,#1184,#1186,.T.);
#1184 = VERTEX_POINT('',#1185);
#1185 = CARTESIAN_POINT('',(0.4,89.943926240134,5.692711488161));
#1186 = CIRCLE('',#1187,0.4);
#1187 = AXIS2_PLACEMENT_3D('',#1188,#1189,#1190);
#1188 = CARTESIAN_POINT('',(0.4,90.2,6.));
#1189 = DIRECTION('',(-1.,0.,0.));
#1190 = DIRECTION('',(0.,-1.,0.));
#1191 = ORIENTED_EDGE('',*,*,#1192,.T.);
#1192 = EDGE_CURVE('',#1184,#608,#1193,.T.);
#1193 = LINE('',#1194,#1195);
#1194 = CARTESIAN_POINT('',(0.4,89.943926240134,5.692711488161));
#1195 = VECTOR('',#1196,1.);
#1196 = DIRECTION('',(-1.,0.,0.));
#1197 = CYLINDRICAL_SURFACE('',#1198,0.4);
#1198 = AXIS2_PLACEMENT_3D('',#1199,#1200,#1201);
#1199 = CARTESIAN_POINT('',(0.4,90.2,6.));
#1200 = DIRECTION('',(-1.,0.,0.));
#1201 = DIRECTION('',(0.,-1.,0.));
#1202 = ADVANCED_FACE('',(#1203),#1221,.F.);
#1203 = FACE_BOUND('',#1204,.F.);
#1204 = EDGE_LOOP('',(#1205,#1213,#1219,#1220));
#1205 = ORIENTED_EDGE('',*,*,#1206,.F.);
#1206 = EDGE_CURVE('',#1207,#1184,#1209,.T.);
#1207 = VERTEX_POINT('',#1208);
#1208 = CARTESIAN_POINT('',(0.4,89.343926240134,6.192711488161));
#1209 = LINE('',#1210,#1211);
#1210 = CARTESIAN_POINT('',(0.4,89.343926240134,6.192711488161));
#1211 = VECTOR('',#1212,1.);
#1212 = DIRECTION('',(0.,0.768221279597,-0.640184399664));
#1213 = ORIENTED_EDGE('',*,*,#1214,.T.);
#1214 = EDGE_CURVE('',#1207,#599,#1215,.T.);
#1215 = LINE('',#1216,#1217);
#1216 = CARTESIAN_POINT('',(0.4,89.343926240134,6.192711488161));
#1217 = VECTOR('',#1218,1.);
#1218 = DIRECTION('',(-1.,0.,0.));
#1219 = ORIENTED_EDGE('',*,*,#607,.F.);
#1220 = ORIENTED_EDGE('',*,*,#1192,.F.);
#1221 = PLANE('',#1222);
#1222 = AXIS2_PLACEMENT_3D('',#1223,#1224,#1225);
#1223 = CARTESIAN_POINT('',(0.4,89.343926240134,6.192711488161));
#1224 = DIRECTION('',(0.,-0.640184399664,-0.768221279597));
#1225 = DIRECTION('',(-1.,0.,0.));
#1226 = ADVANCED_FACE('',(#1227),#1246,.F.);
#1227 = FACE_BOUND('',#1228,.F.);
#1228 = EDGE_LOOP('',(#1229,#1238,#1244,#1245));
#1229 = ORIENTED_EDGE('',*,*,#1230,.T.);
#1230 = EDGE_CURVE('',#1207,#1231,#1233,.T.);
#1231 = VERTEX_POINT('',#1232);
#1232 = CARTESIAN_POINT('',(0.4,89.2,6.5));
#1233 = CIRCLE('',#1234,0.4);
#1234 = AXIS2_PLACEMENT_3D('',#1235,#1236,#1237);
#1235 = CARTESIAN_POINT('',(0.4,89.6,6.5));
#1236 = DIRECTION('',(-1.,0.,0.));
#1237 = DIRECTION('',(0.,-1.,0.));
#1238 = ORIENTED_EDGE('',*,*,#1239,.T.);
#1239 = EDGE_CURVE('',#1231,#591,#1240,.T.);
#1240 = LINE('',#1241,#1242);
#1241 = CARTESIAN_POINT('',(0.4,89.2,6.5));
#1242 = VECTOR('',#1243,1.);
#1243 = DIRECTION('',(-1.,0.,0.));
#1244 = ORIENTED_EDGE('',*,*,#598,.F.);
#1245 = ORIENTED_EDGE('',*,*,#1214,.F.);
#1246 = CYLINDRICAL_SURFACE('',#1247,0.4);
#1247 = AXIS2_PLACEMENT_3D('',#1248,#1249,#1250);
#1248 = CARTESIAN_POINT('',(0.4,89.6,6.5));
#1249 = DIRECTION('',(-1.,0.,0.));
#1250 = DIRECTION('',(0.,-1.,0.));
#1251 = ADVANCED_FACE('',(#1252),#1270,.F.);
#1252 = FACE_BOUND('',#1253,.F.);
#1253 = EDGE_LOOP('',(#1254,#1262,#1268,#1269));
#1254 = ORIENTED_EDGE('',*,*,#1255,.F.);
#1255 = EDGE_CURVE('',#1256,#1231,#1258,.T.);
#1256 = VERTEX_POINT('',#1257);
#1257 = CARTESIAN_POINT('',(0.4,89.2,7.5));
#1258 = LINE('',#1259,#1260);
#1259 = CARTESIAN_POINT('',(0.4,89.2,7.5));
#1260 = VECTOR('',#1261,1.);
#1261 = DIRECTION('',(0.,-1.110223024625E-16,-1.));
#1262 = ORIENTED_EDGE('',*,*,#1263,.T.);
#1263 = EDGE_CURVE('',#1256,#582,#1264,.T.);
#1264 = LINE('',#1265,#1266);
#1265 = CARTESIAN_POINT('',(0.4,89.2,7.5));
#1266 = VECTOR('',#1267,1.);
#1267 = DIRECTION('',(-1.,0.,0.));
#1268 = ORIENTED_EDGE('',*,*,#590,.F.);
#1269 = ORIENTED_EDGE('',*,*,#1239,.F.);
#1270 = PLANE('',#1271);
#1271 = AXIS2_PLACEMENT_3D('',#1272,#1273,#1274);
#1272 = CARTESIAN_POINT('',(0.4,89.2,7.5));
#1273 = DIRECTION('',(0.,-1.,1.110223024625E-16));
#1274 = DIRECTION('',(-1.,0.,0.));
#1275 = ADVANCED_FACE('',(#1276),#1295,.F.);
#1276 = FACE_BOUND('',#1277,.F.);
#1277 = EDGE_LOOP('',(#1278,#1279,#1280,#1289));
#1278 = ORIENTED_EDGE('',*,*,#581,.F.);
#1279 = ORIENTED_EDGE('',*,*,#1263,.F.);
#1280 = ORIENTED_EDGE('',*,*,#1281,.T.);
#1281 = EDGE_CURVE('',#1256,#1282,#1284,.T.);
#1282 = VERTEX_POINT('',#1283);
#1283 = CARTESIAN_POINT('',(0.4,89.343926240134,7.807288511839));
#1284 = CIRCLE('',#1285,0.4);
#1285 = AXIS2_PLACEMENT_3D('',#1286,#1287,#1288);
#1286 = CARTESIAN_POINT('',(0.4,89.6,7.5));
#1287 = DIRECTION('',(-1.,0.,0.));
#1288 = DIRECTION('',(0.,-1.,0.));
#1289 = ORIENTED_EDGE('',*,*,#1290,.T.);
#1290 = EDGE_CURVE('',#1282,#574,#1291,.T.);
#1291 = LINE('',#1292,#1293);
#1292 = CARTESIAN_POINT('',(0.4,89.343926240134,7.807288511839));
#1293 = VECTOR('',#1294,1.);
#1294 = DIRECTION('',(-1.,0.,0.));
#1295 = CYLINDRICAL_SURFACE('',#1296,0.4);
#1296 = AXIS2_PLACEMENT_3D('',#1297,#1298,#1299);
#1297 = CARTESIAN_POINT('',(0.4,89.6,7.5));
#1298 = DIRECTION('',(-1.,0.,0.));
#1299 = DIRECTION('',(0.,-1.,0.));
#1300 = ADVANCED_FACE('',(#1301),#1319,.F.);
#1301 = FACE_BOUND('',#1302,.F.);
#1302 = EDGE_LOOP('',(#1303,#1311,#1317,#1318));
#1303 = ORIENTED_EDGE('',*,*,#1304,.F.);
#1304 = EDGE_CURVE('',#1305,#1282,#1307,.T.);
#1305 = VERTEX_POINT('',#1306);
#1306 = CARTESIAN_POINT('',(0.4,89.575180025927,8.));
#1307 = LINE('',#1308,#1309);
#1308 = CARTESIAN_POINT('',(0.4,89.943926240134,8.307288511839));
#1309 = VECTOR('',#1310,1.);
#1310 = DIRECTION('',(0.,-0.768221279597,-0.640184399664));
#1311 = ORIENTED_EDGE('',*,*,#1312,.T.);
#1312 = EDGE_CURVE('',#1305,#566,#1313,.T.);
#1313 = LINE('',#1314,#1315);
#1314 = CARTESIAN_POINT('',(0.4,89.575180025927,8.));
#1315 = VECTOR('',#1316,1.);
#1316 = DIRECTION('',(-1.,0.,0.));
#1317 = ORIENTED_EDGE('',*,*,#573,.F.);
#1318 = ORIENTED_EDGE('',*,*,#1290,.F.);
#1319 = PLANE('',#1320);
#1320 = AXIS2_PLACEMENT_3D('',#1321,#1322,#1323);
#1321 = CARTESIAN_POINT('',(0.4,89.943926240134,8.307288511839));
#1322 = DIRECTION('',(0.,-0.640184399664,0.768221279597));
#1323 = DIRECTION('',(-1.,0.,0.));
#1324 = ADVANCED_FACE('',(#1325),#1343,.F.);
#1325 = FACE_BOUND('',#1326,.F.);
#1326 = EDGE_LOOP('',(#1327,#1335,#1341,#1342));
#1327 = ORIENTED_EDGE('',*,*,#1328,.F.);
#1328 = EDGE_CURVE('',#1329,#1305,#1331,.T.);
#1329 = VERTEX_POINT('',#1330);
#1330 = CARTESIAN_POINT('',(0.4,89.343926240134,8.192711488161));
#1331 = LINE('',#1332,#1333);
#1332 = CARTESIAN_POINT('',(0.4,89.343926240134,8.192711488161));
#1333 = VECTOR('',#1334,1.);
#1334 = DIRECTION('',(0.,0.768221279597,-0.640184399664));
#1335 = ORIENTED_EDGE('',*,*,#1336,.T.);
#1336 = EDGE_CURVE('',#1329,#557,#1337,.T.);
#1337 = LINE('',#1338,#1339);
#1338 = CARTESIAN_POINT('',(0.4,89.343926240134,8.192711488161));
#1339 = VECTOR('',#1340,1.);
#1340 = DIRECTION('',(-1.,0.,0.));
#1341 = ORIENTED_EDGE('',*,*,#565,.F.);
#1342 = ORIENTED_EDGE('',*,*,#1312,.F.);
#1343 = PLANE('',#1344);
#1344 = AXIS2_PLACEMENT_3D('',#1345,#1346,#1347);
#1345 = CARTESIAN_POINT('',(0.4,89.343926240134,8.192711488161));
#1346 = DIRECTION('',(0.,-0.640184399664,-0.768221279597));
#1347 = DIRECTION('',(-1.,0.,0.));
#1348 = ADVANCED_FACE('',(#1349),#1368,.F.);
#1349 = FACE_BOUND('',#1350,.F.);
#1350 = EDGE_LOOP('',(#1351,#1360,#1366,#1367));
#1351 = ORIENTED_EDGE('',*,*,#1352,.T.);
#1352 = EDGE_CURVE('',#1329,#1353,#1355,.T.);
#1353 = VERTEX_POINT('',#1354);
#1354 = CARTESIAN_POINT('',(0.4,89.2,8.5));
#1355 = CIRCLE('',#1356,0.4);
#1356 = AXIS2_PLACEMENT_3D('',#1357,#1358,#1359);
#1357 = CARTESIAN_POINT('',(0.4,89.6,8.5));
#1358 = DIRECTION('',(-1.,0.,0.));
#1359 = DIRECTION('',(0.,-1.,0.));
#1360 = ORIENTED_EDGE('',*,*,#1361,.T.);
#1361 = EDGE_CURVE('',#1353,#549,#1362,.T.);
#1362 = LINE('',#1363,#1364);
#1363 = CARTESIAN_POINT('',(0.4,89.2,8.5));
#1364 = VECTOR('',#1365,1.);
#1365 = DIRECTION('',(-1.,0.,0.));
#1366 = ORIENTED_EDGE('',*,*,#556,.F.);
#1367 = ORIENTED_EDGE('',*,*,#1336,.F.);
#1368 = CYLINDRICAL_SURFACE('',#1369,0.4);
#1369 = AXIS2_PLACEMENT_3D('',#1370,#1371,#1372);
#1370 = CARTESIAN_POINT('',(0.4,89.6,8.5));
#1371 = DIRECTION('',(-1.,0.,0.));
#1372 = DIRECTION('',(0.,-1.,0.));
#1373 = ADVANCED_FACE('',(#1374),#1392,.F.);
#1374 = FACE_BOUND('',#1375,.F.);
#1375 = EDGE_LOOP('',(#1376,#1384,#1390,#1391));
#1376 = ORIENTED_EDGE('',*,*,#1377,.F.);
#1377 = EDGE_CURVE('',#1378,#1353,#1380,.T.);
#1378 = VERTEX_POINT('',#1379);
#1379 = CARTESIAN_POINT('',(0.4,89.2,9.5));
#1380 = LINE('',#1381,#1382);
#1381 = CARTESIAN_POINT('',(0.4,89.2,9.5));
#1382 = VECTOR('',#1383,1.);
#1383 = DIRECTION('',(0.,-1.110223024625E-16,-1.));
#1384 = ORIENTED_EDGE('',*,*,#1385,.T.);
#1385 = EDGE_CURVE('',#1378,#540,#1386,.T.);
#1386 = LINE('',#1387,#1388);
#1387 = CARTESIAN_POINT('',(0.4,89.2,9.5));
#1388 = VECTOR('',#1389,1.);
#1389 = DIRECTION('',(-1.,0.,0.));
#1390 = ORIENTED_EDGE('',*,*,#548,.F.);
#1391 = ORIENTED_EDGE('',*,*,#1361,.F.);
#1392 = PLANE('',#1393);
#1393 = AXIS2_PLACEMENT_3D('',#1394,#1395,#1396);
#1394 = CARTESIAN_POINT('',(0.4,89.2,9.5));
#1395 = DIRECTION('',(0.,-1.,1.110223024625E-16));
#1396 = DIRECTION('',(-1.,0.,0.));
#1397 = ADVANCED_FACE('',(#1398),#1417,.F.);
#1398 = FACE_BOUND('',#1399,.F.);
#1399 = EDGE_LOOP('',(#1400,#1401,#1402,#1411));
#1400 = ORIENTED_EDGE('',*,*,#539,.F.);
#1401 = ORIENTED_EDGE('',*,*,#1385,.F.);
#1402 = ORIENTED_EDGE('',*,*,#1403,.T.);
#1403 = EDGE_CURVE('',#1378,#1404,#1406,.T.);
#1404 = VERTEX_POINT('',#1405);
#1405 = CARTESIAN_POINT('',(0.4,89.343926240134,9.807288511839));
#1406 = CIRCLE('',#1407,0.4);
#1407 = AXIS2_PLACEMENT_3D('',#1408,#1409,#1410);
#1408 = CARTESIAN_POINT('',(0.4,89.6,9.5));
#1409 = DIRECTION('',(-1.,0.,0.));
#1410 = DIRECTION('',(0.,-1.,0.));
#1411 = ORIENTED_EDGE('',*,*,#1412,.T.);
#1412 = EDGE_CURVE('',#1404,#532,#1413,.T.);
#1413 = LINE('',#1414,#1415);
#1414 = CARTESIAN_POINT('',(0.4,89.343926240134,9.807288511839));
#1415 = VECTOR('',#1416,1.);
#1416 = DIRECTION('',(-1.,0.,0.));
#1417 = CYLINDRICAL_SURFACE('',#1418,0.4);
#1418 = AXIS2_PLACEMENT_3D('',#1419,#1420,#1421);
#1419 = CARTESIAN_POINT('',(0.4,89.6,9.5));
#1420 = DIRECTION('',(-1.,0.,0.));
#1421 = DIRECTION('',(0.,-1.,0.));
#1422 = ADVANCED_FACE('',(#1423),#1441,.F.);
#1423 = FACE_BOUND('',#1424,.F.);
#1424 = EDGE_LOOP('',(#1425,#1433,#1439,#1440));
#1425 = ORIENTED_EDGE('',*,*,#1426,.F.);
#1426 = EDGE_CURVE('',#1427,#1404,#1429,.T.);
#1427 = VERTEX_POINT('',#1428);
#1428 = CARTESIAN_POINT('',(0.4,89.943926240134,10.307288511839));
#1429 = LINE('',#1430,#1431);
#1430 = CARTESIAN_POINT('',(0.4,89.943926240134,10.307288511839));
#1431 = VECTOR('',#1432,1.);
#1432 = DIRECTION('',(0.,-0.768221279597,-0.640184399664));
#1433 = ORIENTED_EDGE('',*,*,#1434,.T.);
#1434 = EDGE_CURVE('',#1427,#523,#1435,.T.);
#1435 = LINE('',#1436,#1437);
#1436 = CARTESIAN_POINT('',(0.4,89.943926240134,10.307288511839));
#1437 = VECTOR('',#1438,1.);
#1438 = DIRECTION('',(-1.,0.,0.));
#1439 = ORIENTED_EDGE('',*,*,#531,.F.);
#1440 = ORIENTED_EDGE('',*,*,#1412,.F.);
#1441 = PLANE('',#1442);
#1442 = AXIS2_PLACEMENT_3D('',#1443,#1444,#1445);
#1443 = CARTESIAN_POINT('',(0.4,89.943926240134,10.307288511839));
#1444 = DIRECTION('',(0.,-0.640184399664,0.768221279597));
#1445 = DIRECTION('',(-1.,0.,0.));
#1446 = ADVANCED_FACE('',(#1447),#1466,.F.);
#1447 = FACE_BOUND('',#1448,.F.);
#1448 = EDGE_LOOP('',(#1449,#1450,#1451,#1460));
#1449 = ORIENTED_EDGE('',*,*,#522,.F.);
#1450 = ORIENTED_EDGE('',*,*,#1434,.F.);
#1451 = ORIENTED_EDGE('',*,*,#1452,.T.);
#1452 = EDGE_CURVE('',#1427,#1453,#1455,.T.);
#1453 = VERTEX_POINT('',#1454);
#1454 = CARTESIAN_POINT('',(0.4,90.2,10.4));
#1455 = CIRCLE('',#1456,0.4);
#1456 = AXIS2_PLACEMENT_3D('',#1457,#1458,#1459);
#1457 = CARTESIAN_POINT('',(0.4,90.2,10.));
#1458 = DIRECTION('',(-1.,0.,0.));
#1459 = DIRECTION('',(0.,-1.,0.));
#1460 = ORIENTED_EDGE('',*,*,#1461,.T.);
#1461 = EDGE_CURVE('',#1453,#515,#1462,.T.);
#1462 = LINE('',#1463,#1464);
#1463 = CARTESIAN_POINT('',(0.4,90.2,10.4));
#1464 = VECTOR('',#1465,1.);
#1465 = DIRECTION('',(-1.,0.,0.));
#1466 = CYLINDRICAL_SURFACE('',#1467,0.4);
#1467 = AXIS2_PLACEMENT_3D('',#1468,#1469,#1470);
#1468 = CARTESIAN_POINT('',(0.4,90.2,10.));
#1469 = DIRECTION('',(-1.,0.,0.));
#1470 = DIRECTION('',(0.,-1.,0.));
#1471 = ADVANCED_FACE('',(#1472),#1483,.F.);
#1472 = FACE_BOUND('',#1473,.F.);
#1473 = EDGE_LOOP('',(#1474,#1480,#1481,#1482));
#1474 = ORIENTED_EDGE('',*,*,#1475,.F.);
#1475 = EDGE_CURVE('',#1078,#1453,#1476,.T.);
#1476 = LINE('',#1477,#1478);
#1477 = CARTESIAN_POINT('',(0.4,92.,10.4));
#1478 = VECTOR('',#1479,1.);
#1479 = DIRECTION('',(0.,-1.,0.));
#1480 = ORIENTED_EDGE('',*,*,#1077,.T.);
#1481 = ORIENTED_EDGE('',*,*,#514,.F.);
#1482 = ORIENTED_EDGE('',*,*,#1461,.F.);
#1483 = PLANE('',#1484);
#1484 = AXIS2_PLACEMENT_3D('',#1485,#1486,#1487);
#1485 = CARTESIAN_POINT('',(0.4,92.,10.4));
#1486 = DIRECTION('',(0.,0.,1.));
#1487 = DIRECTION('',(-1.,0.,0.));
#1488 = ADVANCED_FACE('',(#1489),#1515,.F.);
#1489 = FACE_BOUND('',#1490,.F.);
#1490 = EDGE_LOOP('',(#1491,#1492,#1500,#1509));
#1491 = ORIENTED_EDGE('',*,*,#649,.F.);
#1492 = ORIENTED_EDGE('',*,*,#1493,.F.);
#1493 = EDGE_CURVE('',#1494,#650,#1496,.T.);
#1494 = VERTEX_POINT('',#1495);
#1495 = CARTESIAN_POINT('',(0.4,88.2,10.4));
#1496 = LINE('',#1497,#1498);
#1497 = CARTESIAN_POINT('',(0.4,88.2,10.4));
#1498 = VECTOR('',#1499,1.);
#1499 = DIRECTION('',(-1.,0.,0.));
#1500 = ORIENTED_EDGE('',*,*,#1501,.T.);
#1501 = EDGE_CURVE('',#1494,#1502,#1504,.T.);
#1502 = VERTEX_POINT('',#1503);
#1503 = CARTESIAN_POINT('',(0.4,88.2,9.6));
#1504 = CIRCLE('',#1505,0.4);
#1505 = AXIS2_PLACEMENT_3D('',#1506,#1507,#1508);
#1506 = CARTESIAN_POINT('',(0.4,88.2,10.));
#1507 = DIRECTION('',(-1.,0.,0.));
#1508 = DIRECTION('',(0.,-1.,0.));
#1509 = ORIENTED_EDGE('',*,*,#1510,.T.);
#1510 = EDGE_CURVE('',#1502,#652,#1511,.T.);
#1511 = LINE('',#1512,#1513);
#1512 = CARTESIAN_POINT('',(0.4,88.2,9.6));
#1513 = VECTOR('',#1514,1.);
#1514 = DIRECTION('',(-1.,0.,0.));
#1515 = CYLINDRICAL_SURFACE('',#1516,0.4);
#1516 = AXIS2_PLACEMENT_3D('',#1517,#1518,#1519);
#1517 = CARTESIAN_POINT('',(0.4,88.2,10.));
#1518 = DIRECTION('',(-1.,0.,0.));
#1519 = DIRECTION('',(0.,-1.,0.));
#1520 = ADVANCED_FACE('',(#1521),#1539,.T.);
#1521 = FACE_BOUND('',#1522,.T.);
#1522 = EDGE_LOOP('',(#1523,#1531,#1532,#1533));
#1523 = ORIENTED_EDGE('',*,*,#1524,.F.);
#1524 = EDGE_CURVE('',#1502,#1525,#1527,.T.);
#1525 = VERTEX_POINT('',#1526);
#1526 = CARTESIAN_POINT('',(0.4,86.2,9.6));
#1527 = LINE('',#1528,#1529);
#1528 = CARTESIAN_POINT('',(0.4,88.2,9.6));
#1529 = VECTOR('',#1530,1.);
#1530 = DIRECTION('',(0.,-1.,0.));
#1531 = ORIENTED_EDGE('',*,*,#1510,.T.);
#1532 = ORIENTED_EDGE('',*,*,#752,.F.);
#1533 = ORIENTED_EDGE('',*,*,#1534,.T.);
#1534 = EDGE_CURVE('',#745,#1525,#1535,.T.);
#1535 = LINE('',#1536,#1537);
#1536 = CARTESIAN_POINT('',(0.4,86.2,9.6));
#1537 = VECTOR('',#1538,1.);
#1538 = DIRECTION('',(1.,0.,0.));
#1539 = PLANE('',#1540);
#1540 = AXIS2_PLACEMENT_3D('',#1541,#1542,#1543);
#1541 = CARTESIAN_POINT('',(0.4,88.2,9.6));
#1542 = DIRECTION('',(0.,0.,1.));
#1543 = DIRECTION('',(-1.,0.,0.));
#1544 = ADVANCED_FACE('',(#1545),#1563,.T.);
#1545 = FACE_BOUND('',#1546,.T.);
#1546 = EDGE_LOOP('',(#1547,#1555,#1556,#1557));
#1547 = ORIENTED_EDGE('',*,*,#1548,.F.);
#1548 = EDGE_CURVE('',#1525,#1549,#1551,.T.);
#1549 = VERTEX_POINT('',#1550);
#1550 = CARTESIAN_POINT('',(0.4,86.2,8.660924115039));
#1551 = LINE('',#1552,#1553);
#1552 = CARTESIAN_POINT('',(0.4,86.2,10.));
#1553 = VECTOR('',#1554,1.);
#1554 = DIRECTION('',(0.,-1.110223024625E-16,-1.));
#1555 = ORIENTED_EDGE('',*,*,#1534,.F.);
#1556 = ORIENTED_EDGE('',*,*,#744,.F.);
#1557 = ORIENTED_EDGE('',*,*,#1558,.T.);
#1558 = EDGE_CURVE('',#737,#1549,#1559,.T.);
#1559 = LINE('',#1560,#1561);
#1560 = CARTESIAN_POINT('',(0.4,86.2,8.660924115039));
#1561 = VECTOR('',#1562,1.);
#1562 = DIRECTION('',(1.,0.,0.));
#1563 = PLANE('',#1564);
#1564 = AXIS2_PLACEMENT_3D('',#1565,#1566,#1567);
#1565 = CARTESIAN_POINT('',(0.4,86.2,10.));
#1566 = DIRECTION('',(0.,-1.,1.110223024625E-16));
#1567 = DIRECTION('',(-1.,0.,0.));
#1568 = ADVANCED_FACE('',(#1569),#1587,.T.);
#1569 = FACE_BOUND('',#1570,.T.);
#1570 = EDGE_LOOP('',(#1571,#1579,#1580,#1581));
#1571 = ORIENTED_EDGE('',*,*,#1572,.F.);
#1572 = EDGE_CURVE('',#1549,#1573,#1575,.T.);
#1573 = VERTEX_POINT('',#1574);
#1574 = CARTESIAN_POINT('',(0.4,88.488554928412,6.277012731276));
#1575 = LINE('',#1576,#1577);
#1576 = CARTESIAN_POINT('',(0.4,86.088554928412,8.777012731276));
#1577 = VECTOR('',#1578,1.);
#1578 = DIRECTION('',(0.,0.69253182819,-0.721387321031));
#1579 = ORIENTED_EDGE('',*,*,#1558,.F.);
#1580 = ORIENTED_EDGE('',*,*,#736,.F.);
#1581 = ORIENTED_EDGE('',*,*,#1582,.F.);
#1582 = EDGE_CURVE('',#1573,#728,#1583,.T.);
#1583 = LINE('',#1584,#1585);
#1584 = CARTESIAN_POINT('',(0.4,88.488554928412,6.277012731276));
#1585 = VECTOR('',#1586,1.);
#1586 = DIRECTION('',(-1.,0.,0.));
#1587 = PLANE('',#1588);
#1588 = AXIS2_PLACEMENT_3D('',#1589,#1590,#1591);
#1589 = CARTESIAN_POINT('',(0.4,86.088554928412,8.777012731276));
#1590 = DIRECTION('',(0.,-0.721387321031,-0.69253182819));
#1591 = DIRECTION('',(-1.,0.,0.));
#1592 = ADVANCED_FACE('',(#1593),#1612,.F.);
#1593 = FACE_BOUND('',#1594,.F.);
#1594 = EDGE_LOOP('',(#1595,#1596,#1597,#1606));
#1595 = ORIENTED_EDGE('',*,*,#727,.F.);
#1596 = ORIENTED_EDGE('',*,*,#1582,.F.);
#1597 = ORIENTED_EDGE('',*,*,#1598,.T.);
#1598 = EDGE_CURVE('',#1573,#1599,#1601,.T.);
#1599 = VERTEX_POINT('',#1600);
#1600 = CARTESIAN_POINT('',(0.4,88.2,5.6));
#1601 = CIRCLE('',#1602,0.4);
#1602 = AXIS2_PLACEMENT_3D('',#1603,#1604,#1605);
#1603 = CARTESIAN_POINT('',(0.4,88.2,6.));
#1604 = DIRECTION('',(-1.,0.,0.));
#1605 = DIRECTION('',(0.,-1.,0.));
#1606 = ORIENTED_EDGE('',*,*,#1607,.T.);
#1607 = EDGE_CURVE('',#1599,#720,#1608,.T.);
#1608 = LINE('',#1609,#1610);
#1609 = CARTESIAN_POINT('',(0.4,88.2,5.6));
#1610 = VECTOR('',#1611,1.);
#1611 = DIRECTION('',(-1.,0.,0.));
#1612 = CYLINDRICAL_SURFACE('',#1613,0.4);
#1613 = AXIS2_PLACEMENT_3D('',#1614,#1615,#1616);
#1614 = CARTESIAN_POINT('',(0.4,88.2,6.));
#1615 = DIRECTION('',(-1.,0.,0.));
#1616 = DIRECTION('',(0.,-1.,0.));
#1617 = ADVANCED_FACE('',(#1618),#1636,.T.);
#1618 = FACE_BOUND('',#1619,.T.);
#1619 = EDGE_LOOP('',(#1620,#1628,#1629,#1630));
#1620 = ORIENTED_EDGE('',*,*,#1621,.F.);
#1621 = EDGE_CURVE('',#1599,#1622,#1624,.T.);
#1622 = VERTEX_POINT('',#1623);
#1623 = CARTESIAN_POINT('',(0.4,85.8,5.6));
#1624 = LINE('',#1625,#1626);
#1625 = CARTESIAN_POINT('',(0.4,88.2,5.6));
#1626 = VECTOR('',#1627,1.);
#1627 = DIRECTION('',(0.,-1.,0.));
#1628 = ORIENTED_EDGE('',*,*,#1607,.T.);
#1629 = ORIENTED_EDGE('',*,*,#719,.F.);
#1630 = ORIENTED_EDGE('',*,*,#1631,.F.);
#1631 = EDGE_CURVE('',#1622,#711,#1632,.T.);
#1632 = LINE('',#1633,#1634);
#1633 = CARTESIAN_POINT('',(0.4,85.8,5.6));
#1634 = VECTOR('',#1635,1.);
#1635 = DIRECTION('',(-1.,0.,0.));
#1636 = PLANE('',#1637);
#1637 = AXIS2_PLACEMENT_3D('',#1638,#1639,#1640);
#1638 = CARTESIAN_POINT('',(0.4,88.2,5.6));
#1639 = DIRECTION('',(0.,0.,1.));
#1640 = DIRECTION('',(-1.,0.,0.));
#1641 = ADVANCED_FACE('',(#1642),#1670,.F.);
#1642 = FACE_BOUND('',#1643,.F.);
#1643 = EDGE_LOOP('',(#1644,#1653,#1662,#1668,#1669));
#1644 = ORIENTED_EDGE('',*,*,#1645,.T.);
#1645 = EDGE_CURVE('',#1622,#1646,#1648,.T.);
#1646 = VERTEX_POINT('',#1647);
#1647 = CARTESIAN_POINT('',(0.4,85.4,6.));
#1648 = CIRCLE('',#1649,0.4);
#1649 = AXIS2_PLACEMENT_3D('',#1650,#1651,#1652);
#1650 = CARTESIAN_POINT('',(0.4,85.8,6.));
#1651 = DIRECTION('',(-1.,0.,0.));
#1652 = DIRECTION('',(0.,-1.,0.));
#1653 = ORIENTED_EDGE('',*,*,#1654,.T.);
#1654 = EDGE_CURVE('',#1646,#1655,#1657,.T.);
#1655 = VERTEX_POINT('',#1656);
#1656 = CARTESIAN_POINT('',(0.4,85.8,6.4));
#1657 = CIRCLE('',#1658,0.4);
#1658 = AXIS2_PLACEMENT_3D('',#1659,#1660,#1661);
#1659 = CARTESIAN_POINT('',(0.4,85.8,6.));
#1660 = DIRECTION('',(-1.,0.,0.));
#1661 = DIRECTION('',(0.,-1.,0.));
#1662 = ORIENTED_EDGE('',*,*,#1663,.T.);
#1663 = EDGE_CURVE('',#1655,#703,#1664,.T.);
#1664 = LINE('',#1665,#1666);
#1665 = CARTESIAN_POINT('',(0.4,85.8,6.4));
#1666 = VECTOR('',#1667,1.);
#1667 = DIRECTION('',(-1.,0.,0.));
#1668 = ORIENTED_EDGE('',*,*,#710,.F.);
#1669 = ORIENTED_EDGE('',*,*,#1631,.F.);
#1670 = CYLINDRICAL_SURFACE('',#1671,0.4);
#1671 = AXIS2_PLACEMENT_3D('',#1672,#1673,#1674);
#1672 = CARTESIAN_POINT('',(0.4,85.8,6.));
#1673 = DIRECTION('',(-1.,0.,0.));
#1674 = DIRECTION('',(0.,-1.,0.));
#1675 = ADVANCED_FACE('',(#1676),#1694,.F.);
#1676 = FACE_BOUND('',#1677,.F.);
#1677 = EDGE_LOOP('',(#1678,#1686,#1692,#1693));
#1678 = ORIENTED_EDGE('',*,*,#1679,.F.);
#1679 = EDGE_CURVE('',#1680,#1655,#1682,.T.);
#1680 = VERTEX_POINT('',#1681);
#1681 = CARTESIAN_POINT('',(0.4,87.261512849563,6.4));
#1682 = LINE('',#1683,#1684);
#1683 = CARTESIAN_POINT('',(0.4,88.2,6.4));
#1684 = VECTOR('',#1685,1.);
#1685 = DIRECTION('',(0.,-1.,0.));
#1686 = ORIENTED_EDGE('',*,*,#1687,.T.);
#1687 = EDGE_CURVE('',#1680,#695,#1688,.T.);
#1688 = LINE('',#1689,#1690);
#1689 = CARTESIAN_POINT('',(0.4,87.261512849563,6.4));
#1690 = VECTOR('',#1691,1.);
#1691 = DIRECTION('',(-1.,0.,0.));
#1692 = ORIENTED_EDGE('',*,*,#702,.F.);
#1693 = ORIENTED_EDGE('',*,*,#1663,.F.);
#1694 = PLANE('',#1695);
#1695 = AXIS2_PLACEMENT_3D('',#1696,#1697,#1698);
#1696 = CARTESIAN_POINT('',(0.4,88.2,6.4));
#1697 = DIRECTION('',(0.,0.,1.));
#1698 = DIRECTION('',(-1.,0.,0.));
#1699 = ADVANCED_FACE('',(#1700),#1718,.F.);
#1700 = FACE_BOUND('',#1701,.F.);
#1701 = EDGE_LOOP('',(#1702,#1710,#1716,#1717));
#1702 = ORIENTED_EDGE('',*,*,#1703,.F.);
#1703 = EDGE_CURVE('',#1704,#1680,#1706,.T.);
#1704 = VERTEX_POINT('',#1705);
#1705 = CARTESIAN_POINT('',(0.4,85.511445071588,8.222987268724));
#1706 = LINE('',#1707,#1708);
#1707 = CARTESIAN_POINT('',(0.4,85.511445071588,8.222987268724));
#1708 = VECTOR('',#1709,1.);
#1709 = DIRECTION('',(0.,0.69253182819,-0.721387321031));
#1710 = ORIENTED_EDGE('',*,*,#1711,.T.);
#1711 = EDGE_CURVE('',#1704,#686,#1712,.T.);
#1712 = LINE('',#1713,#1714);
#1713 = CARTESIAN_POINT('',(0.4,85.511445071588,8.222987268724));
#1714 = VECTOR('',#1715,1.);
#1715 = DIRECTION('',(-1.,0.,0.));
#1716 = ORIENTED_EDGE('',*,*,#694,.F.);
#1717 = ORIENTED_EDGE('',*,*,#1687,.F.);
#1718 = PLANE('',#1719);
#1719 = AXIS2_PLACEMENT_3D('',#1720,#1721,#1722);
#1720 = CARTESIAN_POINT('',(0.4,85.511445071588,8.222987268724));
#1721 = DIRECTION('',(0.,-0.721387321031,-0.69253182819));
#1722 = DIRECTION('',(-1.,0.,0.));
#1723 = ADVANCED_FACE('',(#1724),#1743,.F.);
#1724 = FACE_BOUND('',#1725,.F.);
#1725 = EDGE_LOOP('',(#1726,#1735,#1741,#1742));
#1726 = ORIENTED_EDGE('',*,*,#1727,.T.);
#1727 = EDGE_CURVE('',#1704,#1728,#1730,.T.);
#1728 = VERTEX_POINT('',#1729);
#1729 = CARTESIAN_POINT('',(0.4,85.4,8.5));
#1730 = CIRCLE('',#1731,0.4);
#1731 = AXIS2_PLACEMENT_3D('',#1732,#1733,#1734);
#1732 = CARTESIAN_POINT('',(0.4,85.8,8.5));
#1733 = DIRECTION('',(-1.,0.,0.));
#1734 = DIRECTION('',(0.,-1.,0.));
#1735 = ORIENTED_EDGE('',*,*,#1736,.T.);
#1736 = EDGE_CURVE('',#1728,#678,#1737,.T.);
#1737 = LINE('',#1738,#1739);
#1738 = CARTESIAN_POINT('',(0.4,85.4,8.5));
#1739 = VECTOR('',#1740,1.);
#1740 = DIRECTION('',(-1.,0.,0.));
#1741 = ORIENTED_EDGE('',*,*,#685,.F.);
#1742 = ORIENTED_EDGE('',*,*,#1711,.F.);
#1743 = CYLINDRICAL_SURFACE('',#1744,0.4);
#1744 = AXIS2_PLACEMENT_3D('',#1745,#1746,#1747);
#1745 = CARTESIAN_POINT('',(0.4,85.8,8.5));
#1746 = DIRECTION('',(-1.,0.,0.));
#1747 = DIRECTION('',(0.,-1.,0.));
#1748 = ADVANCED_FACE('',(#1749),#1767,.F.);
#1749 = FACE_BOUND('',#1750,.F.);
#1750 = EDGE_LOOP('',(#1751,#1759,#1765,#1766));
#1751 = ORIENTED_EDGE('',*,*,#1752,.F.);
#1752 = EDGE_CURVE('',#1753,#1728,#1755,.T.);
#1753 = VERTEX_POINT('',#1754);
#1754 = CARTESIAN_POINT('',(0.4,85.4,10.));
#1755 = LINE('',#1756,#1757);
#1756 = CARTESIAN_POINT('',(0.4,85.4,10.));
#1757 = VECTOR('',#1758,1.);
#1758 = DIRECTION('',(0.,-1.110223024625E-16,-1.));
#1759 = ORIENTED_EDGE('',*,*,#1760,.T.);
#1760 = EDGE_CURVE('',#1753,#669,#1761,.T.);
#1761 = LINE('',#1762,#1763);
#1762 = CARTESIAN_POINT('',(0.4,85.4,10.));
#1763 = VECTOR('',#1764,1.);
#1764 = DIRECTION('',(-1.,0.,0.));
#1765 = ORIENTED_EDGE('',*,*,#677,.F.);
#1766 = ORIENTED_EDGE('',*,*,#1736,.F.);
#1767 = PLANE('',#1768);
#1768 = AXIS2_PLACEMENT_3D('',#1769,#1770,#1771);
#1769 = CARTESIAN_POINT('',(0.4,85.4,10.));
#1770 = DIRECTION('',(0.,-1.,1.110223024625E-16));
#1771 = DIRECTION('',(-1.,0.,0.));
#1772 = ADVANCED_FACE('',(#1773),#1792,.F.);
#1773 = FACE_BOUND('',#1774,.F.);
#1774 = EDGE_LOOP('',(#1775,#1776,#1777,#1786));
#1775 = ORIENTED_EDGE('',*,*,#668,.F.);
#1776 = ORIENTED_EDGE('',*,*,#1760,.F.);
#1777 = ORIENTED_EDGE('',*,*,#1778,.T.);
#1778 = EDGE_CURVE('',#1753,#1779,#1781,.T.);
#1779 = VERTEX_POINT('',#1780);
#1780 = CARTESIAN_POINT('',(0.4,85.8,10.4));
#1781 = CIRCLE('',#1782,0.4);
#1782 = AXIS2_PLACEMENT_3D('',#1783,#1784,#1785);
#1783 = CARTESIAN_POINT('',(0.4,85.8,10.));
#1784 = DIRECTION('',(-1.,0.,0.));
#1785 = DIRECTION('',(0.,-1.,0.));
#1786 = ORIENTED_EDGE('',*,*,#1787,.T.);
#1787 = EDGE_CURVE('',#1779,#661,#1788,.T.);
#1788 = LINE('',#1789,#1790);
#1789 = CARTESIAN_POINT('',(0.4,85.8,10.4));
#1790 = VECTOR('',#1791,1.);
#1791 = DIRECTION('',(-1.,0.,0.));
#1792 = CYLINDRICAL_SURFACE('',#1793,0.4);
#1793 = AXIS2_PLACEMENT_3D('',#1794,#1795,#1796);
#1794 = CARTESIAN_POINT('',(0.4,85.8,10.));
#1795 = DIRECTION('',(-1.,0.,0.));
#1796 = DIRECTION('',(0.,-1.,0.));
#1797 = ADVANCED_FACE('',(#1798),#1809,.F.);
#1798 = FACE_BOUND('',#1799,.F.);
#1799 = EDGE_LOOP('',(#1800,#1806,#1807,#1808));
#1800 = ORIENTED_EDGE('',*,*,#1801,.F.);
#1801 = EDGE_CURVE('',#1494,#1779,#1802,.T.);
#1802 = LINE('',#1803,#1804);
#1803 = CARTESIAN_POINT('',(0.4,88.2,10.4));
#1804 = VECTOR('',#1805,1.);
#1805 = DIRECTION('',(0.,-1.,0.));
#1806 = ORIENTED_EDGE('',*,*,#1493,.T.);
#1807 = ORIENTED_EDGE('',*,*,#660,.F.);
#1808 = ORIENTED_EDGE('',*,*,#1787,.F.);
#1809 = PLANE('',#1810);
#1810 = AXIS2_PLACEMENT_3D('',#1811,#1812,#1813);
#1811 = CARTESIAN_POINT('',(0.4,88.2,10.4));
#1812 = DIRECTION('',(0.,0.,1.));
#1813 = DIRECTION('',(-1.,0.,0.));
#1814 = ADVANCED_FACE('',(#1815,#1823),#1826,.T.);
#1815 = FACE_BOUND('',#1816,.T.);
#1816 = EDGE_LOOP('',(#1817,#1818,#1819,#1820,#1821,#1822));
#1817 = ORIENTED_EDGE('',*,*,#1009,.T.);
#1818 = ORIENTED_EDGE('',*,*,#882,.T.);
#1819 = ORIENTED_EDGE('',*,*,#913,.T.);
#1820 = ORIENTED_EDGE('',*,*,#937,.T.);
#1821 = ORIENTED_EDGE('',*,*,#961,.T.);
#1822 = ORIENTED_EDGE('',*,*,#985,.T.);
#1823 = FACE_BOUND('',#1824,.T.);
#1824 = EDGE_LOOP('',(#1825));
#1825 = ORIENTED_EDGE('',*,*,#787,.F.);
#1826 = PLANE('',#1827);
#1827 = AXIS2_PLACEMENT_3D('',#1828,#1829,#1830);
#1828 = CARTESIAN_POINT('',(6.5,11.,2.));
#1829 = DIRECTION('',(0.,0.,1.));
#1830 = DIRECTION('',(1.,0.,0.));
#1831 = ADVANCED_FACE('',(#1832,#1835),#1838,.F.);
#1832 = FACE_BOUND('',#1833,.F.);
#1833 = EDGE_LOOP('',(#1834));
#1834 = ORIENTED_EDGE('',*,*,#811,.T.);
#1835 = FACE_BOUND('',#1836,.F.);
#1836 = EDGE_LOOP('',(#1837));
#1837 = ORIENTED_EDGE('',*,*,#1060,.F.);
#1838 = PLANE('',#1839);
#1839 = AXIS2_PLACEMENT_3D('',#1840,#1841,#1842);
#1840 = CARTESIAN_POINT('',(6.5,44.,11.8));
#1841 = DIRECTION('',(0.,2.22044604925E-16,1.));
#1842 = DIRECTION('',(0.,-1.,2.22044604925E-16));
#1843 = ADVANCED_FACE('',(#1844,#1847),#1850,.F.);
#1844 = FACE_BOUND('',#1845,.F.);
#1845 = EDGE_LOOP('',(#1846));
#1846 = ORIENTED_EDGE('',*,*,#836,.T.);
#1847 = FACE_BOUND('',#1848,.F.);
#1848 = EDGE_LOOP('',(#1849));
#1849 = ORIENTED_EDGE('',*,*,#1035,.F.);
#1850 = PLANE('',#1851);
#1851 = AXIS2_PLACEMENT_3D('',#1852,#1853,#1854);
#1852 = CARTESIAN_POINT('',(6.5,148.,11.8));
#1853 = DIRECTION('',(0.,2.22044604925E-16,1.));
#1854 = DIRECTION('',(0.,-1.,2.22044604925E-16));
#1855 = ADVANCED_FACE('',(#1856,#1875,#1925),#1975,.F.);
#1856 = FACE_BOUND('',#1857,.F.);
#1857 = EDGE_LOOP('',(#1858,#1859,#1860,#1861,#1862,#1863,#1864,#1865,
    #1866,#1867,#1868,#1869,#1870,#1871,#1872,#1873,#1874));
#1858 = ORIENTED_EDGE('',*,*,#1157,.T.);
#1859 = ORIENTED_EDGE('',*,*,#1132,.F.);
#1860 = ORIENTED_EDGE('',*,*,#1108,.T.);
#1861 = ORIENTED_EDGE('',*,*,#1085,.F.);
#1862 = ORIENTED_EDGE('',*,*,#1475,.T.);
#1863 = ORIENTED_EDGE('',*,*,#1452,.F.);
#1864 = ORIENTED_EDGE('',*,*,#1426,.T.);
#1865 = ORIENTED_EDGE('',*,*,#1403,.F.);
#1866 = ORIENTED_EDGE('',*,*,#1377,.T.);
#1867 = ORIENTED_EDGE('',*,*,#1352,.F.);
#1868 = ORIENTED_EDGE('',*,*,#1328,.T.);
#1869 = ORIENTED_EDGE('',*,*,#1304,.T.);
#1870 = ORIENTED_EDGE('',*,*,#1281,.F.);
#1871 = ORIENTED_EDGE('',*,*,#1255,.T.);
#1872 = ORIENTED_EDGE('',*,*,#1230,.F.);
#1873 = ORIENTED_EDGE('',*,*,#1206,.T.);
#1874 = ORIENTED_EDGE('',*,*,#1183,.F.);
#1875 = FACE_BOUND('',#1876,.F.);
#1876 = EDGE_LOOP('',(#1877,#1887,#1895,#1903,#1911,#1919));
#1877 = ORIENTED_EDGE('',*,*,#1878,.F.);
#1878 = EDGE_CURVE('',#1879,#1881,#1883,.T.);
#1879 = VERTEX_POINT('',#1880);
#1880 = CARTESIAN_POINT('',(0.4,90.344819974073,6.4));
#1881 = VERTEX_POINT('',#1882);
#1882 = CARTESIAN_POINT('',(0.4,91.6,6.4));
#1883 = LINE('',#1884,#1885);
#1884 = CARTESIAN_POINT('',(0.4,90.2,6.4));
#1885 = VECTOR('',#1886,1.);
#1886 = DIRECTION('',(0.,1.,1.224646799147E-16));
#1887 = ORIENTED_EDGE('',*,*,#1888,.F.);
#1888 = EDGE_CURVE('',#1889,#1879,#1891,.T.);
#1889 = VERTEX_POINT('',#1890);
#1890 = CARTESIAN_POINT('',(0.4,90.,6.687349978394));
#1891 = LINE('',#1892,#1893);
#1892 = CARTESIAN_POINT('',(0.4,89.856073759866,6.807288511839));
#1893 = VECTOR('',#1894,1.);
#1894 = DIRECTION('',(0.,0.768221279597,-0.640184399664));
#1895 = ORIENTED_EDGE('',*,*,#1896,.F.);
#1896 = EDGE_CURVE('',#1897,#1889,#1899,.T.);
#1897 = VERTEX_POINT('',#1898);
#1898 = CARTESIAN_POINT('',(0.4,90.,7.312650021606));
#1899 = LINE('',#1900,#1901);
#1900 = CARTESIAN_POINT('',(0.4,90.,7.5));
#1901 = VECTOR('',#1902,1.);
#1902 = DIRECTION('',(0.,-1.110223024625E-16,-1.));
#1903 = ORIENTED_EDGE('',*,*,#1904,.F.);
#1904 = EDGE_CURVE('',#1905,#1897,#1907,.T.);
#1905 = VERTEX_POINT('',#1906);
#1906 = CARTESIAN_POINT('',(0.4,90.344819974073,7.6));
#1907 = LINE('',#1908,#1909);
#1908 = CARTESIAN_POINT('',(0.4,90.456073759866,7.692711488161));
#1909 = VECTOR('',#1910,1.);
#1910 = DIRECTION('',(0.,-0.768221279597,-0.640184399664));
#1911 = ORIENTED_EDGE('',*,*,#1912,.T.);
#1912 = EDGE_CURVE('',#1905,#1913,#1915,.T.);
#1913 = VERTEX_POINT('',#1914);
#1914 = CARTESIAN_POINT('',(0.4,91.6,7.6));
#1915 = LINE('',#1916,#1917);
#1916 = CARTESIAN_POINT('',(0.4,90.2,7.6));
#1917 = VECTOR('',#1918,1.);
#1918 = DIRECTION('',(0.,1.,1.224646799147E-16));
#1919 = ORIENTED_EDGE('',*,*,#1920,.F.);
#1920 = EDGE_CURVE('',#1881,#1913,#1921,.T.);
#1921 = LINE('',#1922,#1923);
#1922 = CARTESIAN_POINT('',(0.4,91.6,6.));
#1923 = VECTOR('',#1924,1.);
#1924 = DIRECTION('',(0.,-1.110223024625E-16,1.));
#1925 = FACE_BOUND('',#1926,.F.);
#1926 = EDGE_LOOP('',(#1927,#1937,#1945,#1953,#1961,#1969));
#1927 = ORIENTED_EDGE('',*,*,#1928,.F.);
#1928 = EDGE_CURVE('',#1929,#1931,#1933,.T.);
#1929 = VERTEX_POINT('',#1930);
#1930 = CARTESIAN_POINT('',(0.4,90.344819974073,8.4));
#1931 = VERTEX_POINT('',#1932);
#1932 = CARTESIAN_POINT('',(0.4,91.6,8.4));
#1933 = LINE('',#1934,#1935);
#1934 = CARTESIAN_POINT('',(0.4,90.2,8.4));
#1935 = VECTOR('',#1936,1.);
#1936 = DIRECTION('',(0.,1.,1.224646799147E-16));
#1937 = ORIENTED_EDGE('',*,*,#1938,.F.);
#1938 = EDGE_CURVE('',#1939,#1929,#1941,.T.);
#1939 = VERTEX_POINT('',#1940);
#1940 = CARTESIAN_POINT('',(0.4,90.,8.687349978394));
#1941 = LINE('',#1942,#1943);
#1942 = CARTESIAN_POINT('',(0.4,89.856073759866,8.807288511839));
#1943 = VECTOR('',#1944,1.);
#1944 = DIRECTION('',(0.,0.768221279597,-0.640184399664));
#1945 = ORIENTED_EDGE('',*,*,#1946,.F.);
#1946 = EDGE_CURVE('',#1947,#1939,#1949,.T.);
#1947 = VERTEX_POINT('',#1948);
#1948 = CARTESIAN_POINT('',(0.4,90.,9.312650021606));
#1949 = LINE('',#1950,#1951);
#1950 = CARTESIAN_POINT('',(0.4,90.,9.5));
#1951 = VECTOR('',#1952,1.);
#1952 = DIRECTION('',(0.,-1.110223024625E-16,-1.));
#1953 = ORIENTED_EDGE('',*,*,#1954,.F.);
#1954 = EDGE_CURVE('',#1955,#1947,#1957,.T.);
#1955 = VERTEX_POINT('',#1956);
#1956 = CARTESIAN_POINT('',(0.4,90.344819974073,9.6));
#1957 = LINE('',#1958,#1959);
#1958 = CARTESIAN_POINT('',(0.4,90.456073759866,9.692711488161));
#1959 = VECTOR('',#1960,1.);
#1960 = DIRECTION('',(0.,-0.768221279597,-0.640184399664));
#1961 = ORIENTED_EDGE('',*,*,#1962,.F.);
#1962 = EDGE_CURVE('',#1963,#1955,#1965,.T.);
#1963 = VERTEX_POINT('',#1964);
#1964 = CARTESIAN_POINT('',(0.4,91.6,9.6));
#1965 = LINE('',#1966,#1967);
#1966 = CARTESIAN_POINT('',(0.4,92.,9.6));
#1967 = VECTOR('',#1968,1.);
#1968 = DIRECTION('',(0.,-1.,0.));
#1969 = ORIENTED_EDGE('',*,*,#1970,.F.);
#1970 = EDGE_CURVE('',#1931,#1963,#1971,.T.);
#1971 = LINE('',#1972,#1973);
#1972 = CARTESIAN_POINT('',(0.4,91.6,6.));
#1973 = VECTOR('',#1974,1.);
#1974 = DIRECTION('',(0.,-1.110223024625E-16,1.));
#1975 = PLANE('',#1976);
#1976 = AXIS2_PLACEMENT_3D('',#1977,#1978,#1979);
#1977 = CARTESIAN_POINT('',(0.4,90.86004529251,8.));
#1978 = DIRECTION('',(1.,0.,-0.));
#1979 = DIRECTION('',(0.,1.,0.));
#1980 = ADVANCED_FACE('',(#1981),#1997,.F.);
#1981 = FACE_BOUND('',#1982,.F.);
#1982 = EDGE_LOOP('',(#1983,#1984,#1985,#1986,#1987,#1988,#1989,#1990,
    #1991,#1992,#1993,#1994,#1995,#1996));
#1983 = ORIENTED_EDGE('',*,*,#1501,.F.);
#1984 = ORIENTED_EDGE('',*,*,#1801,.T.);
#1985 = ORIENTED_EDGE('',*,*,#1778,.F.);
#1986 = ORIENTED_EDGE('',*,*,#1752,.T.);
#1987 = ORIENTED_EDGE('',*,*,#1727,.F.);
#1988 = ORIENTED_EDGE('',*,*,#1703,.T.);
#1989 = ORIENTED_EDGE('',*,*,#1679,.T.);
#1990 = ORIENTED_EDGE('',*,*,#1654,.F.);
#1991 = ORIENTED_EDGE('',*,*,#1645,.F.);
#1992 = ORIENTED_EDGE('',*,*,#1621,.F.);
#1993 = ORIENTED_EDGE('',*,*,#1598,.F.);
#1994 = ORIENTED_EDGE('',*,*,#1572,.F.);
#1995 = ORIENTED_EDGE('',*,*,#1548,.F.);
#1996 = ORIENTED_EDGE('',*,*,#1524,.F.);
#1997 = PLANE('',#1998);
#1998 = AXIS2_PLACEMENT_3D('',#1999,#2000,#2001);
#1999 = CARTESIAN_POINT('',(0.4,86.809484835935,7.990170353604));
#2000 = DIRECTION('',(1.,0.,-0.));
#2001 = DIRECTION('',(0.,1.,0.));
#2002 = ADVANCED_FACE('',(#2003),#2028,.T.);
#2003 = FACE_BOUND('',#2004,.T.);
#2004 = EDGE_LOOP('',(#2005,#2006,#2014,#2022));
#2005 = ORIENTED_EDGE('',*,*,#1878,.F.);
#2006 = ORIENTED_EDGE('',*,*,#2007,.F.);
#2007 = EDGE_CURVE('',#2008,#1879,#2010,.T.);
#2008 = VERTEX_POINT('',#2009);
#2009 = CARTESIAN_POINT('',(1.24344978758E-14,90.344819974073,6.4));
#2010 = LINE('',#2011,#2012);
#2011 = CARTESIAN_POINT('',(0.4,90.344819974073,6.4));
#2012 = VECTOR('',#2013,1.);
#2013 = DIRECTION('',(1.,-0.,0.));
#2014 = ORIENTED_EDGE('',*,*,#2015,.F.);
#2015 = EDGE_CURVE('',#2016,#2008,#2018,.T.);
#2016 = VERTEX_POINT('',#2017);
#2017 = CARTESIAN_POINT('',(1.24344978758E-14,91.6,6.4));
#2018 = LINE('',#2019,#2020);
#2019 = CARTESIAN_POINT('',(1.24344978758E-14,91.1,6.4));
#2020 = VECTOR('',#2021,1.);
#2021 = DIRECTION('',(0.,-1.,-1.224646799147E-16));
#2022 = ORIENTED_EDGE('',*,*,#2023,.F.);
#2023 = EDGE_CURVE('',#1881,#2016,#2024,.T.);
#2024 = LINE('',#2025,#2026);
#2025 = CARTESIAN_POINT('',(0.4,91.6,6.4));
#2026 = VECTOR('',#2027,1.);
#2027 = DIRECTION('',(-1.,0.,0.));
#2028 = PLANE('',#2029);
#2029 = AXIS2_PLACEMENT_3D('',#2030,#2031,#2032);
#2030 = CARTESIAN_POINT('',(0.4,90.2,6.4));
#2031 = DIRECTION('',(-0.,1.224646799147E-16,-1.));
#2032 = DIRECTION('',(-1.,0.,0.));
#2033 = ADVANCED_FACE('',(#2034),#2052,.T.);
#2034 = FACE_BOUND('',#2035,.T.);
#2035 = EDGE_LOOP('',(#2036,#2037,#2045,#2051));
#2036 = ORIENTED_EDGE('',*,*,#1888,.F.);
#2037 = ORIENTED_EDGE('',*,*,#2038,.F.);
#2038 = EDGE_CURVE('',#2039,#1889,#2041,.T.);
#2039 = VERTEX_POINT('',#2040);
#2040 = CARTESIAN_POINT('',(1.24344978758E-14,90.,6.687349978394));
#2041 = LINE('',#2042,#2043);
#2042 = CARTESIAN_POINT('',(0.4,90.,6.687349978394));
#2043 = VECTOR('',#2044,1.);
#2044 = DIRECTION('',(1.,0.,0.));
#2045 = ORIENTED_EDGE('',*,*,#2046,.F.);
#2046 = EDGE_CURVE('',#2008,#2039,#2047,.T.);
#2047 = LINE('',#2048,#2049);
#2048 = CARTESIAN_POINT('',(1.24344978758E-14,90.342959005767,
    6.401550806921));
#2049 = VECTOR('',#2050,1.);
#2050 = DIRECTION('',(0.,-0.768221279597,0.640184399664));
#2051 = ORIENTED_EDGE('',*,*,#2007,.T.);
#2052 = PLANE('',#2053);
#2053 = AXIS2_PLACEMENT_3D('',#2054,#2055,#2056);
#2054 = CARTESIAN_POINT('',(0.4,89.856073759866,6.807288511839));
#2055 = DIRECTION('',(0.,-0.640184399664,-0.768221279597));
#2056 = DIRECTION('',(-1.,0.,0.));
#2057 = ADVANCED_FACE('',(#2058),#2076,.T.);
#2058 = FACE_BOUND('',#2059,.T.);
#2059 = EDGE_LOOP('',(#2060,#2061,#2069,#2075));
#2060 = ORIENTED_EDGE('',*,*,#1896,.F.);
#2061 = ORIENTED_EDGE('',*,*,#2062,.F.);
#2062 = EDGE_CURVE('',#2063,#1897,#2065,.T.);
#2063 = VERTEX_POINT('',#2064);
#2064 = CARTESIAN_POINT('',(1.24344978758E-14,90.,7.312650021606));
#2065 = LINE('',#2066,#2067);
#2066 = CARTESIAN_POINT('',(0.4,90.,7.312650021606));
#2067 = VECTOR('',#2068,1.);
#2068 = DIRECTION('',(1.,0.,0.));
#2069 = ORIENTED_EDGE('',*,*,#2070,.F.);
#2070 = EDGE_CURVE('',#2039,#2063,#2071,.T.);
#2071 = LINE('',#2072,#2073);
#2072 = CARTESIAN_POINT('',(1.24344978758E-14,90.,7.45));
#2073 = VECTOR('',#2074,1.);
#2074 = DIRECTION('',(0.,1.110223024625E-16,1.));
#2075 = ORIENTED_EDGE('',*,*,#2038,.T.);
#2076 = PLANE('',#2077);
#2077 = AXIS2_PLACEMENT_3D('',#2078,#2079,#2080);
#2078 = CARTESIAN_POINT('',(0.4,90.,7.5));
#2079 = DIRECTION('',(0.,-1.,1.110223024625E-16));
#2080 = DIRECTION('',(-1.,0.,0.));
#2081 = ADVANCED_FACE('',(#2082),#2100,.T.);
#2082 = FACE_BOUND('',#2083,.T.);
#2083 = EDGE_LOOP('',(#2084,#2085,#2093,#2099));
#2084 = ORIENTED_EDGE('',*,*,#1904,.F.);
#2085 = ORIENTED_EDGE('',*,*,#2086,.T.);
#2086 = EDGE_CURVE('',#1905,#2087,#2089,.T.);
#2087 = VERTEX_POINT('',#2088);
#2088 = CARTESIAN_POINT('',(1.24344978758E-14,90.344819974073,7.6));
#2089 = LINE('',#2090,#2091);
#2090 = CARTESIAN_POINT('',(0.4,90.344819974073,7.6));
#2091 = VECTOR('',#2092,1.);
#2092 = DIRECTION('',(-1.,0.,0.));
#2093 = ORIENTED_EDGE('',*,*,#2094,.F.);
#2094 = EDGE_CURVE('',#2063,#2087,#2095,.T.);
#2095 = LINE('',#2096,#2097);
#2096 = CARTESIAN_POINT('',(1.24344978758E-14,90.839680317243,
    8.012383619309));
#2097 = VECTOR('',#2098,1.);
#2098 = DIRECTION('',(0.,0.768221279597,0.640184399664));
#2099 = ORIENTED_EDGE('',*,*,#2062,.T.);
#2100 = PLANE('',#2101);
#2101 = AXIS2_PLACEMENT_3D('',#2102,#2103,#2104);
#2102 = CARTESIAN_POINT('',(0.4,90.456073759866,7.692711488161));
#2103 = DIRECTION('',(0.,-0.640184399664,0.768221279597));
#2104 = DIRECTION('',(-1.,0.,0.));
#2105 = ADVANCED_FACE('',(#2106),#2124,.F.);
#2106 = FACE_BOUND('',#2107,.F.);
#2107 = EDGE_LOOP('',(#2108,#2109,#2110,#2118));
#2108 = ORIENTED_EDGE('',*,*,#1912,.F.);
#2109 = ORIENTED_EDGE('',*,*,#2086,.T.);
#2110 = ORIENTED_EDGE('',*,*,#2111,.F.);
#2111 = EDGE_CURVE('',#2112,#2087,#2114,.T.);
#2112 = VERTEX_POINT('',#2113);
#2113 = CARTESIAN_POINT('',(1.24344978758E-14,91.6,7.6));
#2114 = LINE('',#2115,#2116);
#2115 = CARTESIAN_POINT('',(1.24344978758E-14,91.1,7.6));
#2116 = VECTOR('',#2117,1.);
#2117 = DIRECTION('',(0.,-1.,-1.224646799147E-16));
#2118 = ORIENTED_EDGE('',*,*,#2119,.F.);
#2119 = EDGE_CURVE('',#1913,#2112,#2120,.T.);
#2120 = LINE('',#2121,#2122);
#2121 = CARTESIAN_POINT('',(0.4,91.6,7.6));
#2122 = VECTOR('',#2123,1.);
#2123 = DIRECTION('',(-1.,0.,0.));
#2124 = PLANE('',#2125);
#2125 = AXIS2_PLACEMENT_3D('',#2126,#2127,#2128);
#2126 = CARTESIAN_POINT('',(0.4,90.2,7.6));
#2127 = DIRECTION('',(-0.,1.224646799147E-16,-1.));
#2128 = DIRECTION('',(-1.,0.,0.));
#2129 = ADVANCED_FACE('',(#2130),#2141,.T.);
#2130 = FACE_BOUND('',#2131,.T.);
#2131 = EDGE_LOOP('',(#2132,#2133,#2134,#2140));
#2132 = ORIENTED_EDGE('',*,*,#1920,.F.);
#2133 = ORIENTED_EDGE('',*,*,#2023,.T.);
#2134 = ORIENTED_EDGE('',*,*,#2135,.F.);
#2135 = EDGE_CURVE('',#2112,#2016,#2136,.T.);
#2136 = LINE('',#2137,#2138);
#2137 = CARTESIAN_POINT('',(1.24344978758E-14,91.6,6.7));
#2138 = VECTOR('',#2139,1.);
#2139 = DIRECTION('',(0.,1.110223024625E-16,-1.));
#2140 = ORIENTED_EDGE('',*,*,#2119,.F.);
#2141 = PLANE('',#2142);
#2142 = AXIS2_PLACEMENT_3D('',#2143,#2144,#2145);
#2143 = CARTESIAN_POINT('',(0.4,91.6,6.));
#2144 = DIRECTION('',(0.,1.,1.110223024625E-16));
#2145 = DIRECTION('',(-1.,0.,0.));
#2146 = ADVANCED_FACE('',(#2147),#2172,.T.);
#2147 = FACE_BOUND('',#2148,.T.);
#2148 = EDGE_LOOP('',(#2149,#2150,#2158,#2166));
#2149 = ORIENTED_EDGE('',*,*,#1928,.F.);
#2150 = ORIENTED_EDGE('',*,*,#2151,.F.);
#2151 = EDGE_CURVE('',#2152,#1929,#2154,.T.);
#2152 = VERTEX_POINT('',#2153);
#2153 = CARTESIAN_POINT('',(1.24344978758E-14,90.344819974073,8.4));
#2154 = LINE('',#2155,#2156);
#2155 = CARTESIAN_POINT('',(0.4,90.344819974073,8.4));
#2156 = VECTOR('',#2157,1.);
#2157 = DIRECTION('',(1.,-0.,0.));
#2158 = ORIENTED_EDGE('',*,*,#2159,.F.);
#2159 = EDGE_CURVE('',#2160,#2152,#2162,.T.);
#2160 = VERTEX_POINT('',#2161);
#2161 = CARTESIAN_POINT('',(1.24344978758E-14,91.6,8.4));
#2162 = LINE('',#2163,#2164);
#2163 = CARTESIAN_POINT('',(1.24344978758E-14,91.1,8.4));
#2164 = VECTOR('',#2165,1.);
#2165 = DIRECTION('',(0.,-1.,-1.224646799147E-16));
#2166 = ORIENTED_EDGE('',*,*,#2167,.F.);
#2167 = EDGE_CURVE('',#1931,#2160,#2168,.T.);
#2168 = LINE('',#2169,#2170);
#2169 = CARTESIAN_POINT('',(0.4,91.6,8.4));
#2170 = VECTOR('',#2171,1.);
#2171 = DIRECTION('',(-1.,0.,0.));
#2172 = PLANE('',#2173);
#2173 = AXIS2_PLACEMENT_3D('',#2174,#2175,#2176);
#2174 = CARTESIAN_POINT('',(0.4,90.2,8.4));
#2175 = DIRECTION('',(-0.,1.224646799147E-16,-1.));
#2176 = DIRECTION('',(-1.,0.,0.));
#2177 = ADVANCED_FACE('',(#2178),#2196,.T.);
#2178 = FACE_BOUND('',#2179,.T.);
#2179 = EDGE_LOOP('',(#2180,#2181,#2189,#2195));
#2180 = ORIENTED_EDGE('',*,*,#1938,.F.);
#2181 = ORIENTED_EDGE('',*,*,#2182,.F.);
#2182 = EDGE_CURVE('',#2183,#1939,#2185,.T.);
#2183 = VERTEX_POINT('',#2184);
#2184 = CARTESIAN_POINT('',(1.24344978758E-14,90.,8.687349978394));
#2185 = LINE('',#2186,#2187);
#2186 = CARTESIAN_POINT('',(0.4,90.,8.687349978394));
#2187 = VECTOR('',#2188,1.);
#2188 = DIRECTION('',(1.,0.,0.));
#2189 = ORIENTED_EDGE('',*,*,#2190,.F.);
#2190 = EDGE_CURVE('',#2152,#2183,#2191,.T.);
#2191 = LINE('',#2192,#2193);
#2192 = CARTESIAN_POINT('',(1.24344978758E-14,90.834762284456,
    7.991714741347));
#2193 = VECTOR('',#2194,1.);
#2194 = DIRECTION('',(0.,-0.768221279597,0.640184399664));
#2195 = ORIENTED_EDGE('',*,*,#2151,.T.);
#2196 = PLANE('',#2197);
#2197 = AXIS2_PLACEMENT_3D('',#2198,#2199,#2200);
#2198 = CARTESIAN_POINT('',(0.4,89.856073759866,8.807288511839));
#2199 = DIRECTION('',(0.,-0.640184399664,-0.768221279597));
#2200 = DIRECTION('',(-1.,0.,0.));
#2201 = ADVANCED_FACE('',(#2202),#2220,.T.);
#2202 = FACE_BOUND('',#2203,.T.);
#2203 = EDGE_LOOP('',(#2204,#2205,#2213,#2219));
#2204 = ORIENTED_EDGE('',*,*,#1946,.F.);
#2205 = ORIENTED_EDGE('',*,*,#2206,.F.);
#2206 = EDGE_CURVE('',#2207,#1947,#2209,.T.);
#2207 = VERTEX_POINT('',#2208);
#2208 = CARTESIAN_POINT('',(1.24344978758E-14,90.,9.312650021606));
#2209 = LINE('',#2210,#2211);
#2210 = CARTESIAN_POINT('',(0.4,90.,9.312650021606));
#2211 = VECTOR('',#2212,1.);
#2212 = DIRECTION('',(1.,0.,0.));
#2213 = ORIENTED_EDGE('',*,*,#2214,.F.);
#2214 = EDGE_CURVE('',#2183,#2207,#2215,.T.);
#2215 = LINE('',#2216,#2217);
#2216 = CARTESIAN_POINT('',(1.24344978758E-14,90.,8.45));
#2217 = VECTOR('',#2218,1.);
#2218 = DIRECTION('',(0.,1.110223024625E-16,1.));
#2219 = ORIENTED_EDGE('',*,*,#2182,.T.);
#2220 = PLANE('',#2221);
#2221 = AXIS2_PLACEMENT_3D('',#2222,#2223,#2224);
#2222 = CARTESIAN_POINT('',(0.4,90.,9.5));
#2223 = DIRECTION('',(0.,-1.,1.110223024625E-16));
#2224 = DIRECTION('',(-1.,0.,0.));
#2225 = ADVANCED_FACE('',(#2226),#2244,.T.);
#2226 = FACE_BOUND('',#2227,.T.);
#2227 = EDGE_LOOP('',(#2228,#2229,#2237,#2243));
#2228 = ORIENTED_EDGE('',*,*,#1954,.F.);
#2229 = ORIENTED_EDGE('',*,*,#2230,.F.);
#2230 = EDGE_CURVE('',#2231,#1955,#2233,.T.);
#2231 = VERTEX_POINT('',#2232);
#2232 = CARTESIAN_POINT('',(1.24344978758E-14,90.344819974073,9.6));
#2233 = LINE('',#2234,#2235);
#2234 = CARTESIAN_POINT('',(0.4,90.344819974073,9.6));
#2235 = VECTOR('',#2236,1.);
#2236 = DIRECTION('',(1.,0.,0.));
#2237 = ORIENTED_EDGE('',*,*,#2238,.F.);
#2238 = EDGE_CURVE('',#2207,#2231,#2239,.T.);
#2239 = LINE('',#2240,#2241);
#2240 = CARTESIAN_POINT('',(1.24344978758E-14,90.347877038554,
    9.602547553735));
#2241 = VECTOR('',#2242,1.);
#2242 = DIRECTION('',(0.,0.768221279597,0.640184399664));
#2243 = ORIENTED_EDGE('',*,*,#2206,.T.);
#2244 = PLANE('',#2245);
#2245 = AXIS2_PLACEMENT_3D('',#2246,#2247,#2248);
#2246 = CARTESIAN_POINT('',(0.4,90.456073759866,9.692711488161));
#2247 = DIRECTION('',(0.,-0.640184399664,0.768221279597));
#2248 = DIRECTION('',(-1.,0.,0.));
#2249 = ADVANCED_FACE('',(#2250),#2268,.T.);
#2250 = FACE_BOUND('',#2251,.T.);
#2251 = EDGE_LOOP('',(#2252,#2253,#2261,#2267));
#2252 = ORIENTED_EDGE('',*,*,#1962,.F.);
#2253 = ORIENTED_EDGE('',*,*,#2254,.F.);
#2254 = EDGE_CURVE('',#2255,#1963,#2257,.T.);
#2255 = VERTEX_POINT('',#2256);
#2256 = CARTESIAN_POINT('',(1.24344978758E-14,91.6,9.6));
#2257 = LINE('',#2258,#2259);
#2258 = CARTESIAN_POINT('',(0.4,91.6,9.6));
#2259 = VECTOR('',#2260,1.);
#2260 = DIRECTION('',(1.,0.,0.));
#2261 = ORIENTED_EDGE('',*,*,#2262,.F.);
#2262 = EDGE_CURVE('',#2231,#2255,#2263,.T.);
#2263 = LINE('',#2264,#2265);
#2264 = CARTESIAN_POINT('',(1.24344978758E-14,92.,9.6));
#2265 = VECTOR('',#2266,1.);
#2266 = DIRECTION('',(0.,1.,0.));
#2267 = ORIENTED_EDGE('',*,*,#2230,.T.);
#2268 = PLANE('',#2269);
#2269 = AXIS2_PLACEMENT_3D('',#2270,#2271,#2272);
#2270 = CARTESIAN_POINT('',(0.4,92.,9.6));
#2271 = DIRECTION('',(0.,0.,1.));
#2272 = DIRECTION('',(-1.,0.,0.));
#2273 = ADVANCED_FACE('',(#2274),#2285,.T.);
#2274 = FACE_BOUND('',#2275,.T.);
#2275 = EDGE_LOOP('',(#2276,#2277,#2278,#2284));
#2276 = ORIENTED_EDGE('',*,*,#1970,.F.);
#2277 = ORIENTED_EDGE('',*,*,#2167,.T.);
#2278 = ORIENTED_EDGE('',*,*,#2279,.F.);
#2279 = EDGE_CURVE('',#2255,#2160,#2280,.T.);
#2280 = LINE('',#2281,#2282);
#2281 = CARTESIAN_POINT('',(1.24344978758E-14,91.6,6.7));
#2282 = VECTOR('',#2283,1.);
#2283 = DIRECTION('',(0.,1.110223024625E-16,-1.));
#2284 = ORIENTED_EDGE('',*,*,#2254,.T.);
#2285 = PLANE('',#2286);
#2286 = AXIS2_PLACEMENT_3D('',#2287,#2288,#2289);
#2287 = CARTESIAN_POINT('',(0.4,91.6,6.));
#2288 = DIRECTION('',(0.,1.,1.110223024625E-16));
#2289 = DIRECTION('',(-1.,0.,0.));
#2290 = ADVANCED_FACE('',(#2291),#2299,.T.);
#2291 = FACE_BOUND('',#2292,.T.);
#2292 = EDGE_LOOP('',(#2293,#2294,#2295,#2296,#2297,#2298));
#2293 = ORIENTED_EDGE('',*,*,#2135,.T.);
#2294 = ORIENTED_EDGE('',*,*,#2015,.T.);
#2295 = ORIENTED_EDGE('',*,*,#2046,.T.);
#2296 = ORIENTED_EDGE('',*,*,#2070,.T.);
#2297 = ORIENTED_EDGE('',*,*,#2094,.T.);
#2298 = ORIENTED_EDGE('',*,*,#2111,.F.);
#2299 = PLANE('',#2300);
#2300 = AXIS2_PLACEMENT_3D('',#2301,#2302,#2303);
#2301 = CARTESIAN_POINT('',(1.24344978758E-14,92.,7.4));
#2302 = DIRECTION('',(-1.,0.,-0.));
#2303 = DIRECTION('',(0.,1.,-2.22044604925E-16));
#2304 = ADVANCED_FACE('',(#2305),#2313,.T.);
#2305 = FACE_BOUND('',#2306,.T.);
#2306 = EDGE_LOOP('',(#2307,#2308,#2309,#2310,#2311,#2312));
#2307 = ORIENTED_EDGE('',*,*,#2262,.T.);
#2308 = ORIENTED_EDGE('',*,*,#2279,.T.);
#2309 = ORIENTED_EDGE('',*,*,#2159,.T.);
#2310 = ORIENTED_EDGE('',*,*,#2190,.T.);
#2311 = ORIENTED_EDGE('',*,*,#2214,.T.);
#2312 = ORIENTED_EDGE('',*,*,#2238,.T.);
#2313 = PLANE('',#2314);
#2314 = AXIS2_PLACEMENT_3D('',#2315,#2316,#2317);
#2315 = CARTESIAN_POINT('',(1.24344978758E-14,92.,7.4));
#2316 = DIRECTION('',(-1.,0.,-0.));
#2317 = DIRECTION('',(0.,1.,-2.22044604925E-16));
#2318 = ( GEOMETRIC_REPRESENTATION_CONTEXT(3)
GLOBAL_UNCERTAINTY_ASSIGNED_CONTEXT((#2322))
GLOBAL_UNIT_ASSIGNED_CONTEXT((#2319,#2320,#2321)) REPRESENTATION_CONTEXT
('Context #1','3D Context with UNIT and UNCERTAINTY') );
#2319 = ( LENGTH_UNIT() NAMED_UNIT(*) SI_UNIT(.MILLI.,.METRE.) );
#2320 = ( NAMED_UNIT(*) PLANE_ANGLE_UNIT() SI_UNIT($,.RADIAN.) );
#2321 = ( NAMED_UNIT(*) SI_UNIT($,.STERADIAN.) SOLID_ANGLE_UNIT() );
#2322 = UNCERTAINTY_MEASURE_WITH_UNIT(LENGTH_MEASURE(1.E-07),#2319,
  'distance_accuracy_value','confusion accuracy');
#2323 = PRODUCT_RELATED_PRODUCT_CATEGORY('part',$,(#7));
ENDSEC;
END-ISO-10303-21;
