ISO-10303-21;
HEADER;
FILE_DESCRIPTION(('FreeCAD Model'),'2;1');
FILE_NAME('Open CASCADE Shape Model','2026-09-29T16:58:25',('FreeCAD'),(
    'FreeCAD'),'Open CASCADE STEP processor 7.8','FreeCAD','Unknown');
FILE_SCHEMA(('AUTOMOTIVE_DESIGN { 1 0 10303 214 1 1 1 1 }'));
ENDSEC;
DATA;
#1 = APPLICATION_PROTOCOL_DEFINITION('international standard',
  'automotive_design',2000,#2);
#2 = APPLICATION_CONTEXT(
  'core data for automotive mechanical design processes');
#3 = SHAPE_DEFINITION_REPRESENTATION(#4,#10);
#4 = PRODUCT_DEFINITION_SHAPE('','',#5);
#5 = PRODUCT_DEFINITION('design','',#6,#9);
#6 = PRODUCT_DEFINITION_FORMATION('','',#7);
#7 = PRODUCT('Open CASCADE STEP translator 7.8 1',
  'Open CASCADE STEP translator 7.8 1','',(#8));
#8 = PRODUCT_CONTEXT('',#2,'mechanical');
#9 = PRODUCT_DEFINITION_CONTEXT('part definition',#2,'design');
#10 = ADVANCED_BREP_SHAPE_REPRESENTATION('',(#11,#15),#441);
#11 = AXIS2_PLACEMENT_3D('',#12,#13,#14);
#12 = CARTESIAN_POINT('',(0.,0.,0.));
#13 = DIRECTION('',(0.,0.,1.));
#14 = DIRECTION('',(1.,0.,-0.));
#15 = MANIFOLD_SOLID_BREP('',#16);
#16 = CLOSED_SHELL('',(#17,#91,#124,#155,#186,#210,#234,#251,#282,#294,
    #325,#356,#387,#408,#429));
#17 = ADVANCED_FACE('',(#18,#52),#86,.T.);
#18 = FACE_BOUND('',#19,.T.);
#19 = EDGE_LOOP('',(#20,#30,#38,#46));
#20 = ORIENTED_EDGE('',*,*,#21,.F.);
#21 = EDGE_CURVE('',#22,#24,#26,.T.);
#22 = VERTEX_POINT('',#23);
#23 = CARTESIAN_POINT('',(40.,14.,2.4));
#24 = VERTEX_POINT('',#25);
#25 = CARTESIAN_POINT('',(40.,14.,5.4));
#26 = LINE('',#27,#28);
#27 = CARTESIAN_POINT('',(40.,14.,1.2));
#28 = VECTOR('',#29,1.);
#29 = DIRECTION('',(0.,0.,1.));
#30 = ORIENTED_EDGE('',*,*,#31,.T.);
#31 = EDGE_CURVE('',#22,#32,#34,.T.);
#32 = VERTEX_POINT('',#33);
#33 = CARTESIAN_POINT('',(40.,6.,2.4));
#34 = LINE('',#35,#36);
#35 = CARTESIAN_POINT('',(40.,3.,2.4));
#36 = VECTOR('',#37,1.);
#37 = DIRECTION('',(0.,-1.,0.));
#38 = ORIENTED_EDGE('',*,*,#39,.T.);
#39 = EDGE_CURVE('',#32,#40,#42,.T.);
#40 = VERTEX_POINT('',#41);
#41 = CARTESIAN_POINT('',(40.,6.,5.4));
#42 = LINE('',#43,#44);
#43 = CARTESIAN_POINT('',(40.,6.,1.2));
#44 = VECTOR('',#45,1.);
#45 = DIRECTION('',(0.,0.,1.));
#46 = ORIENTED_EDGE('',*,*,#47,.F.);
#47 = EDGE_CURVE('',#24,#40,#48,.T.);
#48 = LINE('',#49,#50);
#49 = CARTESIAN_POINT('',(40.,14.,5.4));
#50 = VECTOR('',#51,1.);
#51 = DIRECTION('',(0.,-1.,0.));
#52 = FACE_BOUND('',#53,.T.);
#53 = EDGE_LOOP('',(#54,#64,#72,#80));
#54 = ORIENTED_EDGE('',*,*,#55,.F.);
#55 = EDGE_CURVE('',#56,#58,#60,.T.);
#56 = VERTEX_POINT('',#57);
#57 = CARTESIAN_POINT('',(40.,0.,0.));
#58 = VERTEX_POINT('',#59);
#59 = CARTESIAN_POINT('',(40.,0.,8.));
#60 = LINE('',#61,#62);
#61 = CARTESIAN_POINT('',(40.,0.,0.));
#62 = VECTOR('',#63,1.);
#63 = DIRECTION('',(0.,0.,1.));
#64 = ORIENTED_EDGE('',*,*,#65,.T.);
#65 = EDGE_CURVE('',#56,#66,#68,.T.);
#66 = VERTEX_POINT('',#67);
#67 = CARTESIAN_POINT('',(40.,20.,0.));
#68 = LINE('',#69,#70);
#69 = CARTESIAN_POINT('',(40.,0.,0.));
#70 = VECTOR('',#71,1.);
#71 = DIRECTION('',(-0.,1.,0.));
#72 = ORIENTED_EDGE('',*,*,#73,.T.);
#73 = EDGE_CURVE('',#66,#74,#76,.T.);
#74 = VERTEX_POINT('',#75);
#75 = CARTESIAN_POINT('',(40.,20.,8.));
#76 = LINE('',#77,#78);
#77 = CARTESIAN_POINT('',(40.,20.,0.));
#78 = VECTOR('',#79,1.);
#79 = DIRECTION('',(0.,0.,1.));
#80 = ORIENTED_EDGE('',*,*,#81,.F.);
#81 = EDGE_CURVE('',#58,#74,#82,.T.);
#82 = LINE('',#83,#84);
#83 = CARTESIAN_POINT('',(40.,0.,8.));
#84 = VECTOR('',#85,1.);
#85 = DIRECTION('',(-0.,1.,0.));
#86 = PLANE('',#87);
#87 = AXIS2_PLACEMENT_3D('',#88,#89,#90);
#88 = CARTESIAN_POINT('',(40.,0.,0.));
#89 = DIRECTION('',(1.,0.,-0.));
#90 = DIRECTION('',(0.,0.,1.));
#91 = ADVANCED_FACE('',(#92),#119,.F.);
#92 = FACE_BOUND('',#93,.F.);
#93 = EDGE_LOOP('',(#94,#103,#111,#118));
#94 = ORIENTED_EDGE('',*,*,#95,.T.);
#95 = EDGE_CURVE('',#24,#96,#98,.T.);
#96 = VERTEX_POINT('',#97);
#97 = CARTESIAN_POINT('',(41.,14.,4.4));
#98 = CIRCLE('',#99,1.);
#99 = AXIS2_PLACEMENT_3D('',#100,#101,#102);
#100 = CARTESIAN_POINT('',(41.,14.,5.4));
#101 = DIRECTION('',(0.,-1.,0.));
#102 = DIRECTION('',(0.,-0.,-1.));
#103 = ORIENTED_EDGE('',*,*,#104,.T.);
#104 = EDGE_CURVE('',#96,#105,#107,.T.);
#105 = VERTEX_POINT('',#106);
#106 = CARTESIAN_POINT('',(41.,6.,4.4));
#107 = LINE('',#108,#109);
#108 = CARTESIAN_POINT('',(41.,14.,4.4));
#109 = VECTOR('',#110,1.);
#110 = DIRECTION('',(0.,-1.,0.));
#111 = ORIENTED_EDGE('',*,*,#112,.F.);
#112 = EDGE_CURVE('',#40,#105,#113,.T.);
#113 = CIRCLE('',#114,1.);
#114 = AXIS2_PLACEMENT_3D('',#115,#116,#117);
#115 = CARTESIAN_POINT('',(41.,6.,5.4));
#116 = DIRECTION('',(0.,-1.,0.));
#117 = DIRECTION('',(0.,-0.,-1.));
#118 = ORIENTED_EDGE('',*,*,#47,.F.);
#119 = CYLINDRICAL_SURFACE('',#120,1.);
#120 = AXIS2_PLACEMENT_3D('',#121,#122,#123);
#121 = CARTESIAN_POINT('',(41.,14.,5.4));
#122 = DIRECTION('',(0.,-1.,0.));
#123 = DIRECTION('',(-1.,0.,0.));
#124 = ADVANCED_FACE('',(#125),#150,.F.);
#125 = FACE_BOUND('',#126,.F.);
#126 = EDGE_LOOP('',(#127,#135,#136,#144));
#127 = ORIENTED_EDGE('',*,*,#128,.F.);
#128 = EDGE_CURVE('',#22,#129,#131,.T.);
#129 = VERTEX_POINT('',#130);
#130 = CARTESIAN_POINT('',(52.,14.,2.4));
#131 = LINE('',#132,#133);
#132 = CARTESIAN_POINT('',(38.,14.,2.4));
#133 = VECTOR('',#134,1.);
#134 = DIRECTION('',(1.,0.,-0.));
#135 = ORIENTED_EDGE('',*,*,#31,.T.);
#136 = ORIENTED_EDGE('',*,*,#137,.T.);
#137 = EDGE_CURVE('',#32,#138,#140,.T.);
#138 = VERTEX_POINT('',#139);
#139 = CARTESIAN_POINT('',(52.,6.,2.4));
#140 = LINE('',#141,#142);
#141 = CARTESIAN_POINT('',(38.,6.,2.4));
#142 = VECTOR('',#143,1.);
#143 = DIRECTION('',(1.,0.,-0.));
#144 = ORIENTED_EDGE('',*,*,#145,.T.);
#145 = EDGE_CURVE('',#138,#129,#146,.T.);
#146 = LINE('',#147,#148);
#147 = CARTESIAN_POINT('',(52.,6.,2.4));
#148 = VECTOR('',#149,1.);
#149 = DIRECTION('',(-0.,1.,0.));
#150 = PLANE('',#151);
#151 = AXIS2_PLACEMENT_3D('',#152,#153,#154);
#152 = CARTESIAN_POINT('',(38.,6.,2.4));
#153 = DIRECTION('',(0.,0.,1.));
#154 = DIRECTION('',(1.,0.,-0.));
#155 = ADVANCED_FACE('',(#156),#181,.F.);
#156 = FACE_BOUND('',#157,.F.);
#157 = EDGE_LOOP('',(#158,#166,#174,#180));
#158 = ORIENTED_EDGE('',*,*,#159,.F.);
#159 = EDGE_CURVE('',#160,#56,#162,.T.);
#160 = VERTEX_POINT('',#161);
#161 = CARTESIAN_POINT('',(0.,0.,0.));
#162 = LINE('',#163,#164);
#163 = CARTESIAN_POINT('',(0.,0.,0.));
#164 = VECTOR('',#165,1.);
#165 = DIRECTION('',(1.,0.,-0.));
#166 = ORIENTED_EDGE('',*,*,#167,.T.);
#167 = EDGE_CURVE('',#160,#168,#170,.T.);
#168 = VERTEX_POINT('',#169);
#169 = CARTESIAN_POINT('',(0.,0.,8.));
#170 = LINE('',#171,#172);
#171 = CARTESIAN_POINT('',(0.,0.,0.));
#172 = VECTOR('',#173,1.);
#173 = DIRECTION('',(0.,0.,1.));
#174 = ORIENTED_EDGE('',*,*,#175,.T.);
#175 = EDGE_CURVE('',#168,#58,#176,.T.);
#176 = LINE('',#177,#178);
#177 = CARTESIAN_POINT('',(0.,0.,8.));
#178 = VECTOR('',#179,1.);
#179 = DIRECTION('',(1.,0.,-0.));
#180 = ORIENTED_EDGE('',*,*,#55,.F.);
#181 = PLANE('',#182);
#182 = AXIS2_PLACEMENT_3D('',#183,#184,#185);
#183 = CARTESIAN_POINT('',(0.,0.,0.));
#184 = DIRECTION('',(-0.,1.,0.));
#185 = DIRECTION('',(0.,0.,1.));
#186 = ADVANCED_FACE('',(#187),#205,.T.);
#187 = FACE_BOUND('',#188,.T.);
#188 = EDGE_LOOP('',(#189,#197,#198,#199));
#189 = ORIENTED_EDGE('',*,*,#190,.F.);
#190 = EDGE_CURVE('',#168,#191,#193,.T.);
#191 = VERTEX_POINT('',#192);
#192 = CARTESIAN_POINT('',(0.,20.,8.));
#193 = LINE('',#194,#195);
#194 = CARTESIAN_POINT('',(0.,0.,8.));
#195 = VECTOR('',#196,1.);
#196 = DIRECTION('',(-0.,1.,0.));
#197 = ORIENTED_EDGE('',*,*,#175,.T.);
#198 = ORIENTED_EDGE('',*,*,#81,.T.);
#199 = ORIENTED_EDGE('',*,*,#200,.F.);
#200 = EDGE_CURVE('',#191,#74,#201,.T.);
#201 = LINE('',#202,#203);
#202 = CARTESIAN_POINT('',(0.,20.,8.));
#203 = VECTOR('',#204,1.);
#204 = DIRECTION('',(1.,0.,-0.));
#205 = PLANE('',#206);
#206 = AXIS2_PLACEMENT_3D('',#207,#208,#209);
#207 = CARTESIAN_POINT('',(0.,0.,8.));
#208 = DIRECTION('',(0.,0.,1.));
#209 = DIRECTION('',(1.,0.,-0.));
#210 = ADVANCED_FACE('',(#211),#229,.F.);
#211 = FACE_BOUND('',#212,.F.);
#212 = EDGE_LOOP('',(#213,#221,#222,#223));
#213 = ORIENTED_EDGE('',*,*,#214,.F.);
#214 = EDGE_CURVE('',#160,#215,#217,.T.);
#215 = VERTEX_POINT('',#216);
#216 = CARTESIAN_POINT('',(0.,20.,0.));
#217 = LINE('',#218,#219);
#218 = CARTESIAN_POINT('',(0.,0.,0.));
#219 = VECTOR('',#220,1.);
#220 = DIRECTION('',(-0.,1.,0.));
#221 = ORIENTED_EDGE('',*,*,#159,.T.);
#222 = ORIENTED_EDGE('',*,*,#65,.T.);
#223 = ORIENTED_EDGE('',*,*,#224,.F.);
#224 = EDGE_CURVE('',#215,#66,#225,.T.);
#225 = LINE('',#226,#227);
#226 = CARTESIAN_POINT('',(0.,20.,0.));
#227 = VECTOR('',#228,1.);
#228 = DIRECTION('',(1.,0.,-0.));
#229 = PLANE('',#230);
#230 = AXIS2_PLACEMENT_3D('',#231,#232,#233);
#231 = CARTESIAN_POINT('',(0.,0.,0.));
#232 = DIRECTION('',(0.,0.,1.));
#233 = DIRECTION('',(1.,0.,-0.));
#234 = ADVANCED_FACE('',(#235),#246,.T.);
#235 = FACE_BOUND('',#236,.T.);
#236 = EDGE_LOOP('',(#237,#238,#244,#245));
#237 = ORIENTED_EDGE('',*,*,#224,.F.);
#238 = ORIENTED_EDGE('',*,*,#239,.T.);
#239 = EDGE_CURVE('',#215,#191,#240,.T.);
#240 = LINE('',#241,#242);
#241 = CARTESIAN_POINT('',(0.,20.,0.));
#242 = VECTOR('',#243,1.);
#243 = DIRECTION('',(0.,0.,1.));
#244 = ORIENTED_EDGE('',*,*,#200,.T.);
#245 = ORIENTED_EDGE('',*,*,#73,.F.);
#246 = PLANE('',#247);
#247 = AXIS2_PLACEMENT_3D('',#248,#249,#250);
#248 = CARTESIAN_POINT('',(0.,20.,0.));
#249 = DIRECTION('',(-0.,1.,0.));
#250 = DIRECTION('',(0.,0.,1.));
#251 = ADVANCED_FACE('',(#252),#277,.T.);
#252 = FACE_BOUND('',#253,.T.);
#253 = EDGE_LOOP('',(#254,#262,#263,#271));
#254 = ORIENTED_EDGE('',*,*,#255,.F.);
#255 = EDGE_CURVE('',#96,#256,#258,.T.);
#256 = VERTEX_POINT('',#257);
#257 = CARTESIAN_POINT('',(50.157216496802,14.,4.4));
#258 = LINE('',#259,#260);
#259 = CARTESIAN_POINT('',(38.,14.,4.4));
#260 = VECTOR('',#261,1.);
#261 = DIRECTION('',(1.,0.,-0.));
#262 = ORIENTED_EDGE('',*,*,#104,.T.);
#263 = ORIENTED_EDGE('',*,*,#264,.T.);
#264 = EDGE_CURVE('',#105,#265,#267,.T.);
#265 = VERTEX_POINT('',#266);
#266 = CARTESIAN_POINT('',(50.157216496802,6.,4.4));
#267 = LINE('',#268,#269);
#268 = CARTESIAN_POINT('',(38.,6.,4.4));
#269 = VECTOR('',#270,1.);
#270 = DIRECTION('',(1.,0.,-0.));
#271 = ORIENTED_EDGE('',*,*,#272,.F.);
#272 = EDGE_CURVE('',#256,#265,#273,.T.);
#273 = LINE('',#274,#275);
#274 = CARTESIAN_POINT('',(50.157216496802,6.,4.4));
#275 = VECTOR('',#276,1.);
#276 = DIRECTION('',(0.,-1.,0.));
#277 = PLANE('',#278);
#278 = AXIS2_PLACEMENT_3D('',#279,#280,#281);
#279 = CARTESIAN_POINT('',(38.,6.,4.4));
#280 = DIRECTION('',(0.,0.,1.));
#281 = DIRECTION('',(1.,0.,-0.));
#282 = ADVANCED_FACE('',(#283),#289,.F.);
#283 = FACE_BOUND('',#284,.F.);
#284 = EDGE_LOOP('',(#285,#286,#287,#288));
#285 = ORIENTED_EDGE('',*,*,#167,.F.);
#286 = ORIENTED_EDGE('',*,*,#214,.T.);
#287 = ORIENTED_EDGE('',*,*,#239,.T.);
#288 = ORIENTED_EDGE('',*,*,#190,.F.);
#289 = PLANE('',#290);
#290 = AXIS2_PLACEMENT_3D('',#291,#292,#293);
#291 = CARTESIAN_POINT('',(0.,0.,0.));
#292 = DIRECTION('',(1.,0.,-0.));
#293 = DIRECTION('',(0.,0.,1.));
#294 = ADVANCED_FACE('',(#295),#320,.T.);
#295 = FACE_BOUND('',#296,.T.);
#296 = EDGE_LOOP('',(#297,#305,#313,#319));
#297 = ORIENTED_EDGE('',*,*,#298,.F.);
#298 = EDGE_CURVE('',#299,#265,#301,.T.);
#299 = VERTEX_POINT('',#300);
#300 = CARTESIAN_POINT('',(50.614359353945,6.,5.2));
#301 = LINE('',#302,#303);
#302 = CARTESIAN_POINT('',(50.614359353945,6.,5.2));
#303 = VECTOR('',#304,1.);
#304 = DIRECTION('',(-0.496138938357,0.,-0.868243142124));
#305 = ORIENTED_EDGE('',*,*,#306,.T.);
#306 = EDGE_CURVE('',#299,#307,#309,.T.);
#307 = VERTEX_POINT('',#308);
#308 = CARTESIAN_POINT('',(50.614359353945,14.,5.2));
#309 = LINE('',#310,#311);
#310 = CARTESIAN_POINT('',(50.614359353945,6.,5.2));
#311 = VECTOR('',#312,1.);
#312 = DIRECTION('',(0.,1.,0.));
#313 = ORIENTED_EDGE('',*,*,#314,.T.);
#314 = EDGE_CURVE('',#307,#256,#315,.T.);
#315 = LINE('',#316,#317);
#316 = CARTESIAN_POINT('',(50.614359353945,14.,5.2));
#317 = VECTOR('',#318,1.);
#318 = DIRECTION('',(-0.496138938357,0.,-0.868243142124));
#319 = ORIENTED_EDGE('',*,*,#272,.T.);
#320 = PLANE('',#321);
#321 = AXIS2_PLACEMENT_3D('',#322,#323,#324);
#322 = CARTESIAN_POINT('',(50.614359353945,6.,5.2));
#323 = DIRECTION('',(-0.868243142124,0.,0.496138938357));
#324 = DIRECTION('',(-0.496138938357,0.,-0.868243142124));
#325 = ADVANCED_FACE('',(#326),#351,.T.);
#326 = FACE_BOUND('',#327,.T.);
#327 = EDGE_LOOP('',(#328,#336,#344,#350));
#328 = ORIENTED_EDGE('',*,*,#329,.F.);
#329 = EDGE_CURVE('',#330,#299,#332,.T.);
#330 = VERTEX_POINT('',#331);
#331 = CARTESIAN_POINT('',(51.406154008834,6.,4.4));
#332 = LINE('',#333,#334);
#333 = CARTESIAN_POINT('',(52.,6.,3.8));
#334 = VECTOR('',#335,1.);
#335 = DIRECTION('',(-0.703452458113,0.,0.710742315594));
#336 = ORIENTED_EDGE('',*,*,#337,.T.);
#337 = EDGE_CURVE('',#330,#338,#340,.T.);
#338 = VERTEX_POINT('',#339);
#339 = CARTESIAN_POINT('',(51.406154008834,14.,4.4));
#340 = LINE('',#341,#342);
#341 = CARTESIAN_POINT('',(51.406154008834,6.,4.4));
#342 = VECTOR('',#343,1.);
#343 = DIRECTION('',(0.,1.,-0.));
#344 = ORIENTED_EDGE('',*,*,#345,.T.);
#345 = EDGE_CURVE('',#338,#307,#346,.T.);
#346 = LINE('',#347,#348);
#347 = CARTESIAN_POINT('',(52.,14.,3.8));
#348 = VECTOR('',#349,1.);
#349 = DIRECTION('',(-0.703452458113,0.,0.710742315594));
#350 = ORIENTED_EDGE('',*,*,#306,.F.);
#351 = PLANE('',#352);
#352 = AXIS2_PLACEMENT_3D('',#353,#354,#355);
#353 = CARTESIAN_POINT('',(52.,6.,3.8));
#354 = DIRECTION('',(0.710742315594,-0.,0.703452458113));
#355 = DIRECTION('',(-0.703452458113,0.,0.710742315594));
#356 = ADVANCED_FACE('',(#357),#382,.T.);
#357 = FACE_BOUND('',#358,.T.);
#358 = EDGE_LOOP('',(#359,#367,#368,#376));
#359 = ORIENTED_EDGE('',*,*,#360,.F.);
#360 = EDGE_CURVE('',#338,#361,#363,.T.);
#361 = VERTEX_POINT('',#362);
#362 = CARTESIAN_POINT('',(52.,14.,4.4));
#363 = LINE('',#364,#365);
#364 = CARTESIAN_POINT('',(38.,14.,4.4));
#365 = VECTOR('',#366,1.);
#366 = DIRECTION('',(1.,0.,-0.));
#367 = ORIENTED_EDGE('',*,*,#337,.F.);
#368 = ORIENTED_EDGE('',*,*,#369,.T.);
#369 = EDGE_CURVE('',#330,#370,#372,.T.);
#370 = VERTEX_POINT('',#371);
#371 = CARTESIAN_POINT('',(52.,6.,4.4));
#372 = LINE('',#373,#374);
#373 = CARTESIAN_POINT('',(38.,6.,4.4));
#374 = VECTOR('',#375,1.);
#375 = DIRECTION('',(1.,0.,-0.));
#376 = ORIENTED_EDGE('',*,*,#377,.T.);
#377 = EDGE_CURVE('',#370,#361,#378,.T.);
#378 = LINE('',#379,#380);
#379 = CARTESIAN_POINT('',(52.,6.,4.4));
#380 = VECTOR('',#381,1.);
#381 = DIRECTION('',(-0.,1.,0.));
#382 = PLANE('',#383);
#383 = AXIS2_PLACEMENT_3D('',#384,#385,#386);
#384 = CARTESIAN_POINT('',(38.,6.,4.4));
#385 = DIRECTION('',(0.,0.,1.));
#386 = DIRECTION('',(1.,0.,-0.));
#387 = ADVANCED_FACE('',(#388),#403,.T.);
#388 = FACE_BOUND('',#389,.T.);
#389 = EDGE_LOOP('',(#390,#391,#392,#393,#394,#400,#401,#402));
#390 = ORIENTED_EDGE('',*,*,#255,.T.);
#391 = ORIENTED_EDGE('',*,*,#314,.F.);
#392 = ORIENTED_EDGE('',*,*,#345,.F.);
#393 = ORIENTED_EDGE('',*,*,#360,.T.);
#394 = ORIENTED_EDGE('',*,*,#395,.F.);
#395 = EDGE_CURVE('',#129,#361,#396,.T.);
#396 = LINE('',#397,#398);
#397 = CARTESIAN_POINT('',(52.,14.,2.4));
#398 = VECTOR('',#399,1.);
#399 = DIRECTION('',(0.,0.,1.));
#400 = ORIENTED_EDGE('',*,*,#128,.F.);
#401 = ORIENTED_EDGE('',*,*,#21,.T.);
#402 = ORIENTED_EDGE('',*,*,#95,.T.);
#403 = PLANE('',#404);
#404 = AXIS2_PLACEMENT_3D('',#405,#406,#407);
#405 = CARTESIAN_POINT('',(45.818062076685,14.,3.540250703621));
#406 = DIRECTION('',(0.,1.,0.));
#407 = DIRECTION('',(0.,-0.,1.));
#408 = ADVANCED_FACE('',(#409),#424,.T.);
#409 = FACE_BOUND('',#410,.T.);
#410 = EDGE_LOOP('',(#411,#412,#413,#414,#415,#421,#422,#423));
#411 = ORIENTED_EDGE('',*,*,#264,.F.);
#412 = ORIENTED_EDGE('',*,*,#112,.F.);
#413 = ORIENTED_EDGE('',*,*,#39,.F.);
#414 = ORIENTED_EDGE('',*,*,#137,.T.);
#415 = ORIENTED_EDGE('',*,*,#416,.T.);
#416 = EDGE_CURVE('',#138,#370,#417,.T.);
#417 = LINE('',#418,#419);
#418 = CARTESIAN_POINT('',(52.,6.,2.4));
#419 = VECTOR('',#420,1.);
#420 = DIRECTION('',(0.,0.,1.));
#421 = ORIENTED_EDGE('',*,*,#369,.F.);
#422 = ORIENTED_EDGE('',*,*,#329,.T.);
#423 = ORIENTED_EDGE('',*,*,#298,.T.);
#424 = PLANE('',#425);
#425 = AXIS2_PLACEMENT_3D('',#426,#427,#428);
#426 = CARTESIAN_POINT('',(45.818062076685,6.,3.540250703621));
#427 = DIRECTION('',(-0.,-1.,-0.));
#428 = DIRECTION('',(0.,0.,-1.));
#429 = ADVANCED_FACE('',(#430),#436,.T.);
#430 = FACE_BOUND('',#431,.T.);
#431 = EDGE_LOOP('',(#432,#433,#434,#435));
#432 = ORIENTED_EDGE('',*,*,#416,.F.);
#433 = ORIENTED_EDGE('',*,*,#145,.T.);
#434 = ORIENTED_EDGE('',*,*,#395,.T.);
#435 = ORIENTED_EDGE('',*,*,#377,.F.);
#436 = PLANE('',#437);
#437 = AXIS2_PLACEMENT_3D('',#438,#439,#440);
#438 = CARTESIAN_POINT('',(52.,6.,2.4));
#439 = DIRECTION('',(1.,0.,-0.));
#440 = DIRECTION('',(0.,0.,1.));
#441 = ( GEOMETRIC_REPRESENTATION_CONTEXT(3) 
GLOBAL_UNCERTAINTY_ASSIGNED_CONTEXT((#445)) GLOBAL_UNIT_ASSIGNED_CONTEXT
((#442,#443,#444)) REPRESENTATION_CONTEXT('Context #1',
  '3D Context with UNIT and UNCERTAINTY') );
#442 = ( LENGTH_UNIT() NAMED_UNIT(*) SI_UNIT(.MILLI.,.METRE.) );
#443 = ( NAMED_UNIT(*) PLANE_ANGLE_UNIT() SI_UNIT($,.RADIAN.) );
#444 = ( NAMED_UNIT(*) SI_UNIT($,.STERADIAN.) SOLID_ANGLE_UNIT() );
#445 = UNCERTAINTY_MEASURE_WITH_UNIT(LENGTH_MEASURE(1.E-07),#442,
  'distance_accuracy_value','confusion accuracy');
#446 = PRODUCT_RELATED_PRODUCT_CATEGORY('part',$,(#7));
ENDSEC;
END-ISO-10303-21;
