ISO-10303-21;
HEADER;
FILE_DESCRIPTION(('FreeCAD Model'),'2;1');
FILE_NAME('Open CASCADE Shape Model','2026-10-09T08:39:36',('FreeCAD'),(
    'FreeCAD'),'Open CASCADE STEP processor 7.8','FreeCAD','Unknown');
FILE_SCHEMA(('AUTOMOTIVE_DESIGN { 1 0 10303 214 1 1 1 1 }'));
ENDSEC;
DATA;
#1 = APPLICATION_PROTOCOL_DEFINITION('international standard',
  'automotive_design',2000,#2);
#2 = APPLICATION_CONTEXT(
  'core data for automotive mechanical design processes');
#3 = SHAPE_DEFINITION_REPRESENTATION(#4,#10);
#4 = PRODUCT_DEFINITION_SHAPE('','',#5);
#5 = PRODUCT_DEFINITION('design','',#6,#9);
#6 = PRODUCT_DEFINITION_FORMATION('','',#7);
#7 = PRODUCT('Open CASCADE STEP translator 7.8 18',
  'Open CASCADE STEP translator 7.8 18','',(#8));
#8 = PRODUCT_CONTEXT('',#2,'mechanical');
#9 = PRODUCT_DEFINITION_CONTEXT('part definition',#2,'design');
#10 = ADVANCED_BREP_SHAPE_REPRESENTATION('',(#11,#15),#1181);
#11 = AXIS2_PLACEMENT_3D('',#12,#13,#14);
#12 = CARTESIAN_POINT('',(0.,0.,0.));
#13 = DIRECTION('',(0.,0.,1.));
#14 = DIRECTION('',(1.,0.,-0.));
#15 = MANIFOLD_SOLID_BREP('',#16);
#16 = CLOSED_SHELL('',(#17,#57,#115,#171,#284,#376,#393,#442,#498,#523,
    #547,#571,#588,#600,#617,#648,#672,#696,#720,#744,#761,#785,#809,
    #826,#843,#860,#906,#931,#955,#979,#996,#1013,#1025,#1067,#1091,
    #1118,#1135,#1147,#1172));
#17 = ADVANCED_FACE('',(#18),#52,.F.);
#18 = FACE_BOUND('',#19,.F.);
#19 = EDGE_LOOP('',(#20,#30,#38,#46));
#20 = ORIENTED_EDGE('',*,*,#21,.F.);
#21 = EDGE_CURVE('',#22,#24,#26,.T.);
#22 = VERTEX_POINT('',#23);
#23 = CARTESIAN_POINT('',(0.,57.,9.992007221626E-16));
#24 = VERTEX_POINT('',#25);
#25 = CARTESIAN_POINT('',(0.,0.,9.992007221626E-16));
#26 = LINE('',#27,#28);
#27 = CARTESIAN_POINT('',(0.,57.,1.7763568394E-15));
#28 = VECTOR('',#29,1.);
#29 = DIRECTION('',(0.,-1.,0.));
#30 = ORIENTED_EDGE('',*,*,#31,.F.);
#31 = EDGE_CURVE('',#32,#22,#34,.T.);
#32 = VERTEX_POINT('',#33);
#33 = CARTESIAN_POINT('',(0.,57.,8.));
#34 = LINE('',#35,#36);
#35 = CARTESIAN_POINT('',(0.,57.,8.));
#36 = VECTOR('',#37,1.);
#37 = DIRECTION('',(0.,0.,-1.));
#38 = ORIENTED_EDGE('',*,*,#39,.T.);
#39 = EDGE_CURVE('',#32,#40,#42,.T.);
#40 = VERTEX_POINT('',#41);
#41 = CARTESIAN_POINT('',(0.,0.,8.));
#42 = LINE('',#43,#44);
#43 = CARTESIAN_POINT('',(0.,57.,8.));
#44 = VECTOR('',#45,1.);
#45 = DIRECTION('',(0.,-1.,0.));
#46 = ORIENTED_EDGE('',*,*,#47,.T.);
#47 = EDGE_CURVE('',#40,#24,#48,.T.);
#48 = LINE('',#49,#50);
#49 = CARTESIAN_POINT('',(0.,0.,-8.5));
#50 = VECTOR('',#51,1.);
#51 = DIRECTION('',(0.,2.22044604925E-16,-1.));
#52 = PLANE('',#53);
#53 = AXIS2_PLACEMENT_3D('',#54,#55,#56);
#54 = CARTESIAN_POINT('',(0.,57.,8.));
#55 = DIRECTION('',(1.,0.,0.));
#56 = DIRECTION('',(0.,0.,-1.));
#57 = ADVANCED_FACE('',(#58,#99),#110,.T.);
#58 = FACE_BOUND('',#59,.T.);
#59 = EDGE_LOOP('',(#60,#61,#69,#77,#85,#93));
#60 = ORIENTED_EDGE('',*,*,#21,.F.);
#61 = ORIENTED_EDGE('',*,*,#62,.T.);
#62 = EDGE_CURVE('',#22,#63,#65,.T.);
#63 = VERTEX_POINT('',#64);
#64 = CARTESIAN_POINT('',(65.,57.,9.992007221626E-16));
#65 = LINE('',#66,#67);
#66 = CARTESIAN_POINT('',(0.,57.,1.7763568394E-15));
#67 = VECTOR('',#68,1.);
#68 = DIRECTION('',(1.,0.,0.));
#69 = ORIENTED_EDGE('',*,*,#70,.T.);
#70 = EDGE_CURVE('',#63,#71,#73,.T.);
#71 = VERTEX_POINT('',#72);
#72 = CARTESIAN_POINT('',(65.,43.,1.443289932013E-15));
#73 = LINE('',#74,#75);
#74 = CARTESIAN_POINT('',(65.,61.,1.110223024625E-16));
#75 = VECTOR('',#76,1.);
#76 = DIRECTION('',(0.,-1.,0.));
#77 = ORIENTED_EDGE('',*,*,#78,.T.);
#78 = EDGE_CURVE('',#71,#79,#81,.T.);
#79 = VERTEX_POINT('',#80);
#80 = CARTESIAN_POINT('',(24.,43.,1.443289932013E-15));
#81 = LINE('',#82,#83);
#82 = CARTESIAN_POINT('',(12.,43.,1.7763568394E-15));
#83 = VECTOR('',#84,1.);
#84 = DIRECTION('',(-1.,0.,-0.));
#85 = ORIENTED_EDGE('',*,*,#86,.T.);
#86 = EDGE_CURVE('',#79,#87,#89,.T.);
#87 = VERTEX_POINT('',#88);
#88 = CARTESIAN_POINT('',(24.,0.,1.221245327088E-15));
#89 = LINE('',#90,#91);
#90 = CARTESIAN_POINT('',(24.,50.,1.7763568394E-15));
#91 = VECTOR('',#92,1.);
#92 = DIRECTION('',(0.,-1.,0.));
#93 = ORIENTED_EDGE('',*,*,#94,.T.);
#94 = EDGE_CURVE('',#87,#24,#95,.T.);
#95 = LINE('',#96,#97);
#96 = CARTESIAN_POINT('',(-12.5,0.,0.));
#97 = VECTOR('',#98,1.);
#98 = DIRECTION('',(-1.,-0.,0.));
#99 = FACE_BOUND('',#100,.T.);
#100 = EDGE_LOOP('',(#101));
#101 = ORIENTED_EDGE('',*,*,#102,.T.);
#102 = EDGE_CURVE('',#103,#103,#105,.T.);
#103 = VERTEX_POINT('',#104);
#104 = CARTESIAN_POINT('',(11.5,15.2,1.001976279724E-15));
#105 = CIRCLE('',#106,1.8);
#106 = AXIS2_PLACEMENT_3D('',#107,#108,#109);
#107 = CARTESIAN_POINT('',(11.5,17.,9.992007221626E-16));
#108 = DIRECTION('',(0.,-2.22044604925E-16,1.));
#109 = DIRECTION('',(0.,-1.,-2.22044604925E-16));
#110 = PLANE('',#111);
#111 = AXIS2_PLACEMENT_3D('',#112,#113,#114);
#112 = CARTESIAN_POINT('',(0.,57.,1.7763568394E-15));
#113 = DIRECTION('',(0.,0.,-1.));
#114 = DIRECTION('',(1.,0.,0.));
#115 = ADVANCED_FACE('',(#116),#166,.T.);
#116 = FACE_BOUND('',#117,.T.);
#117 = EDGE_LOOP('',(#118,#126,#127,#128,#136,#144,#152,#160));
#118 = ORIENTED_EDGE('',*,*,#119,.T.);
#119 = EDGE_CURVE('',#120,#40,#122,.T.);
#120 = VERTEX_POINT('',#121);
#121 = CARTESIAN_POINT('',(1.75,0.,8.));
#122 = LINE('',#123,#124);
#123 = CARTESIAN_POINT('',(-12.5,0.,8.));
#124 = VECTOR('',#125,1.);
#125 = DIRECTION('',(-1.,-0.,0.));
#126 = ORIENTED_EDGE('',*,*,#47,.T.);
#127 = ORIENTED_EDGE('',*,*,#94,.F.);
#128 = ORIENTED_EDGE('',*,*,#129,.F.);
#129 = EDGE_CURVE('',#130,#87,#132,.T.);
#130 = VERTEX_POINT('',#131);
#131 = CARTESIAN_POINT('',(24.,0.,8.));
#132 = LINE('',#133,#134);
#133 = CARTESIAN_POINT('',(24.,0.,-8.));
#134 = VECTOR('',#135,1.);
#135 = DIRECTION('',(0.,2.22044604925E-16,-1.));
#136 = ORIENTED_EDGE('',*,*,#137,.T.);
#137 = EDGE_CURVE('',#130,#138,#140,.T.);
#138 = VERTEX_POINT('',#139);
#139 = CARTESIAN_POINT('',(6.25,0.,8.));
#140 = LINE('',#141,#142);
#141 = CARTESIAN_POINT('',(-12.5,0.,8.));
#142 = VECTOR('',#143,1.);
#143 = DIRECTION('',(-1.,-0.,0.));
#144 = ORIENTED_EDGE('',*,*,#145,.T.);
#145 = EDGE_CURVE('',#138,#146,#148,.T.);
#146 = VERTEX_POINT('',#147);
#147 = CARTESIAN_POINT('',(6.25,0.,4.));
#148 = LINE('',#149,#150);
#149 = CARTESIAN_POINT('',(6.25,0.,-10.5));
#150 = VECTOR('',#151,1.);
#151 = DIRECTION('',(0.,2.22044604925E-16,-1.));
#152 = ORIENTED_EDGE('',*,*,#153,.F.);
#153 = EDGE_CURVE('',#154,#146,#156,.T.);
#154 = VERTEX_POINT('',#155);
#155 = CARTESIAN_POINT('',(1.75,0.,4.));
#156 = LINE('',#157,#158);
#157 = CARTESIAN_POINT('',(-11.625,0.,4.));
#158 = VECTOR('',#159,1.);
#159 = DIRECTION('',(1.,0.,0.));
#160 = ORIENTED_EDGE('',*,*,#161,.F.);
#161 = EDGE_CURVE('',#120,#154,#162,.T.);
#162 = LINE('',#163,#164);
#163 = CARTESIAN_POINT('',(1.75,0.,-10.5));
#164 = VECTOR('',#165,1.);
#165 = DIRECTION('',(0.,2.22044604925E-16,-1.));
#166 = PLANE('',#167);
#167 = AXIS2_PLACEMENT_3D('',#168,#169,#170);
#168 = CARTESIAN_POINT('',(-25.,0.,-25.));
#169 = DIRECTION('',(0.,-1.,-2.22044604925E-16));
#170 = DIRECTION('',(1.,0.,0.));
#171 = ADVANCED_FACE('',(#172,#229),#279,.F.);
#172 = FACE_BOUND('',#173,.F.);
#173 = EDGE_LOOP('',(#174,#175,#176,#184,#192,#200,#206,#207,#215,#223)
  );
#174 = ORIENTED_EDGE('',*,*,#119,.T.);
#175 = ORIENTED_EDGE('',*,*,#39,.F.);
#176 = ORIENTED_EDGE('',*,*,#177,.T.);
#177 = EDGE_CURVE('',#32,#178,#180,.T.);
#178 = VERTEX_POINT('',#179);
#179 = CARTESIAN_POINT('',(34.,57.,8.));
#180 = LINE('',#181,#182);
#181 = CARTESIAN_POINT('',(0.,57.,8.));
#182 = VECTOR('',#183,1.);
#183 = DIRECTION('',(1.,0.,0.));
#184 = ORIENTED_EDGE('',*,*,#185,.T.);
#185 = EDGE_CURVE('',#178,#186,#188,.T.);
#186 = VERTEX_POINT('',#187);
#187 = CARTESIAN_POINT('',(34.,43.,8.));
#188 = LINE('',#189,#190);
#189 = CARTESIAN_POINT('',(34.,57.,8.));
#190 = VECTOR('',#191,1.);
#191 = DIRECTION('',(0.,-1.,0.));
#192 = ORIENTED_EDGE('',*,*,#193,.T.);
#193 = EDGE_CURVE('',#186,#194,#196,.T.);
#194 = VERTEX_POINT('',#195);
#195 = CARTESIAN_POINT('',(24.,43.,8.));
#196 = LINE('',#197,#198);
#197 = CARTESIAN_POINT('',(12.,43.,8.));
#198 = VECTOR('',#199,1.);
#199 = DIRECTION('',(-1.,0.,-0.));
#200 = ORIENTED_EDGE('',*,*,#201,.T.);
#201 = EDGE_CURVE('',#194,#130,#202,.T.);
#202 = LINE('',#203,#204);
#203 = CARTESIAN_POINT('',(24.,50.,8.));
#204 = VECTOR('',#205,1.);
#205 = DIRECTION('',(0.,-1.,0.));
#206 = ORIENTED_EDGE('',*,*,#137,.T.);
#207 = ORIENTED_EDGE('',*,*,#208,.F.);
#208 = EDGE_CURVE('',#209,#138,#211,.T.);
#209 = VERTEX_POINT('',#210);
#210 = CARTESIAN_POINT('',(6.25,41.,8.));
#211 = LINE('',#212,#213);
#212 = CARTESIAN_POINT('',(6.25,41.,8.));
#213 = VECTOR('',#214,1.);
#214 = DIRECTION('',(0.,-1.,-2.22044604925E-16));
#215 = ORIENTED_EDGE('',*,*,#216,.F.);
#216 = EDGE_CURVE('',#217,#209,#219,.T.);
#217 = VERTEX_POINT('',#218);
#218 = CARTESIAN_POINT('',(1.75,41.,8.));
#219 = LINE('',#220,#221);
#220 = CARTESIAN_POINT('',(1.75,41.,8.));
#221 = VECTOR('',#222,1.);
#222 = DIRECTION('',(1.,0.,0.));
#223 = ORIENTED_EDGE('',*,*,#224,.T.);
#224 = EDGE_CURVE('',#217,#120,#225,.T.);
#225 = LINE('',#226,#227);
#226 = CARTESIAN_POINT('',(1.75,41.,8.));
#227 = VECTOR('',#228,1.);
#228 = DIRECTION('',(0.,-1.,-2.22044604925E-16));
#229 = FACE_BOUND('',#230,.F.);
#230 = EDGE_LOOP('',(#231,#241,#249,#257,#265,#273));
#231 = ORIENTED_EDGE('',*,*,#232,.T.);
#232 = EDGE_CURVE('',#233,#235,#237,.T.);
#233 = VERTEX_POINT('',#234);
#234 = CARTESIAN_POINT('',(14.45,15.296816705891,8.));
#235 = VERTEX_POINT('',#236);
#236 = CARTESIAN_POINT('',(14.45,18.703183294109,8.));
#237 = LINE('',#238,#239);
#238 = CARTESIAN_POINT('',(14.45,36.148408352945,8.));
#239 = VECTOR('',#240,1.);
#240 = DIRECTION('',(2.607407032384E-16,1.,0.));
#241 = ORIENTED_EDGE('',*,*,#242,.T.);
#242 = EDGE_CURVE('',#235,#243,#245,.T.);
#243 = VERTEX_POINT('',#244);
#244 = CARTESIAN_POINT('',(11.5,20.406366588219,8.));
#245 = LINE('',#246,#247);
#246 = CARTESIAN_POINT('',(0.739745962156,26.618802153517,8.));
#247 = VECTOR('',#248,1.);
#248 = DIRECTION('',(-0.866025403784,0.5,0.));
#249 = ORIENTED_EDGE('',*,*,#250,.T.);
#250 = EDGE_CURVE('',#243,#251,#253,.T.);
#251 = VERTEX_POINT('',#252);
#252 = CARTESIAN_POINT('',(8.55,18.703183294109,8.));
#253 = LINE('',#254,#255);
#254 = CARTESIAN_POINT('',(15.110254037844,22.490747728811,8.));
#255 = VECTOR('',#256,1.);
#256 = DIRECTION('',(-0.866025403784,-0.5,0.));
#257 = ORIENTED_EDGE('',*,*,#258,.T.);
#258 = EDGE_CURVE('',#251,#259,#261,.T.);
#259 = VERTEX_POINT('',#260);
#260 = CARTESIAN_POINT('',(8.55,15.296816705891,8.));
#261 = LINE('',#262,#263);
#262 = CARTESIAN_POINT('',(8.55,37.851591647055,8.));
#263 = VECTOR('',#264,1.);
#264 = DIRECTION('',(1.303703516192E-16,-1.,0.));
#265 = ORIENTED_EDGE('',*,*,#266,.T.);
#266 = EDGE_CURVE('',#259,#267,#269,.T.);
#267 = VERTEX_POINT('',#268);
#268 = CARTESIAN_POINT('',(11.5,13.593633411781,8.));
#269 = LINE('',#270,#271);
#270 = CARTESIAN_POINT('',(-3.685254037844,22.360843918244,8.));
#271 = VECTOR('',#272,1.);
#272 = DIRECTION('',(0.866025403784,-0.5,0.));
#273 = ORIENTED_EDGE('',*,*,#274,.T.);
#274 = EDGE_CURVE('',#267,#233,#275,.T.);
#275 = LINE('',#276,#277);
#276 = CARTESIAN_POINT('',(16.585254037844,16.529606199428,8.));
#277 = VECTOR('',#278,1.);
#278 = DIRECTION('',(0.866025403784,0.5,0.));
#279 = PLANE('',#280);
#280 = AXIS2_PLACEMENT_3D('',#281,#282,#283);
#281 = CARTESIAN_POINT('',(0.,57.,8.));
#282 = DIRECTION('',(0.,0.,-1.));
#283 = DIRECTION('',(1.,0.,0.));
#284 = ADVANCED_FACE('',(#285,#360),#371,.T.);
#285 = FACE_BOUND('',#286,.T.);
#286 = EDGE_LOOP('',(#287,#288,#289,#290,#298,#306,#314,#322,#330,#338,
    #346,#354));
#287 = ORIENTED_EDGE('',*,*,#62,.F.);
#288 = ORIENTED_EDGE('',*,*,#31,.F.);
#289 = ORIENTED_EDGE('',*,*,#177,.T.);
#290 = ORIENTED_EDGE('',*,*,#291,.T.);
#291 = EDGE_CURVE('',#178,#292,#294,.T.);
#292 = VERTEX_POINT('',#293);
#293 = CARTESIAN_POINT('',(34.,57.,22.));
#294 = LINE('',#295,#296);
#295 = CARTESIAN_POINT('',(34.,57.,7.5));
#296 = VECTOR('',#297,1.);
#297 = DIRECTION('',(0.,-2.22044604925E-16,1.));
#298 = ORIENTED_EDGE('',*,*,#299,.T.);
#299 = EDGE_CURVE('',#292,#300,#302,.T.);
#300 = VERTEX_POINT('',#301);
#301 = CARTESIAN_POINT('',(46.,57.,22.));
#302 = LINE('',#303,#304);
#303 = CARTESIAN_POINT('',(34.,57.,22.));
#304 = VECTOR('',#305,1.);
#305 = DIRECTION('',(1.,0.,0.));
#306 = ORIENTED_EDGE('',*,*,#307,.F.);
#307 = EDGE_CURVE('',#308,#300,#310,.T.);
#308 = VERTEX_POINT('',#309);
#309 = CARTESIAN_POINT('',(46.,57.,8.));
#310 = LINE('',#311,#312);
#311 = CARTESIAN_POINT('',(46.,57.,7.5));
#312 = VECTOR('',#313,1.);
#313 = DIRECTION('',(0.,-2.22044604925E-16,1.));
#314 = ORIENTED_EDGE('',*,*,#315,.T.);
#315 = EDGE_CURVE('',#308,#316,#318,.T.);
#316 = VERTEX_POINT('',#317);
#317 = CARTESIAN_POINT('',(65.,57.,8.));
#318 = LINE('',#319,#320);
#319 = CARTESIAN_POINT('',(0.,57.,8.));
#320 = VECTOR('',#321,1.);
#321 = DIRECTION('',(1.,0.,0.));
#322 = ORIENTED_EDGE('',*,*,#323,.T.);
#323 = EDGE_CURVE('',#316,#324,#326,.T.);
#324 = VERTEX_POINT('',#325);
#325 = CARTESIAN_POINT('',(65.,57.,6.));
#326 = LINE('',#327,#328);
#327 = CARTESIAN_POINT('',(65.,57.,-9.491525423729));
#328 = VECTOR('',#329,1.);
#329 = DIRECTION('',(0.,2.22044604925E-16,-1.));
#330 = ORIENTED_EDGE('',*,*,#331,.F.);
#331 = EDGE_CURVE('',#332,#324,#334,.T.);
#332 = VERTEX_POINT('',#333);
#333 = CARTESIAN_POINT('',(28.,57.,6.));
#334 = LINE('',#335,#336);
#335 = CARTESIAN_POINT('',(14.,57.,6.));
#336 = VECTOR('',#337,1.);
#337 = DIRECTION('',(1.,0.,0.));
#338 = ORIENTED_EDGE('',*,*,#339,.F.);
#339 = EDGE_CURVE('',#340,#332,#342,.T.);
#340 = VERTEX_POINT('',#341);
#341 = CARTESIAN_POINT('',(28.,57.,2.));
#342 = LINE('',#343,#344);
#343 = CARTESIAN_POINT('',(28.,57.,7.));
#344 = VECTOR('',#345,1.);
#345 = DIRECTION('',(0.,0.,1.));
#346 = ORIENTED_EDGE('',*,*,#347,.T.);
#347 = EDGE_CURVE('',#340,#348,#350,.T.);
#348 = VERTEX_POINT('',#349);
#349 = CARTESIAN_POINT('',(65.,57.,2.));
#350 = LINE('',#351,#352);
#351 = CARTESIAN_POINT('',(14.,57.,2.));
#352 = VECTOR('',#353,1.);
#353 = DIRECTION('',(1.,0.,0.));
#354 = ORIENTED_EDGE('',*,*,#355,.T.);
#355 = EDGE_CURVE('',#348,#63,#356,.T.);
#356 = LINE('',#357,#358);
#357 = CARTESIAN_POINT('',(65.,57.,-9.491525423729));
#358 = VECTOR('',#359,1.);
#359 = DIRECTION('',(0.,2.22044604925E-16,-1.));
#360 = FACE_BOUND('',#361,.T.);
#361 = EDGE_LOOP('',(#362));
#362 = ORIENTED_EDGE('',*,*,#363,.T.);
#363 = EDGE_CURVE('',#364,#364,#366,.T.);
#364 = VERTEX_POINT('',#365);
#365 = CARTESIAN_POINT('',(41.8,57.,14.));
#366 = CIRCLE('',#367,1.8);
#367 = AXIS2_PLACEMENT_3D('',#368,#369,#370);
#368 = CARTESIAN_POINT('',(40.,57.,14.));
#369 = DIRECTION('',(0.,-1.,-2.22044604925E-16));
#370 = DIRECTION('',(1.,0.,0.));
#371 = PLANE('',#372);
#372 = AXIS2_PLACEMENT_3D('',#373,#374,#375);
#373 = CARTESIAN_POINT('',(100.,57.,6.016949152542));
#374 = DIRECTION('',(-0.,1.,2.22044604925E-16));
#375 = DIRECTION('',(-1.,-0.,0.));
#376 = ADVANCED_FACE('',(#377),#388,.T.);
#377 = FACE_BOUND('',#378,.T.);
#378 = EDGE_LOOP('',(#379,#385,#386,#387));
#379 = ORIENTED_EDGE('',*,*,#380,.F.);
#380 = EDGE_CURVE('',#194,#79,#381,.T.);
#381 = LINE('',#382,#383);
#382 = CARTESIAN_POINT('',(24.,43.,9.));
#383 = VECTOR('',#384,1.);
#384 = DIRECTION('',(0.,0.,-1.));
#385 = ORIENTED_EDGE('',*,*,#201,.T.);
#386 = ORIENTED_EDGE('',*,*,#129,.T.);
#387 = ORIENTED_EDGE('',*,*,#86,.F.);
#388 = PLANE('',#389);
#389 = AXIS2_PLACEMENT_3D('',#390,#391,#392);
#390 = CARTESIAN_POINT('',(24.,43.,9.));
#391 = DIRECTION('',(1.,0.,0.));
#392 = DIRECTION('',(0.,0.,-1.));
#393 = ADVANCED_FACE('',(#394),#437,.T.);
#394 = FACE_BOUND('',#395,.T.);
#395 = EDGE_LOOP('',(#396,#397,#405,#413,#421,#429,#435,#436));
#396 = ORIENTED_EDGE('',*,*,#78,.F.);
#397 = ORIENTED_EDGE('',*,*,#398,.T.);
#398 = EDGE_CURVE('',#71,#399,#401,.T.);
#399 = VERTEX_POINT('',#400);
#400 = CARTESIAN_POINT('',(65.,43.,8.));
#401 = LINE('',#402,#403);
#402 = CARTESIAN_POINT('',(65.,43.,-9.234042553191));
#403 = VECTOR('',#404,1.);
#404 = DIRECTION('',(0.,-2.22044604925E-16,1.));
#405 = ORIENTED_EDGE('',*,*,#406,.T.);
#406 = EDGE_CURVE('',#399,#407,#409,.T.);
#407 = VERTEX_POINT('',#408);
#408 = CARTESIAN_POINT('',(46.,43.,8.));
#409 = LINE('',#410,#411);
#410 = CARTESIAN_POINT('',(12.,43.,8.));
#411 = VECTOR('',#412,1.);
#412 = DIRECTION('',(-1.,0.,-0.));
#413 = ORIENTED_EDGE('',*,*,#414,.T.);
#414 = EDGE_CURVE('',#407,#415,#417,.T.);
#415 = VERTEX_POINT('',#416);
#416 = CARTESIAN_POINT('',(46.,43.,22.));
#417 = LINE('',#418,#419);
#418 = CARTESIAN_POINT('',(46.,43.,7.5));
#419 = VECTOR('',#420,1.);
#420 = DIRECTION('',(0.,-2.22044604925E-16,1.));
#421 = ORIENTED_EDGE('',*,*,#422,.F.);
#422 = EDGE_CURVE('',#423,#415,#425,.T.);
#423 = VERTEX_POINT('',#424);
#424 = CARTESIAN_POINT('',(34.,43.,22.));
#425 = LINE('',#426,#427);
#426 = CARTESIAN_POINT('',(34.,43.,22.));
#427 = VECTOR('',#428,1.);
#428 = DIRECTION('',(1.,0.,0.));
#429 = ORIENTED_EDGE('',*,*,#430,.F.);
#430 = EDGE_CURVE('',#186,#423,#431,.T.);
#431 = LINE('',#432,#433);
#432 = CARTESIAN_POINT('',(34.,43.,7.5));
#433 = VECTOR('',#434,1.);
#434 = DIRECTION('',(0.,-2.22044604925E-16,1.));
#435 = ORIENTED_EDGE('',*,*,#193,.T.);
#436 = ORIENTED_EDGE('',*,*,#380,.T.);
#437 = PLANE('',#438);
#438 = AXIS2_PLACEMENT_3D('',#439,#440,#441);
#439 = CARTESIAN_POINT('',(100.,43.,6.531914893617));
#440 = DIRECTION('',(0.,-1.,-2.22044604925E-16));
#441 = DIRECTION('',(1.,0.,0.));
#442 = ADVANCED_FACE('',(#443),#493,.T.);
#443 = FACE_BOUND('',#444,.T.);
#444 = EDGE_LOOP('',(#445,#446,#452,#453,#454,#455,#463,#471,#479,#487)
  );
#445 = ORIENTED_EDGE('',*,*,#323,.F.);
#446 = ORIENTED_EDGE('',*,*,#447,.T.);
#447 = EDGE_CURVE('',#316,#399,#448,.T.);
#448 = LINE('',#449,#450);
#449 = CARTESIAN_POINT('',(65.,61.,8.));
#450 = VECTOR('',#451,1.);
#451 = DIRECTION('',(0.,-1.,0.));
#452 = ORIENTED_EDGE('',*,*,#398,.F.);
#453 = ORIENTED_EDGE('',*,*,#70,.F.);
#454 = ORIENTED_EDGE('',*,*,#355,.F.);
#455 = ORIENTED_EDGE('',*,*,#456,.F.);
#456 = EDGE_CURVE('',#457,#348,#459,.T.);
#457 = VERTEX_POINT('',#458);
#458 = CARTESIAN_POINT('',(65.,59.6,2.));
#459 = LINE('',#460,#461);
#460 = CARTESIAN_POINT('',(65.,62.5,2.));
#461 = VECTOR('',#462,1.);
#462 = DIRECTION('',(0.,-1.,0.));
#463 = ORIENTED_EDGE('',*,*,#464,.F.);
#464 = EDGE_CURVE('',#465,#457,#467,.T.);
#465 = VERTEX_POINT('',#466);
#466 = CARTESIAN_POINT('',(65.,60.,2.4));
#467 = LINE('',#468,#469);
#468 = CARTESIAN_POINT('',(65.,54.3,-3.3));
#469 = VECTOR('',#470,1.);
#470 = DIRECTION('',(0.,-0.707106781187,-0.707106781187));
#471 = ORIENTED_EDGE('',*,*,#472,.T.);
#472 = EDGE_CURVE('',#465,#473,#475,.T.);
#473 = VERTEX_POINT('',#474);
#474 = CARTESIAN_POINT('',(65.,60.,5.6));
#475 = LINE('',#476,#477);
#476 = CARTESIAN_POINT('',(65.,60.,-9.5));
#477 = VECTOR('',#478,1.);
#478 = DIRECTION('',(0.,0.,1.));
#479 = ORIENTED_EDGE('',*,*,#480,.T.);
#480 = EDGE_CURVE('',#473,#481,#483,.T.);
#481 = VERTEX_POINT('',#482);
#482 = CARTESIAN_POINT('',(65.,59.6,6.));
#483 = LINE('',#484,#485);
#484 = CARTESIAN_POINT('',(65.,68.8,-3.2));
#485 = VECTOR('',#486,1.);
#486 = DIRECTION('',(0.,-0.707106781187,0.707106781187));
#487 = ORIENTED_EDGE('',*,*,#488,.T.);
#488 = EDGE_CURVE('',#481,#324,#489,.T.);
#489 = LINE('',#490,#491);
#490 = CARTESIAN_POINT('',(65.,62.5,6.));
#491 = VECTOR('',#492,1.);
#492 = DIRECTION('',(0.,-1.,0.));
#493 = PLANE('',#494);
#494 = AXIS2_PLACEMENT_3D('',#495,#496,#497);
#495 = CARTESIAN_POINT('',(65.,65.,-25.));
#496 = DIRECTION('',(1.,0.,0.));
#497 = DIRECTION('',(0.,-1.,-2.22044604925E-16));
#498 = ADVANCED_FACE('',(#499),#518,.F.);
#499 = FACE_BOUND('',#500,.F.);
#500 = EDGE_LOOP('',(#501,#510,#516,#517));
#501 = ORIENTED_EDGE('',*,*,#502,.F.);
#502 = EDGE_CURVE('',#503,#503,#505,.T.);
#503 = VERTEX_POINT('',#504);
#504 = CARTESIAN_POINT('',(11.5,15.2,2.));
#505 = CIRCLE('',#506,1.8);
#506 = AXIS2_PLACEMENT_3D('',#507,#508,#509);
#507 = CARTESIAN_POINT('',(11.5,17.,2.));
#508 = DIRECTION('',(0.,-2.22044604925E-16,1.));
#509 = DIRECTION('',(0.,-1.,-2.22044604925E-16));
#510 = ORIENTED_EDGE('',*,*,#511,.F.);
#511 = EDGE_CURVE('',#103,#503,#512,.T.);
#512 = LINE('',#513,#514);
#513 = CARTESIAN_POINT('',(11.5,15.2,-0.1));
#514 = VECTOR('',#515,1.);
#515 = DIRECTION('',(0.,-2.22044604925E-16,1.));
#516 = ORIENTED_EDGE('',*,*,#102,.T.);
#517 = ORIENTED_EDGE('',*,*,#511,.T.);
#518 = CYLINDRICAL_SURFACE('',#519,1.8);
#519 = AXIS2_PLACEMENT_3D('',#520,#521,#522);
#520 = CARTESIAN_POINT('',(11.5,17.,-0.1));
#521 = DIRECTION('',(0.,-2.22044604925E-16,1.));
#522 = DIRECTION('',(0.,-1.,-2.22044604925E-16));
#523 = ADVANCED_FACE('',(#524),#542,.T.);
#524 = FACE_BOUND('',#525,.T.);
#525 = EDGE_LOOP('',(#526,#534,#540,#541));
#526 = ORIENTED_EDGE('',*,*,#527,.F.);
#527 = EDGE_CURVE('',#528,#154,#530,.T.);
#528 = VERTEX_POINT('',#529);
#529 = CARTESIAN_POINT('',(1.75,41.,4.));
#530 = LINE('',#531,#532);
#531 = CARTESIAN_POINT('',(1.75,41.,4.));
#532 = VECTOR('',#533,1.);
#533 = DIRECTION('',(0.,-1.,-2.22044604925E-16));
#534 = ORIENTED_EDGE('',*,*,#535,.T.);
#535 = EDGE_CURVE('',#528,#217,#536,.T.);
#536 = LINE('',#537,#538);
#537 = CARTESIAN_POINT('',(1.75,41.,4.));
#538 = VECTOR('',#539,1.);
#539 = DIRECTION('',(0.,-2.22044604925E-16,1.));
#540 = ORIENTED_EDGE('',*,*,#224,.T.);
#541 = ORIENTED_EDGE('',*,*,#161,.T.);
#542 = PLANE('',#543);
#543 = AXIS2_PLACEMENT_3D('',#544,#545,#546);
#544 = CARTESIAN_POINT('',(1.75,41.,4.));
#545 = DIRECTION('',(1.,0.,0.));
#546 = DIRECTION('',(0.,-1.,-2.22044604925E-16));
#547 = ADVANCED_FACE('',(#548),#566,.T.);
#548 = FACE_BOUND('',#549,.T.);
#549 = EDGE_LOOP('',(#550,#558,#564,#565));
#550 = ORIENTED_EDGE('',*,*,#551,.F.);
#551 = EDGE_CURVE('',#552,#146,#554,.T.);
#552 = VERTEX_POINT('',#553);
#553 = CARTESIAN_POINT('',(6.25,41.,4.));
#554 = LINE('',#555,#556);
#555 = CARTESIAN_POINT('',(6.25,41.,4.));
#556 = VECTOR('',#557,1.);
#557 = DIRECTION('',(0.,-1.,-2.22044604925E-16));
#558 = ORIENTED_EDGE('',*,*,#559,.F.);
#559 = EDGE_CURVE('',#528,#552,#560,.T.);
#560 = LINE('',#561,#562);
#561 = CARTESIAN_POINT('',(1.75,41.,4.));
#562 = VECTOR('',#563,1.);
#563 = DIRECTION('',(1.,0.,0.));
#564 = ORIENTED_EDGE('',*,*,#527,.T.);
#565 = ORIENTED_EDGE('',*,*,#153,.T.);
#566 = PLANE('',#567);
#567 = AXIS2_PLACEMENT_3D('',#568,#569,#570);
#568 = CARTESIAN_POINT('',(1.75,41.,4.));
#569 = DIRECTION('',(0.,-2.22044604925E-16,1.));
#570 = DIRECTION('',(0.,-1.,-2.22044604925E-16));
#571 = ADVANCED_FACE('',(#572),#583,.F.);
#572 = FACE_BOUND('',#573,.F.);
#573 = EDGE_LOOP('',(#574,#575,#581,#582));
#574 = ORIENTED_EDGE('',*,*,#551,.F.);
#575 = ORIENTED_EDGE('',*,*,#576,.T.);
#576 = EDGE_CURVE('',#552,#209,#577,.T.);
#577 = LINE('',#578,#579);
#578 = CARTESIAN_POINT('',(6.25,41.,4.));
#579 = VECTOR('',#580,1.);
#580 = DIRECTION('',(0.,-2.22044604925E-16,1.));
#581 = ORIENTED_EDGE('',*,*,#208,.T.);
#582 = ORIENTED_EDGE('',*,*,#145,.T.);
#583 = PLANE('',#584);
#584 = AXIS2_PLACEMENT_3D('',#585,#586,#587);
#585 = CARTESIAN_POINT('',(6.25,41.,4.));
#586 = DIRECTION('',(1.,0.,0.));
#587 = DIRECTION('',(0.,-1.,-2.22044604925E-16));
#588 = ADVANCED_FACE('',(#589),#595,.T.);
#589 = FACE_BOUND('',#590,.T.);
#590 = EDGE_LOOP('',(#591,#592,#593,#594));
#591 = ORIENTED_EDGE('',*,*,#535,.F.);
#592 = ORIENTED_EDGE('',*,*,#559,.T.);
#593 = ORIENTED_EDGE('',*,*,#576,.T.);
#594 = ORIENTED_EDGE('',*,*,#216,.F.);
#595 = PLANE('',#596);
#596 = AXIS2_PLACEMENT_3D('',#597,#598,#599);
#597 = CARTESIAN_POINT('',(1.75,41.,4.));
#598 = DIRECTION('',(0.,-1.,-2.22044604925E-16));
#599 = DIRECTION('',(1.,0.,0.));
#600 = ADVANCED_FACE('',(#601),#612,.F.);
#601 = FACE_BOUND('',#602,.F.);
#602 = EDGE_LOOP('',(#603,#604,#605,#611));
#603 = ORIENTED_EDGE('',*,*,#185,.F.);
#604 = ORIENTED_EDGE('',*,*,#291,.T.);
#605 = ORIENTED_EDGE('',*,*,#606,.T.);
#606 = EDGE_CURVE('',#292,#423,#607,.T.);
#607 = LINE('',#608,#609);
#608 = CARTESIAN_POINT('',(34.,57.,22.));
#609 = VECTOR('',#610,1.);
#610 = DIRECTION('',(0.,-1.,-2.22044604925E-16));
#611 = ORIENTED_EDGE('',*,*,#430,.F.);
#612 = PLANE('',#613);
#613 = AXIS2_PLACEMENT_3D('',#614,#615,#616);
#614 = CARTESIAN_POINT('',(34.,57.,7.5));
#615 = DIRECTION('',(1.,0.,0.));
#616 = DIRECTION('',(0.,-1.,-2.22044604925E-16));
#617 = ADVANCED_FACE('',(#618),#643,.T.);
#618 = FACE_BOUND('',#619,.T.);
#619 = EDGE_LOOP('',(#620,#630,#636,#637));
#620 = ORIENTED_EDGE('',*,*,#621,.F.);
#621 = EDGE_CURVE('',#622,#624,#626,.T.);
#622 = VERTEX_POINT('',#623);
#623 = CARTESIAN_POINT('',(14.45,15.296816705891,2.));
#624 = VERTEX_POINT('',#625);
#625 = CARTESIAN_POINT('',(14.45,18.703183294109,2.));
#626 = LINE('',#627,#628);
#627 = CARTESIAN_POINT('',(14.45,15.296816705891,2.));
#628 = VECTOR('',#629,1.);
#629 = DIRECTION('',(2.607407032384E-16,1.,4.440892098501E-16));
#630 = ORIENTED_EDGE('',*,*,#631,.T.);
#631 = EDGE_CURVE('',#622,#233,#632,.T.);
#632 = LINE('',#633,#634);
#633 = CARTESIAN_POINT('',(14.45,15.296816705891,2.));
#634 = VECTOR('',#635,1.);
#635 = DIRECTION('',(0.,-4.440892098501E-16,1.));
#636 = ORIENTED_EDGE('',*,*,#232,.T.);
#637 = ORIENTED_EDGE('',*,*,#638,.F.);
#638 = EDGE_CURVE('',#624,#235,#639,.T.);
#639 = LINE('',#640,#641);
#640 = CARTESIAN_POINT('',(14.45,18.703183294109,2.));
#641 = VECTOR('',#642,1.);
#642 = DIRECTION('',(0.,-4.440892098501E-16,1.));
#643 = PLANE('',#644);
#644 = AXIS2_PLACEMENT_3D('',#645,#646,#647);
#645 = CARTESIAN_POINT('',(14.45,15.296816705891,2.));
#646 = DIRECTION('',(-1.,2.607407032384E-16,1.157921328769E-31));
#647 = DIRECTION('',(2.607407032384E-16,1.,4.440892098501E-16));
#648 = ADVANCED_FACE('',(#649),#667,.T.);
#649 = FACE_BOUND('',#650,.T.);
#650 = EDGE_LOOP('',(#651,#659,#665,#666));
#651 = ORIENTED_EDGE('',*,*,#652,.F.);
#652 = EDGE_CURVE('',#653,#622,#655,.T.);
#653 = VERTEX_POINT('',#654);
#654 = CARTESIAN_POINT('',(11.5,13.593633411781,2.));
#655 = LINE('',#656,#657);
#656 = CARTESIAN_POINT('',(11.5,13.593633411781,2.));
#657 = VECTOR('',#658,1.);
#658 = DIRECTION('',(0.866025403784,0.5,2.22044604925E-16));
#659 = ORIENTED_EDGE('',*,*,#660,.T.);
#660 = EDGE_CURVE('',#653,#267,#661,.T.);
#661 = LINE('',#662,#663);
#662 = CARTESIAN_POINT('',(11.5,13.593633411781,2.));
#663 = VECTOR('',#664,1.);
#664 = DIRECTION('',(0.,-4.440892098501E-16,1.));
#665 = ORIENTED_EDGE('',*,*,#274,.T.);
#666 = ORIENTED_EDGE('',*,*,#631,.F.);
#667 = PLANE('',#668);
#668 = AXIS2_PLACEMENT_3D('',#669,#670,#671);
#669 = CARTESIAN_POINT('',(11.5,13.593633411781,2.));
#670 = DIRECTION('',(-0.5,0.866025403784,3.845925372767E-16));
#671 = DIRECTION('',(0.866025403784,0.5,2.22044604925E-16));
#672 = ADVANCED_FACE('',(#673),#691,.T.);
#673 = FACE_BOUND('',#674,.T.);
#674 = EDGE_LOOP('',(#675,#683,#684,#685));
#675 = ORIENTED_EDGE('',*,*,#676,.F.);
#676 = EDGE_CURVE('',#624,#677,#679,.T.);
#677 = VERTEX_POINT('',#678);
#678 = CARTESIAN_POINT('',(11.5,20.406366588219,2.));
#679 = LINE('',#680,#681);
#680 = CARTESIAN_POINT('',(14.45,18.703183294109,2.));
#681 = VECTOR('',#682,1.);
#682 = DIRECTION('',(-0.866025403784,0.5,2.22044604925E-16));
#683 = ORIENTED_EDGE('',*,*,#638,.T.);
#684 = ORIENTED_EDGE('',*,*,#242,.T.);
#685 = ORIENTED_EDGE('',*,*,#686,.F.);
#686 = EDGE_CURVE('',#677,#243,#687,.T.);
#687 = LINE('',#688,#689);
#688 = CARTESIAN_POINT('',(11.5,20.406366588219,2.));
#689 = VECTOR('',#690,1.);
#690 = DIRECTION('',(0.,-4.440892098501E-16,1.));
#691 = PLANE('',#692);
#692 = AXIS2_PLACEMENT_3D('',#693,#694,#695);
#693 = CARTESIAN_POINT('',(14.45,18.703183294109,2.));
#694 = DIRECTION('',(-0.5,-0.866025403784,-3.845925372767E-16));
#695 = DIRECTION('',(-0.866025403784,0.5,2.22044604925E-16));
#696 = ADVANCED_FACE('',(#697),#715,.T.);
#697 = FACE_BOUND('',#698,.T.);
#698 = EDGE_LOOP('',(#699,#707,#713,#714));
#699 = ORIENTED_EDGE('',*,*,#700,.F.);
#700 = EDGE_CURVE('',#701,#653,#703,.T.);
#701 = VERTEX_POINT('',#702);
#702 = CARTESIAN_POINT('',(8.55,15.296816705891,2.));
#703 = LINE('',#704,#705);
#704 = CARTESIAN_POINT('',(8.55,15.296816705891,2.));
#705 = VECTOR('',#706,1.);
#706 = DIRECTION('',(0.866025403784,-0.5,-2.22044604925E-16));
#707 = ORIENTED_EDGE('',*,*,#708,.T.);
#708 = EDGE_CURVE('',#701,#259,#709,.T.);
#709 = LINE('',#710,#711);
#710 = CARTESIAN_POINT('',(8.55,15.296816705891,2.));
#711 = VECTOR('',#712,1.);
#712 = DIRECTION('',(0.,-4.440892098501E-16,1.));
#713 = ORIENTED_EDGE('',*,*,#266,.T.);
#714 = ORIENTED_EDGE('',*,*,#660,.F.);
#715 = PLANE('',#716);
#716 = AXIS2_PLACEMENT_3D('',#717,#718,#719);
#717 = CARTESIAN_POINT('',(8.55,15.296816705891,2.));
#718 = DIRECTION('',(0.5,0.866025403784,3.845925372767E-16));
#719 = DIRECTION('',(0.866025403784,-0.5,-2.22044604925E-16));
#720 = ADVANCED_FACE('',(#721),#739,.T.);
#721 = FACE_BOUND('',#722,.T.);
#722 = EDGE_LOOP('',(#723,#731,#732,#733));
#723 = ORIENTED_EDGE('',*,*,#724,.F.);
#724 = EDGE_CURVE('',#677,#725,#727,.T.);
#725 = VERTEX_POINT('',#726);
#726 = CARTESIAN_POINT('',(8.55,18.703183294109,2.));
#727 = LINE('',#728,#729);
#728 = CARTESIAN_POINT('',(11.5,20.406366588219,2.));
#729 = VECTOR('',#730,1.);
#730 = DIRECTION('',(-0.866025403784,-0.5,-2.22044604925E-16));
#731 = ORIENTED_EDGE('',*,*,#686,.T.);
#732 = ORIENTED_EDGE('',*,*,#250,.T.);
#733 = ORIENTED_EDGE('',*,*,#734,.F.);
#734 = EDGE_CURVE('',#725,#251,#735,.T.);
#735 = LINE('',#736,#737);
#736 = CARTESIAN_POINT('',(8.55,18.703183294109,2.));
#737 = VECTOR('',#738,1.);
#738 = DIRECTION('',(0.,-4.440892098501E-16,1.));
#739 = PLANE('',#740);
#740 = AXIS2_PLACEMENT_3D('',#741,#742,#743);
#741 = CARTESIAN_POINT('',(11.5,20.406366588219,2.));
#742 = DIRECTION('',(0.5,-0.866025403784,-3.845925372767E-16));
#743 = DIRECTION('',(-0.866025403784,-0.5,-2.22044604925E-16));
#744 = ADVANCED_FACE('',(#745),#756,.T.);
#745 = FACE_BOUND('',#746,.T.);
#746 = EDGE_LOOP('',(#747,#753,#754,#755));
#747 = ORIENTED_EDGE('',*,*,#748,.F.);
#748 = EDGE_CURVE('',#725,#701,#749,.T.);
#749 = LINE('',#750,#751);
#750 = CARTESIAN_POINT('',(8.55,18.703183294109,2.));
#751 = VECTOR('',#752,1.);
#752 = DIRECTION('',(1.303703516192E-16,-1.,-4.440892098501E-16));
#753 = ORIENTED_EDGE('',*,*,#734,.T.);
#754 = ORIENTED_EDGE('',*,*,#258,.T.);
#755 = ORIENTED_EDGE('',*,*,#708,.F.);
#756 = PLANE('',#757);
#757 = AXIS2_PLACEMENT_3D('',#758,#759,#760);
#758 = CARTESIAN_POINT('',(8.55,18.703183294109,2.));
#759 = DIRECTION('',(1.,1.303703516192E-16,5.789606643846E-32));
#760 = DIRECTION('',(1.303703516192E-16,-1.,-4.440892098501E-16));
#761 = ADVANCED_FACE('',(#762),#780,.T.);
#762 = FACE_BOUND('',#763,.T.);
#763 = EDGE_LOOP('',(#764,#772,#778,#779));
#764 = ORIENTED_EDGE('',*,*,#765,.F.);
#765 = EDGE_CURVE('',#766,#340,#768,.T.);
#766 = VERTEX_POINT('',#767);
#767 = CARTESIAN_POINT('',(28.,59.6,2.));
#768 = LINE('',#769,#770);
#769 = CARTESIAN_POINT('',(28.,60.,2.));
#770 = VECTOR('',#771,1.);
#771 = DIRECTION('',(0.,-1.,0.));
#772 = ORIENTED_EDGE('',*,*,#773,.T.);
#773 = EDGE_CURVE('',#766,#457,#774,.T.);
#774 = LINE('',#775,#776);
#775 = CARTESIAN_POINT('',(28.,59.6,2.));
#776 = VECTOR('',#777,1.);
#777 = DIRECTION('',(1.,0.,0.));
#778 = ORIENTED_EDGE('',*,*,#456,.T.);
#779 = ORIENTED_EDGE('',*,*,#347,.F.);
#780 = PLANE('',#781);
#781 = AXIS2_PLACEMENT_3D('',#782,#783,#784);
#782 = CARTESIAN_POINT('',(28.,60.,2.));
#783 = DIRECTION('',(0.,0.,-1.));
#784 = DIRECTION('',(1.,0.,0.));
#785 = ADVANCED_FACE('',(#786),#804,.F.);
#786 = FACE_BOUND('',#787,.F.);
#787 = EDGE_LOOP('',(#788,#789,#797,#803));
#788 = ORIENTED_EDGE('',*,*,#765,.F.);
#789 = ORIENTED_EDGE('',*,*,#790,.F.);
#790 = EDGE_CURVE('',#791,#766,#793,.T.);
#791 = VERTEX_POINT('',#792);
#792 = CARTESIAN_POINT('',(28.,59.6,6.));
#793 = LINE('',#794,#795);
#794 = CARTESIAN_POINT('',(28.,59.6,6.));
#795 = VECTOR('',#796,1.);
#796 = DIRECTION('',(0.,0.,-1.));
#797 = ORIENTED_EDGE('',*,*,#798,.T.);
#798 = EDGE_CURVE('',#791,#332,#799,.T.);
#799 = LINE('',#800,#801);
#800 = CARTESIAN_POINT('',(28.,60.,6.));
#801 = VECTOR('',#802,1.);
#802 = DIRECTION('',(0.,-1.,0.));
#803 = ORIENTED_EDGE('',*,*,#339,.F.);
#804 = PLANE('',#805);
#805 = AXIS2_PLACEMENT_3D('',#806,#807,#808);
#806 = CARTESIAN_POINT('',(28.,60.,6.));
#807 = DIRECTION('',(1.,0.,0.));
#808 = DIRECTION('',(0.,0.,-1.));
#809 = ADVANCED_FACE('',(#810),#821,.F.);
#810 = FACE_BOUND('',#811,.F.);
#811 = EDGE_LOOP('',(#812,#813,#819,#820));
#812 = ORIENTED_EDGE('',*,*,#798,.F.);
#813 = ORIENTED_EDGE('',*,*,#814,.T.);
#814 = EDGE_CURVE('',#791,#481,#815,.T.);
#815 = LINE('',#816,#817);
#816 = CARTESIAN_POINT('',(28.,59.6,6.));
#817 = VECTOR('',#818,1.);
#818 = DIRECTION('',(1.,0.,0.));
#819 = ORIENTED_EDGE('',*,*,#488,.T.);
#820 = ORIENTED_EDGE('',*,*,#331,.F.);
#821 = PLANE('',#822);
#822 = AXIS2_PLACEMENT_3D('',#823,#824,#825);
#823 = CARTESIAN_POINT('',(28.,60.,6.));
#824 = DIRECTION('',(0.,0.,-1.));
#825 = DIRECTION('',(1.,0.,0.));
#826 = ADVANCED_FACE('',(#827),#838,.F.);
#827 = FACE_BOUND('',#828,.F.);
#828 = EDGE_LOOP('',(#829,#830,#831,#832));
#829 = ORIENTED_EDGE('',*,*,#315,.T.);
#830 = ORIENTED_EDGE('',*,*,#447,.T.);
#831 = ORIENTED_EDGE('',*,*,#406,.T.);
#832 = ORIENTED_EDGE('',*,*,#833,.F.);
#833 = EDGE_CURVE('',#308,#407,#834,.T.);
#834 = LINE('',#835,#836);
#835 = CARTESIAN_POINT('',(46.,57.,8.));
#836 = VECTOR('',#837,1.);
#837 = DIRECTION('',(0.,-1.,0.));
#838 = PLANE('',#839);
#839 = AXIS2_PLACEMENT_3D('',#840,#841,#842);
#840 = CARTESIAN_POINT('',(0.,57.,8.));
#841 = DIRECTION('',(0.,0.,-1.));
#842 = DIRECTION('',(1.,0.,0.));
#843 = ADVANCED_FACE('',(#844),#855,.T.);
#844 = FACE_BOUND('',#845,.T.);
#845 = EDGE_LOOP('',(#846,#847,#848,#854));
#846 = ORIENTED_EDGE('',*,*,#833,.F.);
#847 = ORIENTED_EDGE('',*,*,#307,.T.);
#848 = ORIENTED_EDGE('',*,*,#849,.T.);
#849 = EDGE_CURVE('',#300,#415,#850,.T.);
#850 = LINE('',#851,#852);
#851 = CARTESIAN_POINT('',(46.,57.,22.));
#852 = VECTOR('',#853,1.);
#853 = DIRECTION('',(0.,-1.,-2.22044604925E-16));
#854 = ORIENTED_EDGE('',*,*,#414,.F.);
#855 = PLANE('',#856);
#856 = AXIS2_PLACEMENT_3D('',#857,#858,#859);
#857 = CARTESIAN_POINT('',(46.,57.,7.5));
#858 = DIRECTION('',(1.,0.,0.));
#859 = DIRECTION('',(0.,-1.,-2.22044604925E-16));
#860 = ADVANCED_FACE('',(#861,#867),#901,.T.);
#861 = FACE_BOUND('',#862,.T.);
#862 = EDGE_LOOP('',(#863,#864,#865,#866));
#863 = ORIENTED_EDGE('',*,*,#299,.F.);
#864 = ORIENTED_EDGE('',*,*,#606,.T.);
#865 = ORIENTED_EDGE('',*,*,#422,.T.);
#866 = ORIENTED_EDGE('',*,*,#849,.F.);
#867 = FACE_BOUND('',#868,.T.);
#868 = EDGE_LOOP('',(#869,#879,#887,#895));
#869 = ORIENTED_EDGE('',*,*,#870,.F.);
#870 = EDGE_CURVE('',#871,#873,#875,.T.);
#871 = VERTEX_POINT('',#872);
#872 = CARTESIAN_POINT('',(37.05,46.6,22.));
#873 = VERTEX_POINT('',#874);
#874 = CARTESIAN_POINT('',(42.95,46.6,22.));
#875 = LINE('',#876,#877);
#876 = CARTESIAN_POINT('',(35.525,46.6,22.));
#877 = VECTOR('',#878,1.);
#878 = DIRECTION('',(1.,0.,0.));
#879 = ORIENTED_EDGE('',*,*,#880,.T.);
#880 = EDGE_CURVE('',#871,#881,#883,.T.);
#881 = VERTEX_POINT('',#882);
#882 = CARTESIAN_POINT('',(37.05,50.8,22.));
#883 = LINE('',#884,#885);
#884 = CARTESIAN_POINT('',(37.05,53.9,22.));
#885 = VECTOR('',#886,1.);
#886 = DIRECTION('',(0.,1.,2.22044604925E-16));
#887 = ORIENTED_EDGE('',*,*,#888,.T.);
#888 = EDGE_CURVE('',#881,#889,#891,.T.);
#889 = VERTEX_POINT('',#890);
#890 = CARTESIAN_POINT('',(42.95,50.8,22.));
#891 = LINE('',#892,#893);
#892 = CARTESIAN_POINT('',(35.525,50.8,22.));
#893 = VECTOR('',#894,1.);
#894 = DIRECTION('',(1.,0.,0.));
#895 = ORIENTED_EDGE('',*,*,#896,.F.);
#896 = EDGE_CURVE('',#873,#889,#897,.T.);
#897 = LINE('',#898,#899);
#898 = CARTESIAN_POINT('',(42.95,53.9,22.));
#899 = VECTOR('',#900,1.);
#900 = DIRECTION('',(0.,1.,2.22044604925E-16));
#901 = PLANE('',#902);
#902 = AXIS2_PLACEMENT_3D('',#903,#904,#905);
#903 = CARTESIAN_POINT('',(34.,57.,22.));
#904 = DIRECTION('',(0.,-2.22044604925E-16,1.));
#905 = DIRECTION('',(0.,-1.,-2.22044604925E-16));
#906 = ADVANCED_FACE('',(#907),#926,.F.);
#907 = FACE_BOUND('',#908,.F.);
#908 = EDGE_LOOP('',(#909,#910,#918,#925));
#909 = ORIENTED_EDGE('',*,*,#363,.T.);
#910 = ORIENTED_EDGE('',*,*,#911,.T.);
#911 = EDGE_CURVE('',#364,#912,#914,.T.);
#912 = VERTEX_POINT('',#913);
#913 = CARTESIAN_POINT('',(41.8,50.8,14.));
#914 = LINE('',#915,#916);
#915 = CARTESIAN_POINT('',(41.8,62.,14.));
#916 = VECTOR('',#917,1.);
#917 = DIRECTION('',(0.,-1.,-2.22044604925E-16));
#918 = ORIENTED_EDGE('',*,*,#919,.F.);
#919 = EDGE_CURVE('',#912,#912,#920,.T.);
#920 = CIRCLE('',#921,1.8);
#921 = AXIS2_PLACEMENT_3D('',#922,#923,#924);
#922 = CARTESIAN_POINT('',(40.,50.8,14.));
#923 = DIRECTION('',(0.,-1.,-2.22044604925E-16));
#924 = DIRECTION('',(1.,0.,0.));
#925 = ORIENTED_EDGE('',*,*,#911,.F.);
#926 = CYLINDRICAL_SURFACE('',#927,1.8);
#927 = AXIS2_PLACEMENT_3D('',#928,#929,#930);
#928 = CARTESIAN_POINT('',(40.,62.,14.));
#929 = DIRECTION('',(0.,-1.,-2.22044604925E-16));
#930 = DIRECTION('',(1.,0.,0.));
#931 = ADVANCED_FACE('',(#932),#950,.T.);
#932 = FACE_BOUND('',#933,.F.);
#933 = EDGE_LOOP('',(#934,#935,#943,#949));
#934 = ORIENTED_EDGE('',*,*,#814,.F.);
#935 = ORIENTED_EDGE('',*,*,#936,.T.);
#936 = EDGE_CURVE('',#791,#937,#939,.T.);
#937 = VERTEX_POINT('',#938);
#938 = CARTESIAN_POINT('',(28.4,60.,5.6));
#939 = LINE('',#940,#941);
#940 = CARTESIAN_POINT('',(28.133333333333,59.733333333333,
    5.866666666667));
#941 = VECTOR('',#942,1.);
#942 = DIRECTION('',(0.57735026919,0.57735026919,-0.57735026919));
#943 = ORIENTED_EDGE('',*,*,#944,.T.);
#944 = EDGE_CURVE('',#937,#473,#945,.T.);
#945 = LINE('',#946,#947);
#946 = CARTESIAN_POINT('',(28.,60.,5.6));
#947 = VECTOR('',#948,1.);
#948 = DIRECTION('',(1.,0.,0.));
#949 = ORIENTED_EDGE('',*,*,#480,.T.);
#950 = PLANE('',#951);
#951 = AXIS2_PLACEMENT_3D('',#952,#953,#954);
#952 = CARTESIAN_POINT('',(28.,59.8,5.8));
#953 = DIRECTION('',(0.,0.707106781187,0.707106781187));
#954 = DIRECTION('',(-1.,0.,0.));
#955 = ADVANCED_FACE('',(#956),#974,.F.);
#956 = FACE_BOUND('',#957,.F.);
#957 = EDGE_LOOP('',(#958,#959,#967,#973));
#958 = ORIENTED_EDGE('',*,*,#944,.F.);
#959 = ORIENTED_EDGE('',*,*,#960,.T.);
#960 = EDGE_CURVE('',#937,#961,#963,.T.);
#961 = VERTEX_POINT('',#962);
#962 = CARTESIAN_POINT('',(28.4,60.,2.4));
#963 = LINE('',#964,#965);
#964 = CARTESIAN_POINT('',(28.4,60.,6.));
#965 = VECTOR('',#966,1.);
#966 = DIRECTION('',(0.,0.,-1.));
#967 = ORIENTED_EDGE('',*,*,#968,.T.);
#968 = EDGE_CURVE('',#961,#465,#969,.T.);
#969 = LINE('',#970,#971);
#970 = CARTESIAN_POINT('',(28.,60.,2.4));
#971 = VECTOR('',#972,1.);
#972 = DIRECTION('',(1.,0.,0.));
#973 = ORIENTED_EDGE('',*,*,#472,.T.);
#974 = PLANE('',#975);
#975 = AXIS2_PLACEMENT_3D('',#976,#977,#978);
#976 = CARTESIAN_POINT('',(28.,60.,6.));
#977 = DIRECTION('',(0.,-1.,0.));
#978 = DIRECTION('',(0.,0.,-1.));
#979 = ADVANCED_FACE('',(#980),#991,.F.);
#980 = FACE_BOUND('',#981,.T.);
#981 = EDGE_LOOP('',(#982,#983,#989,#990));
#982 = ORIENTED_EDGE('',*,*,#773,.F.);
#983 = ORIENTED_EDGE('',*,*,#984,.T.);
#984 = EDGE_CURVE('',#766,#961,#985,.T.);
#985 = LINE('',#986,#987);
#986 = CARTESIAN_POINT('',(28.8,60.4,2.8));
#987 = VECTOR('',#988,1.);
#988 = DIRECTION('',(0.57735026919,0.57735026919,0.57735026919));
#989 = ORIENTED_EDGE('',*,*,#968,.T.);
#990 = ORIENTED_EDGE('',*,*,#464,.T.);
#991 = PLANE('',#992);
#992 = AXIS2_PLACEMENT_3D('',#993,#994,#995);
#993 = CARTESIAN_POINT('',(28.,59.8,2.2));
#994 = DIRECTION('',(0.,-0.707106781187,0.707106781187));
#995 = DIRECTION('',(-1.,-0.,0.));
#996 = ADVANCED_FACE('',(#997,#1005),#1008,.T.);
#997 = FACE_BOUND('',#998,.T.);
#998 = EDGE_LOOP('',(#999,#1000,#1001,#1002,#1003,#1004));
#999 = ORIENTED_EDGE('',*,*,#676,.T.);
#1000 = ORIENTED_EDGE('',*,*,#724,.T.);
#1001 = ORIENTED_EDGE('',*,*,#748,.T.);
#1002 = ORIENTED_EDGE('',*,*,#700,.T.);
#1003 = ORIENTED_EDGE('',*,*,#652,.T.);
#1004 = ORIENTED_EDGE('',*,*,#621,.T.);
#1005 = FACE_BOUND('',#1006,.T.);
#1006 = EDGE_LOOP('',(#1007));
#1007 = ORIENTED_EDGE('',*,*,#502,.F.);
#1008 = PLANE('',#1009);
#1009 = AXIS2_PLACEMENT_3D('',#1010,#1011,#1012);
#1010 = CARTESIAN_POINT('',(11.5,17.,2.));
#1011 = DIRECTION('',(0.,-4.440892098501E-16,1.));
#1012 = DIRECTION('',(1.,0.,0.));
#1013 = ADVANCED_FACE('',(#1014),#1020,.T.);
#1014 = FACE_BOUND('',#1015,.F.);
#1015 = EDGE_LOOP('',(#1016,#1017,#1018,#1019));
#1016 = ORIENTED_EDGE('',*,*,#936,.F.);
#1017 = ORIENTED_EDGE('',*,*,#790,.T.);
#1018 = ORIENTED_EDGE('',*,*,#984,.T.);
#1019 = ORIENTED_EDGE('',*,*,#960,.F.);
#1020 = PLANE('',#1021);
#1021 = AXIS2_PLACEMENT_3D('',#1022,#1023,#1024);
#1022 = CARTESIAN_POINT('',(28.2,59.8,6.));
#1023 = DIRECTION('',(-0.707106781187,0.707106781187,-0.));
#1024 = DIRECTION('',(-0.,0.,1.));
#1025 = ADVANCED_FACE('',(#1026,#1051),#1062,.F.);
#1026 = FACE_BOUND('',#1027,.F.);
#1027 = EDGE_LOOP('',(#1028,#1036,#1044,#1050));
#1028 = ORIENTED_EDGE('',*,*,#1029,.F.);
#1029 = EDGE_CURVE('',#1030,#871,#1032,.T.);
#1030 = VERTEX_POINT('',#1031);
#1031 = CARTESIAN_POINT('',(37.05,46.6,10.5));
#1032 = LINE('',#1033,#1034);
#1033 = CARTESIAN_POINT('',(37.05,46.6,10.5));
#1034 = VECTOR('',#1035,1.);
#1035 = DIRECTION('',(0.,-2.22044604925E-16,1.));
#1036 = ORIENTED_EDGE('',*,*,#1037,.T.);
#1037 = EDGE_CURVE('',#1030,#1038,#1040,.T.);
#1038 = VERTEX_POINT('',#1039);
#1039 = CARTESIAN_POINT('',(42.95,46.6,10.5));
#1040 = LINE('',#1041,#1042);
#1041 = CARTESIAN_POINT('',(37.05,46.6,10.5));
#1042 = VECTOR('',#1043,1.);
#1043 = DIRECTION('',(1.,0.,0.));
#1044 = ORIENTED_EDGE('',*,*,#1045,.T.);
#1045 = EDGE_CURVE('',#1038,#873,#1046,.T.);
#1046 = LINE('',#1047,#1048);
#1047 = CARTESIAN_POINT('',(42.95,46.6,10.5));
#1048 = VECTOR('',#1049,1.);
#1049 = DIRECTION('',(0.,-2.22044604925E-16,1.));
#1050 = ORIENTED_EDGE('',*,*,#870,.F.);
#1051 = FACE_BOUND('',#1052,.F.);
#1052 = EDGE_LOOP('',(#1053));
#1053 = ORIENTED_EDGE('',*,*,#1054,.F.);
#1054 = EDGE_CURVE('',#1055,#1055,#1057,.T.);
#1055 = VERTEX_POINT('',#1056);
#1056 = CARTESIAN_POINT('',(41.8,46.6,14.));
#1057 = CIRCLE('',#1058,1.8);
#1058 = AXIS2_PLACEMENT_3D('',#1059,#1060,#1061);
#1059 = CARTESIAN_POINT('',(40.,46.6,14.));
#1060 = DIRECTION('',(0.,-1.,-2.22044604925E-16));
#1061 = DIRECTION('',(1.,0.,0.));
#1062 = PLANE('',#1063);
#1063 = AXIS2_PLACEMENT_3D('',#1064,#1065,#1066);
#1064 = CARTESIAN_POINT('',(37.05,46.6,10.5));
#1065 = DIRECTION('',(0.,-1.,-2.22044604925E-16));
#1066 = DIRECTION('',(1.,0.,0.));
#1067 = ADVANCED_FACE('',(#1068),#1086,.F.);
#1068 = FACE_BOUND('',#1069,.F.);
#1069 = EDGE_LOOP('',(#1070,#1071,#1079,#1085));
#1070 = ORIENTED_EDGE('',*,*,#1045,.F.);
#1071 = ORIENTED_EDGE('',*,*,#1072,.F.);
#1072 = EDGE_CURVE('',#1073,#1038,#1075,.T.);
#1073 = VERTEX_POINT('',#1074);
#1074 = CARTESIAN_POINT('',(42.95,50.8,10.5));
#1075 = LINE('',#1076,#1077);
#1076 = CARTESIAN_POINT('',(42.95,50.8,10.5));
#1077 = VECTOR('',#1078,1.);
#1078 = DIRECTION('',(0.,-1.,-2.22044604925E-16));
#1079 = ORIENTED_EDGE('',*,*,#1080,.T.);
#1080 = EDGE_CURVE('',#1073,#889,#1081,.T.);
#1081 = LINE('',#1082,#1083);
#1082 = CARTESIAN_POINT('',(42.95,50.8,10.5));
#1083 = VECTOR('',#1084,1.);
#1084 = DIRECTION('',(0.,-2.22044604925E-16,1.));
#1085 = ORIENTED_EDGE('',*,*,#896,.F.);
#1086 = PLANE('',#1087);
#1087 = AXIS2_PLACEMENT_3D('',#1088,#1089,#1090);
#1088 = CARTESIAN_POINT('',(42.95,50.8,10.5));
#1089 = DIRECTION('',(1.,0.,0.));
#1090 = DIRECTION('',(0.,-1.,-2.22044604925E-16));
#1091 = ADVANCED_FACE('',(#1092,#1110),#1113,.T.);
#1092 = FACE_BOUND('',#1093,.T.);
#1093 = EDGE_LOOP('',(#1094,#1102,#1108,#1109));
#1094 = ORIENTED_EDGE('',*,*,#1095,.F.);
#1095 = EDGE_CURVE('',#1096,#881,#1098,.T.);
#1096 = VERTEX_POINT('',#1097);
#1097 = CARTESIAN_POINT('',(37.05,50.8,10.5));
#1098 = LINE('',#1099,#1100);
#1099 = CARTESIAN_POINT('',(37.05,50.8,10.5));
#1100 = VECTOR('',#1101,1.);
#1101 = DIRECTION('',(0.,-2.22044604925E-16,1.));
#1102 = ORIENTED_EDGE('',*,*,#1103,.T.);
#1103 = EDGE_CURVE('',#1096,#1073,#1104,.T.);
#1104 = LINE('',#1105,#1106);
#1105 = CARTESIAN_POINT('',(37.05,50.8,10.5));
#1106 = VECTOR('',#1107,1.);
#1107 = DIRECTION('',(1.,0.,0.));
#1108 = ORIENTED_EDGE('',*,*,#1080,.T.);
#1109 = ORIENTED_EDGE('',*,*,#888,.F.);
#1110 = FACE_BOUND('',#1111,.T.);
#1111 = EDGE_LOOP('',(#1112));
#1112 = ORIENTED_EDGE('',*,*,#919,.F.);
#1113 = PLANE('',#1114);
#1114 = AXIS2_PLACEMENT_3D('',#1115,#1116,#1117);
#1115 = CARTESIAN_POINT('',(37.05,50.8,10.5));
#1116 = DIRECTION('',(0.,-1.,-2.22044604925E-16));
#1117 = DIRECTION('',(1.,0.,0.));
#1118 = ADVANCED_FACE('',(#1119),#1130,.T.);
#1119 = FACE_BOUND('',#1120,.T.);
#1120 = EDGE_LOOP('',(#1121,#1122,#1128,#1129));
#1121 = ORIENTED_EDGE('',*,*,#1029,.F.);
#1122 = ORIENTED_EDGE('',*,*,#1123,.F.);
#1123 = EDGE_CURVE('',#1096,#1030,#1124,.T.);
#1124 = LINE('',#1125,#1126);
#1125 = CARTESIAN_POINT('',(37.05,50.8,10.5));
#1126 = VECTOR('',#1127,1.);
#1127 = DIRECTION('',(0.,-1.,-2.22044604925E-16));
#1128 = ORIENTED_EDGE('',*,*,#1095,.T.);
#1129 = ORIENTED_EDGE('',*,*,#880,.F.);
#1130 = PLANE('',#1131);
#1131 = AXIS2_PLACEMENT_3D('',#1132,#1133,#1134);
#1132 = CARTESIAN_POINT('',(37.05,50.8,10.5));
#1133 = DIRECTION('',(1.,0.,0.));
#1134 = DIRECTION('',(0.,-1.,-2.22044604925E-16));
#1135 = ADVANCED_FACE('',(#1136),#1142,.T.);
#1136 = FACE_BOUND('',#1137,.T.);
#1137 = EDGE_LOOP('',(#1138,#1139,#1140,#1141));
#1138 = ORIENTED_EDGE('',*,*,#1103,.F.);
#1139 = ORIENTED_EDGE('',*,*,#1123,.T.);
#1140 = ORIENTED_EDGE('',*,*,#1037,.T.);
#1141 = ORIENTED_EDGE('',*,*,#1072,.F.);
#1142 = PLANE('',#1143);
#1143 = AXIS2_PLACEMENT_3D('',#1144,#1145,#1146);
#1144 = CARTESIAN_POINT('',(37.05,50.8,10.5));
#1145 = DIRECTION('',(0.,-2.22044604925E-16,1.));
#1146 = DIRECTION('',(0.,-1.,-2.22044604925E-16));
#1147 = ADVANCED_FACE('',(#1148),#1167,.F.);
#1148 = FACE_BOUND('',#1149,.F.);
#1149 = EDGE_LOOP('',(#1150,#1151,#1159,#1166));
#1150 = ORIENTED_EDGE('',*,*,#1054,.T.);
#1151 = ORIENTED_EDGE('',*,*,#1152,.T.);
#1152 = EDGE_CURVE('',#1055,#1153,#1155,.T.);
#1153 = VERTEX_POINT('',#1154);
#1154 = CARTESIAN_POINT('',(41.8,45.,14.));
#1155 = LINE('',#1156,#1157);
#1156 = CARTESIAN_POINT('',(41.8,62.,14.));
#1157 = VECTOR('',#1158,1.);
#1158 = DIRECTION('',(0.,-1.,-2.22044604925E-16));
#1159 = ORIENTED_EDGE('',*,*,#1160,.F.);
#1160 = EDGE_CURVE('',#1153,#1153,#1161,.T.);
#1161 = CIRCLE('',#1162,1.8);
#1162 = AXIS2_PLACEMENT_3D('',#1163,#1164,#1165);
#1163 = CARTESIAN_POINT('',(40.,45.,14.));
#1164 = DIRECTION('',(0.,-1.,-2.22044604925E-16));
#1165 = DIRECTION('',(1.,0.,0.));
#1166 = ORIENTED_EDGE('',*,*,#1152,.F.);
#1167 = CYLINDRICAL_SURFACE('',#1168,1.8);
#1168 = AXIS2_PLACEMENT_3D('',#1169,#1170,#1171);
#1169 = CARTESIAN_POINT('',(40.,62.,14.));
#1170 = DIRECTION('',(0.,-1.,-2.22044604925E-16));
#1171 = DIRECTION('',(1.,0.,0.));
#1172 = ADVANCED_FACE('',(#1173),#1176,.F.);
#1173 = FACE_BOUND('',#1174,.F.);
#1174 = EDGE_LOOP('',(#1175));
#1175 = ORIENTED_EDGE('',*,*,#1160,.T.);
#1176 = PLANE('',#1177);
#1177 = AXIS2_PLACEMENT_3D('',#1178,#1179,#1180);
#1178 = CARTESIAN_POINT('',(40.,45.,14.));
#1179 = DIRECTION('',(0.,-1.,-2.22044604925E-16));
#1180 = DIRECTION('',(1.,0.,0.));
#1181 = ( GEOMETRIC_REPRESENTATION_CONTEXT(3)
GLOBAL_UNCERTAINTY_ASSIGNED_CONTEXT((#1185))
GLOBAL_UNIT_ASSIGNED_CONTEXT((#1182,#1183,#1184)) REPRESENTATION_CONTEXT
('Context #1','3D Context with UNIT and UNCERTAINTY') );
#1182 = ( LENGTH_UNIT() NAMED_UNIT(*) SI_UNIT(.MILLI.,.METRE.) );
#1183 = ( NAMED_UNIT(*) PLANE_ANGLE_UNIT() SI_UNIT($,.RADIAN.) );
#1184 = ( NAMED_UNIT(*) SI_UNIT($,.STERADIAN.) SOLID_ANGLE_UNIT() );
#1185 = UNCERTAINTY_MEASURE_WITH_UNIT(LENGTH_MEASURE(1.E-07),#1182,
  'distance_accuracy_value','confusion accuracy');
#1186 = PRODUCT_RELATED_PRODUCT_CATEGORY('part',$,(#7));
ENDSEC;
END-ISO-10303-21;
