ISO-10303-21;
HEADER;
FILE_DESCRIPTION(('FreeCAD Model'),'2;1');
FILE_NAME('Open CASCADE Shape Model','2026-10-09T08:39:36',('FreeCAD'),(
    'FreeCAD'),'Open CASCADE STEP processor 7.8','FreeCAD','Unknown');
FILE_SCHEMA(('AUTOMOTIVE_DESIGN { 1 0 10303 214 1 1 1 1 }'));
ENDSEC;
DATA;
#1 = APPLICATION_PROTOCOL_DEFINITION('international standard',
  'automotive_design',2000,#2);
#2 = APPLICATION_CONTEXT(
  'core data for automotive mechanical design processes');
#3 = SHAPE_DEFINITION_REPRESENTATION(#4,#10);
#4 = PRODUCT_DEFINITION_SHAPE('','',#5);
#5 = PRODUCT_DEFINITION('design','',#6,#9);
#6 = PRODUCT_DEFINITION_FORMATION('','',#7);
#7 = PRODUCT('Open CASCADE STEP translator 7.8 21',
  'Open CASCADE STEP translator 7.8 21','',(#8));
#8 = PRODUCT_CONTEXT('',#2,'mechanical');
#9 = PRODUCT_DEFINITION_CONTEXT('part definition',#2,'design');
#10 = ADVANCED_BREP_SHAPE_REPRESENTATION('',(#11,#15),#544);
#11 = AXIS2_PLACEMENT_3D('',#12,#13,#14);
#12 = CARTESIAN_POINT('',(0.,0.,0.));
#13 = DIRECTION('',(0.,0.,1.));
#14 = DIRECTION('',(1.,0.,-0.));
#15 = MANIFOLD_SOLID_BREP('',#16);
#16 = CLOSED_SHELL('',(#17,#57,#99,#155,#179,#228,#245,#270,#287,#304,
    #321,#383,#442,#464,#481,#498,#515,#532));
#17 = ADVANCED_FACE('',(#18),#52,.F.);
#18 = FACE_BOUND('',#19,.F.);
#19 = EDGE_LOOP('',(#20,#30,#38,#46));
#20 = ORIENTED_EDGE('',*,*,#21,.F.);
#21 = EDGE_CURVE('',#22,#24,#26,.T.);
#22 = VERTEX_POINT('',#23);
#23 = CARTESIAN_POINT('',(0.,25.,1.998401444325E-15));
#24 = VERTEX_POINT('',#25);
#25 = CARTESIAN_POINT('',(0.,7.105427357601E-15,9.992007221626E-16));
#26 = LINE('',#27,#28);
#27 = CARTESIAN_POINT('',(0.,55.,1.7763568394E-15));
#28 = VECTOR('',#29,1.);
#29 = DIRECTION('',(0.,-1.,0.));
#30 = ORIENTED_EDGE('',*,*,#31,.T.);
#31 = EDGE_CURVE('',#22,#32,#34,.T.);
#32 = VERTEX_POINT('',#33);
#33 = CARTESIAN_POINT('',(0.,25.,8.));
#34 = LINE('',#35,#36);
#35 = CARTESIAN_POINT('',(0.,25.,-25.));
#36 = VECTOR('',#37,1.);
#37 = DIRECTION('',(0.,-2.22044604925E-16,1.));
#38 = ORIENTED_EDGE('',*,*,#39,.T.);
#39 = EDGE_CURVE('',#32,#40,#42,.T.);
#40 = VERTEX_POINT('',#41);
#41 = CARTESIAN_POINT('',(0.,7.105427357601E-15,8.));
#42 = LINE('',#43,#44);
#43 = CARTESIAN_POINT('',(0.,55.,8.));
#44 = VECTOR('',#45,1.);
#45 = DIRECTION('',(0.,-1.,0.));
#46 = ORIENTED_EDGE('',*,*,#47,.F.);
#47 = EDGE_CURVE('',#24,#40,#48,.T.);
#48 = LINE('',#49,#50);
#49 = CARTESIAN_POINT('',(0.,1.42108547152E-14,-25.));
#50 = VECTOR('',#51,1.);
#51 = DIRECTION('',(0.,-2.22044604925E-16,1.));
#52 = PLANE('',#53);
#53 = AXIS2_PLACEMENT_3D('',#54,#55,#56);
#54 = CARTESIAN_POINT('',(0.,55.,8.));
#55 = DIRECTION('',(1.,0.,0.));
#56 = DIRECTION('',(0.,0.,-1.));
#57 = ADVANCED_FACE('',(#58,#83),#94,.T.);
#58 = FACE_BOUND('',#59,.T.);
#59 = EDGE_LOOP('',(#60,#61,#69,#77));
#60 = ORIENTED_EDGE('',*,*,#21,.F.);
#61 = ORIENTED_EDGE('',*,*,#62,.F.);
#62 = EDGE_CURVE('',#63,#22,#65,.T.);
#63 = VERTEX_POINT('',#64);
#64 = CARTESIAN_POINT('',(24.,25.,1.998401444325E-15));
#65 = LINE('',#66,#67);
#66 = CARTESIAN_POINT('',(0.,25.,2.22044604925E-16));
#67 = VECTOR('',#68,1.);
#68 = DIRECTION('',(-1.,-0.,0.));
#69 = ORIENTED_EDGE('',*,*,#70,.T.);
#70 = EDGE_CURVE('',#63,#71,#73,.T.);
#71 = VERTEX_POINT('',#72);
#72 = CARTESIAN_POINT('',(24.,7.105427357601E-15,1.998401444325E-15));
#73 = LINE('',#74,#75);
#74 = CARTESIAN_POINT('',(24.,48.,1.7763568394E-15));
#75 = VECTOR('',#76,1.);
#76 = DIRECTION('',(0.,-1.,0.));
#77 = ORIENTED_EDGE('',*,*,#78,.T.);
#78 = EDGE_CURVE('',#71,#24,#79,.T.);
#79 = LINE('',#80,#81);
#80 = CARTESIAN_POINT('',(0.,7.105427357601E-15,9.992007221626E-16));
#81 = VECTOR('',#82,1.);
#82 = DIRECTION('',(-1.,-0.,0.));
#83 = FACE_BOUND('',#84,.T.);
#84 = EDGE_LOOP('',(#85));
#85 = ORIENTED_EDGE('',*,*,#86,.T.);
#86 = EDGE_CURVE('',#87,#87,#89,.T.);
#87 = VERTEX_POINT('',#88);
#88 = CARTESIAN_POINT('',(11.5,13.2,1.779132396962E-15));
#89 = CIRCLE('',#90,1.8);
#90 = AXIS2_PLACEMENT_3D('',#91,#92,#93);
#91 = CARTESIAN_POINT('',(11.5,15.,1.7763568394E-15));
#92 = DIRECTION('',(0.,-2.22044604925E-16,1.));
#93 = DIRECTION('',(0.,-1.,-2.22044604925E-16));
#94 = PLANE('',#95);
#95 = AXIS2_PLACEMENT_3D('',#96,#97,#98);
#96 = CARTESIAN_POINT('',(0.,55.,1.7763568394E-15));
#97 = DIRECTION('',(0.,0.,-1.));
#98 = DIRECTION('',(1.,0.,0.));
#99 = ADVANCED_FACE('',(#100),#150,.T.);
#100 = FACE_BOUND('',#101,.T.);
#101 = EDGE_LOOP('',(#102,#103,#104,#112,#120,#128,#136,#144));
#102 = ORIENTED_EDGE('',*,*,#47,.F.);
#103 = ORIENTED_EDGE('',*,*,#78,.F.);
#104 = ORIENTED_EDGE('',*,*,#105,.F.);
#105 = EDGE_CURVE('',#106,#71,#108,.T.);
#106 = VERTEX_POINT('',#107);
#107 = CARTESIAN_POINT('',(24.,7.105427357601E-15,8.));
#108 = LINE('',#109,#110);
#109 = CARTESIAN_POINT('',(24.,7.105427357601E-15,-8.));
#110 = VECTOR('',#111,1.);
#111 = DIRECTION('',(0.,2.22044604925E-16,-1.));
#112 = ORIENTED_EDGE('',*,*,#113,.T.);
#113 = EDGE_CURVE('',#106,#114,#116,.T.);
#114 = VERTEX_POINT('',#115);
#115 = CARTESIAN_POINT('',(6.25,7.105427357601E-15,8.));
#116 = LINE('',#117,#118);
#117 = CARTESIAN_POINT('',(0.,7.105427357601E-15,8.));
#118 = VECTOR('',#119,1.);
#119 = DIRECTION('',(-1.,-0.,0.));
#120 = ORIENTED_EDGE('',*,*,#121,.T.);
#121 = EDGE_CURVE('',#114,#122,#124,.T.);
#122 = VERTEX_POINT('',#123);
#123 = CARTESIAN_POINT('',(6.25,7.105427357601E-15,4.));
#124 = LINE('',#125,#126);
#125 = CARTESIAN_POINT('',(6.25,7.105427357601E-15,-10.5));
#126 = VECTOR('',#127,1.);
#127 = DIRECTION('',(0.,2.22044604925E-16,-1.));
#128 = ORIENTED_EDGE('',*,*,#129,.F.);
#129 = EDGE_CURVE('',#130,#122,#132,.T.);
#130 = VERTEX_POINT('',#131);
#131 = CARTESIAN_POINT('',(1.75,7.105427357601E-15,4.));
#132 = LINE('',#133,#134);
#133 = CARTESIAN_POINT('',(0.875,7.105427357601E-15,4.));
#134 = VECTOR('',#135,1.);
#135 = DIRECTION('',(1.,0.,0.));
#136 = ORIENTED_EDGE('',*,*,#137,.F.);
#137 = EDGE_CURVE('',#138,#130,#140,.T.);
#138 = VERTEX_POINT('',#139);
#139 = CARTESIAN_POINT('',(1.75,7.105427357601E-15,8.));
#140 = LINE('',#141,#142);
#141 = CARTESIAN_POINT('',(1.75,7.105427357601E-15,-10.5));
#142 = VECTOR('',#143,1.);
#143 = DIRECTION('',(0.,2.22044604925E-16,-1.));
#144 = ORIENTED_EDGE('',*,*,#145,.T.);
#145 = EDGE_CURVE('',#138,#40,#146,.T.);
#146 = LINE('',#147,#148);
#147 = CARTESIAN_POINT('',(0.,7.105427357601E-15,8.));
#148 = VECTOR('',#149,1.);
#149 = DIRECTION('',(-1.,-0.,0.));
#150 = PLANE('',#151);
#151 = AXIS2_PLACEMENT_3D('',#152,#153,#154);
#152 = CARTESIAN_POINT('',(0.,1.42108547152E-14,-25.));
#153 = DIRECTION('',(0.,-1.,-2.22044604925E-16));
#154 = DIRECTION('',(1.,0.,0.));
#155 = ADVANCED_FACE('',(#156),#174,.F.);
#156 = FACE_BOUND('',#157,.F.);
#157 = EDGE_LOOP('',(#158,#159,#160,#168));
#158 = ORIENTED_EDGE('',*,*,#145,.T.);
#159 = ORIENTED_EDGE('',*,*,#39,.F.);
#160 = ORIENTED_EDGE('',*,*,#161,.F.);
#161 = EDGE_CURVE('',#162,#32,#164,.T.);
#162 = VERTEX_POINT('',#163);
#163 = CARTESIAN_POINT('',(1.75,25.,8.));
#164 = LINE('',#165,#166);
#165 = CARTESIAN_POINT('',(0.,25.,8.));
#166 = VECTOR('',#167,1.);
#167 = DIRECTION('',(-1.,-0.,0.));
#168 = ORIENTED_EDGE('',*,*,#169,.T.);
#169 = EDGE_CURVE('',#162,#138,#170,.T.);
#170 = LINE('',#171,#172);
#171 = CARTESIAN_POINT('',(1.75,39.,8.));
#172 = VECTOR('',#173,1.);
#173 = DIRECTION('',(0.,-1.,-2.22044604925E-16));
#174 = PLANE('',#175);
#175 = AXIS2_PLACEMENT_3D('',#176,#177,#178);
#176 = CARTESIAN_POINT('',(0.,55.,8.));
#177 = DIRECTION('',(0.,0.,-1.));
#178 = DIRECTION('',(1.,0.,0.));
#179 = ADVANCED_FACE('',(#180),#223,.F.);
#180 = FACE_BOUND('',#181,.F.);
#181 = EDGE_LOOP('',(#182,#183,#184,#192,#200,#208,#216,#222));
#182 = ORIENTED_EDGE('',*,*,#31,.F.);
#183 = ORIENTED_EDGE('',*,*,#62,.F.);
#184 = ORIENTED_EDGE('',*,*,#185,.F.);
#185 = EDGE_CURVE('',#186,#63,#188,.T.);
#186 = VERTEX_POINT('',#187);
#187 = CARTESIAN_POINT('',(24.,25.,8.));
#188 = LINE('',#189,#190);
#189 = CARTESIAN_POINT('',(24.,25.,-8.));
#190 = VECTOR('',#191,1.);
#191 = DIRECTION('',(0.,2.22044604925E-16,-1.));
#192 = ORIENTED_EDGE('',*,*,#193,.T.);
#193 = EDGE_CURVE('',#186,#194,#196,.T.);
#194 = VERTEX_POINT('',#195);
#195 = CARTESIAN_POINT('',(6.25,25.,8.));
#196 = LINE('',#197,#198);
#197 = CARTESIAN_POINT('',(0.,25.,8.));
#198 = VECTOR('',#199,1.);
#199 = DIRECTION('',(-1.,-0.,0.));
#200 = ORIENTED_EDGE('',*,*,#201,.T.);
#201 = EDGE_CURVE('',#194,#202,#204,.T.);
#202 = VERTEX_POINT('',#203);
#203 = CARTESIAN_POINT('',(6.25,25.,4.));
#204 = LINE('',#205,#206);
#205 = CARTESIAN_POINT('',(6.25,25.,-10.5));
#206 = VECTOR('',#207,1.);
#207 = DIRECTION('',(0.,2.22044604925E-16,-1.));
#208 = ORIENTED_EDGE('',*,*,#209,.F.);
#209 = EDGE_CURVE('',#210,#202,#212,.T.);
#210 = VERTEX_POINT('',#211);
#211 = CARTESIAN_POINT('',(1.75,25.,4.));
#212 = LINE('',#213,#214);
#213 = CARTESIAN_POINT('',(0.875,25.,4.));
#214 = VECTOR('',#215,1.);
#215 = DIRECTION('',(1.,0.,0.));
#216 = ORIENTED_EDGE('',*,*,#217,.F.);
#217 = EDGE_CURVE('',#162,#210,#218,.T.);
#218 = LINE('',#219,#220);
#219 = CARTESIAN_POINT('',(1.75,25.,-10.5));
#220 = VECTOR('',#221,1.);
#221 = DIRECTION('',(0.,2.22044604925E-16,-1.));
#222 = ORIENTED_EDGE('',*,*,#161,.T.);
#223 = PLANE('',#224);
#224 = AXIS2_PLACEMENT_3D('',#225,#226,#227);
#225 = CARTESIAN_POINT('',(0.,25.,-25.));
#226 = DIRECTION('',(0.,-1.,-2.22044604925E-16));
#227 = DIRECTION('',(1.,0.,0.));
#228 = ADVANCED_FACE('',(#229),#240,.T.);
#229 = FACE_BOUND('',#230,.T.);
#230 = EDGE_LOOP('',(#231,#232,#238,#239));
#231 = ORIENTED_EDGE('',*,*,#185,.F.);
#232 = ORIENTED_EDGE('',*,*,#233,.T.);
#233 = EDGE_CURVE('',#186,#106,#234,.T.);
#234 = LINE('',#235,#236);
#235 = CARTESIAN_POINT('',(24.,48.,8.));
#236 = VECTOR('',#237,1.);
#237 = DIRECTION('',(0.,-1.,0.));
#238 = ORIENTED_EDGE('',*,*,#105,.T.);
#239 = ORIENTED_EDGE('',*,*,#70,.F.);
#240 = PLANE('',#241);
#241 = AXIS2_PLACEMENT_3D('',#242,#243,#244);
#242 = CARTESIAN_POINT('',(24.,41.,9.));
#243 = DIRECTION('',(1.,0.,0.));
#244 = DIRECTION('',(0.,0.,-1.));
#245 = ADVANCED_FACE('',(#246),#265,.F.);
#246 = FACE_BOUND('',#247,.F.);
#247 = EDGE_LOOP('',(#248,#257,#263,#264));
#248 = ORIENTED_EDGE('',*,*,#249,.F.);
#249 = EDGE_CURVE('',#250,#250,#252,.T.);
#250 = VERTEX_POINT('',#251);
#251 = CARTESIAN_POINT('',(11.5,13.2,2.));
#252 = CIRCLE('',#253,1.8);
#253 = AXIS2_PLACEMENT_3D('',#254,#255,#256);
#254 = CARTESIAN_POINT('',(11.5,15.,2.));
#255 = DIRECTION('',(0.,-2.22044604925E-16,1.));
#256 = DIRECTION('',(0.,-1.,-2.22044604925E-16));
#257 = ORIENTED_EDGE('',*,*,#258,.F.);
#258 = EDGE_CURVE('',#87,#250,#259,.T.);
#259 = LINE('',#260,#261);
#260 = CARTESIAN_POINT('',(11.5,13.2,-0.1));
#261 = VECTOR('',#262,1.);
#262 = DIRECTION('',(0.,-2.22044604925E-16,1.));
#263 = ORIENTED_EDGE('',*,*,#86,.T.);
#264 = ORIENTED_EDGE('',*,*,#258,.T.);
#265 = CYLINDRICAL_SURFACE('',#266,1.8);
#266 = AXIS2_PLACEMENT_3D('',#267,#268,#269);
#267 = CARTESIAN_POINT('',(11.5,15.,-0.1));
#268 = DIRECTION('',(0.,-2.22044604925E-16,1.));
#269 = DIRECTION('',(0.,-1.,-2.22044604925E-16));
#270 = ADVANCED_FACE('',(#271),#282,.T.);
#271 = FACE_BOUND('',#272,.T.);
#272 = EDGE_LOOP('',(#273,#279,#280,#281));
#273 = ORIENTED_EDGE('',*,*,#274,.F.);
#274 = EDGE_CURVE('',#210,#130,#275,.T.);
#275 = LINE('',#276,#277);
#276 = CARTESIAN_POINT('',(1.75,39.,4.));
#277 = VECTOR('',#278,1.);
#278 = DIRECTION('',(0.,-1.,-2.22044604925E-16));
#279 = ORIENTED_EDGE('',*,*,#217,.F.);
#280 = ORIENTED_EDGE('',*,*,#169,.T.);
#281 = ORIENTED_EDGE('',*,*,#137,.T.);
#282 = PLANE('',#283);
#283 = AXIS2_PLACEMENT_3D('',#284,#285,#286);
#284 = CARTESIAN_POINT('',(1.75,39.,4.));
#285 = DIRECTION('',(1.,0.,0.));
#286 = DIRECTION('',(0.,-1.,-2.22044604925E-16));
#287 = ADVANCED_FACE('',(#288),#299,.T.);
#288 = FACE_BOUND('',#289,.T.);
#289 = EDGE_LOOP('',(#290,#296,#297,#298));
#290 = ORIENTED_EDGE('',*,*,#291,.F.);
#291 = EDGE_CURVE('',#202,#122,#292,.T.);
#292 = LINE('',#293,#294);
#293 = CARTESIAN_POINT('',(6.25,39.,4.));
#294 = VECTOR('',#295,1.);
#295 = DIRECTION('',(0.,-1.,-2.22044604925E-16));
#296 = ORIENTED_EDGE('',*,*,#209,.F.);
#297 = ORIENTED_EDGE('',*,*,#274,.T.);
#298 = ORIENTED_EDGE('',*,*,#129,.T.);
#299 = PLANE('',#300);
#300 = AXIS2_PLACEMENT_3D('',#301,#302,#303);
#301 = CARTESIAN_POINT('',(1.75,39.,4.));
#302 = DIRECTION('',(0.,-2.22044604925E-16,1.));
#303 = DIRECTION('',(0.,-1.,-2.22044604925E-16));
#304 = ADVANCED_FACE('',(#305),#316,.F.);
#305 = FACE_BOUND('',#306,.F.);
#306 = EDGE_LOOP('',(#307,#308,#309,#315));
#307 = ORIENTED_EDGE('',*,*,#291,.F.);
#308 = ORIENTED_EDGE('',*,*,#201,.F.);
#309 = ORIENTED_EDGE('',*,*,#310,.T.);
#310 = EDGE_CURVE('',#194,#114,#311,.T.);
#311 = LINE('',#312,#313);
#312 = CARTESIAN_POINT('',(6.25,39.,8.));
#313 = VECTOR('',#314,1.);
#314 = DIRECTION('',(0.,-1.,-2.22044604925E-16));
#315 = ORIENTED_EDGE('',*,*,#121,.T.);
#316 = PLANE('',#317);
#317 = AXIS2_PLACEMENT_3D('',#318,#319,#320);
#318 = CARTESIAN_POINT('',(6.25,39.,4.));
#319 = DIRECTION('',(1.,0.,0.));
#320 = DIRECTION('',(0.,-1.,-2.22044604925E-16));
#321 = ADVANCED_FACE('',(#322,#328),#378,.F.);
#322 = FACE_BOUND('',#323,.F.);
#323 = EDGE_LOOP('',(#324,#325,#326,#327));
#324 = ORIENTED_EDGE('',*,*,#310,.F.);
#325 = ORIENTED_EDGE('',*,*,#193,.F.);
#326 = ORIENTED_EDGE('',*,*,#233,.T.);
#327 = ORIENTED_EDGE('',*,*,#113,.T.);
#328 = FACE_BOUND('',#329,.F.);
#329 = EDGE_LOOP('',(#330,#340,#348,#356,#364,#372));
#330 = ORIENTED_EDGE('',*,*,#331,.T.);
#331 = EDGE_CURVE('',#332,#334,#336,.T.);
#332 = VERTEX_POINT('',#333);
#333 = CARTESIAN_POINT('',(14.45,13.296816705891,8.));
#334 = VERTEX_POINT('',#335);
#335 = CARTESIAN_POINT('',(14.45,16.703183294109,8.));
#336 = LINE('',#337,#338);
#337 = CARTESIAN_POINT('',(14.45,34.148408352945,8.));
#338 = VECTOR('',#339,1.);
#339 = DIRECTION('',(2.607407032384E-16,1.,0.));
#340 = ORIENTED_EDGE('',*,*,#341,.T.);
#341 = EDGE_CURVE('',#334,#342,#344,.T.);
#342 = VERTEX_POINT('',#343);
#343 = CARTESIAN_POINT('',(11.5,18.406366588219,8.));
#344 = LINE('',#345,#346);
#345 = CARTESIAN_POINT('',(0.739745962156,24.618802153517,8.));
#346 = VECTOR('',#347,1.);
#347 = DIRECTION('',(-0.866025403784,0.5,0.));
#348 = ORIENTED_EDGE('',*,*,#349,.T.);
#349 = EDGE_CURVE('',#342,#350,#352,.T.);
#350 = VERTEX_POINT('',#351);
#351 = CARTESIAN_POINT('',(8.55,16.703183294109,8.));
#352 = LINE('',#353,#354);
#353 = CARTESIAN_POINT('',(15.110254037844,20.490747728811,8.));
#354 = VECTOR('',#355,1.);
#355 = DIRECTION('',(-0.866025403784,-0.5,0.));
#356 = ORIENTED_EDGE('',*,*,#357,.T.);
#357 = EDGE_CURVE('',#350,#358,#360,.T.);
#358 = VERTEX_POINT('',#359);
#359 = CARTESIAN_POINT('',(8.55,13.296816705891,8.));
#360 = LINE('',#361,#362);
#361 = CARTESIAN_POINT('',(8.55,35.851591647055,8.));
#362 = VECTOR('',#363,1.);
#363 = DIRECTION('',(1.303703516192E-16,-1.,0.));
#364 = ORIENTED_EDGE('',*,*,#365,.T.);
#365 = EDGE_CURVE('',#358,#366,#368,.T.);
#366 = VERTEX_POINT('',#367);
#367 = CARTESIAN_POINT('',(11.5,11.593633411781,8.));
#368 = LINE('',#369,#370);
#369 = CARTESIAN_POINT('',(-3.685254037844,20.360843918244,8.));
#370 = VECTOR('',#371,1.);
#371 = DIRECTION('',(0.866025403784,-0.5,0.));
#372 = ORIENTED_EDGE('',*,*,#373,.T.);
#373 = EDGE_CURVE('',#366,#332,#374,.T.);
#374 = LINE('',#375,#376);
#375 = CARTESIAN_POINT('',(16.585254037844,14.529606199428,8.));
#376 = VECTOR('',#377,1.);
#377 = DIRECTION('',(0.866025403784,0.5,0.));
#378 = PLANE('',#379);
#379 = AXIS2_PLACEMENT_3D('',#380,#381,#382);
#380 = CARTESIAN_POINT('',(0.,55.,8.));
#381 = DIRECTION('',(0.,0.,-1.));
#382 = DIRECTION('',(1.,0.,0.));
#383 = ADVANCED_FACE('',(#384,#434),#437,.T.);
#384 = FACE_BOUND('',#385,.T.);
#385 = EDGE_LOOP('',(#386,#396,#404,#412,#420,#428));
#386 = ORIENTED_EDGE('',*,*,#387,.T.);
#387 = EDGE_CURVE('',#388,#390,#392,.T.);
#388 = VERTEX_POINT('',#389);
#389 = CARTESIAN_POINT('',(14.45,16.703183294109,2.));
#390 = VERTEX_POINT('',#391);
#391 = CARTESIAN_POINT('',(11.5,18.406366588219,2.));
#392 = LINE('',#393,#394);
#393 = CARTESIAN_POINT('',(14.45,16.703183294109,2.));
#394 = VECTOR('',#395,1.);
#395 = DIRECTION('',(-0.866025403784,0.5,2.22044604925E-16));
#396 = ORIENTED_EDGE('',*,*,#397,.T.);
#397 = EDGE_CURVE('',#390,#398,#400,.T.);
#398 = VERTEX_POINT('',#399);
#399 = CARTESIAN_POINT('',(8.55,16.703183294109,2.));
#400 = LINE('',#401,#402);
#401 = CARTESIAN_POINT('',(11.5,18.406366588219,2.));
#402 = VECTOR('',#403,1.);
#403 = DIRECTION('',(-0.866025403784,-0.5,-2.22044604925E-16));
#404 = ORIENTED_EDGE('',*,*,#405,.T.);
#405 = EDGE_CURVE('',#398,#406,#408,.T.);
#406 = VERTEX_POINT('',#407);
#407 = CARTESIAN_POINT('',(8.55,13.296816705891,2.));
#408 = LINE('',#409,#410);
#409 = CARTESIAN_POINT('',(8.55,16.703183294109,2.));
#410 = VECTOR('',#411,1.);
#411 = DIRECTION('',(1.303703516192E-16,-1.,-4.440892098501E-16));
#412 = ORIENTED_EDGE('',*,*,#413,.T.);
#413 = EDGE_CURVE('',#406,#414,#416,.T.);
#414 = VERTEX_POINT('',#415);
#415 = CARTESIAN_POINT('',(11.5,11.593633411781,2.));
#416 = LINE('',#417,#418);
#417 = CARTESIAN_POINT('',(8.55,13.296816705891,2.));
#418 = VECTOR('',#419,1.);
#419 = DIRECTION('',(0.866025403784,-0.5,-2.22044604925E-16));
#420 = ORIENTED_EDGE('',*,*,#421,.T.);
#421 = EDGE_CURVE('',#414,#422,#424,.T.);
#422 = VERTEX_POINT('',#423);
#423 = CARTESIAN_POINT('',(14.45,13.296816705891,2.));
#424 = LINE('',#425,#426);
#425 = CARTESIAN_POINT('',(11.5,11.593633411781,2.));
#426 = VECTOR('',#427,1.);
#427 = DIRECTION('',(0.866025403784,0.5,2.22044604925E-16));
#428 = ORIENTED_EDGE('',*,*,#429,.T.);
#429 = EDGE_CURVE('',#422,#388,#430,.T.);
#430 = LINE('',#431,#432);
#431 = CARTESIAN_POINT('',(14.45,13.296816705891,2.));
#432 = VECTOR('',#433,1.);
#433 = DIRECTION('',(2.607407032384E-16,1.,4.440892098501E-16));
#434 = FACE_BOUND('',#435,.T.);
#435 = EDGE_LOOP('',(#436));
#436 = ORIENTED_EDGE('',*,*,#249,.F.);
#437 = PLANE('',#438);
#438 = AXIS2_PLACEMENT_3D('',#439,#440,#441);
#439 = CARTESIAN_POINT('',(11.5,15.,2.));
#440 = DIRECTION('',(0.,-4.440892098501E-16,1.));
#441 = DIRECTION('',(1.,0.,0.));
#442 = ADVANCED_FACE('',(#443),#459,.T.);
#443 = FACE_BOUND('',#444,.T.);
#444 = EDGE_LOOP('',(#445,#446,#452,#453));
#445 = ORIENTED_EDGE('',*,*,#429,.F.);
#446 = ORIENTED_EDGE('',*,*,#447,.T.);
#447 = EDGE_CURVE('',#422,#332,#448,.T.);
#448 = LINE('',#449,#450);
#449 = CARTESIAN_POINT('',(14.45,13.296816705891,2.));
#450 = VECTOR('',#451,1.);
#451 = DIRECTION('',(0.,-4.440892098501E-16,1.));
#452 = ORIENTED_EDGE('',*,*,#331,.T.);
#453 = ORIENTED_EDGE('',*,*,#454,.F.);
#454 = EDGE_CURVE('',#388,#334,#455,.T.);
#455 = LINE('',#456,#457);
#456 = CARTESIAN_POINT('',(14.45,16.703183294109,2.));
#457 = VECTOR('',#458,1.);
#458 = DIRECTION('',(0.,-4.440892098501E-16,1.));
#459 = PLANE('',#460);
#460 = AXIS2_PLACEMENT_3D('',#461,#462,#463);
#461 = CARTESIAN_POINT('',(14.45,13.296816705891,2.));
#462 = DIRECTION('',(-1.,2.607407032384E-16,1.157921328769E-31));
#463 = DIRECTION('',(2.607407032384E-16,1.,4.440892098501E-16));
#464 = ADVANCED_FACE('',(#465),#476,.T.);
#465 = FACE_BOUND('',#466,.T.);
#466 = EDGE_LOOP('',(#467,#468,#474,#475));
#467 = ORIENTED_EDGE('',*,*,#421,.F.);
#468 = ORIENTED_EDGE('',*,*,#469,.T.);
#469 = EDGE_CURVE('',#414,#366,#470,.T.);
#470 = LINE('',#471,#472);
#471 = CARTESIAN_POINT('',(11.5,11.593633411781,2.));
#472 = VECTOR('',#473,1.);
#473 = DIRECTION('',(0.,-4.440892098501E-16,1.));
#474 = ORIENTED_EDGE('',*,*,#373,.T.);
#475 = ORIENTED_EDGE('',*,*,#447,.F.);
#476 = PLANE('',#477);
#477 = AXIS2_PLACEMENT_3D('',#478,#479,#480);
#478 = CARTESIAN_POINT('',(11.5,11.593633411781,2.));
#479 = DIRECTION('',(-0.5,0.866025403784,3.845925372767E-16));
#480 = DIRECTION('',(0.866025403784,0.5,2.22044604925E-16));
#481 = ADVANCED_FACE('',(#482),#493,.T.);
#482 = FACE_BOUND('',#483,.T.);
#483 = EDGE_LOOP('',(#484,#485,#486,#487));
#484 = ORIENTED_EDGE('',*,*,#387,.F.);
#485 = ORIENTED_EDGE('',*,*,#454,.T.);
#486 = ORIENTED_EDGE('',*,*,#341,.T.);
#487 = ORIENTED_EDGE('',*,*,#488,.F.);
#488 = EDGE_CURVE('',#390,#342,#489,.T.);
#489 = LINE('',#490,#491);
#490 = CARTESIAN_POINT('',(11.5,18.406366588219,2.));
#491 = VECTOR('',#492,1.);
#492 = DIRECTION('',(0.,-4.440892098501E-16,1.));
#493 = PLANE('',#494);
#494 = AXIS2_PLACEMENT_3D('',#495,#496,#497);
#495 = CARTESIAN_POINT('',(14.45,16.703183294109,2.));
#496 = DIRECTION('',(-0.5,-0.866025403784,-3.845925372767E-16));
#497 = DIRECTION('',(-0.866025403784,0.5,2.22044604925E-16));
#498 = ADVANCED_FACE('',(#499),#510,.T.);
#499 = FACE_BOUND('',#500,.T.);
#500 = EDGE_LOOP('',(#501,#502,#508,#509));
#501 = ORIENTED_EDGE('',*,*,#413,.F.);
#502 = ORIENTED_EDGE('',*,*,#503,.T.);
#503 = EDGE_CURVE('',#406,#358,#504,.T.);
#504 = LINE('',#505,#506);
#505 = CARTESIAN_POINT('',(8.55,13.296816705891,2.));
#506 = VECTOR('',#507,1.);
#507 = DIRECTION('',(0.,-4.440892098501E-16,1.));
#508 = ORIENTED_EDGE('',*,*,#365,.T.);
#509 = ORIENTED_EDGE('',*,*,#469,.F.);
#510 = PLANE('',#511);
#511 = AXIS2_PLACEMENT_3D('',#512,#513,#514);
#512 = CARTESIAN_POINT('',(8.55,13.296816705891,2.));
#513 = DIRECTION('',(0.5,0.866025403784,3.845925372767E-16));
#514 = DIRECTION('',(0.866025403784,-0.5,-2.22044604925E-16));
#515 = ADVANCED_FACE('',(#516),#527,.T.);
#516 = FACE_BOUND('',#517,.T.);
#517 = EDGE_LOOP('',(#518,#519,#520,#521));
#518 = ORIENTED_EDGE('',*,*,#397,.F.);
#519 = ORIENTED_EDGE('',*,*,#488,.T.);
#520 = ORIENTED_EDGE('',*,*,#349,.T.);
#521 = ORIENTED_EDGE('',*,*,#522,.F.);
#522 = EDGE_CURVE('',#398,#350,#523,.T.);
#523 = LINE('',#524,#525);
#524 = CARTESIAN_POINT('',(8.55,16.703183294109,2.));
#525 = VECTOR('',#526,1.);
#526 = DIRECTION('',(0.,-4.440892098501E-16,1.));
#527 = PLANE('',#528);
#528 = AXIS2_PLACEMENT_3D('',#529,#530,#531);
#529 = CARTESIAN_POINT('',(11.5,18.406366588219,2.));
#530 = DIRECTION('',(0.5,-0.866025403784,-3.845925372767E-16));
#531 = DIRECTION('',(-0.866025403784,-0.5,-2.22044604925E-16));
#532 = ADVANCED_FACE('',(#533),#539,.T.);
#533 = FACE_BOUND('',#534,.T.);
#534 = EDGE_LOOP('',(#535,#536,#537,#538));
#535 = ORIENTED_EDGE('',*,*,#405,.F.);
#536 = ORIENTED_EDGE('',*,*,#522,.T.);
#537 = ORIENTED_EDGE('',*,*,#357,.T.);
#538 = ORIENTED_EDGE('',*,*,#503,.F.);
#539 = PLANE('',#540);
#540 = AXIS2_PLACEMENT_3D('',#541,#542,#543);
#541 = CARTESIAN_POINT('',(8.55,16.703183294109,2.));
#542 = DIRECTION('',(1.,1.303703516192E-16,5.789606643846E-32));
#543 = DIRECTION('',(1.303703516192E-16,-1.,-4.440892098501E-16));
#544 = ( GEOMETRIC_REPRESENTATION_CONTEXT(3)
GLOBAL_UNCERTAINTY_ASSIGNED_CONTEXT((#548)) GLOBAL_UNIT_ASSIGNED_CONTEXT
((#545,#546,#547)) REPRESENTATION_CONTEXT('Context #1',
  '3D Context with UNIT and UNCERTAINTY') );
#545 = ( LENGTH_UNIT() NAMED_UNIT(*) SI_UNIT(.MILLI.,.METRE.) );
#546 = ( NAMED_UNIT(*) PLANE_ANGLE_UNIT() SI_UNIT($,.RADIAN.) );
#547 = ( NAMED_UNIT(*) SI_UNIT($,.STERADIAN.) SOLID_ANGLE_UNIT() );
#548 = UNCERTAINTY_MEASURE_WITH_UNIT(LENGTH_MEASURE(1.E-07),#545,
  'distance_accuracy_value','confusion accuracy');
#549 = PRODUCT_RELATED_PRODUCT_CATEGORY('part',$,(#7));
ENDSEC;
END-ISO-10303-21;
